# Blender 4.1.1
# www.blender.org
mtllib RightArm.mtl
o RightArm
v 0.173327 -0.155862 -0.175492
v 0.168232 0.204102 -0.175492
v 0.173327 -0.155862 0.184508
v 0.168232 0.204102 0.184508
v -0.187401 -0.160969 -0.175492
v -0.192497 0.198995 -0.175492
v -0.187401 -0.160969 0.184508
v -0.192497 0.198995 0.184508
v 0.110987 -1.325765 -0.110840
v 0.110987 -1.325765 0.113092
v 0.108205 -1.129214 -0.110840
v -0.089663 -1.328606 -0.110840
v -0.089663 -1.328606 0.113092
v -0.092447 -1.132055 -0.110840
v -0.092447 -1.132055 0.113092
v 0.108205 -1.129214 0.113092
v 0.132859 -1.128322 -0.124668
v 0.132859 -1.128322 0.125332
v 0.125922 -0.638258 -0.124668
v -0.117117 -1.131861 -0.124668
v -0.117117 -1.131861 0.125332
v -0.124053 -0.641797 -0.124668
v -0.124053 -0.641797 0.125332
v 0.125922 -0.638258 0.125332
v 0.101987 -0.666552 -0.118263
v 0.101987 -0.666552 0.105668
v 0.099205 -0.570976 -0.118263
v -0.098664 -0.667934 -0.118263
v -0.098664 -0.667934 0.105668
v -0.101447 -0.572358 -0.118263
v -0.101447 -0.572358 0.105668
v 0.099205 -0.570976 0.105668
v 0.124097 -0.590838 -0.124668
v 0.124097 -0.590838 0.125332
v 0.117159 -0.100775 -0.124668
v -0.125878 -0.594377 -0.124668
v -0.125878 -0.594377 0.125332
v -0.132816 -0.104314 -0.124668
v -0.132816 -0.104314 0.125332
v 0.117159 -0.100775 0.125332
vn 0.9999 0.0142 -0.0000
vn -0.0000 -0.0000 1.0000
vn -0.9999 -0.0142 -0.0000
vn -0.0000 -0.0000 -1.0000
vn 0.0142 -0.9999 -0.0000
vn -0.0142 0.9999 -0.0000
vn 0.0069 -1.0000 -0.0000
vn 0.9996 0.0291 -0.0000
vn -0.9996 -0.0291 -0.0000
vn -0.0069 1.0000 -0.0000
vt 0.164571 0.463881
vt 0.264480 0.363973
vt 0.264479 0.463882
vt 0.164571 0.263852
vt 0.264480 0.263852
vt 0.164571 0.163944
vt 0.264480 0.163944
vt 0.264479 0.063823
vt 0.364601 0.163944
vt 0.364601 0.263852
vt 0.064451 0.263852
vt 0.613075 0.175394
vt 0.675222 0.231085
vt 0.613075 0.231085
vt 0.495238 0.120841
vt 0.557384 0.175394
vt 0.495238 0.175394
vt 0.675222 0.120841
vt 0.730913 0.175394
vt 0.675222 0.175394
vt 0.613075 0.120841
vt 0.613075 0.065150
vt 0.599909 0.530528
vt 0.669290 0.461147
vt 0.669290 0.530528
vt 0.463891 0.669290
vt 0.599909 0.599909
vt 0.599909 0.669290
vt 0.463891 0.461147
vt 0.599909 0.391766
vt 0.599909 0.461147
vt 0.394510 0.530528
vt 0.463891 0.530528
vt 0.181735 0.685496
vt 0.243881 0.741183
vt 0.181735 0.741183
vt 0.063916 0.660197
vt 0.126062 0.686733
vt 0.063916 0.686733
vt 0.243881 0.685496
vt 0.299554 0.660197
vt 0.299555 0.686733
vt 0.181735 0.658961
vt 0.181735 0.603274
vt 0.243881 0.658961
vt 0.126062 0.660197
vt 0.729211 0.797560
vt 0.659831 0.866941
vt 0.659830 0.797560
vt 0.865229 0.658798
vt 0.729211 0.728179
vt 0.729211 0.658798
vt 0.865229 0.866941
vt 0.729211 0.936322
vt 0.729211 0.866941
vt 0.934610 0.797560
vt 0.865229 0.797560
vt 0.164571 0.363973
vt 0.164571 0.063823
vt 0.064451 0.163944
vt 0.557384 0.120841
vt 0.730913 0.120841
vt 0.675222 0.065150
vt 0.463891 0.599909
vt 0.463891 0.391767
vt 0.394510 0.461148
vt 0.243881 0.603274
vt 0.865229 0.728179
vt 0.865229 0.936322
vt 0.934610 0.866941
s 0
usemtl マテリアル.004
f 2/1/1 3/2/1 1/3/1
f 3/2/2 8/4/2 7/5/2
f 7/5/3 6/6/3 5/7/3
f 6/6/4 1/8/4 5/7/4
f 7/5/5 1/9/5 3/10/5
f 4/11/6 6/6/6 8/4/6
f 13/12/5 9/13/5 10/14/5
f 11/15/1 10/16/1 9/17/1
f 14/18/4 9/19/4 12/20/4
f 15/21/3 12/20/3 13/12/3
f 16/22/6 14/18/6 15/21/6
f 10/16/2 15/21/2 13/12/2
f 21/23/5 17/24/5 18/25/5
f 19/26/1 18/27/1 17/28/1
f 22/29/4 17/30/4 20/31/4
f 21/23/3 22/29/3 20/31/3
f 24/32/6 22/29/6 23/33/6
f 18/27/2 23/33/2 21/23/2
f 29/34/7 25/35/7 26/36/7
f 27/37/8 26/38/8 25/39/8
f 28/40/4 27/41/4 25/42/4
f 31/43/9 28/40/9 29/34/9
f 32/44/10 30/45/10 31/43/10
f 32/46/2 29/34/2 26/38/2
f 37/47/5 33/48/5 34/49/5
f 35/50/1 34/51/1 33/52/1
f 38/53/4 33/54/4 36/55/4
f 37/47/3 38/53/3 36/55/3
f 40/56/6 38/53/6 39/57/6
f 34/51/2 39/57/2 37/47/2
f 2/1/1 4/58/1 3/2/1
f 3/2/2 4/58/2 8/4/2
f 7/5/3 8/4/3 6/6/3
f 6/6/4 2/59/4 1/8/4
f 7/5/5 5/7/5 1/9/5
f 4/11/6 2/60/6 6/6/6
f 13/12/5 12/20/5 9/13/5
f 11/15/1 16/61/1 10/16/1
f 14/18/4 11/62/4 9/19/4
f 15/21/3 14/18/3 12/20/3
f 16/22/6 11/63/6 14/18/6
f 10/16/2 16/61/2 15/21/2
f 21/23/5 20/31/5 17/24/5
f 19/26/1 24/64/1 18/27/1
f 22/29/4 19/65/4 17/30/4
f 21/23/3 23/33/3 22/29/3
f 24/32/6 19/66/6 22/29/6
f 18/27/2 24/64/2 23/33/2
f 29/34/7 28/40/7 25/35/7
f 27/37/8 32/46/8 26/38/8
f 28/40/4 30/45/4 27/41/4
f 31/43/9 30/45/9 28/40/9
f 32/44/10 27/67/10 30/45/10
f 32/46/2 31/43/2 29/34/2
f 37/47/5 36/55/5 33/48/5
f 35/50/1 40/68/1 34/51/1
f 38/53/4 35/69/4 33/54/4
f 37/47/3 39/57/3 38/53/3
f 40/56/6 35/70/6 38/53/6
f 34/51/2 40/68/2 39/57/2
