# Blender 4.1.1
# www.blender.org
mtllib lane.mtl
o 立方体
v -1.000000 -0.001000 13.557356
v -1.000000 -0.001000 -0.207255
v 1.000000 -0.001000 13.557356
v 1.000000 -0.001000 -0.207255
v -1.000000 -0.289125 13.557356
v -1.000000 -0.289125 -0.207255
v 1.000000 -0.289125 13.557356
v 1.000000 -0.289125 -0.207255
vn -0.0000 1.0000 -0.0000
vn -0.0000 -1.0000 -0.0000
vn 1.0000 -0.0000 -0.0000
vn -1.0000 -0.0000 -0.0000
vn -0.0000 -0.0000 1.0000
vn -0.0000 -0.0000 -1.0000
vt 0.125000 0.500000
vt 0.125000 0.750000
vt 0.375000 0.750000
vt 0.375000 0.500000
s 0
f 2/1/1 1/2/1 3/3/1 4/4/1
f 6/1/2 8/4/2 7/3/2 5/2/2
f 4/4/3 3/3/3 7/3/3 8/4/3
f 1/2/4 2/1/4 6/1/4 5/2/4
f 3/3/5 1/2/5 5/2/5 7/3/5
f 2/1/6 4/4/6 8/4/6 6/1/6
