# Blender 4.4.1
# www.blender.org
mtllib lane2.mtl
o 立方体
v -0.999994 -0.000995 67.786781
v -1.000000 -0.001000 -1.036275
v 1.000006 -0.000995 67.786781
v 1.000000 -0.001000 -1.036275
v -0.999994 -0.289120 67.786781
v -1.000000 -0.289125 -1.036275
v 1.000006 -0.289120 67.786781
v 1.000000 -0.289125 -1.036275
v -0.000000 -6.243828 -0.500000
v -0.000000 -0.243828 -0.500000
v 0.097545 -6.243828 -0.490393
v 0.097545 -0.243828 -0.490393
v 0.191342 -6.243828 -0.461940
v 0.191342 -0.243828 -0.461940
v 0.277785 -6.243828 -0.415735
v 0.277785 -0.243828 -0.415735
v 0.353553 -6.243828 -0.353553
v 0.353553 -0.243828 -0.353553
v 0.415735 -6.243828 -0.277785
v 0.415735 -0.243828 -0.277785
v 0.461940 -6.243828 -0.191342
v 0.461940 -0.243828 -0.191342
v 0.490393 -6.243828 -0.097545
v 0.490393 -0.243828 -0.097545
v 0.500000 -6.243828 -0.000000
v 0.500000 -0.243828 -0.000000
v 0.490393 -6.243828 0.097545
v 0.490393 -0.243828 0.097545
v 0.461940 -6.243828 0.191342
v 0.461940 -0.243828 0.191342
v 0.415735 -6.243828 0.277785
v 0.415735 -0.243828 0.277785
v 0.353553 -6.243828 0.353553
v 0.353553 -0.243828 0.353553
v 0.277785 -6.243828 0.415735
v 0.277785 -0.243828 0.415735
v 0.191342 -6.243828 0.461940
v 0.191342 -0.243828 0.461940
v 0.097545 -6.243828 0.490393
v 0.097545 -0.243828 0.490393
v 0.000000 -6.243828 0.500000
v 0.000000 -0.243828 0.500000
v -0.097545 -6.243828 0.490393
v -0.097545 -0.243828 0.490393
v -0.191342 -6.243828 0.461940
v -0.191342 -0.243828 0.461940
v -0.277785 -6.243828 0.415735
v -0.277785 -0.243828 0.415735
v -0.353553 -6.243828 0.353553
v -0.353553 -0.243828 0.353553
v -0.415735 -6.243828 0.277785
v -0.415735 -0.243828 0.277785
v -0.461940 -6.243828 0.191342
v -0.461940 -0.243828 0.191342
v -0.490393 -6.243828 0.097545
v -0.490393 -0.243828 0.097545
v -0.500000 -6.243828 0.000000
v -0.500000 -0.243828 0.000000
v -0.490393 -6.243828 -0.097545
v -0.490393 -0.243828 -0.097545
v -0.461940 -6.243828 -0.191342
v -0.461940 -0.243828 -0.191342
v -0.415735 -6.243828 -0.277785
v -0.415735 -0.243828 -0.277785
v -0.353553 -6.243828 -0.353553
v -0.353553 -0.243828 -0.353553
v -0.277785 -6.243828 -0.415735
v -0.277785 -0.243828 -0.415735
v -0.191342 -6.243828 -0.461940
v -0.191342 -0.243828 -0.461940
v -0.097545 -6.243828 -0.490393
v -0.097545 -0.243828 -0.490393
vn -0.0000 1.0000 -0.0000
vn -0.0000 -1.0000 -0.0000
vn 1.0000 -0.0000 -0.0000
vn -1.0000 -0.0000 -0.0000
vn -0.0000 -0.0000 1.0000
vn -0.0000 -0.0000 -1.0000
vn 0.0980 -0.0000 -0.9952
vn 0.2903 -0.0000 -0.9569
vn 0.4714 -0.0000 -0.8819
vn 0.6344 -0.0000 -0.7730
vn 0.7730 -0.0000 -0.6344
vn 0.8819 -0.0000 -0.4714
vn 0.9569 -0.0000 -0.2903
vn 0.9952 -0.0000 -0.0980
vn 0.9952 -0.0000 0.0980
vn 0.9569 -0.0000 0.2903
vn 0.8819 -0.0000 0.4714
vn 0.7730 -0.0000 0.6344
vn 0.6344 -0.0000 0.7730
vn 0.4714 -0.0000 0.8819
vn 0.2903 -0.0000 0.9569
vn 0.0980 -0.0000 0.9952
vn -0.0980 -0.0000 0.9952
vn -0.2903 -0.0000 0.9569
vn -0.4714 -0.0000 0.8819
vn -0.6344 -0.0000 0.7730
vn -0.7730 -0.0000 0.6344
vn -0.8819 -0.0000 0.4714
vn -0.9569 -0.0000 0.2903
vn -0.9952 -0.0000 0.0980
vn -0.9952 -0.0000 -0.0980
vn -0.9569 -0.0000 -0.2903
vn -0.8819 -0.0000 -0.4714
vn -0.7730 -0.0000 -0.6344
vn -0.6344 -0.0000 -0.7730
vn -0.4714 -0.0000 -0.8819
vn -0.2903 -0.0000 -0.9569
vn -0.0980 -0.0000 -0.9952
vn -0.0000 -1.0000 -0.0001
vn -0.0000 -1.0000 0.0001
vt 0.125000 0.750000
vt 0.375000 0.500000
vt 0.125000 0.500000
vt 0.375000 0.750000
vt 0.000000 0.000000
s 1
f 1/1/1 4/2/1 2/3/1
f 8/2/2 5/1/2 6/3/2
f 3/4/3 8/2/3 4/2/3
f 2/3/4 5/1/4 1/1/4
f 1/1/5 7/4/5 3/4/5
f 4/2/6 6/3/6 2/3/6
s 0
f 10/5/7 11/5/7 9/5/7
f 12/5/8 13/5/8 11/5/8
f 14/5/9 15/5/9 13/5/9
f 16/5/10 17/5/10 15/5/10
f 18/5/11 19/5/11 17/5/11
f 20/5/12 21/5/12 19/5/12
f 22/5/13 23/5/13 21/5/13
f 24/5/14 25/5/14 23/5/14
f 26/5/15 27/5/15 25/5/15
f 28/5/16 29/5/16 27/5/16
f 30/5/17 31/5/17 29/5/17
f 32/5/18 33/5/18 31/5/18
f 34/5/19 35/5/19 33/5/19
f 36/5/20 37/5/20 35/5/20
f 38/5/21 39/5/21 37/5/21
f 40/5/22 41/5/22 39/5/22
f 41/5/23 44/5/23 43/5/23
f 44/5/24 45/5/24 43/5/24
f 46/5/25 47/5/25 45/5/25
f 48/5/26 49/5/26 47/5/26
f 50/5/27 51/5/27 49/5/27
f 52/5/28 53/5/28 51/5/28
f 54/5/29 55/5/29 53/5/29
f 56/5/30 57/5/30 55/5/30
f 58/5/31 59/5/31 57/5/31
f 60/5/32 61/5/32 59/5/32
f 62/5/33 63/5/33 61/5/33
f 64/5/34 65/5/34 63/5/34
f 66/5/35 67/5/35 65/5/35
f 68/5/36 69/5/36 67/5/36
f 46/5/1 30/5/1 14/5/1
f 70/5/37 71/5/37 69/5/37
f 71/5/38 10/5/38 9/5/38
f 39/5/2 55/5/2 71/5/2
s 1
f 1/1/1 3/4/1 4/2/1
f 8/2/2 7/4/2 5/1/2
f 3/4/3 7/4/3 8/2/3
f 2/3/4 6/3/4 5/1/4
f 1/1/5 5/1/5 7/4/5
f 4/2/6 8/2/6 6/3/6
s 0
f 10/5/7 12/5/7 11/5/7
f 12/5/8 14/5/8 13/5/8
f 14/5/9 16/5/9 15/5/9
f 16/5/10 18/5/10 17/5/10
f 18/5/11 20/5/11 19/5/11
f 20/5/12 22/5/12 21/5/12
f 22/5/13 24/5/13 23/5/13
f 24/5/14 26/5/14 25/5/14
f 26/5/15 28/5/15 27/5/15
f 28/5/16 30/5/16 29/5/16
f 30/5/17 32/5/17 31/5/17
f 32/5/18 34/5/18 33/5/18
f 34/5/19 36/5/19 35/5/19
f 36/5/20 38/5/20 37/5/20
f 38/5/21 40/5/21 39/5/21
f 40/5/22 42/5/22 41/5/22
f 41/5/23 42/5/23 44/5/23
f 44/5/24 46/5/24 45/5/24
f 46/5/25 48/5/25 47/5/25
f 48/5/26 50/5/26 49/5/26
f 50/5/27 52/5/27 51/5/27
f 52/5/28 54/5/28 53/5/28
f 54/5/29 56/5/29 55/5/29
f 56/5/30 58/5/30 57/5/30
f 58/5/31 60/5/31 59/5/31
f 60/5/32 62/5/32 61/5/32
f 62/5/33 64/5/33 63/5/33
f 64/5/34 66/5/34 65/5/34
f 66/5/35 68/5/35 67/5/35
f 68/5/36 70/5/36 69/5/36
f 14/5/1 12/5/1 10/5/1
f 10/5/1 72/5/1 70/5/1
f 70/5/1 68/5/1 66/5/1
f 66/5/1 64/5/1 62/5/1
f 62/5/1 60/5/1 58/5/1
f 58/5/1 56/5/1 54/5/1
f 54/5/1 52/5/1 50/5/1
f 50/5/1 48/5/1 46/5/1
f 46/5/1 44/5/1 42/5/1
f 42/5/1 40/5/1 38/5/1
f 38/5/1 36/5/1 34/5/1
f 34/5/1 32/5/1 30/5/1
f 30/5/1 28/5/1 26/5/1
f 26/5/1 24/5/1 22/5/1
f 22/5/1 20/5/1 18/5/1
f 18/5/1 16/5/1 14/5/1
f 14/5/1 10/5/1 70/5/1
f 70/5/1 66/5/1 62/5/1
f 62/5/1 58/5/1 54/5/1
f 54/5/1 50/5/1 46/5/1
f 46/5/1 42/5/1 38/5/1
f 38/5/1 34/5/1 30/5/1
f 30/5/1 26/5/1 22/5/1
f 22/5/1 18/5/1 14/5/1
f 14/5/1 70/5/1 62/5/1
f 62/5/1 54/5/1 46/5/1
f 46/5/1 38/5/1 30/5/1
f 30/5/1 22/5/1 14/5/1
f 14/5/1 62/5/1 46/5/1
f 70/5/37 72/5/37 71/5/37
f 71/5/38 72/5/38 10/5/38
f 71/5/2 9/5/2 11/5/2
f 11/5/39 13/5/39 15/5/39
f 15/5/2 17/5/2 19/5/2
f 19/5/2 21/5/2 23/5/2
f 23/5/2 25/5/2 27/5/2
f 27/5/2 29/5/2 31/5/2
f 31/5/2 33/5/2 35/5/2
f 35/5/40 37/5/40 39/5/40
f 39/5/2 41/5/2 43/5/2
f 43/5/40 45/5/40 47/5/40
f 47/5/2 49/5/2 51/5/2
f 51/5/2 53/5/2 55/5/2
f 55/5/2 57/5/2 59/5/2
f 59/5/2 61/5/2 63/5/2
f 63/5/2 65/5/2 67/5/2
f 67/5/39 69/5/39 71/5/39
f 71/5/2 11/5/2 15/5/2
f 15/5/2 19/5/2 23/5/2
f 23/5/2 27/5/2 31/5/2
f 31/5/2 35/5/2 39/5/2
f 39/5/2 43/5/2 47/5/2
f 47/5/2 51/5/2 55/5/2
f 55/5/2 59/5/2 63/5/2
f 63/5/2 67/5/2 71/5/2
f 71/5/2 15/5/2 23/5/2
f 23/5/2 31/5/2 39/5/2
f 39/5/2 47/5/2 55/5/2
f 55/5/2 63/5/2 71/5/2
f 71/5/2 23/5/2 39/5/2
