# Blender 4.1.1
# www.blender.org
mtllib Hammer.mtl
o hammer
v -0.000000 -0.058536 0.797055
v -0.000000 -0.058536 2.787284
v -0.011420 -0.057411 0.797055
v -0.011420 -0.057411 2.787284
v -0.022401 -0.054080 0.797055
v -0.022401 -0.054080 2.787284
v -0.032521 -0.048671 0.797055
v -0.032521 -0.048671 2.787284
v -0.041391 -0.041391 0.797055
v -0.041392 -0.041391 2.787284
v -0.048671 -0.032521 0.797055
v -0.048671 -0.032521 2.787284
v -0.054080 -0.022401 0.797055
v -0.054081 -0.022401 2.787284
v -0.057412 -0.011420 0.797055
v -0.057412 -0.011420 2.787284
v -0.058536 0.000000 0.797055
v -0.058536 0.000000 2.787284
v -0.057412 0.011420 0.797055
v -0.057412 0.011420 2.787284
v -0.054080 0.022401 0.797055
v -0.054081 0.022401 2.787284
v -0.048671 0.032521 0.797055
v -0.048671 0.032521 2.787284
v -0.041391 0.041391 0.797055
v -0.041392 0.041391 2.787284
v -0.032521 0.048671 0.797055
v -0.032521 0.048671 2.787284
v -0.022401 0.054080 0.797055
v -0.022401 0.054080 2.787284
v -0.011420 0.057411 0.797055
v -0.011420 0.057411 2.787284
v -0.000000 0.058536 0.797055
v -0.000000 0.058536 2.787284
v 0.011420 0.057411 0.797055
v 0.011420 0.057411 2.787284
v 0.022401 0.054080 0.797055
v 0.022401 0.054080 2.787284
v 0.032521 0.048671 0.797055
v 0.032521 0.048671 2.787284
v 0.041391 0.041391 0.797055
v 0.041391 0.041391 2.787284
v 0.048671 0.032521 0.797055
v 0.048671 0.032521 2.787284
v 0.054080 0.022401 0.797055
v 0.054080 0.022401 2.787284
v 0.057411 0.011420 0.797055
v 0.057411 0.011420 2.787284
v 0.058536 -0.000000 0.797055
v 0.058536 -0.000000 2.787284
v 0.057411 -0.011420 0.797055
v 0.057411 -0.011420 2.787284
v 0.054080 -0.022401 0.797055
v 0.054080 -0.022401 2.787284
v 0.048671 -0.032521 0.797055
v 0.048671 -0.032521 2.787284
v 0.041391 -0.041391 0.797055
v 0.041391 -0.041391 2.787284
v 0.032521 -0.048671 0.797055
v 0.032521 -0.048671 2.787284
v 0.022401 -0.054080 0.797055
v 0.022401 -0.054080 2.787284
v 0.011420 -0.057411 0.797055
v 0.011420 -0.057411 2.787284
v 0.640614 -0.426391 2.796105
v 0.640614 -0.418198 2.712921
v -0.640614 -0.426391 2.796105
v 0.640614 -0.418198 2.879290
v 0.640614 -0.393934 2.959278
v -0.640614 -0.418198 2.879290
v -0.640614 -0.393934 2.959278
v -0.640614 -0.354531 3.032995
v -0.640614 -0.301504 3.097609
v 0.640614 -0.354531 3.032995
v 0.640614 -0.301504 3.097609
v 0.640614 -0.236890 3.150636
v 0.640614 -0.163173 3.190039
v -0.640614 -0.236890 3.150636
v -0.640614 -0.163173 3.190039
v -0.640614 -0.083185 3.214303
v -0.640614 0.000000 3.222497
v 0.640614 -0.083185 3.214303
v 0.640614 -0.000000 3.222497
v 0.640614 0.083185 3.214303
v 0.640614 0.163173 3.190039
v -0.640614 0.083185 3.214303
v -0.640614 0.163173 3.190039
v -0.640614 0.236890 3.150636
v -0.640614 0.301504 3.097609
v 0.640614 0.236890 3.150636
v 0.640614 0.301504 3.097609
v 0.640614 0.354531 3.032995
v 0.640614 0.393934 2.959278
v -0.640614 0.354531 3.032995
v -0.640614 0.393934 2.959278
v -0.640614 0.418198 2.879290
v -0.640614 0.426391 2.796105
v 0.640614 0.418198 2.879290
v 0.640614 0.426391 2.796105
v 0.640614 0.418198 2.712921
v 0.640614 0.393934 2.632933
v -0.640614 0.418198 2.712921
v -0.640614 0.393934 2.632933
v -0.640614 0.354531 2.559215
v -0.640614 0.301504 2.494602
v 0.640614 0.354531 2.559215
v 0.640614 0.301504 2.494602
v 0.640614 0.236890 2.441575
v 0.640614 0.163173 2.402172
v -0.640614 0.236890 2.441575
v -0.640614 0.163173 2.402172
v -0.640614 0.083185 2.377908
v -0.640614 0.000000 2.369715
v 0.640614 0.083185 2.377908
v 0.640614 -0.000000 2.369715
v 0.640614 -0.083185 2.377908
v 0.640614 -0.163173 2.402172
v -0.640614 -0.083185 2.377908
v -0.640614 -0.163173 2.402172
v -0.640614 -0.236890 2.441575
v -0.640614 -0.301504 2.494602
v 0.640614 -0.236890 2.441575
v 0.640614 -0.301504 2.494602
v 0.640614 -0.354531 2.559215
v 0.640614 -0.393934 2.632933
v -0.640614 -0.354531 2.559215
v -0.640614 -0.393934 2.632933
v -0.640614 -0.418198 2.712921
vn -0.0000 -1.0000 -0.0000
vn -0.1951 -0.9808 -0.0000
vn -0.3827 -0.9239 -0.0000
vn -0.5556 -0.8315 -0.0000
vn -0.7071 -0.7071 -0.0000
vn -0.8315 -0.5556 -0.0000
vn -0.9239 -0.3827 -0.0000
vn -0.9808 -0.1951 -0.0000
vn -1.0000 -0.0000 -0.0000
vn -0.9808 0.1951 -0.0000
vn -0.9239 0.3827 -0.0000
vn -0.8315 0.5556 -0.0000
vn -0.7071 0.7071 -0.0000
vn -0.5556 0.8315 -0.0000
vn -0.3827 0.9239 -0.0000
vn -0.1951 0.9808 -0.0000
vn -0.0000 1.0000 -0.0000
vn 0.1951 0.9808 -0.0000
vn 0.3827 0.9239 -0.0000
vn 0.5556 0.8315 -0.0000
vn 0.7071 0.7071 -0.0000
vn 0.8315 0.5556 -0.0000
vn 0.9239 0.3827 -0.0000
vn 0.9808 0.1951 -0.0000
vn 1.0000 -0.0000 -0.0000
vn 0.9808 -0.1951 -0.0000
vn 0.9239 -0.3827 -0.0000
vn 0.8315 -0.5556 -0.0000
vn 0.7071 -0.7071 -0.0000
vn 0.5556 -0.8315 -0.0000
vn 0.3827 -0.9239 -0.0000
vn -0.0000 -0.0000 -1.0000
vn 0.1951 -0.9808 -0.0000
vn -0.0000 -0.9808 -0.1951
vn -0.0000 -0.9808 0.1951
vn -0.0000 -0.9239 0.3827
vn -0.0000 -0.8315 0.5556
vn -0.0000 -0.7071 0.7071
vn -0.0000 -0.5556 0.8315
vn -0.0000 -0.3827 0.9239
vn -0.0000 -0.1951 0.9808
vn -0.0000 -0.0000 1.0000
vn -0.0000 0.1951 0.9808
vn -0.0000 0.3827 0.9239
vn -0.0000 0.5556 0.8315
vn -0.0000 0.7071 0.7071
vn -0.0000 0.8315 0.5556
vn -0.0000 0.9239 0.3827
vn -0.0000 0.9808 0.1951
vn -0.0000 0.9808 -0.1951
vn -0.0000 0.9239 -0.3827
vn -0.0000 0.8315 -0.5556
vn -0.0000 0.7071 -0.7071
vn -0.0000 0.5556 -0.8315
vn -0.0000 0.3827 -0.9239
vn -0.0000 0.1951 -0.9808
vn -0.0000 -0.1951 -0.9808
vn -0.0000 -0.3827 -0.9239
vn -0.0000 -0.5556 -0.8315
vn -0.0000 -0.7071 -0.7071
vn -0.0000 -0.8315 -0.5556
vn -0.0000 -0.9239 -0.3827
vn -0.0000 -0.0001 -1.0000
vt 0.631342 0.739910
vt 0.627124 0.008519
vt 0.631342 0.008519
vt 0.627124 0.739910
vt 0.622908 0.008519
vt 0.622908 0.739910
vt 0.618690 0.008519
vt 0.618690 0.739910
vt 0.614474 0.008519
vt 0.614474 0.739910
vt 0.610257 0.008519
vt 0.610257 0.739910
vt 0.606040 0.008519
vt 0.606040 0.739910
vt 0.601823 0.008519
vt 0.601823 0.739910
vt 0.597606 0.008519
vt 0.597606 0.739910
vt 0.593388 0.008519
vt 0.593388 0.739910
vt 0.589172 0.008519
vt 0.589172 0.739910
vt 0.584955 0.008519
vt 0.584955 0.739910
vt 0.580738 0.008519
vt 0.580738 0.739910
vt 0.576521 0.008519
vt 0.576521 0.739910
vt 0.572304 0.008519
vt 0.572304 0.739910
vt 0.568087 0.008519
vt 0.568087 0.739910
vt 0.563870 0.008519
vt 0.563870 0.739910
vt 0.559653 0.008519
vt 0.559653 0.739910
vt 0.555436 0.008519
vt 0.555436 0.739910
vt 0.551219 0.008519
vt 0.551219 0.739910
vt 0.547002 0.008519
vt 0.547002 0.739910
vt 0.542785 0.008519
vt 0.542785 0.739910
vt 0.538568 0.008519
vt 0.538568 0.739910
vt 0.534351 0.008519
vt 0.534351 0.739910
vt 0.530134 0.008519
vt 0.530134 0.739910
vt 0.525917 0.008519
vt 0.525917 0.739910
vt 0.521700 0.008519
vt 0.521700 0.739910
vt 0.517483 0.008519
vt 0.517483 0.739910
vt 0.513266 0.008519
vt 0.513266 0.739910
vt 0.509049 0.008519
vt 0.509049 0.739910
vt 0.504832 0.008519
vt 0.690373 0.741375
vt 0.691196 0.745511
vt 0.691196 0.749728
vt 0.504832 0.739910
vt 0.500615 0.008519
vt 0.500615 0.739910
vt 0.496398 0.008519
vt 0.479359 0.008519
vt 0.008519 0.039237
vt 0.008519 0.008519
vt 0.479359 0.960763
vt 0.008519 0.991481
vt 0.008519 0.960763
vt 0.479359 0.930046
vt 0.008519 0.930046
vt 0.688759 0.757760
vt 0.686417 0.761267
vt 0.676033 0.768205
vt 0.479359 0.899328
vt 0.008519 0.899328
vt 0.479359 0.868611
vt 0.008519 0.868611
vt 0.479359 0.837893
vt 0.008519 0.837893
vt 0.479359 0.807175
vt 0.008519 0.807175
vt 0.479359 0.776458
vt 0.008519 0.776458
vt 0.479359 0.745740
vt 0.008519 0.745740
vt 0.479359 0.715023
vt 0.008519 0.715023
vt 0.479359 0.684305
vt 0.008519 0.684305
vt 0.479359 0.653588
vt 0.008519 0.653588
vt 0.479359 0.622870
vt 0.008519 0.622870
vt 0.479359 0.592153
vt 0.008519 0.592153
vt 0.008519 0.561435
vt 0.008519 0.530717
vt 0.479359 0.561435
vt 0.479359 0.500000
vt 0.008519 0.500000
vt 0.479359 0.469282
vt 0.008519 0.469282
vt 0.479359 0.438565
vt 0.008519 0.438565
vt 0.479359 0.407847
vt 0.008519 0.407847
vt 0.479359 0.377130
vt 0.008519 0.377130
vt 0.479359 0.346412
vt 0.008519 0.346412
vt 0.479359 0.315695
vt 0.008519 0.315695
vt 0.479359 0.284977
vt 0.008519 0.284977
vt 0.479359 0.254260
vt 0.008519 0.254260
vt 0.479359 0.223542
vt 0.008519 0.223542
vt 0.479359 0.192825
vt 0.008519 0.192825
vt 0.479359 0.162107
vt 0.008519 0.162107
vt 0.479359 0.131389
vt 0.008519 0.131390
vt 0.479359 0.100672
vt 0.008519 0.100672
vt 0.479359 0.069954
vt 0.008519 0.069954
vt 0.479359 0.039237
vt 0.793055 0.649668
vt 0.762781 0.644467
vt 0.734103 0.633460
vt 0.708124 0.617070
vt 0.685841 0.595926
vt 0.668112 0.570841
vt 0.655617 0.542780
vt 0.648836 0.512820
vt 0.648031 0.482113
vt 0.653232 0.451839
vt 0.664239 0.423162
vt 0.680629 0.397182
vt 0.701773 0.374900
vt 0.726857 0.357170
vt 0.754919 0.344675
vt 0.784878 0.337895
vt 0.815585 0.337089
vt 0.845860 0.342290
vt 0.874537 0.353297
vt 0.900517 0.369687
vt 0.922799 0.390831
vt 0.940529 0.415916
vt 0.953024 0.443977
vt 0.959804 0.473937
vt 0.960610 0.504644
vt 0.955409 0.534918
vt 0.944402 0.563596
vt 0.928011 0.589575
vt 0.906868 0.611858
vt 0.881783 0.629587
vt 0.853722 0.642082
vt 0.823762 0.648863
vt 0.948058 0.102069
vt 0.957468 0.131309
vt 0.950076 0.221980
vt 0.960993 0.161824
vt 0.958497 0.192440
vt 0.936053 0.249311
vt 0.916968 0.273380
vt 0.893554 0.293264
vt 0.866711 0.308198
vt 0.837471 0.317607
vt 0.806956 0.321132
vt 0.776340 0.318636
vt 0.746799 0.310215
vt 0.719469 0.296192
vt 0.660582 0.226851
vt 0.695400 0.277107
vt 0.675516 0.253694
vt 0.651172 0.197610
vt 0.647648 0.167095
vt 0.650144 0.136479
vt 0.658565 0.106939
vt 0.672587 0.079608
vt 0.691672 0.055539
vt 0.715086 0.035655
vt 0.741929 0.020722
vt 0.771170 0.011312
vt 0.801685 0.007787
vt 0.832301 0.010283
vt 0.861841 0.018704
vt 0.889171 0.032727
vt 0.913241 0.051812
vt 0.933124 0.075226
vt 0.690373 0.753864
vt 0.683435 0.764248
vt 0.679928 0.766591
vt 0.671897 0.769028
vt 0.667680 0.769028
vt 0.663544 0.768205
vt 0.659648 0.766591
vt 0.656141 0.764248
vt 0.649203 0.753864
vt 0.653159 0.761267
vt 0.650817 0.757760
vt 0.648380 0.749728
vt 0.648380 0.745511
vt 0.649203 0.741375
vt 0.650817 0.737479
vt 0.653159 0.733973
vt 0.663544 0.727035
vt 0.656141 0.730991
vt 0.659648 0.728648
vt 0.667680 0.726212
vt 0.671897 0.726212
vt 0.676032 0.727035
vt 0.679928 0.728648
vt 0.683435 0.730991
vt 0.686417 0.733973
vt 0.688759 0.737479
vt 0.496398 0.739910
vt 0.479359 0.991481
vt 0.479359 0.530717
s 1
usemtl マテリアル
f 2/1/1 3/2/2 1/3/1
f 4/4/2 5/5/3 3/2/2
f 6/6/3 7/7/4 5/5/3
f 8/8/4 9/9/5 7/7/4
f 10/10/5 11/11/6 9/9/5
f 12/12/6 13/13/7 11/11/6
f 14/14/7 15/15/8 13/13/7
f 16/16/8 17/17/9 15/15/8
f 18/18/9 19/19/10 17/17/9
f 20/20/10 21/21/11 19/19/10
f 22/22/11 23/23/12 21/21/11
f 24/24/12 25/25/13 23/23/12
f 26/26/13 27/27/14 25/25/13
f 28/28/14 29/29/15 27/27/14
f 30/30/15 31/31/16 29/29/15
f 32/32/16 33/33/17 31/31/16
f 34/34/17 35/35/18 33/33/17
f 36/36/18 37/37/19 35/35/18
f 38/38/19 39/39/20 37/37/19
f 40/40/20 41/41/21 39/39/20
f 42/42/21 43/43/22 41/41/21
f 44/44/22 45/45/23 43/43/22
f 46/46/23 47/47/24 45/45/23
f 48/48/24 49/49/25 47/47/24
f 50/50/25 51/51/26 49/49/25
f 52/52/26 53/53/27 51/51/26
f 54/54/27 55/55/28 53/53/27
f 56/56/28 57/57/29 55/55/28
f 58/58/29 59/59/30 57/57/29
f 60/60/30 61/61/31 59/59/30
f 63/62/32 1/63/32 3/64/32
f 62/65/31 63/66/33 61/61/31
f 64/67/33 1/68/1 63/66/33
f 67/69/1 66/70/34 65/71/1
f 70/72/35 65/73/1 68/74/35
f 71/75/36 68/74/35 69/76/36
f 7/77/32 9/78/32 15/79/32
f 72/80/37 69/76/36 74/81/37
f 73/82/38 74/81/37 75/83/38
f 78/84/39 75/83/38 76/85/39
f 79/86/40 76/85/39 77/87/40
f 80/88/41 77/87/40 82/89/41
f 81/90/42 82/89/41 83/91/42
f 86/92/43 83/91/42 84/93/43
f 87/94/44 84/93/43 85/95/44
f 88/96/45 85/95/44 90/97/45
f 89/98/46 90/97/45 91/99/46
f 94/100/47 91/99/46 92/101/47
f 93/102/48 94/100/47 92/101/47
f 98/103/49 95/104/48 93/102/48
f 97/105/17 98/103/49 99/106/17
f 102/107/50 99/106/17 100/108/50
f 103/109/51 100/108/50 101/110/51
f 104/111/52 101/110/51 106/112/52
f 105/113/53 106/112/52 107/114/53
f 110/115/54 107/114/53 108/116/54
f 111/117/55 108/116/54 109/118/55
f 112/119/56 109/118/55 114/120/56
f 113/121/32 114/120/56 115/122/32
f 118/123/57 115/122/32 116/124/57
f 119/125/58 116/124/57 117/126/58
f 120/127/59 117/126/58 122/128/59
f 121/129/60 122/128/59 123/130/60
f 126/131/61 123/130/60 124/132/61
f 127/133/62 124/132/61 125/134/62
f 128/135/34 125/134/62 66/70/34
f 68/136/25 65/137/25 66/138/25
f 66/138/25 125/139/25 124/140/25
f 124/140/25 123/141/25 122/142/25
f 122/142/25 117/143/25 116/144/25
f 116/144/25 115/145/25 114/146/25
f 114/146/25 109/147/25 108/148/25
f 108/148/25 107/149/25 106/150/25
f 106/150/25 101/151/25 100/152/25
f 100/152/25 99/153/25 98/154/25
f 98/154/25 93/155/25 92/156/25
f 92/156/25 91/157/25 90/158/25
f 90/158/25 85/159/25 84/160/25
f 84/160/25 83/161/25 82/162/25
f 82/162/25 77/163/25 76/164/25
f 76/164/25 75/165/25 74/166/25
f 74/166/25 69/167/25 68/136/25
f 68/136/25 66/138/25 116/144/25
f 66/138/25 124/140/25 116/144/25
f 124/140/25 122/142/25 116/144/25
f 116/144/25 114/146/25 100/152/25
f 114/146/25 108/148/25 100/152/25
f 108/148/25 106/150/25 100/152/25
f 100/152/25 98/154/25 84/160/25
f 98/154/25 92/156/25 84/160/25
f 92/156/25 90/158/25 84/160/25
f 84/160/25 82/162/25 68/136/25
f 82/162/25 76/164/25 68/136/25
f 76/164/25 74/166/25 68/136/25
f 116/144/25 84/160/25 68/136/25
f 127/168/9 128/169/9 71/170/9
f 128/169/9 67/171/9 71/170/9
f 67/171/9 70/172/9 71/170/9
f 71/170/9 72/173/9 73/174/9
f 73/174/9 78/175/9 71/170/9
f 78/175/9 79/176/9 71/170/9
f 79/176/9 80/177/9 81/178/9
f 81/178/9 86/179/9 79/176/9
f 86/179/9 87/180/9 79/176/9
f 87/180/9 88/181/9 95/182/9
f 88/181/9 89/183/9 95/182/9
f 89/183/9 94/184/9 95/182/9
f 95/182/9 96/185/9 97/186/9
f 97/186/9 102/187/9 95/182/9
f 102/187/9 103/188/9 95/182/9
f 103/188/9 104/189/9 105/190/9
f 105/190/9 110/191/9 103/188/9
f 110/191/9 111/192/9 103/188/9
f 111/192/9 112/193/9 113/194/9
f 113/194/9 118/195/9 119/196/9
f 119/196/9 120/197/9 127/168/9
f 120/197/9 121/198/9 127/168/9
f 121/198/9 126/199/9 127/168/9
f 111/192/9 113/194/9 127/168/9
f 113/194/9 119/196/9 127/168/9
f 3/64/32 5/200/63 7/77/32
f 71/170/9 79/176/9 95/182/9
f 79/176/9 87/180/9 95/182/9
f 95/182/9 103/188/9 111/192/9
f 111/192/9 71/170/9 95/182/9
f 9/78/32 11/201/32 15/79/32
f 11/201/32 13/202/32 15/79/32
f 15/79/32 17/203/32 19/204/32
f 19/204/32 21/205/32 23/206/32
f 23/206/32 25/207/32 31/208/32
f 25/207/32 27/209/32 31/208/32
f 27/209/32 29/210/63 31/208/32
f 31/208/32 33/211/32 35/212/32
f 35/212/32 37/213/63 39/214/32
f 39/214/32 41/215/32 47/216/32
f 41/215/32 43/217/32 47/216/32
f 43/217/32 45/218/32 47/216/32
f 47/216/32 49/219/32 51/220/32
f 51/220/32 53/221/32 55/222/32
f 55/222/32 57/223/32 63/62/32
f 57/223/32 59/224/32 63/62/32
f 59/224/32 61/225/32 63/62/32
f 63/62/32 3/64/32 7/77/32
f 15/79/32 19/204/32 23/206/32
f 31/208/32 35/212/32 39/214/32
f 47/216/32 51/220/32 55/222/32
f 63/62/32 7/77/32 15/79/32
f 15/79/32 23/206/32 31/208/32
f 31/208/32 39/214/32 47/216/32
f 47/216/32 55/222/32 63/62/32
f 47/216/32 15/79/32 31/208/32
f 2/1/1 4/4/2 3/2/2
f 4/4/2 6/6/3 5/5/3
f 6/6/3 8/8/4 7/7/4
f 8/8/4 10/10/5 9/9/5
f 10/10/5 12/12/6 11/11/6
f 12/12/6 14/14/7 13/13/7
f 14/14/7 16/16/8 15/15/8
f 16/16/8 18/18/9 17/17/9
f 18/18/9 20/20/10 19/19/10
f 20/20/10 22/22/11 21/21/11
f 22/22/11 24/24/12 23/23/12
f 24/24/12 26/26/13 25/25/13
f 26/26/13 28/28/14 27/27/14
f 28/28/14 30/30/15 29/29/15
f 30/30/15 32/32/16 31/31/16
f 32/32/16 34/34/17 33/33/17
f 34/34/17 36/36/18 35/35/18
f 36/36/18 38/38/19 37/37/19
f 38/38/19 40/40/20 39/39/20
f 40/40/20 42/42/21 41/41/21
f 42/42/21 44/44/22 43/43/22
f 44/44/22 46/46/23 45/45/23
f 46/46/23 48/48/24 47/47/24
f 48/48/24 50/50/25 49/49/25
f 50/50/25 52/52/26 51/51/26
f 52/52/26 54/54/27 53/53/27
f 54/54/27 56/56/28 55/55/28
f 56/56/28 58/58/29 57/57/29
f 58/58/29 60/60/30 59/59/30
f 60/60/30 62/65/31 61/61/31
f 62/65/31 64/67/33 63/66/33
f 64/67/33 2/226/1 1/68/1
f 67/69/1 128/135/34 66/70/34
f 70/72/35 67/227/1 65/73/1
f 71/75/36 70/72/35 68/74/35
f 72/80/37 71/75/36 69/76/36
f 73/82/38 72/80/37 74/81/37
f 78/84/39 73/82/38 75/83/38
f 79/86/40 78/84/39 76/85/39
f 80/88/41 79/86/40 77/87/40
f 81/90/42 80/88/41 82/89/41
f 86/92/43 81/90/42 83/91/42
f 87/94/44 86/92/43 84/93/43
f 88/96/45 87/94/44 85/95/44
f 89/98/46 88/96/45 90/97/45
f 94/100/47 89/98/46 91/99/46
f 93/102/48 95/104/48 94/100/47
f 98/103/49 96/228/49 95/104/48
f 97/105/17 96/228/49 98/103/49
f 102/107/50 97/105/17 99/106/17
f 103/109/51 102/107/50 100/108/50
f 104/111/52 103/109/51 101/110/51
f 105/113/53 104/111/52 106/112/52
f 110/115/54 105/113/53 107/114/53
f 111/117/55 110/115/54 108/116/54
f 112/119/56 111/117/55 109/118/55
f 113/121/32 112/119/56 114/120/56
f 118/123/57 113/121/32 115/122/32
f 119/125/58 118/123/57 116/124/57
f 120/127/59 119/125/58 117/126/58
f 121/129/60 120/127/59 122/128/59
f 126/131/61 121/129/60 123/130/60
f 127/133/62 126/131/61 124/132/61
f 128/135/34 127/133/62 125/134/62
f 116/144/25 100/152/25 84/160/25
f 111/192/9 127/168/9 71/170/9
f 47/216/32 63/62/32 15/79/32
