# Blender 4.1.1
# www.blender.org
mtllib Body.mtl
o Body
v 0.250000 0.184825 -0.503918
v 0.250000 0.542537 -0.503918
v 0.250000 0.184825 0.509000
v 0.250000 0.542537 0.509000
v -0.250000 0.184825 -0.503918
v -0.250000 0.542537 -0.503918
v -0.250000 0.184825 0.509000
v -0.250000 0.542537 0.509000
v -0.250000 -0.081094 0.193766
v -0.250000 -0.581094 0.193766
v -0.250000 -0.081094 -0.192277
v -0.250000 -0.581094 -0.192277
v 0.250000 -0.081094 0.193766
v 0.250000 -0.581094 0.193766
v 0.250000 -0.081094 -0.192277
v 0.250000 -0.581094 -0.192277
v -0.250000 0.187077 0.509766
v -0.250000 -0.054148 0.250745
v -0.250000 0.187077 -0.508277
v -0.250000 -0.054148 -0.249255
v 0.250000 0.187077 0.509766
v 0.250000 -0.054148 0.250745
v 0.250000 0.187077 -0.508277
v 0.250000 -0.054148 -0.249255
v 0.100336 -0.184549 -0.083928
v 0.100336 -0.013555 -0.083928
v 0.100336 -0.184549 0.075869
v 0.100336 -0.013555 0.075869
v -0.100336 -0.184549 -0.083928
v -0.100336 -0.013555 -0.083928
v -0.100336 -0.184549 0.075869
v -0.100336 -0.013555 0.075869
vn 1.0000 -0.0000 -0.0000
vn -0.0000 -0.0000 1.0000
vn -1.0000 -0.0000 -0.0000
vn -0.0000 -0.0000 -1.0000
vn -0.0000 -1.0000 -0.0000
vn -0.0000 1.0000 -0.0000
vn -0.0000 -0.7318 -0.6815
vn -0.0000 -0.7318 0.6815
vt 0.202374 0.118966
vt 0.365375 0.355103
vt 0.146304 0.196331
vt 0.421445 0.277738
vt 0.473513 0.433477
vt 0.529584 0.356112
vt 0.692585 0.592250
vt 0.748655 0.514884
vt 0.800723 0.670623
vt 0.395140 0.541616
vt 0.614211 0.700388
vt 0.607958 0.247973
vt 0.111835 0.125910
vt 0.109239 0.168734
vt 0.023389 0.631090
vt 0.096029 0.776370
vt 0.386590 0.631090
vt 0.459230 0.776370
vt 0.846057 0.777969
vt 0.857991 0.839333
vt 0.821009 0.812530
vt 0.789554 0.855931
vt 0.826536 0.882734
vt 0.764506 0.890491
vt 0.801488 0.917294
vt 0.733051 0.933892
vt 0.721105 0.859036
vt 0.746153 0.824476
vt 0.642932 0.892795
vt 0.696533 0.850112
vt 0.696533 0.892795
vt 0.856794 0.593258
vt 0.827029 0.406746
vt 0.883039 0.804772
vt 0.770033 0.960695
vt 0.642932 0.850112
s 0
usemtl マテリアル.013
f 2/1/1 3/2/1 1/3/1
f 4/4/2 7/5/2 3/2/2
f 8/6/3 5/7/3 7/5/3
f 6/8/4 1/9/4 5/7/4
f 3/10/5 5/7/5 1/11/5
f 4/12/6 6/8/6 8/6/6
f 13/13/6 11/13/6 9/13/6
f 11/13/4 16/13/4 12/13/4
f 16/13/1 13/13/1 14/13/1
f 14/13/5 12/13/5 16/13/5
f 9/14/3 12/14/3 10/14/3
f 13/13/2 10/13/2 14/13/2
f 21/15/6 19/16/6 17/17/6
f 20/16/7 23/18/7 24/16/7
f 24/16/1 21/15/1 22/17/1
f 18/17/5 24/16/5 22/17/5
f 17/17/3 20/16/3 18/17/3
f 21/15/8 18/17/8 22/17/8
f 25/19/1 28/20/1 27/21/1
f 28/20/2 31/22/2 27/21/2
f 32/23/3 29/24/3 31/22/3
f 30/25/4 25/26/4 29/24/4
f 31/22/5 25/27/5 27/28/5
f 28/29/6 30/30/6 32/31/6
f 2/1/1 4/4/1 3/2/1
f 4/4/2 8/6/2 7/5/2
f 8/6/3 6/8/3 5/7/3
f 6/8/4 2/32/4 1/9/4
f 3/10/5 7/5/5 5/7/5
f 4/12/6 2/33/6 6/8/6
f 13/13/6 15/13/6 11/13/6
f 11/13/4 15/13/4 16/13/4
f 16/13/1 15/13/1 13/13/1
f 14/13/5 10/13/5 12/13/5
f 9/13/3 11/13/3 12/13/3
f 13/13/2 9/13/2 10/13/2
f 21/15/6 23/18/6 19/16/6
f 20/16/7 19/16/7 23/18/7
f 24/16/1 23/18/1 21/15/1
f 18/17/5 20/16/5 24/16/5
f 17/17/3 19/16/3 20/16/3
f 21/15/8 17/17/8 18/17/8
f 25/19/1 26/34/1 28/20/1
f 28/20/2 32/23/2 31/22/2
f 32/23/3 30/25/3 29/24/3
f 30/25/4 26/35/4 25/26/4
f 31/22/5 29/24/5 25/27/5
f 28/29/6 26/36/6 30/30/6
