# Blender 4.4.1
# www.blender.org
mtllib PoseBWall.mtl
o PoseBWall
v -1.245000 0.000000 -0.075000
v 1.255000 0.000000 -0.075000
v -1.245000 2.500000 -0.075000
v 1.255000 2.500000 -0.075000
v -0.353042 1.707800 -0.075000
v -0.336761 1.661716 -0.075000
v -0.303463 1.808725 -0.075000
v -0.261116 1.682769 -0.075000
v -0.218550 1.541121 -0.075000
v -0.065519 1.524107 -0.075000
v -0.103375 1.549749 -0.075000
v -0.124930 1.564583 -0.075000
v 0.125731 1.556236 -0.075000
v 0.079316 1.524435 -0.075000
v 0.137635 1.564512 -0.075000
v 0.058039 1.520288 -0.075000
v -0.044988 1.460342 -0.075000
v -0.043420 1.460362 -0.075000
v -0.039568 1.519191 -0.075000
v -0.054105 1.459705 -0.075000
v 0.194041 1.091467 -0.075000
v -0.203295 1.269769 -0.075000
v -0.175853 1.042220 -0.075000
v 0.190487 1.040168 -0.075000
v 0.049327 0.745669 -0.075000
v 0.036738 0.813840 -0.075000
v -0.185493 1.002653 -0.075000
v -0.193134 0.971287 -0.075000
v -0.193134 0.930988 -0.075000
v -0.193134 0.903713 -0.075000
v -0.183671 0.562432 -0.075000
v -0.182255 0.511367 -0.075000
v 0.016834 0.816154 -0.075000
v -0.188732 0.423392 -0.075000
v -0.214503 0.108022 -0.075000
v -0.209582 0.140227 -0.075000
v -0.241327 2.031670 -0.075000
v -0.232700 2.054582 -0.075000
v -0.265031 2.055828 -0.075000
v -0.261090 2.068193 -0.075000
v -0.234739 2.067533 -0.075000
v -0.231487 2.060732 -0.075000
v -0.260151 2.071245 -0.075000
v -0.058097 0.010354 -0.075000
v 0.068432 0.670857 -0.075000
v 0.203244 0.740121 -0.075000
v 0.198630 0.672410 -0.075000
v 0.075485 0.632666 -0.075000
v 0.078257 0.449397 -0.075000
v 0.238575 0.124992 -0.075000
v 0.223437 0.223191 -0.075000
v 0.225033 0.213449 -0.075000
v -0.242261 1.968446 -0.075000
v -0.243071 1.964338 -0.075000
v -0.280159 2.071505 -0.075000
v -0.463260 1.936538 -0.075000
v -0.282181 2.076814 -0.075000
v -0.457046 2.085219 -0.075000
v -0.457174 2.080714 -0.075000
v -0.457487 2.073745 -0.075000
v -0.244305 1.963140 -0.075000
v 0.052939 0.730068 -0.075000
v 0.070728 0.105575 -0.075000
v 0.070840 0.101968 -0.075000
v -0.022140 0.811727 -0.075000
v 0.002703 0.816278 -0.075000
v 0.007536 0.817163 -0.075000
v -0.057128 0.152958 -0.075000
v -0.056894 0.129195 -0.075000
v 0.070984 0.106466 -0.075000
v -0.057143 0.118294 -0.075000
v -0.059439 0.017868 -0.075000
v 0.076146 1.906098 -0.075000
v 0.040190 1.912695 -0.075000
v 0.003024 1.919657 -0.075000
v -0.037593 1.911357 -0.075000
v -0.069752 1.904897 -0.075000
v 0.105750 1.885919 -0.075000
v 0.136253 1.865121 -0.075000
v 0.156579 1.829240 -0.075000
v -0.107342 1.878532 -0.075000
v -0.128755 1.863510 -0.075000
v -0.141231 1.841091 -0.075000
v -0.165334 1.797765 -0.075000
v -0.169812 1.768831 -0.075000
v 0.186797 1.717240 -0.075000
v 0.181302 1.751547 -0.075000
v 0.173895 1.798662 -0.075000
v 0.181302 1.682933 -0.075000
v 0.173895 1.635817 -0.075000
v 0.186569 1.715815 -0.075000
v -0.177950 1.717240 -0.075000
v -0.169812 1.665648 -0.075000
v -0.165334 1.636714 -0.075000
v -0.177773 1.716121 -0.075000
v -0.276852 1.500031 -0.075000
v -0.218086 1.353854 -0.075000
v -0.285027 1.543021 -0.075000
v 0.054465 1.519603 -0.075000
v 0.054694 1.465153 -0.075000
v 0.054694 1.462827 -0.075000
v 0.160902 1.612873 -0.075000
v -0.128755 1.570969 -0.075000
v -0.127663 1.570204 -0.075000
v -0.141231 1.593389 -0.075000
v -0.037477 1.518801 -0.075000
v -0.038441 1.461246 -0.075000
v 0.470970 1.362552 -0.075000
v 0.433064 1.376673 -0.075000
v 0.229025 1.452655 -0.075000
v 0.260466 1.440947 -0.075000
v 0.059823 1.462508 -0.075000
v 0.227995 1.452715 -0.075000
v -0.187113 1.440475 -0.075000
v -0.111368 1.449518 -0.075000
v -0.202451 1.294376 -0.075000
v 0.196588 1.187909 -0.075000
v 0.206773 1.334844 -0.075000
v 0.388418 1.311539 -0.075000
v 0.440037 1.272455 -0.075000
v 0.191428 1.153023 -0.075000
v 0.338646 0.976851 -0.075000
v 0.331308 0.957419 -0.075000
v 0.321871 0.931203 -0.075000
v 0.238885 0.814778 -0.075000
v 0.232531 0.805864 -0.075000
v -0.242327 1.967886 -0.075000
v -0.242359 1.967952 -0.075000
v -0.242959 1.964676 -0.075000
v -0.280526 2.072003 -0.075000
v -0.282354 2.071317 -0.075000
v -0.280322 2.071444 -0.075000
v -0.282180 2.076345 -0.075000
v -0.282229 2.074244 -0.075000
v -0.282241 2.074244 -0.075000
v -0.457057 2.084842 -0.075000
v -0.457163 2.080779 -0.075000
v -0.457453 2.074496 -0.075000
v -0.243015 1.964622 -0.075000
v 0.052802 0.730659 -0.075000
v 0.052834 0.730632 -0.075000
v 0.050159 0.744971 -0.075000
v 0.070795 0.102603 -0.075000
v 0.070767 0.103500 -0.075000
v 0.070810 0.102124 -0.075000
v 0.002507 0.816247 -0.075000
v -0.056937 0.147226 -0.075000
v -0.057140 0.152555 -0.075000
v -0.057158 0.140227 -0.075000
v -0.056809 0.134162 -0.075000
v 0.070790 0.103580 -0.075000
v -0.056914 0.129544 -0.075000
v 0.077196 0.631231 -0.075000
v 0.085292 0.590788 -0.075000
v 0.081274 0.461319 -0.075000
v 0.200760 0.660584 -0.075000
v 0.196004 0.590789 -0.075000
v 0.198399 0.668467 -0.075000
v 0.212042 0.388948 -0.075000
v 0.211127 0.378176 -0.075000
v -0.251819 1.937870 -0.075000
v -0.237138 2.012330 -0.075000
v -0.242618 2.023789 -0.075000
v -0.267355 1.924183 -0.075000
v 0.102104 1.536444 -0.075000
v -0.095065 1.543196 -0.075000
v -0.095467 1.544393 -0.075000
v -0.088589 1.538854 -0.075000
v -0.085066 1.537348 -0.075000
v 0.063660 0.683751 -0.075000
v 0.066294 0.681541 -0.075000
v 0.069941 0.268509 -0.075000
v 0.073022 0.280686 -0.075000
v 0.068789 0.231404 -0.075000
v 0.201107 0.747251 -0.075000
v -0.057621 0.001289 -0.075000
v -0.057622 0.001291 -0.075000
v -0.057625 0.001296 -0.075000
v -0.057670 0.001584 -0.075000
v 0.378998 1.085664 -0.075000
v 0.375176 1.075185 -0.075000
v 0.367710 1.054717 -0.075000
v 0.377574 1.086229 -0.075000
v 0.348302 1.003323 -0.075000
v 0.323174 0.933794 -0.075000
v 0.326894 0.945359 -0.075000
v 0.322318 0.932593 -0.075000
v -0.282206 2.092752 -0.075000
v -0.282223 2.093207 -0.075000
v -0.303047 2.094130 -0.075000
v -0.450225 2.087351 -0.075000
v -0.456853 2.087898 -0.074999
v -0.370021 2.094507 -0.075000
v -0.239779 1.989708 -0.075000
v -0.243472 1.970978 -0.075000
v -0.247310 1.951514 -0.075000
v -0.245186 1.962283 -0.075000
v -0.456755 2.085202 -0.075000
v -0.282407 2.087524 -0.075000
v -0.457813 2.073685 -0.075000
v -0.457571 2.071595 -0.075000
v -0.272431 2.050275 -0.075000
v -0.266236 2.052597 -0.075000
v -0.463809 1.937240 -0.075000
v -0.463244 1.936689 -0.075000
v -0.451614 1.925324 -0.075000
v -0.463064 1.936512 -0.075000
v -0.463508 1.944196 -0.075000
v -0.266118 2.052272 -0.075000
v -0.348854 2.093283 -0.075000
v -0.354009 2.093583 -0.075000
v -0.417638 1.921879 -0.075000
v 0.122650 1.550903 -0.075000
v 0.123988 1.555042 -0.075000
v 0.095304 1.532884 -0.075000
v 0.085428 1.528622 -0.075000
v 0.058133 0.707627 -0.075000
v 0.054182 0.729025 -0.075000
v 0.069232 0.184376 -0.075000
v 0.071029 0.126789 -0.075000
v 0.071787 0.101967 -0.075000
v 0.071586 0.108563 -0.075000
v -0.023936 0.799088 -0.075000
v -0.022973 0.806581 -0.075000
v -0.027163 0.774148 -0.075000
v -0.064365 0.370569 -0.075000
v -0.064847 0.355277 -0.075000
v -0.248212 1.948785 -0.075000
v -0.247864 1.950905 -0.075000
v -0.247823 1.951015 -0.075000
v -0.281962 2.082742 -0.075000
v -0.282107 2.086567 -0.075000
v -0.282429 2.086581 -0.075000
v -0.239251 1.994233 -0.075000
v -0.240281 1.996388 -0.075000
v -0.240037 1.990247 -0.075000
v -0.282189 2.076815 -0.075000
v -0.458205 2.067143 -0.075000
v -0.458143 2.066613 -0.075000
v -0.462055 1.980570 -0.075000
v -0.461937 1.980455 -0.075000
v -0.458608 2.058498 -0.075000
v -0.459347 2.043381 -0.075000
v -0.460057 2.026681 -0.075000
v -0.250338 1.946911 -0.075000
v -0.289559 1.911826 -0.075000
v -0.326163 1.912989 -0.075000
v -0.268121 1.931047 -0.075000
v 0.120070 1.548416 -0.075000
v 0.120393 1.549416 -0.075000
v 0.099316 1.534741 -0.075000
v 0.095854 1.533247 -0.075000
v 0.102253 1.536676 -0.075000
v 0.101515 1.536190 -0.075000
v 0.059239 0.702852 -0.075000
v 0.060297 0.701964 -0.075000
v 0.058398 0.707405 -0.075000
v 0.068914 0.201143 -0.075000
v 0.069417 0.185020 -0.075000
v -0.069510 0.511367 -0.075000
v -0.040937 0.687728 -0.075000
v -0.040039 0.694671 -0.075000
v -0.065905 0.416873 -0.075000
v -0.066007 0.413619 -0.075000
v 0.069653 0.203719 -0.075000
v -0.412040 1.919143 -0.075000
v -0.411958 1.919143 -0.075000
v -0.412040 1.919182 -0.075000
v -0.412040 1.921312 -0.075000
v -0.411650 1.918994 -0.075000
v -0.411650 1.918507 -0.075000
v -0.411322 1.918507 -0.075000
v -0.411650 1.919143 -0.075000
v 0.072792 0.047753 -0.075000
v 0.073625 0.000000 -0.075000
v 0.241605 0.105231 -0.075000
v 0.258272 0.000000 -0.075000
v 0.238736 0.123350 -0.075000
v -0.057654 0.000000 -0.075000
v -0.057654 0.001282 -0.075000
v -0.230839 0.000000 -0.075000
v -0.230815 0.001379 -0.075000
v -0.230798 0.001379 -0.075000
v -0.411650 1.918507 0.075000
v -0.411322 1.918507 0.075000
v -0.411650 1.918994 0.075000
v -0.411958 1.919143 0.075000
v -0.412040 1.919143 0.075000
v -0.412040 1.919182 0.075000
v -0.417638 1.921879 0.075000
v -0.451614 1.925324 0.075000
v -0.463064 1.936512 0.075000
v -0.463260 1.936538 0.075000
v -0.463244 1.936689 0.075000
v -0.463809 1.937240 0.075000
v -0.463508 1.944196 0.075000
v -1.245000 2.500000 0.075000
v -1.245000 0.000000 0.075000
v -0.230839 0.000000 0.075000
v -0.230815 0.001379 0.075000
v -0.230798 0.001379 0.075000
v -0.214503 0.108022 0.075000
v -0.209582 0.140227 0.075000
v -0.188732 0.423392 0.075000
v -0.182255 0.511367 0.075000
v -0.183671 0.562432 0.075000
v -0.193134 0.903713 0.075000
v -0.193134 0.930988 0.075000
v -0.193134 0.971287 0.075000
v -0.185493 1.002653 0.075000
v -0.175853 1.042220 0.075000
v -0.203295 1.269769 0.075000
v -0.202451 1.294376 0.075000
v -0.218085 1.353854 0.075000
v -0.276852 1.500031 0.075000
v -0.285027 1.543021 0.075000
v -0.336761 1.661716 0.075000
v -0.353042 1.707800 0.075000
v 0.072792 0.047753 0.075000
v 0.073625 0.000000 0.075000
v -0.059439 0.017868 0.075000
v -0.058097 0.010354 0.075000
v -0.057670 0.001584 0.075000
v -0.057625 0.001296 0.075000
v -0.057622 0.001291 0.075000
v -0.057621 0.001289 0.075000
v -0.057654 0.001282 0.075000
v -0.057654 0.000000 0.075000
v 0.241605 0.105231 0.075000
v 0.258272 0.000000 0.075000
v 1.255000 0.000000 0.075000
v -0.457813 2.073685 0.075000
v -0.458143 2.066613 0.075000
v -0.457571 2.071595 0.075000
v -0.457487 2.073745 0.075000
v -0.457453 2.074496 0.075000
v -0.457174 2.080714 0.075000
v -0.457163 2.080779 0.075000
v -0.457057 2.084842 0.075000
v -0.457046 2.085219 0.075000
v -0.456755 2.085202 0.075000
v -0.456853 2.087898 0.075001
v -0.450225 2.087351 0.075000
v -0.370021 2.094507 0.075000
v -0.354009 2.093583 0.075000
v -0.348854 2.093283 0.075000
v -0.303047 2.094130 0.075000
v -0.282223 2.093207 0.075000
v -0.282206 2.092752 0.075000
v -0.282407 2.087524 0.075000
v -0.282429 2.086581 0.075000
v -0.282107 2.086567 0.075000
v -0.281962 2.082742 0.075000
v -0.282189 2.076815 0.075000
v -0.282181 2.076814 0.075000
v -0.282180 2.076345 0.075000
v -0.282229 2.074244 0.075000
v -0.282241 2.074244 0.075000
v -0.282354 2.071317 0.075000
v -0.280526 2.072003 0.075000
v -0.280322 2.071444 0.075000
v -0.280159 2.071505 0.075000
v -0.272431 2.050275 0.075000
v -0.266236 2.052597 0.075000
v -0.266118 2.052272 0.075000
v -0.265031 2.055828 0.075000
v -0.261090 2.068193 0.075000
v -0.260151 2.071245 0.075000
v -0.234739 2.067533 0.075000
v -0.231487 2.060732 0.075000
v 1.255000 2.500000 0.075000
v -0.461937 1.980455 0.075000
v -0.462055 1.980570 0.075000
v -0.460057 2.026681 0.075000
v -0.459347 2.043381 0.075000
v -0.458608 2.058498 0.075000
v -0.458205 2.067143 0.075000
v 0.378998 1.085664 0.075000
v 0.377574 1.086229 0.075000
v 0.375176 1.075185 0.075000
v 0.260466 1.440947 0.075000
v 0.433064 1.376673 0.075000
v 0.470970 1.362552 0.075000
v 0.440037 1.272455 0.075000
v -0.242327 1.967886 0.075000
v -0.242959 1.964676 0.075000
v -0.243015 1.964622 0.075000
v -0.243071 1.964338 0.075000
v -0.244305 1.963140 0.075000
v -0.232700 2.054582 0.075000
v -0.241327 2.031670 0.075000
v -0.242618 2.023789 0.075000
v -0.237138 2.012330 0.075000
v -0.240281 1.996388 0.075000
v -0.239251 1.994233 0.075000
v -0.240037 1.990247 0.075000
v -0.239779 1.989708 0.075000
v -0.243472 1.970978 0.075000
v -0.242261 1.968446 0.075000
v -0.242359 1.967952 0.075000
v -0.248211 1.948785 0.075000
v -0.250338 1.946911 0.075000
v -0.251819 1.937870 0.075000
v -0.267355 1.924183 0.075000
v -0.268121 1.931047 0.075000
v -0.289559 1.911826 0.075000
v -0.326163 1.912989 0.075000
v -0.303463 1.808725 0.075000
v -0.261116 1.682769 0.075000
v -0.177773 1.716121 0.075000
v -0.177950 1.717240 0.075000
v -0.169812 1.768831 0.075000
v -0.165334 1.797765 0.075000
v -0.141231 1.841091 0.075000
v -0.128755 1.863510 0.075000
v -0.107342 1.878532 0.075000
v -0.069752 1.904897 0.075000
v -0.037593 1.911357 0.075000
v 0.003024 1.919657 0.075000
v 0.040190 1.912695 0.075000
v 0.076146 1.906098 0.075000
v 0.105750 1.885919 0.075000
v 0.136253 1.865121 0.075000
v 0.156579 1.829240 0.075000
v 0.173895 1.798662 0.075000
v 0.181302 1.751547 0.075000
v 0.186797 1.717240 0.075000
v 0.186569 1.715815 0.075000
v 0.227995 1.452715 0.075000
v 0.229025 1.452655 0.075000
v -0.245186 1.962283 0.075000
v -0.247310 1.951514 0.075000
v -0.247823 1.951015 0.075000
v -0.247864 1.950905 0.075000
v 0.099316 1.534741 0.075000
v 0.101515 1.536190 0.075000
v 0.095854 1.533247 0.075000
v 0.095304 1.532884 0.075000
v 0.085428 1.528622 0.075000
v 0.079316 1.524435 0.075000
v 0.058039 1.520288 0.075000
v 0.054465 1.519603 0.075000
v 0.054694 1.465153 0.075000
v 0.054694 1.462827 0.075000
v 0.059823 1.462508 0.075000
v 0.181302 1.682933 0.075000
v 0.173895 1.635817 0.075000
v 0.160902 1.612873 0.075000
v 0.137635 1.564512 0.075000
v 0.125731 1.556236 0.075000
v 0.123988 1.555042 0.075000
v 0.122650 1.550903 0.075000
v 0.120393 1.549416 0.075000
v 0.120070 1.548416 0.075000
v 0.102253 1.536676 0.075000
v 0.102104 1.536444 0.075000
v -0.095065 1.543196 0.075000
v -0.088589 1.538854 0.075000
v -0.095467 1.544393 0.075000
v -0.103375 1.549749 0.075000
v -0.124930 1.564583 0.075000
v -0.127663 1.570204 0.075000
v -0.128755 1.570969 0.075000
v -0.141231 1.593389 0.075000
v -0.165334 1.636714 0.075000
v -0.169812 1.665648 0.075000
v -0.218550 1.541121 0.075000
v -0.187113 1.440475 0.075000
v -0.111367 1.449518 0.075000
v -0.054105 1.459705 0.075000
v -0.044988 1.460342 0.075000
v -0.043420 1.460362 0.075000
v -0.038441 1.461246 0.075000
v -0.037477 1.518801 0.075000
v -0.039568 1.519191 0.075000
v -0.065519 1.524107 0.075000
v -0.085066 1.537348 0.075000
v 0.059239 0.702852 0.075000
v 0.060297 0.701964 0.075000
v 0.058398 0.707405 0.075000
v 0.058133 0.707627 0.075000
v 0.054182 0.729025 0.075000
v 0.052939 0.730068 0.075000
v 0.052834 0.730632 0.075000
v 0.052802 0.730659 0.075000
v 0.050159 0.744971 0.075000
v 0.049327 0.745669 0.075000
v 0.036738 0.813840 0.075000
v 0.016834 0.816154 0.075000
v 0.007536 0.817163 0.075000
v 0.002703 0.816278 0.075000
v 0.002507 0.816247 0.075000
v -0.022140 0.811727 0.075000
v -0.022973 0.806581 0.075000
v -0.023936 0.799088 0.075000
v -0.027163 0.774148 0.075000
v -0.040039 0.694671 0.075000
v -0.040937 0.687728 0.075000
v -0.069510 0.511367 0.075000
v -0.065905 0.416873 0.075000
v -0.066007 0.413619 0.075000
v -0.064365 0.370569 0.075000
v -0.064847 0.355277 0.075000
v -0.057128 0.152958 0.075000
v -0.057140 0.152555 0.075000
v -0.056937 0.147226 0.075000
v -0.057158 0.140227 0.075000
v -0.056809 0.134162 0.075000
v -0.056914 0.129544 0.075000
v -0.056894 0.129195 0.075000
v -0.057143 0.118294 0.075000
v 0.070984 0.106466 0.075000
v 0.071586 0.108563 0.075000
v 0.071029 0.126789 0.075000
v 0.069232 0.184376 0.075000
v 0.069417 0.185020 0.075000
v 0.068914 0.201143 0.075000
v 0.069653 0.203719 0.075000
v 0.068789 0.231404 0.075000
v 0.069941 0.268509 0.075000
v 0.073022 0.280686 0.075000
v 0.078257 0.449397 0.075000
v 0.081274 0.461319 0.075000
v 0.085292 0.590788 0.075000
v 0.077196 0.631231 0.075000
v 0.075485 0.632666 0.075000
v 0.068432 0.670857 0.075000
v 0.066294 0.681541 0.075000
v 0.063660 0.683751 0.075000
v 0.388418 1.311539 0.075000
v 0.206773 1.334844 0.075000
v 0.196588 1.187909 0.075000
v 0.191428 1.153023 0.075000
v 0.194041 1.091467 0.075000
v 0.190487 1.040168 0.075000
v 0.323174 0.933794 0.075000
v 0.326894 0.945359 0.075000
v 0.322318 0.932593 0.075000
v 0.321871 0.931203 0.075000
v 0.238885 0.814778 0.075000
v 0.232531 0.805864 0.075000
v 0.201108 0.747251 0.075000
v 0.203244 0.740121 0.075000
v 0.198630 0.672410 0.075000
v 0.198399 0.668467 0.075000
v 0.200760 0.660584 0.075000
v 0.196004 0.590789 0.075000
v 0.212042 0.388948 0.075000
v 0.211127 0.378176 0.075000
v 0.223437 0.223191 0.075000
v 0.225033 0.213449 0.075000
v 0.238575 0.124992 0.075000
v 0.238736 0.123350 0.075000
v 0.367710 1.054717 0.075000
v 0.348302 1.003323 0.075000
v 0.338646 0.976851 0.075000
v 0.331308 0.957419 0.075000
v -0.411650 1.919143 0.075000
v -0.412040 1.921312 0.075000
v 0.070840 0.101968 0.075000
v 0.070810 0.102124 0.075000
v 0.070795 0.102603 0.075000
v 0.070767 0.103500 0.075000
v 0.070790 0.103580 0.075000
v 0.070728 0.105575 0.075000
v 0.071787 0.101967 0.075000
v 0.201913 0.761018 -0.075000
v 0.232387 0.806199 -0.075000
v 0.201913 0.761018 0.075000
v 0.232387 0.806199 0.075000
v 0.195634 1.020399 -0.075000
v 0.398491 1.310109 -0.075000
v 0.398491 1.310109 0.075000
v 0.195634 1.020399 0.075000
vn -0.0000 -0.0000 -1.0000
vn -0.0000 -0.0001 -1.0000
vn 0.0001 -0.0001 -1.0000
vn -0.0000 -0.0000 1.0000
vn -0.0000 0.0001 1.0000
vn 0.9805 0.1963 -0.0000
vn -0.8701 -0.4929 -0.0000
vn 0.6429 0.7660 -0.0000
vn -0.8702 -0.4928 -0.0000
vn 0.9834 0.1816 -0.0000
vn -0.9879 -0.1553 -0.0000
vn -0.9874 -0.1582 -0.0000
vn -0.9874 0.1582 -0.0000
vn -0.0583 -0.9983 -0.0000
vn -0.3490 -0.9371 -0.0000
vn -0.6970 0.7170 -0.0000
vn -0.9811 0.1934 -0.0000
vn 0.9989 -0.0466 -0.0000
vn 0.1406 0.9901 -0.0000
vn -0.6969 0.7172 -0.0000
vn -0.9933 -0.1153 -0.0000
vn 0.1273 0.9919 -0.0000
vn -0.9363 0.3511 -0.0000
vn 0.9992 -0.0391 -0.0000
vn -0.9976 0.0691 -0.0000
vn -0.9869 0.1616 -0.0000
vn 0.9990 -0.0448 -0.0000
vn -0.9892 0.1463 -0.0000
vn -0.5501 0.8351 -0.0000
vn -0.9991 -0.0424 -0.0000
vn -0.3962 0.9182 -0.0000
vn 0.9869 -0.1615 -0.0000
vn -0.5500 0.8352 -0.0000
vn 0.9997 -0.0261 -0.0000
vn -0.9677 -0.2519 -0.0000
vn 0.9996 -0.0284 -0.0000
vn -0.5652 0.8250 -0.0000
vn -0.0586 -0.9983 -0.0000
vn -0.1913 0.9815 -0.0000
vn 0.9993 0.0362 -0.0000
vn -0.1884 0.9821 -0.0000
vn -0.0823 -0.9966 -0.0000
vn -1.0000 -0.0042 -0.0000
vn 0.0889 -0.9960 -0.0000
vn -1.0000 -0.0000 -0.0000
vn -0.0576 -0.9983 -0.0000
vn -0.0620 -0.9981 -0.0000
vn -0.0582 -0.9983 -0.0000
vn -0.0581 -0.9983 -0.0000
vn 0.0185 -0.9998 -0.0000
vn -0.0443 -0.9990 -0.0000
vn -0.9879 0.1553 -0.0000
vn -0.9993 -0.0379 -0.0000
vn -0.8702 0.4928 -0.0000
vn -0.9993 0.0383 -0.0000
vn -0.9011 0.4335 -0.0000
vn -0.9997 0.0234 -0.0000
vn -0.5708 0.8211 -0.0000
vn -0.0444 -0.9990 -0.0000
vn -0.5652 0.8249 -0.0000
vn -0.9515 0.3076 -0.0000
vn -0.5503 0.8350 -0.0000
vn -0.0501 -0.9987 -0.0000
vn -1.0000 -0.0034 -0.0000
vn -0.5502 0.8350 -0.0000
vn -0.8416 0.5401 -0.0000
vn 0.0340 0.9994 -0.0000
vn -0.9993 0.0385 -0.0000
vn 0.5569 0.8306 -0.0000
vn 0.3510 -0.9364 -0.0000
vn 0.9481 0.3181 -0.0000
vn -0.9397 -0.3421 -0.0000
vn 0.5608 0.8279 -0.0000
vn 0.3512 -0.9363 -0.0000
vn 0.5669 0.8238 -0.0000
vn 0.8993 0.4373 -0.0000
vn 0.3509 -0.9364 -0.0000
vn 0.5742 0.8187 -0.0000
vn -0.9396 -0.3423 -0.0000
vn 0.8738 0.4863 -0.0000
vn 0.9563 -0.2925 -0.0000
vn 0.8739 0.4862 -0.0000
vn 0.9528 -0.3036 -0.0000
vn 0.9882 0.1529 -0.0000
vn 0.9558 -0.2941 -0.0000
vn 0.9878 0.1558 -0.0000
vn -0.1446 -0.9895 -0.0000
vn -0.9577 -0.2878 -0.0000
vn -0.9022 -0.4314 -0.0000
vn -0.9545 -0.2982 -0.0000
vn 0.1186 -0.9929 -0.0000
vn -0.0000 1.0000 -0.0000
vn 0.1751 -0.9845 -0.0000
vn 0.9991 -0.0433 -0.0000
vn 0.0697 -0.9976 -0.0000
vn 0.6988 0.7153 -0.0000
vn 0.0129 -0.9999 -0.0000
vn 0.1747 -0.9846 -0.0000
vn 0.9991 -0.0424 -0.0000
vn 0.9999 -0.0167 -0.0000
vn 0.9988 -0.0488 -0.0000
vn -0.9520 0.3062 -0.0000
vn 0.1830 0.9831 -0.0000
vn -0.8143 0.5804 -0.0000
vn 0.1861 0.9825 -0.0000
vn -0.9933 -0.1154 -0.0000
vn -0.3688 -0.9295 -0.0000
vn 0.3931 0.9195 -0.0000
vn -0.9394 0.3427 -0.0000
vn 1.0000 -0.0000 -0.0000
vn 0.9182 0.3961 -0.0000
vn 0.6431 0.7658 -0.0000
vn 0.6429 0.7659 -0.0000
vn -0.3491 -0.9371 -0.0000
vn -0.9458 0.3247 -0.0000
vn 0.1009 0.9949 -0.0000
vn 0.6439 0.7651 -0.0000
vn -0.9481 0.3180 -0.0000
vn 0.6989 0.7152 -0.0000
vn 0.1310 0.9914 -0.0000
vn -0.6991 0.7151 -0.0000
vn 0.9949 -0.1011 -0.0000
vn -0.9811 0.1937 -0.0000
vn 0.6986 0.7155 -0.0000
vn 0.1155 0.9933 -0.0000
vn -0.6970 0.7171 -0.0000
vn 0.1079 0.9942 -0.0000
vn -0.9983 0.0584 -0.0000
vn -0.1802 0.9836 -0.0000
vn -0.9579 -0.2870 -0.0000
vn -0.1555 0.9878 -0.0000
vn -0.9359 0.3524 -0.0000
vn -0.0000 -1.0000 -0.0000
vn -0.9977 0.0680 -0.0000
vn -0.1804 0.9836 -0.0000
vn 0.9998 -0.0174 -0.0000
vn -0.9871 0.1599 -0.0000
vn -0.0175 -0.9998 -0.0000
vn -0.9918 0.1275 -0.0000
vn 0.9885 -0.1510 -0.0000
vn -0.9917 0.1283 -0.0000
vn -0.9969 -0.0792 -0.0000
vn 0.9973 -0.0734 -0.0000
vn -0.9964 0.0846 -0.0000
vn -0.9020 -0.4316 -0.0000
vn 0.9996 0.0277 -0.0000
vn -0.9868 -0.1617 -0.0000
vn -0.9993 -0.0381 -0.0000
vn -0.9022 -0.4313 -0.0000
vn -0.9885 -0.1513 -0.0000
vn -0.9995 0.0315 -0.0000
vn -0.9953 -0.0972 -0.0000
vn -0.9023 -0.4310 -0.0000
vn -0.9877 -0.1564 -0.0000
vn -0.6610 0.7504 -0.0000
vn 0.9716 -0.2367 -0.0000
vn -0.9395 0.3427 -0.0000
vn -0.9355 0.3533 -0.0000
vn 0.9928 0.1197 -0.0000
vn 0.9938 0.1109 -0.0000
vn 0.9994 -0.0343 -0.0000
vn -0.6676 0.7446 -0.0000
vn 0.9671 0.2542 -0.0000
vn -0.9391 0.3437 -0.0000
vn -0.9983 -0.0574 -0.0000
vn 0.0318 0.9995 -0.0000
vn 0.9278 0.3730 -0.0000
vn -0.9997 0.0229 -0.0000
vn -0.9771 -0.2127 -0.0000
vn 0.9824 0.1868 -0.0000
vn -0.9479 -0.3187 -0.0000
vn 0.9167 0.3996 -0.0000
vn 0.1008 0.9949 -0.0000
vn 0.9429 0.3331 -0.0000
vn 0.9638 0.2666 -0.0000
vn 0.9824 0.1870 -0.0000
vn 0.9612 -0.2760 -0.0000
vn 0.9878 -0.1558 -0.0000
vn 0.9998 0.0175 -0.0000
vn 0.9995 0.0305 -0.0000
vn 0.9882 -0.1529 -0.0000
vn 0.9995 0.0312 -0.0000
vn 0.8739 -0.4862 -0.0000
vn -0.9844 -0.1758 -0.0000
vn 0.9612 -0.2758 -0.0000
vn 0.9611 -0.2761 -0.0000
vn 0.8738 -0.4863 -0.0000
vn -0.9988 -0.0486 -0.0000
vn 0.5743 -0.8186 -0.0000
vn -0.9880 -0.1543 -0.0000
vn 0.5742 -0.8187 -0.0000
vn -0.7914 -0.6113 -0.0000
vn 0.1969 -0.9804 -0.0000
vn -0.9000 -0.4359 -0.0000
vn 0.9998 0.0185 -0.0000
vn 0.9995 -0.0310 -0.0000
vn 0.2002 -0.9798 -0.0000
vn 0.0011 1.0000 -0.0000
vn 0.9694 -0.2453 -0.0000
vn -0.1841 -0.9829 -0.0000
vn -0.1805 -0.9836 -0.0000
vn -0.5632 -0.8263 -0.0000
vn -0.5633 -0.8262 -0.0000
vn -0.8290 0.5592 -0.0000
vn 0.8192 -0.5736 -0.0000
vn 0.0002 0.0002 -1.0000
vn 0.3068 -0.0000 -0.9518
vn -0.0000 -0.0010 -1.0000
vn -0.0000 0.0001 -1.0000
vn 0.0020 -0.0001 -1.0000
vn 0.0018 -0.0000 -1.0000
vn -0.0016 0.0001 -1.0000
vn 0.0005 -0.0000 -1.0000
vn 0.0002 -0.0000 -1.0000
vn -0.0004 0.0001 -1.0000
vn 0.0025 -0.0000 -1.0000
vn -0.0000 0.0002 -1.0000
vn 0.0001 0.0002 -1.0000
vn -0.0000 0.0004 -1.0000
vn 0.9925 -0.1224 -0.0000
vn 0.0005 -0.0001 -1.0000
vn 0.0001 -0.0002 -1.0000
vn -0.0001 -0.0000 -1.0000
vn 0.0005 0.0001 -1.0000
vn -0.9504 -0.3110 -0.0000
vn 0.8367 0.3286 -0.4381
vn 0.0001 -0.0000 -1.0000
vn 0.0006 -0.0000 -1.0000
vn -0.0000 -0.0019 -1.0000
vn -0.0003 -0.0000 -1.0000
vn 0.2653 0.0077 -0.9641
vn -0.0005 0.0010 -1.0000
vn -0.0000 -0.0001 1.0000
vn -0.0002 -0.0002 1.0000
vn -0.0000 -0.0002 1.0000
vn -0.0000 0.0004 1.0000
vn -0.0004 -0.0000 1.0000
vn -0.0017 -0.0000 1.0000
vn -0.0001 -0.0000 1.0000
vn -0.0000 -0.0004 1.0000
vn -0.0010 0.0001 1.0000
vn 0.0001 -0.0000 1.0000
vn -0.0025 -0.0021 1.0000
vn -0.1211 -0.0988 0.9877
vn 0.0002 0.0001 1.0000
vn -0.0001 -0.0002 1.0000
vn -0.0007 0.0001 1.0000
vn -0.0002 0.0001 1.0000
vn -0.0005 -0.0000 1.0000
vn -0.0000 -0.0018 1.0000
vn 0.9391 0.3073 0.1536
vn -0.0000 -0.0003 1.0000
vn 0.0002 -0.0001 1.0000
vn -0.3154 -0.0094 0.9489
vn 0.0062 0.0002 1.0000
vn -0.0000 0.0002 1.0000
vn -0.9359 0.3523 -0.0000
vn -0.9868 0.1616 -0.0000
vn -0.3962 0.9181 -0.0000
vn 0.9866 -0.1635 -0.0000
vn -0.5504 0.8349 -0.0000
vn -0.0573 -0.9984 -0.0000
vn -0.0824 -0.9966 -0.0000
vn -0.0577 -0.9983 -0.0000
vn -0.0621 -0.9981 -0.0000
vn -0.9993 -0.0378 -0.0000
vn -0.0998 -0.9950 -0.0000
vn -0.9515 0.3077 -0.0000
vn -0.8418 0.5397 -0.0000
vn 0.0317 0.9995 -0.0000
vn 0.3508 -0.9364 -0.0000
vn -0.9398 -0.3418 -0.0000
vn 0.3492 -0.9371 -0.0000
vn 0.5744 0.8186 -0.0000
vn 0.9563 -0.2924 -0.0000
vn -0.1445 -0.9895 -0.0000
vn 0.1748 -0.9846 -0.0000
vn -0.8143 0.5805 -0.0000
vn -0.9519 0.3063 -0.0000
vn -0.3686 -0.9296 -0.0000
vn 0.3930 0.9195 -0.0000
vn 0.9183 0.3960 -0.0000
vn 0.6427 0.7661 -0.0000
vn 0.6433 0.7656 -0.0000
vn -0.9811 0.1935 -0.0000
vn 0.1330 0.9911 -0.0000
vn 0.6428 0.7660 -0.0000
vn -0.6964 0.7176 -0.0000
vn 0.9949 -0.1008 -0.0000
vn 0.6989 0.7153 -0.0000
vn -0.6968 0.7172 -0.0000
vn -0.1550 0.9879 -0.0000
vn -0.0174 -0.9998 -0.0000
vn -0.9021 -0.4315 -0.0000
vn -0.9023 -0.4311 -0.0000
vn -0.6676 0.7445 -0.0000
vt 0.745527 0.053144
vt 0.739350 0.057392
vt 0.740864 0.091586
vt 0.957267 0.823246
vt 0.956344 0.818561
vt 0.958155 0.822910
vt 0.425735 0.059930
vt 0.428753 0.098066
vt 0.068938 0.032006
vt 0.496629 0.260522
vt 0.545808 0.249603
vt 0.806804 0.000142
vt 0.281938 0.494410
vt 0.000142 0.846061
vt 0.469960 0.334407
vt 0.472835 0.351840
vt 0.419446 0.432200
vt 0.426187 0.418725
vt 0.438348 0.390723
vt 0.306017 0.517001
vt 0.308301 0.509505
vt 0.306173 0.516817
vt 0.430911 0.393657
vt 0.430933 0.393819
vt 0.430797 0.393800
vt 0.945979 0.836069
vt 0.904591 0.947096
vt 0.879001 0.961215
vt 0.814895 0.792728
vt 0.858270 0.742195
vt 0.815484 0.808841
vt 0.374370 0.390217
vt 0.363343 0.400982
vt 0.735706 0.087129
vt 0.735544 0.087235
vt 0.735404 0.087249
vt 0.000885 0.846346
vt 0.001343 0.847609
vt 0.000885 0.847830
vt 0.947294 0.828787
vt 0.949766 0.824668
vt 0.956761 0.823610
vt 0.745606 0.052307
vt 0.749603 0.050978
vt 0.749159 0.048382
vt 0.962969 0.817785
vt 0.962828 0.814213
vt 0.961040 0.817618
vt 0.679719 0.370282
vt 0.763016 0.655330
vt 0.656026 0.365231
vt 0.574770 0.365858
vt 0.569765 0.360342
vt 0.051303 0.829878
vt 0.326040 0.531309
vt 0.485365 0.350252
vt 0.496900 0.350743
vt 0.432678 0.385715
vt 0.393381 0.406853
vt 0.313041 0.513720
vt 0.302195 0.517696
vt 0.304199 0.517768
vt 0.430308 0.393127
vt 0.430232 0.393056
vt 0.431168 0.392163
vt 0.925335 0.841431
vt 0.889287 0.859195
vt 0.858930 0.907890
vt 0.840295 0.691631
vt 0.852492 0.639730
vt 0.860404 0.597572
vt 0.447323 0.396058
vt 0.467510 0.381983
vt 0.628538 0.360650
vt 0.718957 0.073493
vt 0.718922 0.073824
vt 0.718897 0.073682
vt 0.000142 0.847830
vt 0.000142 0.846346
vt 0.000601 0.846566
vt 0.961954 0.821073
vt 0.959067 0.820006
vt 0.956302 0.825325
vt 0.896209 0.910409
vt 0.859663 0.905231
vt 0.865591 0.893403
vt 0.344628 0.521992
vt 0.317346 0.473234
vt 0.355640 0.511626
vt 0.890163 0.919651
vt 0.890990 0.919158
vt 0.336277 0.530939
vt 0.306982 0.484403
vt 0.886575 0.928434
vt 0.858371 0.907687
vt 0.327866 0.540917
vt 0.297903 0.492986
vt 0.885489 0.930972
vt 0.853471 0.918079
vt 0.276776 0.506976
vt 0.287452 0.501689
vt 0.885150 0.931837
vt 0.852004 0.921637
vt 0.318763 0.543816
vt 0.323272 0.551105
vt 0.883704 0.936125
vt 0.851054 0.923197
vt 0.314687 0.511903
vt 0.309783 0.505067
vt 0.310144 0.506976
vt 0.477145 0.393707
vt 0.426447 0.347946
vt 0.478521 0.392805
vt 0.471607 0.395554
vt 0.425687 0.349189
vt 0.637945 0.192272
vt 0.623362 0.168272
vt 0.647248 0.187027
vt 0.874064 0.731412
vt 0.854205 0.730659
vt 0.846626 0.727790
vt 0.469699 0.394762
vt 0.424498 0.354663
vt 0.633286 0.194813
vt 0.618940 0.177276
vt 0.817001 0.737493
vt 0.468621 0.394289
vt 0.425443 0.356300
vt 0.625259 0.199125
vt 0.616815 0.181578
vt 0.807088 0.685115
vt 0.832570 0.736981
vt 0.465342 0.393976
vt 0.426187 0.357521
vt 0.619644 0.202810
vt 0.613474 0.188537
vt 0.812332 0.660720
vt 0.844112 0.690497
vt 0.306057 0.517414
vt 0.306381 0.518131
vt 0.611687 0.207989
vt 0.610306 0.193830
vt 0.828433 0.634105
vt 0.848717 0.669876
vt 0.306117 0.516881
vt 0.306909 0.517466
vt 0.608539 0.209941
vt 0.605680 0.201724
vt 0.850643 0.621711
vt 0.855293 0.642082
vt 0.307210 0.517338
vt 0.307108 0.517391
vt 0.600533 0.211249
vt 0.603931 0.204881
vt 0.856907 0.621185
vt 0.874064 0.621713
vt 0.852453 0.611651
vt 0.307283 0.517173
vt 0.598056 0.215961
vt 0.602168 0.213727
vt 0.306509 0.516590
vt 0.306353 0.516687
vt 0.588965 0.221186
vt 0.598584 0.215334
vt 0.306707 0.516452
vt 0.307333 0.517035
vt 0.581890 0.225909
vt 0.593955 0.225179
vt 0.306772 0.516319
vt 0.307394 0.516832
vt 0.578716 0.238517
vt 0.589691 0.231202
vt 0.307059 0.515822
vt 0.307495 0.516762
vt 0.552582 0.251842
vt 0.575694 0.237472
vt 0.306956 0.515651
vt 0.307843 0.516365
vt 0.535625 0.258166
vt 0.565598 0.260481
vt 0.306718 0.515245
vt 0.308007 0.516418
vt 0.555365 0.291633
vt 0.560771 0.277002
vt 0.308397 0.516530
vt 0.503513 0.260538
vt 0.520912 0.265083
vt 0.311810 0.537784
vt 0.284286 0.510305
vt 0.491000 0.253068
vt 0.560042 0.306118
vt 0.294307 0.519394
vt 0.290093 0.515947
vt 0.480529 0.253141
vt 0.566176 0.313550
vt 0.306042 0.528314
vt 0.307124 0.532843
vt 0.469608 0.254496
vt 0.566302 0.322425
vt 0.305752 0.525492
vt 0.298184 0.519728
vt 0.461087 0.257226
vt 0.565955 0.330986
vt 0.306229 0.524227
vt 0.300060 0.519414
vt 0.457270 0.259997
vt 0.565179 0.340328
vt 0.306720 0.523400
vt 0.300973 0.518779
vt 0.454087 0.265277
vt 0.564538 0.349828
vt 0.307063 0.522580
vt 0.301642 0.518243
vt 0.452640 0.268335
vt 0.560692 0.356577
vt 0.306854 0.521294
vt 0.302349 0.517862
vt 0.450029 0.271791
vt 0.557983 0.359166
vt 0.306568 0.520380
vt 0.303399 0.517718
vt 0.448902 0.274366
vt 0.555015 0.362608
vt 0.306453 0.519445
vt 0.304288 0.517674
vt 0.548337 0.367155
vt 0.552021 0.364814
vt 0.306601 0.518886
vt 0.304955 0.517592
vt 0.448006 0.276856
vt 0.545784 0.368273
vt 0.305397 0.517385
vt 0.446692 0.279572
vt 0.447030 0.278382
vt 0.430353 0.393447
vt 0.430743 0.393798
vt 0.539286 0.369724
vt 0.542383 0.368758
vt 0.430834 0.393786
vt 0.430347 0.393398
vt 0.446746 0.280904
vt 0.536991 0.370005
vt 0.430879 0.393784
vt 0.430359 0.393349
vt 0.446393 0.283578
vt 0.446685 0.282000
vt 0.430310 0.393271
vt 0.430355 0.393304
vt 0.454400 0.283785
vt 0.534472 0.370778
vt 0.430998 0.393827
vt 0.430915 0.393825
vt 0.454601 0.286479
vt 0.536928 0.362400
vt 0.431060 0.393814
vt 0.430300 0.393190
vt 0.532115 0.363871
vt 0.534726 0.362246
vt 0.431176 0.393832
vt 0.452990 0.292495
vt 0.453060 0.289428
vt 0.431319 0.394053
vt 0.430279 0.393013
vt 0.455749 0.294147
vt 0.529251 0.363965
vt 0.431564 0.394436
vt 0.430046 0.392891
vt 0.454635 0.297291
vt 0.527539 0.361096
vt 0.431954 0.395454
vt 0.429644 0.392679
vt 0.460788 0.295078
vt 0.524566 0.362304
vt 0.431048 0.393772
vt 0.430714 0.391429
vt 0.432729 0.393262
vt 0.459480 0.296117
vt 0.526552 0.355625
vt 0.430700 0.393754
vt 0.430355 0.393135
vt 0.430630 0.393769
vt 0.430401 0.393479
vt 0.430382 0.393584
vt 0.430392 0.393551
vt 0.716457 0.125608
vt 0.696602 0.081621
vt 0.728945 0.108823
vt 0.430614 0.393764
vt 0.430598 0.393782
vt 0.713128 0.128973
vt 0.680954 0.094881
vt 0.430621 0.393751
vt 0.430398 0.393569
vt 0.697518 0.149235
vt 0.676021 0.098560
vt 0.430630 0.393735
vt 0.430412 0.393557
vt 0.682862 0.162573
vt 0.658421 0.115881
vt 0.430601 0.393782
vt 0.430425 0.393549
vt 0.666929 0.174963
vt 0.646241 0.131057
vt 0.371840 0.393273
vt 0.414449 0.431536
vt 0.411344 0.434175
vt 0.430386 0.393554
vt 0.430382 0.393581
vt 0.651985 0.184584
vt 0.634821 0.147682
vt 0.375378 0.390703
vt 0.374731 0.390405
vt 0.430651 0.393786
vt 0.430635 0.393770
vt 0.625333 0.164577
vt 0.414169 0.430114
vt 0.414446 0.430846
vt 0.430684 0.393804
vt 0.430373 0.393537
vt 0.334810 0.427127
vt 0.372555 0.466994
vt 0.337371 0.430603
vt 0.412628 0.354829
vt 0.376170 0.390976
vt 0.430352 0.393506
vt 0.338329 0.425904
vt 0.373552 0.468894
vt 0.735119 0.087213
vt 0.719315 0.075131
vt 0.733862 0.087400
vt 0.416326 0.351287
vt 0.448079 0.395465
vt 0.848695 0.930057
vt 0.849252 0.928846
vt 0.719037 0.074098
vt 0.448776 0.393948
vt 0.449698 0.393791
vt 0.882853 0.937594
vt 0.883367 0.936447
vt 0.842917 0.000142
vt 0.807088 0.597287
vt 0.807088 0.000142
vt 0.882682 0.937724
vt 0.848494 0.932090
vt 0.735872 0.087058
vt 0.881316 0.942630
vt 0.848431 0.932689
vt 0.303429 0.501071
vt 0.316457 0.511730
vt 0.736334 0.086904
vt 0.718982 0.073309
vt 0.880794 0.942885
vt 0.846867 0.940048
vt 0.295500 0.496820
vt 0.320289 0.508469
vt 0.880407 0.943017
vt 0.846152 0.941934
vt 0.303094 0.476206
vt 0.320939 0.510234
vt 0.736163 0.090946
vt 0.718607 0.072036
vt 0.737107 0.087063
vt 0.846826 0.943647
vt 0.846611 0.943067
vt 0.334154 0.498614
vt 0.736361 0.093087
vt 0.714849 0.073706
vt 0.879318 0.946239
vt 0.880203 0.943052
vt 0.474784 0.364948
vt 0.467713 0.349306
vt 0.737489 0.093028
vt 0.712512 0.073951
vt 0.878434 0.946381
vt 0.845827 0.949528
vt 0.475217 0.371777
vt 0.454388 0.348905
vt 0.737708 0.094160
vt 0.712222 0.072834
vt 0.843261 0.975694
vt 0.844231 0.952033
vt 0.477264 0.381923
vt 0.447555 0.349189
vt 0.708452 0.072979
vt 0.710897 0.072688
vt 0.879621 0.963416
vt 0.879096 0.961206
vt 0.437250 0.348237
vt 0.737466 0.096321
vt 0.878717 0.961768
vt 0.834557 0.994102
vt 0.837378 0.986724
vt 0.435651 0.339576
vt 0.465804 0.382269
vt 0.462728 0.383684
vt 0.879115 0.961978
vt 0.457518 0.297415
vt 0.525784 0.356834
vt 0.843202 0.000142
vt 0.879030 0.597287
vt 0.843202 0.597287
vt 0.446720 0.335063
vt 0.442113 0.336654
vt 0.877747 0.959435
vt 0.835661 0.993781
vt 0.461147 0.292679
vt 0.524801 0.358757
vt 0.739261 0.056872
vt 0.733164 0.065330
vt 0.728400 0.060819
vt 0.470527 0.326364
vt 0.467221 0.382153
vt 0.881703 0.962041
vt 0.840614 0.994258
vt 0.460060 0.295531
vt 0.529414 0.354416
vt 0.739823 0.057572
vt 0.473716 0.325887
vt 0.487676 0.374837
vt 0.881533 0.961158
vt 0.856594 0.999690
vt 0.524690 0.354788
vt 0.526550 0.355621
vt 0.739375 0.057332
vt 0.739564 0.057392
vt 0.478307 0.325148
vt 0.488330 0.374928
vt 0.881830 0.960211
vt 0.867518 0.999858
vt 0.465009 0.301698
vt 0.460938 0.297130
vt 0.739599 0.057079
vt 0.739609 0.057457
vt 0.511626 0.369850
vt 0.490289 0.374748
vt 0.885983 0.958309
vt 0.878991 0.999431
vt 0.512773 0.352136
vt 0.519528 0.351292
vt 0.739709 0.057108
vt 0.739881 0.057354
vt 0.503298 0.320451
vt 0.576070 0.361711
vt 0.923537 0.985553
vt 0.894836 0.997277
vt 0.466769 0.317839
vt 0.464897 0.308364
vt 0.741136 0.055628
vt 0.739946 0.057289
vt 0.577176 0.311289
vt 0.571787 0.311877
vt 0.903101 0.947697
vt 0.902904 0.948614
vt 0.467986 0.323817
vt 0.503167 0.351336
vt 0.741959 0.055326
vt 0.741767 0.056733
vt 0.630707 0.311399
vt 0.578575 0.360801
vt 0.935507 0.909998
vt 0.931683 0.980079
vt 0.470450 0.330122
vt 0.495779 0.351104
vt 0.742500 0.055259
vt 0.742474 0.056274
vt 0.637349 0.312095
vt 0.627339 0.359426
vt 0.946392 0.887851
vt 0.971392 0.933941
vt 0.483534 0.349880
vt 0.489588 0.349423
vt 0.745676 0.053300
vt 0.742868 0.055911
vt 0.668933 0.319700
vt 0.628698 0.359532
vt 0.946556 0.887182
vt 0.985082 0.902540
vt 0.471586 0.346044
vt 0.470576 0.336197
vt 0.746644 0.053739
vt 0.746024 0.054416
vt 0.674200 0.321485
vt 0.654005 0.363015
vt 0.948872 0.876542
vt 0.985256 0.894686
vt 0.473622 0.349928
vt 0.747471 0.054233
vt 0.746059 0.053591
vt 0.683766 0.326168
vt 0.653905 0.362038
vt 0.951389 0.871854
vt 0.985256 0.876600
vt 0.462482 0.392824
vt 0.426828 0.360321
vt 0.747570 0.053562
vt 0.746073 0.052876
vt 0.343946 0.421660
vt 0.377185 0.466982
vt 0.962214 0.820861
vt 0.982501 0.866047
vt 0.457793 0.392524
vt 0.428254 0.362785
vt 0.747747 0.053062
vt 0.746803 0.052986
vt 0.395974 0.448542
vt 0.382256 0.461534
vt 0.946907 0.835540
vt 0.452417 0.391358
vt 0.429062 0.367139
vt 0.750594 0.051139
vt 0.747773 0.052650
vt 0.363653 0.401137
vt 0.356940 0.407999
vt 0.948171 0.834155
vt 0.962322 0.821152
vt 0.451177 0.389330
vt 0.430768 0.372153
vt 0.751370 0.050674
vt 0.750113 0.051444
vt 0.368803 0.396271
vt 0.402989 0.441974
vt 0.949606 0.832500
vt 0.962098 0.821199
vt 0.447908 0.388290
vt 0.432899 0.373093
vt 0.752513 0.050252
vt 0.750572 0.050797
vt 0.408156 0.437042
vt 0.951086 0.830928
vt 0.961900 0.821218
vt 0.444533 0.388227
vt 0.434274 0.376152
vt 0.755240 0.051379
vt 0.751123 0.050053
vt 0.952376 0.829621
vt 0.961766 0.821241
vt 0.438063 0.391139
vt 0.434682 0.379407
vt 0.757612 0.052073
vt 0.750624 0.048856
vt 0.953219 0.829056
vt 0.961701 0.821252
vt 0.432361 0.386007
vt 0.758583 0.060006
vt 0.749949 0.046929
vt 0.718972 0.072459
vt 0.736665 0.086838
vt 0.954852 0.827029
vt 0.961879 0.821522
vt 0.750180 0.069630
vt 0.743060 0.048180
vt 0.719009 0.072810
vt 0.432446 0.396116
vt 0.428602 0.392382
vt 0.734660 0.056735
vt 0.960070 0.817385
vt 0.950955 0.822642
vt 0.944520 0.835198
vt 0.953137 0.830877
vt 0.944771 0.833387
vt 0.432913 0.398740
vt 0.427907 0.391946
vt 0.954697 0.819944
vt 0.964751 0.810327
vt 0.948532 0.826728
vt 0.943807 0.837218
vt 0.951750 0.832052
vt 0.433158 0.401704
vt 0.425268 0.391699
vt 0.957689 0.822675
vt 0.941337 0.839279
vt 0.949439 0.832932
vt 0.431497 0.407421
vt 0.422310 0.391666
vt 0.955819 0.823108
vt 0.961001 0.817914
vt 0.960100 0.818516
vt 0.955695 0.826476
vt 0.940834 0.841074
vt 0.944417 0.832366
vt 0.429979 0.412542
vt 0.416748 0.393689
vt 0.957463 0.822864
vt 0.956967 0.823094
vt 0.945800 0.831405
vt 0.946789 0.829726
vt 0.939164 0.843357
vt 0.942904 0.833413
vt 0.426537 0.419855
vt 0.411796 0.395473
vt 0.957805 0.822886
vt 0.961773 0.817753
vt 0.954499 0.828546
vt 0.938863 0.845437
vt 0.939970 0.834996
vt 0.418751 0.432281
vt 0.404918 0.399264
vt 0.957981 0.822898
vt 0.962214 0.817763
vt 0.961940 0.821693
vt 0.936672 0.848838
vt 0.937701 0.835842
vt 0.409526 0.441580
vt 0.393344 0.407534
vt 0.962443 0.817772
vt 0.959634 0.815059
vt 0.961833 0.813484
vt 0.933618 0.853638
vt 0.932716 0.837503
vt 0.397753 0.452805
vt 0.384955 0.416796
vt 0.958444 0.822885
vt 0.952013 0.820814
vt 0.934089 0.856083
vt 0.925600 0.839933
vt 0.388482 0.469148
vt 0.374662 0.428513
vt 0.964976 0.818073
vt 0.963656 0.817881
vt 0.914640 0.880787
vt 0.921429 0.839126
vt 0.378138 0.485537
vt 0.358700 0.438614
vt 0.958977 0.822781
vt 0.913685 0.883755
vt 0.890913 0.859465
vt 0.329454 0.461353
vt 0.342761 0.449804
vt 0.712817 0.350225
vt 0.657744 0.362281
vt 0.886416 0.862592
vt 0.367143 0.499192
vt 0.417515 0.350915
vt 0.736688 0.090982
vt 0.736477 0.087272
vt 0.734284 0.087330
vt 0.748361 0.072436
vt 0.764536 0.058471
vt 0.757731 0.052841
vt 0.756103 0.052552
vt 0.752597 0.050853
vt 0.751449 0.050956
vt 0.726849 0.109247
vt 0.751151 0.051663
vt 0.747957 0.052968
vt 0.747736 0.053752
vt 0.747925 0.054942
vt 0.746650 0.053938
vt 0.726561 0.059093
vt 0.739289 0.057048
vt 0.739586 0.057030
vt 0.741042 0.055471
vt 0.739828 0.057490
vt 0.742702 0.055735
vt 0.741943 0.055369
vt 0.957683 0.822883
vt 0.953959 0.820083
vt 0.463074 0.253717
vt 0.454200 0.254978
vt 0.453616 0.265476
vt 0.449250 0.273831
vt 0.446161 0.279784
vt 0.447610 0.281412
vt 0.452840 0.286496
vt 0.453088 0.286444
vt 0.452039 0.284937
vt 0.453004 0.287200
vt 0.448722 0.276246
vt 0.449631 0.279902
vt 0.455659 0.289500
vt 0.447814 0.279170
vt 0.682745 0.161601
vt 0.698849 0.147216
vt 0.647727 0.186813
vt 0.666442 0.174562
vt 0.624024 0.200719
vt 0.651567 0.184856
vt 0.624071 0.199319
vt 0.634928 0.193848
vt 0.620542 0.202072
vt 0.446121 0.250501
vt 0.581377 0.223049
vt 0.587947 0.221331
vt 0.523806 0.262577
vt 0.533316 0.257481
vt 0.576720 0.231894
vt 0.301323 0.476875
vt 0.338565 0.426037
vt 0.284367 0.494737
vt 0.310814 0.500280
vt 0.469971 0.331204
vt 0.463951 0.306696
vt 0.464200 0.303028
vt 0.459120 0.294644
vt 0.459542 0.294837
vt 0.458615 0.292617
vt 0.457582 0.288770
vt 0.479857 0.397716
vt 0.471261 0.395173
vt 0.477842 0.394820
vt 0.327914 0.540305
vt 0.335210 0.532523
vt 0.465080 0.394445
vt 0.457646 0.393784
vt 0.462849 0.393012
vt 0.447859 0.390864
vt 0.452741 0.392687
vt 0.451351 0.393757
vt 0.445276 0.388240
vt 0.344093 0.521910
vt 0.354571 0.512830
vt 0.431945 0.392846
vt 0.433080 0.401605
vt 0.433305 0.398619
vt 0.366373 0.499436
vt 0.377066 0.486281
vt 0.387030 0.468482
vt 0.395030 0.449089
vt 0.432056 0.407037
vt 0.409032 0.440371
vt 0.430375 0.411585
vt 0.306774 0.523445
vt 0.306533 0.523850
vt 0.306915 0.524588
vt 0.306410 0.528424
vt 0.308192 0.532093
vt 0.312637 0.538101
vt 0.307506 0.515952
vt 0.307037 0.515754
vt 0.307189 0.515821
vt 0.306783 0.516386
vt 0.306754 0.516502
vt 0.306512 0.516584
vt 0.306364 0.516690
vt 0.430610 0.393781
vt 0.430624 0.393744
vt 0.430629 0.393781
vt 0.430617 0.393775
vt 0.430658 0.393779
vt 0.430702 0.393710
vt 0.430743 0.393802
vt 0.430692 0.393802
vt 0.430651 0.393792
vt 0.431350 0.394483
vt 0.431346 0.394021
vt 0.431137 0.393883
vt 0.430865 0.393803
vt 0.880731 0.942823
vt 0.881087 0.942571
vt 0.883386 0.936403
vt 0.883570 0.936105
vt 0.885262 0.931817
vt 0.885346 0.930959
vt 0.886293 0.928344
vt 0.890006 0.919341
vt 0.890642 0.919026
vt 0.895590 0.909561
vt 0.913061 0.883467
vt 0.915722 0.881002
vt 0.932468 0.854460
vt 0.932577 0.854190
vt 0.936062 0.848293
vt 0.938700 0.844887
vt 0.938717 0.843440
vt 0.878971 0.946354
vt 0.879180 0.946199
vt 0.940882 0.840693
vt 0.941110 0.839819
vt 0.878439 0.961249
vt 0.877811 0.960513
vt 0.943204 0.836561
vt 0.944395 0.834706
vt 0.879014 0.961739
vt 0.881466 0.961929
vt 0.944353 0.833434
vt 0.954150 0.827114
vt 0.951263 0.830909
vt 0.881664 0.961230
vt 0.882392 0.960582
vt 0.949663 0.832579
vt 0.948051 0.834290
vt 0.887433 0.958988
vt 0.902239 0.948480
vt 0.946529 0.888935
vt 0.936428 0.910868
vt 0.948758 0.877371
vt 0.946412 0.887068
vt 0.951068 0.870745
vt 0.814104 0.778777
vt 0.815163 0.770849
vt 0.860559 0.742487
vt 0.814253 0.804374
vt 0.429519 0.298784
vt 0.430289 0.301679
vt 0.430160 0.303111
vt 0.427716 0.327693
vt 0.428411 0.330310
vt 0.427960 0.335307
vt 0.431387 0.200456
vt 0.432230 0.273438
vt 0.431952 0.140801
vt 0.432016 0.196625
vt 0.431653 0.137269
vt 0.429272 0.104632
vt 0.429284 0.105225
vt 0.412271 0.354124
vt 0.356403 0.407660
vt 0.344405 0.421866
vt 0.371786 0.393260
vt 0.368723 0.396318
vt 0.945814 0.831274
vt 0.951672 0.821381
vt 0.951030 0.822565
vt 0.731723 0.058800
vt 0.718570 0.072718
vt 0.714719 0.073201
vt 0.712825 0.069658
vt 0.696374 0.083889
vt 0.786742 0.011558
vt 0.739927 0.057371
vt 0.739773 0.056987
vt 0.741829 0.056880
vt 0.742436 0.056257
vt 0.742654 0.055525
vt 0.745960 0.054631
vt 0.745873 0.053534
vt 0.749144 0.047038
vt 0.743571 0.042958
vt 0.750323 0.050754
vt 0.750570 0.050083
vt 0.746675 0.052794
vt 0.747504 0.052841
vt 0.959881 0.818286
vt 0.612434 0.189113
vt 0.617491 0.180287
vt 0.613492 0.189344
vt 0.611030 0.192800
vt 0.647275 0.131018
vt 0.635559 0.147461
vt 0.592101 0.231475
vt 0.583589 0.236169
vt 0.568508 0.266866
vt 0.561678 0.279223
vt 0.557529 0.288683
vt 0.561380 0.314458
vt 0.678153 0.098836
vt 0.660570 0.114441
vt 0.680050 0.096199
vt 0.545687 0.365482
vt 0.534269 0.358894
vt 0.538767 0.363017
vt 0.545093 0.363720
vt 0.549102 0.364462
vt 0.536459 0.362791
vt 0.535721 0.362777
vt 0.546370 0.366908
vt 0.535729 0.363725
vt 0.544781 0.366532
vt 0.544749 0.366861
vt 0.541977 0.368904
vt 0.560835 0.358246
vt 0.566561 0.356550
vt 0.570495 0.356336
vt 0.566883 0.353996
vt 0.335601 0.511178
vt 0.374051 0.470777
vt 0.377345 0.472908
vt 0.377966 0.467417
vt 0.319858 0.510674
vt 0.328364 0.530708
vt 0.437328 0.348155
vt 0.421496 0.347150
vt 0.534478 0.357012
vt 0.529801 0.356753
vt 0.527303 0.356057
vt 0.527358 0.356260
vt 0.518236 0.352244
vt 0.514458 0.352888
vt 0.501675 0.351621
vt 0.488594 0.349982
vt 0.424898 0.354897
vt 0.425619 0.356423
vt 0.426009 0.357006
vt 0.426388 0.360552
vt 0.428018 0.362470
vt 0.427833 0.367419
vt 0.424524 0.348677
vt 0.296519 0.494163
vt 0.288067 0.501615
vt 0.428525 0.373381
vt 0.429427 0.371962
vt 0.431721 0.376469
vt 0.434573 0.378715
vt 0.425353 0.391312
vt 0.422404 0.391759
vt 0.307164 0.484923
vt 0.316355 0.474370
vt 0.417061 0.393125
vt 0.329327 0.462128
vt 0.378804 0.430595
vt 0.359570 0.439922
vt 0.342234 0.450910
vt 0.412641 0.395021
vt 0.405957 0.399526
vt 0.386163 0.417109
vt 0.305958 0.517396
vt 0.307237 0.517517
vt 0.307150 0.517388
vt 0.307239 0.517358
vt 0.307283 0.517167
vt 0.307340 0.517027
vt 0.307344 0.516807
vt 0.307436 0.516764
vt 0.307815 0.516257
vt 0.307904 0.516371
vt 0.307637 0.516020
vt 0.289687 0.515174
vt 0.294881 0.518287
vt 0.298019 0.519365
vt 0.300683 0.518247
vt 0.301255 0.518444
vt 0.301573 0.518187
vt 0.303496 0.517637
vt 0.430368 0.393537
vt 0.430354 0.393498
vt 0.430349 0.393446
vt 0.430345 0.393387
vt 0.430353 0.393360
vt 0.430336 0.393320
vt 0.430314 0.393253
vt 0.430402 0.393562
vt 0.430445 0.393473
vt 0.430380 0.393524
vt 0.430389 0.393564
vt 0.430478 0.393258
vt 0.429615 0.392896
vt 0.430073 0.392862
vt 0.851133 0.922930
vt 0.849137 0.929144
vt 0.848465 0.930024
vt 0.846799 0.940534
vt 0.846115 0.949768
vt 0.846378 0.950621
vt 0.844221 0.978412
vt 0.836976 0.986622
vt 0.832237 0.997434
vt 0.819823 0.994706
vt 0.818285 0.990662
vt 0.816249 0.984732
vt 0.809455 0.964997
vt 0.807088 0.917809
vt 0.810699 0.908513
vt 0.839343 0.842957
vt 0.867162 0.820066
vt 0.853040 0.918653
vt 0.852027 0.921837
vt 0.865905 0.894744
vt 0.859646 0.906008
vt 0.874619 0.819315
vt 0.892149 0.814627
vt 0.904179 0.809125
vt 0.962037 0.821121
vt 0.961928 0.821240
vt 0.961793 0.821290
vt 0.961704 0.821251
vt 0.961703 0.821247
vt 0.953154 0.831433
vt 0.952144 0.831950
vt 0.950388 0.833676
vt 0.944230 0.832501
vt 0.943304 0.833162
vt 0.940118 0.835517
vt 0.938341 0.835856
vt 0.933597 0.838026
vt 0.887590 0.861686
vt 0.924012 0.839791
vt 0.852154 0.730501
vt 0.845098 0.668884
vt 0.856418 0.617070
vt 0.382483 0.461333
vt 0.396057 0.448992
vt 0.403028 0.442216
vt 0.578654 0.361081
vt 0.626787 0.358649
vt 0.490796 0.375079
vt 0.511883 0.369787
vt 0.575547 0.362338
vt 0.408132 0.437096
vt 0.411339 0.434177
vt 0.487474 0.375043
vt 0.488399 0.374886
vt 0.462288 0.383346
vt 0.465734 0.382193
vt 0.415147 0.430379
vt 0.954611 0.828457
vt 0.960043 0.815804
vt 0.960810 0.817261
vt 0.842917 0.597287
vt 0.840078 0.984559
vt 0.879030 0.000142
vt 0.806804 0.641186
s 0
usemtl マテリアル.002
f 30/1/1 282/2/1 204/3/1
f 44/4/1 275/5/1 176/6/1
f 277/7/1 276/8/1 2/9/1
f 190/10/1 193/11/1 3/12/1
f 108/13/1 4/14/1 2/9/1
f 53/15/2 4/14/2 127/16/2
f 77/17/1 81/18/1 7/19/1
f 251/20/1 113/21/1 215/22/1
f 9/23/1 12/24/1 166/25/1
f 68/26/1 261/27/1 66/28/1
f 21/29/1 119/30/1 571/31/1
f 185/32/1 122/33/1 276/8/1
f 267/34/1 273/35/1 270/36/1
f 212/37/1 269/38/1 268/39/1
f 144/40/3 145/41/3 72/42/3
f 309/43/4 312/44/4 315/45/4
f 326/46/4 319/47/4 322/48/4
f 330/49/4 331/50/4 329/51/4
f 348/52/4 349/53/4 371/54/4
f 383/55/4 331/50/4 371/54/4
f 399/56/4 371/54/4 397/57/4
f 408/58/4 417/59/4 371/54/4
f 429/60/4 452/61/4 454/62/4
f 463/63/4 464/64/4 409/65/4
f 520/66/4 522/67/4 526/68/4
f 532/69/4 534/70/4 574/71/4
f 540/72/4 543/73/4 551/74/4
f 287/75/4 286/76/4 558/77/4
f 290/78/4 289/79/4 559/80/4
f 511/81/5 561/82/5 563/83/5
f 154/84/6 525/85/6 524/86/6
f 80/87/7 423/88/7 79/89/7
f 48/90/8 525/85/8 153/91/8
f 88/92/9 424/93/9 80/87/9
f 45/94/10 526/95/10 48/90/10
f 87/96/11 425/97/11 88/92/11
f 171/98/6 527/99/6 45/94/6
f 87/96/12 427/100/12 426/101/12
f 170/102/8 528/103/8 171/98/8
f 91/104/13 427/100/13 86/105/13
f 256/106/10 529/107/10 170/102/10
f 113/21/14 430/108/14 429/60/14
f 111/109/15 430/108/15 110/110/15
f 197/111/16 389/112/16 61/113/16
f 196/114/17 431/115/17 197/111/17
f 200/116/18 333/117/18 239/118/18
f 572/119/19 530/120/19 573/121/19
f 230/122/20 432/123/20 196/114/20
f 201/124/21 332/125/21 200/116/21
f 118/126/22 530/120/22 119/30/22
f 229/127/23 433/128/23 230/122/23
f 60/129/24 334/130/24 201/124/24
f 117/131/25 531/132/25 118/126/25
f 228/133/26 434/134/26 229/127/26
f 138/135/27 335/136/27 60/129/27
f 121/137/28 532/138/28 117/131/28
f 251/20/29 436/139/29 254/140/29
f 59/141/27 336/142/27 138/135/27
f 21/143/30 533/144/30 121/137/30
f 252/145/31 435/146/31 251/20/31
f 137/147/32 337/148/32 59/141/32
f 24/149/25 534/150/25 21/143/25
f 252/145/33 438/151/33 437/152/33
f 137/147/34 339/153/34 338/154/34
f 535/155/35 571/156/35 574/157/35
f 215/22/31 439/158/31 438/151/31
f 58/159/36 339/153/36 136/160/36
f 14/161/37 439/158/37 216/162/37
f 198/163/38 340/164/38 58/159/38
f 16/165/39 440/166/39 14/161/39
f 192/167/40 341/168/40 198/163/40
f 99/169/41 441/170/41 16/165/41
f 192/167/42 343/171/42 342/172/42
f 100/173/43 442/174/43 99/169/43
f 193/175/44 343/171/44 191/176/44
f 101/177/45 443/178/45 100/173/45
f 211/179/46 344/180/46 193/175/46
f 112/181/47 444/182/47 101/177/47
f 211/179/48 346/183/48 345/184/48
f 112/181/49 429/60/49 445/185/49
f 190/186/50 346/183/50 210/187/50
f 89/188/13 428/189/13 91/104/13
f 189/190/51 347/191/51 190/186/51
f 89/188/52 447/192/52 446/193/52
f 188/194/53 348/195/53 189/190/53
f 102/196/54 447/192/54 90/197/54
f 199/198/55 349/199/55 188/194/55
f 15/200/56 448/201/56 102/196/56
f 233/202/57 350/203/57 199/198/57
f 13/204/58 449/205/58 15/200/58
f 232/206/59 351/207/59 233/202/59
f 214/208/60 450/209/60 13/204/60
f 231/210/53 352/211/53 232/206/53
f 213/212/61 451/213/61 214/208/61
f 237/214/55 353/215/55 231/210/55
f 250/216/62 452/217/62 213/212/62
f 57/218/63 354/219/63 237/214/63
f 249/220/61 453/221/61 250/216/61
f 133/222/64 355/223/64 57/218/64
f 253/224/65 454/225/65 249/220/65
f 133/222/57 357/226/57 356/227/57
f 165/228/66 455/229/66 253/224/66
f 134/230/67 358/231/67 357/226/67
f 254/140/31 456/232/31 165/228/31
f 131/233/68 358/231/68 135/234/68
f 166/25/69 458/235/69 168/236/69
f 131/233/70 360/237/70 359/238/70
f 167/239/71 457/240/71 166/25/71
f 130/241/72 361/242/72 360/237/72
f 11/243/73 459/244/73 167/239/73
f 55/245/74 361/242/74 132/246/74
f 11/243/75 461/247/75 460/248/75
f 202/249/72 362/250/72 55/245/72
f 104/251/76 461/247/76 12/252/76
f 203/253/77 363/254/77 202/249/77
f 103/255/78 462/256/78 104/251/78
f 203/253/79 365/257/79 364/258/79
f 105/259/80 463/63/80 103/255/80
f 39/260/81 365/257/81 209/261/81
f 94/262/82 464/263/82 105/259/82
f 40/264/83 366/265/83 39/260/83
f 93/266/84 465/267/84 94/262/84
f 43/268/85 367/269/85 40/264/85
f 95/270/86 466/271/86 93/266/86
f 41/272/87 368/273/87 43/268/87
f 9/274/88 409/275/88 8/276/88
f 42/277/89 369/278/89 41/272/89
f 114/279/90 467/280/90 9/274/90
f 115/281/91 468/282/91 114/279/91
f 3/12/92 371/54/92 4/14/92
f 115/281/93 470/283/93 469/284/93
f 241/285/94 296/286/94 208/287/94
f 17/288/95 470/283/95 20/289/95
f 240/290/96 372/291/96 241/285/96
f 18/292/97 471/293/97 17/288/97
f 244/294/94 373/295/94 240/290/94
f 107/296/98 472/297/98 18/292/98
f 243/298/99 374/299/99 244/294/99
f 106/300/100 473/301/100 107/296/100
f 242/302/101 375/303/101 243/298/101
f 186/304/102 536/305/102 537/306/102
f 106/300/103 475/307/103 474/308/103
f 238/309/18 376/310/18 242/302/18
f 187/311/104 536/305/104 185/312/104
f 10/313/105 475/307/105 19/314/105
f 239/118/106 377/315/106 238/309/106
f 187/311/102 539/316/102 538/317/102
f 169/318/73 476/319/73 10/313/73
f 180/320/107 379/321/107 183/322/107
f 125/323/104 539/316/104 124/324/104
f 168/236/108 477/325/108 169/318/108
f 181/326/109 378/327/109 180/320/109
f 271/328/92 285/329/92 272/330/92
f 126/331/104 540/332/104 125/323/104
f 256/106/8 478/333/8 479/334/8
f 270/36/110 284/335/110 271/328/110
f 126/331/111 570/336/111 541/337/111
f 257/338/10 478/333/10 255/339/10
f 2/340/110 371/341/110 331/342/110
f 217/343/112 480/344/112 257/338/112
f 266/345/92 287/75/92 267/34/92
f 218/346/10 481/347/10 217/343/10
f 109/348/15 381/349/15 111/109/15
f 268/350/110 288/351/110 266/345/110
f 62/352/113 482/353/113 218/346/113
f 108/354/114 382/355/114 109/348/114
f 141/356/10 483/357/10 62/352/10
f 120/358/115 383/359/115 108/354/115
f 206/360/116 290/361/116 212/362/116
f 141/356/117 485/363/117 484/364/117
f 183/322/118 384/365/118 120/358/118
f 207/366/119 291/367/119 206/360/119
f 142/368/10 485/363/10 140/369/10
f 129/370/17 385/371/17 127/16/17
f 56/372/120 292/373/120 207/366/120
f 25/374/8 486/375/8 142/368/8
f 139/376/121 386/377/121 129/370/121
f 205/378/122 293/379/122 56/372/122
f 25/374/10 488/380/10 487/381/10
f 54/382/123 387/383/123 139/376/123
f 205/378/124 295/384/124 294/385/124
f 33/386/125 488/380/125 26/387/125
f 61/113/126 388/388/126 54/382/126
f 208/287/94 295/384/94 204/389/94
f 33/390/127 490/391/127 489/392/127
f 567/393/128 542/394/128 569/395/128
f 66/28/129 490/391/129 67/396/129
f 38/397/17 370/398/17 42/277/17
f 1/399/45 297/400/45 3/401/45
f 46/402/130 542/394/130 175/403/130
f 146/404/131 491/405/131 66/28/131
f 37/406/132 390/407/132 38/397/132
f 281/408/133 298/409/133 1/410/133
f 47/411/134 543/412/134 46/402/134
f 65/413/135 492/414/135 146/404/135
f 163/415/26 391/416/26 37/406/26
f 282/2/136 299/417/136 281/408/136
f 158/418/128 544/419/128 47/411/128
f 224/420/137 493/421/137 65/413/137
f 163/415/89 393/422/89 392/423/89
f 283/424/138 300/425/138 282/2/138
f 156/426/130 545/427/130 158/418/130
f 223/428/139 494/429/139 224/420/139
f 235/430/17 393/422/17 162/431/17
f 35/432/140 301/433/140 283/424/140
f 156/426/134 547/434/134 546/435/134
f 225/436/141 495/437/141 223/428/141
f 235/430/89 395/438/89 394/439/89
f 36/440/140 302/441/140 35/432/140
f 157/442/142 548/443/142 547/434/142
f 225/436/137 497/444/137 496/445/137
f 236/446/17 395/438/17 234/447/17
f 34/448/143 303/449/143 36/440/143
f 160/450/144 548/443/144 159/451/144
f 261/452/141 497/444/141 262/453/141
f 194/454/145 396/455/145 236/446/145
f 32/456/143 304/457/143 34/448/143
f 51/458/142 549/459/142 160/450/142
f 260/460/137 498/461/137 261/452/137
f 195/462/17 397/463/17 194/454/17
f 31/464/146 305/465/146 32/456/146
f 52/466/147 550/467/147 51/458/147
f 263/468/148 499/469/148 260/460/148
f 195/462/149 399/470/149 398/471/149
f 30/472/146 306/473/146 31/464/146
f 50/474/150 551/475/150 52/466/150
f 264/476/151 500/477/151 263/468/151
f 128/478/17 399/470/17 53/479/17
f 29/480/110 307/481/110 30/472/110
f 278/482/152 552/483/152 50/474/152
f 226/484/148 501/485/148 264/476/148
f 127/16/153 400/486/153 128/478/153
f 28/487/110 308/488/110 29/480/110
f 276/489/154 553/490/154 278/482/154
f 227/491/151 502/492/151 226/484/151
f 245/493/155 401/494/155 228/133/155
f 27/495/156 309/496/156 28/487/156
f 182/497/157 380/498/157 181/326/157
f 227/491/148 504/499/148 503/500/148
f 161/501/26 402/502/26 245/493/26
f 27/495/156 311/503/156 310/504/156
f 182/497/158 555/505/158 554/506/158
f 148/507/151 504/499/151 68/26/151
f 164/508/155 403/509/155 161/501/155
f 22/510/159 311/503/159 23/511/159
f 122/512/157 555/505/157 184/513/157
f 147/514/148 505/515/148 148/507/148
f 248/516/160 404/517/160 164/508/160
f 116/518/161 312/519/161 22/510/161
f 123/520/158 556/521/158 122/512/158
f 149/522/151 506/523/151 147/514/151
f 246/524/162 405/525/162 248/516/162
f 97/526/163 313/527/163 116/518/163
f 186/304/164 557/528/164 123/520/164
f 150/529/165 507/530/165 149/522/165
f 247/531/166 406/532/166 246/524/166
f 96/533/167 314/534/167 97/526/167
f 267/34/92 558/77/92 273/35/92
f 152/535/168 508/536/168 150/529/168
f 7/537/169 407/538/169 247/531/169
f 98/539/170 315/540/170 96/533/170
f 273/35/110 286/76/110 270/36/110
f 69/541/165 509/542/165 152/535/165
f 7/537/171 409/275/171 408/543/171
f 6/544/172 316/545/172 98/539/172
f 212/362/173 559/546/173 269/547/173
f 71/548/168 510/549/168 69/541/168
f 5/550/174 317/551/174 6/544/174
f 269/547/110 289/552/110 268/350/110
f 92/553/86 410/554/86 95/270/86
f 5/550/175 285/329/175 318/555/175
f 145/41/176 560/556/176 64/557/176
f 222/558/177 512/559/177 70/560/177
f 85/561/178 411/562/178 92/553/178
f 274/563/179 320/564/179 275/5/179
f 143/565/180 561/82/180 145/41/180
f 220/566/180 513/567/180 222/558/180
f 84/568/181 412/569/181 85/561/181
f 143/565/182 563/83/182 562/570/182
f 219/571/182 514/572/182 220/566/182
f 83/573/183 413/574/183 84/568/183
f 72/575/184 322/576/184 321/577/184
f 144/40/185 564/578/185 563/83/185
f 259/579/186 515/580/186 219/571/186
f 82/581/187 414/582/187 83/573/187
f 179/583/188 322/576/188 44/584/188
f 63/585/182 564/578/182 151/586/182
f 258/587/182 516/588/182 259/579/182
f 81/589/189 415/590/189 82/581/189
f 178/591/190 323/592/190 179/583/190
f 70/560/177 565/593/177 63/585/177
f 265/594/177 517/595/177 258/587/177
f 77/596/191 416/597/191 81/589/191
f 177/598/192 324/599/192 178/591/192
f 72/575/168 511/600/168 71/548/168
f 174/601/182 518/602/182 265/594/182
f 76/603/193 417/604/193 77/596/193
f 176/6/194 325/605/194 177/598/194
f 274/563/195 566/606/195 319/607/195
f 172/608/196 519/609/196 174/601/196
f 75/610/197 418/611/197 76/603/197
f 280/612/39 326/46/39 176/6/39
f 64/557/198 566/606/198 221/613/198
f 173/614/199 520/615/199 172/608/199
f 74/616/200 419/617/200 75/610/200
f 280/612/45 328/618/45 327/619/45
f 49/620/196 521/621/196 173/614/196
f 73/622/201 420/623/201 74/616/201
f 275/5/133 328/618/133 279/624/133
f 155/625/199 522/626/199 49/620/199
f 73/622/202 422/627/202 421/628/202
f 277/629/154 329/630/154 276/489/154
f 155/625/196 524/86/196 523/631/196
f 79/89/203 422/627/203 78/632/203
f 277/629/133 331/50/133 330/49/133
f 567/393/204 570/336/204 568/633/204
f 574/157/205 572/119/205 573/121/205
f 56/372/1 207/366/1 206/634/1
f 206/634/1 212/635/1 268/350/1
f 266/345/1 267/34/1 270/36/1
f 206/634/1 268/350/1 266/345/1
f 204/3/206 205/378/206 56/372/206
f 206/634/1 266/345/1 270/36/1
f 206/634/1 270/36/1 271/328/1
f 271/328/1 272/636/1 5/637/1
f 6/638/1 98/639/1 96/640/1
f 206/634/1 271/328/1 5/637/1
f 206/634/1 5/637/1 6/638/1
f 56/372/1 206/634/1 6/638/1
f 96/640/1 97/641/1 116/642/1
f 56/372/1 6/638/1 96/640/1
f 3/12/1 208/643/1 204/3/1
f 204/3/1 56/372/1 96/640/1
f 96/640/1 116/642/1 22/644/1
f 22/644/1 23/645/1 27/646/1
f 28/647/207 29/648/207 30/1/207
f 22/644/1 27/646/1 28/647/1
f 204/3/1 96/640/1 22/644/1
f 1/649/1 3/12/1 204/3/1
f 282/2/1 281/650/1 1/649/1
f 35/651/2 283/424/2 282/2/2
f 34/652/1 36/653/1 35/651/1
f 31/654/1 32/655/1 34/652/1
f 22/644/1 28/647/1 30/1/1
f 30/1/1 31/654/1 34/652/1
f 34/652/1 35/651/1 282/2/1
f 282/2/1 1/649/1 204/3/1
f 204/3/1 22/644/1 30/1/1
f 30/1/1 34/652/1 282/2/1
f 177/598/1 178/591/1 179/656/1
f 44/4/1 72/42/1 274/657/1
f 177/598/1 179/656/1 44/4/1
f 279/624/1 280/612/1 176/6/1
f 176/6/208 177/598/208 44/4/208
f 44/4/1 274/657/1 275/5/1
f 275/5/1 279/624/1 176/6/1
f 232/206/1 233/202/1 199/658/1
f 232/206/1 199/658/1 188/659/1
f 57/218/209 237/214/209 231/660/209
f 231/660/1 232/206/1 188/659/1
f 133/661/210 57/218/210 231/660/210
f 131/662/211 135/234/211 134/230/211
f 134/230/212 133/661/212 231/660/212
f 130/663/1 131/662/1 134/230/1
f 55/245/1 132/246/1 130/663/1
f 203/664/1 202/665/1 55/245/1
f 39/666/1 209/667/1 203/664/1
f 43/668/1 40/669/1 39/666/1
f 4/14/1 42/670/1 41/671/1
f 43/668/1 39/666/1 203/664/1
f 4/14/1 41/671/1 43/668/1
f 241/285/1 208/643/1 3/12/1
f 243/672/213 244/673/213 240/290/213
f 240/290/1 241/285/1 3/12/1
f 43/668/1 203/664/1 55/245/1
f 130/663/1 134/230/1 231/660/1
f 43/668/209 55/245/209 130/663/209
f 243/672/1 240/290/1 3/12/1
f 238/674/214 242/675/214 243/672/214
f 200/676/1 239/677/1 238/674/1
f 60/678/1 201/679/1 200/676/1
f 138/680/1 60/678/1 200/676/1
f 238/674/1 243/672/1 3/12/1
f 59/141/1 138/680/1 200/676/1
f 200/676/1 238/674/1 3/12/1
f 4/14/1 43/668/1 130/663/1
f 130/663/1 231/660/1 188/659/1
f 130/663/215 188/659/215 189/681/215
f 59/141/1 200/676/1 3/12/1
f 136/160/216 137/147/216 59/141/216
f 192/682/217 198/683/217 58/159/217
f 136/160/1 59/141/1 3/12/1
f 58/159/1 136/160/1 3/12/1
f 4/14/1 130/663/1 189/681/1
f 190/10/209 210/684/209 211/685/209
f 4/14/1 189/681/1 190/10/1
f 192/682/218 58/159/218 3/12/218
f 193/11/219 191/686/219 192/682/219
f 190/10/1 211/685/1 193/11/1
f 3/12/1 4/14/1 190/10/1
f 193/11/1 192/682/1 3/12/1
f 180/320/1 183/322/1 120/687/1
f 180/320/1 120/687/1 108/13/1
f 2/9/1 181/688/1 180/320/1
f 109/689/1 111/690/1 4/14/1
f 2/9/1 180/320/1 108/13/1
f 108/13/1 109/689/1 4/14/1
f 53/15/1 195/691/1 194/454/1
f 194/454/1 236/446/1 234/692/1
f 234/692/1 235/693/1 162/694/1
f 162/694/1 163/695/1 37/696/1
f 38/697/1 42/670/1 4/14/1
f 162/694/1 37/696/1 38/697/1
f 194/454/220 234/692/220 162/694/220
f 127/16/221 128/478/221 53/15/221
f 54/382/209 139/376/209 129/370/209
f 4/14/1 61/698/1 54/382/1
f 162/694/1 38/697/1 4/14/1
f 194/454/1 162/694/1 4/14/1
f 4/14/1 54/382/1 129/370/1
f 4/14/1 129/370/1 127/16/1
f 53/15/1 194/454/1 4/14/1
f 229/127/222 230/122/222 196/699/222
f 196/699/1 197/700/1 61/698/1
f 4/14/1 111/690/1 110/110/1
f 110/110/1 113/21/1 91/104/1
f 86/105/223 87/701/223 88/702/223
f 110/110/1 91/104/1 86/105/1
f 196/699/1 61/698/1 4/14/1
f 228/703/1 229/127/1 196/699/1
f 161/704/1 245/705/1 228/703/1
f 246/706/1 248/707/1 164/708/1
f 161/704/1 228/703/1 196/699/1
f 161/704/1 196/699/1 4/14/1
f 4/14/1 110/110/1 86/105/1
f 4/14/1 86/105/1 88/702/1
f 164/708/1 161/704/1 4/14/1
f 7/19/1 247/709/1 246/706/1
f 246/706/1 164/708/1 4/14/1
f 4/14/1 88/702/1 80/710/1
f 4/14/1 80/710/1 79/711/1
f 7/19/1 246/706/1 4/14/1
f 95/270/1 8/712/1 7/19/1
f 84/713/1 85/714/1 92/553/1
f 92/553/1 95/270/1 7/19/1
f 4/14/1 79/711/1 78/715/1
f 73/716/2 74/717/2 75/718/2
f 4/14/1 78/715/1 73/716/1
f 84/713/1 92/553/1 7/19/1
f 83/719/1 84/713/1 7/19/1
f 4/14/1 73/716/1 75/718/1
f 75/718/2 76/720/2 77/17/2
f 4/14/1 75/718/1 77/17/1
f 82/721/1 83/719/1 7/19/1
f 81/18/1 82/721/1 7/19/1
f 7/19/1 4/14/1 77/17/1
f 251/20/1 254/140/1 165/228/1
f 165/228/1 253/224/1 249/220/1
f 249/220/1 250/216/1 213/212/1
f 213/212/1 214/722/1 13/723/1
f 15/724/1 102/725/1 90/726/1
f 213/212/1 13/723/1 15/724/1
f 249/220/1 213/212/1 15/724/1
f 90/726/223 89/727/223 91/104/223
f 90/726/1 91/104/1 113/21/1
f 113/21/2 112/728/2 101/729/2
f 100/730/1 99/731/1 16/732/1
f 113/21/1 101/729/1 100/730/1
f 15/724/1 90/726/1 113/21/1
f 249/220/1 15/724/1 113/21/1
f 113/21/1 100/730/1 16/732/1
f 14/733/1 216/734/1 215/22/1
f 113/21/1 16/732/1 14/733/1
f 165/228/1 249/220/1 113/21/1
f 215/22/2 252/145/2 251/20/2
f 251/20/1 165/228/1 113/21/1
f 113/21/1 14/733/1 215/22/1
f 106/735/1 107/736/1 18/292/1
f 106/735/1 18/292/1 17/288/1
f 19/737/1 106/735/1 17/288/1
f 20/738/1 115/739/1 114/740/1
f 19/737/1 17/288/1 20/738/1
f 168/741/1 169/742/1 10/743/1
f 10/743/1 19/737/1 20/738/1
f 20/738/1 114/740/1 9/23/1
f 9/23/1 8/712/1 95/270/1
f 95/270/223 93/744/223 94/745/223
f 9/23/1 95/270/1 94/745/1
f 10/743/1 20/738/1 9/23/1
f 168/741/1 10/743/1 9/23/1
f 9/23/1 94/745/1 105/746/1
f 103/255/1 104/251/1 12/24/1
f 9/23/1 105/746/1 103/255/1
f 166/25/1 168/741/1 9/23/1
f 11/747/1 167/239/1 166/25/1
f 9/23/1 103/255/1 12/24/1
f 12/24/1 11/747/1 166/25/1
f 140/369/224 141/356/224 62/748/224
f 62/748/1 218/749/1 217/343/1
f 217/343/1 257/338/1 255/750/1
f 255/750/1 256/751/1 170/752/1
f 170/752/1 171/753/1 45/754/1
f 48/755/1 153/756/1 154/757/1
f 170/752/1 45/754/1 48/755/1
f 217/343/225 255/750/225 170/752/225
f 217/343/226 170/752/226 48/755/226
f 48/755/1 154/757/1 155/758/1
f 49/759/1 173/760/1 172/761/1
f 48/755/1 155/758/1 49/759/1
f 217/343/1 48/755/1 49/759/1
f 217/343/1 49/759/1 172/761/1
f 62/748/1 217/343/1 172/761/1
f 174/762/1 265/763/1 258/764/1
f 62/748/1 172/761/1 174/762/1
f 25/765/1 142/766/1 140/369/1
f 140/369/227 62/748/227 174/762/227
f 258/764/1 259/767/1 219/768/1
f 140/369/1 174/762/1 258/764/1
f 33/769/1 26/770/1 25/765/1
f 25/765/1 140/369/1 258/764/1
f 219/768/228 220/771/228 222/772/228
f 25/765/1 258/764/1 219/768/1
f 67/773/1 33/769/1 25/765/1
f 65/774/229 146/404/229 66/28/229
f 66/28/1 67/773/1 25/765/1
f 25/765/1 219/768/1 222/772/1
f 222/772/1 70/775/1 71/776/1
f 69/541/1 152/535/1 150/777/1
f 222/772/1 71/776/1 69/541/1
f 66/28/1 25/765/1 222/772/1
f 224/778/1 65/774/1 66/28/1
f 223/779/1 224/778/1 66/28/1
f 66/28/1 222/772/1 69/541/1
f 150/777/1 149/780/1 147/781/1
f 66/28/1 69/541/1 150/777/1
f 225/782/1 223/779/1 66/28/1
f 261/27/1 262/783/1 225/782/1
f 263/784/1 260/785/1 261/27/1
f 226/786/1 264/787/1 263/784/1
f 68/26/1 227/788/1 226/786/1
f 147/781/1 148/507/1 68/26/1
f 66/28/1 150/777/1 147/781/1
f 261/27/1 225/782/1 66/28/1
f 226/786/1 263/784/1 261/27/1
f 66/28/1 147/781/1 68/26/1
f 68/26/1 226/786/1 261/27/1
f 21/29/1 121/789/1 117/790/1
f 117/790/1 118/126/1 119/30/1
f 119/30/1 572/791/1 571/31/1
f 571/31/1 24/792/1 21/29/1
f 21/29/1 117/790/1 119/30/1
f 156/793/1 158/794/1 47/795/1
f 46/796/1 175/797/1 567/798/1
f 156/793/1 47/795/1 46/796/1
f 159/799/1 157/800/1 156/793/1
f 51/801/1 160/802/1 159/799/1
f 52/803/1 51/801/1 159/799/1
f 159/799/1 156/793/1 46/796/1
f 46/796/1 567/798/1 568/633/1
f 46/796/1 568/633/1 126/331/1
f 52/803/1 159/799/1 46/796/1
f 276/8/1 278/804/1 50/805/1
f 50/805/1 52/803/1 46/796/1
f 46/796/1 126/331/1 125/806/1
f 124/324/1 187/311/1 185/32/1
f 46/796/1 125/806/1 124/324/1
f 276/8/1 50/805/1 46/796/1
f 181/688/1 2/9/1 276/8/1
f 122/33/1 184/807/1 182/808/1
f 182/808/1 181/688/1 276/8/1
f 276/8/1 46/796/1 124/324/1
f 185/32/1 186/809/1 123/810/1
f 276/8/1 124/324/1 185/32/1
f 122/33/1 182/808/1 276/8/1
f 185/32/1 123/810/1 122/33/1
f 72/42/1 71/776/1 70/775/1
f 63/811/230 151/586/230 144/40/230
f 72/42/1 70/775/1 63/811/1
f 221/812/1 274/657/1 72/42/1
f 64/813/1 221/812/1 72/42/1
f 72/42/1 63/811/1 144/40/1
f 144/40/231 143/565/231 145/41/231
f 145/41/232 64/813/232 72/42/232
f 318/814/4 285/329/4 284/335/4
f 284/335/4 286/76/4 287/75/4
f 288/351/4 289/552/4 290/815/4
f 284/335/233 287/75/233 288/351/233
f 318/814/4 284/335/4 288/351/4
f 288/351/4 290/815/4 291/816/4
f 291/816/4 292/373/4 293/379/4
f 293/379/234 294/385/234 295/817/234
f 295/817/4 296/818/4 297/819/4
f 297/819/4 298/409/4 299/417/4
f 300/425/5 301/433/5 302/820/5
f 297/819/4 299/417/4 300/425/4
f 293/379/4 295/817/4 297/819/4
f 318/814/4 288/351/4 291/816/4
f 291/816/4 293/379/4 297/819/4
f 297/819/4 300/425/4 302/820/4
f 302/820/4 303/821/4 304/822/4
f 304/822/4 305/823/4 306/824/4
f 307/825/92 308/826/92 309/43/92
f 304/822/4 306/824/4 307/825/4
f 297/819/4 302/820/4 304/822/4
f 318/814/4 291/816/4 297/819/4
f 315/45/4 316/827/4 317/828/4
f 317/828/4 318/814/4 297/819/4
f 297/819/4 304/822/4 307/825/4
f 297/819/4 307/825/4 309/43/4
f 315/45/4 317/828/4 297/819/4
f 313/829/4 314/830/4 315/45/4
f 310/831/4 311/832/4 312/44/4
f 312/44/4 313/829/4 315/45/4
f 315/45/4 297/819/4 309/43/4
f 309/43/4 310/831/4 312/44/4
f 326/46/4 327/619/4 328/618/4
f 328/618/4 320/564/4 319/47/4
f 319/47/4 321/833/4 322/48/4
f 322/48/4 323/592/4 324/599/4
f 322/48/235 324/599/235 325/605/235
f 326/46/4 328/618/4 319/47/4
f 322/48/236 325/605/236 326/46/236
f 377/315/4 333/117/4 332/834/4
f 332/834/4 334/835/4 335/836/4
f 332/834/4 335/836/4 336/837/4
f 375/838/237 376/839/237 377/315/237
f 332/834/4 336/837/4 337/148/4
f 337/148/238 338/154/238 339/153/238
f 340/164/235 341/168/235 342/840/235
f 332/834/239 337/148/239 339/153/239
f 332/834/4 339/153/4 340/164/4
f 342/840/240 343/841/240 344/842/240
f 345/843/4 346/844/4 347/845/4
f 344/842/4 345/843/4 347/845/4
f 373/846/241 374/847/241 375/838/241
f 296/818/4 372/848/4 373/846/4
f 369/849/4 370/850/4 371/54/4
f 366/851/4 367/852/4 368/853/4
f 368/853/4 369/849/4 371/54/4
f 297/819/4 296/818/4 373/846/4
f 297/819/4 373/846/4 375/838/4
f 364/854/242 365/855/242 366/851/242
f 362/856/4 363/857/4 364/854/4
f 360/858/233 361/859/233 362/856/233
f 358/231/4 359/860/4 360/858/4
f 357/226/243 358/231/243 360/858/243
f 360/858/244 362/856/244 364/854/244
f 364/854/242 366/851/242 368/853/242
f 297/819/4 375/838/4 377/315/4
f 297/819/4 377/315/4 332/834/4
f 360/858/4 364/854/4 368/853/4
f 356/227/4 357/226/4 360/858/4
f 353/861/4 354/219/4 355/223/4
f 355/223/245 356/227/245 360/858/245
f 360/858/4 368/853/4 371/54/4
f 297/819/4 332/834/4 340/164/4
f 297/819/246 340/164/246 342/840/246
f 355/223/4 360/858/4 371/54/4
f 353/861/4 355/223/4 371/54/4
f 371/54/4 297/819/4 342/840/4
f 371/54/4 342/840/4 344/842/4
f 352/862/4 353/861/4 371/54/4
f 350/863/4 351/864/4 352/862/4
f 349/53/4 350/863/4 352/862/4
f 371/54/4 344/842/4 347/845/4
f 371/54/4 347/845/4 348/52/4
f 349/53/4 352/862/4 371/54/4
f 383/55/4 384/865/4 379/866/4
f 378/867/4 380/868/4 331/50/4
f 383/55/4 379/866/4 378/867/4
f 371/54/4 381/869/4 382/870/4
f 383/55/4 378/867/4 331/50/4
f 371/54/4 382/870/4 383/55/4
f 399/56/247 400/486/247 385/371/247
f 386/377/5 387/383/5 388/871/5
f 388/871/4 389/872/4 371/54/4
f 371/54/4 370/850/4 390/873/4
f 390/873/4 391/874/4 392/875/4
f 393/876/4 394/877/4 395/878/4
f 390/873/4 392/875/4 393/876/4
f 386/377/4 388/871/4 371/54/4
f 385/371/4 386/377/4 371/54/4
f 371/54/4 390/873/4 393/876/4
f 395/878/4 396/879/4 397/57/4
f 371/54/4 393/876/4 395/878/4
f 399/56/4 385/371/4 371/54/4
f 397/57/4 398/880/4 399/56/4
f 371/54/4 395/878/4 397/57/4
f 432/881/248 433/882/248 434/883/248
f 401/884/4 402/885/4 403/886/4
f 432/881/4 434/883/4 401/884/4
f 389/872/4 431/887/4 432/881/4
f 430/108/4 381/869/4 371/54/4
f 428/189/4 429/60/4 430/108/4
f 425/888/239 426/889/239 427/100/239
f 427/100/4 428/189/4 430/108/4
f 371/54/4 389/872/4 432/881/4
f 432/881/4 401/884/4 403/886/4
f 404/890/4 405/891/4 406/892/4
f 371/54/4 432/881/4 403/886/4
f 371/54/4 403/886/4 404/890/4
f 427/100/4 430/108/4 371/54/4
f 425/888/4 427/100/4 371/54/4
f 371/54/4 404/890/4 406/892/4
f 406/892/4 407/893/4 408/58/4
f 408/58/4 409/65/4 410/554/4
f 411/562/4 412/894/4 413/895/4
f 408/58/4 410/554/4 411/562/4
f 371/54/4 406/892/4 408/58/4
f 424/896/4 425/888/4 371/54/4
f 423/897/4 424/896/4 371/54/4
f 408/58/4 411/562/4 413/895/4
f 408/58/4 413/895/4 414/898/4
f 422/899/4 423/897/4 371/54/4
f 419/900/233 420/901/233 421/902/233
f 421/902/4 422/899/4 371/54/4
f 408/58/4 414/898/4 415/903/4
f 408/58/4 415/903/4 416/904/4
f 419/900/4 421/902/4 371/54/4
f 417/59/233 418/905/233 419/900/233
f 408/58/4 416/904/4 417/59/4
f 417/59/4 419/900/4 371/54/4
f 456/232/4 436/906/4 435/907/4
f 435/907/4 437/908/4 438/909/4
f 438/909/4 439/910/4 440/911/4
f 441/912/4 442/913/4 443/914/4
f 435/907/5 438/909/5 440/911/5
f 440/911/4 441/912/4 443/914/4
f 443/914/4 444/915/4 445/916/4
f 429/60/4 428/189/4 446/917/4
f 447/918/4 448/919/4 449/920/4
f 429/60/4 446/917/4 447/918/4
f 443/914/4 445/916/4 429/60/4
f 435/907/4 440/911/4 443/914/4
f 454/62/4 455/229/4 456/232/4
f 456/232/4 435/907/4 443/914/4
f 429/60/4 447/918/4 449/920/4
f 450/921/4 451/922/4 452/61/4
f 429/60/4 449/920/4 450/921/4
f 456/232/4 443/914/4 429/60/4
f 452/61/4 453/923/4 454/62/4
f 454/62/4 456/232/4 429/60/4
f 429/60/4 450/921/4 452/61/4
f 476/924/4 477/925/4 458/926/4
f 457/927/4 459/928/4 460/929/4
f 457/927/4 460/929/4 461/930/4
f 461/930/4 462/256/4 463/63/4
f 473/301/4 474/308/4 475/307/4
f 471/931/4 472/297/4 473/301/4
f 468/932/4 469/933/4 470/934/4
f 470/934/4 471/931/4 473/301/4
f 473/301/4 475/307/4 476/924/4
f 473/301/4 476/924/4 458/926/4
f 467/935/4 468/932/4 470/934/4
f 470/934/4 473/301/4 458/926/4
f 470/934/4 458/926/4 457/927/4
f 409/65/4 467/935/4 470/934/4
f 466/936/4 410/554/4 409/65/4
f 465/937/4 466/936/4 409/65/4
f 470/934/4 457/927/4 461/930/4
f 409/65/4 470/934/4 461/930/4
f 464/64/4 465/937/4 409/65/4
f 409/65/4 461/930/4 463/63/4
f 529/938/4 479/939/4 478/940/4
f 478/940/4 480/344/4 481/347/4
f 481/347/4 482/941/4 483/357/4
f 483/357/249 484/364/249 485/363/249
f 485/363/4 486/942/4 487/943/4
f 487/943/4 488/944/4 489/945/4
f 489/945/4 490/946/4 491/405/4
f 491/405/250 492/414/250 493/947/250
f 493/947/4 494/948/4 495/949/4
f 496/950/4 497/951/4 498/952/4
f 493/947/4 495/949/4 496/950/4
f 489/945/4 491/405/4 493/947/4
f 485/363/4 487/943/4 489/945/4
f 483/357/242 485/363/242 489/945/242
f 489/945/4 493/947/4 496/950/4
f 498/952/4 499/953/4 500/954/4
f 489/945/4 496/950/4 498/952/4
f 481/347/4 483/357/4 489/945/4
f 529/938/251 478/940/251 481/347/251
f 527/955/4 528/956/4 529/938/4
f 524/957/4 525/958/4 526/68/4
f 526/68/4 527/955/4 529/938/4
f 529/938/4 481/347/4 489/945/4
f 489/945/4 498/952/4 500/954/4
f 500/954/4 501/959/4 502/960/4
f 502/960/4 503/961/4 504/499/4
f 504/499/4 505/515/4 506/962/4
f 506/962/4 507/963/4 508/964/4
f 508/964/4 509/965/4 510/966/4
f 510/966/4 511/81/4 512/967/4
f 512/967/4 513/968/4 514/969/4
f 515/970/4 516/971/4 517/972/4
f 512/967/4 514/969/4 515/970/4
f 508/964/4 510/966/4 512/967/4
f 506/962/4 508/964/4 512/967/4
f 506/962/4 512/967/4 515/970/4
f 504/499/4 506/962/4 515/970/4
f 517/972/4 518/973/4 519/974/4
f 504/499/4 515/970/4 517/972/4
f 489/945/4 500/954/4 502/960/4
f 502/960/4 504/499/4 517/972/4
f 502/960/4 517/972/4 519/974/4
f 529/938/4 489/945/4 502/960/4
f 523/975/4 524/957/4 526/68/4
f 526/68/4 529/938/4 502/960/4
f 502/960/4 519/974/4 520/66/4
f 520/66/4 521/976/4 522/67/4
f 522/67/4 523/975/4 526/68/4
f 526/68/4 502/960/4 520/66/4
f 574/71/4 573/977/4 530/120/4
f 530/120/4 531/132/4 532/69/4
f 532/69/4 533/978/4 534/70/4
f 534/70/4 535/979/4 574/71/4
f 574/71/4 530/120/4 532/69/4
f 552/483/4 553/490/4 329/51/4
f 329/51/4 331/50/4 380/868/4
f 554/980/4 555/981/4 556/982/4
f 329/51/4 380/868/4 554/980/4
f 551/74/252 552/483/252 329/51/252
f 549/983/4 550/984/4 551/74/4
f 546/985/4 547/986/4 548/987/4
f 548/987/4 549/983/4 551/74/4
f 551/74/4 329/51/4 554/980/4
f 556/982/253 557/988/253 537/989/253
f 551/74/4 554/980/4 556/982/4
f 546/985/4 548/987/4 551/74/4
f 544/990/4 545/991/4 546/985/4
f 569/992/4 542/993/4 543/73/4
f 543/73/4 544/990/4 546/985/4
f 551/74/4 556/982/4 537/989/4
f 536/305/4 538/317/4 539/994/4
f 551/74/4 537/989/4 536/305/4
f 543/73/4 546/985/4 551/74/4
f 570/336/4 569/992/4 543/73/4
f 541/337/4 570/336/4 543/73/4
f 551/74/4 536/305/4 539/994/4
f 540/72/4 541/337/4 543/73/4
f 551/74/4 539/994/4 540/72/4
f 565/995/4 512/967/4 511/81/4
f 511/81/4 321/833/4 319/47/4
f 319/47/4 566/996/4 560/997/4
f 561/82/254 562/570/254 563/83/254
f 319/47/255 560/997/255 561/82/255
f 564/578/4 565/995/4 511/81/4
f 563/83/256 564/578/256 511/81/256
f 511/81/4 319/47/4 561/82/4
f 154/84/6 153/91/6 525/85/6
f 80/87/7 424/93/7 423/88/7
f 48/90/113 526/95/113 525/85/113
f 88/92/9 425/97/9 424/93/9
f 45/94/10 527/99/10 526/95/10
f 87/96/11 426/101/11 425/97/11
f 171/98/6 528/103/6 527/99/6
f 87/96/12 86/105/12 427/100/12
f 170/102/8 529/107/8 528/103/8
f 91/104/13 428/189/13 427/100/13
f 256/106/10 479/334/10 529/107/10
f 113/21/48 110/110/48 430/108/48
f 111/109/15 381/349/15 430/108/15
f 197/111/16 431/115/16 389/112/16
f 196/114/17 432/123/17 431/115/17
f 200/116/18 332/125/18 333/117/18
f 572/119/19 119/30/19 530/120/19
f 230/122/20 433/128/20 432/123/20
f 201/124/21 334/130/21 332/125/21
f 118/126/22 531/132/22 530/120/22
f 229/127/257 434/134/257 433/128/257
f 60/129/24 335/136/24 334/130/24
f 117/131/25 532/138/25 531/132/25
f 228/133/258 401/494/258 434/134/258
f 138/135/27 336/142/27 335/136/27
f 121/137/28 533/144/28 532/138/28
f 251/20/65 435/146/65 436/139/65
f 59/141/27 337/148/27 336/142/27
f 21/143/30 534/150/30 533/144/30
f 252/145/259 437/152/259 435/146/259
f 137/147/260 338/154/260 337/148/260
f 24/149/25 535/155/25 534/150/25
f 252/145/261 215/22/261 438/151/261
f 137/147/34 136/160/34 339/153/34
f 535/155/35 24/149/35 571/156/35
f 215/22/31 216/162/31 439/158/31
f 58/159/36 340/164/36 339/153/36
f 14/161/60 440/166/60 439/158/60
f 198/163/262 341/168/262 340/164/262
f 16/165/39 441/170/39 440/166/39
f 192/167/40 342/172/40 341/168/40
f 99/169/41 442/174/41 441/170/41
f 192/167/263 191/176/263 343/171/263
f 100/173/43 443/178/43 442/174/43
f 193/175/44 344/180/44 343/171/44
f 101/177/45 444/182/45 443/178/45
f 211/179/264 345/184/264 344/180/264
f 112/181/265 445/185/265 444/182/265
f 211/179/49 210/187/49 346/183/49
f 112/181/49 113/21/49 429/60/49
f 190/186/50 347/191/50 346/183/50
f 89/188/13 446/193/13 428/189/13
f 189/190/51 348/195/51 347/191/51
f 89/188/52 90/197/52 447/192/52
f 188/194/266 349/199/266 348/195/266
f 102/196/54 448/201/54 447/192/54
f 199/198/55 350/203/55 349/199/55
f 15/200/56 449/205/56 448/201/56
f 233/202/57 351/207/57 350/203/57
f 13/204/58 450/209/58 449/205/58
f 232/206/59 352/211/59 351/207/59
f 214/208/37 451/213/37 450/209/37
f 231/210/53 353/215/53 352/211/53
f 213/212/61 452/217/61 451/213/61
f 237/214/55 354/219/55 353/215/55
f 250/216/65 453/221/65 452/217/65
f 57/218/267 355/223/267 354/219/267
f 249/220/268 454/225/268 453/221/268
f 133/222/64 356/227/64 355/223/64
f 253/224/65 455/229/65 454/225/65
f 133/222/57 134/230/57 357/226/57
f 165/228/269 456/232/269 455/229/269
f 134/230/270 135/234/270 358/231/270
f 254/140/31 436/139/31 456/232/31
f 131/233/68 359/238/68 358/231/68
f 166/25/69 457/240/69 458/235/69
f 131/233/271 130/241/271 360/237/271
f 167/239/71 459/244/71 457/240/71
f 130/241/272 132/246/272 361/242/272
f 11/243/73 460/248/73 459/244/73
f 55/245/273 362/250/273 361/242/273
f 11/243/75 12/252/75 461/247/75
f 202/249/72 363/254/72 362/250/72
f 104/251/76 462/256/76 461/247/76
f 203/253/77 364/258/77 363/254/77
f 103/255/274 463/63/274 462/256/274
f 203/253/79 209/261/79 365/257/79
f 105/259/80 464/263/80 463/63/80
f 39/260/275 366/265/275 365/257/275
f 94/262/82 465/267/82 464/263/82
f 40/264/83 367/269/83 366/265/83
f 93/266/84 466/271/84 465/267/84
f 43/268/85 368/273/85 367/269/85
f 95/270/86 410/554/86 466/271/86
f 41/272/276 369/278/276 368/273/276
f 9/274/88 467/280/88 409/275/88
f 42/277/89 370/398/89 369/278/89
f 114/279/90 468/282/90 467/280/90
f 115/281/91 469/284/91 468/282/91
f 3/12/92 297/819/92 371/54/92
f 115/281/93 20/289/93 470/283/93
f 241/285/94 372/291/94 296/286/94
f 17/288/95 471/293/95 470/283/95
f 240/290/96 373/295/96 372/291/96
f 18/292/97 472/297/97 471/293/97
f 244/294/94 374/299/94 373/295/94
f 107/296/277 473/301/277 472/297/277
f 243/298/99 375/303/99 374/299/99
f 106/300/100 474/308/100 473/301/100
f 242/302/101 376/310/101 375/303/101
f 186/304/102 185/312/102 536/305/102
f 106/300/103 19/314/103 475/307/103
f 238/309/18 377/315/18 376/310/18
f 187/311/278 538/317/278 536/305/278
f 10/313/105 476/319/105 475/307/105
f 239/118/21 333/117/21 377/315/21
f 187/311/279 124/324/279 539/316/279
f 169/318/73 477/325/73 476/319/73
f 180/320/280 378/327/280 379/321/280
f 125/323/104 540/332/104 539/316/104
f 168/236/281 458/235/281 477/325/281
f 181/326/109 380/498/109 378/327/109
f 271/328/92 284/335/92 285/329/92
f 126/331/104 541/337/104 540/332/104
f 256/106/113 255/339/113 478/333/113
f 270/36/110 286/76/110 284/335/110
f 126/331/282 568/633/282 570/336/282
f 257/338/10 480/344/10 478/333/10
f 2/340/110 4/998/110 371/341/110
f 217/343/283 481/347/283 480/344/283
f 266/345/92 288/351/92 287/75/92
f 218/346/10 482/353/10 481/347/10
f 109/348/15 382/355/15 381/349/15
f 268/350/110 289/552/110 288/351/110
f 62/352/113 483/357/113 482/353/113
f 108/354/114 383/359/114 382/355/114
f 141/356/10 484/364/10 483/357/10
f 120/358/115 384/365/115 383/359/115
f 206/360/116 291/367/116 290/361/116
f 141/356/284 140/369/284 485/363/284
f 183/322/118 379/321/118 384/365/118
f 207/366/119 292/373/119 291/367/119
f 142/368/10 486/375/10 485/363/10
f 129/370/285 386/377/285 385/371/285
f 56/372/286 293/379/286 292/373/286
f 25/374/287 487/381/287 486/375/287
f 139/376/288 387/383/288 386/377/288
f 205/378/289 294/385/289 293/379/289
f 25/374/10 26/387/10 488/380/10
f 54/382/17 388/388/17 387/383/17
f 205/378/290 204/389/290 295/384/290
f 33/386/125 489/999/125 488/380/125
f 61/113/291 389/112/291 388/388/291
f 208/287/94 296/286/94 295/384/94
f 33/390/127 67/396/127 490/391/127
f 567/393/128 175/403/128 542/394/128
f 66/28/129 491/405/129 490/391/129
f 38/397/17 390/407/17 370/398/17
f 1/399/45 298/1000/45 297/400/45
f 46/402/130 543/412/130 542/394/130
f 146/404/292 492/414/292 491/405/292
f 37/406/132 391/416/132 390/407/132
f 281/408/133 299/417/133 298/409/133
f 47/411/134 544/419/134 543/412/134
f 65/413/135 493/421/135 492/414/135
f 163/415/26 392/423/26 391/416/26
f 282/2/136 300/425/136 299/417/136
f 158/418/128 545/427/128 544/419/128
f 224/420/137 494/429/137 493/421/137
f 163/415/89 162/431/89 393/422/89
f 283/424/293 301/433/293 300/425/293
f 156/426/130 546/435/130 545/427/130
f 223/428/139 495/437/139 494/429/139
f 235/430/17 394/439/17 393/422/17
f 35/432/140 302/441/140 301/433/140
f 156/426/134 157/442/134 547/434/134
f 225/436/141 496/445/141 495/437/141
f 235/430/294 234/447/294 395/438/294
f 36/440/140 303/449/140 302/441/140
f 157/442/142 159/451/142 548/443/142
f 225/436/137 262/453/137 497/444/137
f 236/446/285 396/455/285 395/438/285
f 34/448/143 304/457/143 303/449/143
f 160/450/144 549/459/144 548/443/144
f 261/452/141 498/461/141 497/444/141
f 194/454/89 397/463/89 396/455/89
f 32/456/143 305/465/143 304/457/143
f 51/458/142 550/467/142 549/459/142
f 260/460/137 499/469/137 498/461/137
f 195/462/17 398/471/17 397/463/17
f 31/464/146 306/473/146 305/465/146
f 52/466/147 551/475/147 550/467/147
f 263/468/148 500/477/148 499/469/148
f 195/462/294 53/479/294 399/470/294
f 30/472/146 307/481/146 306/473/146
f 50/474/150 552/483/150 551/475/150
f 264/476/151 501/485/151 500/477/151
f 128/478/285 400/486/285 399/470/285
f 29/480/110 308/488/110 307/481/110
f 278/482/152 553/490/152 552/483/152
f 226/484/148 502/492/148 501/485/148
f 127/16/295 385/371/295 400/486/295
f 28/487/110 309/496/110 308/488/110
f 276/489/154 329/630/154 553/490/154
f 227/491/151 503/500/151 502/492/151
f 245/493/155 402/502/155 401/494/155
f 27/495/156 310/504/156 309/496/156
f 182/497/157 554/506/157 380/498/157
f 227/491/148 68/26/148 504/499/148
f 161/501/26 403/509/26 402/502/26
f 27/495/156 23/511/156 311/503/156
f 182/497/158 184/513/158 555/505/158
f 148/507/151 505/515/151 504/499/151
f 164/508/155 404/517/155 403/509/155
f 22/510/159 312/519/159 311/503/159
f 122/512/157 556/521/157 555/505/157
f 147/514/148 506/523/148 505/515/148
f 248/516/160 405/525/160 404/517/160
f 116/518/161 313/527/161 312/519/161
f 123/520/158 557/528/158 556/521/158
f 149/522/151 507/530/151 506/523/151
f 246/524/296 406/532/296 405/525/296
f 97/526/163 314/534/163 313/527/163
f 186/304/164 537/306/164 557/528/164
f 150/529/165 508/536/165 507/530/165
f 247/531/166 407/538/166 406/532/166
f 96/533/167 315/540/167 314/534/167
f 267/34/92 287/75/92 558/77/92
f 152/535/168 509/542/168 508/536/168
f 7/537/169 408/543/169 407/538/169
f 98/539/170 316/545/170 315/540/170
f 273/35/110 558/77/110 286/76/110
f 69/541/165 510/549/165 509/542/165
f 7/537/171 8/276/171 409/275/171
f 6/544/172 317/551/172 316/545/172
f 212/362/116 290/361/116 559/546/116
f 71/548/168 511/600/168 510/549/168
f 5/550/174 318/555/174 317/551/174
f 269/547/110 559/546/110 289/552/110
f 92/553/86 411/562/86 410/554/86
f 5/550/175 272/330/175 285/329/175
f 145/41/176 561/82/176 560/556/176
f 222/558/177 513/567/177 512/559/177
f 85/561/178 412/569/178 411/562/178
f 274/563/179 319/607/179 320/564/179
f 143/565/180 562/570/180 561/82/180
f 220/566/180 514/572/180 513/567/180
f 84/568/181 413/574/181 412/569/181
f 143/565/182 144/40/182 563/83/182
f 219/571/182 515/580/182 514/572/182
f 83/573/183 414/582/183 413/574/183
f 72/575/184 44/584/184 322/576/184
f 144/40/185 151/586/185 564/578/185
f 259/579/186 516/588/186 515/580/186
f 82/581/187 415/590/187 414/582/187
f 179/583/188 323/592/188 322/576/188
f 63/585/182 565/593/182 564/578/182
f 258/587/182 517/595/182 516/588/182
f 81/589/189 416/597/189 415/590/189
f 178/591/190 324/599/190 323/592/190
f 70/560/177 512/559/177 565/593/177
f 265/594/177 518/602/177 517/595/177
f 77/596/191 417/604/191 416/597/191
f 177/598/192 325/605/192 324/599/192
f 72/575/168 321/577/168 511/600/168
f 174/601/182 519/609/182 518/602/182
f 76/603/193 418/611/193 417/604/193
f 176/6/194 326/46/194 325/605/194
f 274/563/195 221/613/195 566/606/195
f 172/608/196 520/615/196 519/609/196
f 75/610/197 419/617/197 418/611/197
f 280/612/39 327/619/39 326/46/39
f 64/557/198 560/556/198 566/606/198
f 173/614/199 521/621/199 520/615/199
f 74/616/200 420/623/200 419/617/200
f 280/612/45 279/624/45 328/618/45
f 49/620/196 522/626/196 521/621/196
f 73/622/201 421/628/201 420/623/201
f 275/5/133 320/564/133 328/618/133
f 155/625/199 523/631/199 522/626/199
f 73/622/202 78/632/202 422/627/202
f 277/629/154 330/49/154 329/630/154
f 155/625/196 154/84/196 524/86/196
f 79/89/203 423/88/203 422/627/203
f 277/629/133 2/1001/133 331/50/133
f 567/393/204 569/395/204 570/336/204
f 574/157/205 571/156/205 572/119/205
