# Blender 4.4.1
# www.blender.org
mtllib PoseDWall.mtl
o PoseDWall
v -1.250000 0.000000 -0.075000
v 1.250000 0.000000 -0.075000
v -1.250000 2.500000 -0.075000
v 1.250000 2.500000 -0.075000
v 0.154149 0.516420 -0.075000
v 0.135058 0.640585 -0.075000
v 0.163826 0.142058 -0.075000
v 0.190895 0.063941 -0.075000
v 0.157851 0.373208 -0.075000
v 0.034063 0.582388 -0.075000
v 0.021027 0.531214 -0.075000
v 0.018299 0.416009 -0.075000
v 0.012213 0.158264 -0.075000
v -0.077302 0.120421 -0.075000
v -0.213003 0.062704 -0.075000
v -0.247337 0.050191 -0.075000
v -0.236878 0.053995 -0.075000
v -0.462560 0.791002 -0.075000
v -0.246986 0.026273 -0.075000
v -0.471094 0.789127 -0.075000
v -0.521823 0.867584 -0.075000
v 1.080727 0.822435 -0.075000
v 1.050346 0.804504 -0.075000
v 0.998688 0.882431 -0.075000
v 0.984977 0.892370 -0.075000
v 0.850034 0.856437 -0.075000
v 0.947213 0.921851 -0.075000
v 0.942982 0.925242 -0.075000
v 0.937268 0.932887 -0.075000
v 0.887875 0.994743 -0.075000
v 0.832168 0.863828 -0.075000
v 0.882949 1.005403 -0.075000
v 0.868716 1.036819 -0.075000
v 0.811673 0.993143 -0.075000
v 0.778144 0.983291 -0.075000
v 0.788717 0.849841 -0.075000
v 0.586825 0.831608 -0.075000
v 0.415062 0.815051 -0.075000
v 0.556045 0.938871 -0.075000
v 0.410778 0.902681 -0.075000
v 0.351031 0.798106 -0.075000
v 0.287238 0.781426 -0.075000
v 0.160215 0.772216 -0.075000
v 0.116503 0.769106 -0.075000
v 0.344638 0.927297 -0.075000
v 0.268741 0.958869 -0.075000
v -0.009000 0.762609 -0.075000
v -0.027600 0.764714 -0.075000
v -0.115985 0.775241 -0.075000
v -0.352495 0.771987 -0.075000
v -0.392976 0.768857 -0.075000
v -0.521395 0.873151 -0.075000
v -0.494352 0.831821 -0.075000
v -0.511824 0.858524 -0.075000
v -0.402984 0.770024 -0.075000
v -0.454668 0.782344 -0.075000
v -0.462246 0.790988 -0.075000
v -0.558008 0.972398 -0.075000
v -0.585982 0.894637 -0.075000
v -0.526249 0.880571 -0.075000
v -0.989256 1.177004 -0.075000
v -0.996183 0.996342 -0.075000
v -1.003769 0.998518 -0.075000
v -0.962282 1.128386 -0.075000
v -1.010444 0.960143 -0.075000
v -1.228292 1.204705 -0.075000
v -1.166620 1.187011 -0.075000
v -1.228319 1.204613 -0.075000
v -1.250000 1.210834 -0.075000
v -1.156156 1.001849 -0.075000
v -1.145173 0.998698 -0.075000
v -1.213934 1.018425 -0.075000
v -1.250000 1.028773 -0.075000
v -1.046418 0.970364 -0.075000
v -1.046390 0.970456 -0.075000
v -1.132287 0.995001 -0.075000
v -0.977417 1.090380 -0.075000
v -0.973485 1.089252 -0.075000
v -1.003752 0.998577 -0.075000
v -0.996248 0.996424 -0.075000
v -0.995869 0.996316 -0.075000
v -0.999769 0.997434 -0.075000
v -0.994653 1.180837 -0.075000
v -0.993770 1.179198 -0.075000
v -1.060894 1.207898 -0.075000
v -1.077369 1.210025 -0.075000
v -1.135790 1.235160 -0.075000
v -1.146076 1.206520 -0.075000
v -1.144174 1.210201 -0.075000
v -0.213652 1.059243 -0.075000
v -0.279533 1.035510 -0.075000
v -0.345221 1.016779 -0.075000
v -0.371503 0.997550 -0.075000
v 0.290570 1.095429 -0.075000
v 0.273615 1.142473 -0.075000
v 0.217986 1.069321 -0.075000
v 0.268022 1.157992 -0.075000
v 0.231235 1.260063 -0.075000
v 0.159088 1.234112 -0.075000
v 0.240453 1.234485 -0.075000
v 0.087182 1.208248 -0.075000
v 0.083377 1.206880 -0.075000
v 0.064478 1.200082 -0.075000
v -0.059488 1.155492 -0.075000
v 0.202465 1.021036 -0.075000
v -0.010579 1.173151 -0.075000
v -0.010558 1.173092 -0.075000
v -0.044756 1.160858 -0.075000
v -0.068214 1.107080 -0.075000
v -0.043522 1.111082 -0.075000
v -0.091724 1.102895 -0.075000
v -0.212168 1.059507 -0.075000
v -0.044735 1.160799 -0.075000
v 0.042247 0.764091 -0.075000
v 0.035001 0.763484 -0.075000
v 0.023569 0.764023 -0.075000
v -0.109155 0.774427 -0.075000
v -0.446240 0.984377 -0.075000
v -0.394159 0.981930 -0.075000
v -0.527142 0.994615 -0.075000
v -0.572549 0.984522 -0.075000
v -0.571441 0.990150 -0.075000
v -0.574051 0.976898 -0.075000
v -0.528688 0.977816 -0.075000
v -0.530693 0.964805 -0.075000
v -0.531633 0.958701 -0.075000
v -0.571534 1.007988 -0.075000
v -0.571457 1.061683 -0.075000
v -0.595595 1.116197 -0.075000
v -0.601831 1.129381 -0.075000
v -0.648544 0.797577 -0.075000
v -0.722813 0.802886 -0.075000
v -0.788258 0.816230 -0.075000
v -0.825479 0.855063 -0.075000
v -0.855032 0.873140 -0.075000
v -0.882309 0.892902 -0.075000
v -0.922993 0.922445 -0.075000
v -0.937692 0.950392 -0.075000
v -0.930195 0.936138 -0.075000
v -0.955794 0.984821 -0.075000
v -0.617879 0.850043 -0.075000
v -0.597580 0.897083 -0.075000
v -0.630278 0.827393 -0.075000
v -0.941724 1.114989 -0.075000
v -0.941724 1.114989 -0.075000
v -0.941762 1.114892 -0.075000
v -0.954059 1.083680 -0.075000
v -0.748665 1.220643 -0.075000
v -0.811857 1.223466 -0.075000
v -0.864075 1.200574 -0.075000
v -0.733549 1.219966 -0.075000
v -0.671861 1.191626 -0.075000
v -0.880888 1.193201 -0.075000
v -0.918703 1.152359 -0.075000
v -0.933212 1.136802 -0.075000
v -0.658891 1.185729 -0.075000
v -0.648935 1.175917 -0.075000
v -1.145617 1.207538 -0.075000
v -1.145560 1.207518 -0.075000
v -1.153938 1.183372 -0.075000
v -1.145983 1.206475 -0.075000
v -1.145751 1.207148 -0.075000
v -0.246702 0.000000 -0.075000
v -0.246702 0.006851 -0.075000
v 0.213174 0.000000 -0.075000
v 0.210941 0.006485 -0.075000
v 0.208015 0.014514 -0.075000
v 0.208159 0.014564 -0.075000
v -0.454668 0.782344 0.075000
v -0.462246 0.790988 0.075000
v -0.462560 0.791002 0.075000
v -0.471094 0.789127 0.075000
v -0.494352 0.831821 0.075000
v -0.511824 0.858524 0.075000
v -0.521823 0.867584 0.075000
v -0.521395 0.873151 0.075000
v -0.526249 0.880571 0.075000
v -0.585982 0.894637 0.075000
v -0.597580 0.897083 0.075000
v -0.617879 0.850043 0.075000
v -0.630278 0.827393 0.075000
v -0.648544 0.797577 0.075000
v -0.722813 0.802886 0.075000
v -0.788258 0.816230 0.075000
v -0.825479 0.855063 0.075000
v -0.855032 0.873140 0.075000
v -0.882309 0.892902 0.075000
v -0.922993 0.922445 0.075000
v -0.930195 0.936138 0.075000
v -1.250000 0.000000 0.075000
v -0.246701 0.000000 0.075000
v -0.246701 0.006851 0.075000
v -0.246986 0.026273 0.075000
v -0.247337 0.050191 0.075000
v -0.236878 0.053995 0.075000
v -0.213003 0.062704 0.075000
v -0.077302 0.120421 0.075000
v 0.012213 0.158264 0.075000
v 0.018299 0.416009 0.075000
v 0.021027 0.531214 0.075000
v 0.034063 0.582388 0.075000
v 0.042247 0.764091 0.075000
v 0.035001 0.763484 0.075000
v 0.023569 0.764023 0.075000
v -0.009000 0.762609 0.075000
v -0.027600 0.764714 0.075000
v -0.109155 0.774427 0.075000
v -0.115985 0.775241 0.075000
v -0.352495 0.771987 0.075000
v -0.392976 0.768857 0.075000
v -0.402984 0.770024 0.075000
v 0.213174 0.000000 0.075000
v 0.210941 0.006485 0.075000
v 1.250000 0.000000 0.075000
v -0.977417 1.090380 0.075000
v -0.941724 1.114989 0.075000
v -0.954059 1.083680 0.075000
v -1.145617 1.207538 0.075000
v -1.145751 1.207148 0.075000
v -1.145560 1.207518 0.075000
v -1.144174 1.210201 0.075000
v -1.135790 1.235160 0.075000
v -1.077369 1.210025 0.075000
v -1.060894 1.207898 0.075000
v -0.994653 1.180837 0.075000
v -0.993770 1.179198 0.075000
v -0.989256 1.177004 0.075000
v -0.962282 1.128386 0.075000
v -0.973485 1.089252 0.075000
v -0.941762 1.114892 0.075000
v -0.941724 1.114989 0.075000
v -0.933212 1.136802 0.075000
v -0.918703 1.152359 0.075000
v -0.880888 1.193201 0.075000
v -0.864075 1.200574 0.075000
v -0.811857 1.223466 0.075000
v -0.748665 1.220643 0.075000
v -0.733549 1.219966 0.075000
v -0.671861 1.191626 0.075000
v -0.658891 1.185729 0.075000
v -0.648935 1.175917 0.075000
v -0.601831 1.129381 0.075000
v -0.595595 1.116197 0.075000
v -0.571457 1.061683 0.075000
v -0.571534 1.007988 0.075000
v -0.571441 0.990150 0.075000
v -0.572549 0.984522 0.075000
v -0.530693 0.964805 0.075000
v -0.528688 0.977816 0.075000
v -0.527142 0.994615 0.075000
v -0.446240 0.984377 0.075000
v -0.394159 0.981930 0.075000
v -0.371503 0.997550 0.075000
v -0.345221 1.016779 0.075000
v -0.279533 1.035510 0.075000
v -0.213652 1.059243 0.075000
v -0.212168 1.059507 0.075000
v -0.091724 1.102895 0.075000
v -0.068214 1.107080 0.075000
v -0.043522 1.111082 0.075000
v -0.059488 1.155492 0.075000
v -0.044735 1.160799 0.075000
v -0.044756 1.160858 0.075000
v -0.010579 1.173151 0.075000
v -0.010558 1.173092 0.075000
v 0.064478 1.200082 0.075000
v 0.083377 1.206880 0.075000
v 0.087182 1.208248 0.075000
v 0.159088 1.234112 0.075000
v 0.231235 1.260063 0.075000
v 0.240453 1.234485 0.075000
v 0.268022 1.157992 0.075000
v 0.273615 1.142473 0.075000
v 0.290570 1.095429 0.075000
v 0.217986 1.069321 0.075000
v 0.202465 1.021036 0.075000
v 0.268741 0.958869 0.075000
v 0.344638 0.927297 0.075000
v 0.410778 0.902681 0.075000
v 0.556045 0.938871 0.075000
v 0.778144 0.983291 0.075000
v 0.811673 0.993143 0.075000
v 0.868716 1.036819 0.075000
v 0.882949 1.005403 0.075000
v 0.887875 0.994743 0.075000
v 0.937268 0.932887 0.075000
v 0.942982 0.925242 0.075000
v 0.947213 0.921851 0.075000
v 0.984977 0.892370 0.075000
v 0.998688 0.882431 0.075000
v 1.080727 0.822435 0.075000
v 1.050346 0.804504 0.075000
v 0.850034 0.856437 0.075000
v 0.832168 0.863828 0.075000
v 0.788717 0.849841 0.075000
v 0.586825 0.831608 0.075000
v 0.415062 0.815051 0.075000
v 0.351031 0.798106 0.075000
v 0.287238 0.781426 0.075000
v 0.160215 0.772216 0.075000
v 0.116503 0.769106 0.075000
v 0.135058 0.640585 0.075000
v 0.154149 0.516420 0.075000
v 0.157852 0.373208 0.075000
v 0.163826 0.142058 0.075000
v 0.190895 0.063941 0.075000
v 0.208015 0.014514 0.075000
v 0.208159 0.014564 0.075000
v 1.250000 2.500000 0.075000
v -1.250000 2.500000 0.075000
v -1.250000 1.210834 0.075000
v -1.228319 1.204613 0.075000
v -1.228292 1.204705 0.075000
v -1.166620 1.187011 0.075000
v -1.153938 1.183372 0.075000
v -1.145983 1.206475 0.075000
v -1.146076 1.206520 0.075000
v -1.010444 0.960143 0.075000
v -0.996248 0.996424 0.075000
v -0.999769 0.997434 0.075000
v -1.213934 1.018425 0.075000
v -1.250000 1.028773 0.075000
v -1.046390 0.970456 0.075000
v -1.046418 0.970364 0.075000
v -1.132287 0.995001 0.075000
v -1.145173 0.998698 0.075000
v -1.156156 1.001849 0.075000
v -0.937692 0.950392 0.075000
v -0.955794 0.984821 0.075000
v -0.995869 0.996316 0.075000
v -0.996183 0.996342 0.075000
v -1.003769 0.998518 0.075000
v -1.003752 0.998577 0.075000
v -0.531633 0.958701 0.075000
v -0.574051 0.976898 0.075000
v -0.558008 0.972398 0.075000
v 0.203917 1.014127 -0.075000
v 0.201088 1.025474 -0.075000
v 0.192446 1.060134 -0.075000
v 0.214397 0.972095 -0.075000
v 0.203917 1.014127 0.075000
v 0.201088 1.025474 0.075000
v 0.192446 1.060134 0.075000
v 0.214397 0.972095 0.075000
vn -0.0000 -0.0000 -1.0000
vn -0.0000 -0.0000 1.0000
vn -0.2757 -0.9612 -0.0000
vn -0.0000 1.0000 -0.0000
vn 0.3385 -0.9410 -0.0000
vn 0.9304 -0.3666 -0.0000
vn -1.0000 -0.0000 -0.0000
vn 0.9455 -0.3256 -0.0000
vn -0.2758 -0.9612 -0.0000
vn -0.3240 -0.9461 -0.0000
vn 0.9605 -0.2782 -0.0000
vn -0.9408 -0.3391 -0.0000
vn 0.8884 -0.4590 -0.0000
vn 0.7520 0.6592 -0.0000
vn 0.9479 -0.3184 -0.0000
vn 0.0456 0.9990 -0.0000
vn -0.3952 -0.9186 -0.0000
vn -0.2146 0.9767 -0.0000
vn -0.1280 -0.9918 -0.0000
vn 0.4384 0.8988 -0.0000
vn 0.8782 0.4784 -0.0000
vn -0.3385 0.9410 -0.0000
vn -0.3782 -0.9257 -0.0000
vn 0.8883 -0.4592 -0.0000
vn 0.8368 0.5475 -0.0000
vn -0.8805 -0.4741 -0.0000
vn 0.2757 0.9612 -0.0000
vn 0.6715 0.7410 -0.0000
vn -0.4370 -0.8995 -0.0000
vn 0.9971 -0.0767 -0.0000
vn -0.8744 -0.4851 -0.0000
vn 0.2758 0.9612 -0.0000
vn -0.9614 0.2752 -0.0000
vn 0.2292 0.9734 -0.0000
vn 0.2064 0.9785 -0.0000
vn -0.9551 -0.2964 -0.0000
vn -0.9306 0.3662 -0.0000
vn -0.9182 0.3962 -0.0000
vn -0.9786 -0.2056 -0.0000
vn -0.8772 0.4802 -0.0000
vn 0.9316 -0.3635 -0.0000
vn -0.8527 0.5224 -0.0000
vn 0.7313 -0.6821 -0.0000
vn -0.9571 0.2896 -0.0000
vn 0.0713 0.9975 -0.0000
vn -0.2365 -0.9716 -0.0000
vn 0.7338 -0.6794 -0.0000
vn 0.1998 0.9798 -0.0000
vn -0.3841 -0.9233 -0.0000
vn 0.4016 -0.9158 -0.0000
vn 0.7219 0.6920 -0.0000
vn -0.3488 -0.9372 -0.0000
vn 0.4015 -0.9159 -0.0000
vn 0.5218 0.8531 -0.0000
vn 0.2417 -0.9703 -0.0000
vn -0.0446 -0.9990 -0.0000
vn 0.5867 0.8098 -0.0000
vn 0.1961 -0.9806 -0.0000
vn -0.0448 -0.9990 -0.0000
vn 0.8850 0.4655 -0.0000
vn 0.5876 0.8092 -0.0000
vn 0.2819 -0.9594 -0.0000
vn -0.4175 -0.9087 -0.0000
vn 0.8851 0.4654 -0.0000
vn 0.8851 0.4655 -0.0000
vn 0.6079 -0.7940 -0.0000
vn -0.4139 -0.9103 -0.0000
vn -0.9109 -0.4127 -0.0000
vn -0.7020 -0.7122 -0.0000
vn 0.0846 0.9964 -0.0000
vn -0.0000 -1.0000 -0.0000
vn -0.9078 -0.4195 -0.0000
vn -0.7028 -0.7114 -0.0000
vn 1.0000 -0.0000 -0.0000
vn -0.7814 -0.6240 -0.0000
vn -0.9040 -0.4276 -0.0000
vn 0.9999 0.0147 -0.0000
vn -0.8010 -0.5987 -0.0000
vn -0.9144 -0.4049 -0.0000
vn 0.9610 -0.2765 -0.0000
vn -0.6253 -0.7804 -0.0000
vn -1.0000 0.0014 -0.0000
vn 0.3418 -0.9398 -0.0000
vn -0.6154 -0.7882 -0.0000
vn -1.0000 -0.0052 -0.0000
vn 0.9883 -0.1523 -0.0000
vn 0.3427 -0.9394 -0.0000
vn -0.5869 -0.8096 -0.0000
vn -0.9812 0.1932 -0.0000
vn -0.9811 0.1933 -0.0000
vn 0.3914 -0.9202 -0.0000
vn -0.5903 -0.8072 -0.0000
vn -0.2701 -0.9628 -0.0000
vn 0.3894 -0.9211 -0.0000
vn -0.5083 0.8612 -0.0000
vn -0.4609 -0.8875 -0.0000
vn 0.9997 -0.0236 -0.0000
vn 0.2510 0.9680 -0.0000
vn 0.9958 -0.0916 -0.0000
vn 0.9997 -0.0237 -0.0000
vn 0.3823 0.9241 -0.0000
vn -0.1255 -0.9921 -0.0000
vn 0.9691 -0.2469 -0.0000
vn -0.3064 0.9519 -0.0000
vn -0.0469 -0.9989 -0.0000
vn 0.9990 -0.0450 -0.0000
vn -0.0899 0.9959 -0.0000
vn 0.5676 -0.8233 -0.0000
vn -0.0835 0.9965 -0.0000
vn -0.0960 0.9954 -0.0000
vn 0.5905 -0.8071 -0.0000
vn 0.0471 0.9989 -0.0000
vn -0.2558 0.9667 -0.0000
vn 0.2742 -0.9617 -0.0000
vn -0.0434 0.9991 -0.0000
vn -0.2530 0.9675 -0.0000
vn 0.3389 -0.9408 -0.0000
vn 0.1125 0.9937 -0.0000
vn -0.0723 0.9974 -0.0000
vn 0.1751 -0.9845 -0.0000
vn 0.1183 0.9930 -0.0000
vn -0.0710 0.9975 -0.0000
vn 0.1182 0.9930 -0.0000
vn -0.9897 -0.1429 -0.0000
vn 0.1752 -0.9845 -0.0000
vn -0.0138 0.9999 -0.0000
vn -0.9884 -0.1520 -0.0000
vn 0.1600 -0.9871 -0.0000
vn -0.0771 0.9970 -0.0000
vn -0.9997 -0.0258 -0.0000
vn 0.9410 0.3383 -0.0000
vn 0.1158 0.9933 -0.0000
vn 0.2319 0.9727 -0.0000
vn -0.9449 -0.3274 -0.0000
vn 0.9408 0.3391 -0.0000
vn -0.9455 -0.3256 -0.0000
vn -0.9449 -0.3273 -0.0000
vn 0.3256 -0.9455 -0.0000
vn -0.9399 -0.3413 -0.0000
vn -0.9703 -0.2419 -0.0000
vn -0.0000 0.0001 -1.0000
vn -0.9997 -0.0251 -0.0000
vn -0.0000 0.0004 -1.0000
vn -0.0020 0.1521 -0.9884
vn -0.0056 0.1104 -0.9939
vn 0.0074 -0.0000 -1.0000
vn 0.0993 -0.0311 -0.9946
vn 0.0001 0.0001 -1.0000
vn 0.0867 -0.0683 -0.9939
vn -0.0000 -0.0001 -1.0000
vn 0.0073 -0.0000 -1.0000
vn -0.0000 -0.0002 -1.0000
vn 0.0010 -0.0071 -1.0000
vn 0.0610 0.0374 -0.9974
vn -0.0052 0.0712 -0.9974
vn -0.0000 -0.0020 1.0000
vn 0.0002 -0.0000 1.0000
vn -0.0230 -0.2593 0.9655
vn -0.0187 -0.3162 0.9485
vn -0.0000 0.0002 -1.0000
vn -0.1955 0.0612 0.9788
vn 0.0001 -0.0000 1.0000
vn -0.1712 0.0920 0.9809
vn -0.0000 -0.0001 1.0000
vn 0.0111 -0.0377 0.9992
vn -0.1232 -0.0000 0.9924
vn 0.0510 0.0623 0.9968
vn -0.0793 0.1823 0.9800
vn -0.0000 0.0002 1.0000
vn -0.0003 0.0006 1.0000
vn 0.9454 -0.3258 -0.0000
vn -0.3299 -0.9440 -0.0000
vn 0.7519 0.6592 -0.0000
vn 0.8884 -0.4591 -0.0000
vn -0.8805 -0.4740 -0.0000
vn -0.4371 -0.8994 -0.0000
vn -0.9306 0.3661 -0.0000
vn 0.9303 -0.3667 -0.0000
vn 0.7313 -0.6820 -0.0000
vn -0.9573 0.2891 -0.0000
vn 0.9613 -0.2757 -0.0000
vn 0.1753 -0.9845 -0.0000
vn 0.9411 0.3381 -0.0000
vn -0.9407 -0.3393 -0.0000
vt 0.342810 0.307543
vt 0.488960 0.305886
vt 0.508411 0.212485
vt 0.585270 0.000000
vt 0.584377 0.002594
vt 1.000000 0.000000
vt 0.109033 0.436152
vt 0.123311 0.445996
vt 0.118376 0.433472
vt 0.110606 0.435701
vt 0.101501 0.398570
vt 0.095822 0.384057
vt 0.100092 0.398974
vt 0.000000 0.000000
vt 0.041931 0.399479
vt 0.081433 0.388146
vt 0.101527 0.398537
vt 0.117682 0.393928
vt 0.098499 0.399431
vt 0.287347 0.383480
vt 0.276797 0.388959
vt 0.270980 0.393809
vt 1.000000 1.000000
vt 0.592494 0.504025
vt 0.495768 0.469260
vt 0.849419 0.361737
vt 0.783276 0.347963
vt 0.782103 0.244466
vt 0.414571 0.000108
vt 0.708266 0.000108
vt 0.413939 0.001945
vt 0.078516 0.307498
vt 0.085346 0.306642
vt 0.087431 0.315944
vt 0.078435 0.308654
vt 0.716583 0.069289
vt 0.716565 0.068251
vt 0.727551 0.068071
vt 0.999892 0.001702
vt 0.716839 0.029848
vt 0.715963 0.026732
vt 0.730681 0.090167
vt 0.717672 0.073688
vt 0.717048 0.071450
vt 0.196124 0.275553
vt 0.203861 0.273402
vt 0.191579 0.276828
vt 0.204867 0.281846
vt 0.256399 0.288124
vt 0.708266 0.708267
vt 0.315101 0.316395
vt 0.318133 0.312938
vt 0.314976 0.316401
vt 0.311562 0.315651
vt 0.302259 0.332728
vt 0.295270 0.343410
vt 0.291271 0.347034
vt 0.291442 0.349261
vt 0.289500 0.352228
vt 0.265607 0.357855
vt 0.000000 0.411509
vt 0.014426 0.407370
vt 0.260968 0.358833
vt 0.252848 0.340017
vt 0.247889 0.330957
vt 0.081444 0.388182
vt 0.240582 0.319031
vt 0.210875 0.321155
vt 0.047085 0.398000
vt 0.184697 0.326492
vt 0.169808 0.342025
vt 0.037538 0.400739
vt 0.157987 0.349256
vt 0.147077 0.357161
vt 0.127922 0.374455
vt 0.124923 0.380157
vt 0.130803 0.368978
vt 0.101652 0.398526
vt 0.401319 0.000000
vt 0.098493 0.399407
vt 0.401319 0.002740
vt 0.401206 0.010509
vt 0.401065 0.020076
vt 0.405249 0.021598
vt 0.287723 0.385922
vt 0.414799 0.025082
vt 0.270380 0.390759
vt 0.469079 0.048168
vt 0.504885 0.063306
vt 0.507320 0.166404
vt 0.513625 0.232955
vt 0.516899 0.305636
vt 0.514001 0.305394
vt 0.509428 0.305609
vt 0.496400 0.305044
vt 0.456338 0.309771
vt 0.453606 0.310096
vt 0.359002 0.308795
vt 0.338807 0.308009
vt 0.720753 0.367964
vt 0.708482 0.410454
vt 0.708482 0.367964
vt 0.718601 0.410670
vt 0.708482 0.453159
vt 0.708482 0.410670
vt 0.115087 0.451354
vt 0.104298 0.470802
vt 0.102492 0.471679
vt 0.102139 0.472335
vt 0.123295 0.445957
vt 0.147645 0.477280
vt 0.132519 0.460943
vt 0.126715 0.454721
vt 0.154370 0.480229
vt 0.075642 0.483159
vt 0.069052 0.484010
vt 0.045684 0.494064
vt 0.175257 0.489387
vt 0.042330 0.484080
vt 0.041776 0.483007
vt 0.041753 0.483015
vt 0.041700 0.482859
vt 0.041570 0.482608
vt 0.041607 0.482590
vt 0.038425 0.473349
vt 0.033352 0.474804
vt 0.008683 0.481882
vt 0.008673 0.481845
vt 0.000000 0.484333
vt 0.000000 1.000000
vt 0.583264 0.005826
vt 0.583206 0.005806
vt 0.576358 0.025577
vt 0.565531 0.056823
vt 0.563141 0.149283
vt 0.561660 0.206568
vt 0.554023 0.256234
vt 0.546601 0.307643
vt 0.564086 0.308887
vt 0.614895 0.312570
vt 0.640412 0.319242
vt 0.666025 0.326020
vt 0.734730 0.332643
vt 0.200534 0.488257
vt 0.236444 0.474292
vt 0.231256 0.476650
vt 0.206580 0.487986
vt 0.815487 0.339936
vt 0.832867 0.345531
vt 0.840014 0.342575
vt 0.240426 0.470367
vt 0.920138 0.321802
vt 0.259267 0.451752
vt 0.261762 0.446479
vt 0.932291 0.328974
vt 0.899475 0.352972
vt 0.893991 0.356948
vt 0.878885 0.368741
vt 0.877193 0.370097
vt 0.874907 0.373155
vt 0.855150 0.397897
vt 0.853179 0.402161
vt 0.847487 0.414728
vt 0.824669 0.397257
vt 0.811258 0.393316
vt 0.271417 0.424673
vt 0.271424 0.396060
vt 0.271386 0.403195
vt 0.289143 0.397846
vt 0.288525 0.391126
vt 0.342337 0.392772
vt 0.321504 0.393750
vt 0.361912 0.406712
vt 0.351399 0.399020
vt 0.414539 0.423697
vt 0.388187 0.414204
vt 0.463310 0.441158
vt 0.415133 0.423803
vt 0.476205 0.462197
vt 0.482591 0.444433
vt 0.472714 0.442832
vt 0.482098 0.464343
vt 0.482106 0.464319
vt 0.525791 0.480033
vt 0.495777 0.469237
vt 0.533351 0.482752
vt 0.563635 0.493645
vt 0.534873 0.483299
vt 0.607209 0.463197
vt 0.596181 0.493794
vt 0.609446 0.456989
vt 0.576978 0.424054
vt 0.587194 0.427728
vt 0.616228 0.438171
vt 0.580986 0.408415
vt 0.580435 0.410190
vt 0.585759 0.388838
vt 0.581567 0.405651
vt 0.664311 0.361073
vt 0.637855 0.370919
vt 0.607496 0.383548
vt 0.722418 0.375548
vt 0.778283 0.226990
vt 0.775834 0.224844
vt 0.775830 0.224755
vt 0.776361 0.222338
vt 0.764268 0.215749
vt 0.756704 0.210800
vt 0.754137 0.207968
vt 0.752560 0.208089
vt 0.750458 0.206714
vt 0.746474 0.189794
vt 0.745781 0.186509
vt 0.759106 0.180759
vt 0.765522 0.177247
vt 0.773968 0.172072
vt 0.772464 0.151035
vt 0.781772 0.241631
vt 0.768684 0.132497
vt 0.757684 0.121953
vt 0.752563 0.113582
vt 0.746965 0.105855
vt 0.738597 0.094331
vt 0.734719 0.092291
vt 0.999892 0.285900
vt 0.997952 0.285900
vt 0.992450 0.285819
vt 0.985675 0.285720
vt 0.984597 0.288683
vt 0.982130 0.295445
vt 0.965781 0.333884
vt 0.955062 0.359241
vt 0.882052 0.360965
vt 0.834923 0.365430
vt 0.783453 0.367748
vt 0.783625 0.365696
vt 0.783472 0.362457
vt 0.783873 0.353232
vt 0.780295 0.322927
vt 0.781216 0.255932
vt 0.780525 0.324862
vt 0.711358 0.010340
vt 0.708482 0.000108
vt 0.724686 0.057873
vt 0.724712 0.057865
vt 0.717866 0.033504
vt 0.717665 0.073599
vt 0.720928 0.085040
vt 0.717032 0.071454
vt 0.203595 0.271673
vt 0.192005 0.278987
vt 0.029546 0.341871
vt 0.029638 0.342049
vt 0.029676 0.342160
vt 0.029692 0.342154
vt 0.030085 0.342914
vt 0.032459 0.349984
vt 0.049008 0.342864
vt 0.053675 0.342262
vt 0.027319 0.335314
vt 0.029572 0.341858
vt 0.023726 0.336345
vt 0.000108 0.343093
vt 0.006249 0.341331
vt 0.006257 0.341357
vt 0.000108 0.708267
vt 0.413151 0.004233
vt 0.408261 0.018220
vt 0.413110 0.004219
vt 0.398900 0.105824
vt 0.400593 0.040348
vt 0.387188 0.217968
vt 0.392444 0.181562
vt 0.397852 0.146391
vt 0.399570 0.218849
vt 0.435551 0.221458
vt 0.072438 0.334596
vt 0.072688 0.334132
vt 0.073967 0.333511
vt 0.520413 0.235672
vt 0.471759 0.230982
vt 0.453621 0.226182
vt 0.081608 0.319739
vt 0.594971 0.242705
vt 0.589910 0.244799
vt 0.577602 0.240837
vt 0.083897 0.310498
vt 0.087438 0.315942
vt 0.089842 0.322123
vt 0.093952 0.326529
vt 0.104664 0.338098
vt 0.651712 0.227995
vt 0.660317 0.233074
vt 0.622498 0.261235
vt 0.633195 0.252884
vt 0.637079 0.250068
vt 0.619681 0.264361
vt 0.621300 0.262195
vt 0.604294 0.284902
vt 0.605690 0.281882
vt 0.574607 0.278638
vt 0.584105 0.281429
vt 0.600263 0.293801
vt 0.109426 0.340187
vt 0.511694 0.266056
vt 0.124218 0.346671
vt 0.142118 0.345872
vt 0.451810 0.262777
vt 0.470545 0.255805
vt 0.411949 0.287373
vt 0.414918 0.275467
vt 0.430312 0.271721
vt 0.146399 0.345680
vt 0.163873 0.337652
vt 0.167547 0.335982
vt 0.411538 0.289330
vt 0.408700 0.300406
vt 0.411148 0.290588
vt 0.436495 0.310403
vt 0.415935 0.303008
vt 0.422299 0.349793
vt 0.430108 0.328125
vt 0.431692 0.323729
vt 0.419687 0.357038
vt 0.170368 0.333202
vt 0.183710 0.320021
vt 0.378883 0.342361
vt 0.399251 0.349687
vt 0.185477 0.316286
vt 0.192314 0.300844
vt 0.192292 0.285634
vt 0.192319 0.280581
vt 0.372451 0.340048
vt 0.377805 0.341973
vt 0.351191 0.332419
vt 0.351198 0.332398
vt 0.337336 0.327417
vt 0.341515 0.328920
vt 0.341509 0.328937
vt 0.204429 0.277088
vt 0.227784 0.278946
vt 0.242536 0.278253
vt 0.248954 0.282678
vt 0.275006 0.293430
vt 0.293667 0.300153
vt 0.294088 0.300228
vt 0.328205 0.312518
vt 0.334865 0.313703
vt 0.341859 0.314837
vt 0.720753 0.410454
vt 0.718601 0.453159
s 0
usemtl マテリアル.004
f 51/1/1 48/2/1 11/3/1
f 165/4/1 166/5/1 2/6/1
f 77/7/1 144/8/1 147/9/1
f 78/10/2 144/8/2 77/7/2
f 80/11/1 65/12/1 82/13/1
f 1/14/1 71/15/1 74/16/1
f 1/14/1 62/17/1 140/18/1
f 79/19/2 1/14/2 65/12/2
f 126/20/1 58/21/1 121/22/1
f 4/23/1 98/24/1 106/25/1
f 200/26/2 206/27/2 210/28/2
f 212/29/2 214/30/2 213/31/2
f 215/32/2 217/33/2 216/34/2
f 229/35/1 215/32/1 216/34/1
f 319/36/2 320/37/2 318/38/2
f 190/39/2 326/40/2 327/41/2
f 190/39/2 328/42/2 330/43/2
f 319/36/1 318/38/1 332/44/1
f 336/45/2 248/46/2 335/47/2
f 250/48/2 254/49/2 309/50/2
f 147/9/3 215/7/3 77/7/3
f 3/14/4 309/14/4 4/14/4
f 101/14/5 267/14/5 102/14/5
f 147/9/6 216/8/6 217/9/6
f 69/14/7 310/14/7 3/14/7
f 99/14/5 268/14/5 101/14/5
f 158/14/8 219/14/8 162/14/8
f 68/14/9 311/14/9 69/14/9
f 98/14/5 269/14/5 99/14/5
f 159/14/10 218/14/10 158/14/10
f 66/14/11 312/14/11 68/14/11
f 100/14/12 270/14/12 98/14/12
f 89/14/13 220/14/13 159/14/13
f 66/14/9 314/14/9 313/14/9
f 57/51/14 169/52/14 56/52/14
f 100/14/12 272/14/12 271/14/12
f 87/14/15 221/14/15 89/14/15
f 160/14/9 314/14/9 67/14/9
f 18/53/16 170/51/16 57/51/16
f 95/14/12 272/14/12 97/14/12
f 87/14/17 223/14/17 222/14/17
f 161/14/8 315/14/8 160/14/8
f 20/54/18 171/53/18 18/53/18
f 94/14/12 273/14/12 95/14/12
f 85/14/19 223/14/19 86/14/19
f 88/14/20 316/14/20 161/14/20
f 53/55/21 172/54/21 20/54/21
f 96/14/22 274/14/22 94/14/22
f 85/14/23 225/14/23 224/14/23
f 162/14/24 317/14/24 88/14/24
f 54/56/25 173/55/25 53/55/25
f 96/14/22 343/14/22 275/14/22
f 84/14/26 225/14/26 83/14/26
f 77/7/27 229/10/27 78/10/27
f 21/57/28 174/56/28 54/56/28
f 61/14/29 226/14/29 84/14/29
f 52/58/30 175/57/30 21/57/30
f 64/14/31 227/14/31 61/14/31
f 80/11/32 320/13/32 319/11/32
f 52/58/25 177/59/25 176/58/25
f 78/14/33 228/14/33 64/14/33
f 65/12/33 320/13/33 82/13/33
f 59/60/34 177/59/34 60/59/34
f 73/61/32 321/62/32 72/62/32
f 142/63/35 178/60/35 59/60/35
f 276/14/36 338/14/36 105/14/36
f 146/14/37 216/14/37 144/14/37
f 1/14/7 322/61/7 73/61/7
f 141/64/38 179/63/38 142/63/38
f 105/14/39 341/14/39 276/14/39
f 145/14/6 230/14/6 146/14/6
f 143/65/40 180/64/40 141/64/40
f 145/14/41 232/14/41 231/14/41
f 75/66/32 318/12/32 65/12/32
f 131/67/42 181/65/42 143/65/42
f 154/14/43 232/14/43 155/14/43
f 74/16/44 323/66/44 75/66/44
f 132/68/45 182/67/45 131/67/45
f 277/14/46 340/14/46 46/14/46
f 153/14/47 233/14/47 154/14/47
f 76/69/32 324/16/32 74/16/32
f 133/70/48 183/68/48 132/68/48
f 46/14/49 278/14/49 277/14/49
f 150/14/50 234/14/50 153/14/50
f 71/15/32 325/69/32 76/69/32
f 134/71/51 184/70/51 133/70/51
f 45/14/52 279/14/52 278/14/52
f 149/14/53 235/14/53 150/14/53
f 70/72/32 326/15/32 71/15/32
f 135/73/54 185/71/54 134/71/54
f 40/14/55 280/14/55 279/14/55
f 149/14/56 237/14/56 236/14/56
f 72/62/32 327/72/32 70/72/32
f 136/74/57 186/73/57 135/73/57
f 35/14/58 280/14/58 39/14/58
f 151/14/59 237/14/59 148/14/59
f 139/75/60 328/76/60 189/75/60
f 137/77/61 187/74/61 136/74/61
f 35/14/62 282/14/62 281/14/62
f 151/14/63 239/14/63 238/14/63
f 140/18/64 328/76/64 138/76/64
f 139/75/65 188/77/65 137/77/65
f 33/14/66 282/14/66 34/14/66
f 156/14/67 239/14/67 152/14/67
f 81/78/27 329/18/27 140/18/27
f 33/14/68 284/14/68 283/14/68
f 157/14/69 240/14/69 156/14/69
f 62/17/70 330/78/70 81/78/70
f 163/79/71 190/14/71 1/14/71
f 30/14/72 284/14/72 32/14/72
f 157/14/73 242/14/73 241/14/73
f 63/80/27 331/17/27 62/17/27
f 164/81/74 191/79/74 163/79/74
f 30/14/75 286/14/75 285/14/75
f 129/14/76 242/14/76 130/14/76
f 19/82/77 192/81/77 164/81/77
f 29/14/78 287/14/78 286/14/78
f 128/14/79 243/14/79 129/14/79
f 79/19/80 332/80/80 63/80/80
f 19/82/77 194/83/77 193/82/77
f 27/14/81 287/14/81 28/14/81
f 127/14/82 244/14/82 128/14/82
f 80/11/3 333/19/3 79/19/3
f 17/84/83 194/83/83 16/83/83
f 25/14/84 288/14/84 27/14/84
f 122/14/85 245/14/85 127/14/85
f 125/85/86 334/20/86 126/20/86
f 15/86/87 195/84/87 17/84/87
f 24/14/88 289/14/88 25/14/88
f 121/14/89 246/14/89 122/14/89
f 123/87/90 247/22/90 121/22/90
f 15/86/91 197/88/91 196/86/91
f 22/14/92 290/14/92 24/14/92
f 58/21/93 335/87/93 123/87/93
f 13/89/94 197/88/94 14/88/94
f 23/14/95 291/14/95 22/14/95
f 124/14/86 248/14/86 125/14/86
f 126/20/96 336/21/96 58/21/96
f 12/90/97 198/89/97 13/89/97
f 26/14/98 292/14/98 23/14/98
f 120/14/99 249/14/99 124/14/99
f 11/3/100 199/90/100 12/90/100
f 31/14/101 293/14/101 26/14/101
f 118/14/102 250/14/102 120/14/102
f 10/91/103 200/3/103 11/3/103
f 36/14/104 294/14/104 31/14/104
f 119/14/105 251/14/105 118/14/105
f 114/92/106 201/91/106 10/91/106
f 37/14/107 295/14/107 36/14/107
f 93/14/108 252/14/108 119/14/108
f 114/92/109 203/93/109 202/92/109
f 38/14/110 296/14/110 37/14/110
f 92/14/111 253/14/111 93/14/111
f 116/94/112 203/93/112 115/93/112
f 41/14/113 297/14/113 38/14/113
f 92/14/114 255/14/114 254/14/114
f 47/95/115 204/94/115 116/94/115
f 42/14/116 298/14/116 41/14/116
f 90/14/117 255/14/117 91/14/117
f 47/95/118 206/2/118 205/95/118
f 43/14/119 299/14/119 42/14/119
f 90/14/120 257/14/120 256/14/120
f 117/96/121 206/2/121 48/2/121
f 44/14/122 300/14/122 43/14/122
f 112/14/117 258/14/117 257/14/117
f 117/96/123 208/97/123 207/96/123
f 44/14/124 302/14/124 301/14/124
f 109/14/125 258/14/125 111/14/125
f 50/98/126 208/97/126 49/97/126
f 5/14/127 302/14/127 6/14/127
f 110/14/128 259/14/128 109/14/128
f 51/1/129 209/98/129 50/98/129
f 9/14/130 303/14/130 5/14/130
f 104/14/131 260/14/131 110/14/131
f 55/99/132 210/1/132 51/1/132
f 7/14/130 304/14/130 9/14/130
f 113/14/5 261/14/5 104/14/5
f 56/52/133 211/99/133 55/99/133
f 8/14/134 305/14/134 7/14/134
f 108/14/135 262/14/135 113/14/135
f 165/4/136 213/5/136 166/5/136
f 167/14/137 306/14/137 8/14/137
f 106/14/5 263/14/5 108/14/5
f 2/6/71 212/4/71 165/4/71
f 168/14/138 307/14/138 167/14/138
f 107/14/139 264/14/139 106/14/139
f 166/14/136 308/14/136 168/14/136
f 103/14/5 265/14/5 107/14/5
f 4/14/74 214/14/74 2/14/74
f 102/14/5 266/14/5 103/14/5
f 341/100/140 340/101/140 344/102/140
f 343/103/140 338/104/140 342/105/140
f 59/60/1 60/59/1 52/58/1
f 21/57/1 54/56/1 53/55/1
f 59/60/1 52/58/1 21/57/1
f 141/64/1 142/63/1 59/60/1
f 143/65/1 141/64/1 59/60/1
f 59/60/1 21/57/1 53/55/1
f 20/54/141 18/53/141 57/51/141
f 59/60/1 53/55/1 20/54/1
f 131/67/1 143/65/1 59/60/1
f 131/67/1 59/60/1 20/54/1
f 20/54/1 57/51/1 56/52/1
f 131/67/1 20/54/1 56/52/1
f 132/68/1 131/67/1 56/52/1
f 132/68/1 56/52/1 55/99/1
f 135/73/1 134/71/1 133/70/1
f 132/68/1 55/99/1 51/1/1
f 136/74/1 135/73/1 133/70/1
f 137/77/1 136/74/1 133/70/1
f 1/14/1 139/75/1 137/77/1
f 164/81/1 163/79/1 1/14/1
f 16/83/142 19/82/142 164/81/142
f 15/86/143 17/84/143 16/83/143
f 12/90/1 13/89/1 14/88/1
f 14/88/1 15/86/1 16/83/1
f 16/83/1 164/81/1 1/14/1
f 1/14/1 137/77/1 133/70/1
f 1/14/1 133/70/1 132/68/1
f 14/88/1 16/83/1 1/14/1
f 11/3/1 12/90/1 14/88/1
f 114/92/1 10/91/1 11/3/1
f 47/95/1 116/94/1 115/93/1
f 115/93/1 114/92/1 11/3/1
f 11/3/1 14/88/1 1/14/1
f 1/14/1 132/68/1 51/1/1
f 51/1/1 50/98/1 49/97/1
f 49/97/144 117/96/144 48/2/144
f 47/95/1 115/93/1 11/3/1
f 51/1/1 49/97/1 48/2/1
f 48/2/1 47/95/1 11/3/1
f 11/3/1 1/14/1 51/1/1
f 74/16/1 75/66/1 65/12/1
f 1/14/1 73/61/1 72/62/1
f 72/62/145 70/72/145 71/15/145
f 71/15/146 76/69/146 74/16/146
f 74/16/1 65/12/1 1/14/1
f 1/14/1 72/62/1 71/15/1
f 138/76/1 139/75/1 1/14/1
f 1/14/1 63/80/1 62/17/1
f 62/17/1 81/78/1 140/18/1
f 140/18/1 138/76/1 1/14/1
f 65/12/2 80/11/2 79/19/2
f 79/19/2 63/80/2 1/14/2
f 121/22/1 125/85/1 126/20/1
f 58/21/1 123/87/1 121/22/1
f 144/8/1 78/10/1 64/106/1
f 61/107/1 84/108/1 83/109/1
f 144/8/1 64/106/1 61/107/1
f 145/8/147 146/110/147 144/8/147
f 153/111/148 154/112/148 155/113/148
f 155/113/149 145/8/149 144/8/149
f 155/113/1 144/8/1 61/107/1
f 153/111/1 155/113/1 61/107/1
f 153/111/1 61/107/1 83/109/1
f 150/114/1 153/111/1 83/109/1
f 85/115/1 86/116/1 87/117/1
f 150/114/1 83/109/1 85/115/1
f 149/118/1 150/114/1 85/115/1
f 87/117/1 89/119/1 159/120/1
f 149/118/1 85/115/1 87/117/1
f 87/117/150 159/120/150 158/121/150
f 158/121/150 162/122/150 88/123/150
f 88/123/1 161/124/1 160/125/1
f 160/125/151 67/126/151 66/127/151
f 66/127/1 68/128/1 69/129/1
f 69/129/1 3/130/1 4/23/1
f 2/6/1 166/5/1 168/131/1
f 168/131/1 167/132/1 8/133/1
f 8/133/1 7/134/1 9/135/1
f 5/136/1 6/137/1 44/138/1
f 8/133/1 9/135/1 5/136/1
f 2/6/1 168/131/1 8/133/1
f 66/127/1 69/129/1 4/23/1
f 88/123/1 160/125/1 66/127/1
f 87/117/1 158/121/1 88/123/1
f 87/117/1 88/123/1 66/127/1
f 2/6/1 8/133/1 5/136/1
f 5/136/1 44/138/1 43/139/1
f 5/136/1 43/139/1 42/140/1
f 87/117/1 66/127/1 4/23/1
f 149/118/1 87/117/1 4/23/1
f 2/6/1 5/136/1 42/140/1
f 41/141/1 38/142/1 37/143/1
f 2/6/1 42/140/1 41/141/1
f 148/144/1 149/118/1 4/23/1
f 156/145/1 152/146/1 151/147/1
f 151/147/1 148/144/1 4/23/1
f 2/6/1 41/141/1 37/143/1
f 36/148/1 31/149/1 26/150/1
f 2/6/1 37/143/1 36/148/1
f 156/145/1 151/147/1 4/23/1
f 157/151/1 156/145/1 4/23/1
f 2/6/1 36/148/1 26/150/1
f 2/6/1 26/150/1 23/152/1
f 130/153/1 157/151/1 4/23/1
f 129/154/1 130/153/1 4/23/1
f 2/6/1 23/152/1 22/155/1
f 24/156/1 25/157/1 27/158/1
f 4/23/1 2/6/1 22/155/1
f 22/155/1 24/156/1 27/158/1
f 27/158/1 28/159/1 29/160/1
f 29/160/1 30/161/1 32/162/1
f 33/163/1 34/164/1 35/165/1
f 29/160/1 32/162/1 33/163/1
f 22/155/1 27/158/1 29/160/1
f 128/166/1 129/154/1 4/23/1
f 122/167/1 127/168/1 128/166/1
f 125/85/1 121/22/1 122/167/1
f 120/169/1 124/170/1 125/85/1
f 119/171/1 118/172/1 120/169/1
f 92/173/1 93/174/1 119/171/1
f 90/175/1 91/176/1 92/173/1
f 111/177/1 112/178/1 90/175/1
f 104/179/1 110/180/1 109/181/1
f 111/177/1 90/175/1 92/173/1
f 104/179/1 109/181/1 111/177/1
f 108/182/1 113/183/1 104/179/1
f 103/184/152 107/185/152 106/25/152
f 102/186/1 103/184/1 106/25/1
f 98/24/1 99/187/1 101/188/1
f 101/188/153 102/186/153 106/25/153
f 98/24/152 101/188/152 106/25/152
f 97/189/154 100/190/154 98/24/154
f 95/191/74 97/189/74 98/24/74
f 339/192/155 96/193/155 94/194/155
f 105/195/1 338/196/1 339/192/1
f 340/197/1 337/198/1 105/195/1
f 40/199/1 45/200/1 46/201/1
f 46/201/1 340/197/1 105/195/1
f 105/195/1 339/192/1 94/194/1
f 46/201/1 105/195/1 94/194/1
f 39/202/1 40/199/1 46/201/1
f 33/163/1 35/165/1 39/202/1
f 22/155/1 29/160/1 33/163/1
f 122/167/1 128/166/1 4/23/1
f 120/169/1 125/85/1 122/167/1
f 92/173/1 119/171/1 120/169/1
f 104/179/1 111/177/1 92/173/1
f 104/179/1 92/173/1 120/169/1
f 120/169/1 122/167/1 4/23/1
f 4/23/1 22/155/1 33/163/1
f 33/163/1 39/202/1 46/201/1
f 33/163/1 46/201/1 94/194/1
f 104/179/1 120/169/1 4/23/1
f 108/182/1 104/179/1 4/23/1
f 4/23/1 33/163/1 94/194/1
f 4/23/1 94/194/1 95/191/1
f 106/25/1 108/182/1 4/23/1
f 4/23/1 95/191/1 98/24/1
f 169/203/2 170/204/2 171/205/2
f 172/206/2 173/207/2 174/208/2
f 169/203/2 171/205/2 172/206/2
f 172/206/2 174/208/2 175/209/2
f 175/209/2 176/210/2 177/211/2
f 177/211/2 178/212/2 179/213/2
f 177/211/2 179/213/2 180/214/2
f 175/209/2 177/211/2 180/214/2
f 175/209/2 180/214/2 181/215/2
f 172/206/2 175/209/2 181/215/2
f 172/206/2 181/215/2 182/216/2
f 169/203/2 172/206/2 182/216/2
f 169/203/2 182/216/2 183/217/2
f 211/218/2 169/203/2 183/217/2
f 184/219/2 185/220/2 186/221/2
f 210/28/2 211/218/2 183/217/2
f 184/219/2 186/221/2 187/222/2
f 184/219/2 187/222/2 188/223/2
f 188/223/2 189/224/2 190/39/2
f 190/39/2 191/225/2 192/226/2
f 192/226/156 193/227/156 194/228/156
f 194/228/157 195/229/157 196/230/157
f 197/231/2 198/232/2 199/233/2
f 194/228/2 196/230/2 197/231/2
f 190/39/2 192/226/2 194/228/2
f 184/219/2 188/223/2 190/39/2
f 183/217/2 184/219/2 190/39/2
f 190/39/2 194/228/2 197/231/2
f 197/231/2 199/233/2 200/26/2
f 200/26/2 201/234/2 202/235/2
f 203/236/2 204/237/2 205/238/2
f 200/26/2 202/235/2 203/236/2
f 190/39/2 197/231/2 200/26/2
f 210/28/2 183/217/2 190/39/2
f 208/239/2 209/240/2 210/28/2
f 206/27/158 207/241/158 208/239/158
f 200/26/2 203/236/2 205/238/2
f 206/27/2 208/239/2 210/28/2
f 200/26/2 205/238/2 206/27/2
f 210/28/2 190/39/2 200/26/2
f 321/242/2 322/243/2 190/39/2
f 190/39/2 318/38/2 323/244/2
f 324/245/159 325/246/159 326/40/159
f 190/39/2 323/244/2 324/245/2
f 327/41/2 321/242/2 190/39/2
f 190/39/2 324/245/2 326/40/2
f 331/247/2 332/44/2 190/39/2
f 190/39/2 189/224/2 328/42/2
f 328/42/2 329/248/2 330/43/2
f 330/43/2 331/247/2 190/39/2
f 332/44/160 333/249/160 319/36/160
f 318/38/1 190/39/1 332/44/1
f 336/45/2 334/250/2 248/46/2
f 248/46/2 247/251/2 335/47/2
f 317/252/2 219/253/2 218/254/2
f 218/254/2 220/255/2 221/256/2
f 222/257/2 223/258/2 224/259/2
f 218/254/2 221/256/2 222/257/2
f 315/260/2 316/261/2 317/252/2
f 317/252/2 218/254/2 222/257/2
f 314/262/2 315/260/2 317/252/2
f 311/263/2 312/264/2 313/265/2
f 313/265/2 314/262/2 317/252/2
f 313/265/2 317/252/2 222/257/2
f 310/266/2 311/263/2 313/265/2
f 308/267/2 213/31/2 214/30/2
f 306/268/2 307/269/2 308/267/2
f 304/270/2 305/271/2 306/268/2
f 301/272/2 302/273/2 303/274/2
f 303/274/2 304/270/2 306/268/2
f 306/268/2 308/267/2 214/30/2
f 309/50/2 310/266/2 313/265/2
f 309/50/2 313/265/2 222/257/2
f 303/274/2 306/268/2 214/30/2
f 300/275/2 301/272/2 303/274/2
f 299/276/2 300/275/2 303/274/2
f 309/50/2 222/257/2 224/259/2
f 225/277/2 226/278/2 227/279/2
f 309/50/2 224/259/2 225/277/2
f 299/276/2 303/274/2 214/30/2
f 296/280/2 297/281/2 298/282/2
f 298/282/2 299/276/2 214/30/2
f 309/50/2 225/277/2 227/279/2
f 228/283/2 229/35/2 216/34/2
f 296/280/2 298/282/2 214/30/2
f 293/284/2 294/285/2 295/286/2
f 295/286/2 296/280/2 214/30/2
f 227/279/2 228/283/2 216/34/2
f 216/34/161 230/287/161 231/288/161
f 232/289/162 233/290/162 234/291/162
f 216/34/163 231/288/163 232/289/163
f 293/284/2 295/286/2 214/30/2
f 292/292/2 293/284/2 214/30/2
f 227/279/2 216/34/2 232/289/2
f 227/279/2 232/289/2 234/291/2
f 291/293/2 292/292/2 214/30/2
f 288/294/2 289/295/2 290/296/2
f 291/293/2 214/30/2 309/50/2
f 288/294/2 290/296/2 291/293/2
f 286/297/2 287/298/2 288/294/2
f 284/299/2 285/300/2 286/297/2
f 281/301/2 282/302/2 283/303/2
f 283/303/2 284/299/2 286/297/2
f 286/297/2 288/294/2 291/293/2
f 309/50/2 227/279/2 234/291/2
f 309/50/2 234/291/2 235/304/2
f 286/297/2 291/293/2 309/50/2
f 280/305/2 281/301/2 283/303/2
f 283/303/2 286/297/2 309/50/2
f 309/50/2 235/304/2 236/306/2
f 309/50/2 236/306/2 237/307/2
f 280/305/2 283/303/2 309/50/2
f 278/308/2 279/309/2 280/305/2
f 341/310/2 344/311/2 277/312/2
f 277/312/2 278/308/2 280/305/2
f 309/50/2 237/307/2 238/313/2
f 238/313/164 239/314/164 240/315/164
f 309/50/2 238/313/2 240/315/2
f 277/312/2 280/305/2 309/50/2
f 276/316/2 341/310/2 277/312/2
f 343/317/2 342/318/2 276/316/2
f 274/319/165 275/320/165 343/317/165
f 271/321/166 272/322/166 273/323/166
f 274/319/2 343/317/2 276/316/2
f 270/324/167 271/321/167 273/323/167
f 274/319/2 276/316/2 277/312/2
f 274/319/2 277/312/2 309/50/2
f 309/50/2 240/315/2 241/325/2
f 309/50/2 241/325/2 242/326/2
f 273/323/2 274/319/2 309/50/2
f 268/327/2 269/328/2 270/324/2
f 270/324/2 273/323/2 309/50/2
f 309/50/2 242/326/2 243/329/2
f 244/330/2 245/331/2 246/332/2
f 309/50/2 243/329/2 244/330/2
f 268/327/2 270/324/2 309/50/2
f 266/333/168 267/334/168 268/327/168
f 264/335/169 265/336/169 266/333/169
f 261/337/2 262/338/2 263/339/2
f 264/335/170 266/333/170 268/327/170
f 264/335/2 268/327/2 309/50/2
f 309/50/2 244/330/2 246/332/2
f 246/332/2 247/251/2 248/46/2
f 248/46/2 249/340/2 250/48/2
f 250/48/2 251/341/2 252/342/2
f 252/342/2 253/343/2 254/49/2
f 254/49/2 255/344/2 256/345/2
f 256/345/2 257/346/2 258/347/2
f 259/348/2 260/349/2 261/337/2
f 254/49/2 256/345/2 258/347/2
f 258/347/2 259/348/2 261/337/2
f 263/339/2 264/335/2 309/50/2
f 254/49/2 258/347/2 261/337/2
f 261/337/2 263/339/2 309/50/2
f 246/332/2 248/46/2 250/48/2
f 250/48/2 252/342/2 254/49/2
f 254/49/2 261/337/2 309/50/2
f 309/50/2 246/332/2 250/48/2
f 147/9/3 217/9/3 215/7/3
f 3/14/4 310/14/4 309/14/4
f 101/14/5 268/14/5 267/14/5
f 147/9/6 144/8/6 216/8/6
f 69/14/7 311/14/7 310/14/7
f 99/14/5 269/14/5 268/14/5
f 158/14/171 218/14/171 219/14/171
f 68/14/9 312/14/9 311/14/9
f 98/14/5 270/14/5 269/14/5
f 159/14/172 220/14/172 218/14/172
f 66/14/11 313/14/11 312/14/11
f 100/14/12 271/14/12 270/14/12
f 89/14/13 221/14/13 220/14/13
f 66/14/9 67/14/9 314/14/9
f 57/51/173 170/51/173 169/52/173
f 100/14/12 97/14/12 272/14/12
f 87/14/15 222/14/15 221/14/15
f 160/14/9 315/14/9 314/14/9
f 18/53/16 171/53/16 170/51/16
f 95/14/12 273/14/12 272/14/12
f 87/14/17 86/14/17 223/14/17
f 161/14/8 316/14/8 315/14/8
f 20/54/18 172/54/18 171/53/18
f 94/14/12 274/14/12 273/14/12
f 85/14/19 224/14/19 223/14/19
f 88/14/20 317/14/20 316/14/20
f 53/55/21 173/55/21 172/54/21
f 96/14/22 275/14/22 274/14/22
f 85/14/23 83/14/23 225/14/23
f 162/14/174 219/14/174 317/14/174
f 54/56/25 174/56/25 173/55/25
f 96/14/22 339/14/22 343/14/22
f 84/14/175 226/14/175 225/14/175
f 77/7/27 215/7/27 229/10/27
f 21/57/28 175/57/28 174/56/28
f 61/14/176 227/14/176 226/14/176
f 52/58/30 176/58/30 175/57/30
f 64/14/31 228/14/31 227/14/31
f 80/11/27 82/13/27 320/13/27
f 52/58/25 60/59/25 177/59/25
f 78/14/33 229/14/33 228/14/33
f 65/12/33 318/12/33 320/13/33
f 59/60/34 178/60/34 177/59/34
f 73/61/32 322/61/32 321/62/32
f 142/63/35 179/63/35 178/60/35
f 276/14/36 342/14/36 338/14/36
f 146/14/177 230/14/177 216/14/177
f 1/14/7 190/14/7 322/61/7
f 141/64/38 180/64/38 179/63/38
f 105/14/39 337/14/39 341/14/39
f 145/14/178 231/14/178 230/14/178
f 143/65/40 181/65/40 180/64/40
f 145/14/41 155/14/41 232/14/41
f 75/66/32 323/66/32 318/12/32
f 131/67/42 182/67/42 181/65/42
f 154/14/179 233/14/179 232/14/179
f 74/16/180 324/16/180 323/66/180
f 132/68/45 183/68/45 182/67/45
f 277/14/46 344/14/46 340/14/46
f 153/14/47 234/14/47 233/14/47
f 76/69/32 325/69/32 324/16/32
f 133/70/48 184/70/48 183/68/48
f 46/14/49 45/14/49 278/14/49
f 150/14/50 235/14/50 234/14/50
f 71/15/32 326/15/32 325/69/32
f 134/71/51 185/71/51 184/70/51
f 45/14/52 40/14/52 279/14/52
f 149/14/53 236/14/53 235/14/53
f 70/72/32 327/72/32 326/15/32
f 135/73/54 186/73/54 185/71/54
f 40/14/55 39/14/55 280/14/55
f 149/14/56 148/14/56 237/14/56
f 72/62/32 321/62/32 327/72/32
f 136/74/57 187/74/57 186/73/57
f 35/14/58 281/14/58 280/14/58
f 151/14/59 238/14/59 237/14/59
f 139/75/65 138/76/65 328/76/65
f 137/77/61 188/77/61 187/74/61
f 35/14/62 34/14/62 282/14/62
f 151/14/63 152/14/63 239/14/63
f 140/18/64 329/18/64 328/76/64
f 139/75/65 189/75/65 188/77/65
f 33/14/66 283/14/66 282/14/66
f 156/14/67 240/14/67 239/14/67
f 81/78/27 330/78/27 329/18/27
f 33/14/68 32/14/68 284/14/68
f 157/14/69 241/14/69 240/14/69
f 62/17/70 331/17/70 330/78/70
f 163/79/71 191/79/71 190/14/71
f 30/14/72 285/14/72 284/14/72
f 157/14/73 130/14/73 242/14/73
f 63/80/32 332/80/32 331/17/32
f 164/81/74 192/81/74 191/79/74
f 30/14/75 29/14/75 286/14/75
f 129/14/76 243/14/76 242/14/76
f 19/82/77 193/82/77 192/81/77
f 29/14/78 28/14/78 287/14/78
f 128/14/79 244/14/79 243/14/79
f 79/19/181 333/19/181 332/80/181
f 19/82/77 16/83/77 194/83/77
f 27/14/81 288/14/81 287/14/81
f 127/14/82 245/14/82 244/14/82
f 80/11/3 319/11/3 333/19/3
f 17/84/83 195/84/83 194/83/83
f 25/14/84 289/14/84 288/14/84
f 122/14/85 246/14/85 245/14/85
f 125/85/86 248/85/86 334/20/86
f 15/86/87 196/86/87 195/84/87
f 24/14/88 290/14/88 289/14/88
f 121/14/89 247/14/89 246/14/89
f 123/87/90 335/87/90 247/22/90
f 15/86/91 14/88/91 197/88/91
f 22/14/92 291/14/92 290/14/92
f 58/21/93 336/21/93 335/87/93
f 13/89/94 198/89/94 197/88/94
f 23/14/95 292/14/95 291/14/95
f 124/14/86 249/14/86 248/14/86
f 126/20/96 334/20/96 336/21/96
f 12/90/97 199/90/97 198/89/97
f 26/14/98 293/14/98 292/14/98
f 120/14/99 250/14/99 249/14/99
f 11/3/100 200/3/100 199/90/100
f 31/14/101 294/14/101 293/14/101
f 118/14/102 251/14/102 250/14/102
f 10/91/103 201/91/103 200/3/103
f 36/14/104 295/14/104 294/14/104
f 119/14/105 252/14/105 251/14/105
f 114/92/106 202/92/106 201/91/106
f 37/14/107 296/14/107 295/14/107
f 93/14/108 253/14/108 252/14/108
f 114/92/109 115/93/109 203/93/109
f 38/14/110 297/14/110 296/14/110
f 92/14/111 254/14/111 253/14/111
f 116/94/112 204/94/112 203/93/112
f 41/14/113 298/14/113 297/14/113
f 92/14/114 91/14/114 255/14/114
f 47/95/115 205/95/115 204/94/115
f 42/14/116 299/14/116 298/14/116
f 90/14/117 256/14/117 255/14/117
f 47/95/118 48/2/118 206/2/118
f 43/14/119 300/14/119 299/14/119
f 90/14/125 112/14/125 257/14/125
f 117/96/121 207/96/121 206/2/121
f 44/14/122 301/14/122 300/14/122
f 112/14/117 111/14/117 258/14/117
f 117/96/121 49/97/121 208/97/121
f 44/14/124 6/14/124 302/14/124
f 109/14/182 259/14/182 258/14/182
f 50/98/126 209/98/126 208/97/126
f 5/14/127 303/14/127 302/14/127
f 110/14/128 260/14/128 259/14/128
f 51/1/129 210/1/129 209/98/129
f 9/14/130 304/14/130 303/14/130
f 104/14/131 261/14/131 260/14/131
f 55/99/132 211/99/132 210/1/132
f 7/14/130 305/14/130 304/14/130
f 113/14/5 262/14/5 261/14/5
f 56/52/133 169/52/133 211/99/133
f 8/14/134 306/14/134 305/14/134
f 108/14/183 263/14/183 262/14/183
f 165/4/136 212/4/136 213/5/136
f 167/14/137 307/14/137 306/14/137
f 106/14/5 264/14/5 263/14/5
f 2/6/71 214/6/71 212/4/71
f 168/14/138 308/14/138 307/14/138
f 107/14/184 265/14/184 264/14/184
f 166/14/136 213/14/136 308/14/136
f 103/14/5 266/14/5 265/14/5
f 4/14/74 309/14/74 214/14/74
f 102/14/5 267/14/5 266/14/5
f 341/100/140 337/350/140 340/101/140
f 343/103/140 339/351/140 338/104/140
