# Blender 4.4.1
# www.blender.org
mtllib PoseAWall.mtl
o PoseAWall
v -1.250000 0.000000 -0.075000
v 1.250000 0.000000 -0.075000
v -1.250000 2.500000 -0.075000
v 1.250000 2.500000 -0.075000
v 0.781391 2.029025 -0.075000
v 0.707436 1.915883 -0.075000
v -0.704129 2.094231 -0.075000
v -0.746910 2.025222 -0.075000
v -0.731224 1.997781 -0.075000
v -0.676389 1.912319 -0.075000
v -0.708080 2.088160 -0.075000
v -0.725336 2.060598 -0.075000
v -0.729928 2.053935 -0.075000
v 0.687213 1.895100 -0.075000
v 0.687827 1.895691 -0.075000
v -0.673122 1.906678 -0.075000
v 0.578245 1.812838 -0.075000
v 0.070886 0.512605 -0.076777
v -0.608086 1.788316 -0.075000
v 0.580948 1.815079 -0.075000
v 0.547605 1.785357 -0.075000
v 0.375095 1.631738 -0.075000
v 0.504609 1.612987 -0.075000
v 0.647768 1.740182 -0.075000
v 0.446351 1.560860 -0.075000
v 0.298307 1.557010 -0.075000
v -0.052995 1.479077 -0.075000
v -0.297073 1.431509 -0.075000
v -0.218343 1.339050 -0.075000
v -0.205059 1.223950 -0.075000
v -0.236977 0.014741 -0.075000
v -0.238723 0.003308 -0.075000
v -0.239033 0.001282 -0.075000
v -0.064200 0.001282 -0.075000
v -0.063778 0.019736 -0.075000
v 0.241497 0.506247 -0.075000
v -0.066328 0.279269 -0.075000
v 0.070669 0.520155 -0.075000
v 0.071826 0.517183 -0.075000
v 0.071257 0.506078 -0.075000
v -0.075184 0.511367 -0.075000
v -0.060353 0.602906 -0.075000
v -0.527584 1.852614 -0.075000
v -0.527655 1.852549 -0.075000
v 0.798909 1.842589 -0.075000
v -0.026521 0.811727 -0.075000
v 0.063425 0.679471 -0.075000
v 0.067467 0.685818 -0.075000
v 0.003430 0.817214 -0.075000
v 0.033788 0.828631 -0.075000
v 0.032892 0.824466 -0.075000
v 0.122738 1.555809 -0.075000
v 0.203975 0.834304 -0.075000
v 0.209756 0.766727 -0.075000
v 0.073122 0.817433 -0.075000
v 0.093747 0.373885 -0.075000
v 0.235700 0.376477 -0.075000
v 0.235498 0.333246 -0.075000
v 0.097601 0.325627 -0.075000
v 0.225446 0.319378 -0.075000
v 0.205889 0.294933 -0.075000
v 0.154473 0.294933 -0.075000
v 0.126149 0.294933 -0.075000
v 0.106754 0.315146 -0.075000
v 0.782591 2.029442 -0.075000
v 0.781769 2.028184 -0.075000
v -0.702496 2.093956 -0.075000
v -0.703357 2.092633 -0.075000
v 0.694453 1.901433 -0.075000
v 0.694068 1.901062 -0.075000
v 0.581745 1.815572 -0.075000
v 0.579058 1.813570 -0.075000
v 0.581002 1.815019 -0.075000
v 0.580258 1.814464 -0.075000
v 0.136199 1.868507 -0.075000
v 0.079557 1.908245 -0.075000
v 0.074658 1.911681 -0.075000
v -0.000081 1.926701 -0.075000
v 0.002184 1.926238 -0.075000
v -0.002154 1.926312 -0.075000
v -0.048883 1.917738 -0.075000
v -0.075053 1.912482 -0.075000
v -0.076090 1.911754 -0.075000
v -0.136893 1.869097 -0.075000
v 0.167270 1.812672 -0.075000
v 0.169200 1.809204 -0.075000
v 0.174356 1.799935 -0.075000
v -0.172318 1.805437 -0.075000
v -0.175237 1.800191 -0.075000
v -0.161002 1.825773 -0.075000
v -0.606228 1.787661 -0.075000
v -0.607085 1.789229 -0.075000
v 0.579119 1.813499 -0.075000
v 0.579143 1.813471 -0.075000
v -0.550978 1.726277 -0.075000
v 0.185370 1.728772 -0.075000
v 0.187189 1.717240 -0.075000
v 0.174379 1.799791 -0.075000
v 0.174377 1.799799 -0.075000
v -0.430036 1.588498 -0.075000
v -0.172318 1.629043 -0.075000
v -0.175237 1.634289 -0.075000
v 0.388166 1.504164 -0.075000
v 0.389634 1.505867 -0.075000
v 0.237461 1.497568 -0.075000
v 0.257936 1.517494 -0.075000
v -0.075053 1.521998 -0.075000
v -0.076090 1.522726 -0.075000
v -0.136893 1.565383 -0.075000
v -0.389186 1.540846 -0.075000
v -0.309994 1.447844 -0.075000
v -0.052737 1.517516 -0.075000
v -0.190201 1.104626 -0.075000
v -0.183006 1.042221 -0.075000
v -0.202230 1.208850 -0.075000
v -0.184647 1.035483 -0.075000
v -0.200287 0.971288 -0.075000
v -0.200287 0.959537 -0.075000
v -0.200287 0.903713 -0.075000
v -0.196757 0.776419 -0.075000
v 0.235513 0.589896 -0.075000
v 0.235656 0.589745 -0.075000
v 0.235679 0.589615 -0.075000
v 0.235707 0.589399 -0.075000
v 0.235361 0.589395 -0.075000
v -0.211028 0.217741 -0.075000
v -0.216735 0.140227 -0.075000
v -0.234460 0.024220 -0.075000
v -0.232350 0.038030 -0.075000
v 0.816844 1.955036 -0.075000
v 0.742188 1.867304 -0.075000
v 0.815874 1.957089 -0.075000
v 0.814551 1.960236 -0.075000
v 0.800779 1.992987 -0.075000
v 0.784136 2.029979 -0.075000
v -0.700395 2.093603 -0.075000
v -0.470008 1.786126 -0.075000
v -0.349864 1.649625 -0.075000
v -0.528162 1.852087 -0.075000
v 0.647003 1.741035 -0.075000
v -0.551555 1.727015 -0.075000
v -0.209638 1.477245 -0.075000
v -0.189213 1.451991 -0.075000
v 0.052582 1.461336 -0.075000
v 0.117939 1.457859 -0.075000
v -0.126573 1.454720 -0.075000
v -0.052995 1.460875 -0.075000
v 0.202052 1.185766 -0.075000
v 0.185029 1.019682 -0.075000
v 0.203277 0.882303 -0.075000
v 0.203135 0.883615 -0.075000
v 0.194422 0.971493 -0.075000
v -0.189911 0.579077 -0.075000
v 0.227384 0.629079 -0.075000
v 0.065983 0.595514 -0.075000
v 0.065419 0.607734 -0.075000
v 0.064976 0.617324 -0.075000
v 0.067662 0.558219 -0.075000
v 0.237942 0.558254 -0.075000
v -0.193557 0.436358 -0.075000
v -0.063162 0.140227 -0.075000
v -0.675114 1.905809 -0.075000
v -0.671762 1.904093 -0.075000
v -0.736521 1.904308 -0.075000
v -0.738575 1.900030 -0.075000
v -0.746479 1.888929 -0.075000
v -0.648247 1.808720 -0.075000
v -0.638617 1.805033 -0.075000
v -0.619286 1.808819 -0.074993
v -0.729478 1.871023 -0.075000
v -0.755072 1.872192 -0.075000
v -0.750368 1.879449 -0.075000
v 0.069944 0.857284 -0.075000
v 0.073744 0.857427 -0.075000
v 0.058958 0.855570 -0.075000
v 0.069387 0.800234 -0.075000
v 0.072981 0.808445 -0.075000
v 0.209316 0.764936 -0.075000
v 0.216688 0.678321 -0.075000
v 0.067611 0.686064 -0.075000
v 0.067602 0.685872 -0.075046
v 0.084289 0.513073 -0.076906
v 0.085072 0.506141 -0.075000
v 0.084694 0.509529 -0.075922
v 0.082819 0.424391 -0.075000
v 0.239674 0.427300 -0.075000
v 0.224753 0.506242 -0.075000
v 0.239487 0.387247 -0.075000
v 0.233667 0.387233 -0.075000
v 0.094115 0.387233 -0.075000
v 0.085785 0.387254 -0.075000
v -0.063894 0.014674 -0.075000
v 0.066655 0.580581 -0.075000
v 0.066206 0.590571 -0.075000
v 0.065665 0.589723 -0.075000
v 0.066081 0.580584 -0.075000
v -0.702190 2.093322 -0.075000
v -0.701848 2.093847 -0.075000
v -0.701161 2.092426 -0.075000
v 0.696931 1.903565 -0.075000
v 0.697084 1.903712 -0.075000
v 0.702400 1.908287 -0.075000
v 0.782742 2.029109 -0.075000
v 0.783068 2.029608 -0.075000
v 0.783405 2.028861 -0.075000
v 0.296912 1.415571 -0.075000
v 0.297495 1.416248 -0.075000
v 0.216523 1.337840 -0.075000
v 0.202399 1.201556 -0.075000
v 0.194146 0.968322 -0.075000
v 0.202945 0.922355 -0.075000
v 0.202227 0.882923 -0.075000
v 0.202210 0.882249 -0.075000
v 0.202196 0.881674 -0.075000
v 0.202075 0.876743 -0.075000
v 0.201164 0.867333 -0.075000
v 0.233102 0.601887 -0.075000
v 0.233467 0.599878 -0.075000
v 0.232143 0.602901 -0.075000
v 0.201879 0.868811 -0.075000
v 0.186038 1.717240 -0.075000
v 0.186018 1.717117 -0.075000
v 0.173060 1.799750 -0.075000
v 0.173259 1.799392 -0.075000
v 0.165872 1.812672 -0.075000
v 0.173061 1.799748 -0.075000
v -0.136300 1.868909 -0.075000
v -0.160746 1.825754 -0.075000
v -0.074260 1.911209 -0.075000
v 0.000343 1.924939 -0.075000
v 0.135497 1.867257 -0.075000
v 0.074591 1.909984 -0.075000
v -0.136412 1.565045 -0.075000
v -0.136300 1.564816 -0.075000
v -0.124984 1.557028 -0.075000
v -0.179125 1.775068 -0.075000
v -0.179125 1.659414 -0.075000
v -0.188226 1.717240 -0.075000
v 0.221431 1.481878 -0.075000
v -0.175156 1.634167 -0.075000
v -0.175156 1.800314 -0.075000
v -0.138899 1.570161 -0.075000
v -0.074260 1.522193 -0.075000
v -0.052733 1.518115 -0.075000
v 0.052582 1.518241 -0.075000
v 0.124489 1.456735 -0.075000
v 0.074591 1.522530 -0.075000
v 0.192123 1.453236 -0.075000
v 0.122764 1.555889 -0.075000
v 0.121019 1.554676 -0.075000
v 0.173259 1.635088 -0.075000
v 0.135497 1.564741 -0.075000
v 0.144329 1.583100 -0.075000
v -0.605058 1.787794 -0.075000
v -0.605491 1.787400 -0.075000
v -0.605831 1.788023 -0.075000
v -0.210313 0.221687 -0.075000
v -0.204034 0.294065 -0.075000
v -0.205634 0.285229 -0.075000
v -0.193413 0.705346 -0.075000
v -0.194644 0.715499 -0.075000
v -0.196207 0.771885 -0.075000
v 0.235157 0.579771 -0.075000
v 0.235153 0.589397 -0.075000
v 0.234609 0.593596 -0.075000
v 0.234978 0.590746 -0.075000
v 0.236397 0.579784 -0.075000
v 0.070649 0.520595 -0.075000
v 0.068629 0.558212 -0.075000
v 0.070321 0.520598 -0.075000
v -0.647867 1.978438 -0.075000
v -0.639978 1.961611 -0.075000
v -0.628770 1.949792 -0.075000
v -0.626554 1.947363 -0.075000
v -0.698100 2.093102 -0.075000
v -0.699283 2.091301 -0.075000
v 0.799618 1.840500 -0.075000
v 0.736973 1.852730 -0.075000
v 0.798872 1.842594 -0.075000
v 0.798636 1.843288 -0.075000
v 0.806939 1.827042 -0.075000
v 0.217220 0.675395 -0.075000
v 0.225771 0.630784 -0.075000
v 0.217766 0.674818 -0.075000
v 0.810071 1.810149 -0.075000
v 0.808951 1.819838 -0.075000
v 0.813903 1.809763 -0.075000
v 0.658427 1.753630 -0.075000
v 0.671790 1.754669 -0.075000
v 0.664485 1.745363 -0.075000
v 0.799524 1.840673 -0.075000
v 0.692899 1.781560 -0.075000
v 0.715402 1.792881 -0.075000
v 0.771584 1.814020 -0.075000
v 0.239536 0.526183 -0.076616
v 0.238348 0.524564 -0.075992
v 0.238349 0.522014 -0.075000
v -0.066573 0.271507 -0.075000
v -0.062825 0.085087 -0.075000
v -0.062131 0.115447 -0.075000
v -0.063274 0.135316 -0.075000
v -0.063378 0.145895 -0.075000
v -0.062655 0.168823 -0.075000
v -0.064165 0.026462 -0.075000
v 0.064128 0.664242 -0.075000
v 0.731377 1.853587 -0.075000
v 0.657397 1.755035 -0.075000
v -0.187840 0.561998 -0.075000
v -0.190865 0.451222 -0.075000
v -0.186437 0.511367 -0.075000
v 0.063818 0.663754 -0.075000
v 0.065895 0.618766 -0.075000
v 0.240540 0.522036 -0.075000
v 0.235856 0.558231 -0.074999
v 0.063590 0.672881 -0.077000
v 0.067207 0.678563 -0.077000
v 0.239805 0.524546 -0.077000
v 0.239367 0.522050 -0.077000
v 0.241083 0.513457 -0.077000
v 0.070271 0.525935 -0.077000
v 0.070844 0.513201 -0.077000
v 0.072144 0.513192 -0.077000
v 0.224516 0.513453 -0.077000
v 0.064293 0.657652 -0.077000
v 0.239465 0.527169 -0.077000
v 0.084248 0.513316 -0.077000
v 0.216438 0.680717 -0.077000
v 0.218585 0.668904 -0.077000
v 0.066206 0.590571 0.075000
v 0.065665 0.589723 0.075000
v 0.065983 0.595514 0.075000
v 0.065419 0.607734 0.075000
v -0.060353 0.602906 0.075000
v -0.075184 0.511367 0.075000
v -0.066328 0.279269 0.075000
v 0.093747 0.373885 0.075000
v 0.094115 0.387233 0.075000
v 0.085785 0.387254 0.075000
v 0.082819 0.424391 0.075000
v 0.085072 0.506141 0.075000
v 0.071826 0.517183 0.075000
v 0.070669 0.520155 0.075000
v 0.070649 0.520595 0.075000
v 0.070321 0.520598 0.075000
v 0.068629 0.558212 0.075000
v 0.067662 0.558219 0.075000
v 0.066655 0.580581 0.075000
v 0.066081 0.580584 0.075000
v 0.782742 2.029109 0.075000
v 0.783068 2.029608 0.075000
v 0.783405 2.028861 0.075000
v 0.784136 2.029979 0.075000
v 0.800779 1.992987 0.075000
v 0.814551 1.960236 0.075000
v 1.250000 2.500000 0.075000
v -1.250000 2.500000 0.075000
v -0.746910 2.025222 0.075000
v -0.729928 2.053935 0.075000
v -0.725336 2.060598 0.075000
v -0.708080 2.088160 0.075000
v -0.704129 2.094231 0.075000
v -0.703357 2.092633 0.075000
v -0.702496 2.093956 0.075000
v -0.702190 2.093322 0.075000
v -0.701848 2.093847 0.075000
v -0.701161 2.092426 0.075000
v -0.700395 2.093603 0.075000
v -0.699283 2.091301 0.075000
v -0.698100 2.093102 0.075000
v -0.647867 1.978438 0.075000
v -0.639978 1.961611 0.075000
v -0.628770 1.949792 0.075000
v -0.626554 1.947363 0.075000
v -0.527584 1.852614 0.075000
v -0.527655 1.852549 0.075000
v -0.161002 1.825773 0.075000
v -0.136893 1.869097 0.075000
v -0.076090 1.911754 0.075000
v -0.075052 1.912482 0.075000
v -0.048883 1.917738 0.075000
v -0.002154 1.926312 0.075000
v -0.000081 1.926701 0.075000
v 0.002184 1.926238 0.075000
v 0.074658 1.911681 0.075000
v 0.079557 1.908245 0.075000
v 0.136199 1.868507 0.075000
v 0.167270 1.812672 0.075000
v 0.578245 1.812838 0.075000
v 0.579119 1.813499 0.075000
v 0.579058 1.813570 0.075000
v 0.588955 1.820943 0.075000
v 0.644941 1.863313 0.075000
v 0.687213 1.895100 0.075000
v 0.687827 1.895691 0.075000
v 0.694068 1.901062 0.075000
v 0.694453 1.901433 0.075000
v 0.696931 1.903565 0.075000
v 0.697084 1.903712 0.075000
v 0.702400 1.908287 0.075000
v 0.707436 1.915883 0.075000
v 0.781391 2.029025 0.075000
v 0.781769 2.028184 0.075000
v 0.782591 2.029442 0.075000
v 0.736973 1.852730 0.075000
v 0.798636 1.843288 0.075000
v 0.798872 1.842594 0.075000
v 0.798909 1.842589 0.075000
v 0.799618 1.840500 0.075000
v 0.806939 1.827042 0.075000
v 0.808951 1.819838 0.075000
v 0.813903 1.809763 0.075000
v 0.810071 1.810149 0.075000
v 0.671790 1.754669 0.075000
v 0.664485 1.745363 0.075000
v 0.658427 1.753630 0.075000
v 0.647768 1.740182 0.075000
v 0.504609 1.612987 0.075000
v 0.446351 1.560860 0.075000
v 0.389634 1.505867 0.075000
v 0.388166 1.504164 0.075000
v 0.297495 1.416248 0.075000
v 0.296912 1.415571 0.075000
v 0.216523 1.337840 0.075000
v 0.202399 1.201556 0.075000
v 0.202052 1.185766 0.075000
v 0.185029 1.019682 0.075000
v 0.194422 0.971493 0.075000
v 0.194146 0.968322 0.075000
v 0.202945 0.922355 0.075000
v 0.201879 0.868811 0.075000
v 0.201164 0.867333 0.075000
v 0.203975 0.834304 0.075000
v 0.209756 0.766727 0.075000
v 0.209316 0.764936 0.075000
v 0.216688 0.678321 0.075000
v 0.217220 0.675395 0.075000
v 0.217766 0.674818 0.075000
v 0.225771 0.630784 0.075000
v 0.227384 0.629079 0.075000
v 0.232143 0.602901 0.075000
v 0.233102 0.601887 0.075000
v 0.233468 0.599878 0.075000
v 1.250000 0.000000 0.075000
v 0.203277 0.882303 0.075000
v 0.202210 0.882249 0.075000
v 0.203135 0.883615 0.075000
v 0.202227 0.882923 0.075000
v 0.202196 0.881674 0.075000
v 0.202075 0.876743 0.075000
v 0.692899 1.781560 0.075000
v 0.771584 1.814020 0.075000
v 0.715402 1.792881 0.075000
v 0.799524 1.840673 0.075000
v 0.186038 1.717240 0.075000
v 0.173259 1.799392 0.075000
v 0.186018 1.717117 0.075000
v 0.187189 1.717240 0.075000
v 0.185370 1.728772 0.075000
v 0.174377 1.799799 0.075000
v 0.173060 1.799750 0.075000
v 0.174356 1.799935 0.075000
v 0.174379 1.799791 0.075000
v 0.169200 1.809204 0.075000
v 0.165872 1.812672 0.075000
v 0.173061 1.799748 0.075000
v 0.067602 0.685872 0.074954
v 0.067207 0.678563 0.073000
v 0.067467 0.685818 0.075000
v 0.063425 0.679471 0.075000
v 0.063590 0.672881 0.073000
v 0.070886 0.512605 0.073223
v 0.239536 0.526183 0.073384
v 0.239805 0.524546 0.073000
v 0.239367 0.522050 0.073000
v 0.238348 0.524564 0.074008
v 0.241497 0.506247 0.075000
v 0.241083 0.513457 0.073000
v 0.238349 0.522014 0.075000
v 0.070271 0.525935 0.073000
v 0.070844 0.513201 0.073000
v 0.072144 0.513192 0.073000
v 0.084694 0.509529 0.074078
v 0.224753 0.506242 0.075000
v 0.224516 0.513453 0.073000
v 0.097601 0.325627 0.075000
v -0.066573 0.271507 0.075000
v -0.062655 0.168823 0.075000
v -0.063378 0.145895 0.075000
v -0.063162 0.140227 0.075000
v -0.063274 0.135316 0.075000
v -0.062131 0.115447 0.075000
v -0.062825 0.085087 0.075000
v 0.235700 0.376477 0.075000
v 0.235498 0.333246 0.075000
v 0.225446 0.319378 0.075000
v 0.205889 0.294933 0.075000
v 0.154473 0.294933 0.075000
v 0.126149 0.294933 0.075000
v 0.106754 0.315146 0.075000
v 0.581745 1.815572 0.075000
v 0.580948 1.815079 0.075000
v 0.135497 1.867257 0.075000
v -0.160746 1.825754 0.075000
v -0.136300 1.868909 0.075000
v -0.074260 1.911209 0.075000
v 0.000343 1.924939 0.075000
v 0.074591 1.909984 0.075000
v 0.579143 1.813471 0.075000
v 0.580258 1.814464 0.075000
v 0.375095 1.631738 0.075000
v 0.547605 1.785357 0.075000
v -0.136300 1.564816 0.075000
v -0.124984 1.557028 0.075000
v -0.136412 1.565045 0.075000
v -0.136893 1.565383 0.075000
v -0.172318 1.629043 0.075000
v -0.175237 1.634289 0.075000
v -0.179125 1.659414 0.075000
v -0.188226 1.717240 0.075000
v -0.179125 1.775068 0.075000
v -0.175237 1.800191 0.075000
v -0.172318 1.805437 0.075000
v -0.528162 1.852087 0.075000
v -0.470008 1.786126 0.075000
v -0.349864 1.649625 0.075000
v -0.209638 1.477245 0.075000
v -0.189213 1.451991 0.075000
v -0.126573 1.454720 0.075000
v -0.052995 1.460875 0.075000
v -0.052995 1.479077 0.075000
v -0.052737 1.517516 0.075000
v -0.075053 1.521998 0.075000
v -0.076090 1.522726 0.075000
v 0.581002 1.815019 0.075000
v -0.239033 0.001282 0.075000
v -1.250000 0.000000 0.075000
v -0.064165 0.026462 0.075000
v -0.063778 0.019736 0.075000
v -0.063894 0.014674 0.075000
v -0.064200 0.001282 0.075000
v 0.064293 0.657652 0.073000
v 0.064128 0.664242 0.075000
v 0.816844 1.955036 0.075000
v 0.815874 1.957089 0.075000
v 0.742188 1.867304 0.075000
v 0.731377 1.853587 0.075000
v 0.237461 1.497568 0.075000
v 0.257936 1.517494 0.075000
v 0.221431 1.481878 0.075000
v 0.657397 1.755035 0.075000
v 0.647003 1.741035 0.075000
v -0.175156 1.800314 0.075000
v -0.074260 1.522193 0.075000
v -0.052733 1.518115 0.075000
v -0.175156 1.634167 0.075000
v -0.138899 1.570161 0.075000
v 0.135497 1.564741 0.075000
v 0.122764 1.555889 0.075000
v 0.122738 1.555809 0.075000
v 0.121019 1.554676 0.075000
v 0.074591 1.522530 0.075000
v 0.052582 1.518241 0.075000
v 0.052582 1.461336 0.075000
v 0.117939 1.457859 0.075000
v 0.124489 1.456735 0.075000
v 0.192123 1.453236 0.075000
v 0.298307 1.557010 0.075000
v 0.239465 0.527169 0.073000
v -0.605491 1.787400 0.075000
v -0.605831 1.788023 0.075000
v -0.606228 1.787661 0.075000
v -0.607085 1.789229 0.075000
v -0.608086 1.788316 0.075000
v -0.619286 1.808819 0.075007
v -0.638617 1.805033 0.075000
v -0.648247 1.808720 0.075000
v -0.729478 1.871023 0.075000
v -0.755072 1.872192 0.075000
v -0.750368 1.879449 0.075000
v -0.746479 1.888929 0.075000
v -0.738575 1.900030 0.075000
v -0.736521 1.904308 0.075000
v -0.675114 1.905809 0.075000
v -0.671762 1.904093 0.075000
v -0.673122 1.906678 0.075000
v -0.676389 1.912319 0.075000
v -0.731224 1.997781 0.075000
v -0.238723 0.003308 0.075000
v -0.236976 0.014741 0.075000
v -0.234460 0.024220 0.075000
v -0.232350 0.038030 0.075000
v -0.216735 0.140227 0.075000
v -0.211028 0.217741 0.075000
v -0.210313 0.221687 0.075000
v -0.205634 0.285229 0.075000
v -0.204034 0.294065 0.075000
v -0.193557 0.436358 0.075000
v -0.190865 0.451222 0.075000
v -0.186437 0.511367 0.075000
v -0.187840 0.561998 0.075000
v -0.189911 0.579077 0.075000
v -0.193413 0.705346 0.075000
v -0.194644 0.715499 0.075000
v -0.196207 0.771885 0.075000
v -0.196757 0.776419 0.075000
v -0.200287 0.903713 0.075000
v -0.200287 0.959537 0.075000
v -0.200287 0.971288 0.075000
v -0.184647 1.035483 0.075000
v -0.183006 1.042221 0.075000
v -0.190201 1.104626 0.075000
v -0.202230 1.208850 0.075000
v -0.205059 1.223950 0.075000
v -0.218343 1.339050 0.075000
v -0.297073 1.431509 0.075000
v -0.309994 1.447844 0.075000
v -0.389186 1.540846 0.075000
v -0.430036 1.588498 0.075000
v -0.550978 1.726277 0.075000
v -0.551555 1.727015 0.075000
v -0.605058 1.787794 0.075000
v 0.084248 0.513316 0.073000
v 0.084289 0.513073 0.073094
v 0.067612 0.686064 0.075000
v 0.063818 0.663754 0.075000
v 0.065895 0.618766 0.075000
v 0.069387 0.800234 0.075000
v 0.072981 0.808445 0.075000
v 0.073122 0.817433 0.075000
v 0.073744 0.857427 0.075000
v 0.069944 0.857284 0.075000
v 0.058958 0.855570 0.075000
v 0.033788 0.828631 0.075000
v 0.032892 0.824466 0.075000
v 0.003430 0.817214 0.075000
v -0.026521 0.811727 0.075000
v 0.064976 0.617324 0.075000
v 0.216438 0.680717 0.073000
v 0.218585 0.668904 0.073000
v 0.235513 0.589896 0.075000
v 0.234978 0.590746 0.075000
v 0.235656 0.589745 0.075000
v 0.235679 0.589615 0.075000
v 0.235707 0.589399 0.075000
v 0.235361 0.589395 0.075000
v 0.235153 0.589397 0.075000
v 0.236397 0.579784 0.075000
v 0.235157 0.579771 0.075000
v 0.237942 0.558254 0.075000
v 0.235856 0.558231 0.075001
v 0.240540 0.522036 0.075000
v 0.239674 0.427300 0.075000
v 0.239487 0.387247 0.075000
v 0.233667 0.387233 0.075000
v 0.234609 0.593596 0.075000
v -0.064202 0.000000 -0.075000
v -0.064202 0.001282 -0.075000
v -0.064202 0.000000 0.075000
v -0.064202 0.001282 0.075000
v -0.239178 0.000000 -0.075000
v -0.239020 0.001282 -0.075000
v -0.238880 0.002422 -0.075000
v -0.238859 0.002419 -0.075000
v -0.238968 0.001706 -0.075000
v -0.239178 0.000000 0.075000
v -0.239020 0.001282 0.075000
v -0.238880 0.002422 0.075000
v -0.238859 0.002419 0.075000
v -0.238968 0.001706 0.075000
vn -0.0000 -0.0000 -1.0000
vn -0.0000 -0.0000 1.0000
vn -0.0000 0.0001 -1.0000
vn -0.4030 0.2566 -0.8785
vn -0.5347 -0.2082 0.8190
vn 0.5655 -0.0991 0.8187
vn -0.9284 0.0475 0.3684
vn 0.8761 0.1749 0.4493
vn -0.9967 -0.0448 0.0684
vn -0.0024 -0.3509 -0.9364
vn 0.0012 -0.2626 -0.9649
vn 0.0001 -0.2673 -0.9636
vn -0.9120 -0.4103 -0.0000
vn -0.9965 -0.0460 0.0696
vn -0.0000 0.0007 -1.0000
vn -0.0000 -0.0001 -1.0000
vn 0.9812 0.1270 0.1455
vn 0.0037 -0.3624 -0.9320
vn -0.3969 0.2338 -0.8876
vn 0.9798 0.1781 0.0906
vn 0.4030 -0.2566 0.8785
vn 0.5347 0.2082 -0.8190
vn -0.5655 0.0991 -0.8187
vn -0.8761 -0.1749 -0.4493
vn 0.9967 0.0448 -0.0684
vn -0.0001 0.2673 0.9636
vn -0.0000 -0.0005 -1.0000
vn -0.0000 -0.0001 1.0000
vn -0.0000 0.0001 1.0000
vn 0.9965 0.0460 -0.0696
vn 0.0001 -0.0000 1.0000
vn -0.0000 0.0006 1.0000
vn -0.9812 -0.1270 -0.1455
vn 0.3969 -0.2337 0.8876
vn 0.0064 0.9377 0.3474
vn -0.9798 -0.1781 -0.0906
vn -0.0000 -1.0000 -0.0000
vn -0.6915 -0.7223 -0.0000
vn 0.7515 0.6597 -0.0000
vn -0.9997 0.0229 -0.0000
vn 0.9985 -0.0539 -0.0000
vn -0.6756 0.7372 -0.0000
vn 0.7877 0.6160 -0.0000
vn -0.9983 -0.0574 -0.0000
vn 0.7506 0.6607 -0.0000
vn -0.6730 0.7396 -0.0000
vn -0.0102 0.9999 -0.0000
vn -0.0000 1.0000 -0.0000
vn 0.8435 -0.5371 -0.0000
vn 0.9856 0.1689 -0.0000
vn 0.9987 -0.0501 -0.0000
vn -0.9850 0.1727 -0.0000
vn 0.9935 0.1134 -0.0000
vn 0.9989 0.0461 -0.0000
vn 0.8062 -0.5917 -0.0000
vn 0.8436 -0.5370 -0.0000
vn 0.9999 -0.0156 -0.0000
vn 0.9161 -0.4010 -0.0000
vn 0.9999 -0.0157 -0.0000
vn 1.0000 0.0003 -0.0000
vn 0.6037 -0.7972 -0.0000
vn -0.9806 -0.1958 -0.0000
vn 0.7580 0.6522 -0.0000
vn -0.0377 0.9993 -0.0000
vn -0.9997 -0.0250 -0.0000
vn 0.9990 0.0450 -0.0000
vn 0.5974 -0.8019 -0.0000
vn -0.1541 0.9881 -0.0000
vn -0.9042 -0.4272 -0.0000
vn -0.9975 -0.0705 -0.0000
vn -0.7307 0.6827 -0.0000
vn -0.7616 0.6481 -0.0000
vn 0.6010 -0.7992 -0.0000
vn -0.9776 0.2104 -0.0000
vn -0.7854 0.6190 -0.0000
vn 0.0069 1.0000 -0.0000
vn 0.6933 -0.7206 -0.0000
vn -0.2390 0.9710 -0.0000
vn -0.1514 -0.9885 -0.0000
vn 0.6523 -0.7580 -0.0000
vn -0.1802 0.9836 -0.0000
vn -0.9218 -0.3876 -0.0000
vn 0.6933 -0.7207 -0.0000
vn -0.9871 0.1599 -0.0000
vn 0.9938 0.1108 -0.0000
vn -0.9995 -0.0328 -0.0000
vn 0.6929 -0.7211 -0.0000
vn 0.6983 -0.7158 -0.0000
vn -0.9839 -0.1788 -0.0000
vn 0.8066 0.5912 -0.0000
vn -0.0003 1.0000 -0.0000
vn 0.8335 -0.5525 -0.0000
vn 0.9786 0.2058 -0.0000
vn -0.8029 0.5961 -0.0000
vn 0.9968 0.0796 -0.0000
vn 0.8370 -0.5471 -0.0000
vn 0.9946 0.1040 -0.0000
vn -0.7445 -0.6677 -0.0000
vn -0.9995 0.0315 -0.0000
vn -0.9118 -0.4105 -0.0000
vn -0.8467 -0.5321 -0.0000
vn 0.8701 -0.4929 -0.0000
vn -0.9993 -0.0381 -0.0000
vn 0.8371 -0.5470 -0.0000
vn -0.7266 -0.6871 -0.0000
vn 0.9879 -0.1553 -0.0000
vn -0.9117 -0.4108 -0.0000
vn -0.9839 -0.1789 -0.0000
vn 0.1861 0.9825 -0.0000
vn -0.9917 -0.1283 -0.0000
vn 0.5661 0.8243 -0.0000
vn -0.9469 -0.3215 -0.0000
vn -0.0103 0.9999 -0.0000
vn 1.0000 -0.0067 -0.0000
vn 0.0053 1.0000 -0.0000
vn 0.9879 0.1553 -0.0000
vn 0.8993 0.4373 -0.0000
vn -0.8785 -0.4778 -0.0000
vn -0.0110 0.9999 -0.0000
vn 0.8701 0.4929 -0.0000
vn -0.9631 -0.2691 -0.0000
vn -0.9011 0.4335 -0.0000
vn -1.0000 0.0047 -0.0000
vn -0.8975 -0.4411 -0.0000
vn -0.0109 0.9999 -0.0000
vn -0.5708 0.8211 -0.0000
vn -0.8097 0.5869 -0.0000
vn 0.1001 0.9950 -0.0000
vn -0.9516 0.3075 -0.0000
vn -0.7809 0.6247 -0.0000
vn -0.5501 0.8351 -0.0000
vn -0.9826 -0.1857 -0.0000
vn -0.5692 0.8222 -0.0000
vn -0.1913 0.9815 -0.0000
vn 0.7215 0.6924 -0.0000
vn -0.0025 1.0000 -0.0000
vn -1.0000 -0.0000 -0.0000
vn 0.7532 0.6578 -0.0000
vn -0.0531 -0.9986 -0.0000
vn -0.5974 0.8019 -0.0000
vn -0.1692 -0.9856 -0.0000
vn -0.6692 0.7431 -0.0000
vn -0.7866 0.6175 -0.0000
vn -0.0517 -0.9987 -0.0000
vn 0.8066 0.5911 -0.0000
vn 0.6989 -0.7152 -0.0000
vn 0.6995 -0.7146 -0.0000
vn -0.6642 0.7476 -0.0000
vn 0.6974 -0.7167 -0.0000
vn -0.6668 0.7452 -0.0000
vn -0.9881 0.1537 -0.0000
vn 0.8646 0.5025 -0.0000
vn -0.6961 0.7179 -0.0000
vn -0.7574 0.6530 -0.0000
vn -0.9917 -0.1284 -0.0000
vn 0.9974 0.0716 -0.0000
vn 0.8777 0.4792 -0.0000
vn -0.6951 0.7189 -0.0000
vn -0.6732 0.7395 -0.0000
vn -0.8738 -0.4862 -0.0000
vn -0.9947 0.1031 -0.0000
vn 0.8775 0.4795 -0.0000
vn -0.9998 0.0220 -0.0000
vn -0.6736 0.7391 -0.0000
vn -0.9948 0.1020 -0.0000
vn 0.8776 0.4794 -0.0000
vn 0.5633 -0.8262 -0.0000
vn -0.9815 -0.1913 -0.0000
vn -0.1922 0.9814 -0.0000
vn 0.1810 -0.9835 -0.0000
vn -0.9962 0.0868 -0.0000
vn 0.3575 0.9339 -0.0000
vn -0.1974 -0.9803 -0.0000
vn -0.9822 -0.1880 -0.0000
vn 0.6086 0.7935 -0.0000
vn -0.5743 -0.8186 -0.0000
vn -0.9998 0.0199 -0.0000
vn 0.0456 0.9990 -0.0000
vn 0.7578 0.6525 -0.0000
vn -0.9002 0.4355 -0.0000
vn 0.8391 -0.5439 -0.0000
vn 0.5975 -0.8018 -0.0000
vn -0.9964 -0.0848 -0.0000
vn 0.9252 -0.3795 -0.0000
vn 0.6653 -0.7465 -0.0000
vn -0.9964 -0.0852 -0.0000
vn 0.8146 -0.5800 -0.0000
vn -0.9712 0.2381 -0.0000
vn 0.9996 -0.0275 -0.0000
vn 0.9015 -0.4328 -0.0000
vn 0.6650 -0.7468 -0.0000
vn 0.0025 1.0000 -0.0000
vn 0.0244 -0.9997 -0.0000
vn 0.6654 -0.7465 -0.0000
vn -0.4556 -0.8902 -0.0000
vn 0.5669 0.8238 -0.0000
vn -0.7264 -0.6873 -0.0000
vn 0.8849 0.4659 -0.0000
vn 0.8992 0.4376 -0.0000
vn 0.8654 0.5011 -0.0000
vn 0.8416 0.5400 -0.0000
vn 0.8682 0.4963 -0.0000
vn 0.0067 1.0000 -0.0000
vn 0.9885 -0.1510 -0.0000
vn 0.9878 0.1555 -0.0000
vn 0.9878 -0.1555 -0.0000
vn 1.0000 -0.0000 -0.0000
vn 0.0070 1.0000 -0.0000
vn 0.9665 -0.2566 -0.0000
vn 0.0498 -0.9988 -0.0000
vn 0.9942 0.1078 -0.0000
vn 0.9990 0.0454 -0.0000
vn 0.9973 -0.0734 -0.0000
vn -0.6735 0.7392 -0.0000
vn 0.8372 -0.5469 -0.0000
vn 0.9840 -0.1782 -0.0000
vn -0.7501 -0.6613 -0.0000
vn -0.9997 0.0246 -0.0000
vn -0.7506 -0.6607 -0.0000
vn 0.8370 -0.5472 -0.0000
vn -0.7757 -0.6310 -0.0000
vn -0.7775 -0.6289 -0.0000
vn 0.0435 -0.9991 -0.0000
vn 0.9997 -0.0246 -0.0000
vn 0.0834 -0.9965 -0.0000
vn 0.9996 0.0277 -0.0000
vn 0.9927 0.1204 -0.0000
vn -0.3522 0.9359 -0.0000
vn -0.4494 0.8933 -0.0000
vn 0.8607 -0.5091 -0.0000
vn 0.8234 -0.5674 -0.0000
vn 0.8476 -0.5307 -0.0000
vn -0.7469 -0.6649 -0.0000
vn -0.9881 -0.1537 -0.0000
vn 0.8382 -0.5454 -0.0000
vn 0.5973 -0.8020 -0.0000
vn -0.9878 0.1556 -0.0000
vn -0.9003 -0.4353 -0.0000
vn -0.9003 -0.4352 -0.0000
vn 0.9716 -0.2367 -0.0000
vn 0.8382 -0.5453 -0.0000
vn 0.9934 0.1145 -0.0000
vn 0.9934 0.1147 -0.0000
vn -0.8738 -0.4863 -0.0000
vn 0.9829 0.1841 -0.0000
vn 0.8359 -0.5488 -0.0000
vn -0.9160 -0.4013 -0.0000
vn 0.7614 0.6483 -0.0000
vn -0.9054 -0.4245 -0.0000
vn 0.7843 0.6204 -0.0000
vn -0.7256 -0.6881 -0.0000
vn -0.8739 -0.4862 -0.0000
vn -0.7388 -0.6739 -0.0000
vn 0.7592 0.6508 -0.0000
vn 0.9925 -0.1219 -0.0000
vn -0.1219 -0.9925 -0.0000
vn 0.0139 -0.0000 -0.9999
vn 0.6035 -0.7974 -0.0006
vn -0.6927 0.7200 -0.0425
vn 0.0002 -0.0005 -1.0000
vn -0.0000 0.0008 -1.0000
vn 0.6026 -0.7981 -0.0000
vn -0.0000 -0.0006 -1.0000
vn -0.0000 0.0013 -1.0000
vn 0.0001 -0.0000 -1.0000
vn -0.0000 0.0156 -0.9999
vn -0.0001 0.0001 -1.0000
vn -0.0004 -0.0000 -1.0000
vn -0.0003 -0.0000 -1.0000
vn 0.1696 0.0461 -0.9844
vn -0.0000 0.0004 -1.0000
vn 0.0003 0.0005 -1.0000
vn -0.0000 0.0002 -1.0000
vn -0.0665 -0.0000 -0.9978
vn -0.0000 0.0250 -0.9997
vn -0.0449 -0.0000 -0.9990
vn -0.1493 0.0154 -0.9887
vn -0.1599 0.0231 -0.9869
vn -0.0000 0.9576 -0.2882
vn -0.0001 -0.0000 -1.0000
vn -0.0014 -0.0001 -1.0000
vn 0.9924 0.1233 -0.0000
vn 0.0023 0.0003 -1.0000
vn -0.9967 -0.0448 0.0683
vn -0.0000 -0.0006 1.0000
vn -0.0000 0.0008 1.0000
vn -0.0000 0.0052 -1.0000
vn 0.0005 -0.0000 -1.0000
vn -0.0000 -0.0068 -1.0000
vn -0.0000 0.0712 -0.9975
vn -0.0000 0.0039 -1.0000
vn 0.0037 -0.3623 -0.9320
vn 0.0001 -0.0002 1.0000
vn -0.8738 0.4862 0.0081
vn 0.0923 -0.8769 0.4717
vn -0.0001 -0.0000 1.0000
vn -0.9434 0.3198 -0.0875
vn -0.0000 -0.0057 1.0000
vn 0.4031 -0.2565 0.8785
vn 0.9966 0.0448 -0.0685
vn -0.0000 0.0065 -1.0000
vn -0.0009 0.0096 1.0000
vn -0.0006 -0.0000 1.0000
vn -0.0000 -0.0052 1.0000
vn -0.0197 -0.0089 0.9998
vn -0.0032 0.3506 0.9365
vn -0.0037 0.3623 0.9320
vn -0.6734 0.7393 -0.0000
vn 0.7876 0.6162 -0.0000
vn -0.6737 0.7390 -0.0000
vn 0.9856 0.1690 -0.0000
vn 0.6034 -0.7974 -0.0000
vn -0.0378 0.9993 -0.0000
vn -0.9041 -0.4273 -0.0000
vn 0.6931 -0.7209 -0.0000
vn -0.1513 -0.9885 -0.0000
vn 0.6938 -0.7201 -0.0000
vn 0.8066 0.5910 -0.0000
vn -0.9119 -0.4104 -0.0000
vn -0.8466 -0.5322 -0.0000
vn -0.7266 -0.6870 -0.0000
vn -0.9838 -0.1791 -0.0000
vn 0.1862 0.9825 -0.0000
vn 0.0057 1.0000 -0.0000
vn -0.0112 0.9999 -0.0000
vn -0.5502 0.8350 -0.0000
vn -0.5693 0.8222 -0.0000
vn -0.6694 0.7429 -0.0000
vn -0.0000 -0.0004 1.0000
vn 0.6968 -0.0000 -0.7173
vn -0.0000 -0.0312 0.9995
vn -0.5024 -0.2213 0.8358
vn 0.0007 -0.0001 1.0000
vn -0.0001 0.0001 1.0000
vn 0.5532 -0.1433 0.8206
vn -0.0012 0.2626 0.9649
vn -0.1228 0.0034 0.9924
vn -0.0417 0.0145 0.9990
vn 0.9984 0.0572 -0.0000
vn -0.0000 0.2659 0.9640
vn -0.0003 -0.0005 1.0000
vn 0.0003 -0.0000 1.0000
vn 0.0004 -0.0000 1.0000
vn -0.1697 0.0154 -0.9854
vn 0.0006 0.0004 1.0000
vn 0.0005 0.0001 1.0000
vn -0.0895 -0.0000 0.9960
vn -0.0000 -0.0012 1.0000
vn -0.0000 0.0016 1.0000
vn -0.0000 0.0535 -0.9986
vn -0.7573 0.6530 -0.0000
vn -0.6733 0.7394 -0.0000
vn -0.1975 -0.9803 -0.0000
vn -0.9001 0.4356 -0.0000
vn 0.8391 -0.5440 -0.0000
vn 0.5974 -0.8020 -0.0000
vn -0.4555 -0.8902 -0.0000
vn 0.8849 0.4658 -0.0000
vn -0.7263 -0.6873 -0.0000
vn 0.8368 -0.5475 -0.0000
vn -0.9002 0.4356 -0.0000
vn 0.5976 -0.8018 -0.0000
vn -0.9877 0.1561 -0.0000
vn 0.8383 -0.5451 -0.0000
vn -0.9002 -0.4355 -0.0000
vn 0.8383 -0.5453 -0.0000
vn 0.8360 -0.5487 -0.0000
vn -0.7388 -0.6740 -0.0000
vt 0.027509 0.022516
vt 0.028386 0.024087
vt 0.029439 0.022773
vt 0.026545 0.024087
vt 0.019275 0.024087
vt 0.076847 0.537516
vt 0.075998 0.538048
vt 0.075164 0.538534
vt 0.239082 0.626168
vt 0.240501 0.627200
vt 0.238303 0.625633
vt 0.467832 0.732312
vt 0.467800 0.732083
vt 0.467720 0.732154
vt 0.467630 0.734170
vt 0.467733 0.733097
vt 0.467543 0.733709
vt 0.022430 0.001832
vt 0.024056 0.001239
vt 0.024063 0.001259
vt 0.076590 0.537593
vt 0.076579 0.537586
vt 0.076578 0.537594
vt 0.015831 0.020442
vt 0.015836 0.020453
vt 0.015761 0.020439
vt 0.076584 0.537581
vt 0.015907 0.020466
vt 0.014336 0.021410
vt 0.076569 0.537575
vt 0.076562 0.537576
vt 0.076580 0.537596
vt 0.076561 0.537585
vt 0.076504 0.537563
vt 0.012478 0.020640
vt 0.014767 0.020594
vt 0.458982 0.394297
vt 0.459195 0.394170
vt 0.086644 0.332619
vt 0.467776 0.732866
vt 0.467772 0.733399
vt 0.508397 0.763668
vt 0.498827 0.747766
vt 0.495887 0.750255
vt 0.308439 0.639189
vt 0.316476 0.671544
vt 0.297194 0.663086
vt 0.896711 0.079395
vt 0.896710 0.079410
vt 0.896696 0.079425
vt 0.902796 0.951786
vt 0.902261 0.952796
vt 0.975497 0.999882
vt 0.467812 0.731571
vt 0.467769 0.731549
vt 0.467801 0.731560
vt 0.019823 0.005912
vt 0.022711 0.000696
vt 0.467753 0.731547
vt 0.467776 0.731551
vt 0.535216 0.775745
vt 0.529049 0.772734
vt 0.534598 0.775395
vt 0.549983 0.773724
vt 0.549954 0.773687
vt 0.549691 0.773921
vt 0.549412 0.774439
vt 0.548006 0.774675
vt 0.548053 0.774731
vt 0.015922 0.020478
vt 0.015840 0.020470
vt 0.076541 0.537586
vt 0.024087 0.001261
vt 0.076527 0.537573
vt 0.007933 0.026697
vt 0.006718 0.026643
vt 0.006765 0.026763
vt 0.027393 0.024087
vt 0.467796 0.731527
vt 0.467700 0.731170
vt 0.468292 0.731141
vt 0.245641 0.614601
vt 0.247252 0.615091
vt 0.247292 0.615151
vt 0.468894 0.730598
vt 0.468322 0.730964
vt 0.468499 0.730987
vt 0.469600 0.729979
vt 0.469002 0.730381
vt 0.469969 0.729841
vt 0.023148 0.018070
vt 0.024048 0.018680
vt 0.022654 0.018734
vt 0.077040 0.537035
vt 0.077043 0.537046
vt 0.077030 0.537029
vt 0.015949 0.002191
vt 0.016000 0.002169
vt 0.015983 0.002216
vt 0.014882 0.001909
vt 0.014532 0.001016
vt 0.077012 0.537025
vt 0.012478 0.001516
vt 0.012978 0.002075
vt 0.910898 0.087422
vt 0.911056 0.087136
vt 0.468955 0.730504
vt 0.499210 0.748469
vt 0.518710 0.746584
vt 0.499323 0.744618
vt 0.910880 0.087450
vt 0.910886 0.087431
vt 0.906498 0.945791
vt 0.907971 0.943512
vt 0.906974 0.945023
vt 0.022329 0.017606
vt 0.020867 0.015849
vt 0.021046 0.014699
vt 0.467796 0.731449
vt 0.467801 0.731471
vt 0.467800 0.731418
vt 0.536077 0.757547
vt 0.542299 0.760326
vt 0.541655 0.760082
vt 0.550393 0.772801
vt 0.550345 0.772804
vt 0.550353 0.772869
vt 0.549797 0.770677
vt 0.550545 0.771897
vt 0.550840 0.771796
vt 0.016054 0.002232
vt 0.024063 0.018665
vt 0.024087 0.018674
vt 0.076996 0.536986
vt 0.077019 0.537022
vt 0.077040 0.537041
vt 0.006718 0.002746
vt 0.008029 0.002947
vt 0.006785 0.003101
vt 0.999638 0.994630
vt 0.000118 0.502663
vt 0.084771 0.541481
vt 0.085547 0.540769
vt 0.591011 0.801070
vt 0.579036 0.782086
vt 0.596831 0.788735
vt 0.786067 0.896377
vt 0.801977 0.899107
vt 0.800447 0.901467
vt 0.080659 0.538033
vt 0.080879 0.540325
vt 0.080085 0.539387
vt 0.023118 0.001451
vt 0.573052 0.791099
vt 0.573959 0.791846
vt 0.785255 0.896590
vt 0.789775 0.889869
vt 0.082893 0.538615
vt 0.082033 0.538007
vt 0.779709 0.893794
vt 0.789458 0.889103
vt 0.083728 0.539269
vt 0.081777 0.540644
vt 0.779260 0.893367
vt 0.784104 0.885970
vt 0.083612 0.541297
vt 0.082692 0.540922
vt 0.077018 0.537011
vt 0.076564 0.537597
vt 0.084951 0.540159
vt 0.084043 0.541365
vt 0.076965 0.536961
vt 0.076949 0.537487
vt 0.077055 0.537372
vt 0.076945 0.537505
vt 0.076964 0.537486
vt 0.077039 0.537374
vt 0.076989 0.537456
vt 0.077032 0.537429
vt 0.076981 0.537474
vt 0.077017 0.537431
vt 0.077016 0.537429
vt 0.076995 0.537457
vt 0.076992 0.537456
vt 0.020600 0.007898
vt 0.016058 0.002035
vt 0.662952 0.500501
vt 0.675324 0.507640
vt 0.662815 0.500562
vt 0.076994 0.537454
vt 0.077018 0.537433
vt 0.015874 0.002112
vt 0.662954 0.500482
vt 0.675318 0.507474
vt 0.076995 0.537455
vt 0.077015 0.537432
vt 0.002676 0.045497
vt 0.002676 0.002406
vt 0.002225 0.002713
vt 0.076996 0.537456
vt 0.077016 0.537433
vt 0.261489 0.638877
vt 0.278514 0.627975
vt 0.269826 0.645351
vt 0.076995 0.537455
vt 0.077017 0.537434
vt 0.249070 0.628747
vt 0.268557 0.625166
vt 0.380797 0.688935
vt 0.392059 0.687501
vt 0.396477 0.692719
vt 0.076996 0.537458
vt 0.077017 0.537432
vt 0.248054 0.628477
vt 0.253283 0.620954
vt 0.380965 0.688325
vt 0.076996 0.537460
vt 0.077020 0.537432
vt 0.252557 0.620061
vt 0.252489 0.620323
vt 0.380692 0.688272
vt 0.390074 0.687487
vt 0.076998 0.537465
vt 0.077023 0.537429
vt 0.289966 0.631363
vt 0.279542 0.652700
vt 0.387903 0.686640
vt 0.388648 0.686780
vt 0.076928 0.537485
vt 0.077028 0.537428
vt 0.076486 0.537540
vt 0.076826 0.536875
vt 0.076828 0.536870
vt 0.380404 0.688537
vt 0.380571 0.688448
vt 0.076923 0.537504
vt 0.077050 0.537329
vt 0.076894 0.537512
vt 0.012979 0.020436
vt 0.380334 0.688653
vt 0.386974 0.686285
vt 0.077050 0.537353
vt 0.380023 0.688714
vt 0.386489 0.686168
vt 0.212784 0.609374
vt 0.216873 0.602797
vt 0.213076 0.609296
vt 0.379634 0.688752
vt 0.384981 0.685613
vt 0.211413 0.609204
vt 0.216738 0.602512
vt 0.075483 0.538028
vt 0.077255 0.535555
vt 0.369295 0.688520
vt 0.383335 0.684914
vt 0.007811 0.026632
vt 0.007905 0.002510
vt 0.211110 0.609379
vt 0.215789 0.601421
vt 0.077178 0.537877
vt 0.077211 0.537106
vt 0.363553 0.683073
vt 0.369807 0.681207
vt 0.118074 0.555000
vt 0.119071 0.555815
vt 0.118758 0.554855
vt 0.528953 0.773479
vt 0.077470 0.537218
vt 0.077722 0.537179
vt 0.351657 0.682952
vt 0.362240 0.679791
vt 0.118439 0.554968
vt 0.118679 0.555302
vt 0.545205 0.762751
vt 0.538969 0.776423
vt 0.078180 0.537348
vt 0.077563 0.537528
vt 0.345958 0.677448
vt 0.355342 0.670497
vt 0.114586 0.556212
vt 0.117639 0.555109
vt 0.550007 0.773649
vt 0.078808 0.537680
vt 0.078093 0.537959
vt 0.242026 0.628186
vt 0.247852 0.628711
vt 0.111536 0.557317
vt 0.117020 0.552498
vt 0.079164 0.537721
vt 0.078707 0.538258
vt 0.240577 0.627195
vt 0.248889 0.615675
vt 0.110593 0.557561
vt 0.115597 0.550026
vt 0.550278 0.772869
vt 0.549957 0.773594
vt 0.079411 0.538852
vt 0.078946 0.538502
vt 0.109666 0.557856
vt 0.115077 0.549325
vt 0.546710 0.774733
vt 0.549870 0.770679
vt 0.079762 0.537855
vt 0.113008 0.546847
vt 0.114598 0.548599
vt 0.549531 0.774722
vt 0.550591 0.771996
vt 0.549516 0.774407
vt 0.234518 0.622859
vt 0.244780 0.614324
vt 0.106278 0.558224
vt 0.107191 0.558087
vt 0.231236 0.620341
vt 0.240489 0.612914
vt 0.109557 0.544145
vt 0.112420 0.546246
vt 0.467846 0.731659
vt 0.467833 0.731630
vt 0.467767 0.731547
vt 0.081999 0.547911
vt 0.085530 0.533755
vt 0.089149 0.535492
vt 0.227364 0.617309
vt 0.236664 0.611826
vt 0.102104 0.557582
vt 0.102703 0.557650
vt 0.467824 0.731615
vt 0.074807 0.545898
vt 0.078147 0.545911
vt 0.226389 0.617396
vt 0.232125 0.610546
vt 0.104824 0.541689
vt 0.109040 0.543889
vt 0.467825 0.731605
vt 0.467778 0.731544
vt 0.071100 0.545088
vt 0.083649 0.531817
vt 0.096760 0.555620
vt 0.097593 0.555860
vt 0.467820 0.731589
vt 0.467787 0.731540
vt 0.072106 0.541818
vt 0.081088 0.529839
vt 0.087613 0.550388
vt 0.101329 0.540868
vt 0.094452 0.554068
vt 0.467799 0.731538
vt 0.077864 0.533499
vt 0.078742 0.531834
vt 0.090310 0.535593
vt 0.094398 0.537746
vt 0.467812 0.731565
vt 0.467798 0.731537
vt 0.074249 0.539180
vt 0.073362 0.540115
vt 0.082878 0.548243
vt 0.083022 0.548600
vt 0.467808 0.731560
vt 0.467801 0.731537
vt 0.077424 0.534553
vt 0.089972 0.535824
vt 0.467798 0.731535
vt 0.896875 0.079112
vt 0.119892 0.554754
vt 0.120796 0.557826
vt 0.121582 0.554458
vt 0.467806 0.731555
vt 0.675273 0.507731
vt 0.662763 0.500653
vt 0.213659 0.610015
vt 0.219336 0.603231
vt 0.214835 0.610984
vt 0.119801 0.556576
vt 0.467788 0.731549
vt 0.467797 0.731515
vt 0.217848 0.602858
vt 0.467797 0.731495
vt 0.467701 0.731548
vt 0.197436 0.600798
vt 0.215733 0.601069
vt 0.467515 0.731551
vt 0.467787 0.731323
vt 0.190382 0.598477
vt 0.200933 0.594420
vt 0.467876 0.732041
vt 0.467876 0.731721
vt 0.468329 0.731100
vt 0.183746 0.595506
vt 0.195145 0.589782
vt 0.675332 0.507465
vt 0.183003 0.595036
vt 0.189055 0.585833
vt 0.174421 0.589141
vt 0.188262 0.585484
vt 0.173289 0.589145
vt 0.178734 0.581414
vt 0.779059 0.892972
vt 0.783504 0.885883
vt 0.166829 0.584219
vt 0.178108 0.580494
vt 0.778721 0.892856
vt 0.783079 0.885965
vt 0.467102 0.735256
vt 0.477713 0.728063
vt 0.469018 0.741169
vt 0.158956 0.579063
vt 0.170541 0.577666
vt 0.778468 0.892432
vt 0.782787 0.885774
vt 0.158156 0.576671
vt 0.162163 0.573758
vt 0.778091 0.892328
vt 0.782310 0.885828
vt 0.520815 0.771048
vt 0.536647 0.757007
vt 0.149508 0.568995
vt 0.159849 0.574449
vt 0.776536 0.891218
vt 0.782006 0.885599
vt 0.508193 0.763573
vt 0.529783 0.752295
vt 0.148844 0.562673
vt 0.149269 0.571180
vt 0.076840 0.537530
vt 0.077050 0.537268
vt 0.076821 0.537530
vt 0.779095 0.883798
vt 0.780247 0.884930
vt 0.517076 0.746572
vt 0.147415 0.558584
vt 0.144271 0.574222
vt 0.076865 0.537522
vt 0.077054 0.537284
vt 0.773726 0.890302
vt 0.774912 0.890883
vt 0.480364 0.747716
vt 0.151679 0.551988
vt 0.140220 0.575647
vt 0.077053 0.537305
vt 0.766504 0.885678
vt 0.777983 0.883182
vt 0.488725 0.733586
vt 0.140468 0.576840
vt 0.138032 0.582617
vt 0.764304 0.883703
vt 0.770419 0.879608
vt 0.466312 0.731220
vt 0.466705 0.730427
vt 0.466316 0.731205
vt 0.145674 0.557857
vt 0.148969 0.557480
vt 0.076855 0.537506
vt 0.077031 0.537345
vt 0.760807 0.882909
vt 0.767783 0.879023
vt 0.896663 0.079483
vt 0.910768 0.087651
vt 0.896582 0.079624
vt 0.137309 0.571185
vt 0.138591 0.574125
vt 0.077044 0.537243
vt 0.757054 0.881988
vt 0.764959 0.876598
vt 0.910847 0.087509
vt 0.137118 0.561163
vt 0.142630 0.558724
vt 0.753038 0.880675
vt 0.761887 0.874032
vt 0.134953 0.561482
vt 0.135609 0.565376
vt 0.075761 0.538084
vt 0.076937 0.535962
vt 0.750483 0.879831
vt 0.758340 0.871466
vt 0.466532 0.731284
vt 0.131503 0.559957
vt 0.134480 0.563537
vt 0.077094 0.536168
vt 0.747359 0.876403
vt 0.756051 0.869872
vt 0.466897 0.730552
vt 0.076410 0.537703
vt 0.077161 0.536383
vt 0.747440 0.876250
vt 0.751357 0.869209
vt 0.549545 0.774199
vt 0.550344 0.772453
vt 0.129739 0.557922
vt 0.129808 0.561538
vt 0.130511 0.558687
vt 0.076438 0.537521
vt 0.077053 0.536840
vt 0.747440 0.876138
vt 0.751273 0.869383
vt 0.550454 0.772158
vt 0.128054 0.555821
vt 0.128749 0.561463
vt 0.747247 0.875596
vt 0.751168 0.869459
vt 0.126836 0.554119
vt 0.126276 0.561294
vt 0.736666 0.873181
vt 0.750566 0.869647
vt 0.124424 0.554430
vt 0.124242 0.561508
vt 0.729871 0.870184
vt 0.742466 0.862293
vt 0.122745 0.554210
vt 0.122798 0.559635
vt 0.703185 0.833160
vt 0.692298 0.855615
vt 0.121462 0.558707
vt 0.076663 0.537573
vt 0.077063 0.537122
vt 0.076624 0.537558
vt 0.903360 0.950763
vt 0.904439 0.948912
vt 0.904988 0.948174
vt 0.905791 0.946915
vt 0.543920 0.775566
vt 0.548998 0.769663
vt 0.076694 0.537525
vt 0.077059 0.537149
vt 0.903475 0.950479
vt 0.903556 0.950025
vt 0.547794 0.767026
vt 0.303877 0.666444
vt 0.022767 0.499591
vt 0.076746 0.537553
vt 0.077022 0.537168
vt 0.903344 0.949891
vt 0.903535 0.950031
vt 0.076760 0.537528
vt 0.077057 0.537207
vt 0.903156 0.949721
vt 0.902945 0.950511
vt 0.076788 0.537540
vt 0.077036 0.537218
vt 0.899800 0.951054
vt 0.902306 0.951120
vt 0.077051 0.537241
vt 0.896700 0.950849
vt 0.901206 0.948004
vt 0.572141 0.790315
vt 0.578009 0.778227
vt 0.334066 0.677295
vt 0.347767 0.669149
vt 0.896208 0.950946
vt 0.898940 0.946211
vt 0.563957 0.784911
vt 0.577030 0.777961
vt 0.328391 0.671789
vt 0.340869 0.659886
vt 0.893294 0.949975
vt 0.898583 0.945960
vt 0.555148 0.773681
vt 0.567563 0.775609
vt 0.333297 0.658559
vt 0.893033 0.947722
vt 0.895910 0.944755
vt 0.553894 0.776722
vt 0.550849 0.772969
vt 0.888703 0.941771
vt 0.893592 0.946990
vt 0.550386 0.773792
vt 0.550422 0.773954
vt 0.884665 0.946898
vt 0.885949 0.946840
vt 0.550203 0.773623
vt 0.550708 0.773051
vt 0.880922 0.945848
vt 0.887922 0.940705
vt 0.550281 0.772979
vt 0.550462 0.773030
vt 0.221849 0.604814
vt 0.217514 0.612191
vt 0.881963 0.936124
vt 0.884796 0.938308
vt 0.550031 0.773556
vt 0.550042 0.773522
vt 0.223652 0.615641
vt 0.231428 0.609665
vt 0.313734 0.645058
vt 0.877496 0.944912
vt 0.880926 0.935103
vt 0.550300 0.772948
vt 0.219532 0.613216
vt 0.228263 0.608196
vt 0.866159 0.941090
vt 0.876052 0.944721
vt 0.223880 0.605945
vt 0.712960 0.864184
vt 0.736031 0.858490
vt 0.865123 0.936815
vt 0.871854 0.929539
vt 0.698126 0.858084
vt 0.721097 0.848334
vt 0.861823 0.933670
vt 0.867486 0.932265
vt 0.682129 0.849812
vt 0.707362 0.839976
vt 0.860936 0.931807
vt 0.862785 0.932031
vt 0.469224 0.730755
vt 0.468037 0.733013
vt 0.668629 0.841139
vt 0.691126 0.831940
vt 0.855265 0.925729
vt 0.860749 0.932774
vt 0.663951 0.832843
vt 0.676108 0.826191
vt 0.857014 0.915774
vt 0.852492 0.932144
vt 0.655501 0.832072
vt 0.666644 0.827341
vt 0.852306 0.921597
vt 0.845895 0.940334
vt 0.650924 0.823742
vt 0.661009 0.820985
vt 0.848139 0.923638
vt 0.847692 0.932901
vt 0.642483 0.822940
vt 0.651556 0.822239
vt 0.845686 0.924104
vt 0.846877 0.927760
vt 0.637929 0.814587
vt 0.645890 0.815895
vt 0.842682 0.922134
vt 0.845726 0.925471
vt 0.629490 0.813706
vt 0.636457 0.817178
vt 0.834062 0.921598
vt 0.841455 0.923317
vt 0.469438 0.730327
vt 0.624661 0.805231
vt 0.630742 0.810898
vt 0.831753 0.921884
vt 0.837117 0.916559
vt 0.616435 0.804212
vt 0.621049 0.812034
vt 0.823695 0.917628
vt 0.836013 0.914427
vt 0.601670 0.800359
vt 0.615348 0.806011
vt 0.819669 0.904620
vt 0.828015 0.909866
vt 0.597338 0.800702
vt 0.602778 0.797784
vt 0.812978 0.911626
vt 0.814787 0.913436
vt 0.902601 0.952112
vt 0.598104 0.790579
vt 0.600408 0.794086
vt 0.804151 0.906511
vt 0.817176 0.904112
vt 0.470934 0.728867
vt 0.593203 0.800984
vt 0.808137 0.899432
vt 0.029439 0.026631
vt 0.014062 0.026763
vt 0.014062 0.026631
vt 0.029307 0.016058
vt 0.029439 0.000675
vt 0.029439 0.016058
vt 0.011383 0.029439
vt 0.026763 0.029365
vt 0.026763 0.029439
vt 0.026757 0.007585
vt 0.026763 0.013381
vt 0.026757 0.013381
vt 0.467443 0.734307
vt 0.466388 0.741050
vt 0.467769 0.732984
vt 0.405472 0.697604
vt 0.476721 0.748414
vt 0.480662 0.746857
vt 0.493548 0.751028
vt 0.504474 0.742525
vt 0.504969 0.756947
vt 0.093209 0.555866
vt 0.549887 0.773664
vt 0.548933 0.775399
vt 0.533161 0.774097
vt 0.521727 0.771628
vt 0.509320 0.767553
vt 0.903438 0.950629
vt 0.903067 0.951303
vt 0.084656 0.539860
vt 0.076976 0.537481
vt 0.076967 0.537490
vt 0.076630 0.537573
vt 0.076592 0.537600
vt 0.076557 0.537593
vt 0.418591 0.500751
vt 0.443068 0.432634
vt 0.086918 0.332308
vt 0.326300 0.649323
vt 0.741215 0.000118
vt 0.810432 0.034930
vt 0.808964 0.034164
vt 0.808965 0.034165
vt 0.470123 0.729637
vt 0.077019 0.537021
vt 0.406313 0.697941
vt 0.477109 0.726734
vt 0.487816 0.730228
vt 0.488058 0.734416
vt 0.498325 0.742090
vt 0.498348 0.756039
vt 0.510482 0.747857
vt 0.519796 0.746203
vt 0.530367 0.752692
vt 0.539754 0.759803
vt 0.550283 0.772770
vt 0.550932 0.770901
vt 0.077044 0.537384
vt 0.104032 0.541451
vt 0.077044 0.537393
vt 0.077037 0.537410
vt 0.077048 0.537087
vt 0.077050 0.537040
vt 0.083899 0.541342
vt 0.904837 0.948418
vt 0.076930 0.536936
vt 0.101912 0.538852
vt 0.131375 0.561464
vt 0.466715 0.730416
vt 0.076828 0.536871
vt 0.029439 0.026763
vt 0.029307 0.000675
vt 0.011383 0.029365
vt 0.026763 0.007585
s 0
usemtl マテリアル.001
f 150/1/1 212/2/1 151/3/1
f 214/4/1 151/3/1 215/5/1
f 212/2/2 215/5/2 151/3/2
f 37/6/1 191/7/1 59/8/1
f 291/9/3 45/10/3 277/11/3
f 96/12/1 97/13/1 221/14/1
f 85/15/1 87/16/1 226/17/1
f 315/18/4 48/19/4 181/20/4
f 39/21/5 38/22/5 18/23/5
f 317/24/6 296/25/6 318/26/6
f 40/27/7 39/21/7 18/23/7
f 318/26/8 297/28/8 36/29/8
f 18/23/9 268/30/9 320/31/9
f 321/32/10 322/33/10 18/23/10
f 184/34/11 40/27/11 18/23/11
f 187/35/12 319/36/12 36/29/12
f 72/37/2 20/38/2 98/39/2
f 226/17/2 99/40/2 223/41/2
f 82/42/1 80/43/1 230/44/1
f 353/45/13 135/46/13 134/47/13
f 20/48/1 71/49/1 73/50/1
f 33/51/1 660/52/1 1/53/1
f 247/54/1 105/55/1 145/56/1
f 315/18/14 305/57/14 47/58/14
f 105/55/1 106/59/1 239/60/1
f 89/61/15 90/62/15 241/63/15
f 243/64/1 107/65/1 235/66/1
f 109/67/16 102/68/16 240/69/16
f 317/24/17 325/70/17 295/71/17
f 322/33/18 182/72/18 18/23/18
f 48/19/19 180/73/19 181/20/19
f 182/72/12 184/74/12 18/23/12
f 327/75/20 282/76/20 328/77/20
f 444/1/2 447/2/2 445/78/2
f 448/4/2 449/5/2 446/3/2
f 447/2/1 446/3/1 449/5/1
f 564/79/2 510/80/2 457/81/2
f 453/82/2 407/83/2 406/84/2
f 459/85/2 454/86/2 458/87/2
f 465/88/2 461/89/2 387/90/2
f 467/91/21 468/92/21 469/93/21
f 341/94/22 471/95/22 342/96/22
f 473/97/23 475/98/23 472/99/23
f 475/98/24 477/100/24 476/101/24
f 479/102/25 342/96/25 471/95/25
f 483/103/26 477/100/26 484/104/26
f 501/105/1 390/106/1 462/107/1
f 465/88/27 459/85/27 462/107/27
f 381/108/2 379/109/2 506/110/2
f 501/105/28 534/111/28 500/112/28
f 535/113/29 665/114/29 666/115/29
f 470/116/30 542/117/30 541/118/30
f 547/119/31 549/120/31 548/121/31
f 376/122/32 521/123/32 552/124/32
f 553/125/2 532/126/2 554/127/2
f 517/128/2 515/129/2 556/130/2
f 473/97/33 472/99/33 568/131/33
f 468/92/34 466/132/34 624/133/34
f 623/134/35 481/135/35 480/136/35
f 436/137/36 638/138/36 639/139/36
f 1/53/37 665/114/37 536/140/37
f 2/141/37 658/142/37 656/143/37
f 274/144/38 374/145/38 373/146/38
f 95/147/39 618/148/39 100/149/39
f 299/150/40 537/151/40 492/152/40
f 181/20/41 467/91/41 316/153/41
f 44/154/42 374/145/42 43/155/42
f 141/156/43 619/157/43 95/147/43
f 35/158/44 537/151/44 304/159/44
f 254/160/45 620/161/45 141/156/45
f 192/162/40 538/163/40 35/158/40
f 255/164/46 621/165/46 254/160/46
f 192/162/40 540/166/40 539/167/40
f 322/33/47 622/168/47 326/169/47
f 540/166/48 657/170/48 659/171/48
f 316/153/49 470/116/49 315/18/49
f 182/72/50 622/168/50 623/134/50
f 180/73/51 466/132/51 181/20/51
f 318/26/52 473/97/52 317/24/52
f 184/74/53 623/134/53 482/172/53
f 311/173/54 626/174/54 312/175/54
f 296/25/55 472/99/55 475/98/55
f 305/176/56 625/177/56 311/173/56
f 176/178/57 624/179/57 180/180/57
f 176/178/58 628/181/58 627/182/58
f 55/183/59 628/181/59 177/184/59
f 315/18/54 541/118/54 324/185/54
f 297/28/60 475/98/60 478/186/60
f 93/187/61 388/188/61 17/189/61
f 174/190/57 629/191/57 55/183/57
f 319/36/62 474/192/62 318/26/62
f 72/193/63 389/194/63 93/187/63
f 173/195/64 630/196/64 174/190/64
f 305/57/65 541/118/65 542/117/65
f 320/31/66 480/136/66 321/32/66
f 72/197/67 391/198/67 390/199/67
f 175/200/68 631/201/68 173/195/68
f 130/202/69 544/203/69 132/204/69
f 268/30/70 479/102/70 320/31/70
f 50/205/71 632/206/71 175/200/71
f 131/207/72 543/208/72 130/202/72
f 14/209/73 393/210/73 392/211/73
f 51/212/74 633/213/74 50/205/74
f 306/214/75 545/215/75 131/207/75
f 321/32/76 481/135/76 322/33/76
f 15/216/77 393/210/77 14/209/77
f 49/217/78 634/218/78 51/212/78
f 306/214/79 404/219/79 546/220/79
f 70/221/80 394/222/80 15/216/80
f 46/223/81 635/224/81 49/217/81
f 132/204/82 354/225/82 133/226/82
f 70/221/83 396/227/83 395/228/83
f 42/229/84 636/230/84 46/223/84
f 183/231/85 482/232/85 340/233/85
f 200/234/80 396/227/80 69/235/80
f 157/236/54 332/237/54 156/238/54
f 187/35/86 484/104/86 323/239/86
f 201/240/87 397/241/87 200/234/87
f 312/175/56 637/242/56 157/236/56
f 106/59/88 549/120/88 239/60/88
f 202/243/80 398/244/80 201/240/80
f 328/77/89 638/138/89 327/75/89
f 307/245/90 415/246/90 288/247/90
f 323/239/91 477/100/91 319/36/91
f 6/248/92 399/249/92 202/243/92
f 282/76/93 639/139/93 328/77/93
f 140/250/94 550/251/94 307/245/94
f 56/252/95 485/253/95 59/8/95
f 5/254/96 400/255/96 6/248/96
f 179/256/97 638/138/97 435/257/97
f 24/258/98 551/259/98 140/250/98
f 298/260/99 335/261/99 37/6/99
f 66/262/100 401/263/100 5/254/100
f 121/264/101 641/265/101 266/266/101
f 228/267/102 552/124/102 241/63/102
f 303/268/103 486/269/103 298/260/103
f 65/270/104 402/271/104 66/262/104
f 121/264/105 642/272/105 640/273/105
f 241/63/106 520/274/106 236/275/106
f 302/276/99 487/277/99 303/268/99
f 203/278/107 403/279/107 65/270/107
f 123/280/108 642/272/108 122/281/108
f 243/64/109 554/127/109 244/282/109
f 161/283/103 488/284/103 302/276/103
f 280/285/79 404/219/79 278/286/79
f 124/287/110 643/288/110 123/280/110
f 235/66/111 553/125/111 243/64/111
f 301/289/40 489/290/40 161/283/40
f 279/291/112 405/292/112 280/285/112
f 125/293/113 644/294/113 124/287/113
f 244/282/114 531/295/114 112/296/114
f 301/289/44 491/297/44 490/298/44
f 264/299/115 645/300/115 125/293/115
f 237/301/116 555/302/116 240/69/116
f 299/150/40 491/297/40 300/303/40
f 264/299/110 647/304/110 646/305/110
f 242/306/117 514/307/117 233/308/117
f 281/309/118 408/310/118 277/11/118
f 263/311/119 647/304/119 267/312/119
f 240/69/120 556/130/120 242/306/120
f 286/313/121 409/314/121 281/309/121
f 263/311/110 649/315/110 648/316/110
f 253/317/122 252/318/122 557/319/122
f 57/320/123 494/321/123 493/322/123
f 287/323/124 410/324/124 286/313/124
f 314/325/125 649/315/125 159/326/125
f 249/327/126 557/319/126 252/318/126
f 60/328/127 494/321/127 58/329/127
f 285/330/128 411/331/128 287/323/128
f 314/325/110 651/332/110 650/333/110
f 52/334/129 558/335/129 249/327/129
f 61/336/130 495/337/130 60/328/130
f 297/338/47 651/332/47 313/339/47
f 250/340/131 559/341/131 52/334/131
f 62/342/48 496/343/48 61/336/48
f 186/344/132 483/345/132 187/346/132
f 247/54/133 560/347/133 250/340/133
f 62/342/48 498/348/48 497/349/48
f 186/344/123 653/350/123 652/351/123
f 245/352/134 561/353/134 247/54/134
f 64/354/135 498/348/135 63/355/135
f 189/356/136 653/350/136 188/357/136
f 144/358/137 562/359/137 245/352/137
f 59/8/138 499/360/138 64/354/138
f 57/320/132 654/361/132 189/356/132
f 145/56/139 563/362/139 144/358/139
f 72/363/140 500/112/140 71/49/140
f 265/364/89 442/365/89 218/366/89
f 246/367/141 564/79/141 145/56/141
f 17/189/142 390/368/142 72/369/142
f 290/370/143 413/371/143 289/372/143
f 266/266/110 655/373/110 265/364/110
f 248/374/144 565/375/144 246/367/144
f 288/247/145 414/376/145 290/370/145
f 239/60/146 566/377/146 248/374/146
f 26/378/147 548/121/147 106/59/147
f 23/379/148 416/380/148 24/258/148
f 22/381/149 567/382/149 26/378/149
f 25/383/150 417/384/150 23/379/150
f 222/385/151 251/386/151 456/387/151
f 223/41/152 465/88/152 226/17/152
f 104/388/153 418/389/153 25/383/153
f 388/188/2 390/390/2 401/263/2
f 103/391/154 419/392/154 104/388/154
f 317/24/155 568/131/155 325/70/155
f 207/393/153 420/394/153 103/391/153
f 295/71/156 568/131/156 472/99/156
f 206/395/154 421/396/154 207/393/154
f 256/397/157 569/398/157 255/164/157
f 208/399/158 422/400/158 206/395/158
f 91/401/159 570/402/159 256/397/159
f 225/403/160 502/404/160 231/405/160
f 209/406/161 423/407/161 208/399/161
f 92/408/162 571/409/162 91/401/162
f 148/410/163 424/411/163 209/406/163
f 19/412/164 572/413/164 92/408/164
f 227/414/102 503/415/102 228/267/102
f 149/416/165 425/417/165 148/410/165
f 169/418/166 573/419/166 19/412/166
f 229/420/167 504/421/167 227/414/167
f 152/422/168 426/423/168 149/416/168
f 194/424/49 330/425/49 195/426/49
f 169/418/169 575/427/169 574/428/169
f 230/44/170 505/429/170 229/420/170
f 210/430/171 427/431/171 152/422/171
f 155/432/66 329/433/66 194/424/66
f 167/434/172 575/427/172 168/435/172
f 232/436/173 506/110/173 230/44/173
f 211/437/174 428/438/174 210/430/174
f 156/238/54 331/439/54 155/432/54
f 170/440/175 576/441/175 167/434/175
f 231/405/176 507/442/176 232/436/176
f 211/437/177 430/443/177 429/444/177
f 171/445/178 577/446/178 170/440/178
f 72/447/179 508/448/179 94/449/179
f 216/450/180 430/443/180 220/451/180
f 41/452/84 333/453/84 42/229/84
f 172/454/181 578/455/181 171/445/181
f 74/456/182 390/457/182 72/458/182
f 216/450/183 432/459/183 431/460/183
f 37/6/103 334/461/103 41/452/103
f 166/462/184 579/463/184 172/454/184
f 20/48/185 509/464/185 74/456/185
f 54/465/186 432/459/186 53/466/186
f 165/467/187 580/468/187 166/462/187
f 178/469/188 433/470/188 54/465/188
f 190/471/189 336/472/189 56/252/189
f 164/473/190 581/474/190 165/467/190
f 21/475/191 510/80/191 22/381/191
f 179/476/183 434/477/183 178/469/183
f 191/7/192 337/478/192 190/471/192
f 162/479/193 582/480/193 164/473/193
f 94/449/194 511/481/194 21/475/194
f 185/482/95 338/483/95 191/7/95
f 163/484/195 583/485/195 162/479/195
f 234/486/196 513/487/196 235/66/196
f 284/488/197 436/489/197 282/490/197
f 183/491/189 339/492/189 185/482/189
f 16/493/198 584/494/198 163/484/198
f 233/308/199 512/495/199 234/486/199
f 283/496/89 437/497/89 284/488/89
f 10/498/200 585/499/200 16/493/200
f 154/500/197 438/501/197 283/496/197
f 9/502/201 586/503/201 10/498/201
f 219/504/89 439/505/89 154/500/89
f 8/506/202 587/507/202 9/502/202
f 217/508/197 440/509/197 219/504/197
f 1/53/137 356/510/137 3/511/137
f 218/366/89 441/512/89 217/508/89
f 270/513/203 343/514/203 268/515/203
f 663/516/204 588/517/204 668/518/204
f 33/51/204 669/519/204 535/113/204
f 238/520/205 518/521/205 237/301/205
f 269/522/66 344/523/66 270/513/66
f 32/524/204 589/525/204 588/517/204
f 236/275/206 519/526/206 238/520/206
f 4/527/207 443/528/207 2/141/207
f 158/529/208 345/530/208 269/522/208
f 128/531/209 589/525/209 31/532/209
f 193/533/66 346/534/66 158/529/66
f 129/535/204 590/536/204 128/531/204
f 150/1/210 445/78/210 213/78/210
f 196/537/203 347/538/203 193/533/203
f 127/539/204 591/540/204 129/535/204
f 151/3/211 444/1/211 150/1/211
f 195/426/212 348/541/212 196/537/212
f 126/542/213 592/543/213 127/539/213
f 139/544/214 375/545/214 44/154/214
f 204/546/215 349/547/215 203/278/215
f 257/548/216 593/549/216 126/542/216
f 137/550/217 523/551/217 139/544/217
f 213/78/218 447/2/218 212/2/218
f 205/552/107 350/553/107 204/546/107
f 259/554/213 594/555/213 257/548/213
f 137/550/219 525/556/219 524/557/219
f 214/4/180 446/3/180 151/3/180
f 135/46/220 351/558/220 205/552/220
f 258/559/216 595/560/216 259/554/216
f 138/561/221 526/562/221 525/556/221
f 215/5/218 448/4/218 214/4/218
f 258/559/213 597/563/213 596/564/213
f 143/565/222 526/562/222 142/566/222
f 309/567/216 597/563/216 160/568/216
f 146/569/223 527/570/223 143/565/223
f 212/2/224 449/5/224 215/5/224
f 133/226/82 353/45/82 134/47/82
f 310/571/213 598/572/213 309/567/213
f 146/569/225 529/573/225 528/574/225
f 289/372/143 450/575/143 292/576/143
f 310/571/226 600/577/226 599/578/226
f 27/579/207 529/573/207 147/580/207
f 294/581/128 412/582/128 285/330/128
f 3/511/48 355/583/48 4/527/48
f 308/584/227 601/585/227 600/577/227
f 112/296/114 530/586/114 27/579/114
f 293/587/228 451/588/228 294/581/228
f 260/589/226 601/585/226 153/590/226
f 292/576/229 452/591/229 293/587/229
f 13/592/230 357/593/230 8/506/230
f 261/594/227 602/595/227 260/589/227
f 291/9/112 406/84/112 279/291/112
f 12/596/231 358/597/231 13/592/231
f 262/598/226 603/599/226 261/594/226
f 277/11/118 453/82/118 291/9/118
f 11/600/232 359/601/232 12/596/232
f 120/602/227 604/603/227 262/598/227
f 73/50/233 501/105/233 20/48/233
f 221/14/234 455/604/234 224/605/234
f 7/606/235 360/607/235 11/600/235
f 119/608/226 605/609/226 120/602/226
f 71/49/236 534/111/236 73/50/236
f 222/385/237 454/86/237 221/14/237
f 68/610/238 361/611/238 7/606/238
f 118/612/207 606/613/207 119/608/207
f 67/614/235 362/615/235 68/610/235
f 117/616/207 607/617/207 118/612/207
f 197/618/239 363/619/239 67/614/239
f 116/620/240 608/621/240 117/616/240
f 198/622/241 364/623/241 197/618/241
f 114/624/240 609/625/240 116/620/240
f 199/626/238 365/627/238 198/622/238
f 114/624/242 611/628/242 610/629/242
f 136/630/235 366/631/235 199/626/235
f 115/632/243 611/628/243 113/633/243
f 224/605/244 460/634/244 223/41/244
f 276/635/239 367/636/239 136/630/239
f 30/637/245 612/638/245 115/632/245
f 275/639/246 368/640/246 276/635/246
f 29/641/243 613/642/243 30/637/243
f 271/643/247 369/644/247 275/639/247
f 29/641/248 615/645/248 614/646/248
f 272/647/249 370/648/249 271/643/249
f 111/649/250 615/645/250 28/650/250
f 33/51/48 666/115/48 661/651/48
f 272/647/251 372/652/251 371/653/251
f 110/654/248 616/655/248 111/649/248
f 226/17/252 464/656/252 225/403/252
f 274/144/253 372/652/253 273/657/253
f 100/149/254 617/658/254 110/654/254
f 658/659/137 657/660/137 656/661/137
f 665/662/255 661/663/255 666/664/255
f 667/665/255 664/666/255 662/667/255
f 662/668/256 668/669/256 667/670/256
f 150/1/1 213/78/1 212/2/1
f 86/671/257 85/15/257 75/672/257
f 17/189/1 98/673/1 87/16/1
f 72/193/1 93/187/1 17/189/1
f 392/211/258 391/674/258 72/193/258
f 15/216/259 14/209/259 392/211/259
f 69/235/260 70/221/260 15/216/260
f 201/240/261 200/234/261 69/235/261
f 6/248/1 202/243/1 201/240/1
f 65/270/1 66/262/1 5/254/1
f 5/254/1 6/248/1 201/240/1
f 201/240/137 69/235/137 15/216/137
f 15/216/262 392/211/262 72/193/262
f 72/193/1 17/189/1 87/16/1
f 72/193/1 87/16/1 86/671/1
f 201/240/1 15/216/1 72/193/1
f 5/254/1 201/240/1 72/193/1
f 72/193/1 86/671/1 75/672/1
f 72/193/1 75/672/1 76/675/1
f 5/254/1 72/193/1 76/675/1
f 77/676/263 79/677/263 78/678/263
f 5/254/1 76/675/1 77/676/1
f 204/546/1 203/278/1 65/270/1
f 65/270/1 5/254/1 77/676/1
f 78/678/264 80/43/264 81/679/264
f 65/270/1 77/676/1 78/678/1
f 135/46/1 205/552/1 204/546/1
f 204/546/1 65/270/1 78/678/1
f 135/46/1 204/546/1 78/678/1
f 89/61/1 236/275/1 238/520/1
f 238/520/265 237/301/265 102/68/265
f 130/202/1 132/204/1 133/226/1
f 306/214/1 131/207/1 130/202/1
f 278/286/1 306/214/1 130/202/1
f 130/202/1 133/226/1 134/47/1
f 280/285/1 278/286/1 130/202/1
f 45/10/1 279/291/1 280/285/1
f 281/309/1 277/11/1 45/10/1
f 287/323/1 286/313/1 281/309/1
f 294/581/266 285/330/266 287/323/266
f 292/576/1 293/587/1 294/581/1
f 290/370/48 289/372/48 292/576/48
f 307/245/48 288/247/48 290/370/48
f 24/258/1 140/250/1 307/245/1
f 25/383/1 23/379/1 24/258/1
f 103/391/1 104/388/1 25/383/1
f 206/395/1 207/393/1 103/391/1
f 209/406/1 208/399/1 206/395/1
f 152/422/1 149/416/1 148/410/1
f 148/410/1 209/406/1 206/395/1
f 103/391/1 25/383/1 24/258/1
f 148/410/1 206/395/1 103/391/1
f 211/437/1 210/430/1 152/422/1
f 152/422/1 148/410/1 103/391/1
f 24/258/1 307/245/1 290/370/1
f 152/422/1 103/391/1 24/258/1
f 211/437/1 152/422/1 24/258/1
f 290/370/1 292/576/1 294/581/1
f 211/437/1 24/258/1 290/370/1
f 53/466/1 216/450/1 220/451/1
f 220/451/1 211/437/1 290/370/1
f 290/370/1 294/581/1 287/323/1
f 281/309/3 45/10/3 280/285/3
f 220/451/1 290/370/1 287/323/1
f 281/309/1 280/285/1 130/202/1
f 53/466/1 220/451/1 287/323/1
f 287/323/1 281/309/1 130/202/1
f 54/465/1 53/466/1 287/323/1
f 179/476/1 178/469/1 54/465/1
f 284/488/1 282/490/1 179/476/1
f 154/500/1 283/496/1 284/488/1
f 217/508/1 219/504/1 154/500/1
f 217/508/48 154/500/48 284/488/48
f 284/488/1 179/476/1 54/465/1
f 284/488/1 54/465/1 287/323/1
f 217/508/1 284/488/1 287/323/1
f 218/366/1 217/508/1 287/323/1
f 121/264/1 266/266/1 265/364/1
f 265/364/1 218/366/1 287/323/1
f 121/264/1 265/364/1 287/323/1
f 122/281/267 121/264/267 287/323/267
f 123/280/1 122/281/1 287/323/1
f 124/287/1 123/280/1 287/323/1
f 267/312/268 264/299/268 125/293/268
f 159/326/269 263/311/269 267/312/269
f 313/339/269 314/325/269 159/326/269
f 36/680/1 297/338/1 313/339/1
f 186/344/1 187/346/1 36/680/1
f 57/320/1 189/356/1 188/357/1
f 188/357/1 186/344/1 36/680/1
f 313/339/270 159/326/270 267/312/270
f 267/312/1 125/293/1 124/287/1
f 267/312/1 124/287/1 287/323/1
f 313/339/1 267/312/1 287/323/1
f 36/680/1 313/339/1 287/323/1
f 58/329/1 57/320/1 188/357/1
f 188/357/1 36/680/1 287/323/1
f 58/329/1 188/357/1 287/323/1
f 109/67/1 233/308/1 234/486/1
f 234/486/1 235/66/1 108/681/1
f 107/65/1 112/296/1 27/579/1
f 234/486/271 108/681/271 107/65/271
f 234/486/1 107/65/1 27/579/1
f 27/579/1 147/580/1 146/569/1
f 146/569/1 143/565/1 142/566/1
f 146/569/1 142/566/1 138/561/1
f 234/486/1 27/579/1 146/569/1
f 109/67/1 234/486/1 146/569/1
f 146/569/1 138/561/1 137/550/1
f 137/550/1 139/544/1 44/154/1
f 43/155/1 274/144/1 273/657/1
f 137/550/16 44/154/16 43/155/16
f 109/67/1 146/569/1 137/550/1
f 101/682/1 109/67/1 137/550/1
f 43/155/1 273/657/1 272/647/1
f 101/682/1 137/550/1 43/155/1
f 102/68/1 101/682/1 43/155/1
f 43/155/1 272/647/1 271/643/1
f 275/639/1 276/635/1 136/630/1
f 43/155/1 271/643/1 275/639/1
f 238/520/1 102/68/1 43/155/1
f 89/61/1 238/520/1 43/155/1
f 89/61/1 43/155/1 275/639/1
f 88/683/1 89/61/1 275/639/1
f 136/630/1 199/626/1 198/622/1
f 90/62/1 88/683/1 275/639/1
f 84/684/1 90/62/1 275/639/1
f 83/685/1 84/684/1 275/639/1
f 82/42/1 83/685/1 275/639/1
f 81/679/1 82/42/1 275/639/1
f 78/678/1 81/679/1 275/639/1
f 135/46/1 78/678/1 275/639/1
f 135/46/1 275/639/1 136/630/1
f 135/46/1 136/630/1 198/622/1
f 198/622/1 197/618/1 67/614/1
f 67/614/1 68/610/1 7/606/1
f 11/600/1 12/596/1 13/592/1
f 9/502/1 10/498/1 16/493/1
f 16/493/1 163/484/1 162/479/1
f 164/473/1 165/467/1 166/462/1
f 16/493/1 162/479/1 164/473/1
f 9/502/1 16/493/1 164/473/1
f 166/462/1 172/454/1 171/445/1
f 9/502/1 164/473/1 166/462/1
f 8/506/1 9/502/1 166/462/1
f 171/445/1 170/440/1 167/434/1
f 8/506/1 166/462/1 171/445/1
f 168/435/272 169/418/272 19/412/272
f 19/412/1 92/408/1 91/401/1
f 91/401/1 256/397/1 255/164/1
f 255/164/1 254/160/1 141/156/1
f 95/147/1 100/149/1 110/654/1
f 255/164/273 141/156/273 95/147/273
f 19/412/274 91/401/274 255/164/274
f 167/434/1 168/435/1 19/412/1
f 19/412/1 255/164/1 95/147/1
f 95/147/1 110/654/1 111/649/1
f 28/650/1 29/641/1 30/637/1
f 95/147/1 111/649/1 28/650/1
f 167/434/1 19/412/1 95/147/1
f 171/445/1 167/434/1 95/147/1
f 95/147/1 28/650/1 30/637/1
f 30/637/1 115/632/1 113/633/1
f 113/633/1 114/624/1 116/620/1
f 113/633/1 116/620/1 117/616/1
f 95/147/1 30/637/1 113/633/1
f 171/445/1 95/147/1 113/633/1
f 171/445/1 113/633/1 117/616/1
f 171/445/1 117/616/1 118/612/1
f 171/445/1 118/612/1 119/608/1
f 171/445/1 119/608/1 120/602/1
f 120/602/1 262/598/1 261/594/1
f 261/594/1 260/589/1 153/590/1
f 153/590/1 308/584/1 310/571/1
f 310/571/1 309/567/1 160/568/1
f 160/568/1 258/559/1 259/554/1
f 259/554/1 257/548/1 126/542/1
f 126/542/1 127/539/1 129/535/1
f 129/535/1 128/531/1 31/532/1
f 31/532/275 32/524/275 663/516/275
f 662/686/1 664/687/1 33/51/1
f 31/532/1 663/516/1 662/686/1
f 126/542/1 129/535/1 31/532/1
f 160/568/276 259/554/276 126/542/276
f 153/590/1 310/571/1 160/568/1
f 120/602/277 261/594/277 153/590/277
f 171/445/1 120/602/1 153/590/1
f 153/590/1 160/568/1 126/542/1
f 126/542/1 31/532/1 662/686/1
f 662/686/1 33/51/1 1/53/1
f 2/141/1 656/143/1 657/170/1
f 34/688/278 192/162/278 35/158/278
f 2/141/279 657/170/279 34/688/279
f 662/686/1 1/53/1 3/511/1
f 153/590/1 126/542/1 662/686/1
f 171/445/1 153/590/1 662/686/1
f 2/141/1 34/688/1 35/158/1
f 35/158/1 304/159/1 299/150/1
f 300/303/1 301/289/1 161/283/1
f 35/158/1 299/150/1 300/303/1
f 171/445/1 662/686/1 3/511/1
f 8/506/1 171/445/1 3/511/1
f 2/141/1 35/158/1 300/303/1
f 300/303/280 161/283/280 302/276/280
f 303/268/1 298/260/1 37/6/1
f 300/303/1 302/276/1 303/268/1
f 13/592/1 8/506/1 3/511/1
f 11/600/1 13/592/1 3/511/1
f 2/141/1 300/303/1 303/268/1
f 37/6/1 41/452/1 42/229/1
f 2/141/1 303/268/1 37/6/1
f 7/606/1 11/600/1 3/511/1
f 135/46/3 198/622/3 67/614/3
f 67/614/1 7/606/1 3/511/1
f 37/6/1 42/229/1 46/223/1
f 37/6/1 46/223/1 49/217/1
f 67/614/1 3/511/1 4/527/1
f 135/46/1 67/614/1 4/527/1
f 37/6/1 49/217/1 51/212/1
f 51/212/1 50/205/1 175/200/1
f 175/200/1 173/195/1 174/190/1
f 174/190/281 55/183/281 177/184/281
f 176/178/1 180/180/1 48/689/1
f 174/190/1 177/184/1 176/178/1
f 51/212/1 175/200/1 174/190/1
f 134/47/1 135/46/1 4/527/1
f 130/202/1 134/47/1 4/527/1
f 37/6/1 51/212/1 174/190/1
f 176/178/1 48/689/1 47/690/1
f 37/6/1 174/190/1 176/178/1
f 130/202/1 4/527/1 2/141/1
f 287/323/1 130/202/1 2/141/1
f 37/6/1 176/178/1 47/690/1
f 47/690/1 305/176/1 311/173/1
f 311/173/1 312/175/1 157/236/1
f 156/238/3 155/432/3 194/424/3
f 47/690/282 311/173/282 157/236/282
f 157/236/283 156/238/283 194/424/283
f 157/236/1 194/424/1 195/426/1
f 37/6/1 47/690/1 157/236/1
f 58/329/1 287/323/1 2/141/1
f 60/328/1 58/329/1 2/141/1
f 37/6/1 157/236/1 195/426/1
f 196/537/1 193/533/1 158/529/1
f 37/6/1 195/426/1 196/537/1
f 61/336/1 60/328/1 2/141/1
f 63/355/1 62/342/1 61/336/1
f 63/355/1 61/336/1 2/141/1
f 37/6/1 196/537/1 158/529/1
f 158/529/1 269/522/1 270/513/1
f 270/513/1 268/515/1 38/691/1
f 38/691/1 39/692/1 40/693/1
f 40/693/1 183/491/1 185/482/1
f 191/7/1 190/471/1 56/252/1
f 40/693/1 185/482/1 191/7/1
f 270/513/1 38/691/1 40/693/1
f 37/6/1 158/529/1 270/513/1
f 63/355/1 2/141/1 37/6/1
f 64/354/1 63/355/1 37/6/1
f 37/6/1 270/513/1 40/693/1
f 191/7/1 56/252/1 59/8/1
f 37/6/1 40/693/1 191/7/1
f 59/8/1 64/354/1 37/6/1
f 291/9/16 279/291/16 45/10/16
f 224/605/1 223/41/1 99/40/1
f 224/605/1 99/40/1 96/12/1
f 97/13/1 222/385/1 221/14/1
f 221/14/1 224/605/1 96/12/1
f 226/17/1 225/403/1 85/15/1
f 85/15/1 86/671/1 87/16/1
f 87/16/1 98/673/1 226/17/1
f 181/20/4 316/153/4 315/18/4
f 315/18/4 47/58/4 48/19/4
f 317/24/6 295/71/6 296/25/6
f 36/29/8 319/36/8 318/26/8
f 318/26/8 296/25/8 297/28/8
f 320/31/9 321/32/9 18/23/9
f 18/23/284 38/22/284 268/30/284
f 184/34/11 183/231/11 40/27/11
f 187/35/12 323/239/12 319/36/12
f 72/37/28 71/694/28 20/38/28
f 20/38/285 99/695/285 98/39/285
f 98/39/2 17/696/2 72/37/2
f 226/17/286 98/673/286 99/40/286
f 228/267/1 90/62/1 84/684/1
f 84/684/287 83/685/287 82/42/287
f 82/42/1 81/679/1 80/43/1
f 80/43/1 78/678/1 79/677/1
f 77/676/288 76/675/288 75/672/288
f 75/672/1 85/15/1 225/403/1
f 75/672/1 225/403/1 231/405/1
f 80/43/1 79/677/1 77/676/1
f 227/414/1 228/267/1 84/684/1
f 229/420/1 227/414/1 84/684/1
f 77/676/1 75/672/1 231/405/1
f 77/676/1 231/405/1 232/436/1
f 229/420/1 84/684/1 82/42/1
f 77/676/1 232/436/1 230/44/1
f 230/44/1 229/420/1 82/42/1
f 80/43/1 77/676/1 230/44/1
f 353/45/13 352/697/13 135/46/13
f 33/51/1 661/651/1 660/52/1
f 247/54/1 250/340/1 52/334/1
f 52/334/1 249/327/1 252/318/1
f 252/318/1 253/317/1 251/386/1
f 251/386/1 222/385/1 97/13/1
f 97/13/1 96/12/1 99/40/1
f 99/40/1 20/48/1 74/456/1
f 72/458/1 94/449/1 21/475/1
f 99/40/1 74/456/1 72/458/1
f 97/13/1 99/40/1 72/458/1
f 72/458/1 21/475/1 22/381/1
f 26/378/1 106/59/1 105/55/1
f 97/13/1 72/458/1 22/381/1
f 97/13/1 22/381/1 26/378/1
f 251/386/1 97/13/1 26/378/1
f 105/55/263 239/60/263 248/374/263
f 251/386/1 26/378/1 105/55/1
f 252/318/1 251/386/1 105/55/1
f 105/55/1 248/374/1 246/367/1
f 145/56/1 144/358/1 245/352/1
f 105/55/1 246/367/1 145/56/1
f 52/334/1 252/318/1 105/55/1
f 145/56/1 245/352/1 247/54/1
f 247/54/1 52/334/1 105/55/1
f 315/18/14 324/185/14 305/57/14
f 89/61/289 88/683/289 90/62/289
f 90/62/1 228/267/1 241/63/1
f 241/63/1 236/275/1 89/61/1
f 243/64/1 244/282/1 112/296/1
f 107/65/290 108/681/290 235/66/290
f 243/64/1 112/296/1 107/65/1
f 242/306/1 233/308/1 109/67/1
f 109/67/291 101/682/291 102/68/291
f 102/68/1 237/301/1 240/69/1
f 240/69/1 242/306/1 109/67/1
f 322/33/292 326/169/292 182/72/292
f 327/75/20 179/256/20 282/76/20
f 444/1/2 446/3/2 447/2/2
f 557/319/2 558/335/2 559/341/2
f 559/341/2 560/347/2 561/353/2
f 561/353/2 562/359/2 563/362/2
f 564/79/2 565/375/2 566/377/2
f 561/353/2 563/362/2 564/79/2
f 559/341/2 561/353/2 564/79/2
f 564/79/2 566/377/2 549/120/2
f 547/119/293 548/121/293 567/382/293
f 564/79/2 549/120/2 547/119/2
f 557/319/2 559/341/2 564/79/2
f 251/386/294 253/317/294 557/319/294
f 457/81/295 456/387/295 251/386/295
f 459/698/296 458/87/296 457/81/296
f 509/699/2 501/700/2 459/698/2
f 511/481/2 508/448/2 390/701/2
f 390/701/2 509/699/2 459/698/2
f 457/81/297 251/386/297 557/319/297
f 390/701/2 459/698/2 457/81/2
f 510/80/2 511/481/2 390/701/2
f 564/79/2 547/119/2 567/382/2
f 510/80/2 390/701/2 457/81/2
f 564/79/2 567/382/2 510/80/2
f 457/81/2 557/319/2 564/79/2
f 453/82/2 408/310/2 407/83/2
f 459/85/2 460/634/2 455/604/2
f 454/86/2 456/387/2 457/81/2
f 459/85/2 455/604/2 454/86/2
f 454/86/2 457/81/2 458/87/2
f 387/90/2 464/656/2 465/88/2
f 465/88/2 462/107/2 461/89/2
f 461/89/298 463/702/298 387/90/298
f 469/93/21 470/116/21 467/91/21
f 467/91/299 466/132/299 468/92/299
f 473/97/23 474/192/23 475/98/23
f 476/101/24 478/186/24 475/98/24
f 475/98/24 474/192/24 477/100/24
f 471/95/25 480/136/25 479/102/25
f 479/102/300 343/703/300 342/96/300
f 483/103/26 476/101/26 477/100/26
f 501/105/16 500/112/16 390/106/16
f 390/106/1 388/704/1 462/107/1
f 462/107/1 459/85/1 501/105/1
f 465/88/301 460/634/301 459/85/301
f 502/404/2 464/656/2 387/90/2
f 386/705/302 385/706/302 384/707/302
f 383/708/2 382/709/2 381/108/2
f 502/404/2 387/90/2 386/705/2
f 507/442/2 502/404/2 386/705/2
f 384/707/2 383/708/2 381/108/2
f 381/108/2 380/710/2 379/109/2
f 379/109/303 378/711/303 377/712/303
f 377/712/2 376/122/2 503/415/2
f 377/712/2 503/415/2 504/421/2
f 507/442/2 386/705/2 384/707/2
f 506/110/2 507/442/2 384/707/2
f 379/109/2 377/712/2 504/421/2
f 379/109/2 504/421/2 505/429/2
f 506/110/2 384/707/2 381/108/2
f 379/109/2 505/429/2 506/110/2
f 535/113/2 536/140/2 665/114/2
f 470/116/30 469/93/30 542/117/30
f 552/124/2 503/415/2 376/122/2
f 376/122/304 522/713/304 521/123/304
f 521/123/2 520/274/2 552/124/2
f 553/125/2 513/487/2 533/714/2
f 532/126/2 531/295/2 554/127/2
f 553/125/2 533/714/2 532/126/2
f 555/302/2 518/521/2 517/128/2
f 517/128/305 516/715/305 515/129/305
f 515/129/2 514/307/2 556/130/2
f 556/130/28 555/302/28 517/128/28
f 480/136/306 471/95/306 623/134/306
f 623/134/307 622/168/307 481/135/307
f 436/137/36 435/257/36 638/138/36
f 1/53/37 660/52/37 665/114/37
f 2/141/37 443/528/37 658/142/37
f 274/144/38 43/155/38 374/145/38
f 95/147/39 619/157/39 618/148/39
f 299/150/40 304/159/40 537/151/40
f 181/20/41 466/132/41 467/91/41
f 44/154/308 375/545/308 374/145/308
f 141/156/309 620/161/309 619/157/309
f 35/158/44 538/163/44 537/151/44
f 254/160/45 621/165/45 620/161/45
f 192/162/40 539/167/40 538/163/40
f 255/164/310 569/398/310 621/165/310
f 192/162/40 34/688/40 540/166/40
f 322/33/47 481/135/47 622/168/47
f 540/166/48 34/688/48 657/170/48
f 316/153/49 467/91/49 470/116/49
f 182/72/311 326/169/311 622/168/311
f 180/73/51 624/133/51 466/132/51
f 318/26/52 474/192/52 473/97/52
f 184/74/53 182/72/53 623/134/53
f 311/173/54 625/177/54 626/174/54
f 296/25/55 295/71/55 472/99/55
f 305/176/49 542/716/49 625/177/49
f 176/178/57 627/182/57 624/179/57
f 176/178/58 177/184/58 628/181/58
f 55/183/59 629/191/59 628/181/59
f 315/18/54 470/116/54 541/118/54
f 297/28/60 296/25/60 475/98/60
f 93/187/312 389/194/312 388/188/312
f 174/190/57 630/196/57 629/191/57
f 319/36/62 477/100/62 474/192/62
f 72/193/63 390/390/63 389/194/63
f 173/195/313 631/201/313 630/196/313
f 305/57/65 324/185/65 541/118/65
f 320/31/66 479/102/66 480/136/66
f 175/200/68 632/206/68 631/201/68
f 130/202/314 543/208/314 544/203/314
f 268/30/70 343/703/70 479/102/70
f 50/205/71 633/213/71 632/206/71
f 131/207/72 545/215/72 543/208/72
f 51/212/74 634/218/74 633/213/74
f 306/214/75 546/220/75 545/215/75
f 321/32/208 480/136/208 481/135/208
f 15/216/315 394/222/315 393/210/315
f 49/217/78 635/224/78 634/218/78
f 306/214/316 278/286/316 404/219/316
f 70/221/80 395/228/80 394/222/80
f 46/223/81 636/230/81 635/224/81
f 132/204/82 544/203/82 354/225/82
f 70/221/83 69/235/83 396/227/83
f 42/229/84 333/453/84 636/230/84
f 183/231/85 184/34/85 482/232/85
f 200/234/80 397/241/80 396/227/80
f 157/236/54 637/242/54 332/237/54
f 187/35/86 483/103/86 484/104/86
f 201/240/317 398/244/317 397/241/317
f 312/175/49 626/174/49 637/242/49
f 106/59/88 548/121/88 549/120/88
f 202/243/80 399/249/80 398/244/80
f 328/77/89 639/139/89 638/138/89
f 307/245/318 550/251/318 415/246/318
f 323/239/91 484/104/91 477/100/91
f 6/248/92 400/255/92 399/249/92
f 282/76/93 436/137/93 639/139/93
f 140/250/94 551/259/94 550/251/94
f 56/252/95 336/472/95 485/253/95
f 5/254/96 401/263/96 400/255/96
f 179/256/97 327/75/97 638/138/97
f 24/258/98 416/380/98 551/259/98
f 298/260/99 486/269/99 335/261/99
f 66/262/319 402/271/319 401/263/319
f 121/264/320 640/273/320 641/265/320
f 228/267/102 503/415/102 552/124/102
f 303/268/103 487/277/103 486/269/103
f 65/270/104 403/279/104 402/271/104
f 121/264/321 122/281/321 642/272/321
f 241/63/106 552/124/106 520/274/106
f 302/276/99 488/284/99 487/277/99
f 203/278/107 349/547/107 403/279/107
f 123/280/322 643/288/322 642/272/322
f 243/64/323 553/125/323 554/127/323
f 161/283/103 489/290/103 488/284/103
f 280/285/79 405/292/79 404/219/79
f 124/287/110 644/294/110 643/288/110
f 235/66/111 513/487/111 553/125/111
f 301/289/40 490/298/40 489/290/40
f 279/291/112 406/84/112 405/292/112
f 125/293/113 645/300/113 644/294/113
f 244/282/114 554/127/114 531/295/114
f 301/289/44 300/303/44 491/297/44
f 264/299/324 646/305/324 645/300/324
f 237/301/116 518/521/116 555/302/116
f 299/150/40 492/152/40 491/297/40
f 264/299/155 267/312/155 647/304/155
f 242/306/117 556/130/117 514/307/117
f 281/309/118 409/314/118 408/310/118
f 263/311/325 648/316/325 647/304/325
f 240/69/120 555/302/120 556/130/120
f 286/313/121 410/324/121 409/314/121
f 263/311/110 159/326/110 649/315/110
f 57/320/123 58/329/123 494/321/123
f 287/323/124 411/331/124 410/324/124
f 314/325/125 650/333/125 649/315/125
f 249/327/126 558/335/126 557/319/126
f 60/328/127 495/337/127 494/321/127
f 285/330/128 412/582/128 411/331/128
f 314/325/110 313/339/110 651/332/110
f 52/334/129 559/341/129 558/335/129
f 61/336/130 496/343/130 495/337/130
f 297/338/47 478/717/47 651/332/47
f 250/340/326 560/347/326 559/341/326
f 62/342/48 497/349/48 496/343/48
f 186/344/132 652/351/132 483/345/132
f 247/54/327 561/353/327 560/347/327
f 62/342/48 63/355/48 498/348/48
f 186/344/123 188/357/123 653/350/123
f 245/352/134 562/359/134 561/353/134
f 64/354/135 499/360/135 498/348/135
f 189/356/136 654/361/136 653/350/136
f 144/358/137 563/362/137 562/359/137
f 59/8/138 485/253/138 499/360/138
f 57/320/132 493/322/132 654/361/132
f 145/56/139 564/79/139 563/362/139
f 72/363/140 390/106/140 500/112/140
f 265/364/89 655/373/89 442/365/89
f 246/367/141 565/375/141 564/79/141
f 17/189/328 388/188/328 390/368/328
f 290/370/143 414/376/143 413/371/143
f 266/266/110 641/265/110 655/373/110
f 248/374/144 566/377/144 565/375/144
f 288/247/145 415/246/145 414/376/145
f 239/60/146 549/120/146 566/377/146
f 26/378/147 567/382/147 548/121/147
f 23/379/148 417/384/148 416/380/148
f 22/381/149 510/80/149 567/382/149
f 25/383/150 418/389/150 417/384/150
f 223/41/152 460/634/152 465/88/152
f 104/388/153 419/392/153 418/389/153
f 469/718/329 468/719/329 624/179/329
f 627/182/2 628/181/2 629/191/2
f 469/718/2 624/179/2 627/182/2
f 625/177/2 542/716/2 469/718/2
f 637/242/2 626/174/2 625/177/2
f 331/439/48 332/237/48 637/242/48
f 330/425/2 329/433/2 331/439/2
f 346/534/2 347/538/2 348/541/2
f 330/425/2 331/439/2 637/242/2
f 637/242/2 625/177/2 469/718/2
f 627/182/2 629/191/2 630/196/2
f 627/182/2 630/196/2 631/201/2
f 631/201/2 632/206/2 633/213/2
f 631/201/2 633/213/2 634/218/2
f 469/718/2 627/182/2 631/201/2
f 469/718/2 631/201/2 634/218/2
f 635/224/2 636/230/2 333/453/2
f 469/718/2 634/218/2 635/224/2
f 637/242/2 469/718/2 635/224/2
f 635/224/2 333/453/2 334/461/2
f 335/261/2 486/269/2 487/277/2
f 635/224/2 334/461/2 335/261/2
f 330/425/2 637/242/2 635/224/2
f 348/541/2 330/425/2 635/224/2
f 635/224/2 335/261/2 487/277/2
f 487/277/2 488/284/2 489/290/2
f 489/290/2 490/298/2 491/297/2
f 491/297/330 492/152/330 537/151/330
f 538/163/331 539/167/331 540/166/331
f 491/297/2 537/151/2 538/163/2
f 487/277/2 489/290/2 491/297/2
f 348/541/2 635/224/2 487/277/2
f 344/523/2 345/530/2 346/534/2
f 346/534/2 348/541/2 487/277/2
f 346/534/2 487/277/2 491/297/2
f 342/720/2 343/514/2 344/523/2
f 344/523/2 346/534/2 491/297/2
f 344/523/2 491/297/2 538/163/2
f 341/721/2 342/720/2 344/523/2
f 482/172/26 623/134/26 471/95/26
f 471/95/332 341/721/332 344/523/332
f 344/523/2 538/163/2 540/166/2
f 540/166/2 659/722/2 658/142/2
f 356/510/2 536/140/2 535/113/2
f 535/113/333 669/519/333 667/723/333
f 667/723/2 668/518/2 588/517/2
f 589/525/2 590/536/2 591/540/2
f 667/723/334 588/517/334 589/525/334
f 356/510/2 535/113/2 667/723/2
f 540/166/2 658/142/2 443/528/2
f 471/95/335 344/523/335 540/166/335
f 340/724/336 482/172/336 471/95/336
f 339/492/337 340/724/337 471/95/337
f 356/510/2 667/723/2 589/525/2
f 589/525/2 591/540/2 592/543/2
f 593/549/2 594/555/2 595/560/2
f 589/525/2 592/543/2 593/549/2
f 339/492/338 471/95/338 540/166/338
f 336/472/2 337/478/2 338/483/2
f 338/483/2 339/492/2 540/166/2
f 356/510/2 589/525/2 593/549/2
f 595/560/2 596/564/2 597/563/2
f 356/510/2 593/549/2 595/560/2
f 336/472/2 338/483/2 540/166/2
f 485/253/2 336/472/2 540/166/2
f 356/510/2 595/560/2 597/563/2
f 597/563/2 598/572/2 599/578/2
f 599/578/2 600/577/2 601/585/2
f 601/585/2 602/595/2 603/599/2
f 603/599/2 604/603/2 605/609/2
f 601/585/339 603/599/339 605/609/339
f 597/563/2 599/578/2 601/585/2
f 499/360/2 485/253/2 540/166/2
f 496/343/340 497/349/340 498/348/340
f 498/348/2 499/360/2 540/166/2
f 356/510/2 597/563/2 601/585/2
f 356/510/2 601/585/2 605/609/2
f 498/348/2 540/166/2 443/528/2
f 496/343/2 498/348/2 443/528/2
f 356/510/2 605/609/2 606/613/2
f 356/510/2 606/613/2 607/617/2
f 495/337/2 496/343/2 443/528/2
f 494/321/2 495/337/2 443/528/2
f 356/510/2 607/617/2 608/621/2
f 609/625/2 610/629/2 611/628/2
f 356/510/2 608/621/2 609/625/2
f 494/321/2 443/528/2 355/583/2
f 653/350/2 654/361/2 493/322/2
f 493/322/2 494/321/2 355/583/2
f 356/510/2 609/625/2 611/628/2
f 611/628/2 612/638/2 613/642/2
f 613/642/2 614/646/2 615/645/2
f 615/645/2 616/655/2 617/658/2
f 617/658/2 618/148/2 619/157/2
f 619/157/2 620/161/2 621/165/2
f 569/398/2 570/402/2 571/409/2
f 619/157/2 621/165/2 569/398/2
f 615/645/2 617/658/2 619/157/2
f 611/628/2 613/642/2 615/645/2
f 653/350/2 493/322/2 355/583/2
f 476/725/2 483/345/2 652/351/2
f 652/351/2 653/350/2 355/583/2
f 611/628/2 615/645/2 619/157/2
f 619/157/2 569/398/2 571/409/2
f 571/409/2 572/413/2 573/419/2
f 573/419/341 574/428/341 575/427/341
f 576/441/2 577/446/2 578/455/2
f 573/419/2 575/427/2 576/441/2
f 619/157/2 571/409/2 573/419/2
f 476/725/2 652/351/2 355/583/2
f 651/332/2 478/717/2 476/725/2
f 649/315/342 650/333/342 651/332/342
f 647/304/342 648/316/342 649/315/342
f 645/300/343 646/305/343 647/304/343
f 644/294/2 645/300/2 647/304/2
f 647/304/344 649/315/344 651/332/344
f 651/332/2 476/725/2 355/583/2
f 611/628/2 619/157/2 573/419/2
f 611/628/2 573/419/2 576/441/2
f 647/304/2 651/332/2 355/583/2
f 644/294/2 647/304/2 355/583/2
f 611/628/2 576/441/2 578/455/2
f 578/455/2 579/463/2 580/468/2
f 580/468/2 581/474/2 582/480/2
f 583/485/2 584/494/2 585/499/2
f 582/480/2 583/485/2 585/499/2
f 585/499/2 586/503/2 587/507/2
f 582/480/2 585/499/2 587/507/2
f 580/468/2 582/480/2 587/507/2
f 580/468/2 587/507/2 357/593/2
f 356/510/2 611/628/2 578/455/2
f 578/455/2 580/468/2 357/593/2
f 358/597/2 359/601/2 360/607/2
f 356/510/2 578/455/2 357/593/2
f 356/510/2 357/593/2 358/597/2
f 643/288/29 644/294/29 355/583/29
f 641/265/345 640/273/345 642/272/345
f 642/272/2 643/288/2 355/583/2
f 356/510/2 358/597/2 360/607/2
f 361/611/2 362/615/2 363/619/2
f 356/510/2 360/607/2 361/611/2
f 641/265/2 642/272/2 355/583/2
f 655/373/2 641/265/2 355/583/2
f 355/583/2 356/510/2 361/611/2
f 363/619/2 364/623/2 365/627/2
f 355/583/2 361/611/2 363/619/2
f 442/365/2 655/373/2 355/583/2
f 439/505/2 440/509/2 441/512/2
f 441/512/2 442/365/2 355/583/2
f 355/583/2 363/619/2 365/627/2
f 365/627/2 366/631/2 367/636/2
f 367/636/2 368/640/2 369/644/2
f 369/644/2 370/648/2 371/653/2
f 372/652/2 373/146/2 374/145/2
f 369/644/2 371/653/2 372/652/2
f 355/583/2 365/627/2 367/636/2
f 369/644/2 372/652/2 374/145/2
f 355/583/2 367/636/2 369/644/2
f 439/505/2 441/512/2 355/583/2
f 437/497/2 438/501/2 439/505/2
f 435/726/2 436/489/2 437/497/2
f 433/470/2 434/477/2 435/726/2
f 431/460/346 432/459/346 433/470/346
f 430/443/2 431/460/2 433/470/2
f 433/470/2 435/726/2 437/497/2
f 437/497/2 439/505/2 355/583/2
f 355/583/2 369/644/2 374/145/2
f 375/545/2 523/551/2 524/557/2
f 355/583/2 374/145/2 375/545/2
f 433/470/2 437/497/2 355/583/2
f 429/444/2 430/443/2 433/470/2
f 427/431/2 428/438/2 429/444/2
f 425/417/2 426/423/2 427/431/2
f 423/407/2 424/411/2 425/417/2
f 420/394/2 421/396/2 422/400/2
f 422/400/2 423/407/2 425/417/2
f 425/417/2 427/431/2 429/444/2
f 355/583/2 375/545/2 524/557/2
f 425/417/2 429/444/2 433/470/2
f 420/394/2 422/400/2 425/417/2
f 418/389/2 419/392/2 420/394/2
f 416/380/2 417/384/2 418/389/2
f 550/251/2 551/259/2 416/380/2
f 414/376/347 415/246/347 550/251/347
f 452/591/2 450/575/2 413/371/2
f 414/376/2 550/251/2 416/380/2
f 452/591/2 413/371/2 414/376/2
f 412/582/2 451/588/2 452/591/2
f 409/314/2 410/324/2 411/331/2
f 411/331/2 412/582/2 452/591/2
f 414/376/2 416/380/2 418/389/2
f 411/331/2 452/591/2 414/376/2
f 407/83/2 408/310/2 409/314/2
f 411/331/2 414/376/2 418/389/2
f 411/331/2 418/389/2 420/394/2
f 420/394/2 425/417/2 433/470/2
f 526/562/2 527/570/2 528/574/2
f 528/574/2 529/573/2 530/586/2
f 530/586/2 531/295/2 532/126/2
f 533/714/2 513/487/2 512/495/2
f 530/586/2 532/126/2 533/714/2
f 526/562/2 528/574/2 530/586/2
f 525/556/2 526/562/2 530/586/2
f 530/586/2 533/714/2 512/495/2
f 512/495/2 514/307/2 515/129/2
f 530/586/28 512/495/28 515/129/28
f 524/557/2 525/556/2 530/586/2
f 411/331/2 420/394/2 433/470/2
f 411/331/2 433/470/2 355/583/2
f 524/557/2 530/586/2 515/129/2
f 524/557/2 515/129/2 516/715/2
f 409/314/2 411/331/2 355/583/2
f 405/292/2 406/84/2 407/83/2
f 407/83/2 409/314/2 355/583/2
f 524/557/2 516/715/2 517/128/2
f 517/128/31 518/521/31 519/526/31
f 519/526/2 520/274/2 521/123/2
f 524/557/2 517/128/2 519/526/2
f 405/292/2 407/83/2 355/583/2
f 545/215/2 546/220/2 404/219/2
f 404/219/2 405/292/2 355/583/2
f 524/557/2 519/526/2 521/123/2
f 524/557/2 521/123/2 522/713/2
f 543/208/2 545/215/2 404/219/2
f 354/225/2 544/203/2 543/208/2
f 353/45/2 354/225/2 543/208/2
f 543/208/2 404/219/2 355/583/2
f 524/557/2 522/713/2 376/122/2
f 524/557/2 376/122/2 377/712/2
f 353/45/2 543/208/2 355/583/2
f 350/553/2 351/558/2 352/697/2
f 352/697/2 353/45/2 355/583/2
f 524/557/2 377/712/2 378/711/2
f 524/557/2 378/711/2 379/109/2
f 350/553/2 352/697/2 355/583/2
f 403/279/2 349/547/2 350/553/2
f 401/263/2 402/271/2 403/279/2
f 399/249/2 400/255/2 401/263/2
f 396/227/29 397/241/29 398/244/29
f 398/244/2 399/249/2 401/263/2
f 403/279/2 350/553/2 355/583/2
f 396/227/2 398/244/2 401/263/2
f 401/263/2 403/279/2 355/583/2
f 355/583/2 524/557/2 379/109/2
f 380/710/348 381/108/348 382/709/348
f 355/583/2 379/109/2 380/710/2
f 395/228/28 396/227/28 401/263/28
f 355/583/2 380/710/2 382/709/2
f 382/709/349 383/708/349 384/707/349
f 355/583/2 382/709/2 384/707/2
f 394/222/2 395/228/2 401/263/2
f 401/263/2 355/583/2 384/707/2
f 401/263/2 384/707/2 385/706/2
f 393/210/2 394/222/2 401/263/2
f 390/390/2 391/674/2 392/211/2
f 392/211/2 393/210/2 401/263/2
f 401/263/2 385/706/2 386/705/2
f 386/705/350 387/90/350 463/702/350
f 461/89/2 462/107/2 388/188/2
f 401/263/2 386/705/2 463/702/2
f 463/702/2 461/89/2 388/188/2
f 388/188/2 389/194/2 390/390/2
f 390/390/2 392/211/2 401/263/2
f 401/263/2 463/702/2 388/188/2
f 103/391/351 420/394/351 419/392/351
f 317/24/110 473/97/110 568/131/110
f 207/393/153 421/396/153 420/394/153
f 295/71/156 325/70/156 568/131/156
f 206/395/154 422/400/154 421/396/154
f 256/397/157 570/402/157 569/398/157
f 208/399/158 423/407/158 422/400/158
f 91/401/164 571/409/164 570/402/164
f 225/403/244 464/656/244 502/404/244
f 209/406/161 424/411/161 423/407/161
f 92/408/157 572/413/157 571/409/157
f 148/410/163 425/417/163 424/411/163
f 19/412/352 573/419/352 572/413/352
f 227/414/102 504/421/102 503/415/102
f 149/416/165 426/423/165 425/417/165
f 169/418/166 574/428/166 573/419/166
f 229/420/167 505/429/167 504/421/167
f 152/422/168 427/431/168 426/423/168
f 194/424/49 329/433/49 330/425/49
f 169/418/169 168/435/169 575/427/169
f 230/44/170 506/110/170 505/429/170
f 210/430/171 428/438/171 427/431/171
f 155/432/66 331/439/66 329/433/66
f 167/434/172 576/441/172 575/427/172
f 232/436/353 507/442/353 506/110/353
f 211/437/174 429/444/174 428/438/174
f 156/238/54 332/237/54 331/439/54
f 170/440/175 577/446/175 576/441/175
f 231/405/176 502/404/176 507/442/176
f 211/437/177 220/451/177 430/443/177
f 171/445/178 578/455/178 577/446/178
f 72/447/179 390/727/179 508/448/179
f 216/450/354 431/460/354 430/443/354
f 41/452/84 334/461/84 333/453/84
f 172/454/355 579/463/355 578/455/355
f 74/456/356 509/464/356 390/457/356
f 216/450/183 53/466/183 432/459/183
f 37/6/103 335/261/103 334/461/103
f 166/462/184 580/468/184 579/463/184
f 20/48/185 501/105/185 509/464/185
f 54/465/186 433/470/186 432/459/186
f 165/467/187 581/474/187 580/468/187
f 178/469/188 434/477/188 433/470/188
f 190/471/189 337/478/189 336/472/189
f 164/473/190 582/480/190 581/474/190
f 21/475/191 511/481/191 510/80/191
f 179/476/183 435/726/183 434/477/183
f 191/7/192 338/483/192 337/478/192
f 162/479/193 583/485/193 582/480/193
f 94/449/194 508/448/194 511/481/194
f 185/482/95 339/492/95 338/483/95
f 163/484/357 584/494/357 583/485/357
f 234/486/196 512/495/196 513/487/196
f 284/488/197 437/497/197 436/489/197
f 183/491/189 340/728/189 339/492/189
f 16/493/358 585/499/358 584/494/358
f 233/308/117 514/307/117 512/495/117
f 283/496/89 438/501/89 437/497/89
f 10/498/200 586/503/200 585/499/200
f 154/500/197 439/505/197 438/501/197
f 9/502/201 587/507/201 586/503/201
f 219/504/89 440/509/89 439/505/89
f 8/506/202 357/593/202 587/507/202
f 217/508/359 441/512/359 440/509/359
f 1/53/137 536/140/137 356/510/137
f 218/366/108 442/365/108 441/512/108
f 270/513/208 344/523/208 343/514/208
f 663/516/204 32/524/204 588/517/204
f 33/51/204 664/687/204 669/519/204
f 238/520/205 519/526/205 518/521/205
f 269/522/66 345/530/66 344/523/66
f 32/524/204 31/532/204 589/525/204
f 236/275/206 520/274/206 519/526/206
f 4/527/207 355/583/207 443/528/207
f 158/529/76 346/534/76 345/530/76
f 128/531/209 590/536/209 589/525/209
f 193/533/66 347/538/66 346/534/66
f 129/535/204 591/540/204 590/536/204
f 150/1/210 444/1/210 445/78/210
f 196/537/76 348/541/76 347/538/76
f 127/539/204 592/543/204 591/540/204
f 151/3/211 446/3/211 444/1/211
f 195/426/212 330/425/212 348/541/212
f 126/542/213 593/549/213 592/543/213
f 139/544/214 523/551/214 375/545/214
f 204/546/360 350/553/360 349/547/360
f 257/548/216 594/555/216 593/549/216
f 137/550/217 524/557/217 523/551/217
f 213/78/218 445/78/218 447/2/218
f 205/552/319 351/558/319 350/553/319
f 259/554/213 595/560/213 594/555/213
f 137/550/219 138/561/219 525/556/219
f 214/4/361 448/4/361 446/3/361
f 135/46/220 352/697/220 351/558/220
f 258/559/216 596/564/216 595/560/216
f 138/561/221 142/566/221 526/562/221
f 215/5/218 449/5/218 448/4/218
f 258/559/213 160/568/213 597/563/213
f 143/565/222 527/570/222 526/562/222
f 309/567/216 598/572/216 597/563/216
f 146/569/223 528/574/223 527/570/223
f 212/2/224 447/2/224 449/5/224
f 133/226/82 354/225/82 353/45/82
f 310/571/213 599/578/213 598/572/213
f 146/569/225 147/580/225 529/573/225
f 289/372/143 413/371/143 450/575/143
f 310/571/226 308/584/226 600/577/226
f 27/579/207 530/586/207 529/573/207
f 294/581/128 451/588/128 412/582/128
f 3/511/48 356/510/48 355/583/48
f 308/584/227 153/590/227 601/585/227
f 112/296/114 531/295/114 530/586/114
f 293/587/228 452/591/228 451/588/228
f 260/589/226 602/595/226 601/585/226
f 292/576/229 450/575/229 452/591/229
f 13/592/230 358/597/230 357/593/230
f 261/594/227 603/599/227 602/595/227
f 291/9/112 453/82/112 406/84/112
f 12/596/231 359/601/231 358/597/231
f 262/598/226 604/603/226 603/599/226
f 277/11/118 408/310/118 453/82/118
f 11/600/232 360/607/232 359/601/232
f 120/602/227 605/609/227 604/603/227
f 73/50/233 534/111/233 501/105/233
f 221/14/234 454/86/234 455/604/234
f 7/606/235 361/611/235 360/607/235
f 119/608/226 606/613/226 605/609/226
f 71/49/362 500/112/362 534/111/362
f 222/385/363 456/387/363 454/86/363
f 68/610/239 362/615/239 361/611/239
f 118/612/207 607/617/207 606/613/207
f 67/614/364 363/619/364 362/615/364
f 117/616/207 608/621/207 607/617/207
f 197/618/365 364/623/365 363/619/365
f 116/620/240 609/625/240 608/621/240
f 198/622/241 365/627/241 364/623/241
f 114/624/240 610/629/240 609/625/240
f 199/626/239 366/631/239 365/627/239
f 114/624/242 113/633/242 611/628/242
f 136/630/366 367/636/366 366/631/366
f 115/632/243 612/638/243 611/628/243
f 224/605/244 455/604/244 460/634/244
f 276/635/239 368/640/239 367/636/239
f 30/637/245 613/642/245 612/638/245
f 275/639/367 369/644/367 368/640/367
f 29/641/243 614/646/243 613/642/243
f 271/643/247 370/648/247 369/644/247
f 29/641/248 28/650/248 615/645/248
f 272/647/249 371/653/249 370/648/249
f 111/649/250 616/655/250 615/645/250
f 33/51/48 535/113/48 666/115/48
f 272/647/251 273/657/251 372/652/251
f 110/654/248 617/658/248 616/655/248
f 226/17/252 465/88/252 464/656/252
f 274/144/368 373/146/368 372/652/368
f 100/149/254 618/148/254 617/658/254
f 658/659/137 659/729/137 657/660/137
f 665/662/255 660/730/255 661/663/255
f 667/665/255 669/731/255 664/666/255
f 662/668/256 663/732/256 668/669/256
