# Blender 4.4.1
# www.blender.org
mtllib SquatWall.mtl
o 平面
v 1.250000 1.000000 0.075000
v -1.250000 1.000000 0.075000
v 1.250000 2.500000 0.075000
v -1.250000 2.500000 0.075000
v 1.250000 2.500000 -0.075000
v 1.250000 1.000000 -0.075000
v -1.250000 1.000000 -0.075000
v -1.250000 2.500000 -0.075000
vn -0.0000 -0.0000 1.0000
vn -0.0000 -0.0000 -1.0000
vn -0.0000 1.0000 -0.0000
vn -0.0000 -1.0000 -0.0000
vn -1.0000 -0.0000 -0.0000
vn 1.0000 -0.0000 -0.0000
vt 0.045538 0.500000
vt 0.802974 0.954462
vt 0.045538 0.954462
vt 0.802974 0.000092
vt 0.045538 0.454554
vt 0.045538 0.000092
vt 0.802974 0.454554
vt 0.802974 0.500000
vt 0.045538 0.999908
vt 0.848421 0.954462
vt 0.000092 0.500000
vt 0.802974 0.999908
vt 0.848421 0.500000
vt 0.000092 0.954462
s 0
usemtl マテリアル.006
f 3/1/1 2/2/1 1/3/1
f 7/4/2 5/5/2 6/6/2
f 3/1/3 8/7/3 4/8/3
f 2/2/4 6/9/4 1/3/4
f 4/8/5 7/10/5 2/2/5
f 1/3/6 5/11/6 3/1/6
f 3/1/1 4/8/1 2/2/1
f 7/4/2 8/7/2 5/5/2
f 3/1/3 5/5/3 8/7/3
f 2/2/4 7/12/4 6/9/4
f 4/8/5 8/13/5 7/10/5
f 1/3/6 6/14/6 5/11/6
