# Blender 4.1.1
# www.blender.org
mtllib Enemy03.mtl
o 立方体
v -0.769222 0.873439 -0.696817
v -0.769222 0.609695 -0.896343
v -1.111974 0.609695 -0.646706
v -0.769222 -0.574128 -0.896343
v -0.769222 -0.837872 -0.696817
v -1.111974 -0.574128 -0.646706
v -0.769222 0.873440 0.487004
v -1.111974 0.609695 0.537114
v -0.769222 0.609695 0.883108
v -0.769222 -0.837872 0.487004
v -0.769222 -0.574125 0.883108
v -1.111974 -0.574125 0.537114
v 0.769222 0.873439 -0.696817
v 1.111974 0.609695 -0.646706
v 0.769222 0.609695 -0.896343
v 0.769222 -0.837872 -0.696817
v 0.769222 -0.574128 -0.896343
v 1.111974 -0.574128 -0.646706
v 0.769222 0.873440 0.487004
v 0.769222 0.609695 0.883108
v 1.111974 0.609695 0.537114
v 0.769222 -0.837872 0.487004
v 1.111974 -0.574125 0.537114
v 0.769222 -0.574125 0.883108
vn -0.0000 1.0000 -0.0000
vn -1.0000 -0.0000 -0.0000
vn -0.0000 -0.0000 1.0000
vn 0.6098 -0.7925 -0.0000
vn -0.5887 -0.0000 -0.8083
vn -0.5023 0.5217 -0.6896
vn -0.5023 -0.5217 -0.6896
vn -0.4883 0.7264 0.4837
vn -0.4883 -0.7264 0.4837
vn 0.5023 0.5217 -0.6896
vn 0.5023 -0.5217 -0.6896
vn 0.4883 0.7264 0.4837
vn 0.4883 -0.7264 0.4837
vn 0.5887 -0.0000 -0.8083
vn -0.0000 0.6033 -0.7975
vn -0.0000 0.8324 0.5542
vn -0.6098 0.7925 -0.0000
vn -0.7104 -0.0000 0.7038
vn -0.0000 -0.8324 0.5542
vn -0.0000 -0.0000 -1.0000
vn -0.6098 -0.7925 -0.0000
vn 1.0000 -0.0000 -0.0000
vn 0.6098 0.7925 -0.0000
vn -0.0000 -1.0000 -0.0000
vn 0.7104 -0.0000 0.7038
vn -0.0000 -0.6033 -0.7975
vt 0.562126 0.598433
vt 0.698954 0.598095
vt 0.699528 0.831183
vt 0.562701 0.831520
vt 0.071293 0.402597
vt 0.208121 0.402260
vt 0.208458 0.539088
vt 0.071630 0.539425
vt 0.268337 0.402112
vt 0.501424 0.401537
vt 0.501762 0.538365
vt 0.268674 0.538939
vt 0.698320 0.340835
vt 0.698468 0.401051
vt 0.561640 0.401389
vt 0.561492 0.341173
vt 0.011077 0.402745
vt 0.011414 0.539574
vt 0.742639 0.831077
vt 0.721222 0.887355
vt 0.026410 0.362453
vt 0.541283 0.887799
vt 0.519590 0.831626
vt 0.207972 0.342044
vt 0.248265 0.357377
vt 0.720371 0.541817
vt 0.742065 0.597989
vt 0.758578 0.357792
vt 0.758684 0.400903
vt 0.702405 0.379486
vt 0.519015 0.598539
vt 0.540432 0.542260
vt 0.501318 0.358426
vt 0.557597 0.379843
vt 0.759022 0.537731
vt 0.698806 0.537879
vt 0.699677 0.891399
vt 0.562849 0.891736
vt 0.268231 0.359001
vt 0.991772 0.400329
vt 0.992109 0.537156
vt 0.071144 0.342381
vt 0.561978 0.538217
vt 0.560917 0.108085
vt 0.697745 0.107748
vt 0.991666 0.357218
s 0
usemtl マテリアル
f 19/1/1 13/2/1 1/3/1 7/4/1
f 6/5/2 12/6/2 8/7/2 3/8/2
f 11/9/3 24/10/3 20/11/3 9/12/3
f 16/13/4 18/14/4 23/15/4 22/16/4
f 4/17/5 6/5/5 3/8/5 2/18/5
f 1/3/6 2/19/6 3/20/6
f 4/17/7 5/21/7 6/5/7
f 7/4/8 8/22/8 9/23/8
f 10/24/9 11/25/9 12/6/9
f 13/2/10 14/26/10 15/27/10
f 16/28/11 17/29/11 18/30/11
f 19/1/12 20/31/12 21/32/12
f 22/33/13 23/34/13 24/10/13
f 15/35/14 14/36/14 18/14/14 17/29/14
f 1/3/15 13/2/15 15/27/15 2/19/15
f 7/4/16 9/23/16 20/31/16 19/1/16
f 1/3/17 3/37/17 8/38/17 7/4/17
f 9/12/18 8/7/18 12/6/18 11/9/18
f 22/33/19 24/10/19 11/9/19 10/39/19
f 17/29/20 4/40/20 2/41/20 15/35/20
f 10/24/21 12/6/21 6/5/21 5/42/21
f 23/15/22 18/14/22 14/36/22 21/43/22
f 19/1/23 21/43/23 14/36/23 13/2/23
f 10/44/24 5/45/24 16/13/24 22/16/24
f 21/43/25 20/11/25 24/10/25 23/15/25
f 5/46/26 4/40/26 17/29/26 16/28/26
