# Blender 4.1.1
# www.blender.org
mtllib Head.mtl
o Head
v -0.152780 0.066503 0.117513
v -0.152780 -0.127423 0.112239
v -0.152780 0.066503 -0.117515
v -0.152780 -0.127423 -0.112240
v 0.028962 0.191084 0.167947
v 0.028962 -0.150472 0.167948
v 0.028962 0.191084 -0.167948
v 0.028962 -0.150472 -0.167947
v 0.031327 0.191084 0.167947
v 0.031327 -0.150472 0.167948
v 0.031327 0.191084 -0.167948
v 0.031327 -0.150472 -0.167947
v 0.257967 0.191084 0.167948
v 0.257967 -0.150472 0.167948
v 0.257967 0.191084 -0.167947
v 0.257967 -0.150472 -0.167947
v -0.165476 0.089552 0.141198
v -0.165476 -0.150472 0.134670
v -0.165476 0.089552 -0.141199
v -0.165476 -0.150472 -0.134669
vn -0.4629 0.8864 -0.0000
vn -0.1686 -0.0268 -0.9853
vn 1.0000 -0.0000 -0.0000
vn -0.0000 -1.0000 -0.0000
vn -1.0000 -0.0000 -0.0000
vn -0.1686 -0.0268 0.9853
vn -0.0000 1.0000 -0.0000
vn -0.0000 -0.0000 -1.0000
vn -0.0000 -0.0000 1.0000
vn -0.8759 0.0131 -0.4823
vn -0.8759 -0.4825 -0.0000
vn -0.8759 0.0131 0.4823
vn -0.8759 0.4825 -0.0000
vn -0.1363 -0.0000 -0.9907
vn -0.1363 -0.0000 0.9907
vt 0.875000 0.500000
vt 0.625000 0.750000
vt 0.625000 0.500000
vt 0.375000 1.000000
vt 0.375000 0.750000
vt 0.375000 0.000000
vt 0.625000 0.250000
vt 0.375000 0.250000
vt 0.125000 0.500000
vt 0.125000 0.750000
vt 0.600993 0.520621
vt 0.399007 0.728826
vt 0.399007 0.521174
vt 0.375000 0.500000
vt 0.875000 0.750000
vt 0.625000 0.000000
vt 0.600993 0.729380
vt 0.625000 1.000000
s 0
usemtl Material.007
f 5/1/1 19/2/1 17/3/1
f 19/2/2 8/4/2 20/5/2
f 8/6/3 5/7/3 6/8/3
f 6/9/4 20/5/4 8/10/4
f 1/11/5 4/12/5 2/13/5
f 6/8/6 17/3/6 18/14/6
f 9/3/7 15/15/7 11/2/7
f 11/2/8 16/4/8 12/5/8
f 15/16/3 14/8/3 16/6/3
f 14/9/4 12/5/4 16/10/4
f 9/3/5 12/5/5 10/14/5
f 13/7/9 10/14/9 14/8/9
f 1/11/10 18/14/10 17/3/10
f 3/17/11 17/3/11 19/2/11
f 3/17/12 20/5/12 4/12/12
f 2/13/13 20/5/13 18/14/13
f 5/1/1 7/15/1 19/2/1
f 19/2/14 7/18/14 8/4/14
f 8/6/3 7/16/3 5/7/3
f 6/9/4 18/14/4 20/5/4
f 1/11/5 3/17/5 4/12/5
f 6/8/15 5/7/15 17/3/15
f 9/3/7 13/1/7 15/15/7
f 11/2/8 15/18/8 16/4/8
f 15/16/3 13/7/3 14/8/3
f 14/9/4 10/14/4 12/5/4
f 9/3/5 11/2/5 12/5/5
f 13/7/9 9/3/9 10/14/9
f 1/11/10 2/13/10 18/14/10
f 3/17/11 1/11/11 17/3/11
f 3/17/12 19/2/12 20/5/12
f 2/13/13 4/12/13 20/5/13
