# Blender 4.1.1
# www.blender.org
mtllib RightLeg.mtl
o RightLeg
v 0.100336 1.623063 -0.282044
v 0.100336 1.794058 -0.282044
v 0.100336 1.623063 -0.122248
v 0.100336 1.794058 -0.122248
v -0.100336 1.623063 -0.282044
v -0.100336 1.794058 -0.282044
v -0.100336 1.623063 -0.122248
v -0.100336 1.794058 -0.122248
v 0.125000 0.176837 -0.523650
v 0.125000 0.879754 -0.523650
v 0.125000 0.176837 -0.273650
v 0.125000 0.879754 -0.273650
v -0.125000 0.176837 -0.523650
v -0.125000 0.879754 -0.523650
v -0.125000 0.176837 -0.273650
v -0.125000 0.879754 -0.273650
v 0.100336 0.883944 -0.494405
v 0.100336 1.001631 -0.494405
v 0.100336 0.883944 -0.315383
v 0.100336 1.001631 -0.315383
v -0.100336 0.883944 -0.494405
v -0.100336 1.001631 -0.494405
v -0.100336 0.883944 -0.315383
v -0.100336 1.001631 -0.315383
v 0.136964 0.919258 -0.502550
v 0.180382 1.371676 -0.538722
v 0.136964 0.919258 -0.297096
v 0.180382 1.371676 -0.260925
v -0.136964 0.919258 -0.502550
v -0.180382 1.371676 -0.538722
v -0.136964 0.919258 -0.297096
v -0.180382 1.371676 -0.260925
v 0.180382 1.371843 -0.538722
v 0.180382 1.824261 -0.538722
v 0.180382 1.371843 -0.260925
v 0.180382 1.824261 -0.260925
v -0.180382 1.371843 -0.538722
v -0.180382 1.824261 -0.538722
v -0.180382 1.371843 -0.260925
v -0.180382 1.824261 -0.260925
v -0.428190 0.103105 -0.281059
v -0.428190 0.034811 -0.281059
v -0.428190 0.103105 -0.509907
v -0.428190 0.034811 -0.509907
v 0.120064 0.289340 -0.281059
v 0.120064 0.034811 -0.281059
v 0.120064 0.289340 -0.509907
v 0.120064 0.034811 -0.509907
vn 1.0000 -0.0000 -0.0000
vn -0.0000 -0.0000 1.0000
vn -1.0000 -0.0000 -0.0000
vn -0.0000 -0.0000 -1.0000
vn -0.0000 -1.0000 -0.0000
vn -0.0000 1.0000 -0.0000
vn 0.9954 -0.0955 -0.0000
vn -0.0000 -0.0797 0.9968
vn -0.9954 -0.0955 -0.0000
vn -0.0000 -0.0797 -0.9968
vn -0.3216 0.9469 -0.0000
vt 0.095456 0.652834
vt 0.093578 0.597386
vt 0.122241 0.626048
vt 0.155879 0.592411
vt 0.127216 0.563748
vt 0.182664 0.565625
vt 0.154001 0.536963
vt 0.216302 0.531988
vt 0.189516 0.626049
vt 0.216302 0.599263
vt 0.093579 0.530111
vt 0.507389 0.132353
vt 0.566653 0.298984
vt 0.507389 0.298984
vt 0.566653 0.132353
vt 0.625917 0.298984
vt 0.685181 0.132353
vt 0.685181 0.298984
vt 0.744445 0.298984
vt 0.625917 0.358248
vt 0.685181 0.358248
vt 0.625917 0.073089
vt 0.625917 0.132353
vt 0.193969 0.933323
vt 0.183688 0.883587
vt 0.213696 0.913596
vt 0.163960 0.903314
vt 0.150050 0.849950
vt 0.100315 0.839669
vt 0.120042 0.819942
vt 0.086404 0.786304
vt 0.153679 0.786304
vt 0.183688 0.816312
vt 0.130323 0.869677
vt 0.066677 0.873306
vt 0.637401 0.503729
vt 0.719113 0.594350
vt 0.620773 0.549506
vt 0.588327 0.605755
vt 0.676381 0.668430
vt 0.557025 0.643069
vt 0.634058 0.718882
vt 0.507276 0.684803
vt 0.507276 0.601335
vt 0.538577 0.564022
vt 0.699578 0.773846
vt 0.073310 0.124732
vt 0.195711 0.095461
vt 0.119875 0.171297
vt 0.180348 0.231770
vt 0.256184 0.155934
vt 0.226913 0.278336
vt 0.302750 0.202500
vt 0.287386 0.338808
vt 0.166441 0.338808
vt 0.119875 0.292243
vt 0.363222 0.142027
vt 0.342947 0.496385
vt 0.066793 0.624171
vt 0.187639 0.503325
vt 0.120364 0.503325
vt 0.744445 0.132353
vt 0.685181 0.073089
vt 0.066677 0.806031
vt 0.096686 0.903314
vt 0.741596 0.532453
vt 0.568538 0.773846
vt 0.741902 0.723394
vt 0.149146 0.048896
vt 0.363222 0.262972
vt 0.316657 0.095461
s 0
usemtl Material.006
f 1/1/1 4/2/1 3/3/1
f 4/2/2 7/4/2 3/3/2
f 8/5/3 5/6/3 7/4/3
f 6/7/4 1/8/4 5/6/4
f 3/9/5 5/6/5 1/10/5
f 4/11/6 6/7/6 8/5/6
f 10/12/1 11/13/1 9/14/1
f 12/15/2 15/16/2 11/13/2
f 15/16/3 14/17/3 13/18/3
f 14/17/4 9/19/4 13/18/4
f 11/20/5 13/18/5 9/21/5
f 12/22/6 14/17/6 16/23/6
f 18/24/1 19/25/1 17/26/1
f 20/27/2 23/28/2 19/25/2
f 23/28/3 22/29/3 21/30/3
f 22/29/4 17/31/4 21/30/4
f 23/28/5 17/32/5 19/33/5
f 24/34/6 18/35/6 22/29/6
f 25/36/7 28/37/7 27/38/7
f 28/37/8 31/39/8 27/38/8
f 32/40/9 29/41/9 31/39/9
f 30/42/10 25/43/10 29/41/10
f 31/39/5 25/44/5 27/45/5
f 32/40/6 26/46/6 30/42/6
f 33/47/1 36/48/1 35/49/1
f 36/48/2 39/50/2 35/49/2
f 40/51/3 37/52/3 39/50/3
f 38/53/4 33/54/4 37/52/4
f 39/50/5 33/55/5 35/56/5
f 40/51/6 34/57/6 38/53/6
f 41/58/11 47/58/11 43/58/11
f 43/58/4 48/58/4 44/58/4
f 47/58/1 46/58/1 48/58/1
f 42/58/5 48/58/5 46/58/5
f 41/58/3 44/58/3 42/58/3
f 46/58/2 41/58/2 42/58/2
f 1/1/1 2/59/1 4/2/1
f 4/2/2 8/5/2 7/4/2
f 8/5/3 6/7/3 5/6/3
f 6/7/4 2/60/4 1/8/4
f 3/9/5 7/4/5 5/6/5
f 4/11/6 2/61/6 6/7/6
f 10/12/1 12/15/1 11/13/1
f 12/15/2 16/23/2 15/16/2
f 15/16/3 16/23/3 14/17/3
f 14/17/4 10/62/4 9/19/4
f 11/20/5 15/16/5 13/18/5
f 12/22/6 10/63/6 14/17/6
f 18/24/1 20/27/1 19/25/1
f 20/27/2 24/34/2 23/28/2
f 23/28/3 24/34/3 22/29/3
f 22/29/4 18/64/4 17/31/4
f 23/28/5 21/30/5 17/32/5
f 24/34/6 20/65/6 18/35/6
f 25/36/7 26/66/7 28/37/7
f 28/37/8 32/40/8 31/39/8
f 32/40/9 30/42/9 29/41/9
f 30/42/10 26/67/10 25/43/10
f 31/39/5 29/41/5 25/44/5
f 32/40/6 28/68/6 26/46/6
f 33/47/1 34/69/1 36/48/1
f 36/48/2 40/51/2 39/50/2
f 40/51/3 38/53/3 37/52/3
f 38/53/4 34/70/4 33/54/4
f 39/50/5 37/52/5 33/55/5
f 40/51/6 36/71/6 34/57/6
f 41/58/11 45/58/11 47/58/11
f 43/58/4 47/58/4 48/58/4
f 47/58/1 45/58/1 46/58/1
f 42/58/5 44/58/5 48/58/5
f 41/58/3 43/58/3 44/58/3
f 46/58/2 45/58/2 41/58/2
