# Blender 4.1.1
# www.blender.org
mtllib Sun.mtl
o 円錐.004
v -9.324162 9.324162 -3.522336
v -6.833493 11.814829 0.000000
v -9.324162 9.324162 3.522336
v -11.814829 6.833493 0.000000
v -14.305497 14.305497 0.000000
v 9.750000 0.000000 0.000000
v 9.488750 -0.000000 0.975000
v 8.775001 -0.000000 1.688750
v 7.800000 -0.000000 1.950000
v 6.825000 -0.000000 1.688750
v 6.111250 -0.000000 0.975000
v 5.850000 -0.000000 0.000000
v 6.111250 0.000000 -0.975000
v 6.825000 0.000000 -1.688750
v 7.800000 0.000000 -1.950000
v 8.775001 0.000000 -1.688750
v 9.488750 0.000000 -0.975000
v 9.666588 1.272630 0.000000
v 9.407573 1.238530 0.975000
v 8.699929 1.145367 1.688750
v 7.733270 1.018104 1.950000
v 6.766611 0.890841 1.688750
v 6.058968 0.797678 0.975000
v 5.799953 0.763578 0.000000
v 6.058968 0.797678 -0.975000
v 6.766611 0.890841 -1.688750
v 7.733270 1.018104 -1.950000
v 8.699929 1.145367 -1.688750
v 9.407573 1.238530 -0.975000
v 9.417777 2.523485 0.000000
v 9.165428 2.455869 0.975000
v 8.476000 2.271137 1.688750
v 7.534222 2.018788 1.950000
v 6.592444 1.766439 1.688750
v 5.903015 1.581708 0.975000
v 5.650666 1.514091 0.000000
v 5.903015 1.581708 -0.975000
v 6.592444 1.766440 -1.688749
v 7.534222 2.018788 -1.950000
v 8.476000 2.271137 -1.688749
v 9.165428 2.455869 -0.975000
v 9.007826 3.731163 0.000000
v 8.766462 3.631187 0.975000
v 8.107043 3.358047 1.688750
v 7.206261 2.984930 1.950000
v 6.305478 2.611814 1.688750
v 5.646060 2.338674 0.975000
v 5.404696 2.238698 0.000000
v 5.646060 2.338674 -0.975000
v 6.305478 2.611814 -1.688749
v 7.206261 2.984930 -1.950000
v 8.107043 3.358047 -1.688749
v 8.766462 3.631187 -0.975000
v 8.443748 4.875001 0.000000
v 8.217498 4.744376 0.975000
v 7.599372 4.387501 1.688750
v 6.754998 3.900001 1.950000
v 5.910623 3.412501 1.688750
v 5.292498 3.055626 0.975000
v 5.066248 2.925001 0.000000
v 5.292498 3.055626 -0.975000
v 5.910623 3.412501 -1.688749
v 6.754998 3.900001 -1.950000
v 7.599372 4.387501 -1.688749
v 8.217498 4.744376 -0.975000
v 7.735197 5.935423 0.000000
v 7.527932 5.776384 0.975000
v 6.961677 5.341881 1.688750
v 6.188157 4.748338 1.950000
v 5.414637 4.154796 1.688750
v 4.848382 3.720293 0.975000
v 4.641118 3.561254 0.000000
v 4.848382 3.720293 -0.975000
v 5.414637 4.154796 -1.688749
v 6.188157 4.748338 -1.950000
v 6.961677 5.341881 -1.688749
v 7.527932 5.776384 -0.975000
v 6.894290 6.894292 0.000000
v 6.709558 6.709559 0.975000
v 6.204862 6.204862 1.688750
v 5.515432 5.515433 1.950000
v 4.826004 4.826005 1.688750
v 4.321306 4.321307 0.975000
v 4.136575 4.136575 0.000000
v 4.321306 4.321307 -0.975000
v 4.826004 4.826005 -1.688749
v 5.515432 5.515433 -1.950000
v 6.204862 6.204862 -1.688749
v 6.709558 6.709559 -0.975000
v 5.935425 7.735194 0.000000
v 5.776386 7.527930 0.975000
v 5.341883 6.961674 1.688750
v 4.748340 6.188155 1.950000
v 4.154798 5.414636 1.688750
v 3.720294 4.848380 0.975000
v 3.561255 4.641117 0.000000
v 3.720294 4.848380 -0.975000
v 4.154798 5.414636 -1.688749
v 4.748340 6.188155 -1.950000
v 5.341883 6.961674 -1.688749
v 5.776386 7.527930 -0.975000
v 4.875000 8.443748 0.000000
v 4.744374 8.217499 0.975000
v 4.387500 7.599373 1.688750
v 3.900000 6.754999 1.950000
v 3.412500 5.910624 1.688750
v 3.055625 5.292499 0.975000
v 2.925000 5.066249 0.000000
v 3.055625 5.292499 -0.975000
v 3.412500 5.910624 -1.688749
v 3.900000 6.754999 -1.950000
v 4.387500 7.599373 -1.688749
v 4.744374 8.217499 -0.975000
v 3.731166 9.007825 0.000000
v 3.631190 8.766460 0.975000
v 3.358049 8.107042 1.688750
v 2.984933 7.206260 1.950000
v 2.611816 6.305477 1.688750
v 2.338676 5.646059 0.975000
v 2.238699 5.404695 0.000000
v 2.338676 5.646059 -0.975000
v 2.611816 6.305477 -1.688749
v 2.984933 7.206260 -1.950000
v 3.358049 8.107042 -1.688749
v 3.631190 8.766460 -0.975000
v 2.523486 9.417777 0.000000
v 2.455869 9.165428 0.975000
v 2.271137 8.476000 1.688750
v 2.018789 7.534222 1.950000
v 1.766440 6.592444 1.688750
v 1.581708 5.903015 0.975000
v 1.514092 5.650666 0.000000
v 1.581708 5.903015 -0.975000
v 1.766440 6.592444 -1.688749
v 2.018789 7.534222 -1.950000
v 2.271137 8.476000 -1.688749
v 2.455869 9.165428 -0.975000
v 1.272629 9.666588 0.000000
v 1.238529 9.407573 0.975001
v 1.145366 8.699929 1.688750
v 1.018103 7.733270 1.950000
v 0.890840 6.766611 1.688750
v 0.797677 6.058968 0.975000
v 0.763577 5.799953 0.000000
v 0.797677 6.058968 -0.975000
v 0.890840 6.766611 -1.688749
v 1.018103 7.733270 -1.950000
v 1.145366 8.699929 -1.688749
v 1.238529 9.407573 -0.975000
v 0.000001 9.750000 0.000000
v 0.000001 9.488750 0.975001
v 0.000001 8.775001 1.688750
v 0.000001 7.800000 1.950000
v 0.000001 6.825000 1.688750
v 0.000000 6.111250 0.975000
v 0.000000 5.850000 0.000000
v 0.000000 6.111250 -0.975000
v 0.000001 6.825000 -1.688749
v 0.000001 7.800000 -1.950000
v 0.000001 8.775001 -1.688749
v 0.000001 9.488750 -0.975000
v -1.272632 9.666587 0.000000
v -1.238532 9.407572 0.975001
v -1.145369 8.699928 1.688750
v -1.018105 7.733270 1.950000
v -0.890842 6.766611 1.688750
v -0.797679 6.058968 0.975000
v -0.763579 5.799953 0.000000
v -0.797679 6.058968 -0.975000
v -0.890842 6.766611 -1.688749
v -1.018105 7.733270 -1.950000
v -1.145369 8.699928 -1.688749
v -1.238532 9.407572 -0.975000
v -2.523484 9.417778 0.000000
v -2.455868 9.165429 0.975000
v -2.271136 8.476000 1.688750
v -2.018788 7.534222 1.950000
v -1.766439 6.592444 1.688750
v -1.581707 5.903015 0.975000
v -1.514091 5.650666 0.000000
v -1.581707 5.903015 -0.975000
v -1.766439 6.592444 -1.688749
v -2.018788 7.534222 -1.950000
v -2.271136 8.476000 -1.688749
v -2.455868 9.165429 -0.975000
v -3.731164 9.007826 0.000000
v -3.631188 8.766461 0.975000
v -3.358048 8.107043 1.688750
v -2.984931 7.206260 1.950000
v -2.611815 6.305478 1.688750
v -2.338675 5.646059 0.975000
v -2.238699 5.404695 0.000000
v -2.338675 5.646059 -0.975000
v -2.611815 6.305478 -1.688749
v -2.984931 7.206260 -1.950000
v -3.358048 8.107043 -1.688749
v -3.631188 8.766461 -0.975000
v -4.874999 8.443749 0.000000
v -4.744373 8.217500 0.975000
v -4.387499 7.599374 1.688750
v -3.899999 6.754999 1.950000
v -3.412499 5.910625 1.688750
v -3.055624 5.292499 0.975000
v -2.924999 5.066249 0.000000
v -3.055624 5.292499 -0.975000
v -3.412499 5.910625 -1.688749
v -3.899999 6.754999 -1.950000
v -4.387499 7.599374 -1.688749
v -4.744373 8.217500 -0.975000
v -5.935424 7.735195 0.000000
v -5.776385 7.527931 0.975000
v -5.341882 6.961675 1.688750
v -4.748339 6.188156 1.950000
v -4.154797 5.414637 1.688750
v -3.720294 4.848381 0.975000
v -3.561255 4.641117 0.000000
v -3.720294 4.848381 -0.975000
v -4.154797 5.414637 -1.688749
v -4.748339 6.188156 -1.950000
v -5.341882 6.961675 -1.688749
v -5.776385 7.527931 -0.975000
v -6.894293 6.894289 0.000000
v -6.709561 6.709558 0.975000
v -6.204864 6.204861 1.688750
v -5.515434 5.515431 1.950000
v -4.826005 4.826003 1.688750
v -4.321308 4.321305 0.975000
v -4.136576 4.136574 0.000000
v -4.321308 4.321305 -0.975000
v -4.826005 4.826003 -1.688749
v -5.515434 5.515431 -1.950000
v -6.204864 6.204861 -1.688749
v -6.709561 6.709558 -0.975000
v -7.735195 5.935424 0.000000
v -7.527931 5.776385 0.975000
v -6.961675 5.341882 1.688750
v -6.188156 4.748339 1.950000
v -5.414637 4.154797 1.688750
v -4.848381 3.720294 0.975000
v -4.641117 3.561255 0.000000
v -4.848381 3.720294 -0.975000
v -5.414637 4.154797 -1.688749
v -6.188156 4.748339 -1.950000
v -6.961675 5.341882 -1.688749
v -7.527931 5.776385 -0.975000
v -8.443747 4.875002 0.000000
v -8.217497 4.744377 0.975000
v -7.599372 4.387502 1.688750
v -6.754997 3.900002 1.950000
v -5.910623 3.412502 1.688750
v -5.292497 3.055627 0.975000
v -5.066248 2.925001 0.000000
v -5.292497 3.055627 -0.975000
v -5.910623 3.412502 -1.688749
v -6.754997 3.900002 -1.950000
v -7.599372 4.387502 -1.688749
v -8.217497 4.744377 -0.975000
v -9.007826 3.731164 0.000000
v -8.766461 3.631188 0.975000
v -8.107043 3.358048 1.688750
v -7.206260 2.984931 1.950000
v -6.305478 2.611815 1.688750
v -5.646059 2.338675 0.975000
v -5.404695 2.238698 0.000000
v -5.646059 2.338675 -0.975000
v -6.305478 2.611815 -1.688749
v -7.206260 2.984931 -1.950000
v -8.107043 3.358048 -1.688749
v -8.766461 3.631188 -0.975000
v -9.417778 2.523484 0.000000
v -9.165429 2.455868 0.975000
v -8.476000 2.271136 1.688750
v -7.534222 2.018788 1.950000
v -6.592444 1.766439 1.688750
v -5.903015 1.581707 0.975000
v -5.650666 1.514091 0.000000
v -5.903015 1.581707 -0.975000
v -6.592444 1.766439 -1.688749
v -7.534222 2.018788 -1.950000
v -8.476000 2.271136 -1.688749
v -9.165429 2.455868 -0.975000
v -9.666587 1.272632 0.000000
v -9.407572 1.238532 0.975000
v -8.699928 1.145368 1.688750
v -7.733270 1.018105 1.950000
v -6.766611 0.890842 1.688750
v -6.058968 0.797679 0.975000
v -5.799953 0.763579 0.000000
v -6.058968 0.797679 -0.975000
v -6.766611 0.890842 -1.688750
v -7.733270 1.018105 -1.950000
v -8.699928 1.145369 -1.688750
v -9.407572 1.238532 -0.975000
v -9.750000 0.000001 0.000000
v -9.488750 0.000001 0.975000
v -8.775001 0.000001 1.688750
v -7.800000 0.000001 1.950000
v -6.825000 0.000001 1.688750
v -6.111250 0.000000 0.975000
v -5.850000 0.000001 0.000000
v -6.111250 0.000001 -0.975000
v -6.825000 0.000001 -1.688750
v -7.800000 0.000001 -1.950000
v -8.775001 0.000001 -1.688750
v -9.488750 0.000001 -0.975000
v -9.666587 -1.272632 -0.000000
v -9.407572 -1.238532 0.975000
v -8.699928 -1.145369 1.688750
v -7.733270 -1.018105 1.950000
v -6.766611 -0.890842 1.688750
v -6.058968 -0.797679 0.975000
v -5.799953 -0.763579 -0.000000
v -6.058968 -0.797679 -0.975000
v -6.766611 -0.890842 -1.688750
v -7.733270 -1.018105 -1.950000
v -8.699928 -1.145368 -1.688750
v -9.407572 -1.238532 -0.975000
v -9.417778 -2.523484 -0.000000
v -9.165429 -2.455868 0.975000
v -8.476000 -2.271136 1.688749
v -7.534222 -2.018788 1.950000
v -6.592444 -1.766439 1.688749
v -5.903015 -1.581707 0.975000
v -5.650666 -1.514091 -0.000000
v -5.903015 -1.581707 -0.975000
v -6.592444 -1.766439 -1.688750
v -7.534222 -2.018788 -1.950000
v -8.476000 -2.271136 -1.688750
v -9.165429 -2.455868 -0.975000
v -9.007828 -3.731160 -0.000000
v -8.766463 -3.631184 0.975000
v -8.107045 -3.358044 1.688749
v -7.206262 -2.984928 1.950000
v -6.305479 -2.611812 1.688749
v -5.646060 -2.338672 0.975000
v -5.404696 -2.238696 -0.000000
v -5.646060 -2.338672 -0.975000
v -6.305479 -2.611812 -1.688750
v -7.206262 -2.984928 -1.950000
v -8.107045 -3.358044 -1.688750
v -8.766463 -3.631184 -0.975000
v -8.443749 -4.874998 -0.000000
v -8.217500 -4.744373 0.975000
v -7.599374 -4.387499 1.688749
v -6.754999 -3.899999 1.950000
v -5.910625 -3.412499 1.688749
v -5.292499 -3.055624 0.975000
v -5.066249 -2.924999 -0.000000
v -5.292499 -3.055624 -0.975000
v -5.910625 -3.412499 -1.688750
v -6.754999 -3.899999 -1.950000
v -7.599374 -4.387499 -1.688750
v -8.217500 -4.744373 -0.975000
v -7.735195 -5.935424 -0.000000
v -7.527931 -5.776385 0.975000
v -6.961675 -5.341882 1.688749
v -6.188156 -4.748339 1.950000
v -5.414637 -4.154797 1.688749
v -4.848381 -3.720294 0.975000
v -4.641117 -3.561255 -0.000000
v -4.848381 -3.720294 -0.975000
v -5.414637 -4.154797 -1.688750
v -6.188156 -4.748339 -1.950000
v -6.961675 -5.341882 -1.688750
v -7.527931 -5.776385 -0.975000
v -6.894293 -6.894289 -0.000000
v -6.709561 -6.709558 0.975000
v -6.204864 -6.204861 1.688749
v -5.515434 -5.515431 1.950000
v -4.826005 -4.826003 1.688749
v -4.321308 -4.321305 0.975000
v -4.136576 -4.136574 -0.000000
v -4.321308 -4.321305 -0.975000
v -4.826005 -4.826003 -1.688750
v -5.515434 -5.515431 -1.950000
v -6.204864 -6.204861 -1.688750
v -6.709561 -6.709558 -0.975000
v -5.935428 -7.735192 -0.000000
v -5.776389 -7.527928 0.975000
v -5.341885 -6.961673 1.688749
v -4.748343 -6.188154 1.950000
v -4.154800 -5.414634 1.688749
v -3.720296 -4.848379 0.975000
v -3.561257 -4.641115 -0.000000
v -3.720296 -4.848379 -0.975000
v -4.154800 -5.414634 -1.688750
v -4.748343 -6.188154 -1.950000
v -5.341885 -6.961673 -1.688750
v -5.776389 -7.527928 -0.975000
v -4.874999 -8.443749 -0.000000
v -4.744373 -8.217500 0.975000
v -4.387499 -7.599374 1.688749
v -3.899999 -6.754999 1.950000
v -3.412499 -5.910625 1.688749
v -3.055624 -5.292499 0.975000
v -2.924999 -5.066249 -0.000000
v -3.055624 -5.292499 -0.975000
v -3.412499 -5.910625 -1.688750
v -3.899999 -6.754999 -1.950000
v -4.387499 -7.599374 -1.688750
v -4.744373 -8.217500 -0.975000
v -3.731164 -9.007826 -0.000000
v -3.631188 -8.766461 0.975000
v -3.358048 -8.107043 1.688749
v -2.984931 -7.206260 1.950000
v -2.611815 -6.305478 1.688749
v -2.338675 -5.646059 0.975000
v -2.238699 -5.404695 -0.000000
v -2.338675 -5.646059 -0.975000
v -2.611815 -6.305478 -1.688750
v -2.984931 -7.206260 -1.950000
v -3.358048 -8.107043 -1.688750
v -3.631188 -8.766461 -0.975000
v -2.523489 -9.417777 -0.000000
v -2.455872 -9.165427 0.975000
v -2.271140 -8.475999 1.688749
v -2.018791 -7.534221 1.950000
v -1.766442 -6.592443 1.688749
v -1.581710 -5.903014 0.975000
v -1.514093 -5.650666 -0.000000
v -1.581710 -5.903014 -0.975000
v -1.766442 -6.592443 -1.688750
v -2.018791 -7.534221 -1.950000
v -2.271140 -8.475999 -1.688750
v -2.455872 -9.165427 -0.975000
v -1.272636 -9.666587 -0.000000
v -1.238536 -9.407572 0.975000
v -1.145373 -8.699928 1.688749
v -1.018109 -7.733269 1.950000
v -0.890845 -6.766611 1.688749
v -0.797682 -6.058968 0.975000
v -0.763582 -5.799952 -0.000000
v -0.797682 -6.058968 -0.975000
v -0.890845 -6.766611 -1.688750
v -1.018109 -7.733269 -1.950000
v -1.145373 -8.699928 -1.688750
v -1.238536 -9.407572 -0.975001
v 0.000001 -9.750000 -0.000000
v 0.000001 -9.488750 0.975000
v 0.000001 -8.775001 1.688749
v 0.000001 -7.800000 1.950000
v 0.000001 -6.825000 1.688749
v 0.000000 -6.111250 0.975000
v 0.000000 -5.850000 -0.000000
v 0.000000 -6.111250 -0.975000
v 0.000001 -6.825000 -1.688750
v 0.000001 -7.800000 -1.950000
v 0.000001 -8.775001 -1.688750
v 0.000001 -9.488750 -0.975001
v 1.272629 -9.666588 -0.000000
v 1.238529 -9.407573 0.975000
v 1.145366 -8.699929 1.688749
v 1.018103 -7.733270 1.950000
v 0.890840 -6.766611 1.688749
v 0.797677 -6.058968 0.975000
v 0.763577 -5.799953 -0.000000
v 0.797677 -6.058968 -0.975000
v 0.890840 -6.766611 -1.688750
v 1.018103 -7.733270 -1.950000
v 1.145366 -8.699929 -1.688750
v 1.238529 -9.407573 -0.975001
v 2.523481 -9.417779 -0.000000
v 2.455865 -9.165429 0.975000
v 2.271133 -8.476001 1.688749
v 2.018785 -7.534223 1.950000
v 1.766437 -6.592444 1.688749
v 1.581705 -5.903016 0.975000
v 1.514089 -5.650667 -0.000000
v 1.581705 -5.903016 -0.975000
v 1.766437 -6.592444 -1.688750
v 2.018785 -7.534223 -1.950000
v 2.271133 -8.476001 -1.688750
v 2.455865 -9.165429 -0.975000
v 3.731166 -9.007825 -0.000000
v 3.631190 -8.766460 0.975000
v 3.358049 -8.107042 1.688749
v 2.984933 -7.206260 1.950000
v 2.611816 -6.305477 1.688749
v 2.338676 -5.646059 0.975000
v 2.238699 -5.404695 -0.000000
v 2.338676 -5.646059 -0.975000
v 2.611816 -6.305477 -1.688750
v 2.984933 -7.206260 -1.950000
v 3.358049 -8.107042 -1.688750
v 3.631190 -8.766460 -0.975000
v 4.875000 -8.443748 -0.000000
v 4.744374 -8.217499 0.975000
v 4.387500 -7.599373 1.688749
v 3.900000 -6.754999 1.950000
v 3.412500 -5.910624 1.688749
v 3.055625 -5.292499 0.975000
v 2.925000 -5.066249 -0.000000
v 3.055625 -5.292499 -0.975000
v 3.412500 -5.910624 -1.688750
v 3.900000 -6.754999 -1.950000
v 4.387500 -7.599373 -1.688750
v 4.744374 -8.217499 -0.975000
v 5.935422 -7.735197 -0.000000
v 5.776382 -7.527933 0.975000
v 5.341880 -6.961677 1.688749
v 4.748337 -6.188158 1.950000
v 4.154795 -5.414638 1.688749
v 3.720292 -4.848382 0.975000
v 3.561253 -4.641118 -0.000000
v 3.720292 -4.848382 -0.975000
v 4.154795 -5.414638 -1.688750
v 4.748337 -6.188158 -1.950000
v 5.341880 -6.961677 -1.688750
v 5.776382 -7.527933 -0.975000
v 6.894288 -6.894295 -0.000000
v 6.709556 -6.709563 0.975000
v 6.204859 -6.204865 1.688749
v 5.515430 -5.515436 1.950000
v 4.826001 -4.826007 1.688749
v 4.321304 -4.321309 0.975000
v 4.136573 -4.136578 -0.000000
v 4.321304 -4.321309 -0.975000
v 4.826001 -4.826007 -1.688750
v 5.515430 -5.515436 -1.950000
v 6.204859 -6.204865 -1.688750
v 6.709556 -6.709563 -0.975000
v 7.735197 -5.935423 -0.000000
v 7.527932 -5.776384 0.975000
v 6.961677 -5.341881 1.688749
v 6.188157 -4.748338 1.950000
v 5.414637 -4.154796 1.688749
v 4.848382 -3.720293 0.975000
v 4.641118 -3.561254 -0.000000
v 4.848382 -3.720293 -0.975000
v 5.414637 -4.154796 -1.688750
v 6.188157 -4.748338 -1.950000
v 6.961677 -5.341881 -1.688750
v 7.527932 -5.776384 -0.975000
v 8.443748 -4.875001 -0.000000
v 8.217498 -4.744376 0.975000
v 7.599372 -4.387501 1.688749
v 6.754998 -3.900001 1.950000
v 5.910623 -3.412501 1.688749
v 5.292498 -3.055626 0.975000
v 5.066248 -2.925001 -0.000000
v 5.292498 -3.055626 -0.975000
v 5.910623 -3.412501 -1.688750
v 6.754998 -3.900001 -1.950000
v 7.599372 -4.387501 -1.688750
v 8.217498 -4.744376 -0.975000
v 9.007825 -3.731167 -0.000000
v 8.766460 -3.631191 0.975000
v 8.107042 -3.358051 1.688749
v 7.206259 -2.984934 1.950000
v 6.305477 -2.611817 1.688749
v 5.646059 -2.338677 0.975000
v 5.404695 -2.238700 -0.000000
v 5.646059 -2.338677 -0.975000
v 6.305477 -2.611817 -1.688750
v 7.206259 -2.984934 -1.950000
v 8.107042 -3.358051 -1.688750
v 8.766460 -3.631191 -0.975000
v 9.417778 -2.523483 -0.000000
v 9.165429 -2.455867 0.975000
v 8.476000 -2.271135 1.688749
v 7.534222 -2.018786 1.950000
v 6.592444 -1.766438 1.688749
v 5.903015 -1.581706 0.975000
v 5.650666 -1.514090 -0.000000
v 5.903015 -1.581706 -0.975000
v 6.592444 -1.766438 -1.688750
v 7.534222 -2.018786 -1.950000
v 8.476000 -2.271135 -1.688750
v 9.165429 -2.455867 -0.975000
v 9.666588 -1.272630 -0.000000
v 9.407573 -1.238530 0.975000
v 8.699929 -1.145367 1.688750
v 7.733270 -1.018104 1.950000
v 6.766611 -0.890841 1.688750
v 6.058968 -0.797678 0.975000
v 5.799953 -0.763578 -0.000000
v 6.058968 -0.797678 -0.975000
v 6.766611 -0.890841 -1.688750
v 7.733270 -1.018104 -1.950000
v 8.699929 -1.145367 -1.688750
v 9.407573 -1.238530 -0.975000
v 0.000000 13.186356 -3.522336
v 3.522336 13.186356 0.000000
v 0.000000 13.186356 3.522336
v -3.522336 13.186356 0.000000
v 0.000000 20.231028 0.000000
v 0.000000 -13.186356 -3.522336
v -3.522336 -13.186356 0.000000
v 0.000000 -13.186356 3.522336
v 3.522337 -13.186356 0.000000
v -0.000000 -20.231028 0.000000
v 13.186356 0.000000 -3.522336
v 13.186356 -3.522336 0.000000
v 13.186356 0.000000 3.522336
v 13.186356 3.522337 0.000000
v 20.231028 -0.000000 0.000000
v -13.186356 0.000000 -3.522336
v -13.186356 3.522337 0.000000
v -13.186356 0.000000 3.522336
v -13.186356 -3.522336 0.000000
v -20.231028 -0.000000 0.000000
v 9.324162 -9.324162 -3.522336
v 6.833493 -11.814829 0.000000
v 9.324162 -9.324162 3.522336
v 11.814829 -6.833493 0.000000
v 14.305497 -14.305497 0.000000
v -9.324162 -9.324162 -3.522336
v -11.814828 -6.833493 0.000000
v -9.324162 -9.324162 3.522336
v -6.833493 -11.814830 0.000000
v -14.305497 -14.305497 0.000000
v 9.324162 9.324162 -3.522336
v 11.814829 6.833493 0.000000
v 9.324162 9.324162 3.522336
v 6.833493 11.814829 0.000000
v 14.305497 14.305497 0.000000
vn 0.2357 0.7071 -0.6667
vn 0.2357 0.7071 0.6667
vn 0.7071 -0.7071 -0.0000
vn -0.7071 -0.2357 0.6667
vn -0.7071 -0.2357 -0.6667
vn 1.0000 -0.0000 -0.0000
vn 0.9914 0.1305 -0.0000
vn 0.8612 0.1134 0.4954
vn 0.8687 -0.0000 0.4954
vn 0.5036 0.0663 0.8614
vn 0.5080 -0.0000 0.8614
vn 0.0107 0.0014 0.9999
vn 0.0108 -0.0000 0.9999
vn -0.4876 -0.0642 0.8707
vn -0.4918 -0.0000 0.8707
vn -0.8559 -0.1127 0.5047
vn -0.8633 -0.0000 0.5047
vn -0.9914 -0.1305 -0.0000
vn -1.0000 -0.0000 -0.0000
vn -0.8559 -0.1127 -0.5047
vn -0.8633 -0.0000 -0.5047
vn -0.4876 -0.0642 -0.8707
vn -0.4918 -0.0000 -0.8707
vn 0.0107 0.0014 -0.9999
vn 0.0108 -0.0000 -0.9999
vn 0.5036 0.0663 -0.8614
vn 0.5080 -0.0000 -0.8614
vn 0.8612 0.1134 -0.4954
vn 0.8687 -0.0000 -0.4954
vn 0.9659 0.2588 -0.0000
vn 0.8391 0.2248 0.4954
vn 0.4907 0.1315 0.8614
vn 0.0104 0.0028 0.9999
vn -0.4751 -0.1273 0.8707
vn -0.8339 -0.2234 0.5047
vn -0.9659 -0.2588 -0.0000
vn -0.8339 -0.2234 -0.5047
vn -0.4751 -0.1273 -0.8707
vn 0.0104 0.0028 -0.9999
vn 0.4907 0.1315 -0.8614
vn 0.8391 0.2248 -0.4954
vn 0.9239 0.3827 -0.0000
vn 0.8025 0.3324 0.4954
vn 0.4693 0.1944 0.8614
vn 0.0100 0.0041 0.9999
vn -0.4544 -0.1882 0.8707
vn -0.7976 -0.3304 0.5047
vn -0.9239 -0.3827 -0.0000
vn -0.7976 -0.3304 -0.5047
vn -0.4544 -0.1882 -0.8707
vn 0.0100 0.0041 -0.9999
vn 0.4693 0.1944 -0.8614
vn 0.8025 0.3324 -0.4954
vn 0.8660 0.5000 -0.0000
vn 0.7523 0.4343 0.4954
vn 0.4399 0.2540 0.8614
vn 0.0093 0.0054 0.9999
vn -0.4259 -0.2459 0.8707
vn -0.7476 -0.4316 0.5047
vn -0.8660 -0.5000 -0.0000
vn -0.7476 -0.4316 -0.5047
vn -0.4259 -0.2459 -0.8707
vn 0.0093 0.0054 -0.9999
vn 0.4399 0.2540 -0.8614
vn 0.7523 0.4343 -0.4954
vn 0.7934 0.6088 -0.0000
vn 0.6892 0.5288 0.4954
vn 0.4030 0.3092 0.8614
vn 0.0085 0.0066 0.9999
vn -0.3902 -0.2994 0.8707
vn -0.6849 -0.5255 0.5047
vn -0.7934 -0.6088 -0.0000
vn -0.6849 -0.5255 -0.5047
vn -0.3902 -0.2994 -0.8707
vn 0.0085 0.0066 -0.9999
vn 0.4030 0.3092 -0.8614
vn 0.6892 0.5288 -0.4954
vn 0.7071 0.7071 -0.0000
vn 0.6142 0.6142 0.4954
vn 0.3592 0.3592 0.8614
vn 0.0076 0.0076 0.9999
vn -0.3478 -0.3478 0.8707
vn -0.6104 -0.6104 0.5047
vn -0.7071 -0.7071 -0.0000
vn -0.6104 -0.6104 -0.5047
vn -0.3478 -0.3478 -0.8707
vn 0.0076 0.0076 -0.9999
vn 0.3592 0.3592 -0.8614
vn 0.6142 0.6142 -0.4954
vn 0.6088 0.7934 -0.0000
vn 0.5288 0.6892 0.4954
vn 0.3092 0.4030 0.8614
vn 0.0066 0.0085 0.9999
vn -0.2994 -0.3902 0.8707
vn -0.5255 -0.6849 0.5047
vn -0.6088 -0.7934 -0.0000
vn -0.5255 -0.6849 -0.5047
vn -0.2994 -0.3902 -0.8707
vn 0.0066 0.0085 -0.9999
vn 0.3092 0.4030 -0.8614
vn 0.5288 0.6892 -0.4954
vn 0.5000 0.8660 -0.0000
vn 0.4343 0.7523 0.4954
vn 0.2540 0.4399 0.8614
vn 0.0054 0.0093 0.9999
vn -0.2459 -0.4259 0.8707
vn -0.4316 -0.7476 0.5047
vn -0.5000 -0.8660 -0.0000
vn -0.4316 -0.7476 -0.5047
vn -0.2459 -0.4259 -0.8707
vn 0.0054 0.0093 -0.9999
vn 0.2540 0.4399 -0.8614
vn 0.4343 0.7523 -0.4954
vn 0.3827 0.9239 -0.0000
vn 0.3324 0.8025 0.4954
vn 0.1944 0.4693 0.8614
vn 0.0041 0.0100 0.9999
vn -0.1882 -0.4544 0.8707
vn -0.3304 -0.7976 0.5047
vn -0.3827 -0.9239 -0.0000
vn -0.3304 -0.7976 -0.5047
vn -0.1882 -0.4544 -0.8707
vn 0.0041 0.0100 -0.9999
vn 0.1944 0.4693 -0.8614
vn 0.3324 0.8025 -0.4954
vn 0.2588 0.9659 -0.0000
vn 0.2248 0.8391 0.4954
vn 0.1315 0.4907 0.8614
vn 0.0028 0.0104 0.9999
vn -0.1273 -0.4751 0.8707
vn -0.2234 -0.8339 0.5047
vn -0.2588 -0.9659 -0.0000
vn -0.2234 -0.8339 -0.5047
vn -0.1273 -0.4751 -0.8707
vn 0.0028 0.0104 -0.9999
vn 0.1315 0.4907 -0.8614
vn 0.2248 0.8391 -0.4954
vn 0.1305 0.9914 -0.0000
vn 0.1134 0.8612 0.4954
vn 0.0663 0.5036 0.8614
vn 0.0014 0.0107 0.9999
vn -0.0642 -0.4876 0.8707
vn -0.1127 -0.8559 0.5047
vn -0.1305 -0.9914 -0.0000
vn -0.1127 -0.8559 -0.5047
vn -0.0642 -0.4876 -0.8707
vn 0.0014 0.0107 -0.9999
vn 0.0663 0.5036 -0.8614
vn 0.1134 0.8612 -0.4954
vn -0.0000 1.0000 -0.0000
vn -0.0000 0.8687 0.4954
vn -0.0000 0.5080 0.8614
vn -0.0000 0.0108 0.9999
vn -0.0000 -0.4918 0.8707
vn -0.0000 -0.8633 0.5047
vn -0.0000 -1.0000 -0.0000
vn -0.0000 -0.8633 -0.5047
vn -0.0000 -0.4918 -0.8707
vn -0.0000 0.0108 -0.9999
vn -0.0000 0.5080 -0.8614
vn -0.0000 0.8687 -0.4954
vn -0.1305 0.9914 -0.0000
vn -0.1134 0.8612 0.4954
vn -0.0663 0.5036 0.8614
vn -0.0014 0.0107 0.9999
vn 0.0642 -0.4876 0.8707
vn 0.1127 -0.8559 0.5047
vn 0.1305 -0.9914 -0.0000
vn 0.1127 -0.8559 -0.5047
vn 0.0642 -0.4876 -0.8707
vn -0.0014 0.0107 -0.9999
vn -0.0663 0.5036 -0.8614
vn -0.1134 0.8612 -0.4954
vn -0.2588 0.9659 -0.0000
vn -0.2248 0.8391 0.4954
vn -0.1315 0.4907 0.8614
vn -0.0028 0.0104 0.9999
vn 0.1273 -0.4751 0.8707
vn 0.2234 -0.8339 0.5047
vn 0.2588 -0.9659 -0.0000
vn 0.2234 -0.8339 -0.5047
vn 0.1273 -0.4751 -0.8707
vn -0.0028 0.0104 -0.9999
vn -0.1315 0.4907 -0.8614
vn -0.2248 0.8391 -0.4954
vn -0.3827 0.9239 -0.0000
vn -0.3324 0.8025 0.4954
vn -0.1944 0.4693 0.8614
vn -0.0041 0.0100 0.9999
vn 0.1882 -0.4544 0.8707
vn 0.3304 -0.7976 0.5047
vn 0.3827 -0.9239 -0.0000
vn 0.3304 -0.7976 -0.5047
vn 0.1882 -0.4544 -0.8707
vn -0.0041 0.0100 -0.9999
vn -0.1944 0.4693 -0.8614
vn -0.3324 0.8025 -0.4954
vn -0.5000 0.8660 -0.0000
vn -0.4343 0.7523 0.4954
vn -0.2540 0.4399 0.8614
vn -0.0054 0.0093 0.9999
vn 0.2459 -0.4259 0.8707
vn 0.4316 -0.7476 0.5047
vn 0.5000 -0.8660 -0.0000
vn 0.4316 -0.7476 -0.5047
vn 0.2459 -0.4259 -0.8707
vn -0.0054 0.0093 -0.9999
vn -0.2540 0.4399 -0.8614
vn -0.4343 0.7523 -0.4954
vn -0.6088 0.7934 -0.0000
vn -0.5288 0.6892 0.4954
vn -0.3092 0.4030 0.8614
vn -0.0066 0.0085 0.9999
vn 0.2994 -0.3902 0.8707
vn 0.5255 -0.6849 0.5047
vn 0.6088 -0.7934 -0.0000
vn 0.5255 -0.6849 -0.5047
vn 0.2994 -0.3902 -0.8707
vn -0.0066 0.0085 -0.9999
vn -0.3092 0.4030 -0.8614
vn -0.5288 0.6892 -0.4954
vn -0.7071 0.7071 -0.0000
vn -0.6142 0.6142 0.4954
vn -0.3592 0.3592 0.8614
vn -0.0076 0.0076 0.9999
vn 0.3478 -0.3478 0.8707
vn 0.6104 -0.6104 0.5047
vn 0.6104 -0.6104 -0.5047
vn 0.3478 -0.3478 -0.8707
vn -0.0076 0.0076 -0.9999
vn -0.3592 0.3592 -0.8614
vn -0.6142 0.6142 -0.4954
vn -0.7934 0.6088 -0.0000
vn -0.6892 0.5288 0.4954
vn -0.4030 0.3092 0.8614
vn -0.0085 0.0066 0.9999
vn 0.3902 -0.2994 0.8707
vn 0.6849 -0.5255 0.5047
vn 0.7934 -0.6088 -0.0000
vn 0.6849 -0.5255 -0.5047
vn 0.3902 -0.2994 -0.8707
vn -0.0085 0.0066 -0.9999
vn -0.4030 0.3092 -0.8614
vn -0.6892 0.5288 -0.4954
vn -0.8660 0.5000 -0.0000
vn -0.7523 0.4343 0.4954
vn -0.4399 0.2540 0.8614
vn -0.0093 0.0054 0.9999
vn 0.4259 -0.2459 0.8707
vn 0.7476 -0.4316 0.5047
vn 0.8660 -0.5000 -0.0000
vn 0.7476 -0.4316 -0.5047
vn 0.4259 -0.2459 -0.8707
vn -0.0093 0.0054 -0.9999
vn -0.4399 0.2540 -0.8614
vn -0.7523 0.4343 -0.4954
vn -0.9239 0.3827 -0.0000
vn -0.8025 0.3324 0.4954
vn -0.4693 0.1944 0.8614
vn -0.0100 0.0041 0.9999
vn 0.4544 -0.1882 0.8707
vn 0.7976 -0.3304 0.5047
vn 0.9239 -0.3827 -0.0000
vn 0.7976 -0.3304 -0.5047
vn 0.4544 -0.1882 -0.8707
vn -0.0100 0.0041 -0.9999
vn -0.4693 0.1944 -0.8614
vn -0.8025 0.3324 -0.4954
vn -0.9659 0.2588 -0.0000
vn -0.8391 0.2248 0.4954
vn -0.4907 0.1315 0.8614
vn -0.0104 0.0028 0.9999
vn 0.4751 -0.1273 0.8707
vn 0.8339 -0.2234 0.5047
vn 0.9659 -0.2588 -0.0000
vn 0.8339 -0.2234 -0.5047
vn 0.4751 -0.1273 -0.8707
vn -0.0104 0.0028 -0.9999
vn -0.4907 0.1315 -0.8614
vn -0.8391 0.2248 -0.4954
vn -0.9914 0.1305 -0.0000
vn -0.8612 0.1134 0.4954
vn -0.5036 0.0663 0.8614
vn -0.0107 0.0014 0.9999
vn 0.4876 -0.0642 0.8707
vn 0.8559 -0.1127 0.5047
vn 0.9914 -0.1305 -0.0000
vn 0.8559 -0.1127 -0.5047
vn 0.4876 -0.0642 -0.8707
vn -0.0107 0.0014 -0.9999
vn -0.5036 0.0663 -0.8614
vn -0.8612 0.1134 -0.4954
vn -0.8687 -0.0000 0.4954
vn -0.5080 -0.0000 0.8614
vn -0.0108 -0.0000 0.9999
vn 0.4918 -0.0000 0.8707
vn 0.8633 -0.0000 0.5047
vn 0.8633 -0.0000 -0.5047
vn 0.4918 -0.0000 -0.8707
vn -0.0108 -0.0000 -0.9999
vn -0.5080 -0.0000 -0.8614
vn -0.8687 -0.0000 -0.4954
vn -0.8612 -0.1134 0.4954
vn -0.5036 -0.0663 0.8614
vn -0.0107 -0.0014 0.9999
vn 0.4876 0.0642 0.8707
vn 0.8559 0.1127 0.5047
vn 0.8559 0.1127 -0.5047
vn 0.4876 0.0642 -0.8707
vn -0.0107 -0.0014 -0.9999
vn -0.5036 -0.0663 -0.8614
vn -0.8612 -0.1134 -0.4954
vn -0.8391 -0.2248 0.4954
vn -0.4907 -0.1315 0.8614
vn -0.0104 -0.0028 0.9999
vn 0.4751 0.1273 0.8707
vn 0.8339 0.2234 0.5047
vn 0.8339 0.2234 -0.5047
vn 0.4751 0.1273 -0.8707
vn -0.0104 -0.0028 -0.9999
vn -0.4907 -0.1315 -0.8614
vn -0.8391 -0.2248 -0.4954
vn -0.8025 -0.3324 0.4954
vn -0.4693 -0.1944 0.8614
vn -0.0100 -0.0041 0.9999
vn 0.4544 0.1882 0.8707
vn 0.7976 0.3304 0.5047
vn 0.7976 0.3304 -0.5047
vn 0.4544 0.1882 -0.8707
vn -0.0100 -0.0041 -0.9999
vn -0.4693 -0.1944 -0.8614
vn -0.8025 -0.3324 -0.4954
vn -0.7523 -0.4343 0.4954
vn -0.4399 -0.2540 0.8614
vn -0.0093 -0.0054 0.9999
vn 0.4259 0.2459 0.8707
vn 0.7476 0.4316 0.5047
vn 0.7476 0.4316 -0.5047
vn 0.4259 0.2459 -0.8707
vn -0.0093 -0.0054 -0.9999
vn -0.4399 -0.2540 -0.8614
vn -0.7523 -0.4343 -0.4954
vn -0.6892 -0.5288 0.4954
vn -0.4030 -0.3092 0.8614
vn -0.0085 -0.0066 0.9999
vn 0.3902 0.2994 0.8707
vn 0.6849 0.5255 0.5047
vn 0.6849 0.5255 -0.5047
vn 0.3902 0.2994 -0.8707
vn -0.0085 -0.0066 -0.9999
vn -0.4030 -0.3092 -0.8614
vn -0.6892 -0.5288 -0.4954
vn -0.6142 -0.6142 0.4954
vn -0.3592 -0.3592 0.8614
vn -0.0076 -0.0076 0.9999
vn 0.3478 0.3478 0.8707
vn 0.6104 0.6104 0.5047
vn 0.6104 0.6104 -0.5047
vn 0.3478 0.3478 -0.8707
vn -0.0076 -0.0076 -0.9999
vn -0.3592 -0.3592 -0.8614
vn -0.6142 -0.6142 -0.4954
vn -0.5288 -0.6892 0.4954
vn -0.3092 -0.4030 0.8614
vn -0.0066 -0.0085 0.9999
vn 0.2994 0.3902 0.8707
vn 0.5255 0.6849 0.5047
vn 0.5255 0.6849 -0.5047
vn 0.2994 0.3902 -0.8707
vn -0.0066 -0.0085 -0.9999
vn -0.3092 -0.4030 -0.8614
vn -0.5288 -0.6892 -0.4954
vn -0.4343 -0.7523 0.4954
vn -0.2540 -0.4399 0.8614
vn -0.0054 -0.0093 0.9999
vn 0.2459 0.4259 0.8707
vn 0.4316 0.7476 0.5047
vn 0.4316 0.7476 -0.5047
vn 0.2459 0.4259 -0.8707
vn -0.0054 -0.0093 -0.9999
vn -0.2540 -0.4399 -0.8614
vn -0.4343 -0.7523 -0.4954
vn -0.3324 -0.8025 0.4954
vn -0.1944 -0.4693 0.8614
vn -0.0041 -0.0100 0.9999
vn 0.1882 0.4544 0.8707
vn 0.3304 0.7976 0.5047
vn 0.3304 0.7976 -0.5047
vn 0.1882 0.4544 -0.8707
vn -0.0041 -0.0100 -0.9999
vn -0.1944 -0.4693 -0.8614
vn -0.3324 -0.8025 -0.4954
vn -0.2248 -0.8391 0.4954
vn -0.1315 -0.4907 0.8614
vn -0.0028 -0.0104 0.9999
vn 0.1273 0.4751 0.8707
vn 0.2234 0.8339 0.5047
vn 0.2234 0.8339 -0.5047
vn 0.1273 0.4751 -0.8707
vn -0.0028 -0.0104 -0.9999
vn -0.1315 -0.4907 -0.8614
vn -0.2248 -0.8391 -0.4954
vn -0.1134 -0.8612 0.4954
vn -0.0663 -0.5036 0.8614
vn -0.0014 -0.0107 0.9999
vn 0.0642 0.4876 0.8707
vn 0.1127 0.8559 0.5047
vn 0.1127 0.8559 -0.5047
vn 0.0642 0.4876 -0.8707
vn -0.0014 -0.0107 -0.9999
vn -0.0663 -0.5036 -0.8614
vn -0.1134 -0.8612 -0.4954
vn -0.0000 -0.8687 0.4954
vn -0.0000 -0.5080 0.8614
vn -0.0000 -0.0108 0.9999
vn -0.0000 0.4918 0.8707
vn -0.0000 0.8633 0.5047
vn -0.0000 0.8633 -0.5047
vn -0.0000 0.4918 -0.8707
vn -0.0000 -0.0108 -0.9999
vn -0.0000 -0.5080 -0.8614
vn -0.0000 -0.8687 -0.4954
vn 0.1134 -0.8612 0.4954
vn 0.0663 -0.5036 0.8614
vn 0.0014 -0.0107 0.9999
vn -0.0642 0.4876 0.8707
vn -0.1127 0.8559 0.5047
vn -0.1127 0.8559 -0.5047
vn -0.0642 0.4876 -0.8707
vn 0.0014 -0.0107 -0.9999
vn 0.0663 -0.5036 -0.8614
vn 0.1134 -0.8612 -0.4954
vn 0.2248 -0.8391 0.4954
vn 0.1315 -0.4907 0.8614
vn 0.0028 -0.0104 0.9999
vn -0.1273 0.4751 0.8707
vn -0.2234 0.8339 0.5047
vn -0.2234 0.8339 -0.5047
vn -0.1273 0.4751 -0.8707
vn 0.0028 -0.0104 -0.9999
vn 0.1315 -0.4907 -0.8614
vn 0.2248 -0.8391 -0.4954
vn 0.3324 -0.8025 0.4954
vn 0.1944 -0.4693 0.8614
vn 0.0041 -0.0100 0.9999
vn -0.1882 0.4544 0.8707
vn -0.3304 0.7976 0.5047
vn -0.3304 0.7976 -0.5047
vn -0.1882 0.4544 -0.8707
vn 0.0041 -0.0100 -0.9999
vn 0.1944 -0.4693 -0.8614
vn 0.3324 -0.8025 -0.4954
vn 0.4343 -0.7523 0.4954
vn 0.2540 -0.4399 0.8614
vn 0.0054 -0.0093 0.9999
vn -0.2459 0.4259 0.8707
vn -0.4316 0.7476 0.5047
vn -0.4316 0.7476 -0.5047
vn -0.2459 0.4259 -0.8707
vn 0.0054 -0.0093 -0.9999
vn 0.2540 -0.4399 -0.8614
vn 0.4343 -0.7523 -0.4954
vn 0.5288 -0.6892 0.4954
vn 0.3092 -0.4030 0.8614
vn 0.0066 -0.0085 0.9999
vn -0.2994 0.3902 0.8707
vn -0.5255 0.6849 0.5047
vn -0.5255 0.6849 -0.5047
vn -0.2994 0.3902 -0.8707
vn 0.0066 -0.0085 -0.9999
vn 0.3092 -0.4030 -0.8614
vn 0.5288 -0.6892 -0.4954
vn 0.6142 -0.6142 0.4954
vn 0.3592 -0.3592 0.8614
vn 0.0076 -0.0076 0.9999
vn -0.3478 0.3478 0.8707
vn -0.6104 0.6104 0.5047
vn -0.6104 0.6104 -0.5047
vn -0.3478 0.3478 -0.8707
vn 0.0076 -0.0076 -0.9999
vn 0.3592 -0.3592 -0.8614
vn 0.6142 -0.6142 -0.4954
vn 0.6892 -0.5288 0.4954
vn 0.4030 -0.3092 0.8614
vn 0.0085 -0.0066 0.9999
vn -0.3902 0.2994 0.8707
vn -0.6849 0.5255 0.5047
vn -0.6849 0.5255 -0.5047
vn -0.3902 0.2994 -0.8707
vn 0.0085 -0.0066 -0.9999
vn 0.4030 -0.3092 -0.8614
vn 0.6892 -0.5288 -0.4954
vn 0.7523 -0.4343 0.4954
vn 0.4399 -0.2540 0.8614
vn 0.0093 -0.0054 0.9999
vn -0.4259 0.2459 0.8707
vn -0.7476 0.4316 0.5047
vn -0.7476 0.4316 -0.5047
vn -0.4259 0.2459 -0.8707
vn 0.0093 -0.0054 -0.9999
vn 0.4399 -0.2540 -0.8614
vn 0.7523 -0.4343 -0.4954
vn 0.8025 -0.3324 0.4954
vn 0.4693 -0.1944 0.8614
vn 0.0100 -0.0041 0.9999
vn -0.4544 0.1882 0.8707
vn -0.7976 0.3304 0.5047
vn -0.7976 0.3304 -0.5047
vn -0.4544 0.1882 -0.8707
vn 0.0100 -0.0041 -0.9999
vn 0.4693 -0.1944 -0.8614
vn 0.8025 -0.3324 -0.4954
vn 0.8391 -0.2248 0.4954
vn 0.4907 -0.1315 0.8614
vn 0.0104 -0.0028 0.9999
vn -0.4751 0.1273 0.8707
vn -0.8339 0.2234 0.5047
vn -0.8339 0.2234 -0.5047
vn -0.4751 0.1273 -0.8707
vn 0.0104 -0.0028 -0.9999
vn 0.4907 -0.1315 -0.8614
vn 0.8391 -0.2248 -0.4954
vn 0.8612 -0.1134 0.4954
vn 0.5036 -0.0663 0.8614
vn 0.0107 -0.0014 0.9999
vn -0.4876 0.0642 0.8707
vn -0.8559 0.1127 0.5047
vn -0.8559 0.1127 -0.5047
vn -0.4876 0.0642 -0.8707
vn 0.0107 -0.0014 -0.9999
vn 0.5036 -0.0663 -0.8614
vn 0.8612 -0.1134 -0.4954
vn 0.6667 0.3333 -0.6667
vn 0.6667 0.3333 0.6667
vn -0.6667 0.3333 0.6667
vn -0.6667 0.3333 -0.6667
vn -0.6667 -0.3333 -0.6667
vn -0.6667 -0.3333 0.6667
vn 0.6667 -0.3333 0.6667
vn 0.6667 -0.3333 -0.6667
vn 0.3333 -0.6667 -0.6667
vn 0.3333 -0.6667 0.6667
vn 0.3333 0.6667 0.6667
vn 0.3333 0.6667 -0.6667
vn -0.3333 0.6667 -0.6667
vn -0.3333 0.6667 0.6667
vn -0.3333 -0.6667 0.6667
vn -0.3333 -0.6667 -0.6667
vn -0.2357 -0.7071 -0.6667
vn -0.2357 -0.7071 0.6667
vn 0.7071 0.2357 0.6667
vn 0.7071 0.2357 -0.6667
vn -0.7071 0.2357 -0.6667
vn -0.7071 0.2357 0.6667
vn 0.2357 -0.7071 0.6667
vn 0.2357 -0.7071 -0.6667
vn 0.7071 -0.2357 -0.6667
vn 0.7071 -0.2357 0.6667
vn -0.2357 0.7071 0.6667
vn -0.2357 0.7071 -0.6667
vt 0.636947 0.003075
vt 0.733872 0.100000
vt 0.636947 0.196926
vt 0.830798 0.196925
vt 0.948867 0.475350
vt 0.948867 0.587270
vt 0.836947 0.587270
vt 0.836947 0.475350
vt 0.830798 0.003075
vt 0.411521 0.218750
vt 0.423908 0.232316
vt 0.413157 0.241112
vt 0.401802 0.229119
vt 0.402915 0.249498
vt 0.392753 0.238752
vt 0.392842 0.257744
vt 0.383893 0.248177
vt 0.382808 0.265925
vt 0.375048 0.257561
vt 0.373087 0.273870
vt 0.366384 0.266771
vt 0.364047 0.281299
vt 0.358445 0.275228
vt 0.532449 0.091321
vt 0.560526 0.121066
vt 0.522316 0.152426
vt 0.498277 0.127131
vt 0.492166 0.176679
vt 0.471704 0.155082
vt 0.468533 0.195938
vt 0.450568 0.177222
vt 0.450355 0.210760
vt 0.435042 0.193752
vt 0.436129 0.222314
vt 0.422152 0.207435
vt 0.434774 0.247140
vt 0.422669 0.254593
vt 0.411474 0.261571
vt 0.400444 0.268403
vt 0.389459 0.275207
vt 0.378692 0.281860
vt 0.368959 0.287929
vt 0.584950 0.154390
vt 0.542650 0.180878
vt 0.508742 0.201446
vt 0.483481 0.217005
vt 0.463609 0.229349
vt 0.447916 0.239022
vt 0.443304 0.263453
vt 0.430453 0.269133
vt 0.418402 0.274619
vt 0.406581 0.279951
vt 0.394823 0.285240
vt 0.383298 0.290441
vt 0.372797 0.295213
vt 0.605139 0.190913
vt 0.559155 0.211807
vt 0.523174 0.227598
vt 0.495213 0.240061
vt 0.474113 0.249600
vt 0.457648 0.256969
vt 0.449549 0.280667
vt 0.436272 0.284630
vt 0.423535 0.288450
vt 0.411152 0.292193
vt 0.398803 0.295901
vt 0.386736 0.299557
vt 0.375675 0.302935
vt 0.620648 0.230410
vt 0.571144 0.244904
vt 0.532805 0.255852
vt 0.504395 0.264218
vt 0.482252 0.270922
vt 0.464719 0.276136
vt 0.453841 0.298482
vt 0.439884 0.300743
vt 0.426874 0.302808
vt 0.414092 0.304920
vt 0.401353 0.306993
vt 0.388944 0.309042
vt 0.377534 0.310961
vt 0.628533 0.271976
vt 0.579046 0.279099
vt 0.539879 0.284890
vt 0.509762 0.289519
vt 0.487306 0.293140
vt 0.469096 0.296042
vt 0.455357 0.316710
vt 0.441544 0.317115
vt 0.428340 0.317512
vt 0.415357 0.317927
vt 0.402444 0.318319
vt 0.389903 0.318728
vt 0.378337 0.319153
vt 0.630798 0.313163
vt 0.582334 0.313897
vt 0.541570 0.314613
vt 0.512088 0.315193
vt 0.489596 0.315785
vt 0.471116 0.316268
vt 0.454860 0.334944
vt 0.440897 0.333565
vt 0.427772 0.332261
vt 0.414903 0.330969
vt 0.402109 0.329691
vt 0.389577 0.328453
vt 0.378070 0.327376
vt 0.629570 0.354163
vt 0.579687 0.348719
vt 0.541024 0.344307
vt 0.511341 0.340920
vt 0.488477 0.338465
vt 0.470145 0.336536
vt 0.451704 0.352988
vt 0.438058 0.349741
vt 0.425290 0.346772
vt 0.412737 0.343820
vt 0.400210 0.340895
vt 0.388011 0.338050
vt 0.376740 0.335488
vt 0.623380 0.395586
vt 0.573831 0.383161
vt 0.535865 0.373550
vt 0.507257 0.366293
vt 0.484459 0.360770
vt 0.466735 0.356523
vt 0.446261 0.370401
vt 0.433342 0.365481
vt 0.420977 0.360795
vt 0.408941 0.356268
vt 0.396949 0.351753
vt 0.385201 0.347350
vt 0.374368 0.343355
vt 0.609322 0.435435
vt 0.563757 0.416479
vt 0.526703 0.401705
vt 0.499187 0.390645
vt 0.477875 0.382434
vt 0.460765 0.375874
vt 0.438699 0.386916
vt 0.426453 0.380396
vt 0.414931 0.374142
vt 0.403580 0.368102
vt 0.392261 0.362071
vt 0.381243 0.356211
vt 0.370999 0.350841
vt 0.589974 0.471840
vt 0.548221 0.447330
vt 0.514388 0.428434
vt 0.488062 0.413681
vt 0.468582 0.403018
vt 0.452355 0.394218
vt 0.429049 0.402317
vt 0.417743 0.394203
vt 0.407198 0.386575
vt 0.396740 0.379135
vt 0.386317 0.371708
vt 0.376180 0.364488
vt 0.366678 0.357822
vt 0.566745 0.504355
vt 0.529029 0.475664
vt 0.499208 0.453315
vt 0.474626 0.435306
vt 0.456523 0.422053
vt 0.441540 0.411211
vt 0.417539 0.416269
vt 0.407516 0.406872
vt 0.397962 0.397936
vt 0.388549 0.389179
vt 0.379182 0.380476
vt 0.370019 0.371943
vt 0.361653 0.364230
vt 0.541564 0.534778
vt 0.507113 0.501643
vt 0.480033 0.475211
vt 0.458658 0.454998
vt 0.441842 0.439063
vt 0.428923 0.426870
vt 0.404334 0.428503
vt 0.395567 0.417962
vt 0.387278 0.407889
vt 0.379127 0.398046
vt 0.370985 0.388218
vt 0.363040 0.378606
vt 0.355707 0.369837
vt 0.512367 0.562302
vt 0.482049 0.524354
vt 0.458486 0.494610
vt 0.439724 0.471848
vt 0.425746 0.454641
vt 0.414265 0.440611
vt 0.389776 0.439090
vt 0.382383 0.427465
vt 0.375486 0.416459
vt 0.368658 0.405624
vt 0.361866 0.394829
vt 0.355247 0.384287
vt 0.349098 0.374630
vt 0.478915 0.583986
vt 0.454637 0.543960
vt 0.434871 0.511295
vt 0.419386 0.486784
vt 0.407502 0.467604
vt 0.397876 0.452178
vt 0.373917 0.447705
vt 0.368094 0.435139
vt 0.362658 0.423350
vt 0.357305 0.411780
vt 0.351976 0.400218
vt 0.346784 0.388906
vt 0.341934 0.378523
vt 0.444540 0.602649
vt 0.424898 0.559643
vt 0.409239 0.524701
vt 0.397434 0.499114
vt 0.387849 0.478187
vt 0.380188 0.461502
vt 0.357091 0.454295
vt 0.352983 0.441144
vt 0.349085 0.428664
vt 0.345263 0.416423
vt 0.341469 0.404261
vt 0.337796 0.392391
vt 0.334332 0.381446
vt 0.407894 0.617119
vt 0.393523 0.571769
vt 0.382392 0.535607
vt 0.373669 0.507431
vt 0.367004 0.486032
vt 0.361612 0.468725
vt 0.339565 0.458494
vt 0.337152 0.444877
vt 0.334890 0.432034
vt 0.332709 0.419436
vt 0.330535 0.406899
vt 0.328429 0.394707
vt 0.326413 0.383342
vt 0.369474 0.627018
vt 0.360749 0.579853
vt 0.354153 0.541664
vt 0.349183 0.513196
vt 0.345338 0.491300
vt 0.342254 0.473692
vt 0.321599 0.460386
vt 0.321015 0.446499
vt 0.320406 0.433559
vt 0.319876 0.420802
vt 0.319355 0.408086
vt 0.318856 0.395675
vt 0.318378 0.384269
vt 0.329847 0.632143
vt 0.327169 0.584004
vt 0.325352 0.545308
vt 0.324132 0.516204
vt 0.323155 0.493807
vt 0.322325 0.475708
vt 0.303526 0.459897
vt 0.304789 0.446188
vt 0.305853 0.433208
vt 0.306986 0.420484
vt 0.308129 0.407804
vt 0.309269 0.395383
vt 0.310285 0.384118
vt 0.289467 0.632143
vt 0.293113 0.584046
vt 0.296240 0.544945
vt 0.298804 0.515912
vt 0.300743 0.493554
vt 0.302306 0.475122
vt 0.285703 0.457149
vt 0.288664 0.443784
vt 0.291449 0.430991
vt 0.294249 0.418508
vt 0.297027 0.406086
vt 0.299768 0.393951
vt 0.302247 0.382829
vt 0.249224 0.626498
vt 0.259342 0.578412
vt 0.267267 0.541155
vt 0.273694 0.512302
vt 0.278600 0.489997
vt 0.282473 0.472258
vt 0.268401 0.452088
vt 0.273006 0.439146
vt 0.277481 0.426868
vt 0.281860 0.414868
vt 0.286234 0.402923
vt 0.290519 0.391269
vt 0.294456 0.380506
vt 0.209937 0.615909
vt 0.226051 0.569668
vt 0.239103 0.533074
vt 0.249180 0.505539
vt 0.257085 0.483489
vt 0.263057 0.466892
vt 0.251781 0.444953
vt 0.258068 0.432593
vt 0.264131 0.421023
vt 0.270033 0.409643
vt 0.275972 0.398318
vt 0.281761 0.387284
vt 0.287052 0.377234
vt 0.172006 0.600129
vt 0.194124 0.556595
vt 0.212230 0.521168
vt 0.225953 0.495049
vt 0.236323 0.474781
vt 0.244631 0.458647
vt 0.236136 0.435682
vt 0.244156 0.424146
vt 0.251610 0.413465
vt 0.258978 0.402927
vt 0.266334 0.392470
vt 0.273546 0.382278
vt 0.280119 0.372951
vt 0.136641 0.578990
vt 0.164787 0.538414
vt 0.186915 0.506143
vt 0.204228 0.481635
vt 0.216889 0.463376
vt 0.227435 0.448186
vt 0.222026 0.424190
vt 0.231350 0.414007
vt 0.240194 0.404278
vt 0.248887 0.394796
vt 0.257546 0.385396
vt 0.266051 0.376204
vt 0.273811 0.367793
vt 0.104524 0.553489
vt 0.137986 0.516483
vt 0.163685 0.488052
vt 0.183989 0.466008
vt 0.199224 0.449366
vt 0.211733 0.435594
vt 0.209413 0.411115
vt 0.220111 0.402111
vt 0.230079 0.393646
vt 0.239944 0.385389
vt 0.249788 0.377180
vt 0.259397 0.369187
vt 0.268232 0.361841
vt 0.075473 0.524315
vt 0.113338 0.491980
vt 0.143271 0.466748
vt 0.166204 0.447584
vt 0.183787 0.432857
vt 0.197521 0.421249
vt 0.198760 0.396392
vt 0.210319 0.388970
vt 0.221373 0.381822
vt 0.232263 0.374882
vt 0.243142 0.368005
vt 0.253705 0.361344
vt 0.263481 0.355192
vt 0.049997 0.491002
vt 0.092327 0.464338
vt 0.125770 0.442965
vt 0.150971 0.426975
vt 0.170221 0.414742
vt 0.185499 0.404907
vt 0.189868 0.380555
vt 0.202404 0.374559
vt 0.214300 0.368922
vt 0.226007 0.363446
vt 0.237682 0.358034
vt 0.249064 0.352788
vt 0.259639 0.347951
vt 0.032051 0.453456
vt 0.075980 0.433858
vt 0.111009 0.417465
vt 0.138633 0.404526
vt 0.159218 0.394942
vt 0.175817 0.387105
vt 0.183067 0.363596
vt 0.196390 0.359254
vt 0.208951 0.355201
vt 0.221285 0.351283
vt 0.233580 0.347425
vt 0.245686 0.343643
vt 0.256764 0.340194
vt 0.017886 0.415850
vt 0.064347 0.401480
vt 0.100666 0.389959
vt 0.129040 0.380795
vt 0.150761 0.373958
vt 0.168571 0.368248
vt 0.178677 0.345850
vt 0.192442 0.343277
vt 0.205437 0.340893
vt 0.218185 0.338603
vt 0.230919 0.336359
vt 0.243343 0.334167
vt 0.254787 0.332105
vt 0.008182 0.376991
vt 0.055542 0.368341
vt 0.094362 0.361224
vt 0.122715 0.356023
vt 0.145518 0.351976
vt 0.163327 0.348708
vt 0.176624 0.327667
vt 0.190611 0.326897
vt 0.203831 0.326263
vt 0.216735 0.325630
vt 0.229623 0.325024
vt 0.242250 0.324456
vt 0.253861 0.323866
vt 0.003377 0.337140
vt 0.052149 0.334290
vt 0.090146 0.332139
vt 0.119772 0.330657
vt 0.142691 0.329515
vt 0.161061 0.328528
vt 0.176916 0.309324
vt 0.190940 0.310424
vt 0.204050 0.311533
vt 0.216955 0.312561
vt 0.229811 0.313625
vt 0.242419 0.314679
vt 0.254008 0.315594
vt 0.003075 0.296953
vt 0.051754 0.299911
vt 0.090212 0.302714
vt 0.120022 0.304993
vt 0.142772 0.306795
vt 0.161416 0.308210
vt 0.179608 0.291235
vt 0.193187 0.294086
vt 0.206158 0.296899
vt 0.218871 0.299608
vt 0.231533 0.302341
vt 0.243831 0.305008
vt 0.255230 0.307425
vt 0.007627 0.256514
vt 0.055916 0.265615
vt 0.093831 0.273375
vt 0.123733 0.279494
vt 0.146308 0.284265
vt 0.163995 0.287974
vt 0.184388 0.273540
vt 0.197700 0.278176
vt 0.210180 0.282630
vt 0.222453 0.286999
vt 0.234633 0.291348
vt 0.246483 0.295594
vt 0.257521 0.299491
vt 0.017426 0.216506
vt 0.064714 0.231911
vt 0.102302 0.244890
vt 0.130172 0.254503
vt 0.152284 0.262257
vt 0.169735 0.268375
vt 0.191806 0.256698
vt 0.204315 0.262976
vt 0.216140 0.269046
vt 0.227684 0.274977
vt 0.239171 0.280882
vt 0.250445 0.286676
vt 0.260691 0.291933
vt 0.032452 0.177670
vt 0.077770 0.199359
vt 0.113401 0.217071
vt 0.140116 0.230564
vt 0.161282 0.241233
vt 0.177702 0.249513
vt 0.201071 0.240754
vt 0.212791 0.248731
vt 0.223713 0.256288
vt 0.234429 0.263725
vt 0.245070 0.271120
vt 0.255398 0.278276
vt 0.264973 0.284886
vt 0.052734 0.140659
vt 0.095141 0.168496
vt 0.128378 0.190951
vt 0.153901 0.208419
vt 0.172748 0.221331
vt 0.188245 0.231947
vt 0.212636 0.226307
vt 0.223153 0.235756
vt 0.232995 0.244716
vt 0.242605 0.253465
vt 0.252159 0.262179
vt 0.261538 0.270722
vt 0.270015 0.278440
vt 0.078222 0.106334
vt 0.116624 0.140016
vt 0.146521 0.166791
vt 0.169966 0.187767
vt 0.187082 0.203294
vt 0.200948 0.215799
vt 0.225971 0.213459
vt 0.235143 0.224306
vt 0.243667 0.234405
vt 0.252071 0.244372
vt 0.260392 0.254295
vt 0.268521 0.263941
vt 0.275970 0.272753
vt 0.108701 0.075729
vt 0.142007 0.114593
vt 0.168611 0.145972
vt 0.188597 0.169277
vt 0.203617 0.187164
vt 0.215758 0.201481
vt 0.240917 0.202557
vt 0.248450 0.214375
vt 0.255663 0.225621
vt 0.262657 0.236621
vt 0.269611 0.247557
vt 0.276349 0.258149
vt 0.282605 0.267901
vt 0.143482 0.050004
vt 0.171573 0.094003
vt 0.192979 0.127774
vt 0.209644 0.153500
vt 0.222124 0.173273
vt 0.232390 0.189357
vt 0.257084 0.193653
vt 0.263090 0.206431
vt 0.268702 0.218529
vt 0.274174 0.230325
vt 0.279617 0.242061
vt 0.284886 0.253438
vt 0.289817 0.263969
vt 0.181207 0.028965
vt 0.203119 0.076364
vt 0.220032 0.113637
vt 0.232634 0.140767
vt 0.242538 0.162449
vt 0.250332 0.179254
vt 0.274373 0.187057
vt 0.278613 0.200499
vt 0.282536 0.213155
vt 0.286421 0.225598
vt 0.290259 0.237958
vt 0.293993 0.250027
vt 0.297424 0.260987
vt 0.221983 0.012822
vt 0.236729 0.063349
vt 0.248362 0.102276
vt 0.257170 0.131431
vt 0.264082 0.153989
vt 0.269650 0.172064
vt 0.292332 0.182794
vt 0.294718 0.196723
vt 0.296994 0.209739
vt 0.299169 0.222550
vt 0.301330 0.235293
vt 0.303432 0.247714
vt 0.305415 0.259071
vt 0.264798 0.005214
vt 0.271970 0.056365
vt 0.278097 0.096022
vt 0.282821 0.125785
vt 0.286522 0.148477
vt 0.289640 0.167048
vt 0.310674 0.180729
vt 0.311200 0.194842
vt 0.311736 0.208190
vt 0.312192 0.221193
vt 0.312663 0.234105
vt 0.313103 0.246679
vt 0.313569 0.258229
vt 0.306895 0.003075
vt 0.307193 0.052691
vt 0.308138 0.093141
vt 0.308837 0.123238
vt 0.309471 0.146436
vt 0.310109 0.165142
vt 0.329167 0.181321
vt 0.327788 0.195467
vt 0.326530 0.208668
vt 0.325291 0.221584
vt 0.324054 0.234442
vt 0.322838 0.246922
vt 0.321747 0.258471
vt 0.347766 0.006341
vt 0.342315 0.054912
vt 0.338134 0.093798
vt 0.334837 0.124091
vt 0.332421 0.147286
vt 0.330606 0.165706
vt 0.347381 0.184343
vt 0.344133 0.198062
vt 0.341166 0.210990
vt 0.338228 0.223688
vt 0.335299 0.236285
vt 0.332417 0.248588
vt 0.329832 0.259793
vt 0.388100 0.012387
vt 0.376896 0.060428
vt 0.367624 0.098798
vt 0.360472 0.128358
vt 0.355019 0.151261
vt 0.350889 0.168935
vt 0.364971 0.189778
vt 0.360025 0.202822
vt 0.355364 0.215300
vt 0.350767 0.227480
vt 0.346196 0.239579
vt 0.341733 0.251361
vt 0.337677 0.262184
vt 0.428210 0.023782
vt 0.410573 0.070303
vt 0.396251 0.107406
vt 0.385366 0.135743
vt 0.376954 0.157908
vt 0.370468 0.175075
vt 0.381679 0.197426
vt 0.375093 0.209793
vt 0.368805 0.221487
vt 0.362691 0.232912
vt 0.356583 0.244285
vt 0.350622 0.255350
vt 0.345119 0.265590
vt 0.466796 0.041162
vt 0.442022 0.086063
vt 0.423211 0.120496
vt 0.408977 0.146458
vt 0.397931 0.167135
vt 0.389088 0.183558
vt 0.397177 0.207238
vt 0.389098 0.218608
vt 0.381377 0.229300
vt 0.373796 0.239851
vt 0.366247 0.250340
vt 0.358835 0.260597
vt 0.352109 0.269943
vt 0.501127 0.065111
vt 0.472066 0.104039
vt 0.448503 0.136409
vt 0.430831 0.160472
vt 0.417470 0.179075
vt 0.406394 0.194425
vt 0.830798 0.596926
vt 0.733872 0.500000
vt 0.830798 0.403075
vt 0.636947 0.403075
vt 0.948867 0.941477
vt 0.836947 0.941477
vt 0.836947 0.829557
vt 0.948867 0.829557
vt 0.636947 0.596926
vt 0.830798 0.203075
vt 0.733872 0.300000
vt 0.636947 0.203075
vt 0.636947 0.396926
vt 0.948867 0.114994
vt 0.836947 0.114994
vt 0.836947 0.003075
vt 0.948867 0.003075
vt 0.830798 0.396925
vt 0.596925 0.832143
vt 0.500000 0.735218
vt 0.596925 0.638293
vt 0.403075 0.638293
vt 0.948867 0.121143
vt 0.948867 0.233063
vt 0.836947 0.233063
vt 0.836947 0.121143
vt 0.403075 0.832143
vt 0.830798 0.796926
vt 0.733872 0.700000
vt 0.830798 0.603075
vt 0.636947 0.603075
vt 0.948867 0.711488
vt 0.948867 0.823408
vt 0.836947 0.823408
vt 0.836947 0.711488
vt 0.636947 0.796926
vt 0.003075 0.832143
vt 0.100000 0.735218
vt 0.196925 0.832143
vt 0.196925 0.638293
vt 0.948867 0.239212
vt 0.948867 0.351132
vt 0.836947 0.351132
vt 0.836947 0.239212
vt 0.003075 0.638293
vt 0.830798 0.803075
vt 0.733872 0.900000
vt 0.636947 0.803075
vt 0.636947 0.996926
vt 0.836947 0.469201
vt 0.836947 0.357282
vt 0.948867 0.357282
vt 0.948867 0.469201
vt 0.830798 0.996926
vt 0.203075 0.638293
vt 0.300000 0.735218
vt 0.203075 0.832143
vt 0.396925 0.832143
vt 0.948867 0.705339
vt 0.836947 0.705339
vt 0.836947 0.593419
vt 0.948867 0.593419
vt 0.396925 0.638293
s 0
usemtl マテリアル
f 1/1/1 5/2/1 2/3/1
f 2/3/2 5/2/2 3/4/2
f 1/5/3 2/6/3 3/7/3 4/8/3
f 3/4/4 5/2/4 4/9/4
f 4/9/5 5/2/5 1/1/5
s 1
f 6/10/6 18/11/7 19/12/8 7/13/9
f 7/13/9 19/12/8 20/14/10 8/15/11
f 8/15/11 20/14/10 21/16/12 9/17/13
f 9/17/13 21/16/12 22/18/14 10/19/15
f 10/19/15 22/18/14 23/20/16 11/21/17
f 11/21/17 23/20/16 24/22/18 12/23/19
f 12/24/19 24/25/18 25/26/20 13/27/21
f 13/27/21 25/26/20 26/28/22 14/29/23
f 14/29/23 26/28/22 27/30/24 15/31/25
f 15/31/25 27/30/24 28/32/26 16/33/27
f 16/33/27 28/32/26 29/34/28 17/35/29
f 17/35/29 29/34/28 18/11/7 6/10/6
f 18/11/7 30/36/30 31/37/31 19/12/8
f 19/12/8 31/37/31 32/38/32 20/14/10
f 20/14/10 32/38/32 33/39/33 21/16/12
f 21/16/12 33/39/33 34/40/34 22/18/14
f 22/18/14 34/40/34 35/41/35 23/20/16
f 23/20/16 35/41/35 36/42/36 24/22/18
f 24/25/18 36/43/36 37/44/37 25/26/20
f 25/26/20 37/44/37 38/45/38 26/28/22
f 26/28/22 38/45/38 39/46/39 27/30/24
f 27/30/24 39/46/39 40/47/40 28/32/26
f 28/32/26 40/47/40 41/48/41 29/34/28
f 29/34/28 41/48/41 30/36/30 18/11/7
f 30/36/30 42/49/42 43/50/43 31/37/31
f 31/37/31 43/50/43 44/51/44 32/38/32
f 32/38/32 44/51/44 45/52/45 33/39/33
f 33/39/33 45/52/45 46/53/46 34/40/34
f 34/40/34 46/53/46 47/54/47 35/41/35
f 35/41/35 47/54/47 48/55/48 36/42/36
f 36/43/36 48/56/48 49/57/49 37/44/37
f 37/44/37 49/57/49 50/58/50 38/45/38
f 38/45/38 50/58/50 51/59/51 39/46/39
f 39/46/39 51/59/51 52/60/52 40/47/40
f 40/47/40 52/60/52 53/61/53 41/48/41
f 41/48/41 53/61/53 42/49/42 30/36/30
f 42/49/42 54/62/54 55/63/55 43/50/43
f 43/50/43 55/63/55 56/64/56 44/51/44
f 44/51/44 56/64/56 57/65/57 45/52/45
f 45/52/45 57/65/57 58/66/58 46/53/46
f 46/53/46 58/66/58 59/67/59 47/54/47
f 47/54/47 59/67/59 60/68/60 48/55/48
f 48/56/48 60/69/60 61/70/61 49/57/49
f 49/57/49 61/70/61 62/71/62 50/58/50
f 50/58/50 62/71/62 63/72/63 51/59/51
f 51/59/51 63/72/63 64/73/64 52/60/52
f 52/60/52 64/73/64 65/74/65 53/61/53
f 53/61/53 65/74/65 54/62/54 42/49/42
f 54/62/54 66/75/66 67/76/67 55/63/55
f 55/63/55 67/76/67 68/77/68 56/64/56
f 56/64/56 68/77/68 69/78/69 57/65/57
f 57/65/57 69/78/69 70/79/70 58/66/58
f 58/66/58 70/79/70 71/80/71 59/67/59
f 59/67/59 71/80/71 72/81/72 60/68/60
f 60/69/60 72/82/72 73/83/73 61/70/61
f 61/70/61 73/83/73 74/84/74 62/71/62
f 62/71/62 74/84/74 75/85/75 63/72/63
f 63/72/63 75/85/75 76/86/76 64/73/64
f 64/73/64 76/86/76 77/87/77 65/74/65
f 65/74/65 77/87/77 66/75/66 54/62/54
f 66/75/66 78/88/78 79/89/79 67/76/67
f 67/76/67 79/89/79 80/90/80 68/77/68
f 68/77/68 80/90/80 81/91/81 69/78/69
f 69/78/69 81/91/81 82/92/82 70/79/70
f 70/79/70 82/92/82 83/93/83 71/80/71
f 71/80/71 83/93/83 84/94/84 72/81/72
f 72/82/72 84/95/84 85/96/85 73/83/73
f 73/83/73 85/96/85 86/97/86 74/84/74
f 74/84/74 86/97/86 87/98/87 75/85/75
f 75/85/75 87/98/87 88/99/88 76/86/76
f 76/86/76 88/99/88 89/100/89 77/87/77
f 77/87/77 89/100/89 78/88/78 66/75/66
f 78/88/78 90/101/90 91/102/91 79/89/79
f 79/89/79 91/102/91 92/103/92 80/90/80
f 80/90/80 92/103/92 93/104/93 81/91/81
f 81/91/81 93/104/93 94/105/94 82/92/82
f 82/92/82 94/105/94 95/106/95 83/93/83
f 83/93/83 95/106/95 96/107/96 84/94/84
f 84/95/84 96/108/96 97/109/97 85/96/85
f 85/96/85 97/109/97 98/110/98 86/97/86
f 86/97/86 98/110/98 99/111/99 87/98/87
f 87/98/87 99/111/99 100/112/100 88/99/88
f 88/99/88 100/112/100 101/113/101 89/100/89
f 89/100/89 101/113/101 90/101/90 78/88/78
f 90/101/90 102/114/102 103/115/103 91/102/91
f 91/102/91 103/115/103 104/116/104 92/103/92
f 92/103/92 104/116/104 105/117/105 93/104/93
f 93/104/93 105/117/105 106/118/106 94/105/94
f 94/105/94 106/118/106 107/119/107 95/106/95
f 95/106/95 107/119/107 108/120/108 96/107/96
f 96/108/96 108/121/108 109/122/109 97/109/97
f 97/109/97 109/122/109 110/123/110 98/110/98
f 98/110/98 110/123/110 111/124/111 99/111/99
f 99/111/99 111/124/111 112/125/112 100/112/100
f 100/112/100 112/125/112 113/126/113 101/113/101
f 101/113/101 113/126/113 102/114/102 90/101/90
f 102/114/102 114/127/114 115/128/115 103/115/103
f 103/115/103 115/128/115 116/129/116 104/116/104
f 104/116/104 116/129/116 117/130/117 105/117/105
f 105/117/105 117/130/117 118/131/118 106/118/106
f 106/118/106 118/131/118 119/132/119 107/119/107
f 107/119/107 119/132/119 120/133/120 108/120/108
f 108/121/108 120/134/120 121/135/121 109/122/109
f 109/122/109 121/135/121 122/136/122 110/123/110
f 110/123/110 122/136/122 123/137/123 111/124/111
f 111/124/111 123/137/123 124/138/124 112/125/112
f 112/125/112 124/138/124 125/139/125 113/126/113
f 113/126/113 125/139/125 114/127/114 102/114/102
f 114/127/114 126/140/126 127/141/127 115/128/115
f 115/128/115 127/141/127 128/142/128 116/129/116
f 116/129/116 128/142/128 129/143/129 117/130/117
f 117/130/117 129/143/129 130/144/130 118/131/118
f 118/131/118 130/144/130 131/145/131 119/132/119
f 119/132/119 131/145/131 132/146/132 120/133/120
f 120/134/120 132/147/132 133/148/133 121/135/121
f 121/135/121 133/148/133 134/149/134 122/136/122
f 122/136/122 134/149/134 135/150/135 123/137/123
f 123/137/123 135/150/135 136/151/136 124/138/124
f 124/138/124 136/151/136 137/152/137 125/139/125
f 125/139/125 137/152/137 126/140/126 114/127/114
f 126/140/126 138/153/138 139/154/139 127/141/127
f 127/141/127 139/154/139 140/155/140 128/142/128
f 128/142/128 140/155/140 141/156/141 129/143/129
f 129/143/129 141/156/141 142/157/142 130/144/130
f 130/144/130 142/157/142 143/158/143 131/145/131
f 131/145/131 143/158/143 144/159/144 132/146/132
f 132/147/132 144/160/144 145/161/145 133/148/133
f 133/148/133 145/161/145 146/162/146 134/149/134
f 134/149/134 146/162/146 147/163/147 135/150/135
f 135/150/135 147/163/147 148/164/148 136/151/136
f 136/151/136 148/164/148 149/165/149 137/152/137
f 137/152/137 149/165/149 138/153/138 126/140/126
f 138/153/138 150/166/150 151/167/151 139/154/139
f 139/154/139 151/167/151 152/168/152 140/155/140
f 140/155/140 152/168/152 153/169/153 141/156/141
f 141/156/141 153/169/153 154/170/154 142/157/142
f 142/157/142 154/170/154 155/171/155 143/158/143
f 143/158/143 155/171/155 156/172/156 144/159/144
f 144/160/144 156/173/156 157/174/157 145/161/145
f 145/161/145 157/174/157 158/175/158 146/162/146
f 146/162/146 158/175/158 159/176/159 147/163/147
f 147/163/147 159/176/159 160/177/160 148/164/148
f 148/164/148 160/177/160 161/178/161 149/165/149
f 149/165/149 161/178/161 150/166/150 138/153/138
f 150/166/150 162/179/162 163/180/163 151/167/151
f 151/167/151 163/180/163 164/181/164 152/168/152
f 152/168/152 164/181/164 165/182/165 153/169/153
f 153/169/153 165/182/165 166/183/166 154/170/154
f 154/170/154 166/183/166 167/184/167 155/171/155
f 155/171/155 167/184/167 168/185/168 156/172/156
f 156/173/156 168/186/168 169/187/169 157/174/157
f 157/174/157 169/187/169 170/188/170 158/175/158
f 158/175/158 170/188/170 171/189/171 159/176/159
f 159/176/159 171/189/171 172/190/172 160/177/160
f 160/177/160 172/190/172 173/191/173 161/178/161
f 161/178/161 173/191/173 162/179/162 150/166/150
f 162/179/162 174/192/174 175/193/175 163/180/163
f 163/180/163 175/193/175 176/194/176 164/181/164
f 164/181/164 176/194/176 177/195/177 165/182/165
f 165/182/165 177/195/177 178/196/178 166/183/166
f 166/183/166 178/196/178 179/197/179 167/184/167
f 167/184/167 179/197/179 180/198/180 168/185/168
f 168/186/168 180/199/180 181/200/181 169/187/169
f 169/187/169 181/200/181 182/201/182 170/188/170
f 170/188/170 182/201/182 183/202/183 171/189/171
f 171/189/171 183/202/183 184/203/184 172/190/172
f 172/190/172 184/203/184 185/204/185 173/191/173
f 173/191/173 185/204/185 174/192/174 162/179/162
f 174/192/174 186/205/186 187/206/187 175/193/175
f 175/193/175 187/206/187 188/207/188 176/194/176
f 176/194/176 188/207/188 189/208/189 177/195/177
f 177/195/177 189/208/189 190/209/190 178/196/178
f 178/196/178 190/209/190 191/210/191 179/197/179
f 179/197/179 191/210/191 192/211/192 180/198/180
f 180/199/180 192/212/192 193/213/193 181/200/181
f 181/200/181 193/213/193 194/214/194 182/201/182
f 182/201/182 194/214/194 195/215/195 183/202/183
f 183/202/183 195/215/195 196/216/196 184/203/184
f 184/203/184 196/216/196 197/217/197 185/204/185
f 185/204/185 197/217/197 186/205/186 174/192/174
f 186/205/186 198/218/198 199/219/199 187/206/187
f 187/206/187 199/219/199 200/220/200 188/207/188
f 188/207/188 200/220/200 201/221/201 189/208/189
f 189/208/189 201/221/201 202/222/202 190/209/190
f 190/209/190 202/222/202 203/223/203 191/210/191
f 191/210/191 203/223/203 204/224/204 192/211/192
f 192/212/192 204/225/204 205/226/205 193/213/193
f 193/213/193 205/226/205 206/227/206 194/214/194
f 194/214/194 206/227/206 207/228/207 195/215/195
f 195/215/195 207/228/207 208/229/208 196/216/196
f 196/216/196 208/229/208 209/230/209 197/217/197
f 197/217/197 209/230/209 198/218/198 186/205/186
f 198/218/198 210/231/210 211/232/211 199/219/199
f 199/219/199 211/232/211 212/233/212 200/220/200
f 200/220/200 212/233/212 213/234/213 201/221/201
f 201/221/201 213/234/213 214/235/214 202/222/202
f 202/222/202 214/235/214 215/236/215 203/223/203
f 203/223/203 215/236/215 216/237/216 204/224/204
f 204/225/204 216/238/216 217/239/217 205/226/205
f 205/226/205 217/239/217 218/240/218 206/227/206
f 206/227/206 218/240/218 219/241/219 207/228/207
f 207/228/207 219/241/219 220/242/220 208/229/208
f 208/229/208 220/242/220 221/243/221 209/230/209
f 209/230/209 221/243/221 210/231/210 198/218/198
f 210/231/210 222/244/222 223/245/223 211/232/211
f 211/232/211 223/245/223 224/246/224 212/233/212
f 212/233/212 224/246/224 225/247/225 213/234/213
f 213/234/213 225/247/225 226/248/226 214/235/214
f 214/235/214 226/248/226 227/249/227 215/236/215
f 215/236/215 227/249/227 228/250/3 216/237/216
f 216/238/216 228/251/3 229/252/228 217/239/217
f 217/239/217 229/252/228 230/253/229 218/240/218
f 218/240/218 230/253/229 231/254/230 219/241/219
f 219/241/219 231/254/230 232/255/231 220/242/220
f 220/242/220 232/255/231 233/256/232 221/243/221
f 221/243/221 233/256/232 222/244/222 210/231/210
f 222/244/222 234/257/233 235/258/234 223/245/223
f 223/245/223 235/258/234 236/259/235 224/246/224
f 224/246/224 236/259/235 237/260/236 225/247/225
f 225/247/225 237/260/236 238/261/237 226/248/226
f 226/248/226 238/261/237 239/262/238 227/249/227
f 227/249/227 239/262/238 240/263/239 228/250/3
f 228/251/3 240/264/239 241/265/240 229/252/228
f 229/252/228 241/265/240 242/266/241 230/253/229
f 230/253/229 242/266/241 243/267/242 231/254/230
f 231/254/230 243/267/242 244/268/243 232/255/231
f 232/255/231 244/268/243 245/269/244 233/256/232
f 233/256/232 245/269/244 234/257/233 222/244/222
f 234/257/233 246/270/245 247/271/246 235/258/234
f 235/258/234 247/271/246 248/272/247 236/259/235
f 236/259/235 248/272/247 249/273/248 237/260/236
f 237/260/236 249/273/248 250/274/249 238/261/237
f 238/261/237 250/274/249 251/275/250 239/262/238
f 239/262/238 251/275/250 252/276/251 240/263/239
f 240/264/239 252/277/251 253/278/252 241/265/240
f 241/265/240 253/278/252 254/279/253 242/266/241
f 242/266/241 254/279/253 255/280/254 243/267/242
f 243/267/242 255/280/254 256/281/255 244/268/243
f 244/268/243 256/281/255 257/282/256 245/269/244
f 245/269/244 257/282/256 246/270/245 234/257/233
f 246/270/245 258/283/257 259/284/258 247/271/246
f 247/271/246 259/284/258 260/285/259 248/272/247
f 248/272/247 260/285/259 261/286/260 249/273/248
f 249/273/248 261/286/260 262/287/261 250/274/249
f 250/274/249 262/287/261 263/288/262 251/275/250
f 251/275/250 263/288/262 264/289/263 252/276/251
f 252/277/251 264/290/263 265/291/264 253/278/252
f 253/278/252 265/291/264 266/292/265 254/279/253
f 254/279/253 266/292/265 267/293/266 255/280/254
f 255/280/254 267/293/266 268/294/267 256/281/255
f 256/281/255 268/294/267 269/295/268 257/282/256
f 257/282/256 269/295/268 258/283/257 246/270/245
f 258/283/257 270/296/269 271/297/270 259/284/258
f 259/284/258 271/297/270 272/298/271 260/285/259
f 260/285/259 272/298/271 273/299/272 261/286/260
f 261/286/260 273/299/272 274/300/273 262/287/261
f 262/287/261 274/300/273 275/301/274 263/288/262
f 263/288/262 275/301/274 276/302/275 264/289/263
f 264/290/263 276/303/275 277/304/276 265/291/264
f 265/291/264 277/304/276 278/305/277 266/292/265
f 266/292/265 278/305/277 279/306/278 267/293/266
f 267/293/266 279/306/278 280/307/279 268/294/267
f 268/294/267 280/307/279 281/308/280 269/295/268
f 269/295/268 281/308/280 270/296/269 258/283/257
f 270/296/269 282/309/281 283/310/282 271/297/270
f 271/297/270 283/310/282 284/311/283 272/298/271
f 272/298/271 284/311/283 285/312/284 273/299/272
f 273/299/272 285/312/284 286/313/285 274/300/273
f 274/300/273 286/313/285 287/314/286 275/301/274
f 275/301/274 287/314/286 288/315/287 276/302/275
f 276/303/275 288/316/287 289/317/288 277/304/276
f 277/304/276 289/317/288 290/318/289 278/305/277
f 278/305/277 290/318/289 291/319/290 279/306/278
f 279/306/278 291/319/290 292/320/291 280/307/279
f 280/307/279 292/320/291 293/321/292 281/308/280
f 281/308/280 293/321/292 282/309/281 270/296/269
f 282/309/281 294/322/19 295/323/293 283/310/282
f 283/310/282 295/323/293 296/324/294 284/311/283
f 284/311/283 296/324/294 297/325/295 285/312/284
f 285/312/284 297/325/295 298/326/296 286/313/285
f 286/313/285 298/326/296 299/327/297 287/314/286
f 287/314/286 299/327/297 300/328/6 288/315/287
f 288/316/287 300/329/6 301/330/298 289/317/288
f 289/317/288 301/330/298 302/331/299 290/318/289
f 290/318/289 302/331/299 303/332/300 291/319/290
f 291/319/290 303/332/300 304/333/301 292/320/291
f 292/320/291 304/333/301 305/334/302 293/321/292
f 293/321/292 305/334/302 294/322/19 282/309/281
f 294/322/19 306/335/18 307/336/303 295/323/293
f 295/323/293 307/336/303 308/337/304 296/324/294
f 296/324/294 308/337/304 309/338/305 297/325/295
f 297/325/295 309/338/305 310/339/306 298/326/296
f 298/326/296 310/339/306 311/340/307 299/327/297
f 299/327/297 311/340/307 312/341/7 300/328/6
f 300/329/6 312/342/7 313/343/308 301/330/298
f 301/330/298 313/343/308 314/344/309 302/331/299
f 302/331/299 314/344/309 315/345/310 303/332/300
f 303/332/300 315/345/310 316/346/311 304/333/301
f 304/333/301 316/346/311 317/347/312 305/334/302
f 305/334/302 317/347/312 306/335/18 294/322/19
f 306/335/18 318/348/36 319/349/313 307/336/303
f 307/336/303 319/349/313 320/350/314 308/337/304
f 308/337/304 320/350/314 321/351/315 309/338/305
f 309/338/305 321/351/315 322/352/316 310/339/306
f 310/339/306 322/352/316 323/353/317 311/340/307
f 311/340/307 323/353/317 324/354/30 312/341/7
f 312/342/7 324/355/30 325/356/318 313/343/308
f 313/343/308 325/356/318 326/357/319 314/344/309
f 314/344/309 326/357/319 327/358/320 315/345/310
f 315/345/310 327/358/320 328/359/321 316/346/311
f 316/346/311 328/359/321 329/360/322 317/347/312
f 317/347/312 329/360/322 318/348/36 306/335/18
f 318/348/36 330/361/48 331/362/323 319/349/313
f 319/349/313 331/362/323 332/363/324 320/350/314
f 320/350/314 332/363/324 333/364/325 321/351/315
f 321/351/315 333/364/325 334/365/326 322/352/316
f 322/352/316 334/365/326 335/366/327 323/353/317
f 323/353/317 335/366/327 336/367/42 324/354/30
f 324/355/30 336/368/42 337/369/328 325/356/318
f 325/356/318 337/369/328 338/370/329 326/357/319
f 326/357/319 338/370/329 339/371/330 327/358/320
f 327/358/320 339/371/330 340/372/331 328/359/321
f 328/359/321 340/372/331 341/373/332 329/360/322
f 329/360/322 341/373/332 330/361/48 318/348/36
f 330/361/48 342/374/60 343/375/333 331/362/323
f 331/362/323 343/375/333 344/376/334 332/363/324
f 332/363/324 344/376/334 345/377/335 333/364/325
f 333/364/325 345/377/335 346/378/336 334/365/326
f 334/365/326 346/378/336 347/379/337 335/366/327
f 335/366/327 347/379/337 348/380/54 336/367/42
f 336/368/42 348/381/54 349/382/338 337/369/328
f 337/369/328 349/382/338 350/383/339 338/370/329
f 338/370/329 350/383/339 351/384/340 339/371/330
f 339/371/330 351/384/340 352/385/341 340/372/331
f 340/372/331 352/385/341 353/386/342 341/373/332
f 341/373/332 353/386/342 342/374/60 330/361/48
f 342/374/60 354/387/72 355/388/343 343/375/333
f 343/375/333 355/388/343 356/389/344 344/376/334
f 344/376/334 356/389/344 357/390/345 345/377/335
f 345/377/335 357/390/345 358/391/346 346/378/336
f 346/378/336 358/391/346 359/392/347 347/379/337
f 347/379/337 359/392/347 360/393/66 348/380/54
f 348/381/54 360/394/66 361/395/348 349/382/338
f 349/382/338 361/395/348 362/396/349 350/383/339
f 350/383/339 362/396/349 363/397/350 351/384/340
f 351/384/340 363/397/350 364/398/351 352/385/341
f 352/385/341 364/398/351 365/399/352 353/386/342
f 353/386/342 365/399/352 354/387/72 342/374/60
f 354/387/72 366/400/84 367/401/353 355/388/343
f 355/388/343 367/401/353 368/402/354 356/389/344
f 356/389/344 368/402/354 369/403/355 357/390/345
f 357/390/345 369/403/355 370/404/356 358/391/346
f 358/391/346 370/404/356 371/405/357 359/392/347
f 359/392/347 371/405/357 372/406/78 360/393/66
f 360/394/66 372/407/78 373/408/358 361/395/348
f 361/395/348 373/408/358 374/409/359 362/396/349
f 362/396/349 374/409/359 375/410/360 363/397/350
f 363/397/350 375/410/360 376/411/361 364/398/351
f 364/398/351 376/411/361 377/412/362 365/399/352
f 365/399/352 377/412/362 366/400/84 354/387/72
f 366/400/84 378/413/96 379/414/363 367/401/353
f 367/401/353 379/414/363 380/415/364 368/402/354
f 368/402/354 380/415/364 381/416/365 369/403/355
f 369/403/355 381/416/365 382/417/366 370/404/356
f 370/404/356 382/417/366 383/418/367 371/405/357
f 371/405/357 383/418/367 384/419/90 372/406/78
f 372/407/78 384/420/90 385/421/368 373/408/358
f 373/408/358 385/421/368 386/422/369 374/409/359
f 374/409/359 386/422/369 387/423/370 375/410/360
f 375/410/360 387/423/370 388/424/371 376/411/361
f 376/411/361 388/424/371 389/425/372 377/412/362
f 377/412/362 389/425/372 378/413/96 366/400/84
f 378/413/96 390/426/108 391/427/373 379/414/363
f 379/414/363 391/427/373 392/428/374 380/415/364
f 380/415/364 392/428/374 393/429/375 381/416/365
f 381/416/365 393/429/375 394/430/376 382/417/366
f 382/417/366 394/430/376 395/431/377 383/418/367
f 383/418/367 395/431/377 396/432/102 384/419/90
f 384/420/90 396/433/102 397/434/378 385/421/368
f 385/421/368 397/434/378 398/435/379 386/422/369
f 386/422/369 398/435/379 399/436/380 387/423/370
f 387/423/370 399/436/380 400/437/381 388/424/371
f 388/424/371 400/437/381 401/438/382 389/425/372
f 389/425/372 401/438/382 390/426/108 378/413/96
f 390/426/108 402/439/120 403/440/383 391/427/373
f 391/427/373 403/440/383 404/441/384 392/428/374
f 392/428/374 404/441/384 405/442/385 393/429/375
f 393/429/375 405/442/385 406/443/386 394/430/376
f 394/430/376 406/443/386 407/444/387 395/431/377
f 395/431/377 407/444/387 408/445/114 396/432/102
f 396/433/102 408/446/114 409/447/388 397/434/378
f 397/434/378 409/447/388 410/448/389 398/435/379
f 398/435/379 410/448/389 411/449/390 399/436/380
f 399/436/380 411/449/390 412/450/391 400/437/381
f 400/437/381 412/450/391 413/451/392 401/438/382
f 401/438/382 413/451/392 402/439/120 390/426/108
f 402/439/120 414/452/132 415/453/393 403/440/383
f 403/440/383 415/453/393 416/454/394 404/441/384
f 404/441/384 416/454/394 417/455/395 405/442/385
f 405/442/385 417/455/395 418/456/396 406/443/386
f 406/443/386 418/456/396 419/457/397 407/444/387
f 407/444/387 419/457/397 420/458/126 408/445/114
f 408/446/114 420/459/126 421/460/398 409/447/388
f 409/447/388 421/460/398 422/461/399 410/448/389
f 410/448/389 422/461/399 423/462/400 411/449/390
f 411/449/390 423/462/400 424/463/401 412/450/391
f 412/450/391 424/463/401 425/464/402 413/451/392
f 413/451/392 425/464/402 414/452/132 402/439/120
f 414/452/132 426/465/144 427/466/403 415/453/393
f 415/453/393 427/466/403 428/467/404 416/454/394
f 416/454/394 428/467/404 429/468/405 417/455/395
f 417/455/395 429/468/405 430/469/406 418/456/396
f 418/456/396 430/469/406 431/470/407 419/457/397
f 419/457/397 431/470/407 432/471/138 420/458/126
f 420/459/126 432/472/138 433/473/408 421/460/398
f 421/460/398 433/473/408 434/474/409 422/461/399
f 422/461/399 434/474/409 435/475/410 423/462/400
f 423/462/400 435/475/410 436/476/411 424/463/401
f 424/463/401 436/476/411 437/477/412 425/464/402
f 425/464/402 437/477/412 426/465/144 414/452/132
f 426/465/144 438/478/156 439/479/413 427/466/403
f 427/466/403 439/479/413 440/480/414 428/467/404
f 428/467/404 440/480/414 441/481/415 429/468/405
f 429/468/405 441/481/415 442/482/416 430/469/406
f 430/469/406 442/482/416 443/483/417 431/470/407
f 431/470/407 443/483/417 444/484/150 432/471/138
f 432/472/138 444/485/150 445/486/418 433/473/408
f 433/473/408 445/486/418 446/487/419 434/474/409
f 434/474/409 446/487/419 447/488/420 435/475/410
f 435/475/410 447/488/420 448/489/421 436/476/411
f 436/476/411 448/489/421 449/490/422 437/477/412
f 437/477/412 449/490/422 438/478/156 426/465/144
f 438/478/156 450/491/168 451/492/423 439/479/413
f 439/479/413 451/492/423 452/493/424 440/480/414
f 440/480/414 452/493/424 453/494/425 441/481/415
f 441/481/415 453/494/425 454/495/426 442/482/416
f 442/482/416 454/495/426 455/496/427 443/483/417
f 443/483/417 455/496/427 456/497/162 444/484/150
f 444/485/150 456/498/162 457/499/428 445/486/418
f 445/486/418 457/499/428 458/500/429 446/487/419
f 446/487/419 458/500/429 459/501/430 447/488/420
f 447/488/420 459/501/430 460/502/431 448/489/421
f 448/489/421 460/502/431 461/503/432 449/490/422
f 449/490/422 461/503/432 450/491/168 438/478/156
f 450/491/168 462/504/180 463/505/433 451/492/423
f 451/492/423 463/505/433 464/506/434 452/493/424
f 452/493/424 464/506/434 465/507/435 453/494/425
f 453/494/425 465/507/435 466/508/436 454/495/426
f 454/495/426 466/508/436 467/509/437 455/496/427
f 455/496/427 467/509/437 468/510/174 456/497/162
f 456/498/162 468/511/174 469/512/438 457/499/428
f 457/499/428 469/512/438 470/513/439 458/500/429
f 458/500/429 470/513/439 471/514/440 459/501/430
f 459/501/430 471/514/440 472/515/441 460/502/431
f 460/502/431 472/515/441 473/516/442 461/503/432
f 461/503/432 473/516/442 462/504/180 450/491/168
f 462/504/180 474/517/192 475/518/443 463/505/433
f 463/505/433 475/518/443 476/519/444 464/506/434
f 464/506/434 476/519/444 477/520/445 465/507/435
f 465/507/435 477/520/445 478/521/446 466/508/436
f 466/508/436 478/521/446 479/522/447 467/509/437
f 467/509/437 479/522/447 480/523/186 468/510/174
f 468/511/174 480/524/186 481/525/448 469/512/438
f 469/512/438 481/525/448 482/526/449 470/513/439
f 470/513/439 482/526/449 483/527/450 471/514/440
f 471/514/440 483/527/450 484/528/451 472/515/441
f 472/515/441 484/528/451 485/529/452 473/516/442
f 473/516/442 485/529/452 474/517/192 462/504/180
f 474/517/192 486/530/204 487/531/453 475/518/443
f 475/518/443 487/531/453 488/532/454 476/519/444
f 476/519/444 488/532/454 489/533/455 477/520/445
f 477/520/445 489/533/455 490/534/456 478/521/446
f 478/521/446 490/534/456 491/535/457 479/522/447
f 479/522/447 491/535/457 492/536/198 480/523/186
f 480/524/186 492/537/198 493/538/458 481/525/448
f 481/525/448 493/538/458 494/539/459 482/526/449
f 482/526/449 494/539/459 495/540/460 483/527/450
f 483/527/450 495/540/460 496/541/461 484/528/451
f 484/528/451 496/541/461 497/542/462 485/529/452
f 485/529/452 497/542/462 486/530/204 474/517/192
f 486/530/204 498/543/216 499/544/463 487/531/453
f 487/531/453 499/544/463 500/545/464 488/532/454
f 488/532/454 500/545/464 501/546/465 489/533/455
f 489/533/455 501/546/465 502/547/466 490/534/456
f 490/534/456 502/547/466 503/548/467 491/535/457
f 491/535/457 503/548/467 504/549/210 492/536/198
f 492/537/198 504/550/210 505/551/468 493/538/458
f 493/538/458 505/551/468 506/552/469 494/539/459
f 494/539/459 506/552/469 507/553/470 495/540/460
f 495/540/460 507/553/470 508/554/471 496/541/461
f 496/541/461 508/554/471 509/555/472 497/542/462
f 497/542/462 509/555/472 498/543/216 486/530/204
f 498/543/216 510/556/3 511/557/473 499/544/463
f 499/544/463 511/557/473 512/558/474 500/545/464
f 500/545/464 512/558/474 513/559/475 501/546/465
f 501/546/465 513/559/475 514/560/476 502/547/466
f 502/547/466 514/560/476 515/561/477 503/548/467
f 503/548/467 515/561/477 516/562/222 504/549/210
f 504/550/210 516/563/222 517/564/478 505/551/468
f 505/551/468 517/564/478 518/565/479 506/552/469
f 506/552/469 518/565/479 519/566/480 507/553/470
f 507/553/470 519/566/480 520/567/481 508/554/471
f 508/554/471 520/567/481 521/568/482 509/555/472
f 509/555/472 521/568/482 510/556/3 498/543/216
f 510/556/3 522/569/239 523/570/483 511/557/473
f 511/557/473 523/570/483 524/571/484 512/558/474
f 512/558/474 524/571/484 525/572/485 513/559/475
f 513/559/475 525/572/485 526/573/486 514/560/476
f 514/560/476 526/573/486 527/574/487 515/561/477
f 515/561/477 527/574/487 528/575/233 516/562/222
f 516/563/222 528/576/233 529/577/488 517/564/478
f 517/564/478 529/577/488 530/578/489 518/565/479
f 518/565/479 530/578/489 531/579/490 519/566/480
f 519/566/480 531/579/490 532/580/491 520/567/481
f 520/567/481 532/580/491 533/581/492 521/568/482
f 521/568/482 533/581/492 522/569/239 510/556/3
f 522/569/239 534/582/251 535/583/493 523/570/483
f 523/570/483 535/583/493 536/584/494 524/571/484
f 524/571/484 536/584/494 537/585/495 525/572/485
f 525/572/485 537/585/495 538/586/496 526/573/486
f 526/573/486 538/586/496 539/587/497 527/574/487
f 527/574/487 539/587/497 540/588/245 528/575/233
f 528/576/233 540/589/245 541/590/498 529/577/488
f 529/577/488 541/590/498 542/591/499 530/578/489
f 530/578/489 542/591/499 543/592/500 531/579/490
f 531/579/490 543/592/500 544/593/501 532/580/491
f 532/580/491 544/593/501 545/594/502 533/581/492
f 533/581/492 545/594/502 534/582/251 522/569/239
f 534/582/251 546/595/263 547/596/503 535/583/493
f 535/583/493 547/596/503 548/597/504 536/584/494
f 536/584/494 548/597/504 549/598/505 537/585/495
f 537/585/495 549/598/505 550/599/506 538/586/496
f 538/586/496 550/599/506 551/600/507 539/587/497
f 539/587/497 551/600/507 552/601/257 540/588/245
f 540/589/245 552/602/257 553/603/508 541/590/498
f 541/590/498 553/603/508 554/604/509 542/591/499
f 542/591/499 554/604/509 555/605/510 543/592/500
f 543/592/500 555/605/510 556/606/511 544/593/501
f 544/593/501 556/606/511 557/607/512 545/594/502
f 545/594/502 557/607/512 546/595/263 534/582/251
f 546/595/263 558/608/275 559/609/513 547/596/503
f 547/596/503 559/609/513 560/610/514 548/597/504
f 548/597/504 560/610/514 561/611/515 549/598/505
f 549/598/505 561/611/515 562/612/516 550/599/506
f 550/599/506 562/612/516 563/613/517 551/600/507
f 551/600/507 563/613/517 564/614/269 552/601/257
f 552/602/257 564/615/269 565/616/518 553/603/508
f 553/603/508 565/616/518 566/617/519 554/604/509
f 554/604/509 566/617/519 567/618/520 555/605/510
f 555/605/510 567/618/520 568/619/521 556/606/511
f 556/606/511 568/619/521 569/620/522 557/607/512
f 557/607/512 569/620/522 558/608/275 546/595/263
f 558/608/275 570/621/287 571/622/523 559/609/513
f 559/609/513 571/622/523 572/623/524 560/610/514
f 560/610/514 572/623/524 573/624/525 561/611/515
f 561/611/515 573/624/525 574/625/526 562/612/516
f 562/612/516 574/625/526 575/626/527 563/613/517
f 563/613/517 575/626/527 576/627/281 564/614/269
f 564/615/269 576/628/281 577/629/528 565/616/518
f 565/616/518 577/629/528 578/630/529 566/617/519
f 566/617/519 578/630/529 579/631/530 567/618/520
f 567/618/520 579/631/530 580/632/531 568/619/521
f 568/619/521 580/632/531 581/633/532 569/620/522
f 569/620/522 581/633/532 570/621/287 558/608/275
f 570/621/287 6/10/6 7/13/9 571/622/523
f 571/622/523 7/13/9 8/15/11 572/623/524
f 572/623/524 8/15/11 9/17/13 573/624/525
f 573/624/525 9/17/13 10/19/15 574/625/526
f 574/625/526 10/19/15 11/21/17 575/626/527
f 575/626/527 11/21/17 12/23/19 576/627/281
f 576/628/281 12/24/19 13/27/21 577/629/528
f 577/629/528 13/27/21 14/29/23 578/630/529
f 578/630/529 14/29/23 15/31/25 579/631/530
f 579/631/530 15/31/25 16/33/27 580/632/531
f 580/632/531 16/33/27 17/35/29 581/633/532
f 581/633/532 17/35/29 6/10/6 570/621/287
s 0
f 582/634/533 586/635/533 583/636/533
f 583/636/534 586/635/534 584/637/534
f 582/638/156 583/639/156 584/640/156 585/641/156
f 584/637/535 586/635/535 585/642/535
f 585/642/536 586/635/536 582/634/536
f 587/643/537 591/644/537 588/645/537
f 588/645/538 591/644/538 589/646/538
f 587/647/150 588/648/150 589/649/150 590/650/150
f 589/646/539 591/644/539 590/651/539
f 590/651/540 591/644/540 587/643/540
f 592/652/541 596/653/541 593/654/541
f 593/654/542 596/653/542 594/655/542
f 592/656/19 593/657/19 594/658/19 595/659/19
f 594/655/543 596/653/543 595/660/543
f 595/660/544 596/653/544 592/652/544
f 597/661/545 601/662/545 598/663/545
f 598/663/546 601/662/546 599/664/546
f 597/665/6 598/666/6 599/667/6 600/668/6
f 599/664/547 601/662/547 600/669/547
f 600/669/548 601/662/548 597/661/548
f 602/670/549 606/671/549 603/672/549
f 603/672/550 606/671/550 604/673/550
f 602/674/222 603/675/222 604/676/222 605/677/222
f 604/673/551 606/671/551 605/678/551
f 605/678/552 606/671/552 602/670/552
f 607/679/553 611/680/553 608/681/553
f 608/681/554 611/680/554 609/682/554
f 607/683/78 608/684/78 609/685/78 610/686/78
f 609/682/555 611/680/555 610/687/555
f 610/687/556 611/680/556 607/679/556
f 612/688/557 616/689/557 613/690/557
f 613/690/558 616/689/558 614/691/558
f 612/692/84 613/693/84 614/694/84 615/695/84
s 1
f 614/691/559 616/689/559 615/696/559
s 0
f 615/696/560 616/689/560 612/688/560
