# Blender 4.1.1
# www.blender.org
mtllib BossBody.mtl
o Cube.003
v -5.476945 -0.911456 4.060811
v -3.160415 5.792164 2.797337
v -3.451818 3.863428 4.060811
v -5.476945 -0.911456 -3.432267
v -3.160415 5.792164 -2.121737
v -3.451818 3.863428 -3.432267
v 4.754857 -0.911456 4.060812
v 4.118161 5.792164 2.797337
v 4.754857 3.863428 4.060812
v 4.754857 -0.911456 -3.432268
v 4.118161 5.792164 -2.121737
v 4.754857 3.863428 -3.432268
v -5.476945 1.475986 4.060811
v -5.476945 1.475986 -3.432267
v 4.754857 1.475986 -3.432268
v 4.754857 1.475986 4.060812
v -3.160415 3.863428 2.797337
v -3.160415 3.863428 0.347939
v 0.463871 3.863428 -2.121737
v -2.016481 3.863428 -2.121737
v -3.160415 3.863428 -2.121737
v 4.118161 3.863428 0.327661
v 4.118161 3.863428 -2.121737
v 0.493875 3.863428 2.797337
v 3.371056 3.863428 2.797337
v 4.118161 3.863428 2.797337
vn -1.0000 -0.0000 -0.0000
vn -0.0000 -0.0000 -1.0000
vn 1.0000 -0.0000 -0.0000
vn -0.0000 -0.0000 1.0000
vn -0.0000 1.0000 -0.0000
vn -0.7626 0.6469 -0.0000
vn -0.0000 -1.0000 -0.0000
vt 0.500515 0.000000
vt 0.625000 0.000000
vt 0.500515 0.124485
vt 0.625000 0.250000
vt 0.500515 0.289291
vt 0.500515 0.250000
vt 0.500515 0.624485
vt 0.500515 0.500000
vt 0.625000 0.500000
vt 0.625000 0.750000
vt 0.500515 0.775661
vt 0.500515 0.750000
vt 0.875000 0.500000
vt 0.500515 0.374485
vt 0.625000 1.000000
vt 0.500515 0.874485
vt 0.875000 0.750000
vt 0.500000 0.250000
vt 0.500000 0.000000
vt 0.500000 0.500000
vt 0.500000 0.750000
vt 0.500000 1.000000
vt 0.375000 0.500000
vt 0.125000 0.750000
vt 0.125000 0.500000
vt 0.644396 0.543725
vt 0.644396 0.625447
vt 0.375000 1.000000
vt 0.375000 0.750000
vt 0.375000 0.250000
vt 0.375000 0.000000
vt 0.866123 0.707845
vt 0.866123 0.626123
vt 0.500515 1.000000
vt 0.644396 0.707845
vt 0.667155 0.707845
vt 0.831275 0.543725
vt 0.755716 0.543725
vt 0.866123 0.543725
vt 0.754802 0.707845
s 0
f 17/1/1 2/2/1 18/3/1
f 5/4/2 20/5/2 21/6/2
f 22/7/3 23/8/3 11/9/3
f 8/10/4 25/11/4 26/12/4
f 5/13/5 8/10/5 11/9/5
f 18/3/1 5/4/1 21/6/1
f 11/9/2 19/14/2 5/4/2
f 8/10/3 22/7/3 11/9/3
f 2/15/4 24/16/4 8/10/4
f 5/13/5 2/17/5 8/10/5
f 3/2/6 14/18/6 13/19/6
f 6/4/2 15/20/2 14/18/2
f 12/9/3 16/21/3 15/20/3
f 16/21/4 3/15/4 13/22/4
f 10/23/7 1/24/7 4/25/7
f 12/9/5 23/26/5 22/27/5
f 16/21/4 1/28/4 7/29/4
f 15/20/3 7/29/3 10/23/3
f 14/18/2 10/23/2 4/30/2
f 13/19/1 4/30/1 1/31/1
f 3/2/6 6/4/6 14/18/6
f 6/4/2 12/9/2 15/20/2
f 12/9/3 9/10/3 16/21/3
f 16/21/4 9/10/4 3/15/4
f 10/23/7 7/29/7 1/24/7
f 3/17/5 17/32/5 18/33/5
f 16/21/4 13/22/4 1/28/4
f 15/20/3 16/21/3 7/29/3
f 14/18/2 15/20/2 10/23/2
f 13/19/1 14/18/1 4/30/1
f 5/4/2 19/14/2 20/5/2
f 8/10/4 24/16/4 25/11/4
f 18/3/1 2/2/1 5/4/1
f 11/9/2 23/8/2 19/14/2
f 8/10/3 26/12/3 22/7/3
f 2/15/4 17/34/4 24/16/4
f 26/35/5 25/36/5 9/10/5
f 12/9/5 6/13/5 20/37/5
f 12/9/5 20/37/5 19/38/5
f 26/35/5 9/10/5 12/9/5
f 22/27/5 26/35/5 12/9/5
f 12/9/5 19/38/5 23/26/5
f 21/39/5 20/37/5 6/13/5
f 3/17/5 9/10/5 25/36/5
f 3/17/5 25/36/5 24/40/5
f 21/39/5 6/13/5 3/17/5
f 18/33/5 21/39/5 3/17/5
f 3/17/5 24/40/5 17/32/5
