# Blender 4.1.1
# www.blender.org
mtllib float_Body.mtl
o Player.003
v -0.728771 0.505916 0.728771
v -0.728771 0.505916 -0.728771
v -1.000000 3.494084 1.000000
v 0.728771 0.505916 0.728771
v 0.728771 0.505916 -0.728771
v 1.000000 3.494084 1.000000
v 1.000000 3.494084 -1.000000
v -1.000000 3.494084 -1.000000
vn -0.9959 -0.0904 -0.0000
vn -0.0000 -1.0000 -0.0000
vn -0.0000 -0.0904 0.9959
vn 0.9959 -0.0904 -0.0000
vn -0.0000 1.0000 -0.0000
vn -0.0000 -0.0904 -0.9959
vt 0.552184 0.191231
vt 0.766864 0.239892
vt 0.721860 0.378922
vt 0.519386 0.292552
vt 0.385719 0.319911
vt 0.468951 0.386349
vt 0.402513 0.469582
vt 0.319281 0.403144
vt 0.561490 0.621838
vt 0.451322 0.717848
vt 0.322226 0.539551
vt 0.652654 0.507628
vt 0.766864 0.598793
vt 0.675699 0.713002
s 0
usemtl Material
f 1/1/1 3/2/1 8/3/1 2/4/1
f 2/5/2 5/6/2 4/7/2 1/8/2
f 4/7/3 6/9/3 3/10/3 1/11/3
f 5/6/4 7/12/4 6/9/4 4/7/4
f 7/12/5 8/13/5 3/14/5 6/9/5
f 2/4/6 8/3/6 7/12/6 5/6/6
