# Blender 4.1.1
# www.blender.org
mtllib bullet.mtl
o Cylinder
v 1.299383 -0.000000 -0.465994
v 0.051799 -0.000000 -0.465994
v 1.299383 0.090911 -0.457040
v 0.051799 0.090911 -0.457040
v 1.299383 0.178328 -0.430523
v 0.051799 0.178328 -0.430523
v 1.299383 0.258892 -0.387460
v 0.051799 0.258893 -0.387460
v 1.299383 0.329508 -0.329508
v 0.051799 0.329508 -0.329508
v 1.299384 0.387460 -0.258893
v 0.051799 0.387460 -0.258893
v 1.299384 0.430522 -0.178328
v 0.051799 0.430523 -0.178328
v 1.299384 0.457040 -0.090911
v 0.051799 0.457040 -0.090911
v 1.299384 0.465994 -0.000000
v 0.051799 0.465994 -0.000000
v 1.299384 0.457040 0.090911
v 0.051799 0.457040 0.090911
v 1.299384 0.430522 0.178328
v 0.051799 0.430523 0.178328
v 1.299384 0.387460 0.258893
v 0.051799 0.387460 0.258893
v 1.299383 0.329508 0.329508
v 0.051799 0.329508 0.329508
v 1.299383 0.258892 0.387460
v 0.051799 0.258893 0.387460
v 1.299383 0.178328 0.430523
v 0.051799 0.178328 0.430523
v 1.299383 0.090911 0.457040
v 0.051799 0.090911 0.457040
v 1.299383 -0.000000 0.465994
v 0.051799 -0.000000 0.465994
v 1.299383 -0.090911 0.457040
v 0.051799 -0.090911 0.457040
v 1.299383 -0.178328 0.430523
v 0.051799 -0.178328 0.430523
v 1.299383 -0.258893 0.387460
v 0.051799 -0.258892 0.387460
v 1.299383 -0.329508 0.329508
v 0.051799 -0.329508 0.329508
v 1.299383 -0.387460 0.258893
v 0.051799 -0.387460 0.258893
v 1.299383 -0.430523 0.178328
v 0.051799 -0.430522 0.178328
v 1.299383 -0.457040 0.090911
v 0.051799 -0.457040 0.090911
v 1.299383 -0.465994 -0.000000
v 0.051799 -0.465994 -0.000000
v 1.299383 -0.457040 -0.090911
v 0.051799 -0.457040 -0.090911
v 1.299383 -0.430523 -0.178328
v 0.051799 -0.430522 -0.178328
v 1.299383 -0.387460 -0.258893
v 0.051799 -0.387460 -0.258893
v 1.299383 -0.329508 -0.329508
v 0.051799 -0.329508 -0.329508
v 1.299383 -0.258893 -0.387460
v 0.051799 -0.258892 -0.387460
v 1.299383 -0.178328 -0.430523
v 0.051799 -0.178328 -0.430523
v 1.299383 -0.090911 -0.457040
v 0.051799 -0.090911 -0.457040
vn -0.6751 -0.1436 -0.7236
vn 0.5740 0.1597 -0.8031
vn 0.5684 -0.0000 -0.8227
vn -0.5689 0.1752 -0.8035
vn 0.5685 0.3149 -0.7601
vn -0.5698 0.3283 -0.7534
vn 0.5746 0.4546 -0.6805
vn -0.5689 0.4694 -0.6753
vn 0.5639 0.5839 -0.5840
vn -0.5640 0.6866 -0.4588
vn 0.5794 0.6777 -0.4528
vn 0.5684 0.7601 -0.3149
vn -0.5752 0.7611 -0.2998
vn 0.5719 0.8046 -0.1600
vn -0.5689 0.8094 -0.1456
vn 0.5684 0.8227 -0.0000
vn -0.5746 0.8183 0.0144
vn 0.5701 0.8058 0.1602
vn -0.5695 0.7594 0.3146
vn 0.5756 0.7555 0.3130
vn 0.5746 0.6805 0.4546
vn -0.5689 0.6753 0.4694
vn 0.5683 0.5818 0.5818
vn -0.5745 0.5685 0.5889
vn 0.5740 0.4549 0.6809
vn -0.5689 0.4443 0.6921
vn 0.5685 0.3149 0.7601
vn -0.5752 0.2998 0.7611
vn 0.5692 0.1604 0.8064
vn -0.5689 0.1456 0.8094
vn 0.5684 -0.0000 0.8227
vn -0.5746 -0.0144 0.8183
vn 0.5740 -0.1597 0.8031
vn -0.5689 -0.1752 0.8035
vn 0.5685 -0.3149 0.7601
vn -0.5698 -0.3283 0.7534
vn 0.5746 -0.4546 0.6805
vn -0.5689 -0.4694 0.6753
vn 0.5684 -0.5818 0.5818
vn -0.5745 -0.5889 0.5685
vn 0.5740 -0.6809 0.4549
vn -0.5689 -0.6921 0.4443
vn 0.5640 -0.7629 0.3161
vn -0.5640 -0.8099 0.1611
vn 0.5745 -0.8028 0.1596
vn 0.5684 -0.8227 -0.0000
vn -0.5746 -0.8183 -0.0144
vn 0.5740 -0.8031 -0.1597
vn -0.5690 -0.8035 -0.1752
vn 0.5684 -0.7601 -0.3149
vn -0.5723 -0.7519 -0.3273
vn 0.5746 -0.6805 -0.4546
vn -0.5689 -0.6753 -0.4694
vn 0.5684 -0.5818 -0.5818
vn -0.5745 -0.5685 -0.5889
vn 0.5740 -0.4549 -0.6809
vn -0.5689 -0.4443 -0.6921
vn 0.5685 -0.3149 -0.7601
vn -0.5752 -0.2998 -0.7611
vn 0.5692 -0.1604 -0.8064
vn -0.6962 0.0086 -0.7178
vn -0.5794 0.5763 -0.5763
vn -0.5755 0.8021 0.1595
vn -0.5787 -0.7535 0.3121
vt 1.000000 1.000000
vt 0.968750 0.500000
vt 1.000000 0.500000
vt 0.968750 1.000000
vt 0.937500 0.500000
vt 0.937500 1.000000
vt 0.906250 0.500000
vt 0.906250 1.000000
vt 0.875000 0.500000
vt 0.843750 1.000000
vt 0.843750 0.500000
vt 0.812500 0.500000
vt 0.812500 1.000000
vt 0.781250 0.500000
vt 0.781250 1.000000
vt 0.750000 0.500000
vt 0.750000 1.000000
vt 0.718750 0.500000
vt 0.687500 1.000000
vt 0.687500 0.500000
vt 0.656250 0.500000
vt 0.656250 1.000000
vt 0.625000 0.500000
vt 0.625000 1.000000
vt 0.593750 0.500000
vt 0.593750 1.000000
vt 0.562500 0.500000
vt 0.562500 1.000000
vt 0.531250 0.500000
vt 0.531250 1.000000
vt 0.500000 0.500000
vt 0.500000 1.000000
vt 0.468750 0.500000
vt 0.468750 1.000000
vt 0.437500 0.500000
vt 0.437500 1.000000
vt 0.406250 0.500000
vt 0.406250 1.000000
vt 0.375000 0.500000
vt 0.375000 1.000000
vt 0.343750 0.500000
vt 0.343750 1.000000
vt 0.312500 0.500000
vt 0.281250 1.000000
vt 0.281250 0.500000
vt 0.250000 0.500000
vt 0.250000 1.000000
vt 0.218750 0.500000
vt 0.218750 1.000000
vt 0.187500 0.500000
vt 0.187500 1.000000
vt 0.156250 0.500000
vt 0.156250 1.000000
vt 0.125000 0.500000
vt 0.125000 1.000000
vt 0.093750 0.500000
vt 0.093750 1.000000
vt 0.062500 0.500000
vt 0.158156 0.028269
vt 0.471731 0.158156
vt 0.341844 0.471731
vt 0.062500 1.000000
vt 0.031250 0.500000
vt 0.031250 1.000000
vt 0.000000 0.500000
vt 0.796822 0.014612
vt 0.514612 0.203178
vt 0.703178 0.485388
vt 0.875000 1.000000
vt 0.718750 1.000000
vt 0.312500 1.000000
vt 0.296822 0.485388
vt 0.250000 0.490000
vt 0.203178 0.485388
vt 0.158156 0.471731
vt 0.116663 0.449553
vt 0.080294 0.419706
vt 0.050447 0.383337
vt 0.028269 0.341844
vt 0.014612 0.296822
vt 0.010000 0.250000
vt 0.014612 0.203178
vt 0.028269 0.158156
vt 0.050447 0.116663
vt 0.080294 0.080294
vt 0.116663 0.050447
vt 0.203178 0.014612
vt 0.250000 0.010000
vt 0.296822 0.014612
vt 0.341844 0.028269
vt 0.383337 0.050447
vt 0.419706 0.080294
vt 0.449553 0.116663
vt 0.485388 0.203178
vt 0.490000 0.250000
vt 0.485388 0.296822
vt 0.471731 0.341844
vt 0.449553 0.383337
vt 0.419706 0.419706
vt 0.383337 0.449553
vt 0.000000 1.000000
vt 0.750000 0.490000
vt 0.796822 0.485388
vt 0.841844 0.471731
vt 0.883337 0.449553
vt 0.919706 0.419706
vt 0.949553 0.383337
vt 0.971731 0.341844
vt 0.985388 0.296822
vt 0.990000 0.250000
vt 0.985388 0.203178
vt 0.971731 0.158156
vt 0.949553 0.116663
vt 0.919706 0.080294
vt 0.883337 0.050447
vt 0.841844 0.028269
vt 0.750000 0.010000
vt 0.703178 0.014612
vt 0.658156 0.028269
vt 0.616663 0.050447
vt 0.580294 0.080294
vt 0.550447 0.116663
vt 0.528269 0.158156
vt 0.510000 0.250000
vt 0.514612 0.296822
vt 0.528269 0.341844
vt 0.550447 0.383337
vt 0.580294 0.419706
vt 0.616663 0.449553
vt 0.658156 0.471731
s 1
usemtl Material.001
f 2/1/1 3/2/2 1/3/3
f 4/4/4 5/5/5 3/2/2
f 6/6/6 7/7/7 5/5/5
f 8/8/8 9/9/9 7/7/7
f 9/9/9 12/10/10 11/11/11
f 12/10/10 13/12/12 11/11/11
f 14/13/13 15/14/14 13/12/12
f 16/15/15 17/16/16 15/14/14
f 18/17/17 19/18/18 17/16/16
f 19/18/18 22/19/19 21/20/20
f 22/19/19 23/21/21 21/20/20
f 24/22/22 25/23/23 23/21/21
f 26/24/24 27/25/25 25/23/23
f 28/26/26 29/27/27 27/25/25
f 30/28/28 31/29/29 29/27/27
f 32/30/30 33/31/31 31/29/29
f 34/32/32 35/33/33 33/31/31
f 36/34/34 37/35/35 35/33/33
f 38/36/36 39/37/37 37/35/35
f 40/38/38 41/39/39 39/37/37
f 42/40/40 43/41/41 41/39/39
f 44/42/42 45/43/43 43/41/41
f 45/43/43 48/44/44 47/45/45
f 48/44/44 49/46/46 47/45/45
f 50/47/47 51/48/48 49/46/46
f 52/49/49 53/50/50 51/48/48
f 54/51/51 55/52/52 53/50/50
f 56/53/53 57/54/54 55/52/52
f 58/55/55 59/56/56 57/54/54
f 60/57/57 61/58/58 59/56/56
f 38/59/36 22/60/19 6/61/6
f 62/62/59 63/63/60 61/58/58
f 64/64/61 1/65/3 63/63/60
f 31/66/29 47/67/45 63/68/60
f 2/1/1 4/4/4 3/2/2
f 4/4/4 6/6/6 5/5/5
f 6/6/6 8/8/8 7/7/7
f 8/8/8 10/69/62 9/9/9
f 9/9/9 10/69/62 12/10/10
f 12/10/10 14/13/13 13/12/12
f 14/13/13 16/15/15 15/14/14
f 16/15/15 18/17/17 17/16/16
f 18/17/17 20/70/63 19/18/18
f 19/18/18 20/70/63 22/19/19
f 22/19/19 24/22/22 23/21/21
f 24/22/22 26/24/24 25/23/23
f 26/24/24 28/26/26 27/25/25
f 28/26/26 30/28/28 29/27/27
f 30/28/28 32/30/30 31/29/29
f 32/30/30 34/32/32 33/31/31
f 34/32/32 36/34/34 35/33/33
f 36/34/34 38/36/36 37/35/35
f 38/36/36 40/38/38 39/37/37
f 40/38/38 42/40/40 41/39/39
f 42/40/40 44/42/42 43/41/41
f 44/42/42 46/71/64 45/43/43
f 45/43/43 46/71/64 48/44/44
f 48/44/44 50/47/47 49/46/46
f 50/47/47 52/49/49 51/48/48
f 52/49/49 54/51/51 53/50/50
f 54/51/51 56/53/53 55/52/52
f 56/53/53 58/55/55 57/54/54
f 58/55/55 60/57/57 59/56/56
f 60/57/57 62/62/59 61/58/58
f 6/61/6 4/72/4 2/73/1
f 2/73/1 64/74/61 62/75/59
f 62/75/59 60/76/57 58/77/55
f 58/77/55 56/78/53 54/79/51
f 54/79/51 52/80/49 50/81/47
f 50/81/47 48/82/44 46/83/64
f 46/83/64 44/84/42 42/85/40
f 42/85/40 40/86/38 38/59/36
f 38/59/36 36/87/34 34/88/32
f 34/88/32 32/89/30 30/90/28
f 30/90/28 28/91/26 26/92/24
f 26/92/24 24/93/22 22/60/19
f 22/60/19 20/94/63 18/95/17
f 18/95/17 16/96/15 14/97/13
f 14/97/13 12/98/10 10/99/62
f 10/99/62 8/100/8 6/61/6
f 6/61/6 2/73/1 62/75/59
f 62/75/59 58/77/55 54/79/51
f 54/79/51 50/81/47 46/83/64
f 46/83/64 42/85/40 38/59/36
f 38/59/36 34/88/32 30/90/28
f 30/90/28 26/92/24 22/60/19
f 22/60/19 18/95/17 14/97/13
f 14/97/13 10/99/62 6/61/6
f 6/61/6 62/75/59 54/79/51
f 54/79/51 46/83/64 38/59/36
f 38/59/36 30/90/28 22/60/19
f 22/60/19 14/97/13 6/61/6
f 6/61/6 54/79/51 38/59/36
f 62/62/59 64/64/61 63/63/60
f 64/64/61 2/101/1 1/65/3
f 63/68/60 1/102/3 3/103/2
f 3/103/2 5/104/5 7/105/7
f 7/105/7 9/106/9 11/107/11
f 11/107/11 13/108/12 15/109/14
f 15/109/14 17/110/16 19/111/18
f 19/111/18 21/112/20 23/113/21
f 23/113/21 25/114/23 27/115/25
f 27/115/25 29/116/27 31/66/29
f 31/66/29 33/117/31 35/118/33
f 35/118/33 37/119/35 39/120/37
f 39/120/37 41/121/39 43/122/41
f 43/122/41 45/123/43 47/67/45
f 47/67/45 49/124/46 51/125/48
f 51/125/48 53/126/50 55/127/52
f 55/127/52 57/128/54 59/129/56
f 59/129/56 61/130/58 63/68/60
f 63/68/60 3/103/2 7/105/7
f 7/105/7 11/107/11 15/109/14
f 15/109/14 19/111/18 23/113/21
f 23/113/21 27/115/25 31/66/29
f 31/66/29 35/118/33 39/120/37
f 39/120/37 43/122/41 47/67/45
f 47/67/45 51/125/48 55/127/52
f 55/127/52 59/129/56 63/68/60
f 63/68/60 7/105/7 15/109/14
f 15/109/14 23/113/21 31/66/29
f 31/66/29 39/120/37 47/67/45
f 47/67/45 55/127/52 63/68/60
f 63/68/60 15/109/14 31/66/29
