{
	"asset":{
		"generator":"Khronos glTF Blender I/O v4.1.63",
		"version":"2.0"
	},
	"extensionsUsed":[
		"KHR_materials_specular",
		"KHR_materials_ior"
	],
	"scene":0,
	"scenes":[
		{
			"name":"Scene",
			"nodes":[
				7
			]
		}
	],
	"nodes":[
		{
			"name":"Body"
		},
		{
			"name":"Head3",
			"translation":[
				0,
				0.5035130977630615,
				0
			]
		},
		{
			"children":[
				1
			],
			"name":"Head2",
			"translation":[
				0,
				0.6668147444725037,
				0
			]
		},
		{
			"children":[
				2
			],
			"name":"Head",
			"translation":[
				0,
				0.6103882193565369,
				0
			]
		},
		{
			"mesh":0,
			"name":"Fish_Blob",
			"skin":0
		},
		{
			"mesh":1,
			"name":"Fish_Blob.001",
			"skin":0
		},
		{
			"mesh":2,
			"name":"Fish_Blob.002",
			"skin":0
		},
		{
			"children":[
				4,
				5,
				6,
				0,
				3
			],
			"name":"CharacterArmature",
			"translation":[
				0,
				-0.903036892414093,
				0
			]
		}
	],
	"animations":[
		{
			"channels":[
				{
					"sampler":0,
					"target":{
						"node":0,
						"path":"translation"
					}
				},
				{
					"sampler":1,
					"target":{
						"node":0,
						"path":"rotation"
					}
				},
				{
					"sampler":2,
					"target":{
						"node":0,
						"path":"scale"
					}
				},
				{
					"sampler":3,
					"target":{
						"node":3,
						"path":"translation"
					}
				},
				{
					"sampler":4,
					"target":{
						"node":3,
						"path":"rotation"
					}
				},
				{
					"sampler":5,
					"target":{
						"node":3,
						"path":"scale"
					}
				},
				{
					"sampler":6,
					"target":{
						"node":2,
						"path":"translation"
					}
				},
				{
					"sampler":7,
					"target":{
						"node":2,
						"path":"rotation"
					}
				},
				{
					"sampler":8,
					"target":{
						"node":2,
						"path":"scale"
					}
				},
				{
					"sampler":9,
					"target":{
						"node":1,
						"path":"translation"
					}
				},
				{
					"sampler":10,
					"target":{
						"node":1,
						"path":"rotation"
					}
				},
				{
					"sampler":11,
					"target":{
						"node":1,
						"path":"scale"
					}
				}
			],
			"name":"Bite_Front",
			"samplers":[
				{
					"input":19,
					"interpolation":"STEP",
					"output":20
				},
				{
					"input":19,
					"interpolation":"STEP",
					"output":21
				},
				{
					"input":19,
					"interpolation":"STEP",
					"output":22
				},
				{
					"input":23,
					"interpolation":"LINEAR",
					"output":24
				},
				{
					"input":23,
					"interpolation":"LINEAR",
					"output":25
				},
				{
					"input":19,
					"interpolation":"STEP",
					"output":26
				},
				{
					"input":19,
					"interpolation":"STEP",
					"output":27
				},
				{
					"input":19,
					"interpolation":"STEP",
					"output":28
				},
				{
					"input":19,
					"interpolation":"STEP",
					"output":29
				},
				{
					"input":19,
					"interpolation":"STEP",
					"output":30
				},
				{
					"input":23,
					"interpolation":"LINEAR",
					"output":31
				},
				{
					"input":19,
					"interpolation":"STEP",
					"output":32
				}
			]
		},
		{
			"channels":[
				{
					"sampler":0,
					"target":{
						"node":0,
						"path":"translation"
					}
				},
				{
					"sampler":1,
					"target":{
						"node":0,
						"path":"rotation"
					}
				},
				{
					"sampler":2,
					"target":{
						"node":0,
						"path":"scale"
					}
				},
				{
					"sampler":3,
					"target":{
						"node":3,
						"path":"translation"
					}
				},
				{
					"sampler":4,
					"target":{
						"node":3,
						"path":"rotation"
					}
				},
				{
					"sampler":5,
					"target":{
						"node":3,
						"path":"scale"
					}
				},
				{
					"sampler":6,
					"target":{
						"node":2,
						"path":"translation"
					}
				},
				{
					"sampler":7,
					"target":{
						"node":2,
						"path":"rotation"
					}
				},
				{
					"sampler":8,
					"target":{
						"node":2,
						"path":"scale"
					}
				},
				{
					"sampler":9,
					"target":{
						"node":1,
						"path":"translation"
					}
				},
				{
					"sampler":10,
					"target":{
						"node":1,
						"path":"rotation"
					}
				},
				{
					"sampler":11,
					"target":{
						"node":1,
						"path":"scale"
					}
				}
			],
			"name":"Dance",
			"samplers":[
				{
					"input":33,
					"interpolation":"STEP",
					"output":34
				},
				{
					"input":33,
					"interpolation":"STEP",
					"output":35
				},
				{
					"input":33,
					"interpolation":"STEP",
					"output":36
				},
				{
					"input":37,
					"interpolation":"LINEAR",
					"output":38
				},
				{
					"input":37,
					"interpolation":"LINEAR",
					"output":39
				},
				{
					"input":33,
					"interpolation":"STEP",
					"output":40
				},
				{
					"input":33,
					"interpolation":"STEP",
					"output":41
				},
				{
					"input":37,
					"interpolation":"LINEAR",
					"output":42
				},
				{
					"input":33,
					"interpolation":"STEP",
					"output":43
				},
				{
					"input":33,
					"interpolation":"STEP",
					"output":44
				},
				{
					"input":33,
					"interpolation":"STEP",
					"output":45
				},
				{
					"input":33,
					"interpolation":"STEP",
					"output":46
				}
			]
		},
		{
			"channels":[
				{
					"sampler":0,
					"target":{
						"node":0,
						"path":"translation"
					}
				},
				{
					"sampler":1,
					"target":{
						"node":0,
						"path":"rotation"
					}
				},
				{
					"sampler":2,
					"target":{
						"node":0,
						"path":"scale"
					}
				},
				{
					"sampler":3,
					"target":{
						"node":3,
						"path":"translation"
					}
				},
				{
					"sampler":4,
					"target":{
						"node":3,
						"path":"rotation"
					}
				},
				{
					"sampler":5,
					"target":{
						"node":3,
						"path":"scale"
					}
				},
				{
					"sampler":6,
					"target":{
						"node":2,
						"path":"translation"
					}
				},
				{
					"sampler":7,
					"target":{
						"node":2,
						"path":"rotation"
					}
				},
				{
					"sampler":8,
					"target":{
						"node":2,
						"path":"scale"
					}
				},
				{
					"sampler":9,
					"target":{
						"node":1,
						"path":"translation"
					}
				},
				{
					"sampler":10,
					"target":{
						"node":1,
						"path":"rotation"
					}
				},
				{
					"sampler":11,
					"target":{
						"node":1,
						"path":"scale"
					}
				}
			],
			"name":"Death",
			"samplers":[
				{
					"input":47,
					"interpolation":"LINEAR",
					"output":48
				},
				{
					"input":47,
					"interpolation":"LINEAR",
					"output":49
				},
				{
					"input":50,
					"interpolation":"STEP",
					"output":51
				},
				{
					"input":47,
					"interpolation":"LINEAR",
					"output":52
				},
				{
					"input":47,
					"interpolation":"LINEAR",
					"output":53
				},
				{
					"input":50,
					"interpolation":"STEP",
					"output":54
				},
				{
					"input":50,
					"interpolation":"LINEAR",
					"output":55
				},
				{
					"input":50,
					"interpolation":"LINEAR",
					"output":56
				},
				{
					"input":50,
					"interpolation":"STEP",
					"output":57
				},
				{
					"input":50,
					"interpolation":"LINEAR",
					"output":58
				},
				{
					"input":50,
					"interpolation":"LINEAR",
					"output":59
				},
				{
					"input":50,
					"interpolation":"STEP",
					"output":60
				}
			]
		},
		{
			"channels":[
				{
					"sampler":0,
					"target":{
						"node":0,
						"path":"translation"
					}
				},
				{
					"sampler":1,
					"target":{
						"node":0,
						"path":"rotation"
					}
				},
				{
					"sampler":2,
					"target":{
						"node":0,
						"path":"scale"
					}
				},
				{
					"sampler":3,
					"target":{
						"node":3,
						"path":"translation"
					}
				},
				{
					"sampler":4,
					"target":{
						"node":3,
						"path":"rotation"
					}
				},
				{
					"sampler":5,
					"target":{
						"node":3,
						"path":"scale"
					}
				},
				{
					"sampler":6,
					"target":{
						"node":2,
						"path":"translation"
					}
				},
				{
					"sampler":7,
					"target":{
						"node":2,
						"path":"rotation"
					}
				},
				{
					"sampler":8,
					"target":{
						"node":2,
						"path":"scale"
					}
				},
				{
					"sampler":9,
					"target":{
						"node":1,
						"path":"translation"
					}
				},
				{
					"sampler":10,
					"target":{
						"node":1,
						"path":"rotation"
					}
				},
				{
					"sampler":11,
					"target":{
						"node":1,
						"path":"scale"
					}
				}
			],
			"name":"HitRecieve",
			"samplers":[
				{
					"input":61,
					"interpolation":"LINEAR",
					"output":62
				},
				{
					"input":61,
					"interpolation":"LINEAR",
					"output":63
				},
				{
					"input":64,
					"interpolation":"STEP",
					"output":65
				},
				{
					"input":61,
					"interpolation":"LINEAR",
					"output":66
				},
				{
					"input":61,
					"interpolation":"LINEAR",
					"output":67
				},
				{
					"input":64,
					"interpolation":"STEP",
					"output":68
				},
				{
					"input":64,
					"interpolation":"STEP",
					"output":69
				},
				{
					"input":64,
					"interpolation":"STEP",
					"output":70
				},
				{
					"input":64,
					"interpolation":"STEP",
					"output":71
				},
				{
					"input":64,
					"interpolation":"STEP",
					"output":72
				},
				{
					"input":61,
					"interpolation":"LINEAR",
					"output":73
				},
				{
					"input":64,
					"interpolation":"STEP",
					"output":74
				}
			]
		},
		{
			"channels":[
				{
					"sampler":0,
					"target":{
						"node":0,
						"path":"translation"
					}
				},
				{
					"sampler":1,
					"target":{
						"node":0,
						"path":"rotation"
					}
				},
				{
					"sampler":2,
					"target":{
						"node":0,
						"path":"scale"
					}
				},
				{
					"sampler":3,
					"target":{
						"node":3,
						"path":"translation"
					}
				},
				{
					"sampler":4,
					"target":{
						"node":3,
						"path":"rotation"
					}
				},
				{
					"sampler":5,
					"target":{
						"node":3,
						"path":"scale"
					}
				},
				{
					"sampler":6,
					"target":{
						"node":2,
						"path":"translation"
					}
				},
				{
					"sampler":7,
					"target":{
						"node":2,
						"path":"rotation"
					}
				},
				{
					"sampler":8,
					"target":{
						"node":2,
						"path":"scale"
					}
				},
				{
					"sampler":9,
					"target":{
						"node":1,
						"path":"translation"
					}
				},
				{
					"sampler":10,
					"target":{
						"node":1,
						"path":"rotation"
					}
				},
				{
					"sampler":11,
					"target":{
						"node":1,
						"path":"scale"
					}
				}
			],
			"name":"Idle",
			"samplers":[
				{
					"input":75,
					"interpolation":"STEP",
					"output":76
				},
				{
					"input":75,
					"interpolation":"STEP",
					"output":77
				},
				{
					"input":75,
					"interpolation":"STEP",
					"output":78
				},
				{
					"input":79,
					"interpolation":"LINEAR",
					"output":80
				},
				{
					"input":75,
					"interpolation":"STEP",
					"output":81
				},
				{
					"input":75,
					"interpolation":"STEP",
					"output":82
				},
				{
					"input":75,
					"interpolation":"STEP",
					"output":83
				},
				{
					"input":75,
					"interpolation":"STEP",
					"output":84
				},
				{
					"input":75,
					"interpolation":"STEP",
					"output":85
				},
				{
					"input":75,
					"interpolation":"STEP",
					"output":86
				},
				{
					"input":79,
					"interpolation":"LINEAR",
					"output":87
				},
				{
					"input":75,
					"interpolation":"STEP",
					"output":88
				}
			]
		},
		{
			"channels":[
				{
					"sampler":0,
					"target":{
						"node":0,
						"path":"translation"
					}
				},
				{
					"sampler":1,
					"target":{
						"node":0,
						"path":"rotation"
					}
				},
				{
					"sampler":2,
					"target":{
						"node":0,
						"path":"scale"
					}
				},
				{
					"sampler":3,
					"target":{
						"node":3,
						"path":"translation"
					}
				},
				{
					"sampler":4,
					"target":{
						"node":3,
						"path":"rotation"
					}
				},
				{
					"sampler":5,
					"target":{
						"node":3,
						"path":"scale"
					}
				},
				{
					"sampler":6,
					"target":{
						"node":2,
						"path":"translation"
					}
				},
				{
					"sampler":7,
					"target":{
						"node":2,
						"path":"rotation"
					}
				},
				{
					"sampler":8,
					"target":{
						"node":2,
						"path":"scale"
					}
				},
				{
					"sampler":9,
					"target":{
						"node":1,
						"path":"translation"
					}
				},
				{
					"sampler":10,
					"target":{
						"node":1,
						"path":"rotation"
					}
				},
				{
					"sampler":11,
					"target":{
						"node":1,
						"path":"scale"
					}
				}
			],
			"name":"Jump",
			"samplers":[
				{
					"input":89,
					"interpolation":"LINEAR",
					"output":90
				},
				{
					"input":91,
					"interpolation":"STEP",
					"output":92
				},
				{
					"input":91,
					"interpolation":"STEP",
					"output":93
				},
				{
					"input":89,
					"interpolation":"LINEAR",
					"output":94
				},
				{
					"input":89,
					"interpolation":"LINEAR",
					"output":95
				},
				{
					"input":91,
					"interpolation":"STEP",
					"output":96
				},
				{
					"input":91,
					"interpolation":"STEP",
					"output":97
				},
				{
					"input":91,
					"interpolation":"STEP",
					"output":98
				},
				{
					"input":91,
					"interpolation":"STEP",
					"output":99
				},
				{
					"input":91,
					"interpolation":"STEP",
					"output":100
				},
				{
					"input":89,
					"interpolation":"LINEAR",
					"output":101
				},
				{
					"input":91,
					"interpolation":"STEP",
					"output":102
				}
			]
		},
		{
			"channels":[
				{
					"sampler":0,
					"target":{
						"node":0,
						"path":"translation"
					}
				},
				{
					"sampler":1,
					"target":{
						"node":0,
						"path":"rotation"
					}
				},
				{
					"sampler":2,
					"target":{
						"node":0,
						"path":"scale"
					}
				},
				{
					"sampler":3,
					"target":{
						"node":3,
						"path":"translation"
					}
				},
				{
					"sampler":4,
					"target":{
						"node":3,
						"path":"rotation"
					}
				},
				{
					"sampler":5,
					"target":{
						"node":3,
						"path":"scale"
					}
				},
				{
					"sampler":6,
					"target":{
						"node":2,
						"path":"translation"
					}
				},
				{
					"sampler":7,
					"target":{
						"node":2,
						"path":"rotation"
					}
				},
				{
					"sampler":8,
					"target":{
						"node":2,
						"path":"scale"
					}
				},
				{
					"sampler":9,
					"target":{
						"node":1,
						"path":"translation"
					}
				},
				{
					"sampler":10,
					"target":{
						"node":1,
						"path":"rotation"
					}
				},
				{
					"sampler":11,
					"target":{
						"node":1,
						"path":"scale"
					}
				}
			],
			"name":"No",
			"samplers":[
				{
					"input":103,
					"interpolation":"STEP",
					"output":104
				},
				{
					"input":103,
					"interpolation":"STEP",
					"output":105
				},
				{
					"input":103,
					"interpolation":"STEP",
					"output":106
				},
				{
					"input":103,
					"interpolation":"STEP",
					"output":107
				},
				{
					"input":108,
					"interpolation":"LINEAR",
					"output":109
				},
				{
					"input":103,
					"interpolation":"STEP",
					"output":110
				},
				{
					"input":103,
					"interpolation":"STEP",
					"output":111
				},
				{
					"input":103,
					"interpolation":"STEP",
					"output":112
				},
				{
					"input":103,
					"interpolation":"STEP",
					"output":113
				},
				{
					"input":103,
					"interpolation":"LINEAR",
					"output":114
				},
				{
					"input":108,
					"interpolation":"LINEAR",
					"output":115
				},
				{
					"input":103,
					"interpolation":"STEP",
					"output":116
				}
			]
		},
		{
			"channels":[
				{
					"sampler":0,
					"target":{
						"node":0,
						"path":"translation"
					}
				},
				{
					"sampler":1,
					"target":{
						"node":0,
						"path":"rotation"
					}
				},
				{
					"sampler":2,
					"target":{
						"node":0,
						"path":"scale"
					}
				},
				{
					"sampler":3,
					"target":{
						"node":3,
						"path":"translation"
					}
				},
				{
					"sampler":4,
					"target":{
						"node":3,
						"path":"rotation"
					}
				},
				{
					"sampler":5,
					"target":{
						"node":3,
						"path":"scale"
					}
				},
				{
					"sampler":6,
					"target":{
						"node":2,
						"path":"translation"
					}
				},
				{
					"sampler":7,
					"target":{
						"node":2,
						"path":"rotation"
					}
				},
				{
					"sampler":8,
					"target":{
						"node":2,
						"path":"scale"
					}
				},
				{
					"sampler":9,
					"target":{
						"node":1,
						"path":"translation"
					}
				},
				{
					"sampler":10,
					"target":{
						"node":1,
						"path":"rotation"
					}
				},
				{
					"sampler":11,
					"target":{
						"node":1,
						"path":"scale"
					}
				}
			],
			"name":"Walk",
			"samplers":[
				{
					"input":89,
					"interpolation":"LINEAR",
					"output":117
				},
				{
					"input":89,
					"interpolation":"LINEAR",
					"output":118
				},
				{
					"input":91,
					"interpolation":"STEP",
					"output":119
				},
				{
					"input":89,
					"interpolation":"LINEAR",
					"output":120
				},
				{
					"input":89,
					"interpolation":"LINEAR",
					"output":121
				},
				{
					"input":91,
					"interpolation":"STEP",
					"output":122
				},
				{
					"input":91,
					"interpolation":"STEP",
					"output":123
				},
				{
					"input":91,
					"interpolation":"STEP",
					"output":124
				},
				{
					"input":91,
					"interpolation":"STEP",
					"output":125
				},
				{
					"input":91,
					"interpolation":"STEP",
					"output":126
				},
				{
					"input":89,
					"interpolation":"LINEAR",
					"output":127
				},
				{
					"input":91,
					"interpolation":"STEP",
					"output":128
				}
			]
		},
		{
			"channels":[
				{
					"sampler":0,
					"target":{
						"node":0,
						"path":"translation"
					}
				},
				{
					"sampler":1,
					"target":{
						"node":0,
						"path":"rotation"
					}
				},
				{
					"sampler":2,
					"target":{
						"node":0,
						"path":"scale"
					}
				},
				{
					"sampler":3,
					"target":{
						"node":3,
						"path":"translation"
					}
				},
				{
					"sampler":4,
					"target":{
						"node":3,
						"path":"rotation"
					}
				},
				{
					"sampler":5,
					"target":{
						"node":3,
						"path":"scale"
					}
				},
				{
					"sampler":6,
					"target":{
						"node":2,
						"path":"translation"
					}
				},
				{
					"sampler":7,
					"target":{
						"node":2,
						"path":"rotation"
					}
				},
				{
					"sampler":8,
					"target":{
						"node":2,
						"path":"scale"
					}
				},
				{
					"sampler":9,
					"target":{
						"node":1,
						"path":"translation"
					}
				},
				{
					"sampler":10,
					"target":{
						"node":1,
						"path":"rotation"
					}
				},
				{
					"sampler":11,
					"target":{
						"node":1,
						"path":"scale"
					}
				}
			],
			"name":"Yes",
			"samplers":[
				{
					"input":129,
					"interpolation":"STEP",
					"output":130
				},
				{
					"input":129,
					"interpolation":"STEP",
					"output":131
				},
				{
					"input":129,
					"interpolation":"STEP",
					"output":132
				},
				{
					"input":129,
					"interpolation":"STEP",
					"output":133
				},
				{
					"input":134,
					"interpolation":"LINEAR",
					"output":135
				},
				{
					"input":129,
					"interpolation":"STEP",
					"output":136
				},
				{
					"input":129,
					"interpolation":"LINEAR",
					"output":137
				},
				{
					"input":129,
					"interpolation":"LINEAR",
					"output":138
				},
				{
					"input":129,
					"interpolation":"STEP",
					"output":139
				},
				{
					"input":129,
					"interpolation":"LINEAR",
					"output":140
				},
				{
					"input":134,
					"interpolation":"LINEAR",
					"output":141
				},
				{
					"input":129,
					"interpolation":"STEP",
					"output":142
				}
			]
		}
	],
	"materials":[
		{
			"doubleSided":true,
			"extensions":{
				"KHR_materials_specular":{
					"specularFactor":0
				},
				"KHR_materials_ior":{
					"ior":1.4500000476837158
				}
			},
			"name":"Atlas",
			"pbrMetallicRoughness":{
				"baseColorTexture":{
					"index":0
				},
				"metallicFactor":0
			}
		}
	],
	"meshes":[
		{
			"name":"Sphere.039",
			"primitives":[
				{
					"attributes":{
						"POSITION":0,
						"NORMAL":1,
						"TEXCOORD_0":2,
						"JOINTS_0":3,
						"WEIGHTS_0":4
					},
					"indices":5,
					"material":0
				}
			]
		},
		{
			"name":"Sphere.000",
			"primitives":[
				{
					"attributes":{
						"POSITION":7,
						"NORMAL":8,
						"TEXCOORD_0":9,
						"JOINTS_0":10,
						"WEIGHTS_0":11
					},
					"indices":12,
					"material":0
				}
			]
		},
		{
			"name":"Sphere.001",
			"primitives":[
				{
					"attributes":{
						"POSITION":13,
						"NORMAL":14,
						"TEXCOORD_0":15,
						"JOINTS_0":16,
						"WEIGHTS_0":17
					},
					"indices":18,
					"material":0
				}
			]
		}
	],
	"textures":[
		{
			"sampler":0,
			"source":0
		}
	],
	"images":[
		{
			"mimeType":"image/png",
			"name":"Atlas_Monsters.png.001",
			"uri":"Atlas_Monsters.png"
		}
	],
	"skins":[
		{
			"inverseBindMatrices":6,
			"joints":[
				0,
				3,
				2,
				1
			],
			"name":"CharacterArmature"
		}
	],
	"accessors":[
		{
			"bufferView":0,
			"componentType":5126,
			"count":1355,
			"max":[
				1.3975625038146973,
				1.8450353145599365,
				1.3563077449798584
			],
			"min":[
				-1.3975625038146973,
				-0.8860945105552673,
				-1.4666550159454346
			],
			"type":"VEC3"
		},
		{
			"bufferView":1,
			"componentType":5126,
			"count":1355,
			"type":"VEC3"
		},
		{
			"bufferView":2,
			"componentType":5126,
			"count":1355,
			"type":"VEC2"
		},
		{
			"bufferView":3,
			"componentType":5121,
			"count":1355,
			"type":"VEC4"
		},
		{
			"bufferView":4,
			"componentType":5126,
			"count":1355,
			"type":"VEC4"
		},
		{
			"bufferView":5,
			"componentType":5123,
			"count":6918,
			"type":"SCALAR"
		},
		{
			"bufferView":6,
			"componentType":5126,
			"count":4,
			"type":"MAT4"
		},
		{
			"bufferView":7,
			"componentType":5126,
			"count":412,
			"max":[
				0.6175578236579895,
				0.3227298855781555,
				0.6954053640365601
			],
			"min":[
				-0.6175578236579895,
				-0.10829627513885498,
				0.25696033239364624
			],
			"type":"VEC3"
		},
		{
			"bufferView":8,
			"componentType":5126,
			"count":412,
			"type":"VEC3"
		},
		{
			"bufferView":9,
			"componentType":5126,
			"count":412,
			"type":"VEC2"
		},
		{
			"bufferView":10,
			"componentType":5121,
			"count":412,
			"type":"VEC4"
		},
		{
			"bufferView":11,
			"componentType":5126,
			"count":412,
			"type":"VEC4"
		},
		{
			"bufferView":12,
			"componentType":5123,
			"count":2208,
			"type":"SCALAR"
		},
		{
			"bufferView":13,
			"componentType":5126,
			"count":189,
			"max":[
				0.44458627700805664,
				-0.060633957386016846,
				1.3233654499053955
			],
			"min":[
				-0.44461318850517273,
				-0.6215929985046387,
				0.8914093375205994
			],
			"type":"VEC3"
		},
		{
			"bufferView":14,
			"componentType":5126,
			"count":189,
			"type":"VEC3"
		},
		{
			"bufferView":15,
			"componentType":5126,
			"count":189,
			"type":"VEC2"
		},
		{
			"bufferView":16,
			"componentType":5121,
			"count":189,
			"type":"VEC4"
		},
		{
			"bufferView":17,
			"componentType":5126,
			"count":189,
			"type":"VEC4"
		},
		{
			"bufferView":18,
			"componentType":5123,
			"count":912,
			"type":"SCALAR"
		},
		{
			"bufferView":19,
			"componentType":5126,
			"count":2,
			"max":[
				0.4
			],
			"min":[
				0
			],
			"type":"SCALAR"
		},
		{
			"bufferView":20,
			"componentType":5126,
			"count":2,
			"type":"VEC3"
		},
		{
			"bufferView":21,
			"componentType":5126,
			"count":2,
			"type":"VEC4"
		},
		{
			"bufferView":22,
			"componentType":5126,
			"count":2,
			"type":"VEC3"
		},
		{
			"bufferView":23,
			"componentType":5126,
			"count":13,
			"max":[
				0.4
			],
			"min":[
				0
			],
			"type":"SCALAR"
		},
		{
			"bufferView":24,
			"componentType":5126,
			"count":13,
			"type":"VEC3"
		},
		{
			"bufferView":25,
			"componentType":5126,
			"count":13,
			"type":"VEC4"
		},
		{
			"bufferView":26,
			"componentType":5126,
			"count":2,
			"type":"VEC3"
		},
		{
			"bufferView":27,
			"componentType":5126,
			"count":2,
			"type":"VEC3"
		},
		{
			"bufferView":28,
			"componentType":5126,
			"count":2,
			"type":"VEC4"
		},
		{
			"bufferView":29,
			"componentType":5126,
			"count":2,
			"type":"VEC3"
		},
		{
			"bufferView":30,
			"componentType":5126,
			"count":2,
			"type":"VEC3"
		},
		{
			"bufferView":31,
			"componentType":5126,
			"count":13,
			"type":"VEC4"
		},
		{
			"bufferView":32,
			"componentType":5126,
			"count":2,
			"type":"VEC3"
		},
		{
			"bufferView":33,
			"componentType":5126,
			"count":2,
			"max":[
				0.6666666666666666
			],
			"min":[
				0
			],
			"type":"SCALAR"
		},
		{
			"bufferView":34,
			"componentType":5126,
			"count":2,
			"type":"VEC3"
		},
		{
			"bufferView":35,
			"componentType":5126,
			"count":2,
			"type":"VEC4"
		},
		{
			"bufferView":36,
			"componentType":5126,
			"count":2,
			"type":"VEC3"
		},
		{
			"bufferView":37,
			"componentType":5126,
			"count":21,
			"max":[
				0.6666666666666666
			],
			"min":[
				0
			],
			"type":"SCALAR"
		},
		{
			"bufferView":38,
			"componentType":5126,
			"count":21,
			"type":"VEC3"
		},
		{
			"bufferView":39,
			"componentType":5126,
			"count":21,
			"type":"VEC4"
		},
		{
			"bufferView":40,
			"componentType":5126,
			"count":2,
			"type":"VEC3"
		},
		{
			"bufferView":41,
			"componentType":5126,
			"count":2,
			"type":"VEC3"
		},
		{
			"bufferView":42,
			"componentType":5126,
			"count":21,
			"type":"VEC4"
		},
		{
			"bufferView":43,
			"componentType":5126,
			"count":2,
			"type":"VEC3"
		},
		{
			"bufferView":44,
			"componentType":5126,
			"count":2,
			"type":"VEC3"
		},
		{
			"bufferView":45,
			"componentType":5126,
			"count":2,
			"type":"VEC4"
		},
		{
			"bufferView":46,
			"componentType":5126,
			"count":2,
			"type":"VEC3"
		},
		{
			"bufferView":47,
			"componentType":5126,
			"count":12,
			"max":[
				0.36666666666666664
			],
			"min":[
				0
			],
			"type":"SCALAR"
		},
		{
			"bufferView":48,
			"componentType":5126,
			"count":12,
			"type":"VEC3"
		},
		{
			"bufferView":49,
			"componentType":5126,
			"count":12,
			"type":"VEC4"
		},
		{
			"bufferView":50,
			"componentType":5126,
			"count":2,
			"max":[
				0.36666666666666664
			],
			"min":[
				0
			],
			"type":"SCALAR"
		},
		{
			"bufferView":51,
			"componentType":5126,
			"count":2,
			"type":"VEC3"
		},
		{
			"bufferView":52,
			"componentType":5126,
			"count":12,
			"type":"VEC3"
		},
		{
			"bufferView":53,
			"componentType":5126,
			"count":12,
			"type":"VEC4"
		},
		{
			"bufferView":54,
			"componentType":5126,
			"count":2,
			"type":"VEC3"
		},
		{
			"bufferView":55,
			"componentType":5126,
			"count":2,
			"type":"VEC3"
		},
		{
			"bufferView":56,
			"componentType":5126,
			"count":2,
			"type":"VEC4"
		},
		{
			"bufferView":57,
			"componentType":5126,
			"count":2,
			"type":"VEC3"
		},
		{
			"bufferView":58,
			"componentType":5126,
			"count":2,
			"type":"VEC3"
		},
		{
			"bufferView":59,
			"componentType":5126,
			"count":2,
			"type":"VEC4"
		},
		{
			"bufferView":60,
			"componentType":5126,
			"count":2,
			"type":"VEC3"
		},
		{
			"bufferView":61,
			"componentType":5126,
			"count":10,
			"max":[
				0.3
			],
			"min":[
				0
			],
			"type":"SCALAR"
		},
		{
			"bufferView":62,
			"componentType":5126,
			"count":10,
			"type":"VEC3"
		},
		{
			"bufferView":63,
			"componentType":5126,
			"count":10,
			"type":"VEC4"
		},
		{
			"bufferView":64,
			"componentType":5126,
			"count":2,
			"max":[
				0.3
			],
			"min":[
				0
			],
			"type":"SCALAR"
		},
		{
			"bufferView":65,
			"componentType":5126,
			"count":2,
			"type":"VEC3"
		},
		{
			"bufferView":66,
			"componentType":5126,
			"count":10,
			"type":"VEC3"
		},
		{
			"bufferView":67,
			"componentType":5126,
			"count":10,
			"type":"VEC4"
		},
		{
			"bufferView":68,
			"componentType":5126,
			"count":2,
			"type":"VEC3"
		},
		{
			"bufferView":69,
			"componentType":5126,
			"count":2,
			"type":"VEC3"
		},
		{
			"bufferView":70,
			"componentType":5126,
			"count":2,
			"type":"VEC4"
		},
		{
			"bufferView":71,
			"componentType":5126,
			"count":2,
			"type":"VEC3"
		},
		{
			"bufferView":72,
			"componentType":5126,
			"count":2,
			"type":"VEC3"
		},
		{
			"bufferView":73,
			"componentType":5126,
			"count":10,
			"type":"VEC4"
		},
		{
			"bufferView":74,
			"componentType":5126,
			"count":2,
			"type":"VEC3"
		},
		{
			"bufferView":75,
			"componentType":5126,
			"count":2,
			"max":[
				2
			],
			"min":[
				0
			],
			"type":"SCALAR"
		},
		{
			"bufferView":76,
			"componentType":5126,
			"count":2,
			"type":"VEC3"
		},
		{
			"bufferView":77,
			"componentType":5126,
			"count":2,
			"type":"VEC4"
		},
		{
			"bufferView":78,
			"componentType":5126,
			"count":2,
			"type":"VEC3"
		},
		{
			"bufferView":79,
			"componentType":5126,
			"count":61,
			"max":[
				2
			],
			"min":[
				0
			],
			"type":"SCALAR"
		},
		{
			"bufferView":80,
			"componentType":5126,
			"count":61,
			"type":"VEC3"
		},
		{
			"bufferView":81,
			"componentType":5126,
			"count":2,
			"type":"VEC4"
		},
		{
			"bufferView":82,
			"componentType":5126,
			"count":2,
			"type":"VEC3"
		},
		{
			"bufferView":83,
			"componentType":5126,
			"count":2,
			"type":"VEC3"
		},
		{
			"bufferView":84,
			"componentType":5126,
			"count":2,
			"type":"VEC4"
		},
		{
			"bufferView":85,
			"componentType":5126,
			"count":2,
			"type":"VEC3"
		},
		{
			"bufferView":86,
			"componentType":5126,
			"count":2,
			"type":"VEC3"
		},
		{
			"bufferView":87,
			"componentType":5126,
			"count":61,
			"type":"VEC4"
		},
		{
			"bufferView":88,
			"componentType":5126,
			"count":2,
			"type":"VEC3"
		},
		{
			"bufferView":89,
			"componentType":5126,
			"count":14,
			"max":[
				0.43333333333333335
			],
			"min":[
				0
			],
			"type":"SCALAR"
		},
		{
			"bufferView":90,
			"componentType":5126,
			"count":14,
			"type":"VEC3"
		},
		{
			"bufferView":91,
			"componentType":5126,
			"count":2,
			"max":[
				0.43333333333333335
			],
			"min":[
				0
			],
			"type":"SCALAR"
		},
		{
			"bufferView":92,
			"componentType":5126,
			"count":2,
			"type":"VEC4"
		},
		{
			"bufferView":93,
			"componentType":5126,
			"count":2,
			"type":"VEC3"
		},
		{
			"bufferView":94,
			"componentType":5126,
			"count":14,
			"type":"VEC3"
		},
		{
			"bufferView":95,
			"componentType":5126,
			"count":14,
			"type":"VEC4"
		},
		{
			"bufferView":96,
			"componentType":5126,
			"count":2,
			"type":"VEC3"
		},
		{
			"bufferView":97,
			"componentType":5126,
			"count":2,
			"type":"VEC3"
		},
		{
			"bufferView":98,
			"componentType":5126,
			"count":2,
			"type":"VEC4"
		},
		{
			"bufferView":99,
			"componentType":5126,
			"count":2,
			"type":"VEC3"
		},
		{
			"bufferView":100,
			"componentType":5126,
			"count":2,
			"type":"VEC3"
		},
		{
			"bufferView":101,
			"componentType":5126,
			"count":14,
			"type":"VEC4"
		},
		{
			"bufferView":102,
			"componentType":5126,
			"count":2,
			"type":"VEC3"
		},
		{
			"bufferView":103,
			"componentType":5126,
			"count":2,
			"max":[
				1
			],
			"min":[
				0
			],
			"type":"SCALAR"
		},
		{
			"bufferView":104,
			"componentType":5126,
			"count":2,
			"type":"VEC3"
		},
		{
			"bufferView":105,
			"componentType":5126,
			"count":2,
			"type":"VEC4"
		},
		{
			"bufferView":106,
			"componentType":5126,
			"count":2,
			"type":"VEC3"
		},
		{
			"bufferView":107,
			"componentType":5126,
			"count":2,
			"type":"VEC3"
		},
		{
			"bufferView":108,
			"componentType":5126,
			"count":31,
			"max":[
				1
			],
			"min":[
				0
			],
			"type":"SCALAR"
		},
		{
			"bufferView":109,
			"componentType":5126,
			"count":31,
			"type":"VEC4"
		},
		{
			"bufferView":110,
			"componentType":5126,
			"count":2,
			"type":"VEC3"
		},
		{
			"bufferView":111,
			"componentType":5126,
			"count":2,
			"type":"VEC3"
		},
		{
			"bufferView":112,
			"componentType":5126,
			"count":2,
			"type":"VEC4"
		},
		{
			"bufferView":113,
			"componentType":5126,
			"count":2,
			"type":"VEC3"
		},
		{
			"bufferView":114,
			"componentType":5126,
			"count":2,
			"type":"VEC3"
		},
		{
			"bufferView":115,
			"componentType":5126,
			"count":31,
			"type":"VEC4"
		},
		{
			"bufferView":116,
			"componentType":5126,
			"count":2,
			"type":"VEC3"
		},
		{
			"bufferView":117,
			"componentType":5126,
			"count":14,
			"type":"VEC3"
		},
		{
			"bufferView":118,
			"componentType":5126,
			"count":14,
			"type":"VEC4"
		},
		{
			"bufferView":119,
			"componentType":5126,
			"count":2,
			"type":"VEC3"
		},
		{
			"bufferView":120,
			"componentType":5126,
			"count":14,
			"type":"VEC3"
		},
		{
			"bufferView":121,
			"componentType":5126,
			"count":14,
			"type":"VEC4"
		},
		{
			"bufferView":122,
			"componentType":5126,
			"count":2,
			"type":"VEC3"
		},
		{
			"bufferView":123,
			"componentType":5126,
			"count":2,
			"type":"VEC3"
		},
		{
			"bufferView":124,
			"componentType":5126,
			"count":2,
			"type":"VEC4"
		},
		{
			"bufferView":125,
			"componentType":5126,
			"count":2,
			"type":"VEC3"
		},
		{
			"bufferView":126,
			"componentType":5126,
			"count":2,
			"type":"VEC3"
		},
		{
			"bufferView":127,
			"componentType":5126,
			"count":14,
			"type":"VEC4"
		},
		{
			"bufferView":128,
			"componentType":5126,
			"count":2,
			"type":"VEC3"
		},
		{
			"bufferView":129,
			"componentType":5126,
			"count":2,
			"max":[
				0.9666666666666667
			],
			"min":[
				0
			],
			"type":"SCALAR"
		},
		{
			"bufferView":130,
			"componentType":5126,
			"count":2,
			"type":"VEC3"
		},
		{
			"bufferView":131,
			"componentType":5126,
			"count":2,
			"type":"VEC4"
		},
		{
			"bufferView":132,
			"componentType":5126,
			"count":2,
			"type":"VEC3"
		},
		{
			"bufferView":133,
			"componentType":5126,
			"count":2,
			"type":"VEC3"
		},
		{
			"bufferView":134,
			"componentType":5126,
			"count":30,
			"max":[
				0.9666666666666667
			],
			"min":[
				0
			],
			"type":"SCALAR"
		},
		{
			"bufferView":135,
			"componentType":5126,
			"count":30,
			"type":"VEC4"
		},
		{
			"bufferView":136,
			"componentType":5126,
			"count":2,
			"type":"VEC3"
		},
		{
			"bufferView":137,
			"componentType":5126,
			"count":2,
			"type":"VEC3"
		},
		{
			"bufferView":138,
			"componentType":5126,
			"count":2,
			"type":"VEC4"
		},
		{
			"bufferView":139,
			"componentType":5126,
			"count":2,
			"type":"VEC3"
		},
		{
			"bufferView":140,
			"componentType":5126,
			"count":2,
			"type":"VEC3"
		},
		{
			"bufferView":141,
			"componentType":5126,
			"count":30,
			"type":"VEC4"
		},
		{
			"bufferView":142,
			"componentType":5126,
			"count":2,
			"type":"VEC3"
		}
	],
	"bufferViews":[
		{
			"buffer":0,
			"byteLength":16260,
			"byteOffset":0,
			"target":34962
		},
		{
			"buffer":0,
			"byteLength":16260,
			"byteOffset":16260,
			"target":34962
		},
		{
			"buffer":0,
			"byteLength":10840,
			"byteOffset":32520,
			"target":34962
		},
		{
			"buffer":0,
			"byteLength":5420,
			"byteOffset":43360,
			"target":34962
		},
		{
			"buffer":0,
			"byteLength":21680,
			"byteOffset":48780,
			"target":34962
		},
		{
			"buffer":0,
			"byteLength":13836,
			"byteOffset":70460,
			"target":34963
		},
		{
			"buffer":0,
			"byteLength":256,
			"byteOffset":84296
		},
		{
			"buffer":0,
			"byteLength":4944,
			"byteOffset":84552,
			"target":34962
		},
		{
			"buffer":0,
			"byteLength":4944,
			"byteOffset":89496,
			"target":34962
		},
		{
			"buffer":0,
			"byteLength":3296,
			"byteOffset":94440,
			"target":34962
		},
		{
			"buffer":0,
			"byteLength":1648,
			"byteOffset":97736,
			"target":34962
		},
		{
			"buffer":0,
			"byteLength":6592,
			"byteOffset":99384,
			"target":34962
		},
		{
			"buffer":0,
			"byteLength":4416,
			"byteOffset":105976,
			"target":34963
		},
		{
			"buffer":0,
			"byteLength":2268,
			"byteOffset":110392,
			"target":34962
		},
		{
			"buffer":0,
			"byteLength":2268,
			"byteOffset":112660,
			"target":34962
		},
		{
			"buffer":0,
			"byteLength":1512,
			"byteOffset":114928,
			"target":34962
		},
		{
			"buffer":0,
			"byteLength":756,
			"byteOffset":116440,
			"target":34962
		},
		{
			"buffer":0,
			"byteLength":3024,
			"byteOffset":117196,
			"target":34962
		},
		{
			"buffer":0,
			"byteLength":1824,
			"byteOffset":120220,
			"target":34963
		},
		{
			"buffer":0,
			"byteLength":8,
			"byteOffset":122044
		},
		{
			"buffer":0,
			"byteLength":24,
			"byteOffset":122052
		},
		{
			"buffer":0,
			"byteLength":32,
			"byteOffset":122076
		},
		{
			"buffer":0,
			"byteLength":24,
			"byteOffset":122108
		},
		{
			"buffer":0,
			"byteLength":52,
			"byteOffset":122132
		},
		{
			"buffer":0,
			"byteLength":156,
			"byteOffset":122184
		},
		{
			"buffer":0,
			"byteLength":208,
			"byteOffset":122340
		},
		{
			"buffer":0,
			"byteLength":24,
			"byteOffset":122548
		},
		{
			"buffer":0,
			"byteLength":24,
			"byteOffset":122572
		},
		{
			"buffer":0,
			"byteLength":32,
			"byteOffset":122596
		},
		{
			"buffer":0,
			"byteLength":24,
			"byteOffset":122628
		},
		{
			"buffer":0,
			"byteLength":24,
			"byteOffset":122652
		},
		{
			"buffer":0,
			"byteLength":208,
			"byteOffset":122676
		},
		{
			"buffer":0,
			"byteLength":24,
			"byteOffset":122884
		},
		{
			"buffer":0,
			"byteLength":8,
			"byteOffset":122908
		},
		{
			"buffer":0,
			"byteLength":24,
			"byteOffset":122916
		},
		{
			"buffer":0,
			"byteLength":32,
			"byteOffset":122940
		},
		{
			"buffer":0,
			"byteLength":24,
			"byteOffset":122972
		},
		{
			"buffer":0,
			"byteLength":84,
			"byteOffset":122996
		},
		{
			"buffer":0,
			"byteLength":252,
			"byteOffset":123080
		},
		{
			"buffer":0,
			"byteLength":336,
			"byteOffset":123332
		},
		{
			"buffer":0,
			"byteLength":24,
			"byteOffset":123668
		},
		{
			"buffer":0,
			"byteLength":24,
			"byteOffset":123692
		},
		{
			"buffer":0,
			"byteLength":336,
			"byteOffset":123716
		},
		{
			"buffer":0,
			"byteLength":24,
			"byteOffset":124052
		},
		{
			"buffer":0,
			"byteLength":24,
			"byteOffset":124076
		},
		{
			"buffer":0,
			"byteLength":32,
			"byteOffset":124100
		},
		{
			"buffer":0,
			"byteLength":24,
			"byteOffset":124132
		},
		{
			"buffer":0,
			"byteLength":48,
			"byteOffset":124156
		},
		{
			"buffer":0,
			"byteLength":144,
			"byteOffset":124204
		},
		{
			"buffer":0,
			"byteLength":192,
			"byteOffset":124348
		},
		{
			"buffer":0,
			"byteLength":8,
			"byteOffset":124540
		},
		{
			"buffer":0,
			"byteLength":24,
			"byteOffset":124548
		},
		{
			"buffer":0,
			"byteLength":144,
			"byteOffset":124572
		},
		{
			"buffer":0,
			"byteLength":192,
			"byteOffset":124716
		},
		{
			"buffer":0,
			"byteLength":24,
			"byteOffset":124908
		},
		{
			"buffer":0,
			"byteLength":24,
			"byteOffset":124932
		},
		{
			"buffer":0,
			"byteLength":32,
			"byteOffset":124956
		},
		{
			"buffer":0,
			"byteLength":24,
			"byteOffset":124988
		},
		{
			"buffer":0,
			"byteLength":24,
			"byteOffset":125012
		},
		{
			"buffer":0,
			"byteLength":32,
			"byteOffset":125036
		},
		{
			"buffer":0,
			"byteLength":24,
			"byteOffset":125068
		},
		{
			"buffer":0,
			"byteLength":40,
			"byteOffset":125092
		},
		{
			"buffer":0,
			"byteLength":120,
			"byteOffset":125132
		},
		{
			"buffer":0,
			"byteLength":160,
			"byteOffset":125252
		},
		{
			"buffer":0,
			"byteLength":8,
			"byteOffset":125412
		},
		{
			"buffer":0,
			"byteLength":24,
			"byteOffset":125420
		},
		{
			"buffer":0,
			"byteLength":120,
			"byteOffset":125444
		},
		{
			"buffer":0,
			"byteLength":160,
			"byteOffset":125564
		},
		{
			"buffer":0,
			"byteLength":24,
			"byteOffset":125724
		},
		{
			"buffer":0,
			"byteLength":24,
			"byteOffset":125748
		},
		{
			"buffer":0,
			"byteLength":32,
			"byteOffset":125772
		},
		{
			"buffer":0,
			"byteLength":24,
			"byteOffset":125804
		},
		{
			"buffer":0,
			"byteLength":24,
			"byteOffset":125828
		},
		{
			"buffer":0,
			"byteLength":160,
			"byteOffset":125852
		},
		{
			"buffer":0,
			"byteLength":24,
			"byteOffset":126012
		},
		{
			"buffer":0,
			"byteLength":8,
			"byteOffset":126036
		},
		{
			"buffer":0,
			"byteLength":24,
			"byteOffset":126044
		},
		{
			"buffer":0,
			"byteLength":32,
			"byteOffset":126068
		},
		{
			"buffer":0,
			"byteLength":24,
			"byteOffset":126100
		},
		{
			"buffer":0,
			"byteLength":244,
			"byteOffset":126124
		},
		{
			"buffer":0,
			"byteLength":732,
			"byteOffset":126368
		},
		{
			"buffer":0,
			"byteLength":32,
			"byteOffset":127100
		},
		{
			"buffer":0,
			"byteLength":24,
			"byteOffset":127132
		},
		{
			"buffer":0,
			"byteLength":24,
			"byteOffset":127156
		},
		{
			"buffer":0,
			"byteLength":32,
			"byteOffset":127180
		},
		{
			"buffer":0,
			"byteLength":24,
			"byteOffset":127212
		},
		{
			"buffer":0,
			"byteLength":24,
			"byteOffset":127236
		},
		{
			"buffer":0,
			"byteLength":976,
			"byteOffset":127260
		},
		{
			"buffer":0,
			"byteLength":24,
			"byteOffset":128236
		},
		{
			"buffer":0,
			"byteLength":56,
			"byteOffset":128260
		},
		{
			"buffer":0,
			"byteLength":168,
			"byteOffset":128316
		},
		{
			"buffer":0,
			"byteLength":8,
			"byteOffset":128484
		},
		{
			"buffer":0,
			"byteLength":32,
			"byteOffset":128492
		},
		{
			"buffer":0,
			"byteLength":24,
			"byteOffset":128524
		},
		{
			"buffer":0,
			"byteLength":168,
			"byteOffset":128548
		},
		{
			"buffer":0,
			"byteLength":224,
			"byteOffset":128716
		},
		{
			"buffer":0,
			"byteLength":24,
			"byteOffset":128940
		},
		{
			"buffer":0,
			"byteLength":24,
			"byteOffset":128964
		},
		{
			"buffer":0,
			"byteLength":32,
			"byteOffset":128988
		},
		{
			"buffer":0,
			"byteLength":24,
			"byteOffset":129020
		},
		{
			"buffer":0,
			"byteLength":24,
			"byteOffset":129044
		},
		{
			"buffer":0,
			"byteLength":224,
			"byteOffset":129068
		},
		{
			"buffer":0,
			"byteLength":24,
			"byteOffset":129292
		},
		{
			"buffer":0,
			"byteLength":8,
			"byteOffset":129316
		},
		{
			"buffer":0,
			"byteLength":24,
			"byteOffset":129324
		},
		{
			"buffer":0,
			"byteLength":32,
			"byteOffset":129348
		},
		{
			"buffer":0,
			"byteLength":24,
			"byteOffset":129380
		},
		{
			"buffer":0,
			"byteLength":24,
			"byteOffset":129404
		},
		{
			"buffer":0,
			"byteLength":124,
			"byteOffset":129428
		},
		{
			"buffer":0,
			"byteLength":496,
			"byteOffset":129552
		},
		{
			"buffer":0,
			"byteLength":24,
			"byteOffset":130048
		},
		{
			"buffer":0,
			"byteLength":24,
			"byteOffset":130072
		},
		{
			"buffer":0,
			"byteLength":32,
			"byteOffset":130096
		},
		{
			"buffer":0,
			"byteLength":24,
			"byteOffset":130128
		},
		{
			"buffer":0,
			"byteLength":24,
			"byteOffset":130152
		},
		{
			"buffer":0,
			"byteLength":496,
			"byteOffset":130176
		},
		{
			"buffer":0,
			"byteLength":24,
			"byteOffset":130672
		},
		{
			"buffer":0,
			"byteLength":168,
			"byteOffset":130696
		},
		{
			"buffer":0,
			"byteLength":224,
			"byteOffset":130864
		},
		{
			"buffer":0,
			"byteLength":24,
			"byteOffset":131088
		},
		{
			"buffer":0,
			"byteLength":168,
			"byteOffset":131112
		},
		{
			"buffer":0,
			"byteLength":224,
			"byteOffset":131280
		},
		{
			"buffer":0,
			"byteLength":24,
			"byteOffset":131504
		},
		{
			"buffer":0,
			"byteLength":24,
			"byteOffset":131528
		},
		{
			"buffer":0,
			"byteLength":32,
			"byteOffset":131552
		},
		{
			"buffer":0,
			"byteLength":24,
			"byteOffset":131584
		},
		{
			"buffer":0,
			"byteLength":24,
			"byteOffset":131608
		},
		{
			"buffer":0,
			"byteLength":224,
			"byteOffset":131632
		},
		{
			"buffer":0,
			"byteLength":24,
			"byteOffset":131856
		},
		{
			"buffer":0,
			"byteLength":8,
			"byteOffset":131880
		},
		{
			"buffer":0,
			"byteLength":24,
			"byteOffset":131888
		},
		{
			"buffer":0,
			"byteLength":32,
			"byteOffset":131912
		},
		{
			"buffer":0,
			"byteLength":24,
			"byteOffset":131944
		},
		{
			"buffer":0,
			"byteLength":24,
			"byteOffset":131968
		},
		{
			"buffer":0,
			"byteLength":120,
			"byteOffset":131992
		},
		{
			"buffer":0,
			"byteLength":480,
			"byteOffset":132112
		},
		{
			"buffer":0,
			"byteLength":24,
			"byteOffset":132592
		},
		{
			"buffer":0,
			"byteLength":24,
			"byteOffset":132616
		},
		{
			"buffer":0,
			"byteLength":32,
			"byteOffset":132640
		},
		{
			"buffer":0,
			"byteLength":24,
			"byteOffset":132672
		},
		{
			"buffer":0,
			"byteLength":24,
			"byteOffset":132696
		},
		{
			"buffer":0,
			"byteLength":480,
			"byteOffset":132720
		},
		{
			"buffer":0,
			"byteLength":24,
			"byteOffset":133200
		}
	],
	"samplers":[
		{
			"magFilter":9729,
			"minFilter":9987
		}
	],
	"buffers":[
		{
			"byteLength":133224,
			"uri":"TackleEnemy02.bin"
		}
	]
}
