# Blender 4.1.1
# www.blender.org
mtllib TackleEnemy.mtl
o 円錐
v 0.000000 1.000000 -1.000000
v 0.866025 -0.500000 -1.000000
v -0.866025 -0.500000 -1.000000
v 0.000000 -0.000000 1.000000
v 0.348113 0.200983 -0.492822
v 0.000000 -0.401967 -0.492822
v -0.348113 0.200983 -0.492822
v 0.000000 0.000000 -0.492822
vn 0.8362 0.4828 0.2600
vn -0.0000 -0.4523 -0.8919
vn -0.0000 -0.9656 0.2600
vn -0.8362 0.4828 0.2600
vn 0.3917 0.2262 -0.8919
vn -0.3917 0.2262 -0.8919
vt 0.793970 0.129069
vt 0.441597 0.557248
vt 0.382050 0.005924
vt 0.551413 0.189915
vt 0.849418 0.994049
vt 0.711208 0.785639
vt 0.783690 0.717203
vt 0.879198 0.745756
vt 0.005924 0.214183
vt 0.255880 0.221835
vt 0.994076 0.509596
vt 0.780934 0.378802
vt 0.760663 0.620214
vt 0.990582 0.521858
vt 0.511070 0.635702
s 0
usemtl マテリアル.001
f 1/1/1 4/2/1 2/3/1 5/4/1
f 1/5/2 5/6/2 8/7/2 7/8/2
f 2/3/3 4/2/3 3/9/3 6/10/3
f 3/11/4 4/2/4 1/1/4 7/12/4
f 7/8/5 8/7/5 6/13/5 3/14/5
f 5/6/6 2/15/6 6/13/6 8/7/6
