# Blender 4.1.1
# www.blender.org
mtllib PlayerBullet.mtl
o 円錐
v 0.000000 1.000000 -1.000000
v 1.000000 0.000000 -1.000000
v 0.000000 -1.000000 -1.000000
v -1.000000 0.000000 -1.000000
v 0.000000 -0.000000 1.000000
v -0.380181 0.380181 -0.265280
v 0.380181 0.380181 -0.265280
v 0.380181 -0.380181 -0.265280
v -0.380181 -0.380181 -0.265280
v 0.000000 0.000000 -0.265280
vn 0.7690 0.5107 0.3845
vn 0.5107 -0.7690 0.3845
vn 0.5095 0.5095 -0.6934
vn -0.7690 -0.5107 0.3845
vn -0.5107 0.7690 0.3845
vn 0.5095 -0.5095 -0.6934
vn -0.5095 -0.5095 -0.6934
vn -0.5095 0.5095 -0.6934
vn -0.7690 0.5107 0.3845
vn -0.5107 -0.7690 0.3845
vn 0.7690 -0.5107 0.3845
vn 0.5107 0.7690 0.3845
vt 0.289367 0.289367
vt 0.578634 0.000100
vt 0.470168 0.289367
vt 0.000100 0.000100
vt 0.289367 0.108566
vt 0.210633 0.789367
vt 0.210633 0.927112
vt 0.000100 0.999900
vt 0.000100 0.578634
vt 0.108566 0.289367
vt 0.578634 0.578634
vt 0.289367 0.470168
vt 0.072888 0.789367
vt 0.000100 0.578834
vt 0.421166 0.999900
vt 0.421166 0.578834
vt 0.348378 0.789367
vt 0.210633 0.651622
s 0
usemtl マテリアル.004
f 5/1/1 2/2/1 7/3/1
f 5/1/2 3/4/2 8/5/2
f 10/6/3 8/7/3 3/8/3
f 5/1/4 4/9/4 9/10/4
f 5/1/5 1/11/5 6/12/5
f 10/6/6 9/13/6 4/14/6
f 2/15/7 8/7/7 10/6/7
f 1/16/6 7/17/6 10/6/6
f 6/18/7 1/16/7 10/6/7
f 7/17/8 2/15/8 10/6/8
f 6/18/3 10/6/3 4/14/3
f 9/13/8 10/6/8 3/8/8
f 4/9/9 5/1/9 6/12/9
f 3/4/10 5/1/10 9/10/10
f 2/2/11 5/1/11 8/5/11
f 1/11/12 5/1/12 7/3/12
