# Blender 4.1.1
# www.blender.org
mtllib Missilelauncher.mtl
o MissileLauncher
v 0.015714 2.695460 -0.646783
v 0.117438 2.918247 -0.775055
v 0.033262 2.680652 -0.658586
v 0.134986 2.903439 -0.786857
v -0.026621 2.685641 -0.697410
v 0.075103 2.908428 -0.825682
v -0.009073 2.670833 -0.709212
v 0.092652 2.893620 -0.837484
v 0.246827 2.870700 -0.931387
v 0.246827 2.870700 -0.810077
v -0.153817 2.870700 -0.931387
v 0.246827 2.971709 -0.931387
v 0.246827 3.072717 -0.931387
v -0.153817 2.971709 -0.931387
v 0.246827 2.971709 -0.810077
v 0.246827 2.971709 -0.688767
v 0.246827 3.072717 -0.810077
v 0.246827 2.870700 -0.688767
v -0.153818 2.870700 -0.688767
v -0.153818 2.870700 -0.810077
v -0.153817 2.971709 -0.810077
v -0.153818 2.971709 -0.688767
v -0.153817 3.072717 -0.810077
v -0.153817 3.072717 -0.931387
v -0.153817 3.173726 -0.931387
v 0.246827 3.173726 -0.931387
v 0.246827 3.173726 -0.810077
v 0.246827 3.173726 -0.688767
v -0.153817 3.173726 -0.810077
v 0.246827 3.072717 -0.688767
v -0.153817 3.072717 -0.688767
v -0.153817 3.173726 -0.688767
v -0.081484 2.987868 -0.900888
v -0.081484 2.987868 -0.840782
v -0.081484 3.050877 -0.900888
v -0.211270 2.987868 -0.900888
v -0.211270 2.987868 -0.840782
v -0.211270 3.050877 -0.900888
v -0.211270 3.050877 -0.840782
v -0.081484 3.050877 -0.840782
v -0.081484 3.094171 -0.777232
v -0.081484 3.094171 -0.717125
v -0.081484 3.157180 -0.777232
v -0.211270 3.094171 -0.777232
v -0.211270 3.094171 -0.717125
v -0.211270 3.157180 -0.777232
v -0.211270 3.157180 -0.717125
v -0.081484 3.157180 -0.717125
v -0.081484 3.094171 -0.900888
v -0.081484 3.094171 -0.840782
v -0.081484 3.157180 -0.900888
v -0.211270 3.094171 -0.900888
v -0.211270 3.094171 -0.840782
v -0.211270 3.157180 -0.900888
v -0.211270 3.157180 -0.840782
v -0.081484 3.157180 -0.840782
v -0.081484 2.987868 -0.773152
v -0.081484 2.987868 -0.713046
v -0.081484 3.050877 -0.773152
v -0.211270 2.987868 -0.773152
v -0.211270 2.987868 -0.713046
v -0.211270 3.050877 -0.773152
v -0.211270 3.050877 -0.713046
v -0.081484 3.050877 -0.713046
v -0.081484 2.889963 -0.900888
v -0.081484 2.889963 -0.840782
v -0.081484 2.952972 -0.900888
v -0.211270 2.889963 -0.900888
v -0.211270 2.889963 -0.840782
v -0.211270 2.952972 -0.900888
v -0.211270 2.952972 -0.840782
v -0.081484 2.952972 -0.840782
v -0.081484 2.889963 -0.771937
v -0.081484 2.889963 -0.711830
v -0.081484 2.952972 -0.771937
v -0.211270 2.889963 -0.771937
v -0.211270 2.889963 -0.711830
v -0.211270 2.952972 -0.771937
v -0.211270 2.952972 -0.711830
v -0.081484 2.952972 -0.711830
vn 0.6345 0.1472 0.7588
vn 0.6797 -0.5736 -0.4572
vn -0.6345 -0.1472 -0.7588
vn -0.6797 0.5736 0.4572
vn -0.3679 -0.8058 0.4640
vn 0.3679 0.8058 -0.4640
vn -1.0000 -0.0000 -0.0000
vn -0.0000 1.0000 -0.0000
vn -0.0000 -0.0000 1.0000
vn -0.0000 -0.0000 -1.0000
vn 1.0000 -0.0000 -0.0000
vn -0.0000 -1.0000 -0.0000
vt 0.112409 0.772081
vt 0.089738 0.794751
vt 0.089738 0.772081
vt 0.112409 0.794751
vt 0.089738 0.817421
vt 0.112408 0.817421
vt 0.089738 0.840091
vt 0.112408 0.840091
vt 0.089738 0.862761
vt 0.067068 0.840091
vt 0.067068 0.817421
vt 0.135079 0.817421
vt 0.112408 0.862761
vt 0.135079 0.840091
vt 0.410854 0.115093
vt 0.383821 0.124535
vt 0.392098 0.067068
vt 0.310709 0.144020
vt 0.258466 0.361813
vt 0.265676 0.107373
vt 0.085824 0.242033
vt 0.067068 0.194008
vt 0.429610 0.163118
vt 0.402577 0.172560
vt 0.277222 0.409838
vt 0.104580 0.290058
vt 0.394300 0.230027
vt 0.375544 0.182001
vt 0.421333 0.220585
vt 0.348531 0.435106
vt 0.355742 0.180666
vt 0.303499 0.398460
vt 0.322255 0.446485
vt 0.295978 0.457863
vt 0.367288 0.483131
vt 0.341011 0.494510
vt 0.314734 0.505888
vt 0.123336 0.338083
vt 0.448366 0.211143
vt 0.112101 0.601298
vt 0.067068 0.564651
vt 0.440089 0.268610
vt 0.157134 0.637944
vt 0.359767 0.542535
vt 0.431812 0.326077
vt 0.413056 0.278052
vt 0.386044 0.531156
vt 0.404800 0.579181
vt 0.847078 0.501100
vt 0.867626 0.435408
vt 0.870491 0.517815
vt 0.824785 0.500588
vt 0.840648 0.501073
vt 0.838350 0.529749
vt 0.919367 0.456590
vt 0.932932 0.485751
vt 0.844213 0.418693
vt 0.854061 0.406247
vt 0.830648 0.389532
vt 0.909519 0.365476
vt 0.932932 0.382191
vt 0.827083 0.471912
vt 0.668357 0.095716
vt 0.647808 0.161409
vt 0.644944 0.079001
vt 0.690649 0.096229
vt 0.674786 0.095744
vt 0.677084 0.067068
vt 0.596068 0.140227
vt 0.582503 0.111066
vt 0.671221 0.178124
vt 0.661373 0.190570
vt 0.684786 0.207285
vt 0.605916 0.231340
vt 0.582503 0.214625
vt 0.688351 0.124905
vt 0.847078 0.202692
vt 0.867627 0.136999
vt 0.870491 0.219407
vt 0.824785 0.202179
vt 0.840649 0.202665
vt 0.838350 0.231340
vt 0.919367 0.158182
vt 0.932932 0.187343
vt 0.844213 0.120284
vt 0.854061 0.107839
vt 0.830648 0.091123
vt 0.909519 0.067068
vt 0.932932 0.083783
vt 0.827083 0.173504
vt 0.668357 0.394125
vt 0.647808 0.459817
vt 0.644944 0.377409
vt 0.690649 0.394637
vt 0.674786 0.394152
vt 0.677084 0.365476
vt 0.596068 0.438635
vt 0.582503 0.409474
vt 0.671221 0.476532
vt 0.661373 0.488978
vt 0.684786 0.505693
vt 0.605916 0.529749
vt 0.582503 0.513034
vt 0.688351 0.423313
vt 0.847078 0.799509
vt 0.867627 0.733816
vt 0.870491 0.816224
vt 0.824785 0.798996
vt 0.840649 0.799481
vt 0.838350 0.828157
vt 0.919367 0.754998
vt 0.932932 0.784159
vt 0.844213 0.717101
vt 0.854061 0.704655
vt 0.830648 0.687940
vt 0.909519 0.663885
vt 0.932932 0.680600
vt 0.827083 0.770320
vt 0.668357 0.692533
vt 0.647808 0.758225
vt 0.644943 0.675818
vt 0.690649 0.693046
vt 0.674786 0.692560
vt 0.677084 0.663885
vt 0.596068 0.737043
vt 0.582502 0.707882
vt 0.671221 0.774941
vt 0.661373 0.787386
vt 0.684786 0.804101
vt 0.605915 0.828157
vt 0.582502 0.811442
vt 0.688351 0.721721
s 0
usemtl マテリアル.006
f 2/1/1 1/3/1 3/2/1
f 4/4/2 3/2/2 7/5/2
f 8/6/3 7/5/3 5/7/3
f 6/8/4 5/7/4 1/9/4
f 7/5/5 3/11/5 1/10/5
f 4/12/6 8/6/6 6/8/6
f 2/1/1 3/2/1 4/4/1
f 4/4/2 7/5/2 8/6/2
f 8/6/3 5/7/3 6/8/3
f 6/8/4 1/9/4 2/13/4
f 7/5/5 1/10/5 5/7/5
f 4/12/6 6/8/6 2/14/6
f 12/15/7 9/17/7 10/16/7
f 10/18/8 9/20/8 11/19/8
f 11/19/9 9/22/9 12/21/9
f 13/23/7 12/15/7 15/24/7
f 14/25/9 12/21/9 13/26/9
f 11/19/9 12/21/9 14/25/9
f 12/15/7 10/16/7 15/24/7
f 15/24/7 18/28/7 16/27/7
f 17/29/7 15/24/7 16/27/7
f 13/23/7 15/24/7 17/29/7
f 15/24/7 10/16/7 18/28/7
f 16/27/10 18/28/10 19/30/10
f 18/31/8 20/32/8 19/30/8
f 18/31/8 10/18/8 20/32/8
f 19/30/11 20/32/11 21/33/11
f 10/18/8 11/19/8 20/32/8
f 20/32/11 11/19/11 14/25/11
f 20/32/11 14/25/11 21/33/11
f 21/33/11 14/25/11 24/34/11
f 19/30/11 21/33/11 22/35/11
f 22/35/11 21/33/11 23/36/11
f 21/33/11 24/34/11 23/36/11
f 24/34/9 26/38/9 25/37/9
f 23/36/11 24/34/11 25/37/11
f 14/25/9 13/26/9 24/34/9
f 24/34/9 13/26/9 26/38/9
f 26/39/7 13/23/7 17/29/7
f 27/40/12 25/37/12 26/41/12
f 26/39/7 17/29/7 27/42/7
f 28/43/12 29/44/12 27/40/12
f 27/42/7 30/46/7 28/45/7
f 27/40/12 29/44/12 25/37/12
f 27/42/7 17/29/7 30/46/7
f 28/45/10 30/46/10 31/47/10
f 17/29/7 16/27/7 30/46/7
f 30/46/10 16/27/10 22/35/10
f 30/46/10 22/35/10 31/47/10
f 31/47/11 29/44/11 32/48/11
f 28/45/10 31/47/10 32/48/10
f 22/35/11 23/36/11 31/47/11
f 31/47/11 23/36/11 29/44/11
f 28/43/12 32/48/12 29/44/12
f 23/36/11 25/37/11 29/44/11
f 16/27/10 19/30/10 22/35/10
f 34/49/8 33/51/8 36/50/8
f 35/52/7 33/54/7 34/53/7
f 36/50/9 33/56/9 35/55/9
f 34/49/8 36/50/8 37/57/8
f 37/57/11 36/50/11 38/58/11
f 36/50/9 35/55/9 38/58/9
f 37/57/11 38/58/11 39/59/11
f 40/60/12 39/59/12 38/58/12
f 40/60/12 38/58/12 35/61/12
f 35/52/7 34/53/7 40/62/7
f 40/62/10 34/53/10 37/57/10
f 40/62/10 37/57/10 39/59/10
f 42/63/8 41/65/8 44/64/8
f 43/66/7 41/68/7 42/67/7
f 44/64/9 41/70/9 43/69/9
f 42/63/8 44/64/8 45/71/8
f 45/71/11 44/64/11 46/72/11
f 44/64/9 43/69/9 46/72/9
f 45/71/11 46/72/11 47/73/11
f 48/74/12 47/73/12 46/72/12
f 48/74/12 46/72/12 43/75/12
f 43/66/7 42/67/7 48/76/7
f 48/76/10 42/67/10 45/71/10
f 48/76/10 45/71/10 47/73/10
f 50/77/8 49/79/8 52/78/8
f 51/80/7 49/82/7 50/81/7
f 52/78/9 49/84/9 51/83/9
f 50/77/8 52/78/8 53/85/8
f 53/85/11 52/78/11 54/86/11
f 52/78/9 51/83/9 54/86/9
f 53/85/11 54/86/11 55/87/11
f 56/88/12 55/87/12 54/86/12
f 56/88/12 54/86/12 51/89/12
f 51/80/7 50/81/7 56/90/7
f 56/90/10 50/81/10 53/85/10
f 56/90/10 53/85/10 55/87/10
f 58/91/8 57/93/8 60/92/8
f 59/94/7 57/96/7 58/95/7
f 60/92/9 57/98/9 59/97/9
f 58/91/8 60/92/8 61/99/8
f 61/99/11 60/92/11 62/100/11
f 60/92/9 59/97/9 62/100/9
f 61/99/11 62/100/11 63/101/11
f 64/102/12 63/101/12 62/100/12
f 64/102/12 62/100/12 59/103/12
f 59/94/7 58/95/7 64/104/7
f 64/104/10 58/95/10 61/99/10
f 64/104/10 61/99/10 63/101/10
f 66/105/8 65/107/8 68/106/8
f 67/108/7 65/110/7 66/109/7
f 68/106/9 65/112/9 67/111/9
f 66/105/8 68/106/8 69/113/8
f 69/113/11 68/106/11 70/114/11
f 68/106/9 67/111/9 70/114/9
f 69/113/11 70/114/11 71/115/11
f 72/116/12 71/115/12 70/114/12
f 72/116/12 70/114/12 67/117/12
f 67/108/7 66/109/7 72/118/7
f 72/118/10 66/109/10 69/113/10
f 72/118/10 69/113/10 71/115/10
f 74/119/8 73/121/8 76/120/8
f 75/122/7 73/124/7 74/123/7
f 76/120/9 73/126/9 75/125/9
f 74/119/8 76/120/8 77/127/8
f 77/127/11 76/120/11 78/128/11
f 76/120/9 75/125/9 78/128/9
f 77/127/11 78/128/11 79/129/11
f 80/130/12 79/129/12 78/128/12
f 80/130/12 78/128/12 75/131/12
f 75/122/7 74/123/7 80/132/7
f 80/132/10 74/123/10 77/127/10
f 80/132/10 77/127/10 79/129/10
