{
	"asset":{
		"generator":"Khronos glTF Blender I/O v4.1.63",
		"version":"2.0"
	},
	"extensionsUsed":[
		"KHR_materials_specular",
		"KHR_materials_ior"
	],
	"scene":0,
	"scenes":[
		{
			"name":"Scene",
			"nodes":[
				14
			]
		}
	],
	"nodes":[
		{
			"name":"Head",
			"rotation":[
				0.6042100191116333,
				-0.00021978728182148188,
				-0.00016577559290453792,
				0.796825110912323
			],
			"scale":[
				0.9999999403953552,
				0.9999999403953552,
				1
			],
			"translation":[
				-2.382094521635736e-11,
				0.4492333233356476,
				-2.795660147825174e-09
			]
		},
		{
			"children":[
				0
			],
			"name":"Neck",
			"rotation":[
				0.23638536036014557,
				0.00018451012147124857,
				-0.0034135165624320507,
				0.9716533422470093
			],
			"translation":[
				-1.6007106751203537e-10,
				0.3855288326740265,
				2.4284304345201235e-08
			]
		},
		{
			"name":"Wing4.L",
			"rotation":[
				-0.06390191614627838,
				0.06313551217317581,
				0.02882760390639305,
				0.9955397844314575
			],
			"scale":[
				0.9999999403953552,
				1,
				1.0000001192092896
			],
			"translation":[
				0,
				0.42042046785354614,
				1.4901161193847656e-08
			]
		},
		{
			"children":[
				2
			],
			"name":"Wing3.L",
			"rotation":[
				0.0757426768541336,
				-0.002228153171017766,
				0.03657282888889313,
				0.9964540004730225
			],
			"translation":[
				-4.423782229423523e-08,
				0.4402768015861511,
				-9.313225746154785e-09
			]
		},
		{
			"children":[
				3
			],
			"name":"Wing2.L",
			"rotation":[
				0.09973206371068954,
				-0.6955782175064087,
				-0.12116163969039917,
				0.7011023163795471
			],
			"scale":[
				0.9999999403953552,
				1,
				1
			],
			"translation":[
				3.5390257835388184e-08,
				0.702502429485321,
				-1.4901161193847656e-08
			]
		},
		{
			"children":[
				4
			],
			"name":"Wing1.L",
			"rotation":[
				-0.2630975842475891,
				0.19185136258602142,
				-0.5517642498016357,
				0.7678079009056091
			],
			"scale":[
				1,
				1.0000001192092896,
				1
			],
			"translation":[
				0.38402655720710754,
				0.5555133819580078,
				-0.24125894904136658
			]
		},
		{
			"name":"Wing4.R",
			"rotation":[
				-0.06390196084976196,
				-0.06313551217317581,
				-0.028827575966715813,
				0.9955397844314575
			],
			"scale":[
				0.9999999403953552,
				1,
				1
			],
			"translation":[
				5.587935447692871e-08,
				0.42042064666748047,
				3.5390257835388184e-08
			]
		},
		{
			"children":[
				6
			],
			"name":"Wing3.R",
			"rotation":[
				0.07574271410703659,
				0.002228126861155033,
				-0.03657279908657074,
				0.9964540004730225
			],
			"translation":[
				-4.7497451305389404e-08,
				0.44027698040008545,
				5.587935447692871e-09
			]
		},
		{
			"children":[
				7
			],
			"name":"Wing2.R",
			"rotation":[
				0.09973203390836716,
				0.6955779790878296,
				0.12116166949272156,
				0.7011024355888367
			],
			"scale":[
				0.9999998807907104,
				1,
				0.9999999403953552
			],
			"translation":[
				2.7939677238464355e-08,
				0.7025022506713867,
				-2.60770320892334e-08
			]
		},
		{
			"children":[
				8
			],
			"name":"Wing1.R",
			"rotation":[
				-0.26326003670692444,
				-0.18861082196235657,
				0.5472429990768433,
				0.7717805504798889
			],
			"scale":[
				1,
				0.9999999403953552,
				0.9999999403953552
			],
			"translation":[
				-0.38143929839134216,
				0.5605250000953674,
				-0.23975013196468353
			]
		},
		{
			"children":[
				1,
				5,
				9
			],
			"name":"Torso",
			"rotation":[
				-0.014627176336944103,
				-0.0009377927635796368,
				0.003287556814029813,
				0.9998871684074402
			],
			"scale":[
				0.9999999403953552,
				0.9999998807907104,
				0.9999999403953552
			],
			"translation":[
				0.0031971840653568506,
				1.4315153360366821,
				-0.11103946715593338
			]
		},
		{
			"name":"Body1",
			"rotation":[
				-0.9996196031570435,
				0.012443850748240948,
				0.008295293897390366,
				0.023173632100224495
			],
			"scale":[
				1.0000004768371582,
				1,
				1.0000015497207642
			],
			"translation":[
				0.0031971840653568506,
				1.4346373081207275,
				-0.1112804040312767
			]
		},
		{
			"children":[
				10,
				11
			],
			"name":"Root",
			"rotation":[
				0,
				2.384185791015625e-07,
				0,
				1
			],
			"translation":[
				-0.0013114691246300936,
				-2.2492780685424805,
				-0.00011468419688753784
			]
		},
		{
			"mesh":0,
			"name":"Dragon_Fly",
			"skin":0
		},
		{
			"children":[
				13,
				12
			],
			"name":"CharacterArmature"
		}
	],
	"animations":[
		{
			"channels":[
				{
					"sampler":0,
					"target":{
						"node":12,
						"path":"translation"
					}
				},
				{
					"sampler":1,
					"target":{
						"node":12,
						"path":"rotation"
					}
				},
				{
					"sampler":2,
					"target":{
						"node":12,
						"path":"scale"
					}
				},
				{
					"sampler":3,
					"target":{
						"node":10,
						"path":"translation"
					}
				},
				{
					"sampler":4,
					"target":{
						"node":10,
						"path":"rotation"
					}
				},
				{
					"sampler":5,
					"target":{
						"node":10,
						"path":"scale"
					}
				},
				{
					"sampler":6,
					"target":{
						"node":1,
						"path":"translation"
					}
				},
				{
					"sampler":7,
					"target":{
						"node":1,
						"path":"rotation"
					}
				},
				{
					"sampler":8,
					"target":{
						"node":1,
						"path":"scale"
					}
				},
				{
					"sampler":9,
					"target":{
						"node":0,
						"path":"translation"
					}
				},
				{
					"sampler":10,
					"target":{
						"node":0,
						"path":"rotation"
					}
				},
				{
					"sampler":11,
					"target":{
						"node":0,
						"path":"scale"
					}
				},
				{
					"sampler":12,
					"target":{
						"node":5,
						"path":"translation"
					}
				},
				{
					"sampler":13,
					"target":{
						"node":5,
						"path":"rotation"
					}
				},
				{
					"sampler":14,
					"target":{
						"node":5,
						"path":"scale"
					}
				},
				{
					"sampler":15,
					"target":{
						"node":4,
						"path":"translation"
					}
				},
				{
					"sampler":16,
					"target":{
						"node":4,
						"path":"rotation"
					}
				},
				{
					"sampler":17,
					"target":{
						"node":4,
						"path":"scale"
					}
				},
				{
					"sampler":18,
					"target":{
						"node":3,
						"path":"translation"
					}
				},
				{
					"sampler":19,
					"target":{
						"node":3,
						"path":"rotation"
					}
				},
				{
					"sampler":20,
					"target":{
						"node":3,
						"path":"scale"
					}
				},
				{
					"sampler":21,
					"target":{
						"node":2,
						"path":"translation"
					}
				},
				{
					"sampler":22,
					"target":{
						"node":2,
						"path":"rotation"
					}
				},
				{
					"sampler":23,
					"target":{
						"node":2,
						"path":"scale"
					}
				},
				{
					"sampler":24,
					"target":{
						"node":9,
						"path":"translation"
					}
				},
				{
					"sampler":25,
					"target":{
						"node":9,
						"path":"rotation"
					}
				},
				{
					"sampler":26,
					"target":{
						"node":9,
						"path":"scale"
					}
				},
				{
					"sampler":27,
					"target":{
						"node":8,
						"path":"translation"
					}
				},
				{
					"sampler":28,
					"target":{
						"node":8,
						"path":"rotation"
					}
				},
				{
					"sampler":29,
					"target":{
						"node":8,
						"path":"scale"
					}
				},
				{
					"sampler":30,
					"target":{
						"node":7,
						"path":"translation"
					}
				},
				{
					"sampler":31,
					"target":{
						"node":7,
						"path":"rotation"
					}
				},
				{
					"sampler":32,
					"target":{
						"node":7,
						"path":"scale"
					}
				},
				{
					"sampler":33,
					"target":{
						"node":6,
						"path":"translation"
					}
				},
				{
					"sampler":34,
					"target":{
						"node":6,
						"path":"rotation"
					}
				},
				{
					"sampler":35,
					"target":{
						"node":6,
						"path":"scale"
					}
				},
				{
					"sampler":36,
					"target":{
						"node":11,
						"path":"translation"
					}
				},
				{
					"sampler":37,
					"target":{
						"node":11,
						"path":"rotation"
					}
				},
				{
					"sampler":38,
					"target":{
						"node":11,
						"path":"scale"
					}
				}
			],
			"name":"Flying_Idle",
			"samplers":[
				{
					"input":89,
					"interpolation":"STEP",
					"output":90
				},
				{
					"input":89,
					"interpolation":"STEP",
					"output":91
				},
				{
					"input":89,
					"interpolation":"STEP",
					"output":92
				},
				{
					"input":93,
					"interpolation":"LINEAR",
					"output":94
				},
				{
					"input":89,
					"interpolation":"STEP",
					"output":95
				},
				{
					"input":89,
					"interpolation":"STEP",
					"output":96
				},
				{
					"input":89,
					"interpolation":"STEP",
					"output":97
				},
				{
					"input":89,
					"interpolation":"STEP",
					"output":98
				},
				{
					"input":89,
					"interpolation":"STEP",
					"output":99
				},
				{
					"input":89,
					"interpolation":"STEP",
					"output":100
				},
				{
					"input":93,
					"interpolation":"LINEAR",
					"output":101
				},
				{
					"input":89,
					"interpolation":"STEP",
					"output":102
				},
				{
					"input":89,
					"interpolation":"STEP",
					"output":103
				},
				{
					"input":93,
					"interpolation":"LINEAR",
					"output":104
				},
				{
					"input":89,
					"interpolation":"STEP",
					"output":105
				},
				{
					"input":89,
					"interpolation":"STEP",
					"output":106
				},
				{
					"input":93,
					"interpolation":"LINEAR",
					"output":107
				},
				{
					"input":89,
					"interpolation":"STEP",
					"output":108
				},
				{
					"input":89,
					"interpolation":"STEP",
					"output":109
				},
				{
					"input":93,
					"interpolation":"LINEAR",
					"output":110
				},
				{
					"input":89,
					"interpolation":"STEP",
					"output":111
				},
				{
					"input":89,
					"interpolation":"STEP",
					"output":112
				},
				{
					"input":89,
					"interpolation":"STEP",
					"output":113
				},
				{
					"input":89,
					"interpolation":"STEP",
					"output":114
				},
				{
					"input":89,
					"interpolation":"STEP",
					"output":115
				},
				{
					"input":93,
					"interpolation":"LINEAR",
					"output":116
				},
				{
					"input":89,
					"interpolation":"STEP",
					"output":117
				},
				{
					"input":89,
					"interpolation":"STEP",
					"output":118
				},
				{
					"input":93,
					"interpolation":"LINEAR",
					"output":119
				},
				{
					"input":89,
					"interpolation":"STEP",
					"output":120
				},
				{
					"input":89,
					"interpolation":"STEP",
					"output":121
				},
				{
					"input":93,
					"interpolation":"LINEAR",
					"output":122
				},
				{
					"input":89,
					"interpolation":"STEP",
					"output":123
				},
				{
					"input":89,
					"interpolation":"STEP",
					"output":124
				},
				{
					"input":89,
					"interpolation":"STEP",
					"output":125
				},
				{
					"input":89,
					"interpolation":"STEP",
					"output":126
				},
				{
					"input":93,
					"interpolation":"LINEAR",
					"output":127
				},
				{
					"input":89,
					"interpolation":"STEP",
					"output":128
				},
				{
					"input":89,
					"interpolation":"STEP",
					"output":129
				}
			]
		},
		{
			"channels":[
				{
					"sampler":0,
					"target":{
						"node":12,
						"path":"translation"
					}
				},
				{
					"sampler":1,
					"target":{
						"node":12,
						"path":"rotation"
					}
				},
				{
					"sampler":2,
					"target":{
						"node":12,
						"path":"scale"
					}
				},
				{
					"sampler":3,
					"target":{
						"node":10,
						"path":"translation"
					}
				},
				{
					"sampler":4,
					"target":{
						"node":10,
						"path":"rotation"
					}
				},
				{
					"sampler":5,
					"target":{
						"node":10,
						"path":"scale"
					}
				},
				{
					"sampler":6,
					"target":{
						"node":1,
						"path":"translation"
					}
				},
				{
					"sampler":7,
					"target":{
						"node":1,
						"path":"rotation"
					}
				},
				{
					"sampler":8,
					"target":{
						"node":1,
						"path":"scale"
					}
				},
				{
					"sampler":9,
					"target":{
						"node":0,
						"path":"translation"
					}
				},
				{
					"sampler":10,
					"target":{
						"node":0,
						"path":"rotation"
					}
				},
				{
					"sampler":11,
					"target":{
						"node":0,
						"path":"scale"
					}
				},
				{
					"sampler":12,
					"target":{
						"node":5,
						"path":"translation"
					}
				},
				{
					"sampler":13,
					"target":{
						"node":5,
						"path":"rotation"
					}
				},
				{
					"sampler":14,
					"target":{
						"node":5,
						"path":"scale"
					}
				},
				{
					"sampler":15,
					"target":{
						"node":4,
						"path":"translation"
					}
				},
				{
					"sampler":16,
					"target":{
						"node":4,
						"path":"rotation"
					}
				},
				{
					"sampler":17,
					"target":{
						"node":4,
						"path":"scale"
					}
				},
				{
					"sampler":18,
					"target":{
						"node":3,
						"path":"translation"
					}
				},
				{
					"sampler":19,
					"target":{
						"node":3,
						"path":"rotation"
					}
				},
				{
					"sampler":20,
					"target":{
						"node":3,
						"path":"scale"
					}
				},
				{
					"sampler":21,
					"target":{
						"node":2,
						"path":"translation"
					}
				},
				{
					"sampler":22,
					"target":{
						"node":2,
						"path":"rotation"
					}
				},
				{
					"sampler":23,
					"target":{
						"node":2,
						"path":"scale"
					}
				},
				{
					"sampler":24,
					"target":{
						"node":9,
						"path":"translation"
					}
				},
				{
					"sampler":25,
					"target":{
						"node":9,
						"path":"rotation"
					}
				},
				{
					"sampler":26,
					"target":{
						"node":9,
						"path":"scale"
					}
				},
				{
					"sampler":27,
					"target":{
						"node":8,
						"path":"translation"
					}
				},
				{
					"sampler":28,
					"target":{
						"node":8,
						"path":"rotation"
					}
				},
				{
					"sampler":29,
					"target":{
						"node":8,
						"path":"scale"
					}
				},
				{
					"sampler":30,
					"target":{
						"node":7,
						"path":"translation"
					}
				},
				{
					"sampler":31,
					"target":{
						"node":7,
						"path":"rotation"
					}
				},
				{
					"sampler":32,
					"target":{
						"node":7,
						"path":"scale"
					}
				},
				{
					"sampler":33,
					"target":{
						"node":6,
						"path":"translation"
					}
				},
				{
					"sampler":34,
					"target":{
						"node":6,
						"path":"rotation"
					}
				},
				{
					"sampler":35,
					"target":{
						"node":6,
						"path":"scale"
					}
				},
				{
					"sampler":36,
					"target":{
						"node":11,
						"path":"translation"
					}
				},
				{
					"sampler":37,
					"target":{
						"node":11,
						"path":"rotation"
					}
				},
				{
					"sampler":38,
					"target":{
						"node":11,
						"path":"scale"
					}
				}
			],
			"name":"Headbutt",
			"samplers":[
				{
					"input":89,
					"interpolation":"STEP",
					"output":130
				},
				{
					"input":89,
					"interpolation":"STEP",
					"output":131
				},
				{
					"input":89,
					"interpolation":"STEP",
					"output":132
				},
				{
					"input":93,
					"interpolation":"LINEAR",
					"output":133
				},
				{
					"input":93,
					"interpolation":"LINEAR",
					"output":134
				},
				{
					"input":89,
					"interpolation":"STEP",
					"output":135
				},
				{
					"input":89,
					"interpolation":"STEP",
					"output":136
				},
				{
					"input":89,
					"interpolation":"STEP",
					"output":137
				},
				{
					"input":89,
					"interpolation":"STEP",
					"output":138
				},
				{
					"input":89,
					"interpolation":"STEP",
					"output":139
				},
				{
					"input":93,
					"interpolation":"LINEAR",
					"output":140
				},
				{
					"input":89,
					"interpolation":"STEP",
					"output":141
				},
				{
					"input":89,
					"interpolation":"STEP",
					"output":142
				},
				{
					"input":93,
					"interpolation":"LINEAR",
					"output":143
				},
				{
					"input":89,
					"interpolation":"STEP",
					"output":144
				},
				{
					"input":89,
					"interpolation":"STEP",
					"output":145
				},
				{
					"input":93,
					"interpolation":"LINEAR",
					"output":146
				},
				{
					"input":89,
					"interpolation":"STEP",
					"output":147
				},
				{
					"input":89,
					"interpolation":"STEP",
					"output":148
				},
				{
					"input":93,
					"interpolation":"LINEAR",
					"output":149
				},
				{
					"input":89,
					"interpolation":"STEP",
					"output":150
				},
				{
					"input":89,
					"interpolation":"STEP",
					"output":151
				},
				{
					"input":89,
					"interpolation":"STEP",
					"output":152
				},
				{
					"input":89,
					"interpolation":"STEP",
					"output":153
				},
				{
					"input":89,
					"interpolation":"STEP",
					"output":154
				},
				{
					"input":93,
					"interpolation":"LINEAR",
					"output":155
				},
				{
					"input":89,
					"interpolation":"STEP",
					"output":156
				},
				{
					"input":89,
					"interpolation":"STEP",
					"output":157
				},
				{
					"input":93,
					"interpolation":"LINEAR",
					"output":158
				},
				{
					"input":89,
					"interpolation":"STEP",
					"output":159
				},
				{
					"input":89,
					"interpolation":"STEP",
					"output":160
				},
				{
					"input":93,
					"interpolation":"LINEAR",
					"output":161
				},
				{
					"input":89,
					"interpolation":"STEP",
					"output":162
				},
				{
					"input":89,
					"interpolation":"STEP",
					"output":163
				},
				{
					"input":89,
					"interpolation":"STEP",
					"output":164
				},
				{
					"input":89,
					"interpolation":"STEP",
					"output":165
				},
				{
					"input":93,
					"interpolation":"LINEAR",
					"output":166
				},
				{
					"input":93,
					"interpolation":"LINEAR",
					"output":167
				},
				{
					"input":89,
					"interpolation":"STEP",
					"output":168
				}
			]
		},
		{
			"channels":[
				{
					"sampler":0,
					"target":{
						"node":12,
						"path":"translation"
					}
				},
				{
					"sampler":1,
					"target":{
						"node":12,
						"path":"rotation"
					}
				},
				{
					"sampler":2,
					"target":{
						"node":12,
						"path":"scale"
					}
				},
				{
					"sampler":3,
					"target":{
						"node":10,
						"path":"translation"
					}
				},
				{
					"sampler":4,
					"target":{
						"node":10,
						"path":"rotation"
					}
				},
				{
					"sampler":5,
					"target":{
						"node":10,
						"path":"scale"
					}
				},
				{
					"sampler":6,
					"target":{
						"node":1,
						"path":"translation"
					}
				},
				{
					"sampler":7,
					"target":{
						"node":1,
						"path":"rotation"
					}
				},
				{
					"sampler":8,
					"target":{
						"node":1,
						"path":"scale"
					}
				},
				{
					"sampler":9,
					"target":{
						"node":0,
						"path":"translation"
					}
				},
				{
					"sampler":10,
					"target":{
						"node":0,
						"path":"rotation"
					}
				},
				{
					"sampler":11,
					"target":{
						"node":0,
						"path":"scale"
					}
				},
				{
					"sampler":12,
					"target":{
						"node":5,
						"path":"translation"
					}
				},
				{
					"sampler":13,
					"target":{
						"node":5,
						"path":"rotation"
					}
				},
				{
					"sampler":14,
					"target":{
						"node":5,
						"path":"scale"
					}
				},
				{
					"sampler":15,
					"target":{
						"node":4,
						"path":"translation"
					}
				},
				{
					"sampler":16,
					"target":{
						"node":4,
						"path":"rotation"
					}
				},
				{
					"sampler":17,
					"target":{
						"node":4,
						"path":"scale"
					}
				},
				{
					"sampler":18,
					"target":{
						"node":3,
						"path":"translation"
					}
				},
				{
					"sampler":19,
					"target":{
						"node":3,
						"path":"rotation"
					}
				},
				{
					"sampler":20,
					"target":{
						"node":3,
						"path":"scale"
					}
				},
				{
					"sampler":21,
					"target":{
						"node":2,
						"path":"translation"
					}
				},
				{
					"sampler":22,
					"target":{
						"node":2,
						"path":"rotation"
					}
				},
				{
					"sampler":23,
					"target":{
						"node":2,
						"path":"scale"
					}
				},
				{
					"sampler":24,
					"target":{
						"node":9,
						"path":"translation"
					}
				},
				{
					"sampler":25,
					"target":{
						"node":9,
						"path":"rotation"
					}
				},
				{
					"sampler":26,
					"target":{
						"node":9,
						"path":"scale"
					}
				},
				{
					"sampler":27,
					"target":{
						"node":8,
						"path":"translation"
					}
				},
				{
					"sampler":28,
					"target":{
						"node":8,
						"path":"rotation"
					}
				},
				{
					"sampler":29,
					"target":{
						"node":8,
						"path":"scale"
					}
				},
				{
					"sampler":30,
					"target":{
						"node":7,
						"path":"translation"
					}
				},
				{
					"sampler":31,
					"target":{
						"node":7,
						"path":"rotation"
					}
				},
				{
					"sampler":32,
					"target":{
						"node":7,
						"path":"scale"
					}
				},
				{
					"sampler":33,
					"target":{
						"node":6,
						"path":"translation"
					}
				},
				{
					"sampler":34,
					"target":{
						"node":6,
						"path":"rotation"
					}
				},
				{
					"sampler":35,
					"target":{
						"node":6,
						"path":"scale"
					}
				},
				{
					"sampler":36,
					"target":{
						"node":11,
						"path":"translation"
					}
				},
				{
					"sampler":37,
					"target":{
						"node":11,
						"path":"rotation"
					}
				},
				{
					"sampler":38,
					"target":{
						"node":11,
						"path":"scale"
					}
				}
			],
			"name":"HitReact",
			"samplers":[
				{
					"input":169,
					"interpolation":"STEP",
					"output":170
				},
				{
					"input":169,
					"interpolation":"STEP",
					"output":171
				},
				{
					"input":169,
					"interpolation":"STEP",
					"output":172
				},
				{
					"input":173,
					"interpolation":"LINEAR",
					"output":174
				},
				{
					"input":173,
					"interpolation":"LINEAR",
					"output":175
				},
				{
					"input":169,
					"interpolation":"STEP",
					"output":176
				},
				{
					"input":169,
					"interpolation":"STEP",
					"output":177
				},
				{
					"input":173,
					"interpolation":"LINEAR",
					"output":178
				},
				{
					"input":169,
					"interpolation":"STEP",
					"output":179
				},
				{
					"input":169,
					"interpolation":"STEP",
					"output":180
				},
				{
					"input":173,
					"interpolation":"LINEAR",
					"output":181
				},
				{
					"input":169,
					"interpolation":"STEP",
					"output":182
				},
				{
					"input":169,
					"interpolation":"STEP",
					"output":183
				},
				{
					"input":173,
					"interpolation":"LINEAR",
					"output":184
				},
				{
					"input":169,
					"interpolation":"STEP",
					"output":185
				},
				{
					"input":169,
					"interpolation":"STEP",
					"output":186
				},
				{
					"input":173,
					"interpolation":"LINEAR",
					"output":187
				},
				{
					"input":169,
					"interpolation":"STEP",
					"output":188
				},
				{
					"input":169,
					"interpolation":"STEP",
					"output":189
				},
				{
					"input":173,
					"interpolation":"LINEAR",
					"output":190
				},
				{
					"input":169,
					"interpolation":"STEP",
					"output":191
				},
				{
					"input":169,
					"interpolation":"STEP",
					"output":192
				},
				{
					"input":169,
					"interpolation":"STEP",
					"output":193
				},
				{
					"input":169,
					"interpolation":"STEP",
					"output":194
				},
				{
					"input":169,
					"interpolation":"STEP",
					"output":195
				},
				{
					"input":173,
					"interpolation":"LINEAR",
					"output":196
				},
				{
					"input":169,
					"interpolation":"STEP",
					"output":197
				},
				{
					"input":169,
					"interpolation":"STEP",
					"output":198
				},
				{
					"input":173,
					"interpolation":"LINEAR",
					"output":199
				},
				{
					"input":169,
					"interpolation":"STEP",
					"output":200
				},
				{
					"input":169,
					"interpolation":"STEP",
					"output":201
				},
				{
					"input":173,
					"interpolation":"LINEAR",
					"output":202
				},
				{
					"input":169,
					"interpolation":"STEP",
					"output":203
				},
				{
					"input":169,
					"interpolation":"STEP",
					"output":204
				},
				{
					"input":169,
					"interpolation":"STEP",
					"output":205
				},
				{
					"input":169,
					"interpolation":"STEP",
					"output":206
				},
				{
					"input":173,
					"interpolation":"LINEAR",
					"output":207
				},
				{
					"input":169,
					"interpolation":"STEP",
					"output":208
				},
				{
					"input":169,
					"interpolation":"STEP",
					"output":209
				}
			]
		},
		{
			"channels":[
				{
					"sampler":0,
					"target":{
						"node":12,
						"path":"translation"
					}
				},
				{
					"sampler":1,
					"target":{
						"node":12,
						"path":"rotation"
					}
				},
				{
					"sampler":2,
					"target":{
						"node":12,
						"path":"scale"
					}
				},
				{
					"sampler":3,
					"target":{
						"node":10,
						"path":"translation"
					}
				},
				{
					"sampler":4,
					"target":{
						"node":10,
						"path":"rotation"
					}
				},
				{
					"sampler":5,
					"target":{
						"node":10,
						"path":"scale"
					}
				},
				{
					"sampler":6,
					"target":{
						"node":1,
						"path":"translation"
					}
				},
				{
					"sampler":7,
					"target":{
						"node":1,
						"path":"rotation"
					}
				},
				{
					"sampler":8,
					"target":{
						"node":1,
						"path":"scale"
					}
				},
				{
					"sampler":9,
					"target":{
						"node":0,
						"path":"translation"
					}
				},
				{
					"sampler":10,
					"target":{
						"node":0,
						"path":"rotation"
					}
				},
				{
					"sampler":11,
					"target":{
						"node":0,
						"path":"scale"
					}
				},
				{
					"sampler":12,
					"target":{
						"node":5,
						"path":"translation"
					}
				},
				{
					"sampler":13,
					"target":{
						"node":5,
						"path":"rotation"
					}
				},
				{
					"sampler":14,
					"target":{
						"node":5,
						"path":"scale"
					}
				},
				{
					"sampler":15,
					"target":{
						"node":4,
						"path":"translation"
					}
				},
				{
					"sampler":16,
					"target":{
						"node":4,
						"path":"rotation"
					}
				},
				{
					"sampler":17,
					"target":{
						"node":4,
						"path":"scale"
					}
				},
				{
					"sampler":18,
					"target":{
						"node":3,
						"path":"translation"
					}
				},
				{
					"sampler":19,
					"target":{
						"node":3,
						"path":"rotation"
					}
				},
				{
					"sampler":20,
					"target":{
						"node":3,
						"path":"scale"
					}
				},
				{
					"sampler":21,
					"target":{
						"node":2,
						"path":"translation"
					}
				},
				{
					"sampler":22,
					"target":{
						"node":2,
						"path":"rotation"
					}
				},
				{
					"sampler":23,
					"target":{
						"node":2,
						"path":"scale"
					}
				},
				{
					"sampler":24,
					"target":{
						"node":9,
						"path":"translation"
					}
				},
				{
					"sampler":25,
					"target":{
						"node":9,
						"path":"rotation"
					}
				},
				{
					"sampler":26,
					"target":{
						"node":9,
						"path":"scale"
					}
				},
				{
					"sampler":27,
					"target":{
						"node":8,
						"path":"translation"
					}
				},
				{
					"sampler":28,
					"target":{
						"node":8,
						"path":"rotation"
					}
				},
				{
					"sampler":29,
					"target":{
						"node":8,
						"path":"scale"
					}
				},
				{
					"sampler":30,
					"target":{
						"node":7,
						"path":"translation"
					}
				},
				{
					"sampler":31,
					"target":{
						"node":7,
						"path":"rotation"
					}
				},
				{
					"sampler":32,
					"target":{
						"node":7,
						"path":"scale"
					}
				},
				{
					"sampler":33,
					"target":{
						"node":6,
						"path":"translation"
					}
				},
				{
					"sampler":34,
					"target":{
						"node":6,
						"path":"rotation"
					}
				},
				{
					"sampler":35,
					"target":{
						"node":6,
						"path":"scale"
					}
				},
				{
					"sampler":36,
					"target":{
						"node":11,
						"path":"translation"
					}
				},
				{
					"sampler":37,
					"target":{
						"node":11,
						"path":"rotation"
					}
				},
				{
					"sampler":38,
					"target":{
						"node":11,
						"path":"scale"
					}
				}
			],
			"name":"No",
			"samplers":[
				{
					"input":89,
					"interpolation":"STEP",
					"output":210
				},
				{
					"input":89,
					"interpolation":"STEP",
					"output":211
				},
				{
					"input":89,
					"interpolation":"STEP",
					"output":212
				},
				{
					"input":93,
					"interpolation":"LINEAR",
					"output":213
				},
				{
					"input":89,
					"interpolation":"STEP",
					"output":214
				},
				{
					"input":89,
					"interpolation":"STEP",
					"output":215
				},
				{
					"input":89,
					"interpolation":"STEP",
					"output":216
				},
				{
					"input":93,
					"interpolation":"LINEAR",
					"output":217
				},
				{
					"input":89,
					"interpolation":"STEP",
					"output":218
				},
				{
					"input":89,
					"interpolation":"STEP",
					"output":219
				},
				{
					"input":93,
					"interpolation":"LINEAR",
					"output":220
				},
				{
					"input":89,
					"interpolation":"STEP",
					"output":221
				},
				{
					"input":89,
					"interpolation":"STEP",
					"output":222
				},
				{
					"input":93,
					"interpolation":"LINEAR",
					"output":223
				},
				{
					"input":89,
					"interpolation":"STEP",
					"output":224
				},
				{
					"input":89,
					"interpolation":"STEP",
					"output":225
				},
				{
					"input":93,
					"interpolation":"LINEAR",
					"output":226
				},
				{
					"input":89,
					"interpolation":"STEP",
					"output":227
				},
				{
					"input":89,
					"interpolation":"STEP",
					"output":228
				},
				{
					"input":93,
					"interpolation":"LINEAR",
					"output":229
				},
				{
					"input":89,
					"interpolation":"STEP",
					"output":230
				},
				{
					"input":89,
					"interpolation":"STEP",
					"output":231
				},
				{
					"input":89,
					"interpolation":"STEP",
					"output":232
				},
				{
					"input":89,
					"interpolation":"STEP",
					"output":233
				},
				{
					"input":89,
					"interpolation":"STEP",
					"output":234
				},
				{
					"input":93,
					"interpolation":"LINEAR",
					"output":235
				},
				{
					"input":89,
					"interpolation":"STEP",
					"output":236
				},
				{
					"input":89,
					"interpolation":"STEP",
					"output":237
				},
				{
					"input":93,
					"interpolation":"LINEAR",
					"output":238
				},
				{
					"input":89,
					"interpolation":"STEP",
					"output":239
				},
				{
					"input":89,
					"interpolation":"STEP",
					"output":240
				},
				{
					"input":93,
					"interpolation":"LINEAR",
					"output":241
				},
				{
					"input":89,
					"interpolation":"STEP",
					"output":242
				},
				{
					"input":89,
					"interpolation":"STEP",
					"output":243
				},
				{
					"input":89,
					"interpolation":"STEP",
					"output":244
				},
				{
					"input":89,
					"interpolation":"STEP",
					"output":245
				},
				{
					"input":93,
					"interpolation":"LINEAR",
					"output":246
				},
				{
					"input":89,
					"interpolation":"STEP",
					"output":247
				},
				{
					"input":89,
					"interpolation":"STEP",
					"output":248
				}
			]
		},
		{
			"channels":[
				{
					"sampler":0,
					"target":{
						"node":12,
						"path":"translation"
					}
				},
				{
					"sampler":1,
					"target":{
						"node":12,
						"path":"rotation"
					}
				},
				{
					"sampler":2,
					"target":{
						"node":12,
						"path":"scale"
					}
				},
				{
					"sampler":3,
					"target":{
						"node":10,
						"path":"translation"
					}
				},
				{
					"sampler":4,
					"target":{
						"node":10,
						"path":"rotation"
					}
				},
				{
					"sampler":5,
					"target":{
						"node":10,
						"path":"scale"
					}
				},
				{
					"sampler":6,
					"target":{
						"node":1,
						"path":"translation"
					}
				},
				{
					"sampler":7,
					"target":{
						"node":1,
						"path":"rotation"
					}
				},
				{
					"sampler":8,
					"target":{
						"node":1,
						"path":"scale"
					}
				},
				{
					"sampler":9,
					"target":{
						"node":0,
						"path":"translation"
					}
				},
				{
					"sampler":10,
					"target":{
						"node":0,
						"path":"rotation"
					}
				},
				{
					"sampler":11,
					"target":{
						"node":0,
						"path":"scale"
					}
				},
				{
					"sampler":12,
					"target":{
						"node":5,
						"path":"translation"
					}
				},
				{
					"sampler":13,
					"target":{
						"node":5,
						"path":"rotation"
					}
				},
				{
					"sampler":14,
					"target":{
						"node":5,
						"path":"scale"
					}
				},
				{
					"sampler":15,
					"target":{
						"node":4,
						"path":"translation"
					}
				},
				{
					"sampler":16,
					"target":{
						"node":4,
						"path":"rotation"
					}
				},
				{
					"sampler":17,
					"target":{
						"node":4,
						"path":"scale"
					}
				},
				{
					"sampler":18,
					"target":{
						"node":3,
						"path":"translation"
					}
				},
				{
					"sampler":19,
					"target":{
						"node":3,
						"path":"rotation"
					}
				},
				{
					"sampler":20,
					"target":{
						"node":3,
						"path":"scale"
					}
				},
				{
					"sampler":21,
					"target":{
						"node":2,
						"path":"translation"
					}
				},
				{
					"sampler":22,
					"target":{
						"node":2,
						"path":"rotation"
					}
				},
				{
					"sampler":23,
					"target":{
						"node":2,
						"path":"scale"
					}
				},
				{
					"sampler":24,
					"target":{
						"node":9,
						"path":"translation"
					}
				},
				{
					"sampler":25,
					"target":{
						"node":9,
						"path":"rotation"
					}
				},
				{
					"sampler":26,
					"target":{
						"node":9,
						"path":"scale"
					}
				},
				{
					"sampler":27,
					"target":{
						"node":8,
						"path":"translation"
					}
				},
				{
					"sampler":28,
					"target":{
						"node":8,
						"path":"rotation"
					}
				},
				{
					"sampler":29,
					"target":{
						"node":8,
						"path":"scale"
					}
				},
				{
					"sampler":30,
					"target":{
						"node":7,
						"path":"translation"
					}
				},
				{
					"sampler":31,
					"target":{
						"node":7,
						"path":"rotation"
					}
				},
				{
					"sampler":32,
					"target":{
						"node":7,
						"path":"scale"
					}
				},
				{
					"sampler":33,
					"target":{
						"node":6,
						"path":"translation"
					}
				},
				{
					"sampler":34,
					"target":{
						"node":6,
						"path":"rotation"
					}
				},
				{
					"sampler":35,
					"target":{
						"node":6,
						"path":"scale"
					}
				},
				{
					"sampler":36,
					"target":{
						"node":11,
						"path":"translation"
					}
				},
				{
					"sampler":37,
					"target":{
						"node":11,
						"path":"rotation"
					}
				},
				{
					"sampler":38,
					"target":{
						"node":11,
						"path":"scale"
					}
				}
			],
			"name":"Punch",
			"samplers":[
				{
					"input":89,
					"interpolation":"STEP",
					"output":249
				},
				{
					"input":89,
					"interpolation":"STEP",
					"output":250
				},
				{
					"input":89,
					"interpolation":"STEP",
					"output":251
				},
				{
					"input":93,
					"interpolation":"LINEAR",
					"output":252
				},
				{
					"input":93,
					"interpolation":"LINEAR",
					"output":253
				},
				{
					"input":89,
					"interpolation":"STEP",
					"output":254
				},
				{
					"input":89,
					"interpolation":"STEP",
					"output":255
				},
				{
					"input":89,
					"interpolation":"STEP",
					"output":256
				},
				{
					"input":89,
					"interpolation":"STEP",
					"output":257
				},
				{
					"input":89,
					"interpolation":"STEP",
					"output":258
				},
				{
					"input":93,
					"interpolation":"LINEAR",
					"output":259
				},
				{
					"input":89,
					"interpolation":"STEP",
					"output":260
				},
				{
					"input":89,
					"interpolation":"STEP",
					"output":261
				},
				{
					"input":93,
					"interpolation":"LINEAR",
					"output":262
				},
				{
					"input":89,
					"interpolation":"STEP",
					"output":263
				},
				{
					"input":89,
					"interpolation":"STEP",
					"output":264
				},
				{
					"input":93,
					"interpolation":"LINEAR",
					"output":265
				},
				{
					"input":89,
					"interpolation":"STEP",
					"output":266
				},
				{
					"input":89,
					"interpolation":"STEP",
					"output":267
				},
				{
					"input":93,
					"interpolation":"LINEAR",
					"output":268
				},
				{
					"input":89,
					"interpolation":"STEP",
					"output":269
				},
				{
					"input":89,
					"interpolation":"STEP",
					"output":270
				},
				{
					"input":89,
					"interpolation":"STEP",
					"output":271
				},
				{
					"input":89,
					"interpolation":"STEP",
					"output":272
				},
				{
					"input":89,
					"interpolation":"STEP",
					"output":273
				},
				{
					"input":93,
					"interpolation":"LINEAR",
					"output":274
				},
				{
					"input":89,
					"interpolation":"STEP",
					"output":275
				},
				{
					"input":89,
					"interpolation":"STEP",
					"output":276
				},
				{
					"input":93,
					"interpolation":"LINEAR",
					"output":277
				},
				{
					"input":89,
					"interpolation":"STEP",
					"output":278
				},
				{
					"input":89,
					"interpolation":"STEP",
					"output":279
				},
				{
					"input":93,
					"interpolation":"LINEAR",
					"output":280
				},
				{
					"input":89,
					"interpolation":"STEP",
					"output":281
				},
				{
					"input":89,
					"interpolation":"STEP",
					"output":282
				},
				{
					"input":89,
					"interpolation":"STEP",
					"output":283
				},
				{
					"input":89,
					"interpolation":"STEP",
					"output":284
				},
				{
					"input":93,
					"interpolation":"LINEAR",
					"output":285
				},
				{
					"input":93,
					"interpolation":"LINEAR",
					"output":286
				},
				{
					"input":89,
					"interpolation":"STEP",
					"output":287
				}
			]
		},
		{
			"channels":[
				{
					"sampler":0,
					"target":{
						"node":12,
						"path":"translation"
					}
				},
				{
					"sampler":1,
					"target":{
						"node":12,
						"path":"rotation"
					}
				},
				{
					"sampler":2,
					"target":{
						"node":12,
						"path":"scale"
					}
				},
				{
					"sampler":3,
					"target":{
						"node":10,
						"path":"translation"
					}
				},
				{
					"sampler":4,
					"target":{
						"node":10,
						"path":"rotation"
					}
				},
				{
					"sampler":5,
					"target":{
						"node":10,
						"path":"scale"
					}
				},
				{
					"sampler":6,
					"target":{
						"node":1,
						"path":"translation"
					}
				},
				{
					"sampler":7,
					"target":{
						"node":1,
						"path":"rotation"
					}
				},
				{
					"sampler":8,
					"target":{
						"node":1,
						"path":"scale"
					}
				},
				{
					"sampler":9,
					"target":{
						"node":0,
						"path":"translation"
					}
				},
				{
					"sampler":10,
					"target":{
						"node":0,
						"path":"rotation"
					}
				},
				{
					"sampler":11,
					"target":{
						"node":0,
						"path":"scale"
					}
				},
				{
					"sampler":12,
					"target":{
						"node":5,
						"path":"translation"
					}
				},
				{
					"sampler":13,
					"target":{
						"node":5,
						"path":"rotation"
					}
				},
				{
					"sampler":14,
					"target":{
						"node":5,
						"path":"scale"
					}
				},
				{
					"sampler":15,
					"target":{
						"node":4,
						"path":"translation"
					}
				},
				{
					"sampler":16,
					"target":{
						"node":4,
						"path":"rotation"
					}
				},
				{
					"sampler":17,
					"target":{
						"node":4,
						"path":"scale"
					}
				},
				{
					"sampler":18,
					"target":{
						"node":3,
						"path":"translation"
					}
				},
				{
					"sampler":19,
					"target":{
						"node":3,
						"path":"rotation"
					}
				},
				{
					"sampler":20,
					"target":{
						"node":3,
						"path":"scale"
					}
				},
				{
					"sampler":21,
					"target":{
						"node":2,
						"path":"translation"
					}
				},
				{
					"sampler":22,
					"target":{
						"node":2,
						"path":"rotation"
					}
				},
				{
					"sampler":23,
					"target":{
						"node":2,
						"path":"scale"
					}
				},
				{
					"sampler":24,
					"target":{
						"node":9,
						"path":"translation"
					}
				},
				{
					"sampler":25,
					"target":{
						"node":9,
						"path":"rotation"
					}
				},
				{
					"sampler":26,
					"target":{
						"node":9,
						"path":"scale"
					}
				},
				{
					"sampler":27,
					"target":{
						"node":8,
						"path":"translation"
					}
				},
				{
					"sampler":28,
					"target":{
						"node":8,
						"path":"rotation"
					}
				},
				{
					"sampler":29,
					"target":{
						"node":8,
						"path":"scale"
					}
				},
				{
					"sampler":30,
					"target":{
						"node":7,
						"path":"translation"
					}
				},
				{
					"sampler":31,
					"target":{
						"node":7,
						"path":"rotation"
					}
				},
				{
					"sampler":32,
					"target":{
						"node":7,
						"path":"scale"
					}
				},
				{
					"sampler":33,
					"target":{
						"node":6,
						"path":"translation"
					}
				},
				{
					"sampler":34,
					"target":{
						"node":6,
						"path":"rotation"
					}
				},
				{
					"sampler":35,
					"target":{
						"node":6,
						"path":"scale"
					}
				},
				{
					"sampler":36,
					"target":{
						"node":11,
						"path":"translation"
					}
				},
				{
					"sampler":37,
					"target":{
						"node":11,
						"path":"rotation"
					}
				},
				{
					"sampler":38,
					"target":{
						"node":11,
						"path":"scale"
					}
				}
			],
			"name":"Yes",
			"samplers":[
				{
					"input":89,
					"interpolation":"STEP",
					"output":288
				},
				{
					"input":89,
					"interpolation":"STEP",
					"output":289
				},
				{
					"input":89,
					"interpolation":"STEP",
					"output":290
				},
				{
					"input":93,
					"interpolation":"LINEAR",
					"output":291
				},
				{
					"input":89,
					"interpolation":"STEP",
					"output":292
				},
				{
					"input":89,
					"interpolation":"STEP",
					"output":293
				},
				{
					"input":89,
					"interpolation":"STEP",
					"output":294
				},
				{
					"input":93,
					"interpolation":"LINEAR",
					"output":295
				},
				{
					"input":89,
					"interpolation":"STEP",
					"output":296
				},
				{
					"input":89,
					"interpolation":"STEP",
					"output":297
				},
				{
					"input":93,
					"interpolation":"LINEAR",
					"output":298
				},
				{
					"input":89,
					"interpolation":"STEP",
					"output":299
				},
				{
					"input":89,
					"interpolation":"STEP",
					"output":300
				},
				{
					"input":93,
					"interpolation":"LINEAR",
					"output":301
				},
				{
					"input":89,
					"interpolation":"STEP",
					"output":302
				},
				{
					"input":89,
					"interpolation":"STEP",
					"output":303
				},
				{
					"input":93,
					"interpolation":"LINEAR",
					"output":304
				},
				{
					"input":89,
					"interpolation":"STEP",
					"output":305
				},
				{
					"input":89,
					"interpolation":"STEP",
					"output":306
				},
				{
					"input":93,
					"interpolation":"LINEAR",
					"output":307
				},
				{
					"input":89,
					"interpolation":"STEP",
					"output":308
				},
				{
					"input":89,
					"interpolation":"STEP",
					"output":309
				},
				{
					"input":89,
					"interpolation":"STEP",
					"output":310
				},
				{
					"input":89,
					"interpolation":"STEP",
					"output":311
				},
				{
					"input":89,
					"interpolation":"STEP",
					"output":312
				},
				{
					"input":93,
					"interpolation":"LINEAR",
					"output":313
				},
				{
					"input":89,
					"interpolation":"STEP",
					"output":314
				},
				{
					"input":89,
					"interpolation":"STEP",
					"output":315
				},
				{
					"input":93,
					"interpolation":"LINEAR",
					"output":316
				},
				{
					"input":89,
					"interpolation":"STEP",
					"output":317
				},
				{
					"input":89,
					"interpolation":"STEP",
					"output":318
				},
				{
					"input":93,
					"interpolation":"LINEAR",
					"output":319
				},
				{
					"input":89,
					"interpolation":"STEP",
					"output":320
				},
				{
					"input":89,
					"interpolation":"STEP",
					"output":321
				},
				{
					"input":89,
					"interpolation":"STEP",
					"output":322
				},
				{
					"input":89,
					"interpolation":"STEP",
					"output":323
				},
				{
					"input":93,
					"interpolation":"LINEAR",
					"output":324
				},
				{
					"input":89,
					"interpolation":"STEP",
					"output":325
				},
				{
					"input":89,
					"interpolation":"STEP",
					"output":326
				}
			]
		}
	],
	"materials":[
		{
			"doubleSided":true,
			"extensions":{
				"KHR_materials_specular":{
					"specularFactor":0
				},
				"KHR_materials_ior":{
					"ior":1.4500000476837158
				}
			},
			"name":"Material",
			"pbrMetallicRoughness":{
				"baseColorTexture":{
					"index":0
				},
				"metallicFactor":0
			}
		}
	],
	"meshes":[
		{
			"name":"Cube.222",
			"primitives":[
				{
					"attributes":{
						"POSITION":0,
						"NORMAL":1,
						"TEXCOORD_0":2,
						"JOINTS_0":3,
						"WEIGHTS_0":4
					},
					"indices":5,
					"material":0
				}
			]
		}
	],
	"textures":[
		{
			"sampler":0,
			"source":0
		}
	],
	"images":[
		{
			"mimeType":"image/png",
			"name":"Dragon.png",
			"uri":"Dragon.png"
		}
	],
	"skins":[
		{
			"inverseBindMatrices":6,
			"joints":[
				12,
				10,
				1,
				0,
				5,
				4,
				3,
				2,
				9,
				8,
				7,
				6,
				11
			],
			"name":"CharacterArmature"
		}
	],
	"accessors":[
		{
			"bufferView":0,
			"componentType":5126,
			"count":2700,
			"max":[
				2.191018581390381,
				0.8935487270355225,
				0.9997074604034424
			],
			"min":[
				-2.191018581390381,
				-0.6471298933029175,
				-1.430202841758728
			],
			"type":"VEC3"
		},
		{
			"bufferView":1,
			"componentType":5126,
			"count":2700,
			"type":"VEC3"
		},
		{
			"bufferView":2,
			"componentType":5126,
			"count":2700,
			"type":"VEC2"
		},
		{
			"bufferView":3,
			"componentType":5121,
			"count":2700,
			"type":"VEC4"
		},
		{
			"bufferView":4,
			"componentType":5126,
			"count":2700,
			"type":"VEC4"
		},
		{
			"bufferView":5,
			"componentType":5123,
			"count":13686,
			"type":"SCALAR"
		},
		{
			"bufferView":6,
			"componentType":5126,
			"count":13,
			"type":"MAT4"
		},
		{
			"bufferView":7,
			"componentType":5126,
			"count":2,
			"max":[
				0.6666666666666666
			],
			"min":[
				0
			],
			"type":"SCALAR"
		},
		{
			"bufferView":8,
			"componentType":5126,
			"count":2,
			"type":"VEC3"
		},
		{
			"bufferView":9,
			"componentType":5126,
			"count":2,
			"type":"VEC4"
		},
		{
			"bufferView":10,
			"componentType":5126,
			"count":2,
			"type":"VEC3"
		},
		{
			"bufferView":11,
			"componentType":5126,
			"count":21,
			"max":[
				0.6666666666666666
			],
			"min":[
				0
			],
			"type":"SCALAR"
		},
		{
			"bufferView":12,
			"componentType":5126,
			"count":21,
			"type":"VEC3"
		},
		{
			"bufferView":13,
			"componentType":5126,
			"count":21,
			"type":"VEC4"
		},
		{
			"bufferView":14,
			"componentType":5126,
			"count":2,
			"type":"VEC3"
		},
		{
			"bufferView":15,
			"componentType":5126,
			"count":2,
			"type":"VEC3"
		},
		{
			"bufferView":16,
			"componentType":5126,
			"count":21,
			"type":"VEC4"
		},
		{
			"bufferView":17,
			"componentType":5126,
			"count":2,
			"type":"VEC3"
		},
		{
			"bufferView":18,
			"componentType":5126,
			"count":2,
			"type":"VEC3"
		},
		{
			"bufferView":19,
			"componentType":5126,
			"count":21,
			"type":"VEC4"
		},
		{
			"bufferView":20,
			"componentType":5126,
			"count":2,
			"type":"VEC3"
		},
		{
			"bufferView":21,
			"componentType":5126,
			"count":2,
			"type":"VEC3"
		},
		{
			"bufferView":22,
			"componentType":5126,
			"count":21,
			"type":"VEC4"
		},
		{
			"bufferView":23,
			"componentType":5126,
			"count":2,
			"type":"VEC3"
		},
		{
			"bufferView":24,
			"componentType":5126,
			"count":2,
			"type":"VEC3"
		},
		{
			"bufferView":25,
			"componentType":5126,
			"count":21,
			"type":"VEC4"
		},
		{
			"bufferView":26,
			"componentType":5126,
			"count":2,
			"type":"VEC3"
		},
		{
			"bufferView":27,
			"componentType":5126,
			"count":2,
			"type":"VEC3"
		},
		{
			"bufferView":28,
			"componentType":5126,
			"count":21,
			"type":"VEC4"
		},
		{
			"bufferView":29,
			"componentType":5126,
			"count":2,
			"type":"VEC3"
		},
		{
			"bufferView":30,
			"componentType":5126,
			"count":2,
			"type":"VEC3"
		},
		{
			"bufferView":31,
			"componentType":5126,
			"count":2,
			"type":"VEC4"
		},
		{
			"bufferView":32,
			"componentType":5126,
			"count":2,
			"type":"VEC3"
		},
		{
			"bufferView":33,
			"componentType":5126,
			"count":2,
			"type":"VEC3"
		},
		{
			"bufferView":34,
			"componentType":5126,
			"count":21,
			"type":"VEC4"
		},
		{
			"bufferView":35,
			"componentType":5126,
			"count":2,
			"type":"VEC3"
		},
		{
			"bufferView":36,
			"componentType":5126,
			"count":2,
			"type":"VEC3"
		},
		{
			"bufferView":37,
			"componentType":5126,
			"count":21,
			"type":"VEC4"
		},
		{
			"bufferView":38,
			"componentType":5126,
			"count":2,
			"type":"VEC3"
		},
		{
			"bufferView":39,
			"componentType":5126,
			"count":2,
			"type":"VEC3"
		},
		{
			"bufferView":40,
			"componentType":5126,
			"count":21,
			"type":"VEC4"
		},
		{
			"bufferView":41,
			"componentType":5126,
			"count":2,
			"type":"VEC3"
		},
		{
			"bufferView":42,
			"componentType":5126,
			"count":2,
			"type":"VEC3"
		},
		{
			"bufferView":43,
			"componentType":5126,
			"count":2,
			"type":"VEC4"
		},
		{
			"bufferView":44,
			"componentType":5126,
			"count":2,
			"type":"VEC3"
		},
		{
			"bufferView":45,
			"componentType":5126,
			"count":21,
			"type":"VEC3"
		},
		{
			"bufferView":46,
			"componentType":5126,
			"count":21,
			"type":"VEC4"
		},
		{
			"bufferView":47,
			"componentType":5126,
			"count":2,
			"type":"VEC3"
		},
		{
			"bufferView":48,
			"componentType":5126,
			"count":2,
			"max":[
				0.8333333333333334
			],
			"min":[
				0
			],
			"type":"SCALAR"
		},
		{
			"bufferView":49,
			"componentType":5126,
			"count":2,
			"type":"VEC3"
		},
		{
			"bufferView":50,
			"componentType":5126,
			"count":2,
			"type":"VEC4"
		},
		{
			"bufferView":51,
			"componentType":5126,
			"count":2,
			"type":"VEC3"
		},
		{
			"bufferView":52,
			"componentType":5126,
			"count":26,
			"max":[
				0.8333333333333334
			],
			"min":[
				0
			],
			"type":"SCALAR"
		},
		{
			"bufferView":53,
			"componentType":5126,
			"count":26,
			"type":"VEC3"
		},
		{
			"bufferView":54,
			"componentType":5126,
			"count":2,
			"type":"VEC4"
		},
		{
			"bufferView":55,
			"componentType":5126,
			"count":2,
			"type":"VEC3"
		},
		{
			"bufferView":56,
			"componentType":5126,
			"count":2,
			"type":"VEC3"
		},
		{
			"bufferView":57,
			"componentType":5126,
			"count":2,
			"type":"VEC4"
		},
		{
			"bufferView":58,
			"componentType":5126,
			"count":2,
			"type":"VEC3"
		},
		{
			"bufferView":59,
			"componentType":5126,
			"count":2,
			"type":"VEC3"
		},
		{
			"bufferView":60,
			"componentType":5126,
			"count":26,
			"type":"VEC4"
		},
		{
			"bufferView":61,
			"componentType":5126,
			"count":2,
			"type":"VEC3"
		},
		{
			"bufferView":62,
			"componentType":5126,
			"count":2,
			"type":"VEC3"
		},
		{
			"bufferView":63,
			"componentType":5126,
			"count":26,
			"type":"VEC4"
		},
		{
			"bufferView":64,
			"componentType":5126,
			"count":2,
			"type":"VEC3"
		},
		{
			"bufferView":65,
			"componentType":5126,
			"count":2,
			"type":"VEC3"
		},
		{
			"bufferView":66,
			"componentType":5126,
			"count":26,
			"type":"VEC4"
		},
		{
			"bufferView":67,
			"componentType":5126,
			"count":2,
			"type":"VEC3"
		},
		{
			"bufferView":68,
			"componentType":5126,
			"count":2,
			"type":"VEC3"
		},
		{
			"bufferView":69,
			"componentType":5126,
			"count":26,
			"type":"VEC4"
		},
		{
			"bufferView":70,
			"componentType":5126,
			"count":2,
			"type":"VEC3"
		},
		{
			"bufferView":71,
			"componentType":5126,
			"count":2,
			"type":"VEC3"
		},
		{
			"bufferView":72,
			"componentType":5126,
			"count":2,
			"type":"VEC4"
		},
		{
			"bufferView":73,
			"componentType":5126,
			"count":2,
			"type":"VEC3"
		},
		{
			"bufferView":74,
			"componentType":5126,
			"count":2,
			"type":"VEC3"
		},
		{
			"bufferView":75,
			"componentType":5126,
			"count":26,
			"type":"VEC4"
		},
		{
			"bufferView":76,
			"componentType":5126,
			"count":2,
			"type":"VEC3"
		},
		{
			"bufferView":77,
			"componentType":5126,
			"count":2,
			"type":"VEC3"
		},
		{
			"bufferView":78,
			"componentType":5126,
			"count":26,
			"type":"VEC4"
		},
		{
			"bufferView":79,
			"componentType":5126,
			"count":2,
			"type":"VEC3"
		},
		{
			"bufferView":80,
			"componentType":5126,
			"count":2,
			"type":"VEC3"
		},
		{
			"bufferView":81,
			"componentType":5126,
			"count":26,
			"type":"VEC4"
		},
		{
			"bufferView":82,
			"componentType":5126,
			"count":2,
			"type":"VEC3"
		},
		{
			"bufferView":83,
			"componentType":5126,
			"count":2,
			"type":"VEC3"
		},
		{
			"bufferView":84,
			"componentType":5126,
			"count":2,
			"type":"VEC4"
		},
		{
			"bufferView":85,
			"componentType":5126,
			"count":2,
			"type":"VEC3"
		},
		{
			"bufferView":86,
			"componentType":5126,
			"count":26,
			"type":"VEC3"
		},
		{
			"bufferView":87,
			"componentType":5126,
			"count":2,
			"type":"VEC4"
		},
		{
			"bufferView":88,
			"componentType":5126,
			"count":2,
			"type":"VEC3"
		},
		{
			"bufferView":89,
			"componentType":5126,
			"count":2,
			"max":[
				1.1666666666666667
			],
			"min":[
				0
			],
			"type":"SCALAR"
		},
		{
			"bufferView":90,
			"componentType":5126,
			"count":2,
			"type":"VEC3"
		},
		{
			"bufferView":91,
			"componentType":5126,
			"count":2,
			"type":"VEC4"
		},
		{
			"bufferView":92,
			"componentType":5126,
			"count":2,
			"type":"VEC3"
		},
		{
			"bufferView":93,
			"componentType":5126,
			"count":36,
			"max":[
				1.1666666666666667
			],
			"min":[
				0
			],
			"type":"SCALAR"
		},
		{
			"bufferView":94,
			"componentType":5126,
			"count":36,
			"type":"VEC3"
		},
		{
			"bufferView":95,
			"componentType":5126,
			"count":2,
			"type":"VEC4"
		},
		{
			"bufferView":96,
			"componentType":5126,
			"count":2,
			"type":"VEC3"
		},
		{
			"bufferView":97,
			"componentType":5126,
			"count":2,
			"type":"VEC3"
		},
		{
			"bufferView":98,
			"componentType":5126,
			"count":2,
			"type":"VEC4"
		},
		{
			"bufferView":99,
			"componentType":5126,
			"count":2,
			"type":"VEC3"
		},
		{
			"bufferView":100,
			"componentType":5126,
			"count":2,
			"type":"VEC3"
		},
		{
			"bufferView":101,
			"componentType":5126,
			"count":36,
			"type":"VEC4"
		},
		{
			"bufferView":102,
			"componentType":5126,
			"count":2,
			"type":"VEC3"
		},
		{
			"bufferView":103,
			"componentType":5126,
			"count":2,
			"type":"VEC3"
		},
		{
			"bufferView":104,
			"componentType":5126,
			"count":36,
			"type":"VEC4"
		},
		{
			"bufferView":105,
			"componentType":5126,
			"count":2,
			"type":"VEC3"
		},
		{
			"bufferView":106,
			"componentType":5126,
			"count":2,
			"type":"VEC3"
		},
		{
			"bufferView":107,
			"componentType":5126,
			"count":36,
			"type":"VEC4"
		},
		{
			"bufferView":108,
			"componentType":5126,
			"count":2,
			"type":"VEC3"
		},
		{
			"bufferView":109,
			"componentType":5126,
			"count":2,
			"type":"VEC3"
		},
		{
			"bufferView":110,
			"componentType":5126,
			"count":36,
			"type":"VEC4"
		},
		{
			"bufferView":111,
			"componentType":5126,
			"count":2,
			"type":"VEC3"
		},
		{
			"bufferView":112,
			"componentType":5126,
			"count":2,
			"type":"VEC3"
		},
		{
			"bufferView":113,
			"componentType":5126,
			"count":2,
			"type":"VEC4"
		},
		{
			"bufferView":114,
			"componentType":5126,
			"count":2,
			"type":"VEC3"
		},
		{
			"bufferView":115,
			"componentType":5126,
			"count":2,
			"type":"VEC3"
		},
		{
			"bufferView":116,
			"componentType":5126,
			"count":36,
			"type":"VEC4"
		},
		{
			"bufferView":117,
			"componentType":5126,
			"count":2,
			"type":"VEC3"
		},
		{
			"bufferView":118,
			"componentType":5126,
			"count":2,
			"type":"VEC3"
		},
		{
			"bufferView":119,
			"componentType":5126,
			"count":36,
			"type":"VEC4"
		},
		{
			"bufferView":120,
			"componentType":5126,
			"count":2,
			"type":"VEC3"
		},
		{
			"bufferView":121,
			"componentType":5126,
			"count":2,
			"type":"VEC3"
		},
		{
			"bufferView":122,
			"componentType":5126,
			"count":36,
			"type":"VEC4"
		},
		{
			"bufferView":123,
			"componentType":5126,
			"count":2,
			"type":"VEC3"
		},
		{
			"bufferView":124,
			"componentType":5126,
			"count":2,
			"type":"VEC3"
		},
		{
			"bufferView":125,
			"componentType":5126,
			"count":2,
			"type":"VEC4"
		},
		{
			"bufferView":126,
			"componentType":5126,
			"count":2,
			"type":"VEC3"
		},
		{
			"bufferView":127,
			"componentType":5126,
			"count":36,
			"type":"VEC3"
		},
		{
			"bufferView":128,
			"componentType":5126,
			"count":2,
			"type":"VEC4"
		},
		{
			"bufferView":129,
			"componentType":5126,
			"count":2,
			"type":"VEC3"
		},
		{
			"bufferView":130,
			"componentType":5126,
			"count":2,
			"type":"VEC3"
		},
		{
			"bufferView":131,
			"componentType":5126,
			"count":2,
			"type":"VEC4"
		},
		{
			"bufferView":132,
			"componentType":5126,
			"count":2,
			"type":"VEC3"
		},
		{
			"bufferView":133,
			"componentType":5126,
			"count":36,
			"type":"VEC3"
		},
		{
			"bufferView":134,
			"componentType":5126,
			"count":36,
			"type":"VEC4"
		},
		{
			"bufferView":135,
			"componentType":5126,
			"count":2,
			"type":"VEC3"
		},
		{
			"bufferView":136,
			"componentType":5126,
			"count":2,
			"type":"VEC3"
		},
		{
			"bufferView":137,
			"componentType":5126,
			"count":2,
			"type":"VEC4"
		},
		{
			"bufferView":138,
			"componentType":5126,
			"count":2,
			"type":"VEC3"
		},
		{
			"bufferView":139,
			"componentType":5126,
			"count":2,
			"type":"VEC3"
		},
		{
			"bufferView":140,
			"componentType":5126,
			"count":36,
			"type":"VEC4"
		},
		{
			"bufferView":141,
			"componentType":5126,
			"count":2,
			"type":"VEC3"
		},
		{
			"bufferView":142,
			"componentType":5126,
			"count":2,
			"type":"VEC3"
		},
		{
			"bufferView":143,
			"componentType":5126,
			"count":36,
			"type":"VEC4"
		},
		{
			"bufferView":144,
			"componentType":5126,
			"count":2,
			"type":"VEC3"
		},
		{
			"bufferView":145,
			"componentType":5126,
			"count":2,
			"type":"VEC3"
		},
		{
			"bufferView":146,
			"componentType":5126,
			"count":36,
			"type":"VEC4"
		},
		{
			"bufferView":147,
			"componentType":5126,
			"count":2,
			"type":"VEC3"
		},
		{
			"bufferView":148,
			"componentType":5126,
			"count":2,
			"type":"VEC3"
		},
		{
			"bufferView":149,
			"componentType":5126,
			"count":36,
			"type":"VEC4"
		},
		{
			"bufferView":150,
			"componentType":5126,
			"count":2,
			"type":"VEC3"
		},
		{
			"bufferView":151,
			"componentType":5126,
			"count":2,
			"type":"VEC3"
		},
		{
			"bufferView":152,
			"componentType":5126,
			"count":2,
			"type":"VEC4"
		},
		{
			"bufferView":153,
			"componentType":5126,
			"count":2,
			"type":"VEC3"
		},
		{
			"bufferView":154,
			"componentType":5126,
			"count":2,
			"type":"VEC3"
		},
		{
			"bufferView":155,
			"componentType":5126,
			"count":36,
			"type":"VEC4"
		},
		{
			"bufferView":156,
			"componentType":5126,
			"count":2,
			"type":"VEC3"
		},
		{
			"bufferView":157,
			"componentType":5126,
			"count":2,
			"type":"VEC3"
		},
		{
			"bufferView":158,
			"componentType":5126,
			"count":36,
			"type":"VEC4"
		},
		{
			"bufferView":159,
			"componentType":5126,
			"count":2,
			"type":"VEC3"
		},
		{
			"bufferView":160,
			"componentType":5126,
			"count":2,
			"type":"VEC3"
		},
		{
			"bufferView":161,
			"componentType":5126,
			"count":36,
			"type":"VEC4"
		},
		{
			"bufferView":162,
			"componentType":5126,
			"count":2,
			"type":"VEC3"
		},
		{
			"bufferView":163,
			"componentType":5126,
			"count":2,
			"type":"VEC3"
		},
		{
			"bufferView":164,
			"componentType":5126,
			"count":2,
			"type":"VEC4"
		},
		{
			"bufferView":165,
			"componentType":5126,
			"count":2,
			"type":"VEC3"
		},
		{
			"bufferView":166,
			"componentType":5126,
			"count":36,
			"type":"VEC3"
		},
		{
			"bufferView":167,
			"componentType":5126,
			"count":36,
			"type":"VEC4"
		},
		{
			"bufferView":168,
			"componentType":5126,
			"count":2,
			"type":"VEC3"
		},
		{
			"bufferView":169,
			"componentType":5126,
			"count":2,
			"max":[
				0.4666666666666667
			],
			"min":[
				0
			],
			"type":"SCALAR"
		},
		{
			"bufferView":170,
			"componentType":5126,
			"count":2,
			"type":"VEC3"
		},
		{
			"bufferView":171,
			"componentType":5126,
			"count":2,
			"type":"VEC4"
		},
		{
			"bufferView":172,
			"componentType":5126,
			"count":2,
			"type":"VEC3"
		},
		{
			"bufferView":173,
			"componentType":5126,
			"count":15,
			"max":[
				0.4666666666666667
			],
			"min":[
				0
			],
			"type":"SCALAR"
		},
		{
			"bufferView":174,
			"componentType":5126,
			"count":15,
			"type":"VEC3"
		},
		{
			"bufferView":175,
			"componentType":5126,
			"count":15,
			"type":"VEC4"
		},
		{
			"bufferView":176,
			"componentType":5126,
			"count":2,
			"type":"VEC3"
		},
		{
			"bufferView":177,
			"componentType":5126,
			"count":2,
			"type":"VEC3"
		},
		{
			"bufferView":178,
			"componentType":5126,
			"count":15,
			"type":"VEC4"
		},
		{
			"bufferView":179,
			"componentType":5126,
			"count":2,
			"type":"VEC3"
		},
		{
			"bufferView":180,
			"componentType":5126,
			"count":2,
			"type":"VEC3"
		},
		{
			"bufferView":181,
			"componentType":5126,
			"count":15,
			"type":"VEC4"
		},
		{
			"bufferView":182,
			"componentType":5126,
			"count":2,
			"type":"VEC3"
		},
		{
			"bufferView":183,
			"componentType":5126,
			"count":2,
			"type":"VEC3"
		},
		{
			"bufferView":184,
			"componentType":5126,
			"count":15,
			"type":"VEC4"
		},
		{
			"bufferView":185,
			"componentType":5126,
			"count":2,
			"type":"VEC3"
		},
		{
			"bufferView":186,
			"componentType":5126,
			"count":2,
			"type":"VEC3"
		},
		{
			"bufferView":187,
			"componentType":5126,
			"count":15,
			"type":"VEC4"
		},
		{
			"bufferView":188,
			"componentType":5126,
			"count":2,
			"type":"VEC3"
		},
		{
			"bufferView":189,
			"componentType":5126,
			"count":2,
			"type":"VEC3"
		},
		{
			"bufferView":190,
			"componentType":5126,
			"count":15,
			"type":"VEC4"
		},
		{
			"bufferView":191,
			"componentType":5126,
			"count":2,
			"type":"VEC3"
		},
		{
			"bufferView":192,
			"componentType":5126,
			"count":2,
			"type":"VEC3"
		},
		{
			"bufferView":193,
			"componentType":5126,
			"count":2,
			"type":"VEC4"
		},
		{
			"bufferView":194,
			"componentType":5126,
			"count":2,
			"type":"VEC3"
		},
		{
			"bufferView":195,
			"componentType":5126,
			"count":2,
			"type":"VEC3"
		},
		{
			"bufferView":196,
			"componentType":5126,
			"count":15,
			"type":"VEC4"
		},
		{
			"bufferView":197,
			"componentType":5126,
			"count":2,
			"type":"VEC3"
		},
		{
			"bufferView":198,
			"componentType":5126,
			"count":2,
			"type":"VEC3"
		},
		{
			"bufferView":199,
			"componentType":5126,
			"count":15,
			"type":"VEC4"
		},
		{
			"bufferView":200,
			"componentType":5126,
			"count":2,
			"type":"VEC3"
		},
		{
			"bufferView":201,
			"componentType":5126,
			"count":2,
			"type":"VEC3"
		},
		{
			"bufferView":202,
			"componentType":5126,
			"count":15,
			"type":"VEC4"
		},
		{
			"bufferView":203,
			"componentType":5126,
			"count":2,
			"type":"VEC3"
		},
		{
			"bufferView":204,
			"componentType":5126,
			"count":2,
			"type":"VEC3"
		},
		{
			"bufferView":205,
			"componentType":5126,
			"count":2,
			"type":"VEC4"
		},
		{
			"bufferView":206,
			"componentType":5126,
			"count":2,
			"type":"VEC3"
		},
		{
			"bufferView":207,
			"componentType":5126,
			"count":15,
			"type":"VEC3"
		},
		{
			"bufferView":208,
			"componentType":5126,
			"count":2,
			"type":"VEC4"
		},
		{
			"bufferView":209,
			"componentType":5126,
			"count":2,
			"type":"VEC3"
		},
		{
			"bufferView":210,
			"componentType":5126,
			"count":2,
			"type":"VEC3"
		},
		{
			"bufferView":211,
			"componentType":5126,
			"count":2,
			"type":"VEC4"
		},
		{
			"bufferView":212,
			"componentType":5126,
			"count":2,
			"type":"VEC3"
		},
		{
			"bufferView":213,
			"componentType":5126,
			"count":36,
			"type":"VEC3"
		},
		{
			"bufferView":214,
			"componentType":5126,
			"count":2,
			"type":"VEC4"
		},
		{
			"bufferView":215,
			"componentType":5126,
			"count":2,
			"type":"VEC3"
		},
		{
			"bufferView":216,
			"componentType":5126,
			"count":2,
			"type":"VEC3"
		},
		{
			"bufferView":217,
			"componentType":5126,
			"count":36,
			"type":"VEC4"
		},
		{
			"bufferView":218,
			"componentType":5126,
			"count":2,
			"type":"VEC3"
		},
		{
			"bufferView":219,
			"componentType":5126,
			"count":2,
			"type":"VEC3"
		},
		{
			"bufferView":220,
			"componentType":5126,
			"count":36,
			"type":"VEC4"
		},
		{
			"bufferView":221,
			"componentType":5126,
			"count":2,
			"type":"VEC3"
		},
		{
			"bufferView":222,
			"componentType":5126,
			"count":2,
			"type":"VEC3"
		},
		{
			"bufferView":223,
			"componentType":5126,
			"count":36,
			"type":"VEC4"
		},
		{
			"bufferView":224,
			"componentType":5126,
			"count":2,
			"type":"VEC3"
		},
		{
			"bufferView":225,
			"componentType":5126,
			"count":2,
			"type":"VEC3"
		},
		{
			"bufferView":226,
			"componentType":5126,
			"count":36,
			"type":"VEC4"
		},
		{
			"bufferView":227,
			"componentType":5126,
			"count":2,
			"type":"VEC3"
		},
		{
			"bufferView":228,
			"componentType":5126,
			"count":2,
			"type":"VEC3"
		},
		{
			"bufferView":229,
			"componentType":5126,
			"count":36,
			"type":"VEC4"
		},
		{
			"bufferView":230,
			"componentType":5126,
			"count":2,
			"type":"VEC3"
		},
		{
			"bufferView":231,
			"componentType":5126,
			"count":2,
			"type":"VEC3"
		},
		{
			"bufferView":232,
			"componentType":5126,
			"count":2,
			"type":"VEC4"
		},
		{
			"bufferView":233,
			"componentType":5126,
			"count":2,
			"type":"VEC3"
		},
		{
			"bufferView":234,
			"componentType":5126,
			"count":2,
			"type":"VEC3"
		},
		{
			"bufferView":235,
			"componentType":5126,
			"count":36,
			"type":"VEC4"
		},
		{
			"bufferView":236,
			"componentType":5126,
			"count":2,
			"type":"VEC3"
		},
		{
			"bufferView":237,
			"componentType":5126,
			"count":2,
			"type":"VEC3"
		},
		{
			"bufferView":238,
			"componentType":5126,
			"count":36,
			"type":"VEC4"
		},
		{
			"bufferView":239,
			"componentType":5126,
			"count":2,
			"type":"VEC3"
		},
		{
			"bufferView":240,
			"componentType":5126,
			"count":2,
			"type":"VEC3"
		},
		{
			"bufferView":241,
			"componentType":5126,
			"count":36,
			"type":"VEC4"
		},
		{
			"bufferView":242,
			"componentType":5126,
			"count":2,
			"type":"VEC3"
		},
		{
			"bufferView":243,
			"componentType":5126,
			"count":2,
			"type":"VEC3"
		},
		{
			"bufferView":244,
			"componentType":5126,
			"count":2,
			"type":"VEC4"
		},
		{
			"bufferView":245,
			"componentType":5126,
			"count":2,
			"type":"VEC3"
		},
		{
			"bufferView":246,
			"componentType":5126,
			"count":36,
			"type":"VEC3"
		},
		{
			"bufferView":247,
			"componentType":5126,
			"count":2,
			"type":"VEC4"
		},
		{
			"bufferView":248,
			"componentType":5126,
			"count":2,
			"type":"VEC3"
		},
		{
			"bufferView":249,
			"componentType":5126,
			"count":2,
			"type":"VEC3"
		},
		{
			"bufferView":250,
			"componentType":5126,
			"count":2,
			"type":"VEC4"
		},
		{
			"bufferView":251,
			"componentType":5126,
			"count":2,
			"type":"VEC3"
		},
		{
			"bufferView":252,
			"componentType":5126,
			"count":36,
			"type":"VEC3"
		},
		{
			"bufferView":253,
			"componentType":5126,
			"count":36,
			"type":"VEC4"
		},
		{
			"bufferView":254,
			"componentType":5126,
			"count":2,
			"type":"VEC3"
		},
		{
			"bufferView":255,
			"componentType":5126,
			"count":2,
			"type":"VEC3"
		},
		{
			"bufferView":256,
			"componentType":5126,
			"count":2,
			"type":"VEC4"
		},
		{
			"bufferView":257,
			"componentType":5126,
			"count":2,
			"type":"VEC3"
		},
		{
			"bufferView":258,
			"componentType":5126,
			"count":2,
			"type":"VEC3"
		},
		{
			"bufferView":259,
			"componentType":5126,
			"count":36,
			"type":"VEC4"
		},
		{
			"bufferView":260,
			"componentType":5126,
			"count":2,
			"type":"VEC3"
		},
		{
			"bufferView":261,
			"componentType":5126,
			"count":2,
			"type":"VEC3"
		},
		{
			"bufferView":262,
			"componentType":5126,
			"count":36,
			"type":"VEC4"
		},
		{
			"bufferView":263,
			"componentType":5126,
			"count":2,
			"type":"VEC3"
		},
		{
			"bufferView":264,
			"componentType":5126,
			"count":2,
			"type":"VEC3"
		},
		{
			"bufferView":265,
			"componentType":5126,
			"count":36,
			"type":"VEC4"
		},
		{
			"bufferView":266,
			"componentType":5126,
			"count":2,
			"type":"VEC3"
		},
		{
			"bufferView":267,
			"componentType":5126,
			"count":2,
			"type":"VEC3"
		},
		{
			"bufferView":268,
			"componentType":5126,
			"count":36,
			"type":"VEC4"
		},
		{
			"bufferView":269,
			"componentType":5126,
			"count":2,
			"type":"VEC3"
		},
		{
			"bufferView":270,
			"componentType":5126,
			"count":2,
			"type":"VEC3"
		},
		{
			"bufferView":271,
			"componentType":5126,
			"count":2,
			"type":"VEC4"
		},
		{
			"bufferView":272,
			"componentType":5126,
			"count":2,
			"type":"VEC3"
		},
		{
			"bufferView":273,
			"componentType":5126,
			"count":2,
			"type":"VEC3"
		},
		{
			"bufferView":274,
			"componentType":5126,
			"count":36,
			"type":"VEC4"
		},
		{
			"bufferView":275,
			"componentType":5126,
			"count":2,
			"type":"VEC3"
		},
		{
			"bufferView":276,
			"componentType":5126,
			"count":2,
			"type":"VEC3"
		},
		{
			"bufferView":277,
			"componentType":5126,
			"count":36,
			"type":"VEC4"
		},
		{
			"bufferView":278,
			"componentType":5126,
			"count":2,
			"type":"VEC3"
		},
		{
			"bufferView":279,
			"componentType":5126,
			"count":2,
			"type":"VEC3"
		},
		{
			"bufferView":280,
			"componentType":5126,
			"count":36,
			"type":"VEC4"
		},
		{
			"bufferView":281,
			"componentType":5126,
			"count":2,
			"type":"VEC3"
		},
		{
			"bufferView":282,
			"componentType":5126,
			"count":2,
			"type":"VEC3"
		},
		{
			"bufferView":283,
			"componentType":5126,
			"count":2,
			"type":"VEC4"
		},
		{
			"bufferView":284,
			"componentType":5126,
			"count":2,
			"type":"VEC3"
		},
		{
			"bufferView":285,
			"componentType":5126,
			"count":36,
			"type":"VEC3"
		},
		{
			"bufferView":286,
			"componentType":5126,
			"count":36,
			"type":"VEC4"
		},
		{
			"bufferView":287,
			"componentType":5126,
			"count":2,
			"type":"VEC3"
		},
		{
			"bufferView":288,
			"componentType":5126,
			"count":2,
			"type":"VEC3"
		},
		{
			"bufferView":289,
			"componentType":5126,
			"count":2,
			"type":"VEC4"
		},
		{
			"bufferView":290,
			"componentType":5126,
			"count":2,
			"type":"VEC3"
		},
		{
			"bufferView":291,
			"componentType":5126,
			"count":36,
			"type":"VEC3"
		},
		{
			"bufferView":292,
			"componentType":5126,
			"count":2,
			"type":"VEC4"
		},
		{
			"bufferView":293,
			"componentType":5126,
			"count":2,
			"type":"VEC3"
		},
		{
			"bufferView":294,
			"componentType":5126,
			"count":2,
			"type":"VEC3"
		},
		{
			"bufferView":295,
			"componentType":5126,
			"count":36,
			"type":"VEC4"
		},
		{
			"bufferView":296,
			"componentType":5126,
			"count":2,
			"type":"VEC3"
		},
		{
			"bufferView":297,
			"componentType":5126,
			"count":2,
			"type":"VEC3"
		},
		{
			"bufferView":298,
			"componentType":5126,
			"count":36,
			"type":"VEC4"
		},
		{
			"bufferView":299,
			"componentType":5126,
			"count":2,
			"type":"VEC3"
		},
		{
			"bufferView":300,
			"componentType":5126,
			"count":2,
			"type":"VEC3"
		},
		{
			"bufferView":301,
			"componentType":5126,
			"count":36,
			"type":"VEC4"
		},
		{
			"bufferView":302,
			"componentType":5126,
			"count":2,
			"type":"VEC3"
		},
		{
			"bufferView":303,
			"componentType":5126,
			"count":2,
			"type":"VEC3"
		},
		{
			"bufferView":304,
			"componentType":5126,
			"count":36,
			"type":"VEC4"
		},
		{
			"bufferView":305,
			"componentType":5126,
			"count":2,
			"type":"VEC3"
		},
		{
			"bufferView":306,
			"componentType":5126,
			"count":2,
			"type":"VEC3"
		},
		{
			"bufferView":307,
			"componentType":5126,
			"count":36,
			"type":"VEC4"
		},
		{
			"bufferView":308,
			"componentType":5126,
			"count":2,
			"type":"VEC3"
		},
		{
			"bufferView":309,
			"componentType":5126,
			"count":2,
			"type":"VEC3"
		},
		{
			"bufferView":310,
			"componentType":5126,
			"count":2,
			"type":"VEC4"
		},
		{
			"bufferView":311,
			"componentType":5126,
			"count":2,
			"type":"VEC3"
		},
		{
			"bufferView":312,
			"componentType":5126,
			"count":2,
			"type":"VEC3"
		},
		{
			"bufferView":313,
			"componentType":5126,
			"count":36,
			"type":"VEC4"
		},
		{
			"bufferView":314,
			"componentType":5126,
			"count":2,
			"type":"VEC3"
		},
		{
			"bufferView":315,
			"componentType":5126,
			"count":2,
			"type":"VEC3"
		},
		{
			"bufferView":316,
			"componentType":5126,
			"count":36,
			"type":"VEC4"
		},
		{
			"bufferView":317,
			"componentType":5126,
			"count":2,
			"type":"VEC3"
		},
		{
			"bufferView":318,
			"componentType":5126,
			"count":2,
			"type":"VEC3"
		},
		{
			"bufferView":319,
			"componentType":5126,
			"count":36,
			"type":"VEC4"
		},
		{
			"bufferView":320,
			"componentType":5126,
			"count":2,
			"type":"VEC3"
		},
		{
			"bufferView":321,
			"componentType":5126,
			"count":2,
			"type":"VEC3"
		},
		{
			"bufferView":322,
			"componentType":5126,
			"count":2,
			"type":"VEC4"
		},
		{
			"bufferView":323,
			"componentType":5126,
			"count":2,
			"type":"VEC3"
		},
		{
			"bufferView":324,
			"componentType":5126,
			"count":36,
			"type":"VEC3"
		},
		{
			"bufferView":325,
			"componentType":5126,
			"count":2,
			"type":"VEC4"
		},
		{
			"bufferView":326,
			"componentType":5126,
			"count":2,
			"type":"VEC3"
		}
	],
	"bufferViews":[
		{
			"buffer":0,
			"byteLength":32400,
			"byteOffset":0,
			"target":34962
		},
		{
			"buffer":0,
			"byteLength":32400,
			"byteOffset":32400,
			"target":34962
		},
		{
			"buffer":0,
			"byteLength":21600,
			"byteOffset":64800,
			"target":34962
		},
		{
			"buffer":0,
			"byteLength":10800,
			"byteOffset":86400,
			"target":34962
		},
		{
			"buffer":0,
			"byteLength":43200,
			"byteOffset":97200,
			"target":34962
		},
		{
			"buffer":0,
			"byteLength":27372,
			"byteOffset":140400,
			"target":34963
		},
		{
			"buffer":0,
			"byteLength":832,
			"byteOffset":167772
		},
		{
			"buffer":0,
			"byteLength":8,
			"byteOffset":168604
		},
		{
			"buffer":0,
			"byteLength":24,
			"byteOffset":168612
		},
		{
			"buffer":0,
			"byteLength":32,
			"byteOffset":168636
		},
		{
			"buffer":0,
			"byteLength":24,
			"byteOffset":168668
		},
		{
			"buffer":0,
			"byteLength":84,
			"byteOffset":168692
		},
		{
			"buffer":0,
			"byteLength":252,
			"byteOffset":168776
		},
		{
			"buffer":0,
			"byteLength":336,
			"byteOffset":169028
		},
		{
			"buffer":0,
			"byteLength":24,
			"byteOffset":169364
		},
		{
			"buffer":0,
			"byteLength":24,
			"byteOffset":169388
		},
		{
			"buffer":0,
			"byteLength":336,
			"byteOffset":169412
		},
		{
			"buffer":0,
			"byteLength":24,
			"byteOffset":169748
		},
		{
			"buffer":0,
			"byteLength":24,
			"byteOffset":169772
		},
		{
			"buffer":0,
			"byteLength":336,
			"byteOffset":169796
		},
		{
			"buffer":0,
			"byteLength":24,
			"byteOffset":170132
		},
		{
			"buffer":0,
			"byteLength":24,
			"byteOffset":170156
		},
		{
			"buffer":0,
			"byteLength":336,
			"byteOffset":170180
		},
		{
			"buffer":0,
			"byteLength":24,
			"byteOffset":170516
		},
		{
			"buffer":0,
			"byteLength":24,
			"byteOffset":170540
		},
		{
			"buffer":0,
			"byteLength":336,
			"byteOffset":170564
		},
		{
			"buffer":0,
			"byteLength":24,
			"byteOffset":170900
		},
		{
			"buffer":0,
			"byteLength":24,
			"byteOffset":170924
		},
		{
			"buffer":0,
			"byteLength":336,
			"byteOffset":170948
		},
		{
			"buffer":0,
			"byteLength":24,
			"byteOffset":171284
		},
		{
			"buffer":0,
			"byteLength":24,
			"byteOffset":171308
		},
		{
			"buffer":0,
			"byteLength":32,
			"byteOffset":171332
		},
		{
			"buffer":0,
			"byteLength":24,
			"byteOffset":171364
		},
		{
			"buffer":0,
			"byteLength":24,
			"byteOffset":171388
		},
		{
			"buffer":0,
			"byteLength":336,
			"byteOffset":171412
		},
		{
			"buffer":0,
			"byteLength":24,
			"byteOffset":171748
		},
		{
			"buffer":0,
			"byteLength":24,
			"byteOffset":171772
		},
		{
			"buffer":0,
			"byteLength":336,
			"byteOffset":171796
		},
		{
			"buffer":0,
			"byteLength":24,
			"byteOffset":172132
		},
		{
			"buffer":0,
			"byteLength":24,
			"byteOffset":172156
		},
		{
			"buffer":0,
			"byteLength":336,
			"byteOffset":172180
		},
		{
			"buffer":0,
			"byteLength":24,
			"byteOffset":172516
		},
		{
			"buffer":0,
			"byteLength":24,
			"byteOffset":172540
		},
		{
			"buffer":0,
			"byteLength":32,
			"byteOffset":172564
		},
		{
			"buffer":0,
			"byteLength":24,
			"byteOffset":172596
		},
		{
			"buffer":0,
			"byteLength":252,
			"byteOffset":172620
		},
		{
			"buffer":0,
			"byteLength":336,
			"byteOffset":172872
		},
		{
			"buffer":0,
			"byteLength":24,
			"byteOffset":173208
		},
		{
			"buffer":0,
			"byteLength":8,
			"byteOffset":173232
		},
		{
			"buffer":0,
			"byteLength":24,
			"byteOffset":173240
		},
		{
			"buffer":0,
			"byteLength":32,
			"byteOffset":173264
		},
		{
			"buffer":0,
			"byteLength":24,
			"byteOffset":173296
		},
		{
			"buffer":0,
			"byteLength":104,
			"byteOffset":173320
		},
		{
			"buffer":0,
			"byteLength":312,
			"byteOffset":173424
		},
		{
			"buffer":0,
			"byteLength":32,
			"byteOffset":173736
		},
		{
			"buffer":0,
			"byteLength":24,
			"byteOffset":173768
		},
		{
			"buffer":0,
			"byteLength":24,
			"byteOffset":173792
		},
		{
			"buffer":0,
			"byteLength":32,
			"byteOffset":173816
		},
		{
			"buffer":0,
			"byteLength":24,
			"byteOffset":173848
		},
		{
			"buffer":0,
			"byteLength":24,
			"byteOffset":173872
		},
		{
			"buffer":0,
			"byteLength":416,
			"byteOffset":173896
		},
		{
			"buffer":0,
			"byteLength":24,
			"byteOffset":174312
		},
		{
			"buffer":0,
			"byteLength":24,
			"byteOffset":174336
		},
		{
			"buffer":0,
			"byteLength":416,
			"byteOffset":174360
		},
		{
			"buffer":0,
			"byteLength":24,
			"byteOffset":174776
		},
		{
			"buffer":0,
			"byteLength":24,
			"byteOffset":174800
		},
		{
			"buffer":0,
			"byteLength":416,
			"byteOffset":174824
		},
		{
			"buffer":0,
			"byteLength":24,
			"byteOffset":175240
		},
		{
			"buffer":0,
			"byteLength":24,
			"byteOffset":175264
		},
		{
			"buffer":0,
			"byteLength":416,
			"byteOffset":175288
		},
		{
			"buffer":0,
			"byteLength":24,
			"byteOffset":175704
		},
		{
			"buffer":0,
			"byteLength":24,
			"byteOffset":175728
		},
		{
			"buffer":0,
			"byteLength":32,
			"byteOffset":175752
		},
		{
			"buffer":0,
			"byteLength":24,
			"byteOffset":175784
		},
		{
			"buffer":0,
			"byteLength":24,
			"byteOffset":175808
		},
		{
			"buffer":0,
			"byteLength":416,
			"byteOffset":175832
		},
		{
			"buffer":0,
			"byteLength":24,
			"byteOffset":176248
		},
		{
			"buffer":0,
			"byteLength":24,
			"byteOffset":176272
		},
		{
			"buffer":0,
			"byteLength":416,
			"byteOffset":176296
		},
		{
			"buffer":0,
			"byteLength":24,
			"byteOffset":176712
		},
		{
			"buffer":0,
			"byteLength":24,
			"byteOffset":176736
		},
		{
			"buffer":0,
			"byteLength":416,
			"byteOffset":176760
		},
		{
			"buffer":0,
			"byteLength":24,
			"byteOffset":177176
		},
		{
			"buffer":0,
			"byteLength":24,
			"byteOffset":177200
		},
		{
			"buffer":0,
			"byteLength":32,
			"byteOffset":177224
		},
		{
			"buffer":0,
			"byteLength":24,
			"byteOffset":177256
		},
		{
			"buffer":0,
			"byteLength":312,
			"byteOffset":177280
		},
		{
			"buffer":0,
			"byteLength":32,
			"byteOffset":177592
		},
		{
			"buffer":0,
			"byteLength":24,
			"byteOffset":177624
		},
		{
			"buffer":0,
			"byteLength":8,
			"byteOffset":177648
		},
		{
			"buffer":0,
			"byteLength":24,
			"byteOffset":177656
		},
		{
			"buffer":0,
			"byteLength":32,
			"byteOffset":177680
		},
		{
			"buffer":0,
			"byteLength":24,
			"byteOffset":177712
		},
		{
			"buffer":0,
			"byteLength":144,
			"byteOffset":177736
		},
		{
			"buffer":0,
			"byteLength":432,
			"byteOffset":177880
		},
		{
			"buffer":0,
			"byteLength":32,
			"byteOffset":178312
		},
		{
			"buffer":0,
			"byteLength":24,
			"byteOffset":178344
		},
		{
			"buffer":0,
			"byteLength":24,
			"byteOffset":178368
		},
		{
			"buffer":0,
			"byteLength":32,
			"byteOffset":178392
		},
		{
			"buffer":0,
			"byteLength":24,
			"byteOffset":178424
		},
		{
			"buffer":0,
			"byteLength":24,
			"byteOffset":178448
		},
		{
			"buffer":0,
			"byteLength":576,
			"byteOffset":178472
		},
		{
			"buffer":0,
			"byteLength":24,
			"byteOffset":179048
		},
		{
			"buffer":0,
			"byteLength":24,
			"byteOffset":179072
		},
		{
			"buffer":0,
			"byteLength":576,
			"byteOffset":179096
		},
		{
			"buffer":0,
			"byteLength":24,
			"byteOffset":179672
		},
		{
			"buffer":0,
			"byteLength":24,
			"byteOffset":179696
		},
		{
			"buffer":0,
			"byteLength":576,
			"byteOffset":179720
		},
		{
			"buffer":0,
			"byteLength":24,
			"byteOffset":180296
		},
		{
			"buffer":0,
			"byteLength":24,
			"byteOffset":180320
		},
		{
			"buffer":0,
			"byteLength":576,
			"byteOffset":180344
		},
		{
			"buffer":0,
			"byteLength":24,
			"byteOffset":180920
		},
		{
			"buffer":0,
			"byteLength":24,
			"byteOffset":180944
		},
		{
			"buffer":0,
			"byteLength":32,
			"byteOffset":180968
		},
		{
			"buffer":0,
			"byteLength":24,
			"byteOffset":181000
		},
		{
			"buffer":0,
			"byteLength":24,
			"byteOffset":181024
		},
		{
			"buffer":0,
			"byteLength":576,
			"byteOffset":181048
		},
		{
			"buffer":0,
			"byteLength":24,
			"byteOffset":181624
		},
		{
			"buffer":0,
			"byteLength":24,
			"byteOffset":181648
		},
		{
			"buffer":0,
			"byteLength":576,
			"byteOffset":181672
		},
		{
			"buffer":0,
			"byteLength":24,
			"byteOffset":182248
		},
		{
			"buffer":0,
			"byteLength":24,
			"byteOffset":182272
		},
		{
			"buffer":0,
			"byteLength":576,
			"byteOffset":182296
		},
		{
			"buffer":0,
			"byteLength":24,
			"byteOffset":182872
		},
		{
			"buffer":0,
			"byteLength":24,
			"byteOffset":182896
		},
		{
			"buffer":0,
			"byteLength":32,
			"byteOffset":182920
		},
		{
			"buffer":0,
			"byteLength":24,
			"byteOffset":182952
		},
		{
			"buffer":0,
			"byteLength":432,
			"byteOffset":182976
		},
		{
			"buffer":0,
			"byteLength":32,
			"byteOffset":183408
		},
		{
			"buffer":0,
			"byteLength":24,
			"byteOffset":183440
		},
		{
			"buffer":0,
			"byteLength":24,
			"byteOffset":183464
		},
		{
			"buffer":0,
			"byteLength":32,
			"byteOffset":183488
		},
		{
			"buffer":0,
			"byteLength":24,
			"byteOffset":183520
		},
		{
			"buffer":0,
			"byteLength":432,
			"byteOffset":183544
		},
		{
			"buffer":0,
			"byteLength":576,
			"byteOffset":183976
		},
		{
			"buffer":0,
			"byteLength":24,
			"byteOffset":184552
		},
		{
			"buffer":0,
			"byteLength":24,
			"byteOffset":184576
		},
		{
			"buffer":0,
			"byteLength":32,
			"byteOffset":184600
		},
		{
			"buffer":0,
			"byteLength":24,
			"byteOffset":184632
		},
		{
			"buffer":0,
			"byteLength":24,
			"byteOffset":184656
		},
		{
			"buffer":0,
			"byteLength":576,
			"byteOffset":184680
		},
		{
			"buffer":0,
			"byteLength":24,
			"byteOffset":185256
		},
		{
			"buffer":0,
			"byteLength":24,
			"byteOffset":185280
		},
		{
			"buffer":0,
			"byteLength":576,
			"byteOffset":185304
		},
		{
			"buffer":0,
			"byteLength":24,
			"byteOffset":185880
		},
		{
			"buffer":0,
			"byteLength":24,
			"byteOffset":185904
		},
		{
			"buffer":0,
			"byteLength":576,
			"byteOffset":185928
		},
		{
			"buffer":0,
			"byteLength":24,
			"byteOffset":186504
		},
		{
			"buffer":0,
			"byteLength":24,
			"byteOffset":186528
		},
		{
			"buffer":0,
			"byteLength":576,
			"byteOffset":186552
		},
		{
			"buffer":0,
			"byteLength":24,
			"byteOffset":187128
		},
		{
			"buffer":0,
			"byteLength":24,
			"byteOffset":187152
		},
		{
			"buffer":0,
			"byteLength":32,
			"byteOffset":187176
		},
		{
			"buffer":0,
			"byteLength":24,
			"byteOffset":187208
		},
		{
			"buffer":0,
			"byteLength":24,
			"byteOffset":187232
		},
		{
			"buffer":0,
			"byteLength":576,
			"byteOffset":187256
		},
		{
			"buffer":0,
			"byteLength":24,
			"byteOffset":187832
		},
		{
			"buffer":0,
			"byteLength":24,
			"byteOffset":187856
		},
		{
			"buffer":0,
			"byteLength":576,
			"byteOffset":187880
		},
		{
			"buffer":0,
			"byteLength":24,
			"byteOffset":188456
		},
		{
			"buffer":0,
			"byteLength":24,
			"byteOffset":188480
		},
		{
			"buffer":0,
			"byteLength":576,
			"byteOffset":188504
		},
		{
			"buffer":0,
			"byteLength":24,
			"byteOffset":189080
		},
		{
			"buffer":0,
			"byteLength":24,
			"byteOffset":189104
		},
		{
			"buffer":0,
			"byteLength":32,
			"byteOffset":189128
		},
		{
			"buffer":0,
			"byteLength":24,
			"byteOffset":189160
		},
		{
			"buffer":0,
			"byteLength":432,
			"byteOffset":189184
		},
		{
			"buffer":0,
			"byteLength":576,
			"byteOffset":189616
		},
		{
			"buffer":0,
			"byteLength":24,
			"byteOffset":190192
		},
		{
			"buffer":0,
			"byteLength":8,
			"byteOffset":190216
		},
		{
			"buffer":0,
			"byteLength":24,
			"byteOffset":190224
		},
		{
			"buffer":0,
			"byteLength":32,
			"byteOffset":190248
		},
		{
			"buffer":0,
			"byteLength":24,
			"byteOffset":190280
		},
		{
			"buffer":0,
			"byteLength":60,
			"byteOffset":190304
		},
		{
			"buffer":0,
			"byteLength":180,
			"byteOffset":190364
		},
		{
			"buffer":0,
			"byteLength":240,
			"byteOffset":190544
		},
		{
			"buffer":0,
			"byteLength":24,
			"byteOffset":190784
		},
		{
			"buffer":0,
			"byteLength":24,
			"byteOffset":190808
		},
		{
			"buffer":0,
			"byteLength":240,
			"byteOffset":190832
		},
		{
			"buffer":0,
			"byteLength":24,
			"byteOffset":191072
		},
		{
			"buffer":0,
			"byteLength":24,
			"byteOffset":191096
		},
		{
			"buffer":0,
			"byteLength":240,
			"byteOffset":191120
		},
		{
			"buffer":0,
			"byteLength":24,
			"byteOffset":191360
		},
		{
			"buffer":0,
			"byteLength":24,
			"byteOffset":191384
		},
		{
			"buffer":0,
			"byteLength":240,
			"byteOffset":191408
		},
		{
			"buffer":0,
			"byteLength":24,
			"byteOffset":191648
		},
		{
			"buffer":0,
			"byteLength":24,
			"byteOffset":191672
		},
		{
			"buffer":0,
			"byteLength":240,
			"byteOffset":191696
		},
		{
			"buffer":0,
			"byteLength":24,
			"byteOffset":191936
		},
		{
			"buffer":0,
			"byteLength":24,
			"byteOffset":191960
		},
		{
			"buffer":0,
			"byteLength":240,
			"byteOffset":191984
		},
		{
			"buffer":0,
			"byteLength":24,
			"byteOffset":192224
		},
		{
			"buffer":0,
			"byteLength":24,
			"byteOffset":192248
		},
		{
			"buffer":0,
			"byteLength":32,
			"byteOffset":192272
		},
		{
			"buffer":0,
			"byteLength":24,
			"byteOffset":192304
		},
		{
			"buffer":0,
			"byteLength":24,
			"byteOffset":192328
		},
		{
			"buffer":0,
			"byteLength":240,
			"byteOffset":192352
		},
		{
			"buffer":0,
			"byteLength":24,
			"byteOffset":192592
		},
		{
			"buffer":0,
			"byteLength":24,
			"byteOffset":192616
		},
		{
			"buffer":0,
			"byteLength":240,
			"byteOffset":192640
		},
		{
			"buffer":0,
			"byteLength":24,
			"byteOffset":192880
		},
		{
			"buffer":0,
			"byteLength":24,
			"byteOffset":192904
		},
		{
			"buffer":0,
			"byteLength":240,
			"byteOffset":192928
		},
		{
			"buffer":0,
			"byteLength":24,
			"byteOffset":193168
		},
		{
			"buffer":0,
			"byteLength":24,
			"byteOffset":193192
		},
		{
			"buffer":0,
			"byteLength":32,
			"byteOffset":193216
		},
		{
			"buffer":0,
			"byteLength":24,
			"byteOffset":193248
		},
		{
			"buffer":0,
			"byteLength":180,
			"byteOffset":193272
		},
		{
			"buffer":0,
			"byteLength":32,
			"byteOffset":193452
		},
		{
			"buffer":0,
			"byteLength":24,
			"byteOffset":193484
		},
		{
			"buffer":0,
			"byteLength":24,
			"byteOffset":193508
		},
		{
			"buffer":0,
			"byteLength":32,
			"byteOffset":193532
		},
		{
			"buffer":0,
			"byteLength":24,
			"byteOffset":193564
		},
		{
			"buffer":0,
			"byteLength":432,
			"byteOffset":193588
		},
		{
			"buffer":0,
			"byteLength":32,
			"byteOffset":194020
		},
		{
			"buffer":0,
			"byteLength":24,
			"byteOffset":194052
		},
		{
			"buffer":0,
			"byteLength":24,
			"byteOffset":194076
		},
		{
			"buffer":0,
			"byteLength":576,
			"byteOffset":194100
		},
		{
			"buffer":0,
			"byteLength":24,
			"byteOffset":194676
		},
		{
			"buffer":0,
			"byteLength":24,
			"byteOffset":194700
		},
		{
			"buffer":0,
			"byteLength":576,
			"byteOffset":194724
		},
		{
			"buffer":0,
			"byteLength":24,
			"byteOffset":195300
		},
		{
			"buffer":0,
			"byteLength":24,
			"byteOffset":195324
		},
		{
			"buffer":0,
			"byteLength":576,
			"byteOffset":195348
		},
		{
			"buffer":0,
			"byteLength":24,
			"byteOffset":195924
		},
		{
			"buffer":0,
			"byteLength":24,
			"byteOffset":195948
		},
		{
			"buffer":0,
			"byteLength":576,
			"byteOffset":195972
		},
		{
			"buffer":0,
			"byteLength":24,
			"byteOffset":196548
		},
		{
			"buffer":0,
			"byteLength":24,
			"byteOffset":196572
		},
		{
			"buffer":0,
			"byteLength":576,
			"byteOffset":196596
		},
		{
			"buffer":0,
			"byteLength":24,
			"byteOffset":197172
		},
		{
			"buffer":0,
			"byteLength":24,
			"byteOffset":197196
		},
		{
			"buffer":0,
			"byteLength":32,
			"byteOffset":197220
		},
		{
			"buffer":0,
			"byteLength":24,
			"byteOffset":197252
		},
		{
			"buffer":0,
			"byteLength":24,
			"byteOffset":197276
		},
		{
			"buffer":0,
			"byteLength":576,
			"byteOffset":197300
		},
		{
			"buffer":0,
			"byteLength":24,
			"byteOffset":197876
		},
		{
			"buffer":0,
			"byteLength":24,
			"byteOffset":197900
		},
		{
			"buffer":0,
			"byteLength":576,
			"byteOffset":197924
		},
		{
			"buffer":0,
			"byteLength":24,
			"byteOffset":198500
		},
		{
			"buffer":0,
			"byteLength":24,
			"byteOffset":198524
		},
		{
			"buffer":0,
			"byteLength":576,
			"byteOffset":198548
		},
		{
			"buffer":0,
			"byteLength":24,
			"byteOffset":199124
		},
		{
			"buffer":0,
			"byteLength":24,
			"byteOffset":199148
		},
		{
			"buffer":0,
			"byteLength":32,
			"byteOffset":199172
		},
		{
			"buffer":0,
			"byteLength":24,
			"byteOffset":199204
		},
		{
			"buffer":0,
			"byteLength":432,
			"byteOffset":199228
		},
		{
			"buffer":0,
			"byteLength":32,
			"byteOffset":199660
		},
		{
			"buffer":0,
			"byteLength":24,
			"byteOffset":199692
		},
		{
			"buffer":0,
			"byteLength":24,
			"byteOffset":199716
		},
		{
			"buffer":0,
			"byteLength":32,
			"byteOffset":199740
		},
		{
			"buffer":0,
			"byteLength":24,
			"byteOffset":199772
		},
		{
			"buffer":0,
			"byteLength":432,
			"byteOffset":199796
		},
		{
			"buffer":0,
			"byteLength":576,
			"byteOffset":200228
		},
		{
			"buffer":0,
			"byteLength":24,
			"byteOffset":200804
		},
		{
			"buffer":0,
			"byteLength":24,
			"byteOffset":200828
		},
		{
			"buffer":0,
			"byteLength":32,
			"byteOffset":200852
		},
		{
			"buffer":0,
			"byteLength":24,
			"byteOffset":200884
		},
		{
			"buffer":0,
			"byteLength":24,
			"byteOffset":200908
		},
		{
			"buffer":0,
			"byteLength":576,
			"byteOffset":200932
		},
		{
			"buffer":0,
			"byteLength":24,
			"byteOffset":201508
		},
		{
			"buffer":0,
			"byteLength":24,
			"byteOffset":201532
		},
		{
			"buffer":0,
			"byteLength":576,
			"byteOffset":201556
		},
		{
			"buffer":0,
			"byteLength":24,
			"byteOffset":202132
		},
		{
			"buffer":0,
			"byteLength":24,
			"byteOffset":202156
		},
		{
			"buffer":0,
			"byteLength":576,
			"byteOffset":202180
		},
		{
			"buffer":0,
			"byteLength":24,
			"byteOffset":202756
		},
		{
			"buffer":0,
			"byteLength":24,
			"byteOffset":202780
		},
		{
			"buffer":0,
			"byteLength":576,
			"byteOffset":202804
		},
		{
			"buffer":0,
			"byteLength":24,
			"byteOffset":203380
		},
		{
			"buffer":0,
			"byteLength":24,
			"byteOffset":203404
		},
		{
			"buffer":0,
			"byteLength":32,
			"byteOffset":203428
		},
		{
			"buffer":0,
			"byteLength":24,
			"byteOffset":203460
		},
		{
			"buffer":0,
			"byteLength":24,
			"byteOffset":203484
		},
		{
			"buffer":0,
			"byteLength":576,
			"byteOffset":203508
		},
		{
			"buffer":0,
			"byteLength":24,
			"byteOffset":204084
		},
		{
			"buffer":0,
			"byteLength":24,
			"byteOffset":204108
		},
		{
			"buffer":0,
			"byteLength":576,
			"byteOffset":204132
		},
		{
			"buffer":0,
			"byteLength":24,
			"byteOffset":204708
		},
		{
			"buffer":0,
			"byteLength":24,
			"byteOffset":204732
		},
		{
			"buffer":0,
			"byteLength":576,
			"byteOffset":204756
		},
		{
			"buffer":0,
			"byteLength":24,
			"byteOffset":205332
		},
		{
			"buffer":0,
			"byteLength":24,
			"byteOffset":205356
		},
		{
			"buffer":0,
			"byteLength":32,
			"byteOffset":205380
		},
		{
			"buffer":0,
			"byteLength":24,
			"byteOffset":205412
		},
		{
			"buffer":0,
			"byteLength":432,
			"byteOffset":205436
		},
		{
			"buffer":0,
			"byteLength":576,
			"byteOffset":205868
		},
		{
			"buffer":0,
			"byteLength":24,
			"byteOffset":206444
		},
		{
			"buffer":0,
			"byteLength":24,
			"byteOffset":206468
		},
		{
			"buffer":0,
			"byteLength":32,
			"byteOffset":206492
		},
		{
			"buffer":0,
			"byteLength":24,
			"byteOffset":206524
		},
		{
			"buffer":0,
			"byteLength":432,
			"byteOffset":206548
		},
		{
			"buffer":0,
			"byteLength":32,
			"byteOffset":206980
		},
		{
			"buffer":0,
			"byteLength":24,
			"byteOffset":207012
		},
		{
			"buffer":0,
			"byteLength":24,
			"byteOffset":207036
		},
		{
			"buffer":0,
			"byteLength":576,
			"byteOffset":207060
		},
		{
			"buffer":0,
			"byteLength":24,
			"byteOffset":207636
		},
		{
			"buffer":0,
			"byteLength":24,
			"byteOffset":207660
		},
		{
			"buffer":0,
			"byteLength":576,
			"byteOffset":207684
		},
		{
			"buffer":0,
			"byteLength":24,
			"byteOffset":208260
		},
		{
			"buffer":0,
			"byteLength":24,
			"byteOffset":208284
		},
		{
			"buffer":0,
			"byteLength":576,
			"byteOffset":208308
		},
		{
			"buffer":0,
			"byteLength":24,
			"byteOffset":208884
		},
		{
			"buffer":0,
			"byteLength":24,
			"byteOffset":208908
		},
		{
			"buffer":0,
			"byteLength":576,
			"byteOffset":208932
		},
		{
			"buffer":0,
			"byteLength":24,
			"byteOffset":209508
		},
		{
			"buffer":0,
			"byteLength":24,
			"byteOffset":209532
		},
		{
			"buffer":0,
			"byteLength":576,
			"byteOffset":209556
		},
		{
			"buffer":0,
			"byteLength":24,
			"byteOffset":210132
		},
		{
			"buffer":0,
			"byteLength":24,
			"byteOffset":210156
		},
		{
			"buffer":0,
			"byteLength":32,
			"byteOffset":210180
		},
		{
			"buffer":0,
			"byteLength":24,
			"byteOffset":210212
		},
		{
			"buffer":0,
			"byteLength":24,
			"byteOffset":210236
		},
		{
			"buffer":0,
			"byteLength":576,
			"byteOffset":210260
		},
		{
			"buffer":0,
			"byteLength":24,
			"byteOffset":210836
		},
		{
			"buffer":0,
			"byteLength":24,
			"byteOffset":210860
		},
		{
			"buffer":0,
			"byteLength":576,
			"byteOffset":210884
		},
		{
			"buffer":0,
			"byteLength":24,
			"byteOffset":211460
		},
		{
			"buffer":0,
			"byteLength":24,
			"byteOffset":211484
		},
		{
			"buffer":0,
			"byteLength":576,
			"byteOffset":211508
		},
		{
			"buffer":0,
			"byteLength":24,
			"byteOffset":212084
		},
		{
			"buffer":0,
			"byteLength":24,
			"byteOffset":212108
		},
		{
			"buffer":0,
			"byteLength":32,
			"byteOffset":212132
		},
		{
			"buffer":0,
			"byteLength":24,
			"byteOffset":212164
		},
		{
			"buffer":0,
			"byteLength":432,
			"byteOffset":212188
		},
		{
			"buffer":0,
			"byteLength":32,
			"byteOffset":212620
		},
		{
			"buffer":0,
			"byteLength":24,
			"byteOffset":212652
		}
	],
	"samplers":[
		{
			"magFilter":9729,
			"minFilter":9987
		}
	],
	"buffers":[
		{
			"byteLength":212676,
			"uri":"Player.bin"
		}
	]
}
