# Blender 4.1.1
# www.blender.org
mtllib Player.mtl
o Cube
v 0.400000 0.400000 0.400000
v 0.400000 -0.400000 0.400000
v -0.400000 0.400000 0.400000
v -0.400000 -0.400000 0.400000
v 0.400000 0.400000 -0.400000
v 0.400000 -0.400000 -0.400000
v -0.400000 0.400000 -0.400000
v -0.400000 -0.400000 -0.400000
vn -0.0000 1.0000 -0.0000
vn -1.0000 -0.0000 -0.0000
vn -0.0000 -0.0000 -1.0000
vn -0.0000 -1.0000 -0.0000
vn -0.0000 -0.0000 1.0000
vn 1.0000 -0.0000 -0.0000
vt 0.495889 0.753374
vt 0.251706 0.506079
vt 0.497444 0.507635
vt 0.007523 0.258785
vt 0.253261 0.260341
vt 0.988921 0.510746
vt 0.744738 0.263452
vt 0.990477 0.265008
vt 0.499000 0.261896
vt 0.254817 0.014602
vt 0.500555 0.016158
vt 0.743183 0.509191
vt 0.250150 0.751818
vt 0.005967 0.504524
s 0
usemtl Material.001
f 5/1/1 3/2/1 1/3/1
f 3/2/2 8/4/2 4/5/2
f 7/6/3 6/7/3 8/8/3
f 2/9/4 8/10/4 6/11/4
f 1/3/5 4/5/5 2/9/5
f 5/12/6 2/9/6 6/7/6
f 5/1/1 7/13/1 3/2/1
f 3/2/2 7/14/2 8/4/2
f 7/6/3 5/12/3 6/7/3
f 2/9/4 4/5/4 8/10/4
f 1/3/5 3/2/5 4/5/5
f 5/12/6 1/3/6 2/9/6
