# Blender 4.1.1
# www.blender.org
mtllib Player.mtl
o Cylinder.001
v 0.413809 0.531818 0.000000
v 0.413809 0.810431 0.000000
v 0.411132 0.531818 0.027177
v 0.411132 0.810431 0.027177
v 0.403205 0.531818 0.053310
v 0.403205 0.810431 0.053310
v 0.390331 0.531818 0.077395
v 0.390331 0.810431 0.077395
v 0.373007 0.531818 0.098505
v 0.373007 0.810431 0.098505
v 0.351897 0.531818 0.115829
v 0.351897 0.810431 0.115829
v 0.327812 0.531818 0.128703
v 0.327812 0.810431 0.128703
v 0.301679 0.531818 0.136630
v 0.301679 0.810431 0.136630
v 0.274502 0.531818 0.139307
v 0.274502 0.810431 0.139307
v 0.247325 0.531818 0.136630
v 0.247325 0.810431 0.136630
v 0.221192 0.531818 0.128703
v 0.221192 0.810431 0.128703
v 0.197107 0.531818 0.115829
v 0.197107 0.810431 0.115829
v 0.175997 0.531818 0.098505
v 0.175997 0.810431 0.098505
v 0.158673 0.531818 0.077395
v 0.158673 0.810431 0.077395
v 0.145799 0.531818 0.053310
v 0.145799 0.810431 0.053310
v 0.137872 0.531818 0.027177
v 0.137872 0.810431 0.027177
v 0.135195 0.531818 0.000000
v 0.135195 0.810431 0.000000
v 0.137872 0.531818 -0.027177
v 0.137872 0.810431 -0.027177
v 0.145799 0.531818 -0.053310
v 0.145799 0.810431 -0.053310
v 0.158673 0.531818 -0.077395
v 0.158673 0.810431 -0.077395
v 0.175997 0.531818 -0.098505
v 0.175997 0.810431 -0.098505
v 0.197107 0.531818 -0.115829
v 0.197107 0.810431 -0.115829
v 0.221192 0.531818 -0.128703
v 0.221192 0.810431 -0.128703
v 0.247325 0.531818 -0.136630
v 0.247325 0.810431 -0.136630
v 0.274502 0.531818 -0.139307
v 0.274502 0.810431 -0.139307
v 0.301679 0.531818 -0.136630
v 0.301679 0.810431 -0.136630
v 0.327812 0.531818 -0.128703
v 0.327812 0.810431 -0.128703
v 0.351897 0.531818 -0.115829
v 0.351897 0.810431 -0.115829
v 0.373007 0.531818 -0.098505
v 0.373007 0.810431 -0.098505
v 0.390331 0.531818 -0.077395
v 0.390331 0.810431 -0.077395
v 0.403205 0.531818 -0.053310
v 0.403205 0.810431 -0.053310
v 0.411132 0.531818 -0.027177
v 0.411132 0.810431 -0.027177
v 0.569698 0.726269 0.359742
v 0.569698 -0.923947 0.359742
v -0.569698 0.726269 0.359742
v -0.569698 -0.923947 0.359742
v 0.569698 0.726269 -0.359742
v 0.569698 -0.923947 -0.359742
v -0.569698 0.726269 -0.359742
v -0.569698 -0.923947 -0.359742
v -0.131217 0.748277 -0.000000
v -0.133893 0.748277 0.027177
v -0.141821 0.748277 0.053310
v -0.154694 0.748277 0.077395
v -0.172019 0.748277 0.098505
v -0.193129 0.748277 0.115829
v -0.217213 0.748277 0.128703
v -0.243346 0.748277 0.136630
v -0.270524 0.748277 0.139307
v -0.297701 0.748277 0.136630
v -0.323834 0.748277 0.128703
v -0.347918 0.748277 0.115829
v -0.369028 0.748277 0.098505
v -0.386353 0.748277 0.077395
v -0.399226 0.748277 0.053310
v -0.407154 0.748277 0.027177
v -0.409830 0.748277 -0.000000
v -0.407154 0.748277 -0.027177
v -0.399226 0.748277 -0.053310
v -0.386353 0.748277 -0.077395
v -0.369028 0.748277 -0.098505
v -0.347918 0.748277 -0.115829
v -0.323834 0.748277 -0.128703
v -0.297701 0.748277 -0.136630
v -0.270524 0.748277 -0.139307
v -0.243346 0.748277 -0.136630
v -0.217213 0.748277 -0.128703
v -0.193129 0.748277 -0.115829
v -0.172019 0.748277 -0.098505
v -0.154694 0.748277 -0.077395
v -0.141821 0.748277 -0.053310
v -0.133893 0.748277 -0.027177
v -0.068098 0.474579 -0.000000
v -0.068098 0.867670 -0.000000
v -0.071874 0.474579 0.038344
v -0.071874 0.867670 0.038344
v -0.083059 0.474579 0.075215
v -0.083059 0.867670 0.075215
v -0.101222 0.474579 0.109195
v -0.101222 0.867670 0.109195
v -0.125665 0.474579 0.138979
v -0.125665 0.867670 0.138979
v -0.155448 0.474579 0.163422
v -0.155448 0.867670 0.163422
v -0.189429 0.474579 0.181584
v -0.189429 0.867670 0.181584
v -0.226299 0.474579 0.192769
v -0.226299 0.867670 0.192769
v -0.264643 0.474579 0.196546
v -0.264643 0.867670 0.196546
v -0.302987 0.474579 0.192769
v -0.302987 0.867670 0.192769
v -0.339858 0.474579 0.181584
v -0.339858 0.867670 0.181584
v -0.373838 0.474579 0.163422
v -0.373838 0.867670 0.163422
v -0.403622 0.474579 0.138979
v -0.403622 0.867670 0.138979
v -0.428065 0.474579 0.109195
v -0.428065 0.867670 0.109195
v -0.446228 0.474579 0.075215
v -0.446228 0.867670 0.075215
v -0.457412 0.474579 0.038344
v -0.457412 0.867670 0.038344
v -0.461189 0.474579 -0.000000
v -0.461189 0.867670 -0.000000
v -0.457412 0.474579 -0.038344
v -0.457412 0.867670 -0.038344
v -0.446228 0.474579 -0.075215
v -0.446228 0.867670 -0.075215
v -0.428065 0.474579 -0.109195
v -0.428065 0.867670 -0.109195
v -0.403622 0.474579 -0.138979
v -0.403622 0.867670 -0.138979
v -0.373838 0.474579 -0.163422
v -0.373838 0.867670 -0.163422
v -0.339858 0.474579 -0.181584
v -0.339858 0.867670 -0.181584
v -0.302987 0.474579 -0.192769
v -0.302987 0.867670 -0.192769
v -0.264643 0.474579 -0.196546
v -0.264643 0.867670 -0.196546
v -0.226299 0.474579 -0.192769
v -0.226299 0.867670 -0.192769
v -0.189429 0.474579 -0.181584
v -0.189429 0.867670 -0.181584
v -0.155448 0.474579 -0.163422
v -0.155448 0.867670 -0.163422
v -0.125665 0.474579 -0.138979
v -0.125665 0.867670 -0.138979
v -0.101222 0.474579 -0.109195
v -0.101222 0.867670 -0.109195
v -0.083059 0.474579 -0.075215
v -0.083059 0.867670 -0.075215
v -0.071874 0.474579 -0.038344
v -0.071874 0.867670 -0.038344
v -0.217213 0.867670 -0.128703
v -0.193129 0.867670 -0.115829
v -0.141821 0.867670 0.053310
v -0.133893 0.867670 0.027177
v -0.243346 0.867670 -0.136630
v -0.172019 0.867670 0.098505
v -0.386353 0.867670 0.077395
v -0.399226 0.867670 0.053310
v -0.193129 0.867670 0.115829
v -0.407154 0.867670 0.027177
v -0.399226 0.867670 -0.053310
v -0.270524 0.867670 -0.139307
v -0.141821 0.867670 -0.053310
v -0.386353 0.867670 -0.077395
v -0.297701 0.867670 0.136630
v -0.369028 0.867670 0.098505
v -0.323834 0.867670 0.128703
v -0.270524 0.867670 0.139307
v -0.172019 0.867670 -0.098505
v -0.154694 0.867670 -0.077395
v -0.409830 0.867670 -0.000000
v -0.131217 0.867670 -0.000000
v -0.243346 0.867670 0.136630
v -0.154694 0.867670 0.077395
v -0.217213 0.867670 0.128703
v -0.323834 0.867670 -0.128703
v -0.347918 0.867670 -0.115829
v -0.297701 0.867670 -0.136630
v -0.369028 0.867670 -0.098505
v -0.407154 0.867670 -0.027177
v -0.347918 0.867670 0.115829
v -0.133893 0.867670 -0.027177
vn 0.9952 -0.0000 0.0980
vn 0.9569 -0.0000 0.2903
vn 0.8819 -0.0000 0.4714
vn 0.7730 -0.0000 0.6344
vn 0.6344 -0.0000 0.7730
vn 0.4714 -0.0000 0.8819
vn 0.2903 -0.0000 0.9569
vn 0.0980 -0.0000 0.9952
vn -0.0980 -0.0000 0.9952
vn -0.2903 -0.0000 0.9569
vn -0.4714 -0.0000 0.8819
vn -0.6344 -0.0000 0.7730
vn -0.7730 -0.0000 0.6344
vn -0.8819 -0.0000 0.4714
vn -0.9569 -0.0000 0.2903
vn -0.9952 -0.0000 0.0980
vn -0.9952 -0.0000 -0.0980
vn -0.9569 -0.0000 -0.2903
vn -0.8819 -0.0000 -0.4714
vn -0.7730 -0.0000 -0.6344
vn -0.6344 -0.0000 -0.7730
vn -0.4714 -0.0000 -0.8819
vn -0.2903 -0.0000 -0.9569
vn -0.0980 -0.0000 -0.9952
vn 0.0980 -0.0000 -0.9952
vn 0.2903 -0.0000 -0.9569
vn 0.4714 -0.0000 -0.8819
vn 0.6344 -0.0000 -0.7730
vn 0.7730 -0.0000 -0.6344
vn 0.8819 -0.0000 -0.4714
vn -0.0000 1.0000 -0.0000
vn 0.9569 -0.0000 -0.2903
vn 0.9952 -0.0000 -0.0980
vn -0.0000 -1.0000 -0.0000
vn -1.0000 -0.0000 -0.0000
vn -0.0000 -0.0000 -1.0000
vn -0.0000 -0.0000 1.0000
vn 1.0000 -0.0000 -0.0000
vn 0.0001 1.0000 -0.0000
vt 0.709863 0.837782
vt 0.691133 0.838953
vt 0.691133 0.837782
vt 0.709863 0.838953
vt 0.691133 0.840123
vt 0.709863 0.840123
vt 0.691133 0.841294
vt 0.709863 0.841294
vt 0.691133 0.842465
vt 0.709863 0.842465
vt 0.691133 0.843635
vt 0.709863 0.843635
vt 0.691133 0.844806
vt 0.709863 0.844806
vt 0.691133 0.845977
vt 0.709863 0.845977
vt 0.691133 0.847147
vt 0.709863 0.847147
vt 0.691133 0.848318
vt 0.709863 0.848318
vt 0.691133 0.849488
vt 0.709863 0.849488
vt 0.691133 0.850659
vt 0.709863 0.850659
vt 0.691133 0.851830
vt 0.709863 0.851830
vt 0.691133 0.853000
vt 0.709863 0.853000
vt 0.691133 0.854171
vt 0.709863 0.854171
vt 0.691133 0.855342
vt 0.709863 0.855342
vt 0.691133 0.856512
vt 0.709863 0.856512
vt 0.691133 0.857683
vt 0.709863 0.857683
vt 0.691133 0.858854
vt 0.709863 0.858854
vt 0.691133 0.860024
vt 0.709863 0.860024
vt 0.691133 0.861195
vt 0.709863 0.861195
vt 0.691133 0.862366
vt 0.709863 0.862366
vt 0.691133 0.863536
vt 0.709863 0.863536
vt 0.691133 0.864707
vt 0.709863 0.864707
vt 0.691133 0.865878
vt 0.709863 0.865878
vt 0.691133 0.867048
vt 0.709863 0.867048
vt 0.691133 0.868219
vt 0.709863 0.868219
vt 0.691133 0.869390
vt 0.709863 0.869390
vt 0.691133 0.870560
vt 0.709863 0.870560
vt 0.691133 0.871731
vt 0.709863 0.871731
vt 0.691133 0.872901
vt 0.789928 0.838126
vt 0.801141 0.844120
vt 0.795147 0.855333
vt 0.709863 0.872901
vt 0.691133 0.874072
vt 0.709863 0.874072
vt 0.691133 0.875243
vt 0.747013 0.845848
vt 0.737185 0.837782
vt 0.729119 0.847611
vt 0.239721 0.593143
vt 0.046246 0.899536
vt 0.046246 0.593143
vt 0.989730 0.441891
vt 0.799384 0.005310
vt 0.989730 0.005310
vt 0.799384 0.441891
vt 0.497945 0.005310
vt 0.532395 0.597298
vt 0.338919 0.903692
vt 0.338919 0.597298
vt 0.307598 0.441891
vt 0.006160 0.005310
vt 0.307598 0.005310
vt 0.497945 0.441891
vt 0.850895 0.851269
vt 0.858921 0.850098
vt 0.850895 0.850098
vt 0.850895 0.852440
vt 0.858921 0.851269
vt 0.850895 0.853610
vt 0.858921 0.852440
vt 0.850895 0.854781
vt 0.858921 0.853610
vt 0.850895 0.855952
vt 0.858921 0.854781
vt 0.850895 0.857122
vt 0.858921 0.855952
vt 0.850895 0.858293
vt 0.858921 0.857122
vt 0.850895 0.859464
vt 0.858921 0.858293
vt 0.850895 0.860634
vt 0.858921 0.859464
vt 0.850895 0.861805
vt 0.858921 0.860634
vt 0.850895 0.862976
vt 0.858921 0.861805
vt 0.850895 0.864146
vt 0.858921 0.862976
vt 0.850895 0.865317
vt 0.858921 0.864146
vt 0.850895 0.866487
vt 0.858921 0.865317
vt 0.850895 0.867658
vt 0.858921 0.866487
vt 0.858921 0.868829
vt 0.858921 0.867658
vt 0.850895 0.869999
vt 0.850895 0.868829
vt 0.850895 0.871170
vt 0.858921 0.869999
vt 0.850895 0.872341
vt 0.858921 0.871170
vt 0.850895 0.873511
vt 0.858921 0.872341
vt 0.850895 0.874682
vt 0.858921 0.873511
vt 0.850895 0.875853
vt 0.858921 0.874682
vt 0.858921 0.877023
vt 0.858921 0.875853
vt 0.850895 0.878194
vt 0.850895 0.877023
vt 0.850895 0.879365
vt 0.858921 0.878194
vt 0.850895 0.880535
vt 0.858921 0.879365
vt 0.850895 0.881706
vt 0.858921 0.880535
vt 0.850895 0.882877
vt 0.858921 0.881706
vt 0.850895 0.884047
vt 0.858921 0.882877
vt 0.850895 0.885218
vt 0.858921 0.884047
vt 0.850895 0.886389
vt 0.858921 0.885218
vt 0.850895 0.887559
vt 0.858921 0.886389
vt 0.764152 0.842491
vt 0.760461 0.854658
vt 0.748294 0.850968
vt 0.728856 0.837782
vt 0.710126 0.838953
vt 0.710126 0.837782
vt 0.728856 0.838953
vt 0.710126 0.840123
vt 0.728856 0.840123
vt 0.710126 0.841294
vt 0.728856 0.841294
vt 0.710126 0.842465
vt 0.728856 0.842465
vt 0.710126 0.843635
vt 0.728856 0.843635
vt 0.710126 0.844806
vt 0.728856 0.844806
vt 0.710126 0.845977
vt 0.728856 0.845977
vt 0.710126 0.847147
vt 0.728856 0.847147
vt 0.710126 0.848318
vt 0.728856 0.848318
vt 0.710126 0.849488
vt 0.728856 0.849488
vt 0.710126 0.850659
vt 0.728856 0.850659
vt 0.710126 0.851830
vt 0.728856 0.851830
vt 0.710126 0.853000
vt 0.728856 0.853000
vt 0.710126 0.854171
vt 0.728856 0.854171
vt 0.710126 0.855342
vt 0.728856 0.855342
vt 0.710126 0.856512
vt 0.728856 0.856512
vt 0.710126 0.857683
vt 0.728856 0.857683
vt 0.710126 0.858854
vt 0.728856 0.858854
vt 0.710126 0.860024
vt 0.728856 0.860024
vt 0.710126 0.861195
vt 0.728856 0.861195
vt 0.710126 0.862366
vt 0.728856 0.862366
vt 0.710126 0.863536
vt 0.728856 0.863536
vt 0.710126 0.864707
vt 0.728856 0.864707
vt 0.710126 0.865878
vt 0.728856 0.865878
vt 0.710126 0.867048
vt 0.728856 0.867048
vt 0.710126 0.868219
vt 0.728856 0.868219
vt 0.710126 0.869390
vt 0.728856 0.869390
vt 0.710126 0.870560
vt 0.728856 0.870560
vt 0.710126 0.871731
vt 0.728856 0.871731
vt 0.710126 0.872901
vt 0.810096 0.852803
vt 0.811346 0.852803
vt 0.814933 0.854658
vt 0.728856 0.872901
vt 0.710126 0.874072
vt 0.728856 0.874072
vt 0.710126 0.875243
vt 0.783328 0.845848
vt 0.773499 0.837782
vt 0.765433 0.847611
vt 0.811346 0.840120
vt 0.810096 0.840120
vt 0.813304 0.838126
vt 0.793419 0.855677
vt 0.791656 0.855677
vt 0.789928 0.855333
vt 0.788299 0.854658
vt 0.786834 0.853679
vt 0.785588 0.852433
vt 0.784609 0.850968
vt 0.783934 0.849339
vt 0.783590 0.847611
vt 0.783590 0.845848
vt 0.783934 0.844120
vt 0.784609 0.842491
vt 0.785588 0.841026
vt 0.786834 0.839780
vt 0.788299 0.838800
vt 0.791656 0.837782
vt 0.793419 0.837782
vt 0.795147 0.838126
vt 0.796776 0.838800
vt 0.798241 0.839780
vt 0.799487 0.841026
vt 0.800467 0.842491
vt 0.801485 0.845848
vt 0.801485 0.847611
vt 0.801141 0.849339
vt 0.800466 0.850968
vt 0.799487 0.852433
vt 0.798241 0.853679
vt 0.796776 0.854658
vt 0.709863 0.875243
vt 0.729463 0.849339
vt 0.730137 0.850968
vt 0.731116 0.852433
vt 0.732363 0.853679
vt 0.733828 0.854658
vt 0.735456 0.855333
vt 0.737185 0.855677
vt 0.738947 0.855677
vt 0.740676 0.855333
vt 0.742304 0.854658
vt 0.743770 0.853679
vt 0.745016 0.852433
vt 0.745995 0.850968
vt 0.746670 0.849339
vt 0.747013 0.847611
vt 0.746670 0.844120
vt 0.745995 0.842491
vt 0.745016 0.841026
vt 0.743770 0.839780
vt 0.742304 0.838800
vt 0.740676 0.838126
vt 0.738947 0.837782
vt 0.735456 0.838126
vt 0.733828 0.838800
vt 0.732363 0.839780
vt 0.731116 0.841026
vt 0.730137 0.842491
vt 0.729463 0.844120
vt 0.729119 0.845848
vt 0.239721 0.899536
vt 0.532395 0.903692
vt 0.006160 0.441891
vt 0.858921 0.887559
vt 0.747620 0.849339
vt 0.747276 0.847611
vt 0.747276 0.845848
vt 0.747620 0.844120
vt 0.748294 0.842491
vt 0.749273 0.841026
vt 0.750520 0.839780
vt 0.751985 0.838800
vt 0.753613 0.838126
vt 0.755342 0.837782
vt 0.757104 0.837782
vt 0.758833 0.838126
vt 0.760461 0.838800
vt 0.761927 0.839780
vt 0.763173 0.841026
vt 0.764827 0.844120
vt 0.765171 0.845848
vt 0.765171 0.847611
vt 0.764827 0.849339
vt 0.764152 0.850968
vt 0.763173 0.852433
vt 0.761927 0.853679
vt 0.758833 0.855333
vt 0.757104 0.855677
vt 0.755342 0.855677
vt 0.753613 0.855333
vt 0.751985 0.854658
vt 0.750520 0.853679
vt 0.749273 0.852433
vt 0.813304 0.855333
vt 0.811576 0.855677
vt 0.809813 0.855677
vt 0.808085 0.855333
vt 0.806457 0.854658
vt 0.804991 0.853679
vt 0.803745 0.852433
vt 0.802766 0.850968
vt 0.802091 0.849339
vt 0.801747 0.847611
vt 0.801747 0.845848
vt 0.804379 0.845837
vt 0.804379 0.847086
vt 0.804623 0.848311
vt 0.817644 0.852433
vt 0.816398 0.853679
vt 0.819298 0.849339
vt 0.818624 0.850968
vt 0.817063 0.847086
vt 0.819642 0.847611
vt 0.816819 0.848311
vt 0.805101 0.849466
vt 0.816341 0.849466
vt 0.805795 0.850504
vt 0.806678 0.851388
vt 0.815647 0.850504
vt 0.814764 0.851388
vt 0.807717 0.852082
vt 0.808871 0.852560
vt 0.813725 0.852082
vt 0.812571 0.852560
vt 0.728856 0.875243
vt 0.765777 0.849339
vt 0.766451 0.850968
vt 0.767431 0.852433
vt 0.768677 0.853679
vt 0.770142 0.854658
vt 0.771771 0.855333
vt 0.773499 0.855677
vt 0.775262 0.855677
vt 0.776990 0.855333
vt 0.778619 0.854658
vt 0.780084 0.853679
vt 0.781330 0.852433
vt 0.782309 0.850968
vt 0.782984 0.849339
vt 0.783328 0.847611
vt 0.782984 0.844120
vt 0.782309 0.842491
vt 0.781330 0.841026
vt 0.780084 0.839780
vt 0.778619 0.838800
vt 0.776990 0.838126
vt 0.775262 0.837782
vt 0.771771 0.838126
vt 0.770142 0.838800
vt 0.768677 0.839780
vt 0.767431 0.841026
vt 0.766451 0.842491
vt 0.765777 0.844120
vt 0.765433 0.845848
vt 0.819642 0.845848
vt 0.817063 0.845837
vt 0.818624 0.842491
vt 0.819298 0.844120
vt 0.816398 0.839780
vt 0.817644 0.841026
vt 0.814933 0.838800
vt 0.809813 0.837782
vt 0.811576 0.837782
vt 0.806457 0.838800
vt 0.808085 0.838126
vt 0.803745 0.841026
vt 0.804991 0.839780
vt 0.802091 0.844120
vt 0.802766 0.842491
vt 0.804623 0.844612
vt 0.816819 0.844612
vt 0.805101 0.843458
vt 0.816341 0.843458
vt 0.815647 0.842419
vt 0.805795 0.842419
vt 0.806678 0.841536
vt 0.814764 0.841536
vt 0.807717 0.840842
vt 0.808871 0.840364
vt 0.813725 0.840842
vt 0.812571 0.840364
s 0
usemtl Material.001
f 2/1/1 3/2/1 1/3/1
f 4/4/2 5/5/2 3/2/2
f 6/6/3 7/7/3 5/5/3
f 8/8/4 9/9/4 7/7/4
f 10/10/5 11/11/5 9/9/5
f 12/12/6 13/13/6 11/11/6
f 14/14/7 15/15/7 13/13/7
f 16/16/8 17/17/8 15/15/8
f 18/18/9 19/19/9 17/17/9
f 20/20/10 21/21/10 19/19/10
f 22/22/11 23/23/11 21/21/11
f 24/24/12 25/25/12 23/23/12
f 26/26/13 27/27/13 25/25/13
f 28/28/14 29/29/14 27/27/14
f 30/30/15 31/31/15 29/29/15
f 32/32/16 33/33/16 31/31/16
f 34/34/17 35/35/17 33/33/17
f 36/36/18 37/37/18 35/35/18
f 38/38/19 39/39/19 37/37/19
f 40/40/20 41/41/20 39/39/20
f 42/42/21 43/43/21 41/41/21
f 44/44/22 45/45/22 43/43/22
f 46/46/23 47/47/23 45/45/23
f 48/48/24 49/49/24 47/47/24
f 50/50/25 51/51/25 49/49/25
f 52/52/26 53/53/26 51/51/26
f 54/54/27 55/55/27 53/53/27
f 56/56/28 57/57/28 55/55/28
f 58/58/29 59/59/29 57/57/29
f 60/60/30 61/61/30 59/59/30
f 38/62/31 22/63/31 6/64/31
f 62/65/32 63/66/32 61/61/32
f 64/67/33 1/68/33 63/66/33
f 31/69/34 47/70/34 63/71/34
f 69/72/31 67/73/31 65/74/31
f 67/75/35 72/76/35 68/77/35
f 71/78/36 70/79/36 72/76/36
f 66/80/34 72/81/34 70/82/34
f 65/83/37 68/84/37 66/85/37
f 69/86/38 66/85/38 70/79/38
f 74/87/17 190/88/17 73/89/17
f 75/90/18 172/91/18 74/87/18
f 76/92/19 171/93/19 75/90/19
f 77/94/20 192/95/20 76/92/20
f 78/96/21 174/97/21 77/94/21
f 79/98/22 177/99/22 78/96/22
f 80/100/23 193/101/23 79/98/23
f 81/102/24 191/103/24 80/100/24
f 82/104/25 186/105/25 81/102/25
f 83/106/26 183/107/26 82/104/26
f 84/108/27 185/109/27 83/106/27
f 85/110/28 199/111/28 84/108/28
f 86/112/29 184/113/29 85/110/29
f 87/114/30 175/115/30 86/112/30
f 88/116/32 176/117/32 87/114/32
f 88/116/33 189/118/33 178/119/33
f 90/120/1 189/118/1 89/121/1
f 91/122/2 198/123/2 90/120/2
f 92/124/3 179/125/3 91/122/3
f 93/126/4 182/127/4 92/124/4
f 94/128/5 197/129/5 93/126/5
f 95/130/6 195/131/6 94/128/6
f 95/130/7 196/132/7 194/133/7
f 97/134/8 196/132/8 96/135/8
f 98/136/9 180/137/9 97/134/9
f 99/138/10 173/139/10 98/136/10
f 100/140/11 169/141/11 99/138/11
f 101/142/12 170/143/12 100/140/12
f 102/144/13 187/145/13 101/142/13
f 103/146/14 188/147/14 102/144/14
f 104/148/15 181/149/15 103/146/15
f 73/150/16 200/151/16 104/148/16
f 90/152/31 82/153/31 74/154/31
f 106/155/1 107/156/1 105/157/1
f 108/158/2 109/159/2 107/156/2
f 110/160/3 111/161/3 109/159/3
f 112/162/4 113/163/4 111/161/4
f 114/164/5 115/165/5 113/163/5
f 116/166/6 117/167/6 115/165/6
f 118/168/7 119/169/7 117/167/7
f 120/170/8 121/171/8 119/169/8
f 122/172/9 123/173/9 121/171/9
f 124/174/10 125/175/10 123/173/10
f 126/176/11 127/177/11 125/175/11
f 128/178/12 129/179/12 127/177/12
f 130/180/13 131/181/13 129/179/13
f 132/182/14 133/183/14 131/181/14
f 134/184/15 135/185/15 133/183/15
f 136/186/16 137/187/16 135/185/16
f 138/188/17 139/189/17 137/187/17
f 140/190/18 141/191/18 139/189/18
f 142/192/19 143/193/19 141/191/19
f 144/194/20 145/195/20 143/193/20
f 146/196/21 147/197/21 145/195/21
f 148/198/22 149/199/22 147/197/22
f 150/200/23 151/201/23 149/199/23
f 152/202/24 153/203/24 151/201/24
f 154/204/25 155/205/25 153/203/25
f 156/206/26 157/207/26 155/205/26
f 158/208/27 159/209/27 157/207/27
f 160/210/28 161/211/28 159/209/28
f 162/212/29 163/213/29 161/211/29
f 164/214/30 165/215/30 163/213/30
f 190/216/31 172/217/31 112/218/31
f 166/219/32 167/220/32 165/215/32
f 168/221/33 105/222/33 167/220/33
f 135/223/34 151/224/34 167/225/34
f 189/226/31 198/227/31 136/228/31
f 2/1/1 4/4/1 3/2/1
f 4/4/2 6/6/2 5/5/2
f 6/6/3 8/8/3 7/7/3
f 8/8/4 10/10/4 9/9/4
f 10/10/5 12/12/5 11/11/5
f 12/12/6 14/14/6 13/13/6
f 14/14/7 16/16/7 15/15/7
f 16/16/8 18/18/8 17/17/8
f 18/18/9 20/20/9 19/19/9
f 20/20/10 22/22/10 21/21/10
f 22/22/11 24/24/11 23/23/11
f 24/24/12 26/26/12 25/25/12
f 26/26/13 28/28/13 27/27/13
f 28/28/14 30/30/14 29/29/14
f 30/30/15 32/32/15 31/31/15
f 32/32/16 34/34/16 33/33/16
f 34/34/17 36/36/17 35/35/17
f 36/36/18 38/38/18 37/37/18
f 38/38/19 40/40/19 39/39/19
f 40/40/20 42/42/20 41/41/20
f 42/42/21 44/44/21 43/43/21
f 44/44/22 46/46/22 45/45/22
f 46/46/23 48/48/23 47/47/23
f 48/48/24 50/50/24 49/49/24
f 50/50/25 52/52/25 51/51/25
f 52/52/26 54/54/26 53/53/26
f 54/54/27 56/56/27 55/55/27
f 56/56/28 58/58/28 57/57/28
f 58/58/29 60/60/29 59/59/29
f 60/60/30 62/65/30 61/61/30
f 6/64/31 4/229/31 2/230/31
f 2/230/31 64/231/31 62/232/31
f 62/232/31 60/233/31 58/234/31
f 58/234/31 56/235/31 54/236/31
f 54/236/31 52/237/31 50/238/31
f 50/238/31 48/239/31 46/240/31
f 46/240/31 44/241/31 42/242/31
f 42/242/31 40/243/31 38/62/31
f 38/62/31 36/244/31 34/245/31
f 34/245/31 32/246/31 30/247/31
f 30/247/31 28/248/31 26/249/31
f 26/249/31 24/250/31 22/63/31
f 22/63/31 20/251/31 18/252/31
f 18/252/31 16/253/31 14/254/31
f 14/254/31 12/255/31 10/256/31
f 10/256/31 8/257/31 6/64/31
f 6/64/31 2/230/31 62/232/31
f 62/232/31 58/234/31 54/236/31
f 54/236/31 50/238/31 46/240/31
f 46/240/31 42/242/31 38/62/31
f 38/62/31 34/245/31 30/247/31
f 30/247/31 26/249/31 22/63/31
f 22/63/31 18/252/31 14/254/31
f 14/254/31 10/256/31 6/64/31
f 6/64/31 62/232/31 54/236/31
f 54/236/31 46/240/31 38/62/31
f 38/62/31 30/247/31 22/63/31
f 22/63/31 14/254/31 6/64/31
f 6/64/31 54/236/31 38/62/31
f 62/65/32 64/67/32 63/66/32
f 64/67/33 2/258/33 1/68/33
f 63/71/34 1/259/34 3/260/34
f 3/260/34 5/261/34 7/262/34
f 7/262/34 9/263/34 11/264/34
f 11/264/34 13/265/34 15/266/34
f 15/266/34 17/267/34 19/268/34
f 19/268/34 21/269/34 23/270/34
f 23/270/34 25/271/34 27/272/34
f 27/272/34 29/273/34 31/69/34
f 31/69/34 33/274/34 35/275/34
f 35/275/34 37/276/34 39/277/34
f 39/277/34 41/278/34 43/279/34
f 43/279/34 45/280/34 47/70/34
f 47/70/34 49/281/34 51/282/34
f 51/282/34 53/283/34 55/284/34
f 55/284/34 57/285/34 59/286/34
f 59/286/34 61/287/34 63/71/34
f 63/71/34 3/260/34 7/262/34
f 7/262/34 11/264/34 15/266/34
f 15/266/34 19/268/34 23/270/34
f 23/270/34 27/272/34 31/69/34
f 31/69/34 35/275/34 39/277/34
f 39/277/34 43/279/34 47/70/34
f 47/70/34 51/282/34 55/284/34
f 55/284/34 59/286/34 63/71/34
f 63/71/34 7/262/34 15/266/34
f 15/266/34 23/270/34 31/69/34
f 31/69/34 39/277/34 47/70/34
f 47/70/34 55/284/34 63/71/34
f 63/71/34 15/266/34 31/69/34
f 69/72/31 71/288/31 67/73/31
f 67/75/35 71/78/35 72/76/35
f 71/78/36 69/86/36 70/79/36
f 66/80/34 68/289/34 72/81/34
f 65/83/37 67/290/37 68/84/37
f 69/86/38 65/83/38 66/85/38
f 74/87/17 172/91/17 190/88/17
f 75/90/18 171/93/18 172/91/18
f 76/92/19 192/95/19 171/93/19
f 77/94/20 174/97/20 192/95/20
f 78/96/21 177/99/21 174/97/21
f 79/98/22 193/101/22 177/99/22
f 80/100/23 191/103/23 193/101/23
f 81/102/24 186/105/24 191/103/24
f 82/104/25 183/107/25 186/105/25
f 83/106/26 185/109/26 183/107/26
f 84/108/27 199/111/27 185/109/27
f 85/110/28 184/113/28 199/111/28
f 86/112/29 175/115/29 184/113/29
f 87/114/30 176/117/30 175/115/30
f 88/116/32 178/119/32 176/117/32
f 88/116/33 89/121/33 189/118/33
f 90/120/1 198/123/1 189/118/1
f 91/122/2 179/125/2 198/123/2
f 92/124/3 182/127/3 179/125/3
f 93/126/4 197/129/4 182/127/4
f 94/128/5 195/131/5 197/129/5
f 95/130/6 194/133/6 195/131/6
f 95/130/7 96/135/7 196/132/7
f 97/134/8 180/137/8 196/132/8
f 98/136/9 173/139/9 180/137/9
f 99/138/10 169/141/10 173/139/10
f 100/140/11 170/143/11 169/141/11
f 101/142/12 187/145/12 170/143/12
f 102/144/13 188/147/13 187/145/13
f 103/146/14 181/149/14 188/147/14
f 104/148/15 200/151/15 181/149/15
f 73/150/16 190/291/16 200/151/16
f 74/154/31 73/292/31 104/293/31
f 104/293/31 103/294/31 102/295/31
f 102/295/31 101/296/31 100/297/31
f 100/297/31 99/298/31 98/299/31
f 98/299/31 97/300/31 96/301/31
f 96/301/31 95/302/31 94/303/31
f 94/303/31 93/304/31 92/305/31
f 92/305/39 91/306/39 90/152/39
f 90/152/31 89/307/31 88/308/31
f 88/308/31 87/309/31 86/310/31
f 86/310/31 85/311/31 84/312/31
f 84/312/31 83/313/31 82/153/31
f 82/153/31 81/314/31 80/315/31
f 80/315/31 79/316/31 78/317/31
f 78/317/31 77/318/31 76/319/31
f 76/319/31 75/320/31 74/154/31
f 74/154/31 104/293/31 102/295/31
f 102/295/31 100/297/31 98/299/31
f 98/299/31 96/301/31 94/303/31
f 94/303/31 92/305/31 90/152/31
f 90/152/31 88/308/31 86/310/31
f 86/310/31 84/312/31 82/153/31
f 82/153/31 80/315/31 78/317/31
f 78/317/31 76/319/31 74/154/31
f 74/154/31 102/295/31 98/299/31
f 98/299/31 94/303/31 90/152/31
f 90/152/31 86/310/31 82/153/31
f 82/153/31 78/317/31 74/154/31
f 74/154/31 98/299/31 90/152/31
f 106/155/1 108/158/1 107/156/1
f 108/158/2 110/160/2 109/159/2
f 110/160/3 112/162/3 111/161/3
f 112/162/4 114/164/4 113/163/4
f 114/164/5 116/166/5 115/165/5
f 116/166/6 118/168/6 117/167/6
f 118/168/7 120/170/7 119/169/7
f 120/170/8 122/172/8 121/171/8
f 122/172/9 124/174/9 123/173/9
f 124/174/10 126/176/10 125/175/10
f 126/176/11 128/178/11 127/177/11
f 128/178/12 130/180/12 129/179/12
f 130/180/13 132/182/13 131/181/13
f 132/182/14 134/184/14 133/183/14
f 134/184/15 136/186/15 135/185/15
f 136/186/16 138/188/16 137/187/16
f 138/188/17 140/190/17 139/189/17
f 140/190/18 142/192/18 141/191/18
f 142/192/19 144/194/19 143/193/19
f 144/194/20 146/196/20 145/195/20
f 146/196/21 148/198/21 147/197/21
f 148/198/22 150/200/22 149/199/22
f 150/200/23 152/202/23 151/201/23
f 152/202/24 154/204/24 153/203/24
f 154/204/25 156/206/25 155/205/25
f 156/206/26 158/208/26 157/207/26
f 158/208/27 160/210/27 159/209/27
f 160/210/28 162/212/28 161/211/28
f 162/212/29 164/214/29 163/213/29
f 164/214/30 166/219/30 165/215/30
f 110/321/31 108/322/31 106/323/31
f 106/323/31 168/324/31 166/325/31
f 166/325/31 164/326/31 162/327/31
f 162/327/31 160/328/31 158/329/31
f 158/329/31 156/330/31 154/331/31
f 154/331/31 180/332/31 173/333/31
f 154/331/31 173/333/31 169/334/31
f 162/327/31 158/329/31 154/331/31
f 106/323/31 166/325/31 162/327/31
f 112/218/31 110/321/31 106/323/31
f 116/335/31 114/336/31 112/218/31
f 120/337/31 118/338/31 116/335/31
f 186/339/31 122/340/31 120/337/31
f 191/341/31 186/339/31 120/337/31
f 120/337/31 116/335/31 112/218/31
f 112/218/31 106/323/31 162/327/31
f 162/327/31 154/331/31 169/334/31
f 162/327/31 169/334/31 170/342/31
f 191/341/31 120/337/31 112/218/31
f 193/343/31 191/341/31 112/218/31
f 162/327/31 170/342/31 187/344/31
f 162/327/31 187/344/31 188/345/31
f 177/346/31 193/343/31 112/218/31
f 174/347/31 177/346/31 112/218/31
f 162/327/31 188/345/31 181/348/31
f 162/327/31 181/348/31 200/349/31
f 192/350/31 174/347/31 112/218/31
f 171/351/31 192/350/31 112/218/31
f 112/218/31 162/327/31 200/349/31
f 112/218/31 200/349/31 190/216/31
f 172/217/31 171/351/31 112/218/31
f 166/219/32 168/221/32 167/220/32
f 168/221/33 106/352/33 105/222/33
f 167/225/34 105/353/34 107/354/34
f 107/354/34 109/355/34 111/356/34
f 111/356/34 113/357/34 115/358/34
f 115/358/34 117/359/34 119/360/34
f 119/360/34 121/361/34 123/362/34
f 123/362/34 125/363/34 127/364/34
f 127/364/34 129/365/34 131/366/34
f 131/366/34 133/367/34 135/223/34
f 135/223/34 137/368/34 139/369/34
f 139/369/34 141/370/34 143/371/34
f 143/371/34 145/372/34 147/373/34
f 147/373/34 149/374/34 151/224/34
f 151/224/34 153/375/34 155/376/34
f 155/376/34 157/377/34 159/378/34
f 159/378/34 161/379/34 163/380/34
f 163/380/34 165/381/34 167/225/34
f 167/225/34 107/354/34 111/356/34
f 111/356/34 115/358/34 119/360/34
f 119/360/34 123/362/34 127/364/34
f 127/364/34 131/366/34 135/223/34
f 135/223/34 139/369/34 143/371/34
f 143/371/34 147/373/34 151/224/34
f 151/224/34 155/376/34 159/378/34
f 159/378/34 163/380/34 167/225/34
f 167/225/34 111/356/34 119/360/34
f 119/360/34 127/364/34 135/223/34
f 135/223/34 143/371/34 151/224/34
f 151/224/34 159/378/34 167/225/34
f 167/225/34 119/360/34 135/223/34
f 124/382/31 122/340/31 186/339/31
f 124/382/31 186/339/31 183/383/31
f 128/384/31 126/385/31 124/382/31
f 132/386/31 130/387/31 128/384/31
f 136/228/31 134/388/31 132/386/31
f 140/389/31 138/390/31 136/228/31
f 144/391/31 142/392/31 140/389/31
f 148/393/31 146/394/31 144/391/31
f 152/395/31 150/396/31 148/393/31
f 180/332/31 154/331/31 152/395/31
f 196/397/31 180/332/31 152/395/31
f 152/395/31 148/393/31 144/391/31
f 144/391/31 140/389/31 136/228/31
f 136/228/31 132/386/31 128/384/31
f 128/384/31 124/382/31 183/383/31
f 128/384/31 183/383/31 185/398/31
f 196/397/31 152/395/31 144/391/31
f 194/399/31 196/397/31 144/391/31
f 128/384/31 185/398/31 199/400/31
f 128/384/31 199/400/31 184/401/31
f 195/402/31 194/399/31 144/391/31
f 197/403/31 195/402/31 144/391/31
f 136/228/31 128/384/31 184/401/31
f 136/228/31 184/401/31 175/404/31
f 182/405/31 197/403/31 144/391/31
f 179/406/31 182/405/31 144/391/31
f 136/228/31 175/404/31 176/407/31
f 136/228/31 176/407/31 178/408/31
f 179/406/31 144/391/31 136/228/31
f 198/227/31 179/406/31 136/228/31
f 136/228/31 178/408/31 189/226/31
