# Blender 4.1.1
# www.blender.org
mtllib spine.mtl
o 立方体.010
v 0.250000 -0.250000 -0.500000
v -0.000000 -0.000000 -1.000000
v 0.250000 0.250000 -0.500000
v -0.250000 -0.250000 -0.500000
v -0.250000 0.250000 -0.500000
v -0.500000 -0.250000 0.500000
v -0.250000 -0.500000 0.500000
v -0.250000 0.500000 0.500000
v -0.500000 0.250000 0.500000
v -0.250000 -0.500000 -0.500000
v -0.500000 -0.250000 -0.500000
v -0.500000 0.250000 -0.500000
v -0.250000 0.500000 -0.500000
v 0.250000 -0.500000 0.500000
v 0.500000 -0.250000 0.500000
v 0.500000 0.250000 0.500000
v 0.250000 0.500000 0.500000
v 0.500000 -0.250000 -0.500000
v 0.250000 -0.500000 -0.500000
v 0.250000 0.500000 -0.500000
v 0.500000 0.250000 -0.500000
v -0.250000 0.500000 0.250000
v 0.000000 1.000000 0.000000
v -0.250000 0.500000 -0.250000
v 0.250000 0.500000 0.250000
v 0.250000 0.500000 -0.250000
v 0.250000 -0.500000 0.250000
v -0.000000 -1.000000 0.000000
v 0.250000 -0.500000 -0.250000
v -0.250000 -0.500000 0.250000
v -0.250000 -0.500000 -0.250000
v -0.500000 -0.250000 0.250000
v -1.000000 -0.000000 0.000000
v -0.500000 -0.250000 -0.250000
v -0.500000 0.250000 0.250000
v -0.500000 0.250000 -0.250000
v 0.500000 0.250000 0.250000
v 1.000000 -0.000000 0.000000
v 0.500000 0.250000 -0.250000
v 0.500000 -0.250000 0.250000
v 0.500000 -0.250000 -0.250000
v -0.499310 0.253708 0.250000
v -0.937716 0.946673 0.000000
v -0.499310 0.253708 -0.250000
v -0.244751 0.508266 0.250000
v -0.244751 0.508266 -0.250000
v 0.244751 0.508266 0.250000
v 0.937716 0.946673 0.000000
v 0.244751 0.508266 -0.250000
v 0.499310 0.253708 0.250000
v 0.499310 0.253708 -0.250000
v -0.244751 -0.508266 0.250000
v -0.937716 -0.946673 0.000000
v -0.244751 -0.508266 -0.250000
v -0.499310 -0.253708 0.250000
v -0.499310 -0.253708 -0.250000
v 0.499310 -0.253708 0.250000
v 0.937716 -0.946673 0.000000
v 0.499310 -0.253708 -0.250000
v 0.244751 -0.508266 0.250000
v 0.244751 -0.508266 -0.250000
v -0.250000 -0.250000 0.500000
v 0.000000 -0.000000 1.000000
v -0.250000 0.250000 0.500000
v 0.250000 -0.250000 0.500000
v 0.250000 0.250000 0.500000
vn 0.8944 -0.0000 -0.4472
vn -0.0000 0.8944 -0.4472
vn -0.8944 -0.0000 -0.4472
vn -0.0000 -0.8944 -0.4472
vn -0.0000 -0.0000 1.0000
vn 1.0000 -0.0000 -0.0000
vn -0.0000 1.0000 -0.0000
vn -1.0000 -0.0000 -0.0000
vn -0.0000 -0.0000 -1.0000
vn -0.7071 -0.7071 -0.0000
vn -0.7071 0.7071 -0.0000
vn 0.7071 -0.7071 -0.0000
vn 0.7071 0.7071 -0.0000
vn -0.0000 -1.0000 -0.0000
vn -0.8944 0.4472 -0.0000
vn -0.0000 0.4472 -0.8944
vn 0.8944 0.4472 -0.0000
vn -0.0000 0.4472 0.8944
vn 0.8944 -0.4472 -0.0000
vn -0.0000 -0.4472 -0.8944
vn -0.8944 -0.4472 -0.0000
vn -0.0000 -0.4472 0.8944
vn -0.4472 -0.8944 -0.0000
vn -0.4472 -0.0000 -0.8944
vn -0.4472 0.8944 -0.0000
vn -0.4472 -0.0000 0.8944
vn 0.4472 0.8944 -0.0000
vn 0.4472 -0.0000 -0.8944
vn 0.4472 -0.8944 -0.0000
vn 0.4472 -0.0000 0.8944
vn -0.8451 -0.5346 -0.0000
vn -0.2109 0.2109 -0.9545
vn 0.5346 0.8451 -0.0000
vn -0.2109 0.2109 0.9545
vn -0.5346 0.8451 -0.0000
vn 0.2109 0.2109 -0.9545
vn 0.8451 -0.5346 -0.0000
vn 0.2109 0.2109 0.9545
vn 0.5346 -0.8451 -0.0000
vn -0.2109 -0.2109 -0.9545
vn -0.8451 0.5346 -0.0000
vn -0.2109 -0.2109 0.9545
vn 0.8451 0.5346 -0.0000
vn 0.2109 -0.2109 -0.9545
vn -0.5346 -0.8451 -0.0000
vn 0.2109 -0.2109 0.9545
vn -0.8944 -0.0000 0.4472
vn -0.0000 0.8944 0.4472
vn 0.8944 -0.0000 0.4472
vn -0.0000 -0.8944 0.4472
vt 0.375000 0.000000
vt 0.625000 0.250000
vt 0.375000 0.250000
vt 0.625000 0.500000
vt 0.375000 0.500000
vt 0.625000 0.750000
vt 0.375000 0.750000
vt 0.625000 1.000000
vt 0.375000 1.000000
vt 0.375000 0.812500
vt 0.437500 0.750000
vt 0.562500 0.750000
vt 0.625000 0.812500
vt 0.625000 0.937500
vt 0.562500 1.000000
vt 0.437500 1.000000
vt 0.375000 0.937500
vt 0.437500 0.500000
vt 0.562500 0.500000
vt 0.687500 0.500000
vt 0.812500 0.500000
vt 0.812500 0.750000
vt 0.687500 0.750000
vt 0.437500 0.000000
vt 0.562500 0.000000
vt 0.562500 0.250000
vt 0.437500 0.250000
vt 0.375000 0.312500
vt 0.625000 0.312500
vt 0.625000 0.437500
vt 0.375000 0.437500
vt 0.187500 0.500000
vt 0.187500 0.750000
vt 0.125000 0.750000
vt 0.125000 0.500000
vt 0.625000 0.000000
vt 0.312500 0.750000
vt 0.312500 0.500000
s 0
f 1/1/1 2/2/1 3/3/1
f 3/3/2 2/4/2 5/5/2
f 5/5/3 2/6/3 4/7/3
f 4/7/4 2/8/4 1/9/4
f 14/10/5 15/11/5 16/12/5 17/13/5 8/14/5 9/15/5 6/16/5 7/17/5
f 18/18/6 21/19/6 16/12/6 15/11/6
f 20/20/7 13/21/7 8/22/7 17/23/7
f 6/24/8 9/25/8 12/26/8 11/27/8
f 10/28/9 11/27/9 12/26/9 13/29/9 20/30/9 21/19/9 18/18/9 19/31/9
f 10/32/10 7/33/10 6/34/10 11/35/10
f 8/36/11 13/2/11 12/26/11 9/25/11
f 14/37/12 19/38/12 18/18/12 15/11/12
f 20/20/13 17/23/13 16/12/13 21/19/13
f 10/32/14 19/38/14 14/37/14 7/33/14
f 22/1/15 23/2/15 24/3/15
f 24/3/16 23/4/16 26/5/16
f 26/5/17 23/6/17 25/7/17
f 25/7/18 23/8/18 22/9/18
f 27/1/19 28/2/19 29/3/19
f 29/3/20 28/4/20 31/5/20
f 31/5/21 28/6/21 30/7/21
f 30/7/22 28/8/22 27/9/22
f 32/1/23 33/2/23 34/3/23
f 34/3/24 33/4/24 36/5/24
f 36/5/25 33/6/25 35/7/25
f 35/7/26 33/8/26 32/9/26
f 37/1/27 38/2/27 39/3/27
f 39/3/28 38/4/28 41/5/28
f 41/5/29 38/6/29 40/7/29
f 40/7/30 38/8/30 37/9/30
f 42/1/31 43/2/31 44/3/31
f 44/3/32 43/4/32 46/5/32
f 46/5/33 43/6/33 45/7/33
f 45/7/34 43/8/34 42/9/34
f 47/1/35 48/2/35 49/3/35
f 49/3/36 48/4/36 51/5/36
f 51/5/37 48/6/37 50/7/37
f 50/7/38 48/8/38 47/9/38
f 52/1/39 53/2/39 54/3/39
f 54/3/40 53/4/40 56/5/40
f 56/5/41 53/6/41 55/7/41
f 55/7/42 53/8/42 52/9/42
f 57/1/43 58/2/43 59/3/43
f 59/3/44 58/4/44 61/5/44
f 61/5/45 58/6/45 60/7/45
f 60/7/46 58/8/46 57/9/46
f 62/1/47 63/2/47 64/3/47
f 64/3/48 63/4/48 66/5/48
f 66/5/49 63/6/49 65/7/49
f 65/7/50 63/8/50 62/9/50
