# Blender 4.1.1
# www.blender.org
mtllib hole.mtl
o Plane
v -1.000000 -2.247084 1.000000
v 1.000000 -2.247084 1.000000
v -1.000000 -2.247084 -1.000000
v 1.000000 -2.247084 -1.000000
v -0.481455 -2.247084 -0.500055
v -0.436597 -2.247084 -0.374452
v -0.528556 -2.247084 -0.260063
v -0.387253 -2.247084 -0.217448
v -0.517341 -2.247084 -0.089602
v -0.272864 -2.247084 -0.011100
v -0.463511 -2.247084 0.053944
v -0.340151 -2.247084 0.134689
v -0.510613 -2.247084 0.318608
v -0.373795 -2.247084 0.284964
v -0.427625 -2.247084 0.527198
v -0.266135 -2.247084 0.394867
v -0.210063 -2.247084 0.533927
v -0.093431 -2.247084 0.403838
v 0.025443 -2.247084 0.477854
v 0.135346 -2.247084 0.370195
v 0.263191 -2.247084 0.515984
v 0.330479 -2.247084 0.309636
v 0.482997 -2.247084 0.435239
v 0.467296 -2.247084 0.253563
v 0.548041 -2.247084 0.240106
v 0.364122 -2.247084 0.159361
v 0.543555 -2.247084 0.031515
v 0.366365 -2.247084 -0.040258
v 0.521126 -2.247084 -0.210719
v 0.373094 -2.247084 -0.215205
v 0.491968 -2.247084 -0.372209
v 0.328236 -2.247084 -0.363237
v 0.397766 -2.247084 -0.538184
v 0.180204 -2.247084 -0.405852
v 0.108431 -2.247084 -0.553884
v 0.038900 -2.247084 -0.347537
v -0.109132 -2.247084 -0.540427
v -0.205577 -2.247084 -0.352022
v -0.326694 -2.247084 -0.544913
v -0.342394 -2.247084 -0.385666
v -1.000000 -0.022228 -1.000000
v -1.000000 -0.022228 1.000000
v 1.000000 -0.022228 1.000000
v 1.000000 -0.022228 -1.000000
v -0.808978 -0.022228 -0.829868
v -0.733018 -0.022228 -0.617179
v -0.888737 -0.022228 -0.423479
v -0.649462 -0.022228 -0.351317
v -0.869747 -0.022228 -0.134830
v -0.455763 -0.022228 -0.001899
v -0.778594 -0.022228 0.108244
v -0.569703 -0.022228 0.244972
v -0.858353 -0.022228 0.556410
v -0.626674 -0.022228 0.499440
v -0.717826 -0.022228 0.909626
v -0.444368 -0.022228 0.685543
v -0.349418 -0.022228 0.921020
v -0.151921 -0.022228 0.700735
v 0.049374 -0.022228 0.826070
v 0.235478 -0.022228 0.643765
v 0.451965 -0.022228 0.890636
v 0.565905 -0.022228 0.541218
v 0.824171 -0.022228 0.753907
v 0.797584 -0.022228 0.446268
v 0.934313 -0.022228 0.423479
v 0.622876 -0.022228 0.286751
v 0.926717 -0.022228 0.070263
v 0.626674 -0.022228 -0.051273
v 0.888737 -0.022228 -0.339923
v 0.638068 -0.022228 -0.347519
v 0.839363 -0.022228 -0.613381
v 0.562107 -0.022228 -0.598189
v 0.679846 -0.022228 -0.894434
v 0.311438 -0.022228 -0.670351
v 0.189901 -0.022228 -0.921020
v 0.072162 -0.022228 -0.571602
v -0.178507 -0.022228 -0.898232
v -0.341822 -0.022228 -0.579198
v -0.546915 -0.022228 -0.905828
v -0.573501 -0.022228 -0.636169
vn 0.5184 0.0707 0.8522
vn 0.7681 0.1697 0.6175
vn -0.0000 1.0000 -0.0000
vn 0.7510 0.0472 -0.6586
vn 0.2887 -0.0236 -0.9571
vn -0.8949 0.1044 0.4339
vn -0.9424 0.1317 -0.3073
vn 0.6955 0.1245 0.7077
vn 0.9475 0.0180 0.3193
vn 0.6357 0.0131 -0.7719
vn 0.3056 0.0291 -0.9517
vn -0.7912 0.0730 0.6072
vn -0.9866 0.1391 0.0853
vn 0.3228 0.0226 0.9462
vn 0.8856 0.1005 0.4534
vn -0.1634 0.1092 -0.9805
vn 0.5450 0.0975 -0.8327
vn -0.8469 0.0024 0.5318
vn -0.4020 -0.0057 0.9156
vn 0.7328 0.0419 0.6792
vn 0.9887 0.1137 0.0975
vn -0.5765 0.1134 -0.8092
vn -0.2383 0.0663 -0.9689
vn -0.6351 0.0210 0.7721
vn -0.3750 0.0485 0.9258
vn 0.9723 0.0897 0.2161
vn -1.0000 -0.0000 -0.0000
vn -0.7378 0.0830 -0.6699
vn -0.6330 0.0502 -0.7725
vn -0.0000 -0.0000 1.0000
vn -0.0302 0.0629 0.9976
vn 0.9205 0.1222 -0.3712
vn 1.0000 -0.0000 -0.0000
vn -0.7959 0.0589 -0.6026
vn -0.7428 0.0693 -0.6659
vn -0.0000 -0.0000 -1.0000
vn 0.0544 0.0992 0.9936
vn 0.5243 0.1262 -0.8421
vn 0.9381 0.0884 -0.3350
vn -0.9277 0.0586 -0.3687
vn -0.6948 0.1185 -0.7093
vn -0.0000 -1.0000 -0.0000
vt 0.738904 0.446213
vt 0.545262 0.352765
vt 0.749523 0.424081
vt 0.836846 0.290836
vt 0.675832 0.143710
vt 0.693131 0.127136
vt 0.869133 0.113026
vt 0.929999 0.094699
vt 0.930564 0.133835
vt 0.212729 0.176624
vt 0.152254 0.194899
vt 0.184322 0.179598
vt 0.318855 0.820269
vt 0.315684 0.851260
vt 0.286507 0.823376
vt 0.756335 0.654470
vt 0.574605 0.769061
vt 0.556798 0.742893
vt 0.713719 0.114623
vt 0.849004 0.283447
vt 0.753527 0.408736
vt 0.552043 0.326781
vt 0.546827 0.708896
vt 0.750447 0.634393
vt 0.862257 0.271892
vt 0.736159 0.095056
vt 0.570707 0.296531
vt 0.764549 0.390872
vt 0.741357 0.617656
vt 0.531435 0.680554
vt 0.773647 0.076308
vt 0.884395 0.260820
vt 0.773296 0.369127
vt 0.585519 0.259709
vt 0.527342 0.651071
vt 0.738940 0.600244
vt 0.867009 0.784409
vt 0.773647 0.977570
vt 0.744207 0.962924
vt 0.606571 0.232313
vt 0.785728 0.352949
vt 0.736113 0.592877
vt 0.522555 0.638595
vt 0.725905 0.947295
vt 0.856201 0.775179
vt 0.795753 0.333415
vt 0.623545 0.199236
vt 0.521863 0.605815
vt 0.735704 0.573519
vt 0.835492 0.762709
vt 0.690838 0.926180
vt 0.642492 0.181254
vt 0.806942 0.322796
vt 0.731258 0.552751
vt 0.514334 0.570648
vt 0.676533 0.908172
vt 0.827044 0.752075
vt 0.816163 0.308090
vt 0.658107 0.156353
vt 0.516894 0.539546
vt 0.732770 0.534384
vt 0.807993 0.737609
vt 0.644273 0.883676
vt 0.299059 0.372954
vt 0.389216 0.099019
vt 0.475547 0.295348
vt 0.730428 0.512314
vt 0.512927 0.502174
vt 0.627283 0.854132
vt 0.797960 0.720162
vt 0.122571 0.450559
vt 0.517925 0.478521
vt 0.733379 0.498346
vt 0.788047 0.709643
vt 0.610497 0.836320
vt 0.200176 0.627046
vt 0.110019 0.900981
vt 0.023689 0.704652
vt 0.732871 0.479369
vt 0.517064 0.446387
vt 0.598081 0.810644
vt 0.780715 0.694480
vt 0.376664 0.549441
vt 0.525264 0.420906
vt 0.737713 0.464322
vt 0.772934 0.683449
vt 0.584906 0.791965
vt 0.826630 0.300624
vt 0.527281 0.390242
vt 0.766851 0.669923
vt 0.851463 0.101244
vt 0.868321 0.093800
vt 0.852900 0.077838
vt 0.867150 0.076963
vt 0.855227 0.062191
vt 0.871030 0.062566
vt 0.863808 0.045917
vt 0.885166 0.058018
vt 0.891639 0.043540
vt 0.898955 0.063214
vt 0.912642 0.044187
vt 0.922497 0.062052
vt 0.933591 0.043104
vt 0.935579 0.058401
vt 0.948636 0.046964
vt 0.944689 0.059200
vt 0.953892 0.069947
vt 0.940404 0.074475
vt 0.953320 0.086405
vt 0.948563 0.100397
vt 0.936918 0.108545
vt 0.953892 0.125757
vt 0.940609 0.122924
vt 0.946519 0.146103
vt 0.925576 0.147401
vt 0.913950 0.135215
vt 0.902717 0.142702
vt 0.891806 0.132657
vt 0.879924 0.147086
vt 0.872824 0.127405
vt 0.858504 0.139963
vt 0.859474 0.122411
vt 0.851654 0.121356
vt 0.036241 0.254229
vt 0.019667 0.200806
vt 0.032617 0.197511
vt 0.042208 0.225690
vt 0.056745 0.196900
vt 0.080358 0.223313
vt 0.147676 0.055328
vt 0.135123 0.000136
vt 0.157200 0.081536
vt 0.129361 0.070980
vt 0.158588 0.106523
vt 0.125827 0.109330
vt 0.183017 0.142976
vt 0.145461 0.126694
vt 0.160362 0.146938
vt 0.151496 0.170435
vt 0.113379 0.201994
vt 0.126279 0.183123
vt 0.089883 0.193128
vt 0.462994 0.745771
vt 0.475547 0.800963
vt 0.454289 0.789912
vt 0.452739 0.768196
vt 0.439476 0.794426
vt 0.426666 0.771662
vt 0.347538 0.946441
vt 0.364112 0.999864
vt 0.334502 0.914977
vt 0.369715 0.922291
vt 0.321938 0.877307
vt 0.356264 0.892610
vt 0.343763 0.866910
vt 0.340739 0.841842
vt 0.361058 0.798912
vt 0.360059 0.825748
vt 0.394452 0.786627
vt 0.385006 0.825177
vt 0.421242 0.808443
vt 0.884395 0.793058
s 0
usemtl Material.001
f 33/1/1 74/2/1 34/3/1
f 7/4/2 46/5/2 47/6/2
f 26/7/3 10/8/3 16/9/3
f 42/10/3 57/11/3 55/12/3
f 73/13/3 71/14/3 44/15/3
f 21/16/4 60/17/4 61/18/4
f 7/4/5 48/19/5 8/20/5
f 35/21/6 74/2/6 75/22/6
f 21/16/7 62/23/7 22/24/7
f 9/25/8 48/19/8 49/26/8
f 35/21/9 76/27/9 36/28/9
f 23/29/10 62/23/10 63/30/10
f 9/25/11 50/31/11 10/32/11
f 37/33/12 76/27/12 77/34/12
f 23/29/13 64/35/13 24/36/13
f 11/37/14 50/38/14 51/39/14
f 37/33/15 78/40/15 38/41/15
f 25/42/16 64/35/16 65/43/16
f 11/37/17 52/44/17 12/45/17
f 39/46/18 78/40/18 79/47/18
f 25/42/19 66/48/19 26/49/19
f 13/50/20 52/44/20 53/51/20
f 39/46/21 80/52/21 40/53/21
f 27/54/22 66/48/22 67/55/22
f 13/50/23 54/56/23 14/57/23
f 5/58/24 80/52/24 45/59/24
f 27/54/25 68/60/25 28/61/25
f 15/62/26 54/56/26 55/63/26
f 1/64/27 41/65/27 3/66/27
f 29/67/28 68/60/28 69/68/28
f 15/62/29 56/69/29 16/70/29
f 2/71/30 42/10/30 1/64/30
f 29/67/31 70/72/31 30/73/31
f 17/74/32 56/69/32 57/75/32
f 4/76/33 43/77/33 2/78/33
f 31/79/34 70/72/34 71/80/34
f 17/74/35 58/81/35 18/82/35
f 3/83/36 44/15/36 4/76/36
f 31/79/37 72/84/37 32/85/37
f 19/86/38 58/81/38 59/87/38
f 5/58/39 46/5/39 6/88/39
f 33/1/40 72/84/40 73/89/40
f 19/86/41 60/17/41 20/90/41
f 4/76/42 1/64/42 3/83/42
f 33/1/1 73/89/1 74/2/1
f 7/4/2 6/88/2 46/5/2
f 26/7/3 27/91/3 28/92/3
f 28/92/3 29/93/3 30/94/3
f 30/94/3 31/95/3 32/96/3
f 32/96/3 33/97/3 34/98/3
f 34/98/3 35/99/3 36/100/3
f 36/100/3 37/101/3 38/102/3
f 38/102/3 39/103/3 40/104/3
f 40/104/3 5/105/3 6/106/3
f 6/106/3 7/107/3 8/108/3
f 8/108/3 9/109/3 10/8/3
f 10/8/3 11/110/3 12/111/3
f 12/111/3 13/112/3 14/113/3
f 14/113/3 15/114/3 16/9/3
f 16/9/3 17/115/3 18/116/3
f 18/116/3 19/117/3 20/118/3
f 20/118/3 21/119/3 22/120/3
f 22/120/3 23/121/3 24/122/3
f 24/122/3 25/123/3 26/7/3
f 28/92/3 30/94/3 32/96/3
f 22/120/3 24/122/3 26/7/3
f 26/7/3 28/92/3 32/96/3
f 32/96/3 34/98/3 36/100/3
f 38/102/3 40/104/3 6/106/3
f 26/7/3 32/96/3 36/100/3
f 38/102/3 6/106/3 8/108/3
f 26/7/3 36/100/3 38/102/3
f 20/118/3 22/120/3 26/7/3
f 16/9/3 18/116/3 20/118/3
f 12/111/3 14/113/3 16/9/3
f 38/102/3 8/108/3 10/8/3
f 10/8/3 12/111/3 16/9/3
f 16/9/3 20/118/3 26/7/3
f 26/7/3 38/102/3 10/8/3
f 43/124/3 65/125/3 64/126/3
f 63/127/3 62/128/3 61/129/3
f 43/124/3 64/126/3 63/127/3
f 47/130/3 41/131/3 42/10/3
f 49/132/3 48/133/3 47/130/3
f 51/134/3 50/135/3 49/132/3
f 53/136/3 52/137/3 51/134/3
f 55/12/3 54/138/3 53/136/3
f 57/11/3 56/139/3 55/12/3
f 59/140/3 58/141/3 57/11/3
f 61/129/3 60/142/3 59/140/3
f 43/124/3 63/127/3 61/129/3
f 49/132/3 47/130/3 42/10/3
f 53/136/3 51/134/3 49/132/3
f 53/136/3 49/132/3 42/10/3
f 42/10/3 43/124/3 61/129/3
f 61/129/3 59/140/3 57/11/3
f 55/12/3 53/136/3 42/10/3
f 42/10/3 61/129/3 57/11/3
f 41/143/3 47/144/3 46/145/3
f 45/146/3 80/147/3 79/148/3
f 41/143/3 46/145/3 45/146/3
f 65/149/3 43/150/3 44/15/3
f 67/151/3 66/152/3 65/149/3
f 69/153/3 68/154/3 67/151/3
f 71/14/3 70/155/3 69/153/3
f 73/13/3 72/156/3 71/14/3
f 75/157/3 74/158/3 73/13/3
f 77/159/3 76/160/3 75/157/3
f 79/148/3 78/161/3 77/159/3
f 41/143/3 45/146/3 79/148/3
f 67/151/3 65/149/3 44/15/3
f 69/153/3 67/151/3 44/15/3
f 44/15/3 41/143/3 79/148/3
f 79/148/3 77/159/3 75/157/3
f 44/15/3 79/148/3 75/157/3
f 71/14/3 69/153/3 44/15/3
f 44/15/3 75/157/3 73/13/3
f 21/16/4 20/90/4 60/17/4
f 7/4/5 47/6/5 48/19/5
f 35/21/6 34/3/6 74/2/6
f 21/16/7 61/18/7 62/23/7
f 9/25/8 8/20/8 48/19/8
f 35/21/9 75/22/9 76/27/9
f 23/29/10 22/24/10 62/23/10
f 9/25/11 49/26/11 50/31/11
f 37/33/12 36/28/12 76/27/12
f 23/29/13 63/30/13 64/35/13
f 11/37/14 10/162/14 50/38/14
f 37/33/15 77/34/15 78/40/15
f 25/42/16 24/36/16 64/35/16
f 11/37/17 51/39/17 52/44/17
f 39/46/18 38/41/18 78/40/18
f 25/42/19 65/43/19 66/48/19
f 13/50/20 12/45/20 52/44/20
f 39/46/21 79/47/21 80/52/21
f 27/54/22 26/49/22 66/48/22
f 13/50/23 53/51/23 54/56/23
f 5/58/24 40/53/24 80/52/24
f 27/54/25 67/55/25 68/60/25
f 15/62/26 14/57/26 54/56/26
f 1/64/27 42/10/27 41/65/27
f 29/67/28 28/61/28 68/60/28
f 15/62/29 55/63/29 56/69/29
f 2/71/30 43/124/30 42/10/30
f 29/67/31 69/68/31 70/72/31
f 17/74/32 16/70/32 56/69/32
f 4/76/33 44/15/33 43/77/33
f 31/79/34 30/73/34 70/72/34
f 17/74/35 57/75/35 58/81/35
f 3/83/36 41/143/36 44/15/36
f 31/79/37 71/80/37 72/84/37
f 19/86/38 18/82/38 58/81/38
f 5/58/39 45/59/39 46/5/39
f 33/1/40 32/85/40 72/84/40
f 19/86/41 59/87/41 60/17/41
f 4/76/42 2/71/42 1/64/42
