# Blender 4.1.1
# www.blender.org
mtllib block.mtl
o Cube
v 1.000000 1.000000 -1.000000
v 1.000000 -1.000000 -1.000000
v 1.000000 1.000000 1.000000
v 1.000000 -1.000000 1.000000
v -1.000000 1.000000 -1.000000
v -1.000000 -1.000000 -1.000000
v -1.000000 1.000000 1.000000
v -1.000000 -1.000000 1.000000
vn -0.0000 1.0000 -0.0000
vn -0.0000 -0.0000 1.0000
vn -1.0000 -0.0000 -0.0000
vn -0.0000 -1.0000 -0.0000
vn 1.0000 -0.0000 -0.0000
vn -0.0000 -0.0000 -1.0000
vt 0.847856 0.957231
vt 0.597906 0.707281
vt 0.847856 0.707281
vt 0.991604 0.274374
vt 0.744320 0.027090
vt 0.991604 0.027090
vt 0.744320 0.274374
vt 0.497036 0.027090
vt 0.847856 0.562550
vt 0.597906 0.312600
vt 0.847856 0.312600
vt 0.249752 0.274374
vt 0.002468 0.027090
vt 0.249752 0.027090
vt 0.497036 0.274374
vt 0.597906 0.957231
vt 0.597906 0.562550
vt 0.002468 0.274374
s 0
usemtl Material.003
f 5/1/1 3/2/1 1/3/1
f 3/4/2 8/5/2 4/6/2
f 7/7/3 6/8/3 8/5/3
f 2/9/4 8/10/4 6/11/4
f 1/12/5 4/13/5 2/14/5
f 5/15/6 2/14/6 6/8/6
f 5/1/1 7/16/1 3/2/1
f 3/4/2 7/7/2 8/5/2
f 7/7/3 5/15/3 6/8/3
f 2/9/4 4/17/4 8/10/4
f 1/12/5 3/18/5 4/13/5
f 5/15/6 1/12/6 2/14/6
