# Blender 4.1.1
# www.blender.org
mtllib denkih.mtl
o 球
v 0.000000 0.831470 0.555570
v 0.000000 0.555570 0.831470
v 0.000000 0.195090 0.980785
v 0.000000 0.000000 1.000000
v 0.000000 -0.195090 0.980785
v 0.000000 -0.555570 0.831470
v -0.038060 0.980785 0.191342
v -0.074658 0.923880 0.375330
v -0.108386 0.831470 0.544895
v -0.137950 0.707107 0.693520
v -0.162212 0.555570 0.815493
v -0.180240 0.382683 0.906127
v -0.191342 0.195090 0.961940
v -0.195090 0.000000 0.980785
v -0.191342 -0.195090 0.961940
v -0.180240 -0.382683 0.906127
v -0.162212 -0.555570 0.815493
v -0.137950 -0.707107 0.693520
v -0.108386 -0.831470 0.544895
v -0.074658 -0.923880 0.375330
v -0.038060 -0.980785 0.191342
v -0.074658 0.980785 0.180240
v -0.146447 0.923880 0.353553
v -0.212608 0.831470 0.513280
v -0.270598 0.707107 0.653281
v -0.318190 0.555570 0.768178
v -0.353553 0.382683 0.853553
v -0.375330 0.195090 0.906127
v -0.382683 0.000000 0.923879
v -0.375330 -0.195090 0.906127
v -0.353553 -0.382683 0.853553
v -0.318190 -0.555570 0.768178
v -0.270598 -0.707107 0.653281
v -0.212608 -0.831470 0.513280
v -0.146447 -0.923880 0.353553
v -0.074658 -0.980785 0.180240
v -0.108386 0.980785 0.162212
v -0.212608 0.923880 0.318190
v -0.308658 0.831470 0.461940
v -0.392847 0.707107 0.587938
v -0.461940 0.555570 0.691342
v -0.513280 0.382683 0.768178
v -0.544895 0.195090 0.815493
v -0.555570 0.000000 0.831469
v -0.544895 -0.195090 0.815493
v -0.513280 -0.382683 0.768178
v -0.461940 -0.555570 0.691342
v -0.392847 -0.707107 0.587938
v -0.308658 -0.831470 0.461940
v -0.212608 -0.923880 0.318190
v -0.108386 -0.980785 0.162212
v -0.137950 0.980785 0.137950
v -0.270598 0.923880 0.270598
v -0.392847 0.831470 0.392847
v -0.500000 0.707107 0.500000
v -0.587938 0.555570 0.587938
v -0.653281 0.382683 0.653281
v -0.693520 0.195090 0.693520
v -0.707107 0.000000 0.707107
v -0.693520 -0.195090 0.693520
v -0.653281 -0.382683 0.653281
v -0.587938 -0.555570 0.587938
v -0.500000 -0.707107 0.500000
v -0.392847 -0.831470 0.392847
v -0.270598 -0.923880 0.270598
v -0.137950 -0.980785 0.137950
v -0.162212 0.980785 0.108386
v -0.318190 0.923880 0.212608
v -0.461940 0.831470 0.308658
v -0.587938 0.707107 0.392847
v -0.691342 0.555570 0.461940
v -0.768178 0.382683 0.513280
v -0.815493 0.195090 0.544895
v -0.831470 0.000000 0.555570
v -0.815493 -0.195090 0.544895
v -0.768178 -0.382683 0.513280
v -0.691342 -0.555570 0.461940
v -0.587938 -0.707107 0.392847
v -0.461940 -0.831470 0.308658
v -0.318190 -0.923880 0.212608
v -0.162212 -0.980785 0.108386
v 0.000000 1.000000 0.000000
v -0.180240 0.980785 0.074658
v -0.353553 0.923880 0.146447
v -0.513280 0.831470 0.212607
v -0.653281 0.707107 0.270598
v -0.768178 0.555570 0.318190
v -0.853553 0.382683 0.353553
v -0.906127 0.195090 0.375330
v -0.923879 0.000000 0.382683
v -0.906127 -0.195090 0.375330
v -0.853553 -0.382683 0.353553
v -0.768178 -0.555570 0.318190
v -0.653281 -0.707107 0.270598
v -0.513280 -0.831470 0.212607
v -0.353553 -0.923880 0.146447
v -0.180240 -0.980785 0.074658
v -0.191342 0.980785 0.038060
v -0.375330 0.923880 0.074658
v -0.544895 0.831470 0.108386
v -0.693520 0.707107 0.137950
v -0.815493 0.555570 0.162212
v -0.906127 0.382683 0.180240
v -0.961940 0.195090 0.191342
v -0.980785 0.000000 0.195090
v -0.961940 -0.195090 0.191342
v -0.906127 -0.382683 0.180240
v -0.815493 -0.555570 0.162212
v -0.693520 -0.707107 0.137950
v -0.544895 -0.831470 0.108386
v -0.375330 -0.923880 0.074658
v -0.191342 -0.980785 0.038060
v -0.195090 0.980785 -0.000000
v -0.382683 0.923880 -0.000000
v -0.555570 0.831470 -0.000000
v -0.707107 0.707107 0.000000
v -0.831469 0.555570 -0.000000
v -0.923879 0.382683 0.000000
v -0.980785 0.195090 -0.000000
v -1.000000 0.000000 -0.000000
v -0.980785 -0.195090 -0.000000
v -0.923879 -0.382683 0.000000
v -0.831469 -0.555570 -0.000000
v -0.707107 -0.707107 0.000000
v -0.555570 -0.831470 -0.000000
v -0.382683 -0.923880 -0.000000
v -0.195090 -0.980785 -0.000000
v -0.191342 0.980785 -0.038060
v -0.375330 0.923880 -0.074658
v -0.544895 0.831470 -0.108386
v -0.693520 0.707107 -0.137950
v -0.815493 0.555570 -0.162212
v -0.906127 0.382683 -0.180240
v -0.961940 0.195090 -0.191342
v -0.980785 0.000000 -0.195090
v -0.961940 -0.195090 -0.191342
v -0.906127 -0.382683 -0.180240
v -0.815493 -0.555570 -0.162212
v -0.693520 -0.707107 -0.137950
v -0.544895 -0.831470 -0.108386
v -0.375330 -0.923880 -0.074658
v -0.191342 -0.980785 -0.038060
v -0.180240 0.980785 -0.074658
v -0.353553 0.923880 -0.146447
v -0.513280 0.831470 -0.212608
v -0.653281 0.707107 -0.270598
v -0.768178 0.555570 -0.318190
v -0.853553 0.382683 -0.353553
v -0.906127 0.195090 -0.375330
v -0.923879 0.000000 -0.382683
v -0.906127 -0.195090 -0.375330
v -0.853553 -0.382683 -0.353553
v -0.768178 -0.555570 -0.318190
v -0.653281 -0.707107 -0.270598
v -0.513280 -0.831470 -0.212608
v -0.353553 -0.923880 -0.146447
v -0.180240 -0.980785 -0.074658
v -0.162212 0.980785 -0.108386
v -0.318190 0.923880 -0.212608
v -0.461940 0.831470 -0.308658
v -0.587938 0.707107 -0.392847
v -0.691341 0.555570 -0.461940
v -0.768178 0.382683 -0.513280
v -0.815493 0.195090 -0.544895
v -0.831469 0.000000 -0.555570
v -0.815493 -0.195090 -0.544895
v -0.768178 -0.382683 -0.513280
v -0.691341 -0.555570 -0.461940
v -0.587938 -0.707107 -0.392847
v -0.461940 -0.831470 -0.308658
v -0.318190 -0.923880 -0.212608
v -0.162212 -0.980785 -0.108386
v -0.137950 0.980785 -0.137950
v -0.270598 0.923880 -0.270598
v -0.392847 0.831470 -0.392847
v -0.500000 0.707107 -0.500000
v -0.587938 0.555570 -0.587938
v -0.653281 0.382683 -0.653281
v -0.693520 0.195090 -0.693520
v -0.707106 0.000000 -0.707107
v -0.693520 -0.195090 -0.693520
v -0.653281 -0.382683 -0.653281
v -0.587938 -0.555570 -0.587938
v -0.500000 -0.707107 -0.500000
v -0.392847 -0.831470 -0.392847
v -0.270598 -0.923880 -0.270598
v -0.137950 -0.980785 -0.137950
v -0.108386 0.980785 -0.162212
v -0.212607 0.923880 -0.318190
v -0.308658 0.831470 -0.461940
v -0.392847 0.707107 -0.587938
v -0.461940 0.555570 -0.691342
v -0.513280 0.382683 -0.768178
v -0.544895 0.195090 -0.815493
v -0.555570 0.000000 -0.831469
v -0.544895 -0.195090 -0.815493
v -0.513280 -0.382683 -0.768178
v -0.461940 -0.555570 -0.691342
v -0.392847 -0.707107 -0.587938
v -0.308658 -0.831470 -0.461940
v -0.212607 -0.923880 -0.318190
v -0.108386 -0.980785 -0.162212
v -0.074658 0.980785 -0.180240
v -0.146447 0.923880 -0.353553
v -0.212607 0.831470 -0.513280
v -0.270598 0.707107 -0.653281
v -0.318189 0.555570 -0.768178
v -0.353553 0.382683 -0.853553
v -0.375330 0.195090 -0.906127
v -0.382683 0.000000 -0.923879
v -0.375330 -0.195090 -0.906127
v -0.353553 -0.382683 -0.853553
v -0.318189 -0.555570 -0.768178
v -0.270598 -0.707107 -0.653281
v -0.212607 -0.831470 -0.513280
v -0.146447 -0.923880 -0.353553
v -0.074658 -0.980785 -0.180240
v -0.038060 0.980785 -0.191342
v -0.074658 0.923880 -0.375330
v -0.108386 0.831470 -0.544895
v -0.137950 0.707107 -0.693520
v -0.162212 0.555570 -0.815493
v -0.180240 0.382683 -0.906127
v -0.191342 0.195090 -0.961939
v -0.195090 0.000000 -0.980785
v -0.191342 -0.195090 -0.961939
v -0.180240 -0.382683 -0.906127
v -0.162212 -0.555570 -0.815493
v -0.137950 -0.707107 -0.693520
v -0.108386 -0.831470 -0.544895
v -0.074658 -0.923880 -0.375330
v -0.038060 -0.980785 -0.191342
v 0.000000 0.980785 -0.195090
v 0.000000 0.923880 -0.382683
v 0.000000 0.831470 -0.555570
v 0.000000 0.707107 -0.707107
v 0.000000 0.555570 -0.831469
v -0.000000 0.382683 -0.923879
v 0.000000 0.195090 -0.980785
v 0.000000 0.000000 -0.999999
v 0.000000 -0.195090 -0.980785
v -0.000000 -0.382683 -0.923879
v 0.000000 -0.555570 -0.831469
v 0.000000 -0.707107 -0.707107
v 0.000000 -0.831470 -0.555570
v 0.000000 -0.923880 -0.382683
v 0.000000 -0.980785 -0.195090
v 0.038060 0.980785 -0.191342
v 0.074658 0.923880 -0.375330
v 0.108386 0.831470 -0.544895
v 0.137950 0.707107 -0.693520
v 0.162212 0.555570 -0.815493
v 0.180240 0.382683 -0.906127
v 0.191342 0.195090 -0.961939
v 0.195091 0.000000 -0.980785
v 0.191342 -0.195090 -0.961939
v 0.180240 -0.382683 -0.906127
v 0.162212 -0.555570 -0.815493
v 0.137950 -0.707107 -0.693520
v 0.108386 -0.831470 -0.544895
v 0.074658 -0.923880 -0.375330
v 0.038060 -0.980785 -0.191342
v 0.074658 0.980785 -0.180240
v 0.146447 0.923880 -0.353553
v 0.212608 0.831470 -0.513280
v 0.270598 0.707107 -0.653281
v 0.318190 0.555570 -0.768177
v 0.353553 0.382683 -0.853553
v 0.375330 0.195090 -0.906127
v 0.382683 0.000000 -0.923879
v 0.375330 -0.195090 -0.906127
v 0.353553 -0.382683 -0.853553
v 0.318190 -0.555570 -0.768177
v 0.270598 -0.707107 -0.653281
v 0.212608 -0.831470 -0.513280
v 0.146447 -0.923880 -0.353553
v 0.074658 -0.980785 -0.180240
v 0.108386 0.980785 -0.162212
v 0.212608 0.923880 -0.318190
v 0.308658 0.831470 -0.461939
v 0.392847 0.707107 -0.587938
v 0.461940 0.555570 -0.691341
v 0.513280 0.382683 -0.768178
v 0.544895 0.195090 -0.815493
v 0.555570 0.000000 -0.831469
v 0.544895 -0.195090 -0.815493
v 0.513280 -0.382683 -0.768178
v 0.461940 -0.555570 -0.691341
v 0.392847 -0.707107 -0.587938
v 0.308658 -0.831470 -0.461939
v 0.212608 -0.923880 -0.318190
v 0.108386 -0.980785 -0.162212
v 0.137950 0.980785 -0.137950
v 0.270598 0.923880 -0.270598
v 0.392847 0.831470 -0.392847
v 0.500000 0.707107 -0.500000
v 0.587938 0.555570 -0.587937
v 0.653281 0.382683 -0.653281
v 0.693520 0.195090 -0.693520
v 0.707106 0.000000 -0.707106
v 0.693520 -0.195090 -0.693520
v 0.653281 -0.382683 -0.653281
v 0.587938 -0.555570 -0.587937
v 0.500000 -0.707107 -0.500000
v 0.392847 -0.831470 -0.392847
v 0.270598 -0.923880 -0.270598
v 0.137950 -0.980785 -0.137950
v 0.000000 -1.000000 0.000000
v 0.162212 0.980785 -0.108386
v 0.318190 0.923880 -0.212607
v 0.461940 0.831470 -0.308658
v 0.587938 0.707107 -0.392847
v 0.691341 0.555570 -0.461939
v 0.768177 0.382683 -0.513280
v 0.815493 0.195090 -0.544895
v 0.831469 0.000000 -0.555569
v 0.815493 -0.195090 -0.544895
v 0.768177 -0.382683 -0.513280
v 0.691341 -0.555570 -0.461939
v 0.587938 -0.707107 -0.392847
v 0.461940 -0.831470 -0.308658
v 0.318190 -0.923880 -0.212607
v 0.162212 -0.980785 -0.108386
v 0.180240 0.980785 -0.074658
v 0.353553 0.923880 -0.146447
v 0.513280 0.831470 -0.212607
v 0.653281 0.707107 -0.270598
v 0.768177 0.555570 -0.318189
v 0.853553 0.382683 -0.353553
v 0.906127 0.195090 -0.375330
v 0.923879 0.000000 -0.382683
v 0.906127 -0.195090 -0.375330
v 0.853553 -0.382683 -0.353553
v 0.768177 -0.555570 -0.318189
v 0.653281 -0.707107 -0.270598
v 0.513280 -0.831470 -0.212607
v 0.353553 -0.923880 -0.146447
v 0.180240 -0.980785 -0.074658
v 0.191342 0.980785 -0.038060
v 0.375330 0.923880 -0.074658
v 0.544895 0.831470 -0.108386
v 0.693520 0.707107 -0.137950
v 0.815493 0.555570 -0.162211
v 0.906127 0.382683 -0.180240
v 0.961939 0.195090 -0.191341
v 0.980784 0.000000 -0.195090
v 0.961939 -0.195090 -0.191341
v 0.906127 -0.382683 -0.180240
v 0.815493 -0.555570 -0.162211
v 0.693520 -0.707107 -0.137950
v 0.544895 -0.831470 -0.108386
v 0.375330 -0.923880 -0.074658
v 0.191342 -0.980785 -0.038060
v 0.195090 0.980785 0.000000
v 0.382683 0.923880 0.000000
v 0.555570 0.831470 0.000000
v 0.707107 0.707107 0.000000
v 0.831469 0.555570 0.000000
v 0.923879 0.382683 0.000000
v 0.980785 0.195090 0.000000
v 0.999999 0.000000 0.000000
v 0.980785 -0.195090 0.000000
v 0.923879 -0.382683 0.000000
v 0.831469 -0.555570 0.000000
v 0.707107 -0.707107 0.000000
v 0.555570 -0.831470 0.000000
v 0.382683 -0.923880 0.000000
v 0.195090 -0.980785 0.000000
v 0.191342 0.980785 0.038060
v 0.375330 0.923880 0.074658
v 0.544895 0.831470 0.108386
v 0.693520 0.707107 0.137950
v 0.815493 0.555570 0.162212
v 0.906127 0.382683 0.180240
v 0.961939 0.195090 0.191342
v 0.980784 0.000000 0.195091
v 0.961939 -0.195090 0.191342
v 0.906127 -0.382683 0.180240
v 0.815493 -0.555570 0.162212
v 0.693520 -0.707107 0.137950
v 0.544895 -0.831470 0.108386
v 0.375330 -0.923880 0.074658
v 0.191342 -0.980785 0.038060
v 0.180240 0.980785 0.074658
v 0.353553 0.923880 0.146447
v 0.513279 0.831470 0.212607
v 0.653281 0.707107 0.270598
v 0.768177 0.555570 0.318190
v 0.853553 0.382683 0.353553
v 0.906127 0.195090 0.375330
v 0.923878 0.000000 0.382683
v 0.906127 -0.195090 0.375330
v 0.853553 -0.382683 0.353553
v 0.768177 -0.555570 0.318190
v 0.653281 -0.707107 0.270598
v 0.513279 -0.831470 0.212607
v 0.353553 -0.923880 0.146447
v 0.180240 -0.980785 0.074658
v 0.162212 0.980785 0.108386
v 0.318189 0.923880 0.212607
v 0.461939 0.831470 0.308658
v 0.587938 0.707107 0.392847
v 0.691341 0.555570 0.461940
v 0.768177 0.382683 0.513280
v 0.815493 0.195090 0.544895
v 0.831468 0.000000 0.555570
v 0.815493 -0.195090 0.544895
v 0.768177 -0.382683 0.513280
v 0.691341 -0.555570 0.461940
v 0.587938 -0.707107 0.392847
v 0.461939 -0.831470 0.308658
v 0.318189 -0.923880 0.212607
v 0.162212 -0.980785 0.108386
v 0.137950 0.980785 0.137950
v 0.270598 0.923880 0.270598
v 0.392847 0.831470 0.392847
v 0.500000 0.707107 0.500000
v 0.587937 0.555570 0.587938
v 0.653281 0.382683 0.653281
v 0.693519 0.195090 0.693520
v 0.707106 0.000000 0.707106
v 0.693519 -0.195090 0.693520
v 0.653281 -0.382683 0.653281
v 0.587937 -0.555570 0.587938
v 0.500000 -0.707107 0.500000
v 0.392847 -0.831470 0.392847
v 0.270598 -0.923880 0.270598
v 0.137950 -0.980785 0.137950
v 0.108386 0.980785 0.162212
v 0.212607 0.923880 0.318190
v 0.308658 0.831470 0.461939
v 0.392847 0.707107 0.587938
v 0.461939 0.555570 0.691341
v 0.513280 0.382683 0.768177
v 0.544895 0.195090 0.815493
v 0.555569 0.000000 0.831469
v 0.544895 -0.195090 0.815493
v 0.513280 -0.382683 0.768177
v 0.461939 -0.555570 0.691341
v 0.392847 -0.707107 0.587938
v 0.308658 -0.831470 0.461939
v 0.212607 -0.923880 0.318190
v 0.108386 -0.980785 0.162212
v 0.074658 0.980785 0.180240
v 0.146446 0.923880 0.353553
v 0.212607 0.831470 0.513279
v 0.270598 0.707107 0.653281
v 0.318189 0.555570 0.768177
v 0.353553 0.382683 0.853553
v 0.375330 0.195090 0.906127
v 0.382683 0.000000 0.923879
v 0.375330 -0.195090 0.906127
v 0.353553 -0.382683 0.853553
v 0.318189 -0.555570 0.768177
v 0.270598 -0.707107 0.653281
v 0.212607 -0.831470 0.513279
v 0.146446 -0.923880 0.353553
v 0.074658 -0.980785 0.180240
v 0.038060 0.980785 0.191342
v 0.074658 0.923880 0.375330
v 0.108386 0.831470 0.544895
v 0.137950 0.707107 0.693520
v 0.162211 0.555570 0.815493
v 0.180240 0.382683 0.906127
v 0.191341 0.195090 0.961939
v 0.195090 0.000000 0.980784
v 0.191341 -0.195090 0.961939
v 0.180240 -0.382683 0.906127
v 0.162211 -0.555570 0.815493
v 0.137950 -0.707107 0.693520
v 0.108386 -0.831470 0.544895
v 0.074658 -0.923880 0.375330
v 0.038060 -0.980785 0.191342
v -0.000000 0.980785 0.195090
v -0.000000 0.923880 0.382683
v -0.000000 0.707107 0.707107
v -0.000000 0.382683 0.923879
v -0.000000 -0.382683 0.923879
v -0.000000 -0.707107 0.707107
v -0.000000 -0.831470 0.555570
v -0.000000 -0.923880 0.382683
v -0.000000 -0.980785 0.195090
vn -0.0624 0.7715 0.6332
vn -0.0759 -0.6326 0.7708
vn -0.0759 0.6326 0.7708
vn -0.0624 -0.7715 0.6332
vn -0.0865 0.4696 0.8786
vn -0.0464 -0.8810 0.4709
vn -0.0938 0.2890 0.9527
vn -0.0286 -0.9565 0.2902
vn -0.0975 0.0975 0.9904
vn -0.0097 0.9951 0.0980
vn -0.0097 -0.9951 0.0980
vn -0.0975 -0.0976 0.9904
vn -0.0286 0.9565 0.2902
vn -0.0938 -0.2890 0.9527
vn -0.0464 0.8810 0.4709
vn -0.0865 -0.4696 0.8786
vn -0.2779 -0.2890 0.9161
vn -0.1374 0.8810 0.4528
vn -0.2563 -0.4696 0.8448
vn -0.1847 0.7715 0.6088
vn -0.2248 -0.6326 0.7412
vn -0.2248 0.6326 0.7412
vn -0.1847 -0.7715 0.6088
vn -0.2563 0.4696 0.8448
vn -0.1374 -0.8810 0.4528
vn -0.2779 0.2890 0.9161
vn -0.0846 -0.9565 0.2790
vn -0.2889 0.0976 0.9524
vn -0.0286 0.9951 0.0942
vn -0.0286 -0.9951 0.0942
vn -0.2889 -0.0976 0.9524
vn -0.0846 0.9565 0.2790
vn -0.2230 -0.8810 0.4173
vn -0.4513 0.2890 0.8443
vn -0.1374 -0.9565 0.2571
vn -0.4691 0.0975 0.8777
vn -0.0464 0.9951 0.0869
vn -0.0464 -0.9951 0.0869
vn -0.4691 -0.0975 0.8777
vn -0.1374 0.9565 0.2571
vn -0.4513 -0.2890 0.8443
vn -0.2231 0.8810 0.4173
vn -0.4162 -0.4696 0.7786
vn -0.2999 0.7715 0.5611
vn -0.3651 -0.6326 0.6831
vn -0.3651 0.6326 0.6831
vn -0.2999 -0.7715 0.5611
vn -0.4162 0.4696 0.7786
vn -0.5601 -0.4696 0.6825
vn -0.4036 0.7715 0.4918
vn -0.4913 -0.6326 0.5987
vn -0.4913 0.6326 0.5987
vn -0.4036 -0.7715 0.4918
vn -0.5601 0.4696 0.6825
vn -0.3002 -0.8810 0.3658
vn -0.6073 0.2890 0.7400
vn -0.1850 -0.9565 0.2254
vn -0.6314 0.0975 0.7693
vn -0.0625 0.9951 0.0761
vn -0.0625 -0.9951 0.0761
vn -0.6314 -0.0975 0.7693
vn -0.1850 0.9565 0.2254
vn -0.6073 -0.2890 0.7400
vn -0.3002 0.8810 0.3658
vn -0.2254 -0.9566 0.1850
vn -0.7693 0.0975 0.6314
vn -0.0761 0.9951 0.0625
vn -0.0761 -0.9951 0.0625
vn -0.7693 -0.0975 0.6314
vn -0.2254 0.9565 0.1850
vn -0.7400 -0.2890 0.6073
vn -0.3658 0.8810 0.3002
vn -0.6825 -0.4696 0.5601
vn -0.4918 0.7715 0.4036
vn -0.5987 -0.6326 0.4913
vn -0.5987 0.6326 0.4913
vn -0.4918 -0.7715 0.4036
vn -0.6825 0.4696 0.5601
vn -0.3658 -0.8810 0.3002
vn -0.7400 0.2890 0.6073
vn -0.5611 0.7715 0.2999
vn -0.6831 -0.6326 0.3651
vn -0.6831 0.6326 0.3651
vn -0.5611 -0.7715 0.2999
vn -0.7786 0.4696 0.4162
vn -0.4173 -0.8810 0.2230
vn -0.8443 0.2890 0.4513
vn -0.2571 -0.9565 0.1374
vn -0.8777 0.0975 0.4691
vn -0.0869 0.9951 0.0464
vn -0.0869 -0.9951 0.0464
vn -0.8777 -0.0975 0.4691
vn -0.2571 0.9565 0.1374
vn -0.8443 -0.2890 0.4513
vn -0.4173 0.8810 0.2230
vn -0.7786 -0.4696 0.4162
vn -0.9524 0.0975 0.2889
vn -0.0942 0.9951 0.0286
vn -0.0942 -0.9951 0.0286
vn -0.9524 -0.0975 0.2889
vn -0.2790 0.9565 0.0846
vn -0.9161 -0.2890 0.2779
vn -0.4528 0.8810 0.1374
vn -0.8448 -0.4696 0.2563
vn -0.6088 0.7715 0.1847
vn -0.7412 -0.6326 0.2248
vn -0.7412 0.6326 0.2248
vn -0.6088 -0.7715 0.1847
vn -0.8448 0.4696 0.2563
vn -0.4528 -0.8810 0.1374
vn -0.9161 0.2890 0.2779
vn -0.2790 -0.9565 0.0846
vn -0.7708 -0.6326 0.0759
vn -0.7708 0.6326 0.0759
vn -0.6332 -0.7715 0.0624
vn -0.8786 0.4696 0.0865
vn -0.4709 -0.8810 0.0464
vn -0.9527 0.2890 0.0938
vn -0.2902 -0.9565 0.0286
vn -0.9904 0.0975 0.0975
vn -0.0980 0.9951 0.0097
vn -0.0980 -0.9951 0.0097
vn -0.9904 -0.0975 0.0975
vn -0.2902 0.9565 0.0286
vn -0.9527 -0.2890 0.0938
vn -0.4709 0.8810 0.0464
vn -0.8786 -0.4696 0.0865
vn -0.6332 0.7715 0.0624
vn -0.0980 0.9951 -0.0097
vn -0.0980 -0.9951 -0.0097
vn -0.9904 -0.0975 -0.0976
vn -0.2902 0.9565 -0.0286
vn -0.9527 -0.2890 -0.0938
vn -0.4709 0.8810 -0.0464
vn -0.8786 -0.4696 -0.0865
vn -0.6332 0.7715 -0.0624
vn -0.7708 -0.6326 -0.0759
vn -0.7708 0.6326 -0.0759
vn -0.6332 -0.7715 -0.0624
vn -0.8786 0.4696 -0.0865
vn -0.4709 -0.8810 -0.0464
vn -0.9527 0.2890 -0.0938
vn -0.2902 -0.9565 -0.0286
vn -0.9904 0.0975 -0.0976
vn -0.7412 0.6326 -0.2248
vn -0.6088 -0.7715 -0.1847
vn -0.8448 0.4696 -0.2563
vn -0.4528 -0.8810 -0.1374
vn -0.9161 0.2890 -0.2779
vn -0.2790 -0.9565 -0.0846
vn -0.9524 0.0975 -0.2889
vn -0.0942 0.9951 -0.0286
vn -0.0942 -0.9951 -0.0286
vn -0.9524 -0.0975 -0.2889
vn -0.2790 0.9565 -0.0846
vn -0.9161 -0.2890 -0.2779
vn -0.4528 0.8810 -0.1374
vn -0.8448 -0.4696 -0.2563
vn -0.6088 0.7715 -0.1847
vn -0.7412 -0.6326 -0.2248
vn -0.8777 -0.0975 -0.4691
vn -0.2571 0.9565 -0.1374
vn -0.8443 -0.2890 -0.4513
vn -0.4173 0.8810 -0.2231
vn -0.7786 -0.4696 -0.4162
vn -0.5611 0.7715 -0.2999
vn -0.6831 -0.6326 -0.3651
vn -0.6831 0.6326 -0.3651
vn -0.5611 -0.7715 -0.2999
vn -0.7786 0.4696 -0.4162
vn -0.4173 -0.8810 -0.2230
vn -0.8443 0.2890 -0.4513
vn -0.2571 -0.9566 -0.1374
vn -0.8777 0.0975 -0.4691
vn -0.0869 0.9951 -0.0464
vn -0.0869 -0.9951 -0.0464
vn -0.4918 -0.7715 -0.4036
vn -0.6825 0.4696 -0.5601
vn -0.3658 -0.8810 -0.3002
vn -0.7400 0.2890 -0.6073
vn -0.2254 -0.9565 -0.1850
vn -0.7693 0.0975 -0.6314
vn -0.0761 0.9951 -0.0625
vn -0.0761 -0.9951 -0.0625
vn -0.7693 -0.0975 -0.6314
vn -0.2254 0.9565 -0.1850
vn -0.7400 -0.2890 -0.6073
vn -0.3658 0.8810 -0.3002
vn -0.6825 -0.4696 -0.5601
vn -0.4918 0.7715 -0.4036
vn -0.5987 -0.6326 -0.4913
vn -0.5987 0.6326 -0.4913
vn -0.6073 -0.2890 -0.7400
vn -0.3002 0.8810 -0.3658
vn -0.5601 -0.4696 -0.6825
vn -0.4036 0.7715 -0.4918
vn -0.4913 -0.6326 -0.5987
vn -0.4913 0.6326 -0.5987
vn -0.4036 -0.7715 -0.4918
vn -0.5601 0.4696 -0.6825
vn -0.3002 -0.8810 -0.3658
vn -0.6073 0.2890 -0.7400
vn -0.1850 -0.9565 -0.2254
vn -0.6314 0.0975 -0.7693
vn -0.0625 0.9951 -0.0761
vn -0.0625 -0.9951 -0.0761
vn -0.6314 -0.0975 -0.7693
vn -0.1850 0.9565 -0.2254
vn -0.2230 -0.8810 -0.4173
vn -0.4513 0.2890 -0.8443
vn -0.1374 -0.9565 -0.2571
vn -0.4691 0.0975 -0.8777
vn -0.0464 0.9951 -0.0869
vn -0.0464 -0.9951 -0.0869
vn -0.4691 -0.0975 -0.8777
vn -0.1374 0.9565 -0.2571
vn -0.4513 -0.2890 -0.8443
vn -0.2230 0.8810 -0.4173
vn -0.4162 -0.4696 -0.7786
vn -0.2999 0.7715 -0.5611
vn -0.3651 -0.6326 -0.6831
vn -0.3651 0.6326 -0.6831
vn -0.2999 -0.7715 -0.5611
vn -0.4162 0.4696 -0.7786
vn -0.1374 0.8810 -0.4528
vn -0.2563 -0.4696 -0.8448
vn -0.1847 0.7715 -0.6088
vn -0.2248 -0.6326 -0.7412
vn -0.2248 0.6326 -0.7412
vn -0.1847 -0.7715 -0.6088
vn -0.2563 0.4696 -0.8448
vn -0.1374 -0.8810 -0.4528
vn -0.2779 0.2890 -0.9161
vn -0.0846 -0.9565 -0.2790
vn -0.2889 0.0975 -0.9524
vn -0.0286 0.9951 -0.0942
vn -0.0286 -0.9951 -0.0942
vn -0.2889 -0.0975 -0.9524
vn -0.0846 0.9565 -0.2790
vn -0.2779 -0.2890 -0.9161
vn -0.0938 0.2890 -0.9527
vn -0.0286 -0.9565 -0.2902
vn -0.0975 0.0975 -0.9904
vn -0.0097 0.9951 -0.0980
vn -0.0097 -0.9951 -0.0980
vn -0.0975 -0.0975 -0.9904
vn -0.0286 0.9565 -0.2902
vn -0.0938 -0.2890 -0.9527
vn -0.0464 0.8810 -0.4709
vn -0.0865 -0.4696 -0.8786
vn -0.0624 0.7715 -0.6332
vn -0.0759 -0.6326 -0.7708
vn -0.0759 0.6326 -0.7708
vn -0.0624 -0.7715 -0.6332
vn -0.0865 0.4696 -0.8786
vn -0.0464 -0.8810 -0.4709
vn 0.0865 -0.4696 -0.8786
vn 0.0624 0.7715 -0.6332
vn 0.0759 -0.6326 -0.7708
vn 0.0759 0.6326 -0.7708
vn 0.0624 -0.7715 -0.6332
vn 0.0865 0.4696 -0.8786
vn 0.0464 -0.8810 -0.4709
vn 0.0938 0.2890 -0.9527
vn 0.0286 -0.9565 -0.2902
vn 0.0976 0.0975 -0.9904
vn 0.0097 0.9951 -0.0980
vn 0.0097 -0.9951 -0.0980
vn 0.0975 -0.0975 -0.9904
vn 0.0286 0.9565 -0.2902
vn 0.0938 -0.2890 -0.9527
vn 0.0464 0.8810 -0.4709
vn 0.0846 -0.9565 -0.2790
vn 0.2889 0.0975 -0.9524
vn 0.0286 0.9951 -0.0942
vn 0.0286 -0.9951 -0.0942
vn 0.2889 -0.0975 -0.9524
vn 0.0846 0.9565 -0.2790
vn 0.2779 -0.2890 -0.9161
vn 0.1374 0.8810 -0.4528
vn 0.2563 -0.4696 -0.8448
vn 0.1847 0.7715 -0.6088
vn 0.2248 -0.6326 -0.7412
vn 0.2248 0.6326 -0.7412
vn 0.1847 -0.7715 -0.6088
vn 0.2563 0.4696 -0.8448
vn 0.1374 -0.8810 -0.4528
vn 0.2779 0.2890 -0.9161
vn 0.2999 0.7715 -0.5611
vn 0.3651 -0.6326 -0.6831
vn 0.3651 0.6326 -0.6831
vn 0.2999 -0.7715 -0.5611
vn 0.4162 0.4696 -0.7786
vn 0.2230 -0.8810 -0.4173
vn 0.4513 0.2890 -0.8443
vn 0.1374 -0.9565 -0.2571
vn 0.4691 0.0975 -0.8777
vn 0.0464 0.9951 -0.0869
vn 0.0464 -0.9951 -0.0869
vn 0.4691 -0.0975 -0.8777
vn 0.1374 0.9565 -0.2571
vn 0.4513 -0.2890 -0.8443
vn 0.2230 0.8810 -0.4173
vn 0.4162 -0.4696 -0.7786
vn 0.6314 0.0975 -0.7693
vn 0.0625 0.9951 -0.0761
vn 0.0625 -0.9951 -0.0761
vn 0.6314 -0.0975 -0.7693
vn 0.1850 0.9565 -0.2254
vn 0.6073 -0.2890 -0.7400
vn 0.3002 0.8810 -0.3658
vn 0.5601 -0.4696 -0.6825
vn 0.4036 0.7715 -0.4918
vn 0.4913 -0.6326 -0.5987
vn 0.4913 0.6326 -0.5987
vn 0.4036 -0.7715 -0.4918
vn 0.5601 0.4696 -0.6825
vn 0.3002 -0.8810 -0.3658
vn 0.6073 0.2890 -0.7400
vn 0.1850 -0.9565 -0.2254
vn 0.5987 -0.6326 -0.4913
vn 0.5987 0.6326 -0.4913
vn 0.4918 -0.7715 -0.4036
vn 0.6825 0.4696 -0.5601
vn 0.3658 -0.8810 -0.3002
vn 0.7400 0.2890 -0.6073
vn 0.2254 -0.9566 -0.1850
vn 0.7693 0.0975 -0.6314
vn 0.0761 0.9951 -0.0625
vn 0.0761 -0.9951 -0.0625
vn 0.7693 -0.0975 -0.6314
vn 0.2254 0.9565 -0.1850
vn 0.7400 -0.2890 -0.6073
vn 0.3658 0.8810 -0.3002
vn 0.6825 -0.4696 -0.5601
vn 0.4918 0.7715 -0.4036
vn 0.0869 -0.9951 -0.0464
vn 0.8777 -0.0975 -0.4691
vn 0.2571 0.9565 -0.1374
vn 0.8443 -0.2890 -0.4513
vn 0.4173 0.8810 -0.2230
vn 0.7786 -0.4696 -0.4162
vn 0.5611 0.7715 -0.2999
vn 0.6831 -0.6326 -0.3651
vn 0.6831 0.6326 -0.3651
vn 0.5611 -0.7715 -0.2999
vn 0.7786 0.4696 -0.4162
vn 0.4173 -0.8810 -0.2231
vn 0.8443 0.2890 -0.4513
vn 0.2571 -0.9565 -0.1374
vn 0.8777 0.0975 -0.4691
vn 0.0869 0.9951 -0.0464
vn 0.6088 -0.7715 -0.1847
vn 0.8448 0.4696 -0.2563
vn 0.4528 -0.8810 -0.1374
vn 0.9161 0.2890 -0.2779
vn 0.2790 -0.9565 -0.0846
vn 0.9524 0.0975 -0.2889
vn 0.0942 0.9951 -0.0286
vn 0.0942 -0.9951 -0.0286
vn 0.9524 -0.0975 -0.2889
vn 0.2790 0.9565 -0.0846
vn 0.9161 -0.2890 -0.2779
vn 0.4528 0.8810 -0.1374
vn 0.8448 -0.4696 -0.2563
vn 0.6088 0.7715 -0.1847
vn 0.7412 -0.6326 -0.2248
vn 0.7412 0.6326 -0.2248
vn 0.2902 0.9565 -0.0286
vn 0.9527 -0.2890 -0.0938
vn 0.4709 0.8810 -0.0464
vn 0.8786 -0.4696 -0.0865
vn 0.6332 0.7715 -0.0624
vn 0.7708 -0.6326 -0.0759
vn 0.7708 0.6326 -0.0759
vn 0.6332 -0.7715 -0.0624
vn 0.8786 0.4696 -0.0865
vn 0.4709 -0.8810 -0.0464
vn 0.9527 0.2890 -0.0938
vn 0.2902 -0.9565 -0.0286
vn 0.9904 0.0975 -0.0975
vn 0.0980 0.9951 -0.0097
vn 0.0980 -0.9951 -0.0097
vn 0.9904 -0.0975 -0.0976
vn 0.8786 0.4696 0.0865
vn 0.4709 -0.8810 0.0464
vn 0.9527 0.2890 0.0938
vn 0.2902 -0.9565 0.0286
vn 0.9904 0.0975 0.0975
vn 0.0980 0.9951 0.0097
vn 0.0980 -0.9951 0.0097
vn 0.9904 -0.0975 0.0976
vn 0.2902 0.9565 0.0286
vn 0.9527 -0.2890 0.0938
vn 0.4709 0.8810 0.0464
vn 0.8786 -0.4696 0.0865
vn 0.6332 0.7715 0.0624
vn 0.7708 -0.6326 0.0759
vn 0.7708 0.6326 0.0759
vn 0.6332 -0.7715 0.0624
vn 0.9161 -0.2890 0.2779
vn 0.4528 0.8810 0.1374
vn 0.8448 -0.4696 0.2563
vn 0.6088 0.7715 0.1847
vn 0.7412 -0.6326 0.2248
vn 0.7412 0.6326 0.2248
vn 0.6088 -0.7715 0.1847
vn 0.8448 0.4696 0.2563
vn 0.4528 -0.8810 0.1374
vn 0.9161 0.2890 0.2779
vn 0.2790 -0.9565 0.0846
vn 0.9524 0.0975 0.2889
vn 0.0942 0.9951 0.0286
vn 0.0942 -0.9951 0.0286
vn 0.9524 -0.0975 0.2889
vn 0.2790 0.9565 0.0846
vn 0.4173 -0.8810 0.2231
vn 0.8443 0.2890 0.4513
vn 0.2571 -0.9565 0.1374
vn 0.8777 0.0975 0.4691
vn 0.0869 0.9951 0.0464
vn 0.0869 -0.9951 0.0464
vn 0.8777 -0.0975 0.4691
vn 0.2571 0.9565 0.1374
vn 0.8443 -0.2890 0.4513
vn 0.4173 0.8810 0.2231
vn 0.7786 -0.4696 0.4162
vn 0.5611 0.7715 0.2999
vn 0.6831 -0.6326 0.3651
vn 0.6831 0.6326 0.3651
vn 0.5611 -0.7715 0.2999
vn 0.7786 0.4696 0.4162
vn 0.3658 0.8810 0.3002
vn 0.6825 -0.4696 0.5601
vn 0.4918 0.7715 0.4036
vn 0.5987 -0.6326 0.4913
vn 0.5987 0.6326 0.4913
vn 0.4918 -0.7715 0.4036
vn 0.6825 0.4696 0.5601
vn 0.3658 -0.8810 0.3002
vn 0.7400 0.2890 0.6073
vn 0.2254 -0.9565 0.1850
vn 0.7693 0.0975 0.6314
vn 0.0761 0.9951 0.0625
vn 0.0761 -0.9951 0.0625
vn 0.7693 -0.0975 0.6314
vn 0.2254 0.9565 0.1850
vn 0.7400 -0.2890 0.6073
vn 0.6073 0.2890 0.7400
vn 0.1850 -0.9565 0.2254
vn 0.6314 0.0975 0.7693
vn 0.0625 0.9951 0.0761
vn 0.0625 -0.9951 0.0761
vn 0.6314 -0.0975 0.7693
vn 0.1850 0.9565 0.2254
vn 0.6073 -0.2890 0.7400
vn 0.3002 0.8810 0.3658
vn 0.5601 -0.4696 0.6825
vn 0.4036 0.7715 0.4918
vn 0.4913 -0.6326 0.5987
vn 0.4913 0.6326 0.5987
vn 0.4036 -0.7715 0.4918
vn 0.5601 0.4696 0.6825
vn 0.3002 -0.8810 0.3658
vn 0.4162 -0.4696 0.7786
vn 0.2999 0.7715 0.5611
vn 0.3651 -0.6326 0.6831
vn 0.3651 0.6326 0.6831
vn 0.2999 -0.7715 0.5611
vn 0.4162 0.4696 0.7786
vn 0.2230 -0.8810 0.4173
vn 0.4513 0.2890 0.8443
vn 0.1374 -0.9565 0.2571
vn 0.4691 0.0975 0.8777
vn 0.0464 0.9951 0.0869
vn 0.0464 -0.9951 0.0869
vn 0.4691 -0.0975 0.8777
vn 0.1374 0.9565 0.2571
vn 0.4513 -0.2890 0.8443
vn 0.2230 0.8810 0.4173
vn 0.0846 -0.9565 0.2790
vn 0.2889 0.0975 0.9524
vn 0.0286 0.9951 0.0942
vn 0.0286 -0.9951 0.0942
vn 0.2889 -0.0975 0.9524
vn 0.0846 0.9565 0.2790
vn 0.2779 -0.2890 0.9161
vn 0.1374 0.8810 0.4528
vn 0.2563 -0.4696 0.8448
vn 0.1847 0.7715 0.6088
vn 0.2248 -0.6326 0.7412
vn 0.2248 0.6326 0.7412
vn 0.1847 -0.7715 0.6088
vn 0.2563 0.4696 0.8448
vn 0.1374 -0.8810 0.4528
vn 0.2779 0.2890 0.9161
vn 0.0759 -0.6326 0.7708
vn 0.0759 0.6326 0.7708
vn 0.0624 -0.7715 0.6332
vn 0.0865 0.4696 0.8786
vn 0.0464 -0.8810 0.4709
vn 0.0938 0.2890 0.9527
vn 0.0286 -0.9565 0.2902
vn 0.0976 0.0975 0.9904
vn 0.0097 0.9951 0.0980
vn 0.0097 -0.9951 0.0980
vn 0.0976 -0.0975 0.9904
vn 0.0286 0.9565 0.2902
vn 0.0938 -0.2890 0.9527
vn 0.0464 0.8810 0.4709
vn 0.0865 -0.4696 0.8786
vn 0.0624 0.7715 0.6332
vn -0.0975 0.0976 0.9904
vn -0.0975 -0.0975 0.9904
vn -0.2231 -0.8810 0.4173
vn -0.2230 0.8810 0.4173
vn -0.2254 -0.9565 0.1850
vn -0.4173 0.8810 -0.2230
vn -0.4173 -0.8810 -0.2231
vn -0.2571 -0.9565 -0.1374
vn 0.0975 0.0975 -0.9904
vn 0.0976 -0.0975 -0.9904
vn 0.2231 -0.8810 -0.4173
vn 0.2231 0.8810 -0.4173
vn 0.2254 -0.9565 -0.1850
vn 0.2254 0.9566 -0.1850
vn 0.4173 -0.8810 -0.2230
vn 0.9904 0.0975 -0.0976
vn 0.9904 -0.0975 -0.0975
vn 0.9904 0.0975 0.0976
vn 0.9904 -0.0975 0.0975
vt 0.750000 0.750000
vt 0.718750 0.812500
vt 0.718750 0.750000
vt 0.750000 0.250000
vt 0.718750 0.312500
vt 0.718750 0.250000
vt 0.718750 0.687500
vt 0.750000 0.687500
vt 0.718750 0.187500
vt 0.750000 0.187500
vt 0.750000 0.625000
vt 0.718750 0.625000
vt 0.718750 0.125000
vt 0.750000 0.125000
vt 0.750000 0.562500
vt 0.718750 0.562500
vt 0.718750 0.062500
vt 0.750000 0.062500
vt 0.718750 0.500000
vt 0.750000 0.500000
vt 0.750000 0.937500
vt 0.734375 1.000000
vt 0.718750 0.937500
vt 0.734375 0.000000
vt 0.718750 0.437500
vt 0.750000 0.437500
vt 0.750000 0.875000
vt 0.718750 0.875000
vt 0.718750 0.375000
vt 0.750000 0.375000
vt 0.750000 0.812500
vt 0.750000 0.312500
vt 0.687500 0.375000
vt 0.687500 0.812500
vt 0.687500 0.312500
vt 0.687500 0.750000
vt 0.687500 0.250000
vt 0.687500 0.687500
vt 0.687500 0.187500
vt 0.687500 0.625000
vt 0.687500 0.125000
vt 0.687500 0.562500
vt 0.687500 0.062500
vt 0.687500 0.500000
vt 0.703125 1.000000
vt 0.687500 0.937500
vt 0.703125 0.000000
vt 0.687500 0.437500
vt 0.687500 0.875000
vt 0.656250 0.187500
vt 0.656250 0.125000
vt 0.656250 0.625000
vt 0.656250 0.562500
vt 0.656250 0.062500
vt 0.656250 0.500000
vt 0.671875 1.000000
vt 0.656250 0.937500
vt 0.671875 0.000000
vt 0.656250 0.437500
vt 0.656250 0.875000
vt 0.656250 0.375000
vt 0.656250 0.812500
vt 0.656250 0.312500
vt 0.656250 0.750000
vt 0.656250 0.250000
vt 0.656250 0.687500
vt 0.625000 0.375000
vt 0.625000 0.312500
vt 0.625000 0.750000
vt 0.625000 0.250000
vt 0.625000 0.687500
vt 0.625000 0.187500
vt 0.625000 0.625000
vt 0.625000 0.125000
vt 0.625000 0.562500
vt 0.625000 0.062500
vt 0.625000 0.500000
vt 0.640625 1.000000
vt 0.625000 0.937500
vt 0.640625 0.000000
vt 0.625000 0.437500
vt 0.625000 0.875000
vt 0.625000 0.812500
vt 0.593750 0.062500
vt 0.593750 0.562500
vt 0.593750 0.500000
vt 0.609375 1.000000
vt 0.593750 0.937500
vt 0.609375 0.000000
vt 0.593750 0.437500
vt 0.593750 0.875000
vt 0.593750 0.375000
vt 0.593750 0.812500
vt 0.593750 0.312500
vt 0.593750 0.750000
vt 0.593750 0.250000
vt 0.593750 0.687500
vt 0.593750 0.187500
vt 0.593750 0.625000
vt 0.593750 0.125000
vt 0.562500 0.750000
vt 0.562500 0.250000
vt 0.562500 0.687500
vt 0.562500 0.187500
vt 0.562500 0.625000
vt 0.562500 0.125000
vt 0.562500 0.562500
vt 0.562500 0.062500
vt 0.562500 0.500000
vt 0.578125 1.000000
vt 0.562500 0.937500
vt 0.578125 0.000000
vt 0.562500 0.437500
vt 0.562500 0.875000
vt 0.562500 0.375000
vt 0.562500 0.812500
vt 0.562500 0.312500
vt 0.531250 0.562500
vt 0.531250 0.500000
vt 0.546875 1.000000
vt 0.531250 0.937500
vt 0.546875 0.000000
vt 0.531250 0.062500
vt 0.531250 0.437500
vt 0.531250 0.875000
vt 0.531250 0.375000
vt 0.531250 0.812500
vt 0.531250 0.312500
vt 0.531250 0.750000
vt 0.531250 0.250000
vt 0.531250 0.687500
vt 0.531250 0.187500
vt 0.531250 0.625000
vt 0.531250 0.125000
vt 0.500000 0.250000
vt 0.500000 0.750000
vt 0.500000 0.687500
vt 0.500000 0.187500
vt 0.500000 0.625000
vt 0.500000 0.125000
vt 0.500000 0.562500
vt 0.500000 0.062500
vt 0.500000 0.500000
vt 0.515625 1.000000
vt 0.500000 0.937500
vt 0.515625 0.000000
vt 0.500000 0.437500
vt 0.500000 0.875000
vt 0.500000 0.375000
vt 0.500000 0.812500
vt 0.500000 0.312500
vt 0.484375 1.000000
vt 0.468750 0.937500
vt 0.484375 0.000000
vt 0.468750 0.062500
vt 0.468750 0.437500
vt 0.468750 0.875000
vt 0.468750 0.375000
vt 0.468750 0.812500
vt 0.468750 0.312500
vt 0.468750 0.750000
vt 0.468750 0.250000
vt 0.468750 0.687500
vt 0.468750 0.187500
vt 0.468750 0.625000
vt 0.468750 0.125000
vt 0.468750 0.562500
vt 0.468750 0.500000
vt 0.437500 0.750000
vt 0.437500 0.687500
vt 0.437500 0.250000
vt 0.437500 0.187500
vt 0.437500 0.625000
vt 0.437500 0.125000
vt 0.437500 0.562500
vt 0.437500 0.062500
vt 0.437500 0.500000
vt 0.453125 1.000000
vt 0.437500 0.937500
vt 0.453125 0.000000
vt 0.437500 0.437500
vt 0.437500 0.875000
vt 0.437500 0.375000
vt 0.437500 0.812500
vt 0.437500 0.312500
vt 0.406250 0.437500
vt 0.406250 0.875000
vt 0.406250 0.375000
vt 0.406250 0.812500
vt 0.406250 0.312500
vt 0.406250 0.750000
vt 0.406250 0.250000
vt 0.406250 0.687500
vt 0.406250 0.187500
vt 0.406250 0.625000
vt 0.406250 0.125000
vt 0.406250 0.562500
vt 0.406250 0.062500
vt 0.406250 0.500000
vt 0.421875 1.000000
vt 0.406250 0.937500
vt 0.421875 0.000000
vt 0.375000 0.250000
vt 0.375000 0.187500
vt 0.375000 0.625000
vt 0.375000 0.125000
vt 0.375000 0.562500
vt 0.375000 0.062500
vt 0.375000 0.500000
vt 0.390625 1.000000
vt 0.375000 0.937500
vt 0.390625 0.000000
vt 0.375000 0.437500
vt 0.375000 0.875000
vt 0.375000 0.375000
vt 0.375000 0.812500
vt 0.375000 0.312500
vt 0.375000 0.750000
vt 0.375000 0.687500
vt 0.343750 0.375000
vt 0.343750 0.875000
vt 0.343750 0.812500
vt 0.343750 0.312500
vt 0.343750 0.750000
vt 0.343750 0.250000
vt 0.343750 0.687500
vt 0.343750 0.187500
vt 0.343750 0.625000
vt 0.343750 0.125000
vt 0.343750 0.562500
vt 0.343750 0.062500
vt 0.343750 0.500000
vt 0.359375 1.000000
vt 0.343750 0.937500
vt 0.359375 0.000000
vt 0.343750 0.437500
vt 0.312500 0.187500
vt 0.312500 0.125000
vt 0.312500 0.625000
vt 0.312500 0.562500
vt 0.312500 0.062500
vt 0.312500 0.500000
vt 0.328125 1.000000
vt 0.312500 0.937500
vt 0.328125 0.000000
vt 0.312500 0.437500
vt 0.312500 0.875000
vt 0.312500 0.375000
vt 0.312500 0.812500
vt 0.312500 0.312500
vt 0.312500 0.750000
vt 0.312500 0.250000
vt 0.312500 0.687500
vt 0.281250 0.812500
vt 0.281250 0.375000
vt 0.281250 0.312500
vt 0.281250 0.750000
vt 0.281250 0.250000
vt 0.281250 0.687500
vt 0.281250 0.187500
vt 0.281250 0.625000
vt 0.281250 0.125000
vt 0.281250 0.562500
vt 0.281250 0.062500
vt 0.281250 0.500000
vt 0.296875 1.000000
vt 0.281250 0.937500
vt 0.296875 0.000000
vt 0.281250 0.437500
vt 0.281250 0.875000
vt 0.250000 0.625000
vt 0.250000 0.562500
vt 0.250000 0.062500
vt 0.250000 0.500000
vt 0.265625 1.000000
vt 0.250000 0.937500
vt 0.265625 0.000000
vt 0.250000 0.437500
vt 0.250000 0.875000
vt 0.250000 0.375000
vt 0.250000 0.812500
vt 0.250000 0.312500
vt 0.250000 0.750000
vt 0.250000 0.250000
vt 0.250000 0.687500
vt 0.250000 0.187500
vt 0.250000 0.125000
vt 0.218750 0.375000
vt 0.218750 0.312500
vt 0.218750 0.750000
vt 0.218750 0.250000
vt 0.218750 0.687500
vt 0.218750 0.187500
vt 0.218750 0.625000
vt 0.218750 0.125000
vt 0.218750 0.562500
vt 0.218750 0.062500
vt 0.218750 0.500000
vt 0.234375 1.000000
vt 0.218750 0.937500
vt 0.234375 0.000000
vt 0.218750 0.437500
vt 0.218750 0.875000
vt 0.218750 0.812500
vt 0.187500 0.062500
vt 0.187500 0.562500
vt 0.187500 0.500000
vt 0.203125 1.000000
vt 0.187500 0.937500
vt 0.203125 0.000000
vt 0.187500 0.437500
vt 0.187500 0.875000
vt 0.187500 0.375000
vt 0.187500 0.812500
vt 0.187500 0.312500
vt 0.187500 0.750000
vt 0.187500 0.250000
vt 0.187500 0.687500
vt 0.187500 0.187500
vt 0.187500 0.625000
vt 0.187500 0.125000
vt 0.156250 0.750000
vt 0.156250 0.250000
vt 0.156250 0.687500
vt 0.156250 0.187500
vt 0.156250 0.625000
vt 0.156250 0.125000
vt 0.156250 0.562500
vt 0.156250 0.062500
vt 0.156250 0.500000
vt 0.171875 1.000000
vt 0.156250 0.937500
vt 0.171875 0.000000
vt 0.156250 0.437500
vt 0.156250 0.875000
vt 0.156250 0.375000
vt 0.156250 0.812500
vt 0.156250 0.312500
vt 0.125000 0.562500
vt 0.125000 0.500000
vt 0.140625 1.000000
vt 0.125000 0.937500
vt 0.140625 0.000000
vt 0.125000 0.062500
vt 0.125000 0.437500
vt 0.125000 0.875000
vt 0.125000 0.375000
vt 0.125000 0.812500
vt 0.125000 0.312500
vt 0.125000 0.750000
vt 0.125000 0.250000
vt 0.125000 0.687500
vt 0.125000 0.187500
vt 0.125000 0.625000
vt 0.125000 0.125000
vt 0.093750 0.250000
vt 0.093750 0.750000
vt 0.093750 0.687500
vt 0.093750 0.187500
vt 0.093750 0.625000
vt 0.093750 0.125000
vt 0.093750 0.562500
vt 0.093750 0.062500
vt 0.093750 0.500000
vt 0.109375 1.000000
vt 0.093750 0.937500
vt 0.109375 0.000000
vt 0.093750 0.437500
vt 0.093750 0.875000
vt 0.093750 0.375000
vt 0.093750 0.812500
vt 0.093750 0.312500
vt 0.078125 0.000000
vt 0.062500 0.062500
vt 0.062500 0.437500
vt 0.062500 0.875000
vt 0.062500 0.375000
vt 0.062500 0.812500
vt 0.062500 0.312500
vt 0.062500 0.750000
vt 0.062500 0.250000
vt 0.062500 0.687500
vt 0.062500 0.187500
vt 0.062500 0.625000
vt 0.062500 0.125000
vt 0.062500 0.562500
vt 0.062500 0.500000
vt 0.078125 1.000000
vt 0.062500 0.937500
vt 0.031250 0.250000
vt 0.031250 0.187500
vt 0.031250 0.625000
vt 0.031250 0.125000
vt 0.031250 0.562500
vt 0.031250 0.062500
vt 0.031250 0.500000
vt 0.046875 1.000000
vt 0.031250 0.937500
vt 0.046875 0.000000
vt 0.031250 0.437500
vt 0.031250 0.875000
vt 0.031250 0.375000
vt 0.031250 0.812500
vt 0.031250 0.312500
vt 0.031250 0.750000
vt 0.031250 0.687500
vt 0.000000 0.875000
vt 0.000000 0.375000
vt 0.000000 0.812500
vt 0.000000 0.312500
vt 0.000000 0.750000
vt 0.000000 0.250000
vt 0.000000 0.687500
vt 0.000000 0.187500
vt 0.000000 0.625000
vt 0.000000 0.125000
vt 0.000000 0.562500
vt 0.000000 0.062500
vt 0.000000 0.500000
vt 0.015625 1.000000
vt 0.000000 0.937500
vt 0.015625 0.000000
vt 0.000000 0.437500
vt 1.000000 0.687500
vt 0.968750 0.625000
vt 1.000000 0.625000
vt 1.000000 0.187500
vt 0.968750 0.125000
vt 1.000000 0.125000
vt 1.000000 0.562500
vt 0.968750 0.562500
vt 0.968750 0.062500
vt 1.000000 0.062500
vt 1.000000 0.500000
vt 0.968750 0.500000
vt 1.000000 0.937500
vt 0.984375 1.000000
vt 0.968750 0.937500
vt 0.984375 0.000000
vt 0.968750 0.437500
vt 1.000000 0.437500
vt 1.000000 0.875000
vt 0.968750 0.875000
vt 0.968750 0.375000
vt 1.000000 0.375000
vt 1.000000 0.812500
vt 0.968750 0.812500
vt 1.000000 0.312500
vt 0.968750 0.312500
vt 0.968750 0.750000
vt 1.000000 0.750000
vt 0.968750 0.250000
vt 1.000000 0.250000
vt 0.968750 0.687500
vt 0.968750 0.187500
vt 0.937500 0.375000
vt 0.937500 0.875000
vt 0.937500 0.812500
vt 0.937500 0.312500
vt 0.937500 0.750000
vt 0.937500 0.250000
vt 0.937500 0.687500
vt 0.937500 0.187500
vt 0.937500 0.625000
vt 0.937500 0.125000
vt 0.937500 0.562500
vt 0.937500 0.062500
vt 0.937500 0.500000
vt 0.953125 1.000000
vt 0.937500 0.937500
vt 0.953125 0.000000
vt 0.937500 0.437500
vt 0.906250 0.125000
vt 0.906250 0.625000
vt 0.906250 0.562500
vt 0.906250 0.062500
vt 0.906250 0.500000
vt 0.921875 1.000000
vt 0.906250 0.937500
vt 0.921875 0.000000
vt 0.906250 0.437500
vt 0.906250 0.875000
vt 0.906250 0.375000
vt 0.906250 0.812500
vt 0.906250 0.312500
vt 0.906250 0.750000
vt 0.906250 0.250000
vt 0.906250 0.687500
vt 0.906250 0.187500
vt 0.875000 0.875000
vt 0.875000 0.812500
vt 0.875000 0.375000
vt 0.875000 0.312500
vt 0.875000 0.750000
vt 0.875000 0.250000
vt 0.875000 0.687500
vt 0.875000 0.187500
vt 0.875000 0.625000
vt 0.875000 0.125000
vt 0.875000 0.562500
vt 0.875000 0.062500
vt 0.875000 0.500000
vt 0.890625 1.000000
vt 0.875000 0.937500
vt 0.890625 0.000000
vt 0.875000 0.437500
vt 0.843750 0.625000
vt 0.843750 0.562500
vt 0.843750 0.125000
vt 0.843750 0.062500
vt 0.843750 0.500000
vt 0.859375 1.000000
vt 0.843750 0.937500
vt 0.859375 0.000000
vt 0.843750 0.437500
vt 0.843750 0.875000
vt 0.843750 0.375000
vt 0.843750 0.812500
vt 0.843750 0.312500
vt 0.843750 0.750000
vt 0.843750 0.250000
vt 0.843750 0.687500
vt 0.843750 0.187500
vt 0.812500 0.375000
vt 0.812500 0.312500
vt 0.812500 0.750000
vt 0.812500 0.250000
vt 0.812500 0.687500
vt 0.812500 0.187500
vt 0.812500 0.625000
vt 0.812500 0.125000
vt 0.812500 0.562500
vt 0.812500 0.062500
vt 0.812500 0.500000
vt 0.828125 1.000000
vt 0.812500 0.937500
vt 0.828125 0.000000
vt 0.812500 0.437500
vt 0.812500 0.875000
vt 0.812500 0.812500
vt 0.781250 0.125000
vt 0.781250 0.062500
vt 0.781250 0.562500
vt 0.781250 0.500000
vt 0.796875 1.000000
vt 0.781250 0.937500
vt 0.796875 0.000000
vt 0.781250 0.437500
vt 0.781250 0.875000
vt 0.781250 0.375000
vt 0.781250 0.812500
vt 0.781250 0.312500
vt 0.781250 0.750000
vt 0.781250 0.250000
vt 0.781250 0.687500
vt 0.781250 0.187500
vt 0.781250 0.625000
vt 0.765625 1.000000
vt 0.765625 0.000000
s 0
usemtl マテリアル.001
f 476/1/1 9/2/1 10/3/1
f 479/4/2 17/5/2 18/6/2
f 476/1/3 11/7/3 2/8/3
f 479/4/4 19/9/4 480/10/4
f 477/11/5 11/7/5 12/12/5
f 480/10/6 20/13/6 481/14/6
f 3/15/7 12/12/7 13/16/7
f 481/14/8 21/17/8 482/18/8
f 3/15/9 14/19/9 4/20/9
f 474/21/10 82/22/10 7/23/10
f 308/24/11 482/18/11 21/17/11
f 4/20/12 15/25/12 5/26/12
f 475/27/13 7/23/13 8/28/13
f 5/26/14 16/29/14 478/30/14
f 1/31/15 8/28/15 9/2/15
f 478/30/16 17/5/16 6/32/16
f 15/25/17 31/33/17 16/29/17
f 8/28/18 24/34/18 9/2/18
f 17/5/19 31/33/19 32/35/19
f 9/2/20 25/36/20 10/3/20
f 18/6/21 32/35/21 33/37/21
f 10/3/22 26/38/22 11/7/22
f 19/9/23 33/37/23 34/39/23
f 11/7/24 27/40/24 12/12/24
f 20/13/25 34/39/25 35/41/25
f 13/16/26 27/40/26 28/42/26
f 20/13/27 36/43/27 21/17/27
f 13/16/28 29/44/28 14/19/28
f 7/23/29 82/45/29 22/46/29
f 308/47/30 21/17/30 36/43/30
f 14/19/31 30/48/31 15/25/31
f 7/23/32 23/49/32 8/28/32
f 35/41/33 49/50/33 50/51/33
f 28/42/34 42/52/34 43/53/34
f 36/43/35 50/51/35 51/54/35
f 29/44/36 43/53/36 44/55/36
f 22/46/37 82/56/37 37/57/37
f 308/58/38 36/43/38 51/54/38
f 29/44/39 45/59/39 30/48/39
f 22/46/40 38/60/40 23/49/40
f 30/48/41 46/61/41 31/33/41
f 23/49/42 39/62/42 24/34/42
f 32/35/43 46/61/43 47/63/43
f 24/34/44 40/64/44 25/36/44
f 33/37/45 47/63/45 48/65/45
f 25/36/46 41/66/46 26/38/46
f 34/39/47 48/65/47 49/50/47
f 26/38/48 42/52/48 27/40/48
f 47/63/49 61/67/49 62/68/49
f 39/62/50 55/69/50 40/64/50
f 47/63/51 63/70/51 48/65/51
f 41/66/52 55/69/52 56/71/52
f 49/50/53 63/70/53 64/72/53
f 41/66/54 57/73/54 42/52/54
f 50/51/55 64/72/55 65/74/55
f 43/53/56 57/73/56 58/75/56
f 51/54/57 65/74/57 66/76/57
f 44/55/58 58/75/58 59/77/58
f 37/57/59 82/78/59 52/79/59
f 308/80/60 51/54/60 66/76/60
f 44/55/61 60/81/61 45/59/61
f 37/57/62 53/82/62 38/60/62
f 45/59/63 61/67/63 46/61/63
f 38/60/64 54/83/64 39/62/64
f 65/74/65 81/84/65 66/76/65
f 59/77/66 73/85/66 74/86/66
f 52/79/67 82/87/67 67/88/67
f 308/89/68 66/76/68 81/84/68
f 59/77/69 75/90/69 60/81/69
f 53/82/70 67/88/70 68/91/70
f 60/81/71 76/92/71 61/67/71
f 54/83/72 68/91/72 69/93/72
f 62/68/73 76/92/73 77/94/73
f 54/83/74 70/95/74 55/69/74
f 62/68/75 78/96/75 63/70/75
f 56/71/76 70/95/76 71/97/76
f 64/72/77 78/96/77 79/98/77
f 56/71/78 72/99/78 57/73/78
f 64/72/79 80/100/79 65/74/79
f 58/75/80 72/99/80 73/85/80
f 69/93/81 86/101/81 70/95/81
f 77/94/82 94/102/82 78/96/82
f 71/97/83 86/101/83 87/103/83
f 79/98/84 94/102/84 95/104/84
f 71/97/85 88/105/85 72/99/85
f 80/100/86 95/104/86 96/106/86
f 73/85/87 88/105/87 89/107/87
f 81/84/88 96/106/88 97/108/88
f 74/86/89 89/107/89 90/109/89
f 67/88/90 82/110/90 83/111/90
f 308/112/91 81/84/91 97/108/91
f 74/86/92 91/113/92 75/90/92
f 67/88/93 84/114/93 68/91/93
f 75/90/94 92/115/94 76/92/94
f 68/91/95 85/116/95 69/93/95
f 77/94/96 92/115/96 93/117/96
f 90/109/97 104/118/97 105/119/97
f 83/111/98 82/120/98 98/121/98
f 308/122/99 97/108/99 112/123/99
f 90/109/100 106/124/100 91/113/100
f 83/111/101 99/125/101 84/114/101
f 91/113/102 107/126/102 92/115/102
f 85/116/103 99/125/103 100/127/103
f 93/117/104 107/126/104 108/128/104
f 85/116/105 101/129/105 86/101/105
f 93/117/106 109/130/106 94/102/106
f 87/103/107 101/129/107 102/131/107
f 95/104/108 109/130/108 110/132/108
f 87/103/109 103/133/109 88/105/109
f 95/104/110 111/134/110 96/106/110
f 89/107/111 103/133/111 104/118/111
f 96/106/112 112/123/112 97/108/112
f 108/128/113 124/135/113 109/130/113
f 102/131/114 116/136/114 117/137/114
f 110/132/115 124/135/115 125/138/115
f 102/131/116 118/139/116 103/133/116
f 111/134/117 125/138/117 126/140/117
f 104/118/118 118/139/118 119/141/118
f 111/134/119 127/142/119 112/123/119
f 105/119/120 119/141/120 120/143/120
f 98/121/121 82/144/121 113/145/121
f 308/146/122 112/123/122 127/142/122
f 105/119/123 121/147/123 106/124/123
f 98/121/124 114/148/124 99/125/124
f 106/124/125 122/149/125 107/126/125
f 99/125/126 115/150/126 100/127/126
f 108/128/127 122/149/127 123/151/127
f 100/127/128 116/136/128 101/129/128
f 113/145/129 82/152/129 128/153/129
f 308/154/130 127/142/130 142/155/130
f 120/143/131 136/156/131 121/147/131
f 114/148/132 128/153/132 129/157/132
f 121/147/133 137/158/133 122/149/133
f 115/150/134 129/157/134 130/159/134
f 123/151/135 137/158/135 138/160/135
f 115/150/136 131/161/136 116/136/136
f 123/151/137 139/162/137 124/135/137
f 117/137/138 131/161/138 132/163/138
f 125/138/139 139/162/139 140/164/139
f 117/137/140 133/165/140 118/139/140
f 125/138/141 141/166/141 126/140/141
f 119/141/142 133/165/142 134/167/142
f 126/140/143 142/155/143 127/142/143
f 120/143/144 134/167/144 135/168/144
f 132/163/145 146/169/145 147/170/145
f 140/164/146 154/171/146 155/172/146
f 132/163/147 148/173/147 133/165/147
f 141/166/148 155/172/148 156/174/148
f 134/167/149 148/173/149 149/175/149
f 141/166/150 157/176/150 142/155/150
f 135/168/151 149/175/151 150/177/151
f 128/153/152 82/178/152 143/179/152
f 308/180/153 142/155/153 157/176/153
f 135/168/154 151/181/154 136/156/154
f 128/153/155 144/182/155 129/157/155
f 136/156/156 152/183/156 137/158/156
f 129/157/157 145/184/157 130/159/157
f 138/160/158 152/183/158 153/185/158
f 130/159/159 146/169/159 131/161/159
f 138/160/160 154/171/160 139/162/160
f 150/177/161 166/186/161 151/181/161
f 143/179/162 159/187/162 144/182/162
f 151/181/163 167/188/163 152/183/163
f 144/182/164 160/189/164 145/184/164
f 153/185/165 167/188/165 168/190/165
f 145/184/166 161/191/166 146/169/166
f 153/185/167 169/192/167 154/171/167
f 147/170/168 161/191/168 162/193/168
f 155/172/169 169/192/169 170/194/169
f 147/170/170 163/195/170 148/173/170
f 156/174/171 170/194/171 171/196/171
f 149/175/172 163/195/172 164/197/172
f 157/176/173 171/196/173 172/198/173
f 150/177/174 164/197/174 165/199/174
f 143/179/175 82/200/175 158/201/175
f 308/202/176 157/176/176 172/198/176
f 170/194/177 184/203/177 185/204/177
f 162/193/178 178/205/178 163/195/178
f 171/196/179 185/204/179 186/206/179
f 164/197/180 178/205/180 179/207/180
f 172/198/181 186/206/181 187/208/181
f 165/199/182 179/207/182 180/209/182
f 158/201/183 82/210/183 173/211/183
f 308/212/184 172/198/184 187/208/184
f 165/199/185 181/213/185 166/186/185
f 158/201/186 174/214/186 159/187/186
f 166/186/187 182/215/187 167/188/187
f 159/187/188 175/216/188 160/189/188
f 168/190/189 182/215/189 183/217/189
f 160/189/190 176/218/190 161/191/190
f 168/190/191 184/203/191 169/192/191
f 162/193/192 176/218/192 177/219/192
f 181/213/193 197/220/193 182/215/193
f 175/216/194 189/221/194 190/222/194
f 183/217/195 197/220/195 198/223/195
f 175/216/196 191/224/196 176/218/196
f 183/217/197 199/225/197 184/203/197
f 177/219/198 191/224/198 192/226/198
f 185/204/199 199/225/199 200/227/199
f 177/219/200 193/228/200 178/205/200
f 185/204/201 201/229/201 186/206/201
f 179/207/202 193/228/202 194/230/202
f 186/206/203 202/231/203 187/208/203
f 180/209/204 194/230/204 195/232/204
f 173/211/205 82/233/205 188/234/205
f 308/235/206 187/208/206 202/231/206
f 180/209/207 196/236/207 181/213/207
f 174/214/208 188/234/208 189/221/208
f 201/229/209 215/237/209 216/238/209
f 194/230/210 208/239/210 209/240/210
f 202/231/211 216/238/211 217/241/211
f 195/232/212 209/240/212 210/242/212
f 188/234/213 82/243/213 203/244/213
f 308/245/214 202/231/214 217/241/214
f 195/232/215 211/246/215 196/236/215
f 188/234/216 204/247/216 189/221/216
f 196/236/217 212/248/217 197/220/217
f 189/221/218 205/249/218 190/222/218
f 198/223/219 212/248/219 213/250/219
f 190/222/220 206/251/220 191/224/220
f 198/223/221 214/252/221 199/225/221
f 192/226/222 206/251/222 207/253/222
f 200/227/223 214/252/223 215/237/223
f 192/226/224 208/239/224 193/228/224
f 204/247/225 220/254/225 205/249/225
f 213/250/226 227/255/226 228/256/226
f 205/249/227 221/257/227 206/251/227
f 213/250/228 229/258/228 214/252/228
f 207/253/229 221/257/229 222/259/229
f 215/237/230 229/258/230 230/260/230
f 207/253/231 223/261/231 208/239/231
f 216/238/232 230/260/232 231/262/232
f 209/240/233 223/261/233 224/263/233
f 217/241/234 231/262/234 232/264/234
f 210/242/235 224/263/235 225/265/235
f 203/244/236 82/266/236 218/267/236
f 308/268/237 217/241/237 232/264/237
f 210/242/238 226/269/238 211/246/238
f 203/244/239 219/270/239 204/247/239
f 211/246/240 227/255/240 212/248/240
f 224/263/241 238/271/241 239/272/241
f 231/262/242 247/273/242 232/264/242
f 225/265/243 239/272/243 240/274/243
f 218/267/244 82/275/244 233/276/244
f 308/277/245 232/264/245 247/273/245
f 225/265/246 241/278/246 226/269/246
f 219/270/247 233/276/247 234/279/247
f 226/269/248 242/280/248 227/255/248
f 219/270/249 235/281/249 220/254/249
f 228/256/250 242/280/250 243/282/250
f 220/254/251 236/283/251 221/257/251
f 228/256/252 244/284/252 229/258/252
f 222/259/253 236/283/253 237/285/253
f 230/260/254 244/284/254 245/286/254
f 222/259/255 238/271/255 223/261/255
f 231/262/256 245/286/256 246/287/256
f 243/282/257 257/288/257 258/289/257
f 235/281/258 251/290/258 236/283/258
f 243/282/259 259/291/259 244/284/259
f 237/285/260 251/290/260 252/292/260
f 245/286/261 259/291/261 260/293/261
f 237/285/262 253/294/262 238/271/262
f 245/286/263 261/295/263 246/287/263
f 239/272/264 253/294/264 254/296/264
f 246/287/265 262/297/265 247/273/265
f 240/274/266 254/296/266 255/298/266
f 233/276/267 82/299/267 248/300/267
f 308/301/268 247/273/268 262/297/268
f 240/274/269 256/302/269 241/278/269
f 234/279/270 248/300/270 249/303/270
f 241/278/271 257/288/271 242/280/271
f 235/281/272 249/303/272 250/304/272
f 261/295/273 277/305/273 262/297/273
f 255/298/274 269/306/274 270/307/274
f 248/300/275 82/308/275 263/309/275
f 308/310/276 262/297/276 277/305/276
f 255/298/277 271/311/277 256/302/277
f 249/303/278 263/309/278 264/312/278
f 256/302/279 272/313/279 257/288/279
f 249/303/280 265/314/280 250/304/280
f 258/289/281 272/313/281 273/315/281
f 250/304/282 266/316/282 251/290/282
f 258/289/283 274/317/283 259/291/283
f 252/292/284 266/316/284 267/318/284
f 260/293/285 274/317/285 275/319/285
f 252/292/286 268/320/286 253/294/286
f 261/295/287 275/319/287 276/321/287
f 254/296/288 268/320/288 269/306/288
f 265/314/289 281/322/289 266/316/289
f 273/315/290 289/323/290 274/317/290
f 267/318/291 281/322/291 282/324/291
f 275/319/292 289/323/292 290/325/292
f 267/318/293 283/326/293 268/320/293
f 275/319/294 291/327/294 276/321/294
f 269/306/295 283/326/295 284/328/295
f 276/321/296 292/329/296 277/305/296
f 270/307/297 284/328/297 285/330/297
f 263/309/298 82/331/298 278/332/298
f 308/333/299 277/305/299 292/329/299
f 270/307/300 286/334/300 271/311/300
f 263/309/301 279/335/301 264/312/301
f 271/311/302 287/336/302 272/313/302
f 264/312/303 280/337/303 265/314/303
f 273/315/304 287/336/304 288/338/304
f 285/330/305 299/339/305 300/340/305
f 278/332/306 82/341/306 293/342/306
f 308/343/307 292/329/307 307/344/307
f 285/330/308 301/345/308 286/334/308
f 278/332/309 294/346/309 279/335/309
f 286/334/310 302/347/310 287/336/310
f 280/337/311 294/346/311 295/348/311
f 288/338/312 302/347/312 303/349/312
f 280/337/313 296/350/313 281/322/313
f 288/338/314 304/351/314 289/323/314
f 282/324/315 296/350/315 297/352/315
f 290/325/316 304/351/316 305/353/316
f 282/324/317 298/354/317 283/326/317
f 290/325/318 306/355/318 291/327/318
f 284/328/319 298/354/319 299/339/319
f 292/329/320 306/355/320 307/344/320
f 303/349/321 320/356/321 304/351/321
f 297/352/322 312/357/322 313/358/322
f 305/353/323 320/356/323 321/359/323
f 297/352/324 314/360/324 298/354/324
f 305/353/325 322/361/325 306/355/325
f 299/339/326 314/360/326 315/362/326
f 306/355/327 323/363/327 307/344/327
f 300/340/328 315/362/328 316/364/328
f 293/342/329 82/365/329 309/366/329
f 308/367/330 307/344/330 323/363/330
f 300/340/331 317/368/331 301/345/331
f 294/346/332 309/366/332 310/369/332
f 301/345/333 318/370/333 302/347/333
f 295/348/334 310/369/334 311/371/334
f 303/349/335 318/370/335 319/372/335
f 295/348/336 312/357/336 296/350/336
f 308/373/337 323/363/337 338/374/337
f 316/364/338 332/375/338 317/368/338
f 309/366/339 325/376/339 310/369/339
f 317/368/340 333/377/340 318/370/340
f 310/369/341 326/378/341 311/371/341
f 319/372/342 333/377/342 334/379/342
f 311/371/343 327/380/343 312/357/343
f 319/372/344 335/381/344 320/356/344
f 313/358/345 327/380/345 328/382/345
f 321/359/346 335/381/346 336/383/346
f 313/358/347 329/384/347 314/360/347
f 321/359/348 337/385/348 322/361/348
f 315/362/349 329/384/349 330/386/349
f 323/363/350 337/385/350 338/374/350
f 316/364/351 330/386/351 331/387/351
f 309/366/352 82/388/352 324/389/352
f 336/383/353 350/390/353 351/391/353
f 328/382/354 344/392/354 329/384/354
f 336/383/355 352/393/355 337/385/355
f 330/386/356 344/392/356 345/394/356
f 338/374/357 352/393/357 353/395/357
f 331/387/358 345/394/358 346/396/358
f 324/389/359 82/397/359 339/398/359
f 308/399/360 338/374/360 353/395/360
f 331/387/361 347/400/361 332/375/361
f 324/389/362 340/401/362 325/376/362
f 332/375/363 348/402/363 333/377/363
f 326/378/364 340/401/364 341/403/364
f 334/379/365 348/402/365 349/404/365
f 326/378/366 342/405/366 327/380/366
f 334/379/367 350/390/367 335/381/367
f 328/382/368 342/405/368 343/406/368
f 339/398/369 355/407/369 340/401/369
f 347/400/370 363/408/370 348/402/370
f 341/403/371 355/407/371 356/409/371
f 349/404/372 363/408/372 364/410/372
f 341/403/373 357/411/373 342/405/373
f 349/404/374 365/412/374 350/390/374
f 343/406/375 357/411/375 358/413/375
f 351/391/376 365/412/376 366/414/376
f 343/406/377 359/415/377 344/392/377
f 351/391/378 367/416/378 352/393/378
f 345/394/379 359/415/379 360/417/379
f 353/395/380 367/416/380 368/418/380
f 346/396/381 360/417/381 361/419/381
f 339/398/382 82/420/382 354/421/382
f 308/422/383 353/395/383 368/418/383
f 346/396/384 362/423/384 347/400/384
f 358/424/385 374/425/385 359/426/385
f 366/427/386 382/428/386 367/429/386
f 360/430/387 374/425/387 375/431/387
f 367/429/388 383/432/388 368/433/388
f 361/434/389 375/431/389 376/435/389
f 354/436/390 82/437/390 369/438/390
f 308/439/391 368/433/391 383/432/391
f 361/434/392 377/440/392 362/441/392
f 355/442/393 369/438/393 370/443/393
f 362/441/394 378/444/394 363/445/394
f 356/446/395 370/443/395 371/447/395
f 364/448/396 378/444/396 379/449/396
f 356/446/397 372/450/397 357/451/397
f 364/448/398 380/452/398 365/453/398
f 358/424/399 372/450/399 373/454/399
f 366/427/400 380/452/400 381/455/400
f 377/440/401 393/456/401 378/444/401
f 371/447/402 385/457/402 386/458/402
f 379/449/403 393/456/403 394/459/403
f 371/447/404 387/460/404 372/450/404
f 379/449/405 395/461/405 380/452/405
f 373/454/406 387/460/406 388/462/406
f 381/455/407 395/461/407 396/463/407
f 373/454/408 389/464/408 374/425/408
f 381/455/409 397/465/409 382/428/409
f 375/431/410 389/464/410 390/466/410
f 382/428/411 398/467/411 383/432/411
f 376/435/412 390/466/412 391/468/412
f 369/438/413 82/469/413 384/470/413
f 308/471/414 383/432/414 398/467/414
f 376/435/415 392/472/415 377/440/415
f 370/443/416 384/470/416 385/457/416
f 396/463/417 412/473/417 397/465/417
f 390/466/418 404/474/418 405/475/418
f 398/467/419 412/473/419 413/476/419
f 391/468/420 405/475/420 406/477/420
f 384/470/421 82/478/421 399/479/421
f 308/480/422 398/467/422 413/476/422
f 391/468/423 407/481/423 392/472/423
f 384/470/424 400/482/424 385/457/424
f 392/472/425 408/483/425 393/456/425
f 386/458/426 400/482/426 401/484/426
f 394/459/427 408/483/427 409/485/427
f 386/458/428 402/486/428 387/460/428
f 394/459/429 410/487/429 395/461/429
f 388/462/430 402/486/430 403/488/430
f 396/463/431 410/487/431 411/489/431
f 388/462/432 404/474/432 389/464/432
f 401/484/433 415/490/433 416/491/433
f 409/485/434 423/492/434 424/493/434
f 401/484/435 417/494/435 402/486/435
f 409/485/436 425/495/436 410/487/436
f 403/488/437 417/494/437 418/496/437
f 411/489/438 425/495/438 426/497/438
f 403/488/439 419/498/439 404/474/439
f 411/489/440 427/499/440 412/473/440
f 405/475/441 419/498/441 420/500/441
f 412/473/442 428/501/442 413/476/442
f 406/477/443 420/500/443 421/502/443
f 399/479/444 82/503/444 414/504/444
f 308/505/445 413/476/445 428/501/445
f 406/477/446 422/506/446 407/481/446
f 399/479/447 415/490/447 400/482/447
f 407/481/448 423/492/448 408/483/448
f 420/500/449 434/507/449 435/508/449
f 428/501/450 442/509/450 443/510/450
f 421/502/451 435/508/451 436/511/451
f 414/504/452 82/512/452 429/513/452
f 308/514/453 428/501/453 443/510/453
f 421/502/454 437/515/454 422/506/454
f 414/504/455 430/516/455 415/490/455
f 422/506/456 438/517/456 423/492/456
f 416/491/457 430/516/457 431/518/457
f 424/493/458 438/517/458 439/519/458
f 416/491/459 432/520/459 417/494/459
f 424/493/460 440/521/460 425/495/460
f 418/496/461 432/520/461 433/522/461
f 426/497/462 440/521/462 441/523/462
f 418/496/463 434/507/463 419/498/463
f 426/497/464 442/509/464 427/499/464
f 439/519/465 453/524/465 454/525/465
f 431/518/466 447/526/466 432/520/466
f 439/519/467 455/527/467 440/521/467
f 433/522/468 447/526/468 448/528/468
f 441/523/469 455/527/469 456/529/469
f 433/522/470 449/530/470 434/507/470
f 441/523/471 457/531/471 442/509/471
f 435/508/472 449/530/472 450/532/472
f 442/509/473 458/533/473 443/510/473
f 436/511/474 450/532/474 451/534/474
f 429/513/475 82/535/475 444/536/475
f 308/537/476 443/510/476 458/533/476
f 436/511/477 452/538/477 437/515/477
f 430/516/478 444/536/478 445/539/478
f 437/515/479 453/524/479 438/517/479
f 431/518/480 445/539/480 446/540/480
f 458/533/481 472/541/481 473/542/481
f 451/534/482 465/543/482 466/544/482
f 444/536/483 82/545/483 459/546/483
f 308/547/484 458/533/484 473/542/484
f 451/534/485 467/548/485 452/538/485
f 444/536/486 460/549/486 445/539/486
f 452/538/487 468/550/487 453/524/487
f 446/540/488 460/549/488 461/551/488
f 454/525/489 468/550/489 469/552/489
f 446/540/490 462/553/490 447/526/490
f 454/525/491 470/554/491 455/527/491
f 448/528/492 462/553/492 463/555/492
f 456/529/493 470/554/493 471/556/493
f 448/528/494 464/557/494 449/530/494
f 456/529/495 472/541/495 457/531/495
f 450/532/496 464/557/496 465/543/496
f 469/552/497 479/4/497 470/554/497
f 463/555/498 476/1/498 2/8/498
f 471/556/499 479/4/499 480/10/499
f 464/557/500 2/8/500 477/11/500
f 471/556/501 481/14/501 472/541/501
f 465/543/502 477/11/502 3/15/502
f 472/541/503 482/18/503 473/542/503
f 466/544/504 3/15/504 4/20/504
f 459/546/505 82/558/505 474/21/505
f 308/559/506 473/542/506 482/18/506
f 466/544/507 5/26/507 467/548/507
f 459/546/508 475/27/508 460/549/508
f 467/548/509 478/30/509 468/550/509
f 461/551/510 475/27/510 1/31/510
f 468/550/511 6/32/511 469/552/511
f 462/553/512 1/31/512 476/1/512
f 476/1/1 1/31/1 9/2/1
f 479/4/2 6/32/2 17/5/2
f 476/1/3 10/3/3 11/7/3
f 479/4/4 18/6/4 19/9/4
f 477/11/5 2/8/5 11/7/5
f 480/10/6 19/9/6 20/13/6
f 3/15/7 477/11/7 12/12/7
f 481/14/8 20/13/8 21/17/8
f 3/15/513 13/16/513 14/19/513
f 4/20/514 14/19/514 15/25/514
f 475/27/13 474/21/13 7/23/13
f 5/26/14 15/25/14 16/29/14
f 1/31/15 475/27/15 8/28/15
f 478/30/16 16/29/16 17/5/16
f 15/25/17 30/48/17 31/33/17
f 8/28/18 23/49/18 24/34/18
f 17/5/19 16/29/19 31/33/19
f 9/2/20 24/34/20 25/36/20
f 18/6/21 17/5/21 32/35/21
f 10/3/22 25/36/22 26/38/22
f 19/9/23 18/6/23 33/37/23
f 11/7/24 26/38/24 27/40/24
f 20/13/25 19/9/25 34/39/25
f 13/16/26 12/12/26 27/40/26
f 20/13/27 35/41/27 36/43/27
f 13/16/28 28/42/28 29/44/28
f 14/19/31 29/44/31 30/48/31
f 7/23/32 22/46/32 23/49/32
f 35/41/515 34/39/515 49/50/515
f 28/42/34 27/40/34 42/52/34
f 36/43/35 35/41/35 50/51/35
f 29/44/36 28/42/36 43/53/36
f 29/44/39 44/55/39 45/59/39
f 22/46/40 37/57/40 38/60/40
f 30/48/41 45/59/41 46/61/41
f 23/49/516 38/60/516 39/62/516
f 32/35/43 31/33/43 46/61/43
f 24/34/44 39/62/44 40/64/44
f 33/37/45 32/35/45 47/63/45
f 25/36/46 40/64/46 41/66/46
f 34/39/47 33/37/47 48/65/47
f 26/38/48 41/66/48 42/52/48
f 47/63/49 46/61/49 61/67/49
f 39/62/50 54/83/50 55/69/50
f 47/63/51 62/68/51 63/70/51
f 41/66/52 40/64/52 55/69/52
f 49/50/53 48/65/53 63/70/53
f 41/66/54 56/71/54 57/73/54
f 50/51/55 49/50/55 64/72/55
f 43/53/56 42/52/56 57/73/56
f 51/54/57 50/51/57 65/74/57
f 44/55/58 43/53/58 58/75/58
f 44/55/61 59/77/61 60/81/61
f 37/57/62 52/79/62 53/82/62
f 45/59/63 60/81/63 61/67/63
f 38/60/64 53/82/64 54/83/64
f 65/74/517 80/100/517 81/84/517
f 59/77/66 58/75/66 73/85/66
f 59/77/69 74/86/69 75/90/69
f 53/82/70 52/79/70 67/88/70
f 60/81/71 75/90/71 76/92/71
f 54/83/72 53/82/72 68/91/72
f 62/68/73 61/67/73 76/92/73
f 54/83/74 69/93/74 70/95/74
f 62/68/75 77/94/75 78/96/75
f 56/71/76 55/69/76 70/95/76
f 64/72/77 63/70/77 78/96/77
f 56/71/78 71/97/78 72/99/78
f 64/72/79 79/98/79 80/100/79
f 58/75/80 57/73/80 72/99/80
f 69/93/81 85/116/81 86/101/81
f 77/94/82 93/117/82 94/102/82
f 71/97/83 70/95/83 86/101/83
f 79/98/84 78/96/84 94/102/84
f 71/97/85 87/103/85 88/105/85
f 80/100/86 79/98/86 95/104/86
f 73/85/87 72/99/87 88/105/87
f 81/84/88 80/100/88 96/106/88
f 74/86/89 73/85/89 89/107/89
f 74/86/92 90/109/92 91/113/92
f 67/88/93 83/111/93 84/114/93
f 75/90/94 91/113/94 92/115/94
f 68/91/95 84/114/95 85/116/95
f 77/94/96 76/92/96 92/115/96
f 90/109/97 89/107/97 104/118/97
f 90/109/100 105/119/100 106/124/100
f 83/111/101 98/121/101 99/125/101
f 91/113/102 106/124/102 107/126/102
f 85/116/103 84/114/103 99/125/103
f 93/117/104 92/115/104 107/126/104
f 85/116/105 100/127/105 101/129/105
f 93/117/106 108/128/106 109/130/106
f 87/103/107 86/101/107 101/129/107
f 95/104/108 94/102/108 109/130/108
f 87/103/109 102/131/109 103/133/109
f 95/104/110 110/132/110 111/134/110
f 89/107/111 88/105/111 103/133/111
f 96/106/112 111/134/112 112/123/112
f 108/128/113 123/151/113 124/135/113
f 102/131/114 101/129/114 116/136/114
f 110/132/115 109/130/115 124/135/115
f 102/131/116 117/137/116 118/139/116
f 111/134/117 110/132/117 125/138/117
f 104/118/118 103/133/118 118/139/118
f 111/134/119 126/140/119 127/142/119
f 105/119/120 104/118/120 119/141/120
f 105/119/123 120/143/123 121/147/123
f 98/121/124 113/145/124 114/148/124
f 106/124/125 121/147/125 122/149/125
f 99/125/126 114/148/126 115/150/126
f 108/128/127 107/126/127 122/149/127
f 100/127/128 115/150/128 116/136/128
f 120/143/131 135/168/131 136/156/131
f 114/148/132 113/145/132 128/153/132
f 121/147/133 136/156/133 137/158/133
f 115/150/134 114/148/134 129/157/134
f 123/151/135 122/149/135 137/158/135
f 115/150/136 130/159/136 131/161/136
f 123/151/137 138/160/137 139/162/137
f 117/137/138 116/136/138 131/161/138
f 125/138/139 124/135/139 139/162/139
f 117/137/140 132/163/140 133/165/140
f 125/138/141 140/164/141 141/166/141
f 119/141/142 118/139/142 133/165/142
f 126/140/143 141/166/143 142/155/143
f 120/143/144 119/141/144 134/167/144
f 132/163/145 131/161/145 146/169/145
f 140/164/146 139/162/146 154/171/146
f 132/163/147 147/170/147 148/173/147
f 141/166/148 140/164/148 155/172/148
f 134/167/149 133/165/149 148/173/149
f 141/166/150 156/174/150 157/176/150
f 135/168/151 134/167/151 149/175/151
f 135/168/154 150/177/154 151/181/154
f 128/153/155 143/179/155 144/182/155
f 136/156/156 151/181/156 152/183/156
f 129/157/157 144/182/157 145/184/157
f 138/160/158 137/158/158 152/183/158
f 130/159/159 145/184/159 146/169/159
f 138/160/160 153/185/160 154/171/160
f 150/177/161 165/199/161 166/186/161
f 143/179/162 158/201/162 159/187/162
f 151/181/163 166/186/163 167/188/163
f 144/182/518 159/187/518 160/189/518
f 153/185/165 152/183/165 167/188/165
f 145/184/166 160/189/166 161/191/166
f 153/185/167 168/190/167 169/192/167
f 147/170/168 146/169/168 161/191/168
f 155/172/169 154/171/169 169/192/169
f 147/170/170 162/193/170 163/195/170
f 156/174/519 155/172/519 170/194/519
f 149/175/172 148/173/172 163/195/172
f 157/176/520 156/174/520 171/196/520
f 150/177/174 149/175/174 164/197/174
f 170/194/177 169/192/177 184/203/177
f 162/193/178 177/219/178 178/205/178
f 171/196/179 170/194/179 185/204/179
f 164/197/180 163/195/180 178/205/180
f 172/198/181 171/196/181 186/206/181
f 165/199/182 164/197/182 179/207/182
f 165/199/185 180/209/185 181/213/185
f 158/201/186 173/211/186 174/214/186
f 166/186/187 181/213/187 182/215/187
f 159/187/188 174/214/188 175/216/188
f 168/190/189 167/188/189 182/215/189
f 160/189/190 175/216/190 176/218/190
f 168/190/191 183/217/191 184/203/191
f 162/193/192 161/191/192 176/218/192
f 181/213/193 196/236/193 197/220/193
f 175/216/194 174/214/194 189/221/194
f 183/217/195 182/215/195 197/220/195
f 175/216/196 190/222/196 191/224/196
f 183/217/197 198/223/197 199/225/197
f 177/219/198 176/218/198 191/224/198
f 185/204/199 184/203/199 199/225/199
f 177/219/200 192/226/200 193/228/200
f 185/204/201 200/227/201 201/229/201
f 179/207/202 178/205/202 193/228/202
f 186/206/203 201/229/203 202/231/203
f 180/209/204 179/207/204 194/230/204
f 180/209/207 195/232/207 196/236/207
f 174/214/208 173/211/208 188/234/208
f 201/229/209 200/227/209 215/237/209
f 194/230/210 193/228/210 208/239/210
f 202/231/211 201/229/211 216/238/211
f 195/232/212 194/230/212 209/240/212
f 195/232/215 210/242/215 211/246/215
f 188/234/216 203/244/216 204/247/216
f 196/236/217 211/246/217 212/248/217
f 189/221/218 204/247/218 205/249/218
f 198/223/219 197/220/219 212/248/219
f 190/222/220 205/249/220 206/251/220
f 198/223/221 213/250/221 214/252/221
f 192/226/222 191/224/222 206/251/222
f 200/227/223 199/225/223 214/252/223
f 192/226/224 207/253/224 208/239/224
f 204/247/225 219/270/225 220/254/225
f 213/250/226 212/248/226 227/255/226
f 205/249/227 220/254/227 221/257/227
f 213/250/228 228/256/228 229/258/228
f 207/253/229 206/251/229 221/257/229
f 215/237/230 214/252/230 229/258/230
f 207/253/231 222/259/231 223/261/231
f 216/238/232 215/237/232 230/260/232
f 209/240/233 208/239/233 223/261/233
f 217/241/234 216/238/234 231/262/234
f 210/242/235 209/240/235 224/263/235
f 210/242/238 225/265/238 226/269/238
f 203/244/239 218/267/239 219/270/239
f 211/246/240 226/269/240 227/255/240
f 224/263/241 223/261/241 238/271/241
f 231/262/242 246/287/242 247/273/242
f 225/265/243 224/263/243 239/272/243
f 225/265/246 240/274/246 241/278/246
f 219/270/247 218/267/247 233/276/247
f 226/269/248 241/278/248 242/280/248
f 219/270/249 234/279/249 235/281/249
f 228/256/250 227/255/250 242/280/250
f 220/254/251 235/281/251 236/283/251
f 228/256/252 243/282/252 244/284/252
f 222/259/253 221/257/253 236/283/253
f 230/260/254 229/258/254 244/284/254
f 222/259/255 237/285/255 238/271/255
f 231/262/256 230/260/256 245/286/256
f 243/282/257 242/280/257 257/288/257
f 235/281/258 250/304/258 251/290/258
f 243/282/259 258/289/259 259/291/259
f 237/285/260 236/283/260 251/290/260
f 245/286/261 244/284/261 259/291/261
f 237/285/262 252/292/262 253/294/262
f 245/286/263 260/293/263 261/295/263
f 239/272/264 238/271/264 253/294/264
f 246/287/265 261/295/265 262/297/265
f 240/274/521 239/272/521 254/296/521
f 240/274/522 255/298/522 256/302/522
f 234/279/270 233/276/270 248/300/270
f 241/278/271 256/302/271 257/288/271
f 235/281/272 234/279/272 249/303/272
f 261/295/273 276/321/273 277/305/273
f 255/298/274 254/296/274 269/306/274
f 255/298/277 270/307/277 271/311/277
f 249/303/278 248/300/278 263/309/278
f 256/302/279 271/311/279 272/313/279
f 249/303/280 264/312/280 265/314/280
f 258/289/281 257/288/281 272/313/281
f 250/304/282 265/314/282 266/316/282
f 258/289/283 273/315/283 274/317/283
f 252/292/284 251/290/284 266/316/284
f 260/293/285 259/291/285 274/317/285
f 252/292/286 267/318/286 268/320/286
f 261/295/287 260/293/287 275/319/287
f 254/296/288 253/294/288 268/320/288
f 265/314/289 280/337/289 281/322/289
f 273/315/290 288/338/290 289/323/290
f 267/318/291 266/316/291 281/322/291
f 275/319/292 274/317/292 289/323/292
f 267/318/293 282/324/293 283/326/293
f 275/319/523 290/325/523 291/327/523
f 269/306/295 268/320/295 283/326/295
f 276/321/296 291/327/296 292/329/296
f 270/307/297 269/306/297 284/328/297
f 270/307/300 285/330/300 286/334/300
f 263/309/301 278/332/301 279/335/301
f 271/311/302 286/334/302 287/336/302
f 264/312/524 279/335/524 280/337/524
f 273/315/304 272/313/304 287/336/304
f 285/330/305 284/328/305 299/339/305
f 285/330/308 300/340/308 301/345/308
f 278/332/309 293/342/309 294/346/309
f 286/334/310 301/345/310 302/347/310
f 280/337/311 279/335/311 294/346/311
f 288/338/312 287/336/312 302/347/312
f 280/337/313 295/348/313 296/350/313
f 288/338/314 303/349/314 304/351/314
f 282/324/315 281/322/315 296/350/315
f 290/325/316 289/323/316 304/351/316
f 282/324/317 297/352/317 298/354/317
f 290/325/318 305/353/318 306/355/318
f 284/328/319 283/326/319 298/354/319
f 292/329/320 291/327/320 306/355/320
f 303/349/321 319/372/321 320/356/321
f 297/352/322 296/350/322 312/357/322
f 305/353/323 304/351/323 320/356/323
f 297/352/324 313/358/324 314/360/324
f 305/353/325 321/359/325 322/361/325
f 299/339/326 298/354/326 314/360/326
f 306/355/525 322/361/525 323/363/525
f 300/340/328 299/339/328 315/362/328
f 300/340/331 316/364/331 317/368/331
f 294/346/526 293/342/526 309/366/526
f 301/345/333 317/368/333 318/370/333
f 295/348/334 294/346/334 310/369/334
f 303/349/335 302/347/335 318/370/335
f 295/348/336 311/371/336 312/357/336
f 316/364/338 331/387/338 332/375/338
f 309/366/339 324/389/339 325/376/339
f 317/368/340 332/375/340 333/377/340
f 310/369/341 325/376/341 326/378/341
f 319/372/342 318/370/342 333/377/342
f 311/371/343 326/378/343 327/380/343
f 319/372/344 334/379/344 335/381/344
f 313/358/345 312/357/345 327/380/345
f 321/359/346 320/356/346 335/381/346
f 313/358/347 328/382/347 329/384/347
f 321/359/527 336/383/527 337/385/527
f 315/362/349 314/360/349 329/384/349
f 323/363/350 322/361/350 337/385/350
f 316/364/351 315/362/351 330/386/351
f 336/383/353 335/381/353 350/390/353
f 328/382/354 343/406/354 344/392/354
f 336/383/355 351/391/355 352/393/355
f 330/386/356 329/384/356 344/392/356
f 338/374/357 337/385/357 352/393/357
f 331/387/358 330/386/358 345/394/358
f 331/387/361 346/396/361 347/400/361
f 324/389/362 339/398/362 340/401/362
f 332/375/363 347/400/363 348/402/363
f 326/378/364 325/376/364 340/401/364
f 334/379/365 333/377/365 348/402/365
f 326/378/366 341/403/366 342/405/366
f 334/379/367 349/404/367 350/390/367
f 328/382/368 327/380/368 342/405/368
f 339/398/369 354/421/369 355/407/369
f 347/400/370 362/423/370 363/408/370
f 341/403/371 340/401/371 355/407/371
f 349/404/372 348/402/372 363/408/372
f 341/403/373 356/409/373 357/411/373
f 349/404/374 364/410/374 365/412/374
f 343/406/375 342/405/375 357/411/375
f 351/391/376 350/390/376 365/412/376
f 343/406/377 358/413/377 359/415/377
f 351/391/378 366/414/378 367/416/378
f 345/394/379 344/392/379 359/415/379
f 353/395/380 352/393/380 367/416/380
f 346/396/528 345/394/528 360/417/528
f 346/396/529 361/419/529 362/423/529
f 358/424/385 373/454/385 374/425/385
f 366/427/386 381/455/386 382/428/386
f 360/430/387 359/426/387 374/425/387
f 367/429/388 382/428/388 383/432/388
f 361/434/530 360/430/530 375/431/530
f 361/434/531 376/435/531 377/440/531
f 355/442/393 354/436/393 369/438/393
f 362/441/394 377/440/394 378/444/394
f 356/446/395 355/442/395 370/443/395
f 364/448/396 363/445/396 378/444/396
f 356/446/397 371/447/397 372/450/397
f 364/448/398 379/449/398 380/452/398
f 358/424/399 357/451/399 372/450/399
f 366/427/400 365/453/400 380/452/400
f 377/440/401 392/472/401 393/456/401
f 371/447/402 370/443/402 385/457/402
f 379/449/403 378/444/403 393/456/403
f 371/447/404 386/458/404 387/460/404
f 379/449/405 394/459/405 395/461/405
f 373/454/406 372/450/406 387/460/406
f 381/455/407 380/452/407 395/461/407
f 373/454/408 388/462/408 389/464/408
f 381/455/409 396/463/409 397/465/409
f 375/431/410 374/425/410 389/464/410
f 382/428/411 397/465/411 398/467/411
f 376/435/412 375/431/412 390/466/412
f 376/435/415 391/468/415 392/472/415
f 370/443/416 369/438/416 384/470/416
f 396/463/417 411/489/417 412/473/417
f 390/466/418 389/464/418 404/474/418
f 398/467/419 397/465/419 412/473/419
f 391/468/420 390/466/420 405/475/420
f 391/468/423 406/477/423 407/481/423
f 384/470/424 399/479/424 400/482/424
f 392/472/425 407/481/425 408/483/425
f 386/458/426 385/457/426 400/482/426
f 394/459/427 393/456/427 408/483/427
f 386/458/428 401/484/428 402/486/428
f 394/459/429 409/485/429 410/487/429
f 388/462/430 387/460/430 402/486/430
f 396/463/431 395/461/431 410/487/431
f 388/462/432 403/488/432 404/474/432
f 401/484/433 400/482/433 415/490/433
f 409/485/434 408/483/434 423/492/434
f 401/484/435 416/491/435 417/494/435
f 409/485/436 424/493/436 425/495/436
f 403/488/437 402/486/437 417/494/437
f 411/489/438 410/487/438 425/495/438
f 403/488/439 418/496/439 419/498/439
f 411/489/440 426/497/440 427/499/440
f 405/475/441 404/474/441 419/498/441
f 412/473/442 427/499/442 428/501/442
f 406/477/443 405/475/443 420/500/443
f 406/477/446 421/502/446 422/506/446
f 399/479/447 414/504/447 415/490/447
f 407/481/448 422/506/448 423/492/448
f 420/500/449 419/498/449 434/507/449
f 428/501/450 427/499/450 442/509/450
f 421/502/451 420/500/451 435/508/451
f 421/502/454 436/511/454 437/515/454
f 414/504/455 429/513/455 430/516/455
f 422/506/456 437/515/456 438/517/456
f 416/491/457 415/490/457 430/516/457
f 424/493/458 423/492/458 438/517/458
f 416/491/459 431/518/459 432/520/459
f 424/493/460 439/519/460 440/521/460
f 418/496/461 417/494/461 432/520/461
f 426/497/462 425/495/462 440/521/462
f 418/496/463 433/522/463 434/507/463
f 426/497/464 441/523/464 442/509/464
f 439/519/465 438/517/465 453/524/465
f 431/518/466 446/540/466 447/526/466
f 439/519/467 454/525/467 455/527/467
f 433/522/468 432/520/468 447/526/468
f 441/523/469 440/521/469 455/527/469
f 433/522/470 448/528/470 449/530/470
f 441/523/471 456/529/471 457/531/471
f 435/508/472 434/507/472 449/530/472
f 442/509/473 457/531/473 458/533/473
f 436/511/474 435/508/474 450/532/474
f 436/511/477 451/534/477 452/538/477
f 430/516/478 429/513/478 444/536/478
f 437/515/479 452/538/479 453/524/479
f 431/518/480 430/516/480 445/539/480
f 458/533/481 457/531/481 472/541/481
f 451/534/482 450/532/482 465/543/482
f 451/534/485 466/544/485 467/548/485
f 444/536/486 459/546/486 460/549/486
f 452/538/487 467/548/487 468/550/487
f 446/540/488 445/539/488 460/549/488
f 454/525/489 453/524/489 468/550/489
f 446/540/490 461/551/490 462/553/490
f 454/525/491 469/552/491 470/554/491
f 448/528/492 447/526/492 462/553/492
f 456/529/493 455/527/493 470/554/493
f 448/528/494 463/555/494 464/557/494
f 456/529/495 471/556/495 472/541/495
f 450/532/496 449/530/496 464/557/496
f 469/552/497 6/32/497 479/4/497
f 463/555/498 462/553/498 476/1/498
f 471/556/499 470/554/499 479/4/499
f 464/557/500 463/555/500 2/8/500
f 471/556/501 480/10/501 481/14/501
f 465/543/502 464/557/502 477/11/502
f 472/541/503 481/14/503 482/18/503
f 466/544/504 465/543/504 3/15/504
f 466/544/507 4/20/507 5/26/507
f 459/546/508 474/21/508 475/27/508
f 467/548/509 5/26/509 478/30/509
f 461/551/510 460/549/510 475/27/510
f 468/550/511 478/30/511 6/32/511
f 462/553/512 461/551/512 1/31/512
