# Blender 4.1.1
# www.blender.org
mtllib denki.mtl
o 球
v 0.000000 0.831470 0.555570
v 0.000000 0.555570 0.831470
v 0.000000 0.195090 0.980785
v 0.000000 0.000000 1.000000
v 0.000000 -0.195090 0.980785
v 0.000000 -0.555570 0.831470
v -0.038060 0.980785 0.191342
v -0.074658 0.923880 0.375330
v -0.108386 0.831470 0.544895
v -0.137950 0.707107 0.693520
v -0.162212 0.555570 0.815493
v -0.180240 0.382683 0.906127
v -0.191342 0.195090 0.961940
v -0.195090 0.000000 0.980785
v -0.191342 -0.195090 0.961940
v -0.180240 -0.382683 0.906127
v -0.162212 -0.555570 0.815493
v -0.137950 -0.707107 0.693520
v -0.108386 -0.831470 0.544895
v -0.074658 -0.923880 0.375330
v -0.038060 -0.980785 0.191342
v -0.074658 0.980785 0.180240
v -0.146447 0.923880 0.353553
v -0.212608 0.831470 0.513280
v -0.270598 0.707107 0.653281
v -0.318190 0.555570 0.768178
v -0.353553 0.382683 0.853553
v -0.375330 0.195090 0.906127
v -0.382683 0.000000 0.923879
v -0.375330 -0.195090 0.906127
v -0.353553 -0.382683 0.853553
v -0.318190 -0.555570 0.768178
v -0.270598 -0.707107 0.653281
v -0.212608 -0.831470 0.513280
v -0.146447 -0.923880 0.353553
v -0.074658 -0.980785 0.180240
v -0.108386 0.980785 0.162212
v -0.212608 0.923880 0.318190
v -0.308658 0.831470 0.461940
v -0.392847 0.707107 0.587938
v -0.461940 0.555570 0.691342
v -0.513280 0.382683 0.768178
v -0.544895 0.195090 0.815493
v -0.555570 0.000000 0.831469
v -0.544895 -0.195090 0.815493
v -0.513280 -0.382683 0.768178
v -0.461940 -0.555570 0.691342
v -0.392847 -0.707107 0.587938
v -0.308658 -0.831470 0.461940
v -0.212608 -0.923880 0.318190
v -0.108386 -0.980785 0.162212
v -0.137950 0.980785 0.137950
v -0.270598 0.923880 0.270598
v -0.392847 0.831470 0.392847
v -0.500000 0.707107 0.500000
v -0.587938 0.555570 0.587938
v -0.653281 0.382683 0.653281
v -0.693520 0.195090 0.693520
v -0.707107 0.000000 0.707107
v -0.693520 -0.195090 0.693520
v -0.653281 -0.382683 0.653281
v -0.587938 -0.555570 0.587938
v -0.500000 -0.707107 0.500000
v -0.392847 -0.831470 0.392847
v -0.270598 -0.923880 0.270598
v -0.137950 -0.980785 0.137950
v -0.162212 0.980785 0.108386
v -0.318190 0.923880 0.212608
v -0.461940 0.831470 0.308658
v -0.587938 0.707107 0.392847
v -0.691342 0.555570 0.461940
v -0.768178 0.382683 0.513280
v -0.815493 0.195090 0.544895
v -0.831470 0.000000 0.555570
v -0.815493 -0.195090 0.544895
v -0.768178 -0.382683 0.513280
v -0.691342 -0.555570 0.461940
v -0.587938 -0.707107 0.392847
v -0.461940 -0.831470 0.308658
v -0.318190 -0.923880 0.212608
v -0.162212 -0.980785 0.108386
v 0.000000 1.000000 0.000000
v -0.180240 0.980785 0.074658
v -0.353553 0.923880 0.146447
v -0.513280 0.831470 0.212607
v -0.653281 0.707107 0.270598
v -0.768178 0.555570 0.318190
v -0.853553 0.382683 0.353553
v -0.906127 0.195090 0.375330
v -0.923879 0.000000 0.382683
v -0.906127 -0.195090 0.375330
v -0.853553 -0.382683 0.353553
v -0.768178 -0.555570 0.318190
v -0.653281 -0.707107 0.270598
v -0.513280 -0.831470 0.212607
v -0.353553 -0.923880 0.146447
v -0.180240 -0.980785 0.074658
v -0.191342 0.980785 0.038060
v -0.375330 0.923880 0.074658
v -0.544895 0.831470 0.108386
v -0.693520 0.707107 0.137950
v -0.815493 0.555570 0.162212
v -0.906127 0.382683 0.180240
v -0.961940 0.195090 0.191342
v -0.980785 0.000000 0.195090
v -0.961940 -0.195090 0.191342
v -0.906127 -0.382683 0.180240
v -0.815493 -0.555570 0.162212
v -0.693520 -0.707107 0.137950
v -0.544895 -0.831470 0.108386
v -0.375330 -0.923880 0.074658
v -0.191342 -0.980785 0.038060
v -0.195090 0.980785 -0.000000
v -0.382683 0.923880 -0.000000
v -0.555570 0.831470 -0.000000
v -0.707107 0.707107 0.000000
v -0.831469 0.555570 -0.000000
v -0.923879 0.382683 0.000000
v -0.980785 0.195090 -0.000000
v -1.000000 0.000000 -0.000000
v -0.980785 -0.195090 -0.000000
v -0.923879 -0.382683 0.000000
v -0.831469 -0.555570 -0.000000
v -0.707107 -0.707107 0.000000
v -0.555570 -0.831470 -0.000000
v -0.382683 -0.923880 -0.000000
v -0.195090 -0.980785 -0.000000
v -0.191342 0.980785 -0.038060
v -0.375330 0.923880 -0.074658
v -0.544895 0.831470 -0.108386
v -0.693520 0.707107 -0.137950
v -0.815493 0.555570 -0.162212
v -0.906127 0.382683 -0.180240
v -0.961940 0.195090 -0.191342
v -0.980785 0.000000 -0.195090
v -0.961940 -0.195090 -0.191342
v -0.906127 -0.382683 -0.180240
v -0.815493 -0.555570 -0.162212
v -0.693520 -0.707107 -0.137950
v -0.544895 -0.831470 -0.108386
v -0.375330 -0.923880 -0.074658
v -0.191342 -0.980785 -0.038060
v -0.180240 0.980785 -0.074658
v -0.353553 0.923880 -0.146447
v -0.513280 0.831470 -0.212608
v -0.653281 0.707107 -0.270598
v -0.768178 0.555570 -0.318190
v -0.853553 0.382683 -0.353553
v -0.906127 0.195090 -0.375330
v -0.923879 0.000000 -0.382683
v -0.906127 -0.195090 -0.375330
v -0.853553 -0.382683 -0.353553
v -0.768178 -0.555570 -0.318190
v -0.653281 -0.707107 -0.270598
v -0.513280 -0.831470 -0.212608
v -0.353553 -0.923880 -0.146447
v -0.180240 -0.980785 -0.074658
v -0.162212 0.980785 -0.108386
v -0.318190 0.923880 -0.212608
v -0.461940 0.831470 -0.308658
v -0.587938 0.707107 -0.392847
v -0.691341 0.555570 -0.461940
v -0.768178 0.382683 -0.513280
v -0.815493 0.195090 -0.544895
v -0.831469 0.000000 -0.555570
v -0.815493 -0.195090 -0.544895
v -0.768178 -0.382683 -0.513280
v -0.691341 -0.555570 -0.461940
v -0.587938 -0.707107 -0.392847
v -0.461940 -0.831470 -0.308658
v -0.318190 -0.923880 -0.212608
v -0.162212 -0.980785 -0.108386
v -0.137950 0.980785 -0.137950
v -0.270598 0.923880 -0.270598
v -0.392847 0.831470 -0.392847
v -0.500000 0.707107 -0.500000
v -0.587938 0.555570 -0.587938
v -0.653281 0.382683 -0.653281
v -0.693520 0.195090 -0.693520
v -0.707106 0.000000 -0.707107
v -0.693520 -0.195090 -0.693520
v -0.653281 -0.382683 -0.653281
v -0.587938 -0.555570 -0.587938
v -0.500000 -0.707107 -0.500000
v -0.392847 -0.831470 -0.392847
v -0.270598 -0.923880 -0.270598
v -0.137950 -0.980785 -0.137950
v -0.108386 0.980785 -0.162212
v -0.212607 0.923880 -0.318190
v -0.308658 0.831470 -0.461940
v -0.392847 0.707107 -0.587938
v -0.461940 0.555570 -0.691342
v -0.513280 0.382683 -0.768178
v -0.544895 0.195090 -0.815493
v -0.555570 0.000000 -0.831469
v -0.544895 -0.195090 -0.815493
v -0.513280 -0.382683 -0.768178
v -0.461940 -0.555570 -0.691342
v -0.392847 -0.707107 -0.587938
v -0.308658 -0.831470 -0.461940
v -0.212607 -0.923880 -0.318190
v -0.108386 -0.980785 -0.162212
v -0.074658 0.980785 -0.180240
v -0.146447 0.923880 -0.353553
v -0.212607 0.831470 -0.513280
v -0.270598 0.707107 -0.653281
v -0.318189 0.555570 -0.768178
v -0.353553 0.382683 -0.853553
v -0.375330 0.195090 -0.906127
v -0.382683 0.000000 -0.923879
v -0.375330 -0.195090 -0.906127
v -0.353553 -0.382683 -0.853553
v -0.318189 -0.555570 -0.768178
v -0.270598 -0.707107 -0.653281
v -0.212607 -0.831470 -0.513280
v -0.146447 -0.923880 -0.353553
v -0.074658 -0.980785 -0.180240
v -0.038060 0.980785 -0.191342
v -0.074658 0.923880 -0.375330
v -0.108386 0.831470 -0.544895
v -0.137950 0.707107 -0.693520
v -0.162212 0.555570 -0.815493
v -0.180240 0.382683 -0.906127
v -0.191342 0.195090 -0.961939
v -0.195090 0.000000 -0.980785
v -0.191342 -0.195090 -0.961939
v -0.180240 -0.382683 -0.906127
v -0.162212 -0.555570 -0.815493
v -0.137950 -0.707107 -0.693520
v -0.108386 -0.831470 -0.544895
v -0.074658 -0.923880 -0.375330
v -0.038060 -0.980785 -0.191342
v 0.000000 0.980785 -0.195090
v 0.000000 0.923880 -0.382683
v 0.000000 0.831470 -0.555570
v 0.000000 0.707107 -0.707107
v 0.000000 0.555570 -0.831469
v -0.000000 0.382683 -0.923879
v 0.000000 0.195090 -0.980785
v 0.000000 0.000000 -0.999999
v 0.000000 -0.195090 -0.980785
v -0.000000 -0.382683 -0.923879
v 0.000000 -0.555570 -0.831469
v 0.000000 -0.707107 -0.707107
v 0.000000 -0.831470 -0.555570
v 0.000000 -0.923880 -0.382683
v 0.000000 -0.980785 -0.195090
v 0.038060 0.980785 -0.191342
v 0.074658 0.923880 -0.375330
v 0.108386 0.831470 -0.544895
v 0.137950 0.707107 -0.693520
v 0.162212 0.555570 -0.815493
v 0.180240 0.382683 -0.906127
v 0.191342 0.195090 -0.961939
v 0.195091 0.000000 -0.980785
v 0.191342 -0.195090 -0.961939
v 0.180240 -0.382683 -0.906127
v 0.162212 -0.555570 -0.815493
v 0.137950 -0.707107 -0.693520
v 0.108386 -0.831470 -0.544895
v 0.074658 -0.923880 -0.375330
v 0.038060 -0.980785 -0.191342
v 0.074658 0.980785 -0.180240
v 0.146447 0.923880 -0.353553
v 0.212608 0.831470 -0.513280
v 0.270598 0.707107 -0.653281
v 0.318190 0.555570 -0.768177
v 0.353553 0.382683 -0.853553
v 0.375330 0.195090 -0.906127
v 0.382683 0.000000 -0.923879
v 0.375330 -0.195090 -0.906127
v 0.353553 -0.382683 -0.853553
v 0.318190 -0.555570 -0.768177
v 0.270598 -0.707107 -0.653281
v 0.212608 -0.831470 -0.513280
v 0.146447 -0.923880 -0.353553
v 0.074658 -0.980785 -0.180240
v 0.108386 0.980785 -0.162212
v 0.212608 0.923880 -0.318190
v 0.308658 0.831470 -0.461939
v 0.392847 0.707107 -0.587938
v 0.461940 0.555570 -0.691341
v 0.513280 0.382683 -0.768178
v 0.544895 0.195090 -0.815493
v 0.555570 0.000000 -0.831469
v 0.544895 -0.195090 -0.815493
v 0.513280 -0.382683 -0.768178
v 0.461940 -0.555570 -0.691341
v 0.392847 -0.707107 -0.587938
v 0.308658 -0.831470 -0.461939
v 0.212608 -0.923880 -0.318190
v 0.108386 -0.980785 -0.162212
v 0.137950 0.980785 -0.137950
v 0.270598 0.923880 -0.270598
v 0.392847 0.831470 -0.392847
v 0.500000 0.707107 -0.500000
v 0.587938 0.555570 -0.587937
v 0.653281 0.382683 -0.653281
v 0.693520 0.195090 -0.693520
v 0.707106 0.000000 -0.707106
v 0.693520 -0.195090 -0.693520
v 0.653281 -0.382683 -0.653281
v 0.587938 -0.555570 -0.587937
v 0.500000 -0.707107 -0.500000
v 0.392847 -0.831470 -0.392847
v 0.270598 -0.923880 -0.270598
v 0.137950 -0.980785 -0.137950
v 0.000000 -1.000000 0.000000
v 0.162212 0.980785 -0.108386
v 0.318190 0.923880 -0.212607
v 0.461940 0.831470 -0.308658
v 0.587938 0.707107 -0.392847
v 0.691341 0.555570 -0.461939
v 0.768177 0.382683 -0.513280
v 0.815493 0.195090 -0.544895
v 0.831469 0.000000 -0.555569
v 0.815493 -0.195090 -0.544895
v 0.768177 -0.382683 -0.513280
v 0.691341 -0.555570 -0.461939
v 0.587938 -0.707107 -0.392847
v 0.461940 -0.831470 -0.308658
v 0.318190 -0.923880 -0.212607
v 0.162212 -0.980785 -0.108386
v 0.180240 0.980785 -0.074658
v 0.353553 0.923880 -0.146447
v 0.513280 0.831470 -0.212607
v 0.653281 0.707107 -0.270598
v 0.768177 0.555570 -0.318189
v 0.853553 0.382683 -0.353553
v 0.906127 0.195090 -0.375330
v 0.923879 0.000000 -0.382683
v 0.906127 -0.195090 -0.375330
v 0.853553 -0.382683 -0.353553
v 0.768177 -0.555570 -0.318189
v 0.653281 -0.707107 -0.270598
v 0.513280 -0.831470 -0.212607
v 0.353553 -0.923880 -0.146447
v 0.180240 -0.980785 -0.074658
v 0.191342 0.980785 -0.038060
v 0.375330 0.923880 -0.074658
v 0.544895 0.831470 -0.108386
v 0.693520 0.707107 -0.137950
v 0.815493 0.555570 -0.162211
v 0.906127 0.382683 -0.180240
v 0.961939 0.195090 -0.191341
v 0.980784 0.000000 -0.195090
v 0.961939 -0.195090 -0.191341
v 0.906127 -0.382683 -0.180240
v 0.815493 -0.555570 -0.162211
v 0.693520 -0.707107 -0.137950
v 0.544895 -0.831470 -0.108386
v 0.375330 -0.923880 -0.074658
v 0.191342 -0.980785 -0.038060
v 0.195090 0.980785 0.000000
v 0.382683 0.923880 0.000000
v 0.555570 0.831470 0.000000
v 0.707107 0.707107 0.000000
v 0.831469 0.555570 0.000000
v 0.923879 0.382683 0.000000
v 0.980785 0.195090 0.000000
v 0.999999 0.000000 0.000000
v 0.980785 -0.195090 0.000000
v 0.923879 -0.382683 0.000000
v 0.831469 -0.555570 0.000000
v 0.707107 -0.707107 0.000000
v 0.555570 -0.831470 0.000000
v 0.382683 -0.923880 0.000000
v 0.195090 -0.980785 0.000000
v 0.191342 0.980785 0.038060
v 0.375330 0.923880 0.074658
v 0.544895 0.831470 0.108386
v 0.693520 0.707107 0.137950
v 0.815493 0.555570 0.162212
v 0.906127 0.382683 0.180240
v 0.961939 0.195090 0.191342
v 0.980784 0.000000 0.195091
v 0.961939 -0.195090 0.191342
v 0.906127 -0.382683 0.180240
v 0.815493 -0.555570 0.162212
v 0.693520 -0.707107 0.137950
v 0.544895 -0.831470 0.108386
v 0.375330 -0.923880 0.074658
v 0.191342 -0.980785 0.038060
v 0.180240 0.980785 0.074658
v 0.353553 0.923880 0.146447
v 0.513279 0.831470 0.212607
v 0.653281 0.707107 0.270598
v 0.768177 0.555570 0.318190
v 0.853553 0.382683 0.353553
v 0.906127 0.195090 0.375330
v 0.923878 0.000000 0.382683
v 0.906127 -0.195090 0.375330
v 0.853553 -0.382683 0.353553
v 0.768177 -0.555570 0.318190
v 0.653281 -0.707107 0.270598
v 0.513279 -0.831470 0.212607
v 0.353553 -0.923880 0.146447
v 0.180240 -0.980785 0.074658
v 0.162212 0.980785 0.108386
v 0.318189 0.923880 0.212607
v 0.461939 0.831470 0.308658
v 0.587938 0.707107 0.392847
v 0.691341 0.555570 0.461940
v 0.768177 0.382683 0.513280
v 0.815493 0.195090 0.544895
v 0.831468 0.000000 0.555570
v 0.815493 -0.195090 0.544895
v 0.768177 -0.382683 0.513280
v 0.691341 -0.555570 0.461940
v 0.587938 -0.707107 0.392847
v 0.461939 -0.831470 0.308658
v 0.318189 -0.923880 0.212607
v 0.162212 -0.980785 0.108386
v 0.137950 0.980785 0.137950
v 0.270598 0.923880 0.270598
v 0.392847 0.831470 0.392847
v 0.500000 0.707107 0.500000
v 0.587937 0.555570 0.587938
v 0.653281 0.382683 0.653281
v 0.693519 0.195090 0.693520
v 0.707106 0.000000 0.707106
v 0.693519 -0.195090 0.693520
v 0.653281 -0.382683 0.653281
v 0.587937 -0.555570 0.587938
v 0.500000 -0.707107 0.500000
v 0.392847 -0.831470 0.392847
v 0.270598 -0.923880 0.270598
v 0.137950 -0.980785 0.137950
v 0.108386 0.980785 0.162212
v 0.212607 0.923880 0.318190
v 0.308658 0.831470 0.461939
v 0.392847 0.707107 0.587938
v 0.461939 0.555570 0.691341
v 0.513280 0.382683 0.768177
v 0.544895 0.195090 0.815493
v 0.555569 0.000000 0.831469
v 0.544895 -0.195090 0.815493
v 0.513280 -0.382683 0.768177
v 0.461939 -0.555570 0.691341
v 0.392847 -0.707107 0.587938
v 0.308658 -0.831470 0.461939
v 0.212607 -0.923880 0.318190
v 0.108386 -0.980785 0.162212
v 0.074658 0.980785 0.180240
v 0.146446 0.923880 0.353553
v 0.212607 0.831470 0.513279
v 0.270598 0.707107 0.653281
v 0.318189 0.555570 0.768177
v 0.353553 0.382683 0.853553
v 0.375330 0.195090 0.906127
v 0.382683 0.000000 0.923879
v 0.375330 -0.195090 0.906127
v 0.353553 -0.382683 0.853553
v 0.318189 -0.555570 0.768177
v 0.270598 -0.707107 0.653281
v 0.212607 -0.831470 0.513279
v 0.146446 -0.923880 0.353553
v 0.074658 -0.980785 0.180240
v 0.038060 0.980785 0.191342
v 0.074658 0.923880 0.375330
v 0.108386 0.831470 0.544895
v 0.137950 0.707107 0.693520
v 0.162211 0.555570 0.815493
v 0.180240 0.382683 0.906127
v 0.191341 0.195090 0.961939
v 0.195090 0.000000 0.980784
v 0.191341 -0.195090 0.961939
v 0.180240 -0.382683 0.906127
v 0.162211 -0.555570 0.815493
v 0.137950 -0.707107 0.693520
v 0.108386 -0.831470 0.544895
v 0.074658 -0.923880 0.375330
v 0.038060 -0.980785 0.191342
v -0.000000 0.980785 0.195090
v -0.000000 0.923880 0.382683
v -0.000000 0.707107 0.707107
v -0.000000 0.382683 0.923879
v -0.000000 -0.382683 0.923879
v -0.000000 -0.707107 0.707107
v -0.000000 -0.831470 0.555570
v -0.000000 -0.923880 0.382683
v -0.000000 -0.980785 0.195090
vn -0.0865 -0.4696 0.8786
vn -0.0624 0.7715 0.6332
vn -0.0759 -0.6326 0.7708
vn -0.0759 0.6326 0.7708
vn -0.0624 -0.7715 0.6332
vn -0.0865 0.4696 0.8786
vn -0.0464 -0.8810 0.4709
vn -0.0938 0.2890 0.9527
vn -0.0286 -0.9565 0.2902
vn -0.0975 0.0975 0.9904
vn -0.0097 0.9951 0.0980
vn -0.0097 -0.9951 0.0980
vn -0.0975 -0.0976 0.9904
vn -0.0286 0.9565 0.2902
vn -0.0938 -0.2890 0.9527
vn -0.0464 0.8810 0.4709
vn -0.2779 -0.2890 0.9161
vn -0.1374 0.8810 0.4528
vn -0.2563 -0.4696 0.8448
vn -0.1847 0.7715 0.6088
vn -0.2248 -0.6326 0.7412
vn -0.2248 0.6326 0.7412
vn -0.1847 -0.7715 0.6088
vn -0.2563 0.4696 0.8448
vn -0.1374 -0.8810 0.4528
vn -0.2779 0.2890 0.9161
vn -0.0846 -0.9565 0.2790
vn -0.2889 0.0976 0.9524
vn -0.0286 0.9951 0.0942
vn -0.0286 -0.9951 0.0942
vn -0.2889 -0.0976 0.9524
vn -0.0846 0.9565 0.2790
vn -0.2230 -0.8810 0.4173
vn -0.4513 0.2890 0.8443
vn -0.1374 -0.9565 0.2571
vn -0.4691 0.0975 0.8777
vn -0.0464 0.9951 0.0869
vn -0.0464 -0.9951 0.0869
vn -0.4691 -0.0975 0.8777
vn -0.1374 0.9565 0.2571
vn -0.4513 -0.2890 0.8443
vn -0.2231 0.8810 0.4173
vn -0.4162 -0.4696 0.7786
vn -0.2999 0.7715 0.5611
vn -0.3651 -0.6326 0.6831
vn -0.3651 0.6326 0.6831
vn -0.2999 -0.7715 0.5611
vn -0.4162 0.4696 0.7786
vn -0.3002 0.8810 0.3658
vn -0.5601 -0.4696 0.6825
vn -0.4036 0.7715 0.4918
vn -0.4913 -0.6326 0.5987
vn -0.4913 0.6326 0.5987
vn -0.4036 -0.7715 0.4918
vn -0.5601 0.4696 0.6825
vn -0.3002 -0.8810 0.3658
vn -0.6073 0.2890 0.7400
vn -0.1850 -0.9565 0.2254
vn -0.6314 0.0975 0.7693
vn -0.0625 0.9951 0.0761
vn -0.0625 -0.9951 0.0761
vn -0.6314 -0.0975 0.7693
vn -0.1850 0.9565 0.2254
vn -0.6073 -0.2890 0.7400
vn -0.7400 0.2890 0.6073
vn -0.2254 -0.9566 0.1850
vn -0.7693 0.0975 0.6314
vn -0.0761 0.9951 0.0625
vn -0.0761 -0.9951 0.0625
vn -0.7693 -0.0975 0.6314
vn -0.2254 0.9565 0.1850
vn -0.7400 -0.2890 0.6073
vn -0.3658 0.8810 0.3002
vn -0.6825 -0.4696 0.5601
vn -0.4918 0.7715 0.4036
vn -0.5987 -0.6326 0.4913
vn -0.5987 0.6326 0.4913
vn -0.4918 -0.7715 0.4036
vn -0.6825 0.4696 0.5601
vn -0.3658 -0.8810 0.3002
vn -0.7786 -0.4696 0.4162
vn -0.5611 0.7715 0.2999
vn -0.6831 -0.6326 0.3651
vn -0.6831 0.6326 0.3651
vn -0.5611 -0.7715 0.2999
vn -0.7786 0.4696 0.4162
vn -0.4173 -0.8810 0.2230
vn -0.8443 0.2890 0.4513
vn -0.2571 -0.9565 0.1374
vn -0.8777 0.0975 0.4691
vn -0.0869 0.9951 0.0464
vn -0.0869 -0.9951 0.0464
vn -0.8777 -0.0975 0.4691
vn -0.2571 0.9565 0.1374
vn -0.8443 -0.2890 0.4513
vn -0.4173 0.8810 0.2230
vn -0.2790 -0.9565 0.0846
vn -0.9524 0.0975 0.2889
vn -0.0942 0.9951 0.0286
vn -0.0942 -0.9951 0.0286
vn -0.9524 -0.0975 0.2889
vn -0.2790 0.9565 0.0846
vn -0.9161 -0.2890 0.2779
vn -0.4528 0.8810 0.1374
vn -0.8448 -0.4696 0.2563
vn -0.6088 0.7715 0.1847
vn -0.7412 -0.6326 0.2248
vn -0.7412 0.6326 0.2248
vn -0.6088 -0.7715 0.1847
vn -0.8448 0.4696 0.2563
vn -0.4528 -0.8810 0.1374
vn -0.9161 0.2890 0.2779
vn -0.6332 0.7715 0.0624
vn -0.7708 -0.6326 0.0759
vn -0.7708 0.6326 0.0759
vn -0.6332 -0.7715 0.0624
vn -0.8786 0.4696 0.0865
vn -0.4709 -0.8810 0.0464
vn -0.9527 0.2890 0.0938
vn -0.2902 -0.9565 0.0286
vn -0.9904 0.0975 0.0975
vn -0.0980 0.9951 0.0097
vn -0.0980 -0.9951 0.0097
vn -0.9904 -0.0975 0.0975
vn -0.2902 0.9565 0.0286
vn -0.9527 -0.2890 0.0938
vn -0.4709 0.8810 0.0464
vn -0.8786 -0.4696 0.0865
vn -0.9904 0.0975 -0.0976
vn -0.0980 0.9951 -0.0097
vn -0.0980 -0.9951 -0.0097
vn -0.9904 -0.0975 -0.0976
vn -0.2902 0.9565 -0.0286
vn -0.9527 -0.2890 -0.0938
vn -0.4709 0.8810 -0.0464
vn -0.8786 -0.4696 -0.0865
vn -0.6332 0.7715 -0.0624
vn -0.7708 -0.6326 -0.0759
vn -0.7708 0.6326 -0.0759
vn -0.6332 -0.7715 -0.0624
vn -0.8786 0.4696 -0.0865
vn -0.4709 -0.8810 -0.0464
vn -0.9527 0.2890 -0.0938
vn -0.2902 -0.9565 -0.0286
vn -0.7412 -0.6326 -0.2248
vn -0.7412 0.6326 -0.2248
vn -0.6088 -0.7715 -0.1847
vn -0.8448 0.4696 -0.2563
vn -0.4528 -0.8810 -0.1374
vn -0.9161 0.2890 -0.2779
vn -0.2790 -0.9565 -0.0846
vn -0.9524 0.0975 -0.2889
vn -0.0942 0.9951 -0.0286
vn -0.0942 -0.9951 -0.0286
vn -0.9524 -0.0975 -0.2889
vn -0.2790 0.9565 -0.0846
vn -0.9161 -0.2890 -0.2779
vn -0.4528 0.8810 -0.1374
vn -0.8448 -0.4696 -0.2563
vn -0.6088 0.7715 -0.1847
vn -0.0869 -0.9951 -0.0464
vn -0.8777 -0.0975 -0.4691
vn -0.2571 0.9565 -0.1374
vn -0.8443 -0.2890 -0.4513
vn -0.4173 0.8810 -0.2231
vn -0.7786 -0.4696 -0.4162
vn -0.5611 0.7715 -0.2999
vn -0.6831 -0.6326 -0.3651
vn -0.6831 0.6326 -0.3651
vn -0.5611 -0.7715 -0.2999
vn -0.7786 0.4696 -0.4162
vn -0.4173 -0.8810 -0.2230
vn -0.8443 0.2890 -0.4513
vn -0.2571 -0.9566 -0.1374
vn -0.8777 0.0975 -0.4691
vn -0.0869 0.9951 -0.0464
vn -0.4918 -0.7715 -0.4036
vn -0.6825 0.4696 -0.5601
vn -0.3658 -0.8810 -0.3002
vn -0.7400 0.2890 -0.6073
vn -0.2254 -0.9565 -0.1850
vn -0.7693 0.0975 -0.6314
vn -0.0761 0.9951 -0.0625
vn -0.0761 -0.9951 -0.0625
vn -0.7693 -0.0975 -0.6314
vn -0.2254 0.9565 -0.1850
vn -0.7400 -0.2890 -0.6073
vn -0.3658 0.8810 -0.3002
vn -0.6825 -0.4696 -0.5601
vn -0.4918 0.7715 -0.4036
vn -0.5987 -0.6326 -0.4913
vn -0.5987 0.6326 -0.4913
vn -0.1850 0.9565 -0.2254
vn -0.6073 -0.2890 -0.7400
vn -0.3002 0.8810 -0.3658
vn -0.5601 -0.4696 -0.6825
vn -0.4036 0.7715 -0.4918
vn -0.4913 -0.6326 -0.5987
vn -0.4913 0.6326 -0.5987
vn -0.4036 -0.7715 -0.4918
vn -0.5601 0.4696 -0.6825
vn -0.3002 -0.8810 -0.3658
vn -0.6073 0.2890 -0.7400
vn -0.1850 -0.9565 -0.2254
vn -0.6314 0.0975 -0.7693
vn -0.0625 0.9951 -0.0761
vn -0.0625 -0.9951 -0.0761
vn -0.6314 -0.0975 -0.7693
vn -0.4162 0.4696 -0.7786
vn -0.2230 -0.8810 -0.4173
vn -0.4513 0.2890 -0.8443
vn -0.1374 -0.9565 -0.2571
vn -0.4691 0.0975 -0.8777
vn -0.0464 0.9951 -0.0869
vn -0.0464 -0.9951 -0.0869
vn -0.4691 -0.0975 -0.8777
vn -0.1374 0.9565 -0.2571
vn -0.4513 -0.2890 -0.8443
vn -0.2230 0.8810 -0.4173
vn -0.4162 -0.4696 -0.7786
vn -0.2999 0.7715 -0.5611
vn -0.3651 -0.6326 -0.6831
vn -0.3651 0.6326 -0.6831
vn -0.2999 -0.7715 -0.5611
vn -0.2779 -0.2890 -0.9161
vn -0.1374 0.8810 -0.4528
vn -0.2563 -0.4696 -0.8448
vn -0.1847 0.7715 -0.6088
vn -0.2248 -0.6326 -0.7412
vn -0.2248 0.6326 -0.7412
vn -0.1847 -0.7715 -0.6088
vn -0.2563 0.4696 -0.8448
vn -0.1374 -0.8810 -0.4528
vn -0.2779 0.2890 -0.9161
vn -0.0846 -0.9565 -0.2790
vn -0.2889 0.0975 -0.9524
vn -0.0286 0.9951 -0.0942
vn -0.0286 -0.9951 -0.0942
vn -0.2889 -0.0975 -0.9524
vn -0.0846 0.9565 -0.2790
vn -0.0464 -0.8810 -0.4709
vn -0.0938 0.2890 -0.9527
vn -0.0286 -0.9565 -0.2902
vn -0.0975 0.0975 -0.9904
vn -0.0097 0.9951 -0.0980
vn -0.0097 -0.9951 -0.0980
vn -0.0975 -0.0975 -0.9904
vn -0.0286 0.9565 -0.2902
vn -0.0938 -0.2890 -0.9527
vn -0.0464 0.8810 -0.4709
vn -0.0865 -0.4696 -0.8786
vn -0.0624 0.7715 -0.6332
vn -0.0759 -0.6326 -0.7708
vn -0.0759 0.6326 -0.7708
vn -0.0624 -0.7715 -0.6332
vn -0.0865 0.4696 -0.8786
vn 0.0464 0.8810 -0.4709
vn 0.0865 -0.4696 -0.8786
vn 0.0624 0.7715 -0.6332
vn 0.0759 -0.6326 -0.7708
vn 0.0759 0.6326 -0.7708
vn 0.0624 -0.7715 -0.6332
vn 0.0865 0.4696 -0.8786
vn 0.0464 -0.8810 -0.4709
vn 0.0938 0.2890 -0.9527
vn 0.0286 -0.9565 -0.2902
vn 0.0976 0.0975 -0.9904
vn 0.0097 0.9951 -0.0980
vn 0.0097 -0.9951 -0.0980
vn 0.0975 -0.0975 -0.9904
vn 0.0286 0.9565 -0.2902
vn 0.0938 -0.2890 -0.9527
vn 0.2779 0.2890 -0.9161
vn 0.0846 -0.9565 -0.2790
vn 0.2889 0.0975 -0.9524
vn 0.0286 0.9951 -0.0942
vn 0.0286 -0.9951 -0.0942
vn 0.2889 -0.0975 -0.9524
vn 0.0846 0.9565 -0.2790
vn 0.2779 -0.2890 -0.9161
vn 0.1374 0.8810 -0.4528
vn 0.2563 -0.4696 -0.8448
vn 0.1847 0.7715 -0.6088
vn 0.2248 -0.6326 -0.7412
vn 0.2248 0.6326 -0.7412
vn 0.1847 -0.7715 -0.6088
vn 0.2563 0.4696 -0.8448
vn 0.1374 -0.8810 -0.4528
vn 0.4162 -0.4696 -0.7786
vn 0.2999 0.7715 -0.5611
vn 0.3651 -0.6326 -0.6831
vn 0.3651 0.6326 -0.6831
vn 0.2999 -0.7715 -0.5611
vn 0.4162 0.4696 -0.7786
vn 0.2230 -0.8810 -0.4173
vn 0.4513 0.2890 -0.8443
vn 0.1374 -0.9565 -0.2571
vn 0.4691 0.0975 -0.8777
vn 0.0464 0.9951 -0.0869
vn 0.0464 -0.9951 -0.0869
vn 0.4691 -0.0975 -0.8777
vn 0.1374 0.9565 -0.2571
vn 0.4513 -0.2890 -0.8443
vn 0.2230 0.8810 -0.4173
vn 0.1850 -0.9565 -0.2254
vn 0.6314 0.0975 -0.7693
vn 0.0625 0.9951 -0.0761
vn 0.0625 -0.9951 -0.0761
vn 0.6314 -0.0975 -0.7693
vn 0.1850 0.9565 -0.2254
vn 0.6073 -0.2890 -0.7400
vn 0.3002 0.8810 -0.3658
vn 0.5601 -0.4696 -0.6825
vn 0.4036 0.7715 -0.4918
vn 0.4913 -0.6326 -0.5987
vn 0.4913 0.6326 -0.5987
vn 0.4036 -0.7715 -0.4918
vn 0.5601 0.4696 -0.6825
vn 0.3002 -0.8810 -0.3658
vn 0.6073 0.2890 -0.7400
vn 0.5987 -0.6326 -0.4913
vn 0.5987 0.6326 -0.4913
vn 0.4918 -0.7715 -0.4036
vn 0.6825 0.4696 -0.5601
vn 0.3658 -0.8810 -0.3002
vn 0.7400 0.2890 -0.6073
vn 0.2254 -0.9566 -0.1850
vn 0.7693 0.0975 -0.6314
vn 0.0761 0.9951 -0.0625
vn 0.0761 -0.9951 -0.0625
vn 0.7693 -0.0975 -0.6314
vn 0.2254 0.9565 -0.1850
vn 0.7400 -0.2890 -0.6073
vn 0.3658 0.8810 -0.3002
vn 0.6825 -0.4696 -0.5601
vn 0.4918 0.7715 -0.4036
vn 0.0869 0.9951 -0.0464
vn 0.0869 -0.9951 -0.0464
vn 0.8777 -0.0975 -0.4691
vn 0.2571 0.9565 -0.1374
vn 0.8443 -0.2890 -0.4513
vn 0.4173 0.8810 -0.2230
vn 0.7786 -0.4696 -0.4162
vn 0.5611 0.7715 -0.2999
vn 0.6831 -0.6326 -0.3651
vn 0.6831 0.6326 -0.3651
vn 0.5611 -0.7715 -0.2999
vn 0.7786 0.4696 -0.4162
vn 0.4173 -0.8810 -0.2231
vn 0.8443 0.2890 -0.4513
vn 0.2571 -0.9565 -0.1374
vn 0.8777 0.0975 -0.4691
vn 0.7412 0.6326 -0.2248
vn 0.6088 -0.7715 -0.1847
vn 0.8448 0.4696 -0.2563
vn 0.4528 -0.8810 -0.1374
vn 0.9161 0.2890 -0.2779
vn 0.2790 -0.9565 -0.0846
vn 0.9524 0.0975 -0.2889
vn 0.0942 0.9951 -0.0286
vn 0.0942 -0.9951 -0.0286
vn 0.9524 -0.0975 -0.2889
vn 0.2790 0.9565 -0.0846
vn 0.9161 -0.2890 -0.2779
vn 0.4528 0.8810 -0.1374
vn 0.8448 -0.4696 -0.2563
vn 0.6088 0.7715 -0.1847
vn 0.7412 -0.6326 -0.2248
vn 0.9904 -0.0975 -0.0976
vn 0.2902 0.9565 -0.0286
vn 0.9527 -0.2890 -0.0938
vn 0.4709 0.8810 -0.0464
vn 0.8786 -0.4696 -0.0865
vn 0.6332 0.7715 -0.0624
vn 0.7708 -0.6326 -0.0759
vn 0.7708 0.6326 -0.0759
vn 0.6332 -0.7715 -0.0624
vn 0.8786 0.4696 -0.0865
vn 0.4709 -0.8810 -0.0464
vn 0.9527 0.2890 -0.0938
vn 0.2902 -0.9565 -0.0286
vn 0.9904 0.0975 -0.0975
vn 0.0980 0.9951 -0.0097
vn 0.0980 -0.9951 -0.0097
vn 0.6332 -0.7715 0.0624
vn 0.8786 0.4696 0.0865
vn 0.4709 -0.8810 0.0464
vn 0.9527 0.2890 0.0938
vn 0.2902 -0.9565 0.0286
vn 0.9904 0.0975 0.0975
vn 0.0980 0.9951 0.0097
vn 0.0980 -0.9951 0.0097
vn 0.9904 -0.0975 0.0976
vn 0.2902 0.9565 0.0286
vn 0.9527 -0.2890 0.0938
vn 0.4709 0.8810 0.0464
vn 0.8786 -0.4696 0.0865
vn 0.6332 0.7715 0.0624
vn 0.7708 -0.6326 0.0759
vn 0.7708 0.6326 0.0759
vn 0.2790 0.9565 0.0846
vn 0.9161 -0.2890 0.2779
vn 0.4528 0.8810 0.1374
vn 0.8448 -0.4696 0.2563
vn 0.6088 0.7715 0.1847
vn 0.7412 -0.6326 0.2248
vn 0.7412 0.6326 0.2248
vn 0.6088 -0.7715 0.1847
vn 0.8448 0.4696 0.2563
vn 0.4528 -0.8810 0.1374
vn 0.9161 0.2890 0.2779
vn 0.2790 -0.9565 0.0846
vn 0.9524 0.0975 0.2889
vn 0.0942 0.9951 0.0286
vn 0.0942 -0.9951 0.0286
vn 0.9524 -0.0975 0.2889
vn 0.7786 0.4696 0.4162
vn 0.4173 -0.8810 0.2231
vn 0.8443 0.2890 0.4513
vn 0.2571 -0.9565 0.1374
vn 0.8777 0.0975 0.4691
vn 0.0869 0.9951 0.0464
vn 0.0869 -0.9951 0.0464
vn 0.8777 -0.0975 0.4691
vn 0.2571 0.9565 0.1374
vn 0.8443 -0.2890 0.4513
vn 0.4173 0.8810 0.2231
vn 0.7786 -0.4696 0.4162
vn 0.5611 0.7715 0.2999
vn 0.6831 -0.6326 0.3651
vn 0.6831 0.6326 0.3651
vn 0.5611 -0.7715 0.2999
vn 0.7400 -0.2890 0.6073
vn 0.3658 0.8810 0.3002
vn 0.6825 -0.4696 0.5601
vn 0.4918 0.7715 0.4036
vn 0.5987 -0.6326 0.4913
vn 0.5987 0.6326 0.4913
vn 0.4918 -0.7715 0.4036
vn 0.6825 0.4696 0.5601
vn 0.3658 -0.8810 0.3002
vn 0.7400 0.2890 0.6073
vn 0.2254 -0.9565 0.1850
vn 0.7693 0.0975 0.6314
vn 0.0761 0.9951 0.0625
vn 0.0761 -0.9951 0.0625
vn 0.7693 -0.0975 0.6314
vn 0.2254 0.9565 0.1850
vn 0.3002 -0.8810 0.3658
vn 0.6073 0.2890 0.7400
vn 0.1850 -0.9565 0.2254
vn 0.6314 0.0975 0.7693
vn 0.0625 0.9951 0.0761
vn 0.0625 -0.9951 0.0761
vn 0.6314 -0.0975 0.7693
vn 0.1850 0.9565 0.2254
vn 0.6073 -0.2890 0.7400
vn 0.3002 0.8810 0.3658
vn 0.5601 -0.4696 0.6825
vn 0.4036 0.7715 0.4918
vn 0.4913 -0.6326 0.5987
vn 0.4913 0.6326 0.5987
vn 0.4036 -0.7715 0.4918
vn 0.5601 0.4696 0.6825
vn 0.4162 -0.4696 0.7786
vn 0.2999 0.7715 0.5611
vn 0.3651 -0.6326 0.6831
vn 0.3651 0.6326 0.6831
vn 0.2999 -0.7715 0.5611
vn 0.4162 0.4696 0.7786
vn 0.2230 -0.8810 0.4173
vn 0.4513 0.2890 0.8443
vn 0.1374 -0.9565 0.2571
vn 0.4691 0.0975 0.8777
vn 0.0464 0.9951 0.0869
vn 0.0464 -0.9951 0.0869
vn 0.4691 -0.0975 0.8777
vn 0.1374 0.9565 0.2571
vn 0.4513 -0.2890 0.8443
vn 0.2230 0.8810 0.4173
vn 0.0846 -0.9565 0.2790
vn 0.2889 0.0975 0.9524
vn 0.0286 0.9951 0.0942
vn 0.0286 -0.9951 0.0942
vn 0.2889 -0.0975 0.9524
vn 0.0846 0.9565 0.2790
vn 0.2779 -0.2890 0.9161
vn 0.1374 0.8810 0.4528
vn 0.2563 -0.4696 0.8448
vn 0.1847 0.7715 0.6088
vn 0.2248 -0.6326 0.7412
vn 0.2248 0.6326 0.7412
vn 0.1847 -0.7715 0.6088
vn 0.2563 0.4696 0.8448
vn 0.1374 -0.8810 0.4528
vn 0.2779 0.2890 0.9161
vn 0.0624 0.7715 0.6332
vn 0.0759 -0.6326 0.7708
vn 0.0759 0.6326 0.7708
vn 0.0624 -0.7715 0.6332
vn 0.0865 0.4696 0.8786
vn 0.0464 -0.8810 0.4709
vn 0.0938 0.2890 0.9527
vn 0.0286 -0.9565 0.2902
vn 0.0976 0.0975 0.9904
vn 0.0097 0.9951 0.0980
vn 0.0097 -0.9951 0.0980
vn 0.0976 -0.0975 0.9904
vn 0.0286 0.9565 0.2902
vn 0.0938 -0.2890 0.9527
vn 0.0464 0.8810 0.4709
vn 0.0865 -0.4696 0.8786
vn -0.0975 0.0976 0.9904
vn -0.0975 -0.0975 0.9904
vn -0.2231 -0.8810 0.4173
vn -0.2230 0.8810 0.4173
vn -0.2254 -0.9565 0.1850
vn -0.4173 0.8810 -0.2230
vn -0.4173 -0.8810 -0.2231
vn -0.2571 -0.9565 -0.1374
vn 0.0975 0.0975 -0.9904
vn 0.0976 -0.0975 -0.9904
vn 0.2231 -0.8810 -0.4173
vn 0.2231 0.8810 -0.4173
vn 0.2254 -0.9565 -0.1850
vn 0.2254 0.9566 -0.1850
vn 0.4173 -0.8810 -0.2230
vn 0.9904 -0.0975 -0.0975
vn 0.9904 0.0975 -0.0976
vn 0.9904 0.0975 0.0976
vn 0.9904 -0.0975 0.0975
vt 0.750000 0.375000
vt 0.718750 0.312500
vt 0.750000 0.312500
vt 0.750000 0.750000
vt 0.718750 0.812500
vt 0.718750 0.750000
vt 0.750000 0.250000
vt 0.718750 0.250000
vt 0.718750 0.687500
vt 0.750000 0.687500
vt 0.718750 0.187500
vt 0.750000 0.187500
vt 0.750000 0.625000
vt 0.718750 0.625000
vt 0.718750 0.125000
vt 0.750000 0.125000
vt 0.750000 0.562500
vt 0.718750 0.562500
vt 0.718750 0.062500
vt 0.750000 0.062500
vt 0.718750 0.500000
vt 0.750000 0.500000
vt 0.750000 0.937500
vt 0.734375 1.000000
vt 0.718750 0.937500
vt 0.734375 0.000000
vt 0.718750 0.437500
vt 0.750000 0.437500
vt 0.750000 0.875000
vt 0.718750 0.875000
vt 0.718750 0.375000
vt 0.750000 0.812500
vt 0.687500 0.375000
vt 0.687500 0.812500
vt 0.687500 0.312500
vt 0.687500 0.750000
vt 0.687500 0.250000
vt 0.687500 0.687500
vt 0.687500 0.187500
vt 0.687500 0.625000
vt 0.687500 0.125000
vt 0.687500 0.562500
vt 0.687500 0.062500
vt 0.687500 0.500000
vt 0.703125 1.000000
vt 0.687500 0.937500
vt 0.703125 0.000000
vt 0.687500 0.437500
vt 0.687500 0.875000
vt 0.656250 0.187500
vt 0.656250 0.125000
vt 0.656250 0.625000
vt 0.656250 0.562500
vt 0.656250 0.062500
vt 0.656250 0.500000
vt 0.671875 1.000000
vt 0.656250 0.937500
vt 0.671875 0.000000
vt 0.656250 0.437500
vt 0.656250 0.875000
vt 0.656250 0.375000
vt 0.656250 0.812500
vt 0.656250 0.312500
vt 0.656250 0.750000
vt 0.656250 0.250000
vt 0.656250 0.687500
vt 0.625000 0.812500
vt 0.625000 0.375000
vt 0.625000 0.312500
vt 0.625000 0.750000
vt 0.625000 0.250000
vt 0.625000 0.687500
vt 0.625000 0.187500
vt 0.625000 0.625000
vt 0.625000 0.125000
vt 0.625000 0.562500
vt 0.625000 0.062500
vt 0.625000 0.500000
vt 0.640625 1.000000
vt 0.625000 0.937500
vt 0.640625 0.000000
vt 0.625000 0.437500
vt 0.625000 0.875000
vt 0.593750 0.625000
vt 0.593750 0.562500
vt 0.593750 0.062500
vt 0.593750 0.500000
vt 0.609375 1.000000
vt 0.593750 0.937500
vt 0.609375 0.000000
vt 0.593750 0.437500
vt 0.593750 0.875000
vt 0.593750 0.375000
vt 0.593750 0.812500
vt 0.593750 0.312500
vt 0.593750 0.750000
vt 0.593750 0.250000
vt 0.593750 0.687500
vt 0.593750 0.187500
vt 0.593750 0.125000
vt 0.562500 0.375000
vt 0.562500 0.312500
vt 0.562500 0.750000
vt 0.562500 0.250000
vt 0.562500 0.687500
vt 0.562500 0.187500
vt 0.562500 0.625000
vt 0.562500 0.125000
vt 0.562500 0.562500
vt 0.562500 0.062500
vt 0.562500 0.500000
vt 0.578125 1.000000
vt 0.562500 0.937500
vt 0.578125 0.000000
vt 0.562500 0.437500
vt 0.562500 0.875000
vt 0.562500 0.812500
vt 0.531250 0.062500
vt 0.531250 0.562500
vt 0.531250 0.500000
vt 0.546875 1.000000
vt 0.531250 0.937500
vt 0.546875 0.000000
vt 0.531250 0.437500
vt 0.531250 0.875000
vt 0.531250 0.375000
vt 0.531250 0.812500
vt 0.531250 0.312500
vt 0.531250 0.750000
vt 0.531250 0.250000
vt 0.531250 0.687500
vt 0.531250 0.187500
vt 0.531250 0.625000
vt 0.531250 0.125000
vt 0.500000 0.750000
vt 0.500000 0.250000
vt 0.500000 0.687500
vt 0.500000 0.187500
vt 0.500000 0.625000
vt 0.500000 0.125000
vt 0.500000 0.562500
vt 0.500000 0.062500
vt 0.500000 0.500000
vt 0.515625 1.000000
vt 0.500000 0.937500
vt 0.515625 0.000000
vt 0.500000 0.437500
vt 0.500000 0.875000
vt 0.500000 0.375000
vt 0.500000 0.812500
vt 0.500000 0.312500
vt 0.468750 0.562500
vt 0.468750 0.500000
vt 0.484375 1.000000
vt 0.468750 0.937500
vt 0.484375 0.000000
vt 0.468750 0.062500
vt 0.468750 0.437500
vt 0.468750 0.875000
vt 0.468750 0.375000
vt 0.468750 0.812500
vt 0.468750 0.312500
vt 0.468750 0.750000
vt 0.468750 0.250000
vt 0.468750 0.687500
vt 0.468750 0.187500
vt 0.468750 0.625000
vt 0.468750 0.125000
vt 0.437500 0.250000
vt 0.437500 0.750000
vt 0.437500 0.687500
vt 0.437500 0.187500
vt 0.437500 0.625000
vt 0.437500 0.125000
vt 0.437500 0.562500
vt 0.437500 0.062500
vt 0.437500 0.500000
vt 0.453125 1.000000
vt 0.437500 0.937500
vt 0.453125 0.000000
vt 0.437500 0.437500
vt 0.437500 0.875000
vt 0.437500 0.375000
vt 0.437500 0.812500
vt 0.437500 0.312500
vt 0.421875 0.000000
vt 0.406250 0.062500
vt 0.406250 0.437500
vt 0.406250 0.875000
vt 0.406250 0.375000
vt 0.406250 0.812500
vt 0.406250 0.312500
vt 0.406250 0.750000
vt 0.406250 0.250000
vt 0.406250 0.687500
vt 0.406250 0.187500
vt 0.406250 0.625000
vt 0.406250 0.125000
vt 0.406250 0.562500
vt 0.406250 0.500000
vt 0.421875 1.000000
vt 0.406250 0.937500
vt 0.375000 0.250000
vt 0.375000 0.187500
vt 0.375000 0.625000
vt 0.375000 0.125000
vt 0.375000 0.562500
vt 0.375000 0.062500
vt 0.375000 0.500000
vt 0.390625 1.000000
vt 0.375000 0.937500
vt 0.390625 0.000000
vt 0.375000 0.437500
vt 0.375000 0.875000
vt 0.375000 0.375000
vt 0.375000 0.812500
vt 0.375000 0.312500
vt 0.375000 0.750000
vt 0.375000 0.687500
vt 0.343750 0.937500
vt 0.343750 0.875000
vt 0.343750 0.375000
vt 0.343750 0.812500
vt 0.343750 0.312500
vt 0.343750 0.750000
vt 0.343750 0.250000
vt 0.343750 0.687500
vt 0.343750 0.187500
vt 0.343750 0.625000
vt 0.343750 0.125000
vt 0.343750 0.562500
vt 0.343750 0.062500
vt 0.343750 0.500000
vt 0.359375 1.000000
vt 0.359375 0.000000
vt 0.343750 0.437500
vt 0.312500 0.625000
vt 0.312500 0.187500
vt 0.312500 0.125000
vt 0.312500 0.562500
vt 0.312500 0.062500
vt 0.312500 0.500000
vt 0.328125 1.000000
vt 0.312500 0.937500
vt 0.328125 0.000000
vt 0.312500 0.437500
vt 0.312500 0.875000
vt 0.312500 0.375000
vt 0.312500 0.812500
vt 0.312500 0.312500
vt 0.312500 0.750000
vt 0.312500 0.250000
vt 0.312500 0.687500
vt 0.281250 0.375000
vt 0.281250 0.812500
vt 0.281250 0.312500
vt 0.281250 0.750000
vt 0.281250 0.250000
vt 0.281250 0.687500
vt 0.281250 0.187500
vt 0.281250 0.625000
vt 0.281250 0.125000
vt 0.281250 0.562500
vt 0.281250 0.062500
vt 0.281250 0.500000
vt 0.296875 1.000000
vt 0.281250 0.937500
vt 0.296875 0.000000
vt 0.281250 0.437500
vt 0.281250 0.875000
vt 0.250000 0.187500
vt 0.250000 0.125000
vt 0.250000 0.625000
vt 0.250000 0.562500
vt 0.250000 0.062500
vt 0.250000 0.500000
vt 0.265625 1.000000
vt 0.250000 0.937500
vt 0.265625 0.000000
vt 0.250000 0.437500
vt 0.250000 0.875000
vt 0.250000 0.375000
vt 0.250000 0.812500
vt 0.250000 0.312500
vt 0.250000 0.750000
vt 0.250000 0.250000
vt 0.250000 0.687500
vt 0.218750 0.875000
vt 0.218750 0.812500
vt 0.218750 0.375000
vt 0.218750 0.312500
vt 0.218750 0.750000
vt 0.218750 0.250000
vt 0.218750 0.687500
vt 0.218750 0.187500
vt 0.218750 0.625000
vt 0.218750 0.125000
vt 0.218750 0.562500
vt 0.218750 0.062500
vt 0.218750 0.500000
vt 0.234375 1.000000
vt 0.218750 0.937500
vt 0.234375 0.000000
vt 0.218750 0.437500
vt 0.187500 0.625000
vt 0.187500 0.562500
vt 0.187500 0.062500
vt 0.187500 0.500000
vt 0.203125 1.000000
vt 0.187500 0.937500
vt 0.203125 0.000000
vt 0.187500 0.437500
vt 0.187500 0.875000
vt 0.187500 0.375000
vt 0.187500 0.812500
vt 0.187500 0.312500
vt 0.187500 0.750000
vt 0.187500 0.250000
vt 0.187500 0.687500
vt 0.187500 0.187500
vt 0.187500 0.125000
vt 0.156250 0.375000
vt 0.156250 0.312500
vt 0.156250 0.750000
vt 0.156250 0.250000
vt 0.156250 0.687500
vt 0.156250 0.187500
vt 0.156250 0.625000
vt 0.156250 0.125000
vt 0.156250 0.562500
vt 0.156250 0.062500
vt 0.156250 0.500000
vt 0.171875 1.000000
vt 0.156250 0.937500
vt 0.171875 0.000000
vt 0.156250 0.437500
vt 0.156250 0.875000
vt 0.156250 0.812500
vt 0.125000 0.125000
vt 0.125000 0.062500
vt 0.125000 0.562500
vt 0.125000 0.500000
vt 0.140625 1.000000
vt 0.125000 0.937500
vt 0.140625 0.000000
vt 0.125000 0.437500
vt 0.125000 0.875000
vt 0.125000 0.375000
vt 0.125000 0.812500
vt 0.125000 0.312500
vt 0.125000 0.750000
vt 0.125000 0.250000
vt 0.125000 0.687500
vt 0.125000 0.187500
vt 0.125000 0.625000
vt 0.093750 0.250000
vt 0.093750 0.750000
vt 0.093750 0.687500
vt 0.093750 0.187500
vt 0.093750 0.625000
vt 0.093750 0.125000
vt 0.093750 0.562500
vt 0.093750 0.062500
vt 0.093750 0.500000
vt 0.109375 1.000000
vt 0.093750 0.937500
vt 0.109375 0.000000
vt 0.093750 0.437500
vt 0.093750 0.875000
vt 0.093750 0.375000
vt 0.093750 0.812500
vt 0.093750 0.312500
vt 0.078125 1.000000
vt 0.062500 0.937500
vt 0.078125 0.000000
vt 0.062500 0.062500
vt 0.062500 0.437500
vt 0.062500 0.875000
vt 0.062500 0.375000
vt 0.062500 0.812500
vt 0.062500 0.312500
vt 0.062500 0.750000
vt 0.062500 0.250000
vt 0.062500 0.687500
vt 0.062500 0.187500
vt 0.062500 0.625000
vt 0.062500 0.125000
vt 0.062500 0.562500
vt 0.062500 0.500000
vt 0.031250 0.750000
vt 0.031250 0.687500
vt 0.031250 0.250000
vt 0.031250 0.187500
vt 0.031250 0.625000
vt 0.031250 0.125000
vt 0.031250 0.562500
vt 0.031250 0.062500
vt 0.031250 0.500000
vt 0.046875 1.000000
vt 0.031250 0.937500
vt 0.046875 0.000000
vt 0.031250 0.437500
vt 0.031250 0.875000
vt 0.031250 0.375000
vt 0.031250 0.812500
vt 0.031250 0.312500
vt 0.000000 0.437500
vt 0.000000 0.875000
vt 0.000000 0.375000
vt 0.000000 0.812500
vt 0.000000 0.312500
vt 0.000000 0.750000
vt 0.000000 0.250000
vt 0.000000 0.687500
vt 0.000000 0.187500
vt 0.000000 0.625000
vt 0.000000 0.125000
vt 0.000000 0.562500
vt 0.000000 0.062500
vt 0.000000 0.500000
vt 0.015625 1.000000
vt 0.000000 0.937500
vt 0.015625 0.000000
vt 1.000000 0.187500
vt 0.968750 0.250000
vt 0.968750 0.187500
vt 1.000000 0.687500
vt 0.968750 0.625000
vt 1.000000 0.625000
vt 0.968750 0.125000
vt 1.000000 0.125000
vt 1.000000 0.562500
vt 0.968750 0.562500
vt 0.968750 0.062500
vt 1.000000 0.062500
vt 1.000000 0.500000
vt 0.968750 0.500000
vt 1.000000 0.937500
vt 0.984375 1.000000
vt 0.968750 0.937500
vt 0.984375 0.000000
vt 0.968750 0.437500
vt 1.000000 0.437500
vt 1.000000 0.875000
vt 0.968750 0.875000
vt 0.968750 0.375000
vt 1.000000 0.375000
vt 1.000000 0.812500
vt 0.968750 0.812500
vt 1.000000 0.312500
vt 0.968750 0.312500
vt 0.968750 0.750000
vt 1.000000 0.750000
vt 1.000000 0.250000
vt 0.968750 0.687500
vt 0.937500 0.937500
vt 0.937500 0.875000
vt 0.937500 0.375000
vt 0.937500 0.812500
vt 0.937500 0.312500
vt 0.937500 0.750000
vt 0.937500 0.250000
vt 0.937500 0.687500
vt 0.937500 0.187500
vt 0.937500 0.625000
vt 0.937500 0.125000
vt 0.937500 0.562500
vt 0.937500 0.062500
vt 0.937500 0.500000
vt 0.953125 1.000000
vt 0.953125 0.000000
vt 0.937500 0.437500
vt 0.906250 0.625000
vt 0.906250 0.125000
vt 0.906250 0.562500
vt 0.906250 0.062500
vt 0.906250 0.500000
vt 0.921875 1.000000
vt 0.906250 0.937500
vt 0.921875 0.000000
vt 0.906250 0.437500
vt 0.906250 0.875000
vt 0.906250 0.375000
vt 0.906250 0.812500
vt 0.906250 0.312500
vt 0.906250 0.750000
vt 0.906250 0.250000
vt 0.906250 0.687500
vt 0.906250 0.187500
vt 0.875000 0.375000
vt 0.875000 0.875000
vt 0.875000 0.812500
vt 0.875000 0.312500
vt 0.875000 0.750000
vt 0.875000 0.250000
vt 0.875000 0.687500
vt 0.875000 0.187500
vt 0.875000 0.625000
vt 0.875000 0.125000
vt 0.875000 0.562500
vt 0.875000 0.062500
vt 0.875000 0.500000
vt 0.890625 1.000000
vt 0.875000 0.937500
vt 0.890625 0.000000
vt 0.875000 0.437500
vt 0.843750 0.125000
vt 0.843750 0.625000
vt 0.843750 0.562500
vt 0.843750 0.062500
vt 0.843750 0.500000
vt 0.859375 1.000000
vt 0.843750 0.937500
vt 0.859375 0.000000
vt 0.843750 0.437500
vt 0.843750 0.875000
vt 0.843750 0.375000
vt 0.843750 0.812500
vt 0.843750 0.312500
vt 0.843750 0.750000
vt 0.843750 0.250000
vt 0.843750 0.687500
vt 0.843750 0.187500
vt 0.812500 0.375000
vt 0.812500 0.312500
vt 0.812500 0.750000
vt 0.812500 0.250000
vt 0.812500 0.687500
vt 0.812500 0.187500
vt 0.812500 0.625000
vt 0.812500 0.125000
vt 0.812500 0.562500
vt 0.812500 0.062500
vt 0.812500 0.500000
vt 0.828125 1.000000
vt 0.812500 0.937500
vt 0.828125 0.000000
vt 0.812500 0.437500
vt 0.812500 0.875000
vt 0.812500 0.812500
vt 0.781250 0.125000
vt 0.781250 0.062500
vt 0.781250 0.562500
vt 0.781250 0.500000
vt 0.796875 1.000000
vt 0.781250 0.937500
vt 0.796875 0.000000
vt 0.781250 0.437500
vt 0.781250 0.875000
vt 0.781250 0.375000
vt 0.781250 0.812500
vt 0.781250 0.312500
vt 0.781250 0.750000
vt 0.781250 0.250000
vt 0.781250 0.687500
vt 0.781250 0.187500
vt 0.781250 0.625000
vt 0.765625 1.000000
vt 0.765625 0.000000
s 0
usemtl マテリアル
f 478/1/1 17/2/1 6/3/1
f 476/4/2 9/5/2 10/6/2
f 479/7/3 17/2/3 18/8/3
f 476/4/4 11/9/4 2/10/4
f 479/7/5 19/11/5 480/12/5
f 477/13/6 11/9/6 12/14/6
f 480/12/7 20/15/7 481/16/7
f 3/17/8 12/14/8 13/18/8
f 481/16/9 21/19/9 482/20/9
f 3/17/10 14/21/10 4/22/10
f 474/23/11 82/24/11 7/25/11
f 308/26/12 482/20/12 21/19/12
f 4/22/13 15/27/13 5/28/13
f 475/29/14 7/25/14 8/30/14
f 5/28/15 16/31/15 478/1/15
f 1/32/16 8/30/16 9/5/16
f 15/27/17 31/33/17 16/31/17
f 8/30/18 24/34/18 9/5/18
f 17/2/19 31/33/19 32/35/19
f 9/5/20 25/36/20 10/6/20
f 18/8/21 32/35/21 33/37/21
f 10/6/22 26/38/22 11/9/22
f 19/11/23 33/37/23 34/39/23
f 11/9/24 27/40/24 12/14/24
f 20/15/25 34/39/25 35/41/25
f 13/18/26 27/40/26 28/42/26
f 20/15/27 36/43/27 21/19/27
f 13/18/28 29/44/28 14/21/28
f 7/25/29 82/45/29 22/46/29
f 308/47/30 21/19/30 36/43/30
f 14/21/31 30/48/31 15/27/31
f 7/25/32 23/49/32 8/30/32
f 35/41/33 49/50/33 50/51/33
f 28/42/34 42/52/34 43/53/34
f 36/43/35 50/51/35 51/54/35
f 29/44/36 43/53/36 44/55/36
f 22/46/37 82/56/37 37/57/37
f 308/58/38 36/43/38 51/54/38
f 29/44/39 45/59/39 30/48/39
f 22/46/40 38/60/40 23/49/40
f 30/48/41 46/61/41 31/33/41
f 23/49/42 39/62/42 24/34/42
f 32/35/43 46/61/43 47/63/43
f 24/34/44 40/64/44 25/36/44
f 33/37/45 47/63/45 48/65/45
f 25/36/46 41/66/46 26/38/46
f 34/39/47 48/65/47 49/50/47
f 26/38/48 42/52/48 27/40/48
f 38/60/49 54/67/49 39/62/49
f 47/63/50 61/68/50 62/69/50
f 39/62/51 55/70/51 40/64/51
f 47/63/52 63/71/52 48/65/52
f 41/66/53 55/70/53 56/72/53
f 49/50/54 63/71/54 64/73/54
f 41/66/55 57/74/55 42/52/55
f 50/51/56 64/73/56 65/75/56
f 43/53/57 57/74/57 58/76/57
f 51/54/58 65/75/58 66/77/58
f 44/55/59 58/76/59 59/78/59
f 37/57/60 82/79/60 52/80/60
f 308/81/61 51/54/61 66/77/61
f 44/55/62 60/82/62 45/59/62
f 37/57/63 53/83/63 38/60/63
f 45/59/64 61/68/64 46/61/64
f 58/76/65 72/84/65 73/85/65
f 65/75/66 81/86/66 66/77/66
f 59/78/67 73/85/67 74/87/67
f 52/80/68 82/88/68 67/89/68
f 308/90/69 66/77/69 81/86/69
f 59/78/70 75/91/70 60/82/70
f 53/83/71 67/89/71 68/92/71
f 60/82/72 76/93/72 61/68/72
f 54/67/73 68/92/73 69/94/73
f 62/69/74 76/93/74 77/95/74
f 54/67/75 70/96/75 55/70/75
f 62/69/76 78/97/76 63/71/76
f 56/72/77 70/96/77 71/98/77
f 64/73/78 78/97/78 79/99/78
f 56/72/79 72/84/79 57/74/79
f 64/73/80 80/100/80 65/75/80
f 77/95/81 92/101/81 93/102/81
f 69/94/82 86/103/82 70/96/82
f 77/95/83 94/104/83 78/97/83
f 71/98/84 86/103/84 87/105/84
f 79/99/85 94/104/85 95/106/85
f 71/98/86 88/107/86 72/84/86
f 80/100/87 95/106/87 96/108/87
f 73/85/88 88/107/88 89/109/88
f 81/86/89 96/108/89 97/110/89
f 74/87/90 89/109/90 90/111/90
f 67/89/91 82/112/91 83/113/91
f 308/114/92 81/86/92 97/110/92
f 74/87/93 91/115/93 75/91/93
f 67/89/94 84/116/94 68/92/94
f 75/91/95 92/101/95 76/93/95
f 68/92/96 85/117/96 69/94/96
f 96/108/97 112/118/97 97/110/97
f 90/111/98 104/119/98 105/120/98
f 83/113/99 82/121/99 98/122/99
f 308/123/100 97/110/100 112/118/100
f 90/111/101 106/124/101 91/115/101
f 83/113/102 99/125/102 84/116/102
f 91/115/103 107/126/103 92/101/103
f 85/117/104 99/125/104 100/127/104
f 93/102/105 107/126/105 108/128/105
f 85/117/106 101/129/106 86/103/106
f 93/102/107 109/130/107 94/104/107
f 87/105/108 101/129/108 102/131/108
f 95/106/109 109/130/109 110/132/109
f 87/105/110 103/133/110 88/107/110
f 95/106/111 111/134/111 96/108/111
f 89/109/112 103/133/112 104/119/112
f 100/127/113 116/135/113 101/129/113
f 108/128/114 124/136/114 109/130/114
f 102/131/115 116/135/115 117/137/115
f 110/132/116 124/136/116 125/138/116
f 102/131/117 118/139/117 103/133/117
f 111/134/118 125/138/118 126/140/118
f 104/119/119 118/139/119 119/141/119
f 111/134/120 127/142/120 112/118/120
f 105/120/121 119/141/121 120/143/121
f 98/122/122 82/144/122 113/145/122
f 308/146/123 112/118/123 127/142/123
f 105/120/124 121/147/124 106/124/124
f 98/122/125 114/148/125 99/125/125
f 106/124/126 122/149/126 107/126/126
f 99/125/127 115/150/127 100/127/127
f 108/128/128 122/149/128 123/151/128
f 120/143/129 134/152/129 135/153/129
f 113/145/130 82/154/130 128/155/130
f 308/156/131 127/142/131 142/157/131
f 120/143/132 136/158/132 121/147/132
f 114/148/133 128/155/133 129/159/133
f 121/147/134 137/160/134 122/149/134
f 115/150/135 129/159/135 130/161/135
f 123/151/136 137/160/136 138/162/136
f 115/150/137 131/163/137 116/135/137
f 123/151/138 139/164/138 124/136/138
f 117/137/139 131/163/139 132/165/139
f 125/138/140 139/164/140 140/166/140
f 117/137/141 133/167/141 118/139/141
f 125/138/142 141/168/142 126/140/142
f 119/141/143 133/167/143 134/152/143
f 126/140/144 142/157/144 127/142/144
f 138/162/145 154/169/145 139/164/145
f 132/165/146 146/170/146 147/171/146
f 140/166/147 154/169/147 155/172/147
f 132/165/148 148/173/148 133/167/148
f 141/168/149 155/172/149 156/174/149
f 134/152/150 148/173/150 149/175/150
f 141/168/151 157/176/151 142/157/151
f 135/153/152 149/175/152 150/177/152
f 128/155/153 82/178/153 143/179/153
f 308/180/154 142/157/154 157/176/154
f 135/153/155 151/181/155 136/158/155
f 128/155/156 144/182/156 129/159/156
f 136/158/157 152/183/157 137/160/157
f 129/159/158 145/184/158 130/161/158
f 138/162/159 152/183/159 153/185/159
f 130/161/160 146/170/160 131/163/160
f 308/186/161 157/176/161 172/187/161
f 150/177/162 166/188/162 151/181/162
f 143/179/163 159/189/163 144/182/163
f 151/181/164 167/190/164 152/183/164
f 144/182/165 160/191/165 145/184/165
f 153/185/166 167/190/166 168/192/166
f 145/184/167 161/193/167 146/170/167
f 153/185/168 169/194/168 154/169/168
f 147/171/169 161/193/169 162/195/169
f 155/172/170 169/194/170 170/196/170
f 147/171/171 163/197/171 148/173/171
f 156/174/172 170/196/172 171/198/172
f 149/175/173 163/197/173 164/199/173
f 157/176/174 171/198/174 172/187/174
f 150/177/175 164/199/175 165/200/175
f 143/179/176 82/201/176 158/202/176
f 170/196/177 184/203/177 185/204/177
f 162/195/178 178/205/178 163/197/178
f 171/198/179 185/204/179 186/206/179
f 164/199/180 178/205/180 179/207/180
f 172/187/181 186/206/181 187/208/181
f 165/200/182 179/207/182 180/209/182
f 158/202/183 82/210/183 173/211/183
f 308/212/184 172/187/184 187/208/184
f 165/200/185 181/213/185 166/188/185
f 158/202/186 174/214/186 159/189/186
f 166/188/187 182/215/187 167/190/187
f 159/189/188 175/216/188 160/191/188
f 168/192/189 182/215/189 183/217/189
f 160/191/190 176/218/190 161/193/190
f 168/192/191 184/203/191 169/194/191
f 162/195/192 176/218/192 177/219/192
f 174/214/193 188/220/193 189/221/193
f 181/213/194 197/222/194 182/215/194
f 175/216/195 189/221/195 190/223/195
f 183/217/196 197/222/196 198/224/196
f 175/216/197 191/225/197 176/218/197
f 183/217/198 199/226/198 184/203/198
f 177/219/199 191/225/199 192/227/199
f 185/204/200 199/226/200 200/228/200
f 177/219/201 193/229/201 178/205/201
f 185/204/202 201/230/202 186/206/202
f 179/207/203 193/229/203 194/231/203
f 186/206/204 202/232/204 187/208/204
f 180/209/205 194/231/205 195/233/205
f 173/211/206 82/234/206 188/220/206
f 308/235/207 187/208/207 202/232/207
f 180/209/208 196/236/208 181/213/208
f 192/227/209 208/237/209 193/229/209
f 201/230/210 215/238/210 216/239/210
f 194/231/211 208/237/211 209/240/211
f 202/232/212 216/239/212 217/241/212
f 195/233/213 209/240/213 210/242/213
f 188/220/214 82/243/214 203/244/214
f 308/245/215 202/232/215 217/241/215
f 195/233/216 211/246/216 196/236/216
f 188/220/217 204/247/217 189/221/217
f 196/236/218 212/248/218 197/222/218
f 189/221/219 205/249/219 190/223/219
f 198/224/220 212/248/220 213/250/220
f 190/223/221 206/251/221 191/225/221
f 198/224/222 214/252/222 199/226/222
f 192/227/223 206/251/223 207/253/223
f 200/228/224 214/252/224 215/238/224
f 211/246/225 227/254/225 212/248/225
f 204/247/226 220/255/226 205/249/226
f 213/250/227 227/254/227 228/256/227
f 205/249/228 221/257/228 206/251/228
f 213/250/229 229/258/229 214/252/229
f 207/253/230 221/257/230 222/259/230
f 215/238/231 229/258/231 230/260/231
f 207/253/232 223/261/232 208/237/232
f 216/239/233 230/260/233 231/262/233
f 209/240/234 223/261/234 224/263/234
f 217/241/235 231/262/235 232/264/235
f 210/242/236 224/263/236 225/265/236
f 203/244/237 82/266/237 218/267/237
f 308/268/238 217/241/238 232/264/238
f 210/242/239 226/269/239 211/246/239
f 203/244/240 219/270/240 204/247/240
f 231/262/241 245/271/241 246/272/241
f 224/263/242 238/273/242 239/274/242
f 231/262/243 247/275/243 232/264/243
f 225/265/244 239/274/244 240/276/244
f 218/267/245 82/277/245 233/278/245
f 308/279/246 232/264/246 247/275/246
f 225/265/247 241/280/247 226/269/247
f 219/270/248 233/278/248 234/281/248
f 226/269/249 242/282/249 227/254/249
f 219/270/250 235/283/250 220/255/250
f 228/256/251 242/282/251 243/284/251
f 220/255/252 236/285/252 221/257/252
f 228/256/253 244/286/253 229/258/253
f 222/259/254 236/285/254 237/287/254
f 230/260/255 244/286/255 245/271/255
f 222/259/256 238/273/256 223/261/256
f 235/283/257 249/288/257 250/289/257
f 243/284/258 257/290/258 258/291/258
f 235/283/259 251/292/259 236/285/259
f 243/284/260 259/293/260 244/286/260
f 237/287/261 251/292/261 252/294/261
f 245/271/262 259/293/262 260/295/262
f 237/287/263 253/296/263 238/273/263
f 245/271/264 261/297/264 246/272/264
f 239/274/265 253/296/265 254/298/265
f 246/272/266 262/299/266 247/275/266
f 240/276/267 254/298/267 255/300/267
f 233/278/268 82/301/268 248/302/268
f 308/303/269 247/275/269 262/299/269
f 240/276/270 256/304/270 241/280/270
f 234/281/271 248/302/271 249/288/271
f 241/280/272 257/290/272 242/282/272
f 254/298/273 268/305/273 269/306/273
f 261/297/274 277/307/274 262/299/274
f 255/300/275 269/306/275 270/308/275
f 248/302/276 82/309/276 263/310/276
f 308/311/277 262/299/277 277/307/277
f 255/300/278 271/312/278 256/304/278
f 249/288/279 263/310/279 264/313/279
f 256/304/280 272/314/280 257/290/280
f 249/288/281 265/315/281 250/289/281
f 258/291/282 272/314/282 273/316/282
f 250/289/283 266/317/283 251/292/283
f 258/291/284 274/318/284 259/293/284
f 252/294/285 266/317/285 267/319/285
f 260/295/286 274/318/286 275/320/286
f 252/294/287 268/305/287 253/296/287
f 261/297/288 275/320/288 276/321/288
f 273/316/289 287/322/289 288/323/289
f 265/315/290 281/324/290 266/317/290
f 273/316/291 289/325/291 274/318/291
f 267/319/292 281/324/292 282/326/292
f 275/320/293 289/325/293 290/327/293
f 267/319/294 283/328/294 268/305/294
f 275/320/295 291/329/295 276/321/295
f 269/306/296 283/328/296 284/330/296
f 276/321/297 292/331/297 277/307/297
f 270/308/298 284/330/298 285/332/298
f 263/310/299 82/333/299 278/334/299
f 308/335/300 277/307/300 292/331/300
f 270/308/301 286/336/301 271/312/301
f 263/310/302 279/337/302 264/313/302
f 271/312/303 287/322/303 272/314/303
f 264/313/304 280/338/304 265/315/304
f 292/331/305 306/339/305 307/340/305
f 285/332/306 299/341/306 300/342/306
f 278/334/307 82/343/307 293/344/307
f 308/345/308 292/331/308 307/340/308
f 285/332/309 301/346/309 286/336/309
f 278/334/310 294/347/310 279/337/310
f 286/336/311 302/348/311 287/322/311
f 280/338/312 294/347/312 295/349/312
f 288/323/313 302/348/313 303/350/313
f 280/338/314 296/351/314 281/324/314
f 288/323/315 304/352/315 289/325/315
f 282/326/316 296/351/316 297/353/316
f 290/327/317 304/352/317 305/354/317
f 282/326/318 298/355/318 283/328/318
f 290/327/319 306/339/319 291/329/319
f 284/330/320 298/355/320 299/341/320
f 303/350/321 320/356/321 304/352/321
f 297/353/322 312/357/322 313/358/322
f 305/354/323 320/356/323 321/359/323
f 297/353/324 314/360/324 298/355/324
f 305/354/325 322/361/325 306/339/325
f 299/341/326 314/360/326 315/362/326
f 306/339/327 323/363/327 307/340/327
f 300/342/328 315/362/328 316/364/328
f 293/344/329 82/365/329 309/366/329
f 308/367/330 307/340/330 323/363/330
f 300/342/331 317/368/331 301/346/331
f 294/347/332 309/366/332 310/369/332
f 301/346/333 318/370/333 302/348/333
f 295/349/334 310/369/334 311/371/334
f 303/350/335 318/370/335 319/372/335
f 295/349/336 312/357/336 296/351/336
f 309/366/337 82/373/337 324/374/337
f 308/375/338 323/363/338 338/376/338
f 316/364/339 332/377/339 317/368/339
f 309/366/340 325/378/340 310/369/340
f 317/368/341 333/379/341 318/370/341
f 310/369/342 326/380/342 311/371/342
f 319/372/343 333/379/343 334/381/343
f 311/371/344 327/382/344 312/357/344
f 319/372/345 335/383/345 320/356/345
f 313/358/346 327/382/346 328/384/346
f 321/359/347 335/383/347 336/385/347
f 313/358/348 329/386/348 314/360/348
f 321/359/349 337/387/349 322/361/349
f 315/362/350 329/386/350 330/388/350
f 323/363/351 337/387/351 338/376/351
f 316/364/352 330/388/352 331/389/352
f 328/384/353 342/390/353 343/391/353
f 336/385/354 350/392/354 351/393/354
f 328/384/355 344/394/355 329/386/355
f 336/385/356 352/395/356 337/387/356
f 330/388/357 344/394/357 345/396/357
f 338/376/358 352/395/358 353/397/358
f 331/389/359 345/396/359 346/398/359
f 324/374/360 82/399/360 339/400/360
f 308/401/361 338/376/361 353/397/361
f 331/389/362 347/402/362 332/377/362
f 324/374/363 340/403/363 325/378/363
f 332/377/364 348/404/364 333/379/364
f 326/380/365 340/403/365 341/405/365
f 334/381/366 348/404/366 349/406/366
f 326/380/367 342/390/367 327/382/367
f 334/381/368 350/392/368 335/383/368
f 346/398/369 362/407/369 347/402/369
f 339/400/370 355/408/370 340/403/370
f 347/402/371 363/409/371 348/404/371
f 341/405/372 355/408/372 356/410/372
f 349/406/373 363/409/373 364/411/373
f 341/405/374 357/412/374 342/390/374
f 349/406/375 365/413/375 350/392/375
f 343/391/376 357/412/376 358/414/376
f 351/393/377 365/413/377 366/415/377
f 343/391/378 359/416/378 344/394/378
f 351/393/379 367/417/379 352/395/379
f 345/396/380 359/416/380 360/418/380
f 353/397/381 367/417/381 368/419/381
f 346/398/382 360/418/382 361/420/382
f 339/400/383 82/421/383 354/422/383
f 308/423/384 353/397/384 368/419/384
f 366/424/385 380/425/385 381/426/385
f 358/427/386 374/428/386 359/429/386
f 366/424/387 382/430/387 367/431/387
f 360/432/388 374/428/388 375/433/388
f 367/431/389 383/434/389 368/435/389
f 361/436/390 375/433/390 376/437/390
f 354/438/391 82/439/391 369/440/391
f 308/441/392 368/435/392 383/434/392
f 361/436/393 377/442/393 362/443/393
f 355/444/394 369/440/394 370/445/394
f 362/443/395 378/446/395 363/447/395
f 356/448/396 370/445/396 371/449/396
f 364/450/397 378/446/397 379/451/397
f 356/448/398 372/452/398 357/453/398
f 364/450/399 380/425/399 365/454/399
f 358/427/400 372/452/400 373/455/400
f 370/445/401 384/456/401 385/457/401
f 377/442/402 393/458/402 378/446/402
f 371/449/403 385/457/403 386/459/403
f 379/451/404 393/458/404 394/460/404
f 371/449/405 387/461/405 372/452/405
f 379/451/406 395/462/406 380/425/406
f 373/455/407 387/461/407 388/463/407
f 381/426/408 395/462/408 396/464/408
f 373/455/409 389/465/409 374/428/409
f 381/426/410 397/466/410 382/430/410
f 375/433/411 389/465/411 390/467/411
f 382/430/412 398/468/412 383/434/412
f 376/437/413 390/467/413 391/469/413
f 369/440/414 82/470/414 384/456/414
f 308/471/415 383/434/415 398/468/415
f 376/437/416 392/472/416 377/442/416
f 388/463/417 404/473/417 389/465/417
f 396/464/418 412/474/418 397/466/418
f 390/467/419 404/473/419 405/475/419
f 398/468/420 412/474/420 413/476/420
f 391/469/421 405/475/421 406/477/421
f 384/456/422 82/478/422 399/479/422
f 308/480/423 398/468/423 413/476/423
f 391/469/424 407/481/424 392/472/424
f 384/456/425 400/482/425 385/457/425
f 392/472/426 408/483/426 393/458/426
f 386/459/427 400/482/427 401/484/427
f 394/460/428 408/483/428 409/485/428
f 386/459/429 402/486/429 387/461/429
f 394/460/430 410/487/430 395/462/430
f 388/463/431 402/486/431 403/488/431
f 396/464/432 410/487/432 411/489/432
f 407/481/433 423/490/433 408/483/433
f 401/484/434 415/491/434 416/492/434
f 409/485/435 423/490/435 424/493/435
f 401/484/436 417/494/436 402/486/436
f 409/485/437 425/495/437 410/487/437
f 403/488/438 417/494/438 418/496/438
f 411/489/439 425/495/439 426/497/439
f 403/488/440 419/498/440 404/473/440
f 411/489/441 427/499/441 412/474/441
f 405/475/442 419/498/442 420/500/442
f 412/474/443 428/501/443 413/476/443
f 406/477/444 420/500/444 421/502/444
f 399/479/445 82/503/445 414/504/445
f 308/505/446 413/476/446 428/501/446
f 406/477/447 422/506/447 407/481/447
f 399/479/448 415/491/448 400/482/448
f 426/497/449 442/507/449 427/499/449
f 420/500/450 434/508/450 435/509/450
f 428/501/451 442/507/451 443/510/451
f 421/502/452 435/509/452 436/511/452
f 414/504/453 82/512/453 429/513/453
f 308/514/454 428/501/454 443/510/454
f 421/502/455 437/515/455 422/506/455
f 414/504/456 430/516/456 415/491/456
f 422/506/457 438/517/457 423/490/457
f 416/492/458 430/516/458 431/518/458
f 424/493/459 438/517/459 439/519/459
f 416/492/460 432/520/460 417/494/460
f 424/493/461 440/521/461 425/495/461
f 418/496/462 432/520/462 433/522/462
f 426/497/463 440/521/463 441/523/463
f 418/496/464 434/508/464 419/498/464
f 439/519/465 453/524/465 454/525/465
f 431/518/466 447/526/466 432/520/466
f 439/519/467 455/527/467 440/521/467
f 433/522/468 447/526/468 448/528/468
f 441/523/469 455/527/469 456/529/469
f 433/522/470 449/530/470 434/508/470
f 441/523/471 457/531/471 442/507/471
f 435/509/472 449/530/472 450/532/472
f 442/507/473 458/533/473 443/510/473
f 436/511/474 450/532/474 451/534/474
f 429/513/475 82/535/475 444/536/475
f 308/537/476 443/510/476 458/533/476
f 436/511/477 452/538/477 437/515/477
f 430/516/478 444/536/478 445/539/478
f 437/515/479 453/524/479 438/517/479
f 431/518/480 445/539/480 446/540/480
f 458/533/481 472/541/481 473/542/481
f 451/534/482 465/543/482 466/544/482
f 444/536/483 82/545/483 459/546/483
f 308/547/484 458/533/484 473/542/484
f 451/534/485 467/548/485 452/538/485
f 444/536/486 460/549/486 445/539/486
f 452/538/487 468/550/487 453/524/487
f 446/540/488 460/549/488 461/551/488
f 454/525/489 468/550/489 469/552/489
f 446/540/490 462/553/490 447/526/490
f 454/525/491 470/554/491 455/527/491
f 448/528/492 462/553/492 463/555/492
f 456/529/493 470/554/493 471/556/493
f 448/528/494 464/557/494 449/530/494
f 456/529/495 472/541/495 457/531/495
f 450/532/496 464/557/496 465/543/496
f 462/553/497 1/32/497 476/4/497
f 469/552/498 479/7/498 470/554/498
f 463/555/499 476/4/499 2/10/499
f 471/556/500 479/7/500 480/12/500
f 464/557/501 2/10/501 477/13/501
f 471/556/502 481/16/502 472/541/502
f 465/543/503 477/13/503 3/17/503
f 472/541/504 482/20/504 473/542/504
f 466/544/505 3/17/505 4/22/505
f 459/546/506 82/558/506 474/23/506
f 308/559/507 473/542/507 482/20/507
f 466/544/508 5/28/508 467/548/508
f 459/546/509 475/29/509 460/549/509
f 467/548/510 478/1/510 468/550/510
f 461/551/511 475/29/511 1/32/511
f 468/550/512 6/3/512 469/552/512
f 478/1/1 16/31/1 17/2/1
f 476/4/2 1/32/2 9/5/2
f 479/7/3 6/3/3 17/2/3
f 476/4/4 10/6/4 11/9/4
f 479/7/5 18/8/5 19/11/5
f 477/13/6 2/10/6 11/9/6
f 480/12/7 19/11/7 20/15/7
f 3/17/8 477/13/8 12/14/8
f 481/16/9 20/15/9 21/19/9
f 3/17/513 13/18/513 14/21/513
f 4/22/514 14/21/514 15/27/514
f 475/29/14 474/23/14 7/25/14
f 5/28/15 15/27/15 16/31/15
f 1/32/16 475/29/16 8/30/16
f 15/27/17 30/48/17 31/33/17
f 8/30/18 23/49/18 24/34/18
f 17/2/19 16/31/19 31/33/19
f 9/5/20 24/34/20 25/36/20
f 18/8/21 17/2/21 32/35/21
f 10/6/22 25/36/22 26/38/22
f 19/11/23 18/8/23 33/37/23
f 11/9/24 26/38/24 27/40/24
f 20/15/25 19/11/25 34/39/25
f 13/18/26 12/14/26 27/40/26
f 20/15/27 35/41/27 36/43/27
f 13/18/28 28/42/28 29/44/28
f 14/21/31 29/44/31 30/48/31
f 7/25/32 22/46/32 23/49/32
f 35/41/515 34/39/515 49/50/515
f 28/42/34 27/40/34 42/52/34
f 36/43/35 35/41/35 50/51/35
f 29/44/36 28/42/36 43/53/36
f 29/44/39 44/55/39 45/59/39
f 22/46/40 37/57/40 38/60/40
f 30/48/41 45/59/41 46/61/41
f 23/49/516 38/60/516 39/62/516
f 32/35/43 31/33/43 46/61/43
f 24/34/44 39/62/44 40/64/44
f 33/37/45 32/35/45 47/63/45
f 25/36/46 40/64/46 41/66/46
f 34/39/47 33/37/47 48/65/47
f 26/38/48 41/66/48 42/52/48
f 38/60/49 53/83/49 54/67/49
f 47/63/50 46/61/50 61/68/50
f 39/62/51 54/67/51 55/70/51
f 47/63/52 62/69/52 63/71/52
f 41/66/53 40/64/53 55/70/53
f 49/50/54 48/65/54 63/71/54
f 41/66/55 56/72/55 57/74/55
f 50/51/56 49/50/56 64/73/56
f 43/53/57 42/52/57 57/74/57
f 51/54/58 50/51/58 65/75/58
f 44/55/59 43/53/59 58/76/59
f 44/55/62 59/78/62 60/82/62
f 37/57/63 52/80/63 53/83/63
f 45/59/64 60/82/64 61/68/64
f 58/76/65 57/74/65 72/84/65
f 65/75/517 80/100/517 81/86/517
f 59/78/67 58/76/67 73/85/67
f 59/78/70 74/87/70 75/91/70
f 53/83/71 52/80/71 67/89/71
f 60/82/72 75/91/72 76/93/72
f 54/67/73 53/83/73 68/92/73
f 62/69/74 61/68/74 76/93/74
f 54/67/75 69/94/75 70/96/75
f 62/69/76 77/95/76 78/97/76
f 56/72/77 55/70/77 70/96/77
f 64/73/78 63/71/78 78/97/78
f 56/72/79 71/98/79 72/84/79
f 64/73/80 79/99/80 80/100/80
f 77/95/81 76/93/81 92/101/81
f 69/94/82 85/117/82 86/103/82
f 77/95/83 93/102/83 94/104/83
f 71/98/84 70/96/84 86/103/84
f 79/99/85 78/97/85 94/104/85
f 71/98/86 87/105/86 88/107/86
f 80/100/87 79/99/87 95/106/87
f 73/85/88 72/84/88 88/107/88
f 81/86/89 80/100/89 96/108/89
f 74/87/90 73/85/90 89/109/90
f 74/87/93 90/111/93 91/115/93
f 67/89/94 83/113/94 84/116/94
f 75/91/95 91/115/95 92/101/95
f 68/92/96 84/116/96 85/117/96
f 96/108/97 111/134/97 112/118/97
f 90/111/98 89/109/98 104/119/98
f 90/111/101 105/120/101 106/124/101
f 83/113/102 98/122/102 99/125/102
f 91/115/103 106/124/103 107/126/103
f 85/117/104 84/116/104 99/125/104
f 93/102/105 92/101/105 107/126/105
f 85/117/106 100/127/106 101/129/106
f 93/102/107 108/128/107 109/130/107
f 87/105/108 86/103/108 101/129/108
f 95/106/109 94/104/109 109/130/109
f 87/105/110 102/131/110 103/133/110
f 95/106/111 110/132/111 111/134/111
f 89/109/112 88/107/112 103/133/112
f 100/127/113 115/150/113 116/135/113
f 108/128/114 123/151/114 124/136/114
f 102/131/115 101/129/115 116/135/115
f 110/132/116 109/130/116 124/136/116
f 102/131/117 117/137/117 118/139/117
f 111/134/118 110/132/118 125/138/118
f 104/119/119 103/133/119 118/139/119
f 111/134/120 126/140/120 127/142/120
f 105/120/121 104/119/121 119/141/121
f 105/120/124 120/143/124 121/147/124
f 98/122/125 113/145/125 114/148/125
f 106/124/126 121/147/126 122/149/126
f 99/125/127 114/148/127 115/150/127
f 108/128/128 107/126/128 122/149/128
f 120/143/129 119/141/129 134/152/129
f 120/143/132 135/153/132 136/158/132
f 114/148/133 113/145/133 128/155/133
f 121/147/134 136/158/134 137/160/134
f 115/150/135 114/148/135 129/159/135
f 123/151/136 122/149/136 137/160/136
f 115/150/137 130/161/137 131/163/137
f 123/151/138 138/162/138 139/164/138
f 117/137/139 116/135/139 131/163/139
f 125/138/140 124/136/140 139/164/140
f 117/137/141 132/165/141 133/167/141
f 125/138/142 140/166/142 141/168/142
f 119/141/143 118/139/143 133/167/143
f 126/140/144 141/168/144 142/157/144
f 138/162/145 153/185/145 154/169/145
f 132/165/146 131/163/146 146/170/146
f 140/166/147 139/164/147 154/169/147
f 132/165/148 147/171/148 148/173/148
f 141/168/149 140/166/149 155/172/149
f 134/152/150 133/167/150 148/173/150
f 141/168/151 156/174/151 157/176/151
f 135/153/152 134/152/152 149/175/152
f 135/153/155 150/177/155 151/181/155
f 128/155/156 143/179/156 144/182/156
f 136/158/157 151/181/157 152/183/157
f 129/159/158 144/182/158 145/184/158
f 138/162/159 137/160/159 152/183/159
f 130/161/160 145/184/160 146/170/160
f 150/177/162 165/200/162 166/188/162
f 143/179/163 158/202/163 159/189/163
f 151/181/164 166/188/164 167/190/164
f 144/182/518 159/189/518 160/191/518
f 153/185/166 152/183/166 167/190/166
f 145/184/167 160/191/167 161/193/167
f 153/185/168 168/192/168 169/194/168
f 147/171/169 146/170/169 161/193/169
f 155/172/170 154/169/170 169/194/170
f 147/171/171 162/195/171 163/197/171
f 156/174/519 155/172/519 170/196/519
f 149/175/173 148/173/173 163/197/173
f 157/176/520 156/174/520 171/198/520
f 150/177/175 149/175/175 164/199/175
f 170/196/177 169/194/177 184/203/177
f 162/195/178 177/219/178 178/205/178
f 171/198/179 170/196/179 185/204/179
f 164/199/180 163/197/180 178/205/180
f 172/187/181 171/198/181 186/206/181
f 165/200/182 164/199/182 179/207/182
f 165/200/185 180/209/185 181/213/185
f 158/202/186 173/211/186 174/214/186
f 166/188/187 181/213/187 182/215/187
f 159/189/188 174/214/188 175/216/188
f 168/192/189 167/190/189 182/215/189
f 160/191/190 175/216/190 176/218/190
f 168/192/191 183/217/191 184/203/191
f 162/195/192 161/193/192 176/218/192
f 174/214/193 173/211/193 188/220/193
f 181/213/194 196/236/194 197/222/194
f 175/216/195 174/214/195 189/221/195
f 183/217/196 182/215/196 197/222/196
f 175/216/197 190/223/197 191/225/197
f 183/217/198 198/224/198 199/226/198
f 177/219/199 176/218/199 191/225/199
f 185/204/200 184/203/200 199/226/200
f 177/219/201 192/227/201 193/229/201
f 185/204/202 200/228/202 201/230/202
f 179/207/203 178/205/203 193/229/203
f 186/206/204 201/230/204 202/232/204
f 180/209/205 179/207/205 194/231/205
f 180/209/208 195/233/208 196/236/208
f 192/227/209 207/253/209 208/237/209
f 201/230/210 200/228/210 215/238/210
f 194/231/211 193/229/211 208/237/211
f 202/232/212 201/230/212 216/239/212
f 195/233/213 194/231/213 209/240/213
f 195/233/216 210/242/216 211/246/216
f 188/220/217 203/244/217 204/247/217
f 196/236/218 211/246/218 212/248/218
f 189/221/219 204/247/219 205/249/219
f 198/224/220 197/222/220 212/248/220
f 190/223/221 205/249/221 206/251/221
f 198/224/222 213/250/222 214/252/222
f 192/227/223 191/225/223 206/251/223
f 200/228/224 199/226/224 214/252/224
f 211/246/225 226/269/225 227/254/225
f 204/247/226 219/270/226 220/255/226
f 213/250/227 212/248/227 227/254/227
f 205/249/228 220/255/228 221/257/228
f 213/250/229 228/256/229 229/258/229
f 207/253/230 206/251/230 221/257/230
f 215/238/231 214/252/231 229/258/231
f 207/253/232 222/259/232 223/261/232
f 216/239/233 215/238/233 230/260/233
f 209/240/234 208/237/234 223/261/234
f 217/241/235 216/239/235 231/262/235
f 210/242/236 209/240/236 224/263/236
f 210/242/239 225/265/239 226/269/239
f 203/244/240 218/267/240 219/270/240
f 231/262/241 230/260/241 245/271/241
f 224/263/242 223/261/242 238/273/242
f 231/262/243 246/272/243 247/275/243
f 225/265/244 224/263/244 239/274/244
f 225/265/247 240/276/247 241/280/247
f 219/270/248 218/267/248 233/278/248
f 226/269/249 241/280/249 242/282/249
f 219/270/250 234/281/250 235/283/250
f 228/256/251 227/254/251 242/282/251
f 220/255/252 235/283/252 236/285/252
f 228/256/253 243/284/253 244/286/253
f 222/259/254 221/257/254 236/285/254
f 230/260/255 229/258/255 244/286/255
f 222/259/256 237/287/256 238/273/256
f 235/283/257 234/281/257 249/288/257
f 243/284/258 242/282/258 257/290/258
f 235/283/259 250/289/259 251/292/259
f 243/284/260 258/291/260 259/293/260
f 237/287/261 236/285/261 251/292/261
f 245/271/262 244/286/262 259/293/262
f 237/287/263 252/294/263 253/296/263
f 245/271/264 260/295/264 261/297/264
f 239/274/265 238/273/265 253/296/265
f 246/272/266 261/297/266 262/299/266
f 240/276/521 239/274/521 254/298/521
f 240/276/522 255/300/522 256/304/522
f 234/281/271 233/278/271 248/302/271
f 241/280/272 256/304/272 257/290/272
f 254/298/273 253/296/273 268/305/273
f 261/297/274 276/321/274 277/307/274
f 255/300/275 254/298/275 269/306/275
f 255/300/278 270/308/278 271/312/278
f 249/288/279 248/302/279 263/310/279
f 256/304/280 271/312/280 272/314/280
f 249/288/281 264/313/281 265/315/281
f 258/291/282 257/290/282 272/314/282
f 250/289/283 265/315/283 266/317/283
f 258/291/284 273/316/284 274/318/284
f 252/294/285 251/292/285 266/317/285
f 260/295/286 259/293/286 274/318/286
f 252/294/287 267/319/287 268/305/287
f 261/297/288 260/295/288 275/320/288
f 273/316/289 272/314/289 287/322/289
f 265/315/290 280/338/290 281/324/290
f 273/316/291 288/323/291 289/325/291
f 267/319/292 266/317/292 281/324/292
f 275/320/293 274/318/293 289/325/293
f 267/319/294 282/326/294 283/328/294
f 275/320/523 290/327/523 291/329/523
f 269/306/296 268/305/296 283/328/296
f 276/321/297 291/329/297 292/331/297
f 270/308/298 269/306/298 284/330/298
f 270/308/301 285/332/301 286/336/301
f 263/310/302 278/334/302 279/337/302
f 271/312/303 286/336/303 287/322/303
f 264/313/524 279/337/524 280/338/524
f 292/331/305 291/329/305 306/339/305
f 285/332/306 284/330/306 299/341/306
f 285/332/309 300/342/309 301/346/309
f 278/334/310 293/344/310 294/347/310
f 286/336/311 301/346/311 302/348/311
f 280/338/312 279/337/312 294/347/312
f 288/323/313 287/322/313 302/348/313
f 280/338/314 295/349/314 296/351/314
f 288/323/315 303/350/315 304/352/315
f 282/326/316 281/324/316 296/351/316
f 290/327/317 289/325/317 304/352/317
f 282/326/318 297/353/318 298/355/318
f 290/327/319 305/354/319 306/339/319
f 284/330/320 283/328/320 298/355/320
f 303/350/321 319/372/321 320/356/321
f 297/353/322 296/351/322 312/357/322
f 305/354/323 304/352/323 320/356/323
f 297/353/324 313/358/324 314/360/324
f 305/354/325 321/359/325 322/361/325
f 299/341/326 298/355/326 314/360/326
f 306/339/525 322/361/525 323/363/525
f 300/342/328 299/341/328 315/362/328
f 300/342/331 316/364/331 317/368/331
f 294/347/526 293/344/526 309/366/526
f 301/346/333 317/368/333 318/370/333
f 295/349/334 294/347/334 310/369/334
f 303/350/335 302/348/335 318/370/335
f 295/349/336 311/371/336 312/357/336
f 316/364/339 331/389/339 332/377/339
f 309/366/340 324/374/340 325/378/340
f 317/368/341 332/377/341 333/379/341
f 310/369/342 325/378/342 326/380/342
f 319/372/343 318/370/343 333/379/343
f 311/371/344 326/380/344 327/382/344
f 319/372/345 334/381/345 335/383/345
f 313/358/346 312/357/346 327/382/346
f 321/359/347 320/356/347 335/383/347
f 313/358/348 328/384/348 329/386/348
f 321/359/527 336/385/527 337/387/527
f 315/362/350 314/360/350 329/386/350
f 323/363/351 322/361/351 337/387/351
f 316/364/352 315/362/352 330/388/352
f 328/384/353 327/382/353 342/390/353
f 336/385/354 335/383/354 350/392/354
f 328/384/355 343/391/355 344/394/355
f 336/385/356 351/393/356 352/395/356
f 330/388/357 329/386/357 344/394/357
f 338/376/358 337/387/358 352/395/358
f 331/389/359 330/388/359 345/396/359
f 331/389/362 346/398/362 347/402/362
f 324/374/363 339/400/363 340/403/363
f 332/377/364 347/402/364 348/404/364
f 326/380/365 325/378/365 340/403/365
f 334/381/366 333/379/366 348/404/366
f 326/380/367 341/405/367 342/390/367
f 334/381/368 349/406/368 350/392/368
f 346/398/528 361/420/528 362/407/528
f 339/400/370 354/422/370 355/408/370
f 347/402/371 362/407/371 363/409/371
f 341/405/372 340/403/372 355/408/372
f 349/406/373 348/404/373 363/409/373
f 341/405/374 356/410/374 357/412/374
f 349/406/375 364/411/375 365/413/375
f 343/391/376 342/390/376 357/412/376
f 351/393/377 350/392/377 365/413/377
f 343/391/378 358/414/378 359/416/378
f 351/393/379 366/415/379 367/417/379
f 345/396/380 344/394/380 359/416/380
f 353/397/381 352/395/381 367/417/381
f 346/398/529 345/396/529 360/418/529
f 366/424/385 365/454/385 380/425/385
f 358/427/386 373/455/386 374/428/386
f 366/424/387 381/426/387 382/430/387
f 360/432/388 359/429/388 374/428/388
f 367/431/389 382/430/389 383/434/389
f 361/436/530 360/432/530 375/433/530
f 361/436/531 376/437/531 377/442/531
f 355/444/394 354/438/394 369/440/394
f 362/443/395 377/442/395 378/446/395
f 356/448/396 355/444/396 370/445/396
f 364/450/397 363/447/397 378/446/397
f 356/448/398 371/449/398 372/452/398
f 364/450/399 379/451/399 380/425/399
f 358/427/400 357/453/400 372/452/400
f 370/445/401 369/440/401 384/456/401
f 377/442/402 392/472/402 393/458/402
f 371/449/403 370/445/403 385/457/403
f 379/451/404 378/446/404 393/458/404
f 371/449/405 386/459/405 387/461/405
f 379/451/406 394/460/406 395/462/406
f 373/455/407 372/452/407 387/461/407
f 381/426/408 380/425/408 395/462/408
f 373/455/409 388/463/409 389/465/409
f 381/426/410 396/464/410 397/466/410
f 375/433/411 374/428/411 389/465/411
f 382/430/412 397/466/412 398/468/412
f 376/437/413 375/433/413 390/467/413
f 376/437/416 391/469/416 392/472/416
f 388/463/417 403/488/417 404/473/417
f 396/464/418 411/489/418 412/474/418
f 390/467/419 389/465/419 404/473/419
f 398/468/420 397/466/420 412/474/420
f 391/469/421 390/467/421 405/475/421
f 391/469/424 406/477/424 407/481/424
f 384/456/425 399/479/425 400/482/425
f 392/472/426 407/481/426 408/483/426
f 386/459/427 385/457/427 400/482/427
f 394/460/428 393/458/428 408/483/428
f 386/459/429 401/484/429 402/486/429
f 394/460/430 409/485/430 410/487/430
f 388/463/431 387/461/431 402/486/431
f 396/464/432 395/462/432 410/487/432
f 407/481/433 422/506/433 423/490/433
f 401/484/434 400/482/434 415/491/434
f 409/485/435 408/483/435 423/490/435
f 401/484/436 416/492/436 417/494/436
f 409/485/437 424/493/437 425/495/437
f 403/488/438 402/486/438 417/494/438
f 411/489/439 410/487/439 425/495/439
f 403/488/440 418/496/440 419/498/440
f 411/489/441 426/497/441 427/499/441
f 405/475/442 404/473/442 419/498/442
f 412/474/443 427/499/443 428/501/443
f 406/477/444 405/475/444 420/500/444
f 406/477/447 421/502/447 422/506/447
f 399/479/448 414/504/448 415/491/448
f 426/497/449 441/523/449 442/507/449
f 420/500/450 419/498/450 434/508/450
f 428/501/451 427/499/451 442/507/451
f 421/502/452 420/500/452 435/509/452
f 421/502/455 436/511/455 437/515/455
f 414/504/456 429/513/456 430/516/456
f 422/506/457 437/515/457 438/517/457
f 416/492/458 415/491/458 430/516/458
f 424/493/459 423/490/459 438/517/459
f 416/492/460 431/518/460 432/520/460
f 424/493/461 439/519/461 440/521/461
f 418/496/462 417/494/462 432/520/462
f 426/497/463 425/495/463 440/521/463
f 418/496/464 433/522/464 434/508/464
f 439/519/465 438/517/465 453/524/465
f 431/518/466 446/540/466 447/526/466
f 439/519/467 454/525/467 455/527/467
f 433/522/468 432/520/468 447/526/468
f 441/523/469 440/521/469 455/527/469
f 433/522/470 448/528/470 449/530/470
f 441/523/471 456/529/471 457/531/471
f 435/509/472 434/508/472 449/530/472
f 442/507/473 457/531/473 458/533/473
f 436/511/474 435/509/474 450/532/474
f 436/511/477 451/534/477 452/538/477
f 430/516/478 429/513/478 444/536/478
f 437/515/479 452/538/479 453/524/479
f 431/518/480 430/516/480 445/539/480
f 458/533/481 457/531/481 472/541/481
f 451/534/482 450/532/482 465/543/482
f 451/534/485 466/544/485 467/548/485
f 444/536/486 459/546/486 460/549/486
f 452/538/487 467/548/487 468/550/487
f 446/540/488 445/539/488 460/549/488
f 454/525/489 453/524/489 468/550/489
f 446/540/490 461/551/490 462/553/490
f 454/525/491 469/552/491 470/554/491
f 448/528/492 447/526/492 462/553/492
f 456/529/493 455/527/493 470/554/493
f 448/528/494 463/555/494 464/557/494
f 456/529/495 471/556/495 472/541/495
f 450/532/496 449/530/496 464/557/496
f 462/553/497 461/551/497 1/32/497
f 469/552/498 6/3/498 479/7/498
f 463/555/499 462/553/499 476/4/499
f 471/556/500 470/554/500 479/7/500
f 464/557/501 463/555/501 2/10/501
f 471/556/502 480/12/502 481/16/502
f 465/543/503 464/557/503 477/13/503
f 472/541/504 481/16/504 482/20/504
f 466/544/505 465/543/505 3/17/505
f 466/544/508 4/22/508 5/28/508
f 459/546/509 474/23/509 475/29/509
f 467/548/510 5/28/510 478/1/510
f 461/551/511 460/549/511 475/29/511
f 468/550/512 478/1/512 6/3/512
