# Blender 4.1.1
# www.blender.org
mtllib Gun.mtl
o Gun
v 0.556507 -0.245703 0.017970
v 0.406170 0.101611 0.017970
v 0.556507 -0.245703 -0.004241
v 0.406170 0.101611 -0.004241
v 0.507785 -0.266791 0.017970
v 0.357450 0.080522 0.017970
v 0.507785 -0.266791 -0.004241
v 0.357450 0.080522 -0.004241
v 0.622626 -0.287695 -0.053032
v 0.622626 0.213080 -0.053032
v 0.622626 -0.287695 0.043879
v 0.622626 0.213080 0.043879
v -1.100545 0.081775 -0.053032
v -1.100545 0.213080 -0.053032
v -1.100545 0.081775 0.043879
v -1.100545 0.213080 0.043879
v 0.228470 -0.037307 -0.053032
v 0.228470 -0.037307 0.043879
v -1.100545 0.147427 0.043879
v -1.100545 0.147427 -0.053032
vn -0.9177 -0.3972 -0.0000
vn -0.0000 -0.0000 1.0000
vn 0.9177 0.3972 -0.0000
vn -0.0000 -0.0000 -1.0000
vn -0.3972 0.9177 -0.0000
vn 0.3972 -0.9177 -0.0000
vn 0.5362 -0.8441 -0.0000
vn -1.0000 -0.0000 -0.0000
vn -0.2096 -0.9778 -0.0000
vn -0.0000 1.0000 -0.0000
vn 0.5362 0.8441 -0.0000
vt 0.929507 0.487970
vt 0.947458 0.378315
vt 0.953810 0.379741
vt 0.923155 0.486543
vt 0.932276 0.374906
vt 0.907973 0.483134
vt 0.925924 0.373480
vt 0.886438 0.478299
vt 0.910742 0.370070
vt 0.929333 0.358297
vt 0.935685 0.359724
vt 0.904563 0.498316
vt 0.901621 0.481708
vt 0.195927 0.046190
vt 0.194721 0.185666
vt 0.172236 0.151210
vt 0.552178 0.503880
vt 0.538839 0.514378
vt 0.554402 0.534041
vt 0.567706 0.523517
vt 0.730129 0.832882
vt 0.525547 0.524969
vt 0.184555 0.827560
vt 0.168993 0.807954
vt 0.901358 0.227789
vt 0.541108 0.544576
vt 0.742623 0.952879
vt 0.046190 0.150277
vt 0.051580 0.125237
vt 0.898211 0.496890
vt 0.213921 0.049428
vt 0.844061 0.872567
vt 0.916886 0.247427
s 0
usemtl マテリアル.003
f 2/1/1 3/2/1 1/3/1
f 4/4/2 7/5/2 3/2/2
f 8/6/3 5/7/3 7/5/3
f 5/7/4 2/8/4 1/9/4
f 7/5/5 1/10/5 3/11/5
f 4/12/6 6/13/6 8/6/6
f 10/14/7 18/15/7 17/16/7
f 18/15/2 16/17/2 19/18/2
f 16/17/8 20/19/8 19/18/8
f 14/20/4 17/21/4 20/19/4
f 15/22/9 9/23/9 11/24/9
f 12/25/10 14/20/10 16/17/10
f 13/26/4 17/21/4 9/27/4
f 19/18/8 13/26/8 15/22/8
f 18/15/2 15/22/2 11/28/2
f 17/16/11 11/28/11 9/29/11
f 2/1/1 4/4/1 3/2/1
f 4/4/2 8/6/2 7/5/2
f 8/6/3 6/13/3 5/7/3
f 5/7/4 6/13/4 2/8/4
f 7/5/5 5/7/5 1/10/5
f 4/12/6 2/30/6 6/13/6
f 10/14/7 12/31/7 18/15/7
f 18/15/2 12/31/2 16/17/2
f 16/17/8 14/20/8 20/19/8
f 14/20/4 10/32/4 17/21/4
f 15/22/9 13/26/9 9/23/9
f 12/25/10 10/33/10 14/20/10
f 13/26/4 20/19/4 17/21/4
f 19/18/8 20/19/8 13/26/8
f 18/15/2 19/18/2 15/22/2
f 17/16/11 18/15/11 11/28/11
