# Blender 4.1.1
# www.blender.org
mtllib Missile.mtl
o Missile
v -0.124322 0.015747 -0.014920
v -0.124322 -0.015907 -0.014920
v -0.124322 0.015747 0.015080
v -0.124322 -0.015907 0.015080
v -0.173502 -0.000079 0.000080
v 0.142188 -0.015719 -0.015060
v 0.142188 -0.015719 0.014993
v 0.142188 0.015785 -0.015060
v -0.124316 -0.015719 -0.015060
v -0.124316 -0.015719 0.014993
v -0.124316 0.015785 -0.015060
v -0.124316 0.015785 0.014993
v 0.142188 0.015785 0.014993
v 0.149826 -0.015719 0.014993
v 0.149826 -0.015719 -0.015060
v 0.149826 0.015785 -0.015060
v 0.149826 0.015785 0.014993
vn -0.2918 -0.0000 -0.9565
vn -0.3064 -0.9519 -0.0000
vn -0.2917 -0.0000 0.9565
vn -0.3063 0.9519 -0.0000
vn -0.0000 -1.0000 -0.0000
vn -0.0000 1.0000 -0.0000
vn -0.0000 -0.0000 -1.0000
vn -1.0000 -0.0000 -0.0000
vn -0.0000 -0.0000 1.0000
vn 1.0000 -0.0000 -0.0000
vt 0.609461 0.277520
vt 0.609460 0.056124
vt 0.720164 0.166827
vt 0.830856 0.056124
vt 0.830856 0.277519
vt 0.001628 0.503375
vt 0.237150 0.724703
vt 0.001628 0.724703
vt 0.814764 0.625062
vt 0.808240 0.411111
vt 0.814764 0.411111
vt 0.457049 0.960227
vt 0.237150 0.960227
vt 0.237150 0.503375
vt 0.457049 0.724703
vt 0.457049 0.503375
vt 0.692572 0.503375
vt 0.692572 0.724703
vt 0.954260 0.621812
vt 0.952923 0.407765
vt 0.959446 0.407923
vt 0.457049 0.267852
vt 0.237150 0.267852
vt 0.457049 0.039770
vt 0.237150 0.261099
vt 0.237150 0.039770
vt 0.457049 0.261099
vt 0.887926 0.415682
vt 0.894451 0.628250
vt 0.887926 0.628250
vt 0.772822 0.671420
vt 0.992721 0.664668
vt 0.992721 0.671420
vt 0.808240 0.625062
vt 0.947737 0.621654
vt 0.894451 0.415682
vt 0.772822 0.664668
s 0
usemtl マテリアル.011
f 1/1/1 2/2/1 5/3/1
f 5/3/2 2/2/2 4/4/2
f 4/4/3 3/5/3 5/3/3
f 3/5/4 1/1/4 5/3/4
f 7/6/5 9/7/5 6/8/5
f 13/9/6 16/10/6 8/11/6
f 9/7/7 8/12/7 6/13/7
f 7/6/5 10/14/5 9/7/5
f 10/14/8 11/15/8 9/7/8
f 9/7/7 11/15/7 8/12/7
f 10/14/8 12/16/8 11/15/8
f 13/17/6 11/15/6 12/16/6
f 13/17/6 8/18/6 11/15/6
f 6/19/5 14/20/5 7/21/5
f 13/22/9 10/14/9 7/23/9
f 13/22/9 12/16/9 10/14/9
f 16/24/10 14/25/10 15/26/10
f 16/24/10 17/27/10 14/25/10
f 8/28/7 15/29/7 6/30/7
f 7/31/9 17/32/9 13/33/9
f 13/9/6 17/34/6 16/10/6
f 6/19/5 15/35/5 14/20/5
f 8/28/7 16/36/7 15/29/7
f 7/31/9 14/37/9 17/32/9
