# Blender 4.1.1
# www.blender.org
mtllib Enemy.mtl
o 立方体
v -0.347658 0.407093 -0.267520
v -0.347658 0.287891 -0.386722
v -0.502568 0.287891 -0.267520
v -0.347658 -0.247150 -0.386722
v -0.347658 -0.366352 -0.267520
v -0.502568 -0.247150 -0.267520
v -0.347658 0.407093 0.267520
v -0.502568 0.287891 0.267520
v -0.347658 0.287891 0.386722
v -0.347658 -0.366352 0.267520
v -0.347658 -0.247149 0.386722
v -0.502568 -0.247149 0.267520
v 0.347658 0.407093 -0.267520
v 0.502568 0.287891 -0.267520
v 0.347658 0.287891 -0.386722
v 0.347658 -0.366352 -0.267520
v 0.347658 -0.247150 -0.386722
v 0.502568 -0.247150 -0.267520
v 0.347658 0.407093 0.267520
v 0.347658 0.287891 0.386722
v 0.502568 0.287891 0.267520
v 0.347658 -0.366352 0.267520
v 0.502568 -0.247149 0.267520
v 0.347658 -0.247149 0.386722
vn -0.0000 -0.0000 -1.0000
vn 1.0000 -0.0000 -0.0000
vn -0.0000 -1.0000 -0.0000
vn -1.0000 -0.0000 -0.0000
vn -0.0000 -0.0000 1.0000
vn -0.4779 0.6211 -0.6211
vn -0.4779 -0.6211 -0.6211
vn -0.4779 0.6211 0.6211
vn -0.4779 -0.6211 0.6211
vn 0.4779 0.6211 -0.6211
vn 0.4779 -0.6211 -0.6211
vn 0.4779 0.6211 0.6211
vn 0.4779 -0.6211 0.6211
vn -0.6098 0.7925 -0.0000
vn -0.6098 -0.0000 -0.7925
vn -0.6098 -0.7925 -0.0000
vn -0.6098 -0.0000 0.7925
vn -0.0000 0.7071 0.7071
vn -0.0000 -0.7071 0.7071
vn 0.6098 -0.0000 0.7925
vn 0.6098 0.7925 -0.0000
vn 0.6098 -0.7925 -0.0000
vn 0.6098 -0.0000 -0.7925
vn -0.0000 0.7071 -0.7071
vn -0.0000 -0.7071 -0.7071
vn -0.0000 1.0000 -0.0000
vt 0.758684 0.400903
vt 0.992109 0.537156
vt 0.759022 0.537731
vt 0.561640 0.401389
vt 0.698806 0.537879
vt 0.561978 0.538217
vt 0.560917 0.108085
vt 0.698320 0.340835
vt 0.561492 0.341173
vt 0.071293 0.402597
vt 0.208458 0.539088
vt 0.071630 0.539425
vt 0.268337 0.402112
vt 0.501762 0.538365
vt 0.268674 0.538939
vt 0.699528 0.831183
vt 0.742639 0.831077
vt 0.721222 0.887355
vt 0.011077 0.402745
vt 0.026410 0.362453
vt 0.562701 0.831520
vt 0.541283 0.887799
vt 0.519590 0.831626
vt 0.207972 0.342044
vt 0.248265 0.357377
vt 0.208121 0.402260
vt 0.698954 0.598095
vt 0.720371 0.541817
vt 0.742065 0.597989
vt 0.758578 0.357792
vt 0.702405 0.379486
vt 0.562126 0.598433
vt 0.519015 0.598539
vt 0.540432 0.542260
vt 0.501318 0.358426
vt 0.557597 0.379843
vt 0.501424 0.401537
vt 0.562849 0.891736
vt 0.011414 0.539574
vt 0.071144 0.342381
vt 0.268231 0.359001
vt 0.698468 0.401051
vt 0.991666 0.357218
vt 0.991772 0.400329
vt 0.697745 0.107748
vt 0.699677 0.891399
s 0
usemtl マテリアル
f 17/1/1 2/2/1 15/3/1
f 23/4/2 14/5/2 21/6/2
f 10/7/3 16/8/3 22/9/3
f 6/10/4 8/11/4 3/12/4
f 11/13/5 20/14/5 9/15/5
f 1/16/6 2/17/6 3/18/6
f 4/19/7 5/20/7 6/10/7
f 7/21/8 8/22/8 9/23/8
f 10/24/9 11/25/9 12/26/9
f 13/27/10 14/28/10 15/29/10
f 16/30/11 17/1/11 18/31/11
f 19/32/12 20/33/12 21/34/12
f 22/35/13 23/36/13 24/37/13
f 1/16/14 8/38/14 7/21/14
f 4/19/15 3/12/15 2/39/15
f 10/24/16 6/10/16 5/40/16
f 9/15/17 12/26/17 11/13/17
f 7/21/18 20/33/18 19/32/18
f 22/35/19 11/13/19 10/41/19
f 21/6/20 24/37/20 23/4/20
f 19/32/21 14/5/21 13/27/21
f 16/8/22 23/4/22 22/9/22
f 15/3/23 18/42/23 17/1/23
f 1/16/24 15/29/24 2/17/24
f 5/43/25 17/1/25 16/30/25
f 19/32/26 1/16/26 7/21/26
f 17/1/1 4/44/1 2/2/1
f 23/4/2 18/42/2 14/5/2
f 10/7/3 5/45/3 16/8/3
f 6/10/4 12/26/4 8/11/4
f 11/13/5 24/37/5 20/14/5
f 1/16/14 3/46/14 8/38/14
f 4/19/15 6/10/15 3/12/15
f 10/24/16 12/26/16 6/10/16
f 9/15/17 8/11/17 12/26/17
f 7/21/18 9/23/18 20/33/18
f 22/35/19 24/37/19 11/13/19
f 21/6/20 20/14/20 24/37/20
f 19/32/21 21/6/21 14/5/21
f 16/8/22 18/42/22 23/4/22
f 15/3/23 14/5/23 18/42/23
f 1/16/24 13/27/24 15/29/24
f 5/43/25 4/44/25 17/1/25
f 19/32/26 13/27/26 1/16/26
