# Blender 4.1.1
# www.blender.org
mtllib enemy.mtl
o 立方体.001
v 0.144839 0.294402 -0.406094
v 0.144839 0.919653 -0.406094
v 0.442892 0.294403 -0.406094
v 0.442892 0.919653 -0.406094
v 0.144839 0.294402 0.406094
v 0.144839 0.919653 0.406094
v 0.442892 0.294403 0.406094
v 0.442892 0.919653 0.406094
v 0.500000 1.770000 0.500000
v 0.500000 0.770000 0.500000
v -0.500000 1.770000 0.500000
v -0.500000 0.770000 0.500000
v 0.500000 1.770000 -0.500000
v 0.500000 0.770000 -0.500000
v -0.500000 1.770000 -0.500000
v -0.500000 0.770000 -0.500000
v -0.453883 0.281876 -0.388330
v -0.453883 1.010175 -0.388330
v 0.082208 0.281876 -0.388330
v 0.082208 1.010175 -0.388330
v -0.453883 0.281876 0.388330
v -0.453883 1.010175 0.388330
v 0.082208 0.281876 0.388330
v 0.082208 1.010175 0.388330
v 0.095272 1.266024 0.376723
v 0.095272 1.626099 0.376723
v 0.357053 1.266024 0.376723
v 0.357053 1.626099 0.376723
v 0.095272 1.266024 0.570161
v 0.095272 1.626099 0.570161
v 0.357053 1.266024 0.570161
v 0.357053 1.626099 0.570161
v -0.095272 1.266024 0.376723
v -0.095272 1.626099 0.376723
v -0.357053 1.266024 0.376722
v -0.357053 1.626099 0.376722
v -0.095272 1.266024 0.570161
v -0.095272 1.626099 0.570161
v -0.357053 1.266024 0.570161
v -0.357053 1.626099 0.570161
vn -0.0000 -0.0000 -1.0000
vn 1.0000 -0.0000 -0.0000
vn -0.0000 -0.0000 1.0000
vn -1.0000 -0.0000 -0.0000
vn -0.0000 -1.0000 -0.0000
vn -0.0000 1.0000 -0.0000
vt 0.528510 0.720411
vt 0.643816 0.835718
vt 0.528510 0.835718
vt 0.643816 0.720411
vt 0.759122 0.605105
vt 0.759122 0.720411
vt 0.643816 0.605105
vt 0.528510 0.489799
vt 0.643816 0.489799
vt 0.528510 0.605105
vt 0.413203 0.720411
vt 0.413203 0.605105
vt 0.643816 0.951024
vt 0.326604 0.571499
vt 0.468574 0.184634
vt 0.468574 0.571499
vt 0.000218 0.000218
vt 0.142188 0.184634
vt 0.000218 0.184634
vt 0.326604 0.184634
vt 0.142188 0.571499
vt 0.000218 0.571499
vt 0.999782 0.595212
vt 0.815366 0.982077
vt 0.815366 0.595212
vt 0.142188 0.755915
vt 0.654477 0.244790
vt 0.861872 0.379100
vt 0.654477 0.379100
vt 0.861872 0.244790
vt 0.996182 0.134528
vt 0.996182 0.244790
vt 0.861872 0.134528
vt 0.654477 0.000218
vt 0.861872 0.000218
vt 0.654477 0.134528
vt 0.520167 0.244790
vt 0.520167 0.134528
vt 0.861872 0.489362
vt 0.149446 0.961048
vt 0.215849 0.859774
vt 0.215849 0.961048
vt 0.149446 0.859774
vt 0.215849 0.832311
vt 0.376992 0.841613
vt 0.310588 0.942887
vt 0.310588 0.841613
vt 0.149446 0.988510
vt 0.215849 0.988510
vt 0.243312 0.859774
vt 0.121983 0.961048
vt 0.121983 0.859774
vt 0.094084 0.950196
vt 0.027681 0.848922
vt 0.094084 0.848922
vt 0.094084 0.977659
vt 0.027681 0.950196
vt 0.243748 0.841613
vt 0.310152 0.942887
vt 0.243748 0.942887
vt 0.027681 0.821460
vt 0.094084 0.821460
vt 0.121547 0.950196
vt 0.000218 0.848922
vt 0.000218 0.950196
vt 0.528510 0.951024
vt 0.142188 0.000218
vt 0.999782 0.982077
vt 0.000218 0.755915
vt 0.654477 0.489362
vt 0.149446 0.832311
vt 0.376992 0.942887
vt 0.243312 0.961048
vt 0.027681 0.977659
vt 0.310152 0.841613
vt 0.121547 0.848922
s 0
usemtl Material.004
f 2/1/1 3/2/1 1/3/1
f 4/4/2 7/5/2 3/6/2
f 8/7/3 5/8/3 7/9/3
f 6/10/4 1/11/4 5/12/4
f 7/13/5 1/3/5 3/2/5
f 4/4/6 6/10/6 8/7/6
f 13/14/6 11/15/6 9/16/6
f 11/17/4 16/18/4 12/19/4
f 15/20/1 14/21/1 16/18/1
f 10/22/5 16/18/5 14/21/5
f 9/23/3 12/24/3 10/25/3
f 13/26/2 10/22/2 14/21/2
f 18/27/1 19/28/1 17/29/1
f 20/30/2 23/31/2 19/32/2
f 24/33/3 21/34/3 23/35/3
f 22/36/4 17/37/4 21/38/4
f 23/39/5 17/29/5 19/28/5
f 20/30/6 22/36/6 24/33/6
f 26/40/1 27/41/1 25/42/1
f 28/43/2 31/44/2 27/41/2
f 32/45/3 29/46/3 31/47/3
f 30/48/4 25/42/4 29/49/4
f 31/50/5 25/42/5 27/41/5
f 28/43/6 30/51/6 32/52/6
f 35/53/1 34/54/1 33/55/1
f 39/56/4 36/57/4 35/53/4
f 37/58/3 40/59/3 39/60/3
f 33/55/2 38/61/2 37/62/2
f 33/55/5 39/63/5 35/53/5
f 38/64/6 36/57/6 40/65/6
f 2/1/1 4/4/1 3/2/1
f 4/4/2 8/7/2 7/5/2
f 8/7/3 6/10/3 5/8/3
f 6/10/4 2/1/4 1/11/4
f 7/13/5 5/66/5 1/3/5
f 4/4/6 2/1/6 6/10/6
f 13/14/6 15/20/6 11/15/6
f 11/17/4 15/67/4 16/18/4
f 15/20/1 13/14/1 14/21/1
f 10/22/5 12/19/5 16/18/5
f 9/23/3 11/68/3 12/24/3
f 13/26/2 9/69/2 10/22/2
f 18/27/1 20/30/1 19/28/1
f 20/30/2 24/33/2 23/31/2
f 24/33/3 22/36/3 21/34/3
f 22/36/4 18/27/4 17/37/4
f 23/39/5 21/70/5 17/29/5
f 20/30/6 18/27/6 22/36/6
f 26/40/1 28/43/1 27/41/1
f 28/43/2 32/71/2 31/44/2
f 32/45/3 30/72/3 29/46/3
f 30/48/4 26/40/4 25/42/4
f 31/50/5 29/73/5 25/42/5
f 28/43/6 26/40/6 30/51/6
f 35/53/1 36/57/1 34/54/1
f 39/56/4 40/74/4 36/57/4
f 37/58/3 38/75/3 40/59/3
f 33/55/2 34/54/2 38/61/2
f 33/55/5 37/76/5 39/63/5
f 38/64/6 34/54/6 36/57/6
