# Blender 4.1.1
# www.blender.org
mtllib Jet.mtl
o Jet
v 0.527048 2.185669 0.146085
v 0.484839 2.205718 0.193101
v 0.346722 2.271324 0.146085
v 0.503344 2.244674 0.146085
v 0.557215 2.266831 0.146085
v 0.365226 2.310280 0.146085
v 0.475750 2.257781 0.193101
v 0.503344 2.244674 0.240117
v 0.521848 2.283630 0.193101
v 0.561253 2.264913 0.240117
v 0.508979 2.337488 0.193101
v 0.540352 2.322586 0.146085
v 0.540352 2.322586 0.240117
v 0.558856 2.361542 0.193101
v 0.607638 2.338371 0.146085
v 0.594363 2.344676 0.240117
v 0.420739 2.427148 0.193101
v 0.420739 2.427148 0.146085
v 0.420739 2.427148 0.240117
v 0.402235 2.388192 0.193101
v 0.402235 2.388192 0.146085
v 0.402235 2.388192 0.240117
v 0.383731 2.349236 0.193101
v 0.383731 2.349236 0.146085
v 0.383731 2.349236 0.240117
v 0.365226 2.310280 0.193101
v 0.365226 2.310280 0.240117
v 0.346722 2.271324 0.193101
v 0.346722 2.271324 0.240117
v 0.346722 2.271324 0.287134
v 0.526284 2.186032 0.240117
v 0.484839 2.205718 0.287134
v 0.524555 2.186853 0.334150
v 0.480407 2.255569 0.287134
v 0.503344 2.244674 0.334150
v 0.521848 2.283630 0.287134
v 0.566232 2.262547 0.334150
v 0.505983 2.338912 0.287134
v 0.540352 2.322586 0.334150
v 0.558856 2.361542 0.287134
v 0.609975 2.337261 0.334150
v 0.420739 2.427148 0.287134
v 0.420739 2.427148 0.334150
v 0.402235 2.388192 0.287134
v 0.402235 2.388192 0.334150
v 0.383731 2.349236 0.287134
v 0.383731 2.349236 0.334150
v 0.365226 2.310280 0.287134
v 0.365226 2.310280 0.334150
v 0.346722 2.271324 0.334150
v 0.527048 2.185669 -0.342121
v 0.607638 2.338371 -0.342121
v 0.524555 2.186853 -0.154055
v 0.609975 2.337261 -0.154055
v 0.346722 2.271324 -0.342121
v 0.420739 2.427148 -0.342121
v 0.346722 2.271324 -0.154055
v 0.420739 2.427148 -0.154055
v 0.503344 2.244674 -0.342121
v 0.557215 2.266831 -0.342121
v 0.540352 2.322586 -0.342121
v 0.540352 2.322586 -0.154055
v 0.566232 2.262547 -0.154055
v 0.503344 2.244674 -0.154055
v 0.402235 2.388192 -0.154055
v 0.383731 2.349236 -0.154055
v 0.365226 2.310280 -0.154055
v 0.402235 2.388192 -0.342121
v 0.383731 2.349236 -0.342121
v 0.365226 2.310280 -0.342121
v 0.484839 2.205718 -0.201072
v 0.526284 2.186032 -0.248088
v 0.484839 2.205718 -0.295104
v 0.558856 2.361542 -0.295104
v 0.594363 2.344676 -0.248088
v 0.558856 2.361542 -0.201072
v 0.346722 2.271324 -0.295104
v 0.346722 2.271324 -0.248088
v 0.346722 2.271324 -0.201072
v 0.420739 2.427148 -0.201072
v 0.420739 2.427148 -0.248088
v 0.420739 2.427148 -0.295104
v 0.365226 2.310280 -0.201072
v 0.365226 2.310280 -0.248088
v 0.365226 2.310280 -0.295104
v 0.383731 2.349236 -0.201072
v 0.383731 2.349236 -0.248088
v 0.383731 2.349236 -0.295104
v 0.402235 2.388192 -0.201072
v 0.402235 2.388192 -0.248088
v 0.402235 2.388192 -0.295104
v 0.475750 2.257781 -0.295104
v 0.503344 2.244674 -0.248088
v 0.480407 2.255569 -0.201072
v 0.521848 2.283630 -0.295104
v 0.561253 2.264913 -0.248088
v 0.521848 2.283630 -0.201072
v 0.508979 2.337488 -0.295104
v 0.540352 2.322586 -0.248088
v 0.505983 2.338912 -0.201072
vn 0.7694 0.3091 0.5589
vn -0.4291 -0.9033 -0.0000
vn -0.0000 -0.0000 -1.0000
vn 0.4321 -0.7706 0.4684
vn 0.7743 0.3029 -0.5557
vn 0.4321 -0.7706 -0.4684
vn 0.8148 0.2464 0.5248
vn 0.7874 0.2854 -0.5464
vn 0.3765 -0.7807 0.4987
vn 0.3765 -0.7807 -0.4987
vn 0.4291 0.9033 -0.0000
vn -0.9033 0.4291 -0.0000
vn 0.7743 0.3029 0.5557
vn 0.7854 0.2881 -0.5478
vn 0.5083 -0.7507 -0.4219
vn 0.5083 -0.7507 0.4219
vn 0.7561 0.3259 -0.5676
vn 0.7874 0.2854 0.5464
vn 0.3364 -0.7859 -0.5188
vn 0.3364 -0.7859 0.5188
vn -0.0000 -0.0000 1.0000
vn 0.8703 0.1519 0.4684
vn 0.3238 -0.7872 0.5248
vn 0.8703 0.1519 -0.4684
vn 0.2763 -0.7907 -0.5464
vn 0.8430 0.2014 0.4987
vn 0.8430 0.2014 -0.4987
vn 0.1856 -0.7913 0.5826
vn 0.3220 -0.7874 -0.5257
vn 0.9031 0.0803 0.4219
vn 0.9031 0.0803 -0.4219
vn 0.2251 -0.7919 -0.5676
vn 0.2763 -0.7907 0.5464
vn 0.8217 0.2358 -0.5188
vn 0.8217 0.2358 0.5188
vn 0.1666 -0.7905 -0.5894
vn 0.3220 -0.7874 0.5257
vt 0.283587 0.390504
vt 0.264446 0.417174
vt 0.264446 0.390504
vt 0.187882 0.683873
vt 0.264446 0.710543
vt 0.187882 0.710543
vt 0.283587 0.817222
vt 0.264446 0.817222
vt 0.302728 0.417174
vt 0.283587 0.417174
vt 0.302728 0.710543
vt 0.283587 0.710543
vt 0.283587 0.443844
vt 0.264446 0.443844
vt 0.321869 0.390504
vt 0.302728 0.390504
vt 0.321869 0.443844
vt 0.302728 0.443844
vt 0.341010 0.417174
vt 0.321869 0.417174
vt 0.417574 0.683873
vt 0.341010 0.710543
vt 0.341010 0.683873
vt 0.341010 0.657203
vt 0.321869 0.710543
vt 0.321869 0.683873
vt 0.321869 0.657203
vt 0.302728 0.683873
vt 0.302728 0.657203
vt 0.283587 0.683873
vt 0.283587 0.657203
vt 0.264446 0.683873
vt 0.264446 0.657203
vt 0.187882 0.657203
vt 0.187882 0.630533
vt 0.283587 0.630533
vt 0.264446 0.630533
vt 0.264446 0.470514
vt 0.264446 0.603863
vt 0.187882 0.603863
vt 0.283587 0.497184
vt 0.264446 0.497184
vt 0.302728 0.470514
vt 0.283587 0.470514
vt 0.321869 0.497184
vt 0.302728 0.497184
vt 0.341010 0.470514
vt 0.321869 0.470514
vt 0.341010 0.603863
vt 0.417574 0.630533
vt 0.341010 0.630533
vt 0.321869 0.630533
vt 0.321869 0.603863
vt 0.302728 0.630533
vt 0.302728 0.603863
vt 0.283587 0.603863
vt 0.321869 0.817222
vt 0.302728 0.817222
vt 0.260953 0.790930
vt 0.282489 0.699000
vt 0.304476 0.778943
vt 0.253864 0.446013
vt 0.299329 0.448244
vt 0.252390 0.299468
vt 0.295876 0.249587
vt 0.297243 0.298407
vt 0.251310 0.250804
vt 0.290766 0.091659
vt 0.589893 0.284238
vt 0.429569 0.244818
vt 0.635264 0.233037
vt 0.093978 0.301914
vt 0.379721 0.088741
vt 0.422522 0.039057
vt 0.340531 0.248196
vt 0.385143 0.246602
vt 0.333890 0.049827
vt 0.387105 0.295365
vt 0.431874 0.293321
vt 0.342186 0.297061
vt 0.428819 0.691067
vt 0.441248 0.439802
vt 0.510883 0.723559
vt 0.346897 0.448077
vt 0.395087 0.445222
vt 0.358142 0.709954
vt 0.468304 0.772283
vt 0.362498 0.769605
vt 0.421397 0.768334
vt 0.324696 0.935972
vt 0.371841 0.888179
vt 0.375738 0.952693
vt 0.313322 0.836885
vt 0.367709 0.831858
vt 0.424583 0.930090
vt 0.422127 0.885107
vt 0.423733 0.828514
vt 0.464824 0.886649
vt 0.481449 0.945884
vt 0.494288 0.830455
vt 0.345483 0.396415
vt 0.299405 0.397302
vt 0.343859 0.346354
vt 0.298487 0.347580
vt 0.391743 0.394285
vt 0.389255 0.344523
vt 0.437276 0.391156
vt 0.434361 0.342174
vt 0.095319 0.399160
vt 0.253970 0.397409
vt 0.253342 0.348393
vt 0.595778 0.381185
vt 0.644228 0.426743
vt 0.640125 0.329890
vt 0.279905 0.898033
vt 0.321604 0.891596
vt 0.341010 0.390504
vt 0.341010 0.443844
vt 0.417574 0.710543
vt 0.417574 0.657203
vt 0.341010 0.497184
vt 0.417574 0.603863
vt 0.341010 0.817222
vt 0.195910 0.756703
vt 0.244503 0.037370
vt 0.037371 0.254183
vt 0.037371 0.448388
vt 0.054009 0.351086
vt 0.266966 0.962629
vt 0.250298 0.848041
s 0
usemtl マテリアル.005
f 4/1/1 2/2/1 1/3/1
f 2/4/2 3/5/2 1/6/2
f 3/5/3 4/7/3 1/8/3
f 4/1/4 9/9/4 7/10/4
f 24/11/3 4/7/3 6/12/3
f 2/2/5 8/13/5 31/14/5
f 9/9/6 8/13/6 7/10/6
f 12/15/7 9/9/7 5/16/7
f 9/9/8 13/17/8 10/18/8
f 12/15/9 14/19/9 11/20/9
f 14/19/10 13/17/10 11/20/10
f 14/21/11 18/22/11 17/23/11
f 19/24/11 14/21/11 17/23/11
f 17/23/12 21/25/12 20/26/12
f 19/24/12 20/26/12 22/27/12
f 20/26/12 24/11/12 23/28/12
f 22/27/12 23/28/12 25/29/12
f 23/28/12 6/12/12 26/30/12
f 25/29/12 26/30/12 27/31/12
f 26/30/12 3/5/12 28/32/12
f 27/31/12 28/32/12 29/33/12
f 29/33/2 2/4/2 31/34/2
f 32/35/2 29/33/2 31/34/2
f 48/36/12 29/33/12 30/37/12
f 8/13/13 32/38/13 31/14/13
f 50/39/2 32/35/2 33/40/2
f 32/38/14 35/41/14 33/42/14
f 36/43/15 35/41/15 34/44/15
f 8/13/16 36/43/16 34/44/16
f 36/43/17 39/45/17 37/46/17
f 13/17/18 36/43/18 10/18/18
f 40/47/19 39/45/19 38/48/19
f 13/17/20 40/47/20 38/48/20
f 43/49/11 40/50/11 42/51/11
f 40/50/11 19/24/11 42/51/11
f 43/49/12 44/52/12 45/53/12
f 42/51/12 22/27/12 44/52/12
f 45/53/12 46/54/12 47/55/12
f 44/52/12 25/29/12 46/54/12
f 47/55/12 48/36/12 49/56/12
f 46/54/12 27/31/12 48/36/12
f 49/56/12 30/37/12 50/39/12
f 35/41/21 50/39/21 33/42/21
f 35/41/21 47/55/21 49/56/21
f 39/45/21 47/55/21 37/46/21
f 39/45/21 43/49/21 45/53/21
f 24/11/3 12/57/3 5/58/3
f 18/22/3 12/57/3 21/25/3
f 76/59/19 62/60/19 100/61/19
f 62/60/21 58/62/21 65/63/21
f 82/64/12 68/65/12 91/66/12
f 56/67/3 61/68/3 68/65/3
f 73/69/2 55/70/2 51/71/2
f 74/72/11 56/67/11 82/64/11
f 55/70/3 59/73/3 51/74/3
f 69/75/3 59/73/3 70/76/3
f 69/75/3 61/68/3 60/77/3
f 85/78/12 55/70/12 77/79/12
f 88/80/12 70/76/12 85/78/12
f 91/66/12 69/75/12 88/80/12
f 64/81/21 57/82/21 53/83/21
f 64/81/21 66/84/21 67/85/21
f 62/60/21 66/84/21 63/86/21
f 71/87/14 64/81/14 53/83/14
f 97/88/15 64/81/15 94/89/15
f 97/88/17 62/60/17 63/86/17
f 61/90/7 95/91/7 60/92/7
f 95/91/8 99/93/8 96/94/8
f 99/93/18 97/88/18 96/94/18
f 59/95/4 95/91/4 92/96/4
f 95/91/6 93/97/6 92/96/6
f 93/97/16 97/88/16 94/89/16
f 59/95/1 73/98/1 51/99/1
f 73/98/5 93/97/5 72/100/5
f 93/97/13 71/87/13 72/100/13
f 65/63/12 86/101/12 66/84/12
f 89/102/12 87/103/12 86/101/12
f 90/104/12 88/80/12 87/103/12
f 66/84/12 83/105/12 67/85/12
f 86/101/12 84/106/12 83/105/12
f 87/103/12 85/78/12 84/106/12
f 67/85/12 79/107/12 57/82/12
f 83/105/12 78/108/12 79/107/12
f 84/106/12 77/79/12 78/108/12
f 58/62/11 76/109/11 80/110/11
f 76/109/11 81/111/11 80/110/11
f 81/111/11 74/72/11 82/64/11
f 57/82/2 71/112/2 53/113/2
f 71/112/2 78/108/2 72/114/2
f 78/108/2 73/69/2 72/114/2
f 58/62/12 89/102/12 65/63/12
f 80/110/12 90/104/12 89/102/12
f 81/111/12 91/66/12 90/104/12
f 61/90/9 74/115/9 98/116/9
f 74/115/10 99/93/10 98/116/10
f 99/93/20 76/59/20 100/61/20
f 4/1/22 7/10/22 2/2/22
f 2/4/2 28/32/2 3/5/2
f 3/5/3 6/12/3 4/7/3
f 4/1/23 5/16/23 9/9/23
f 24/11/3 5/58/3 4/7/3
f 2/2/24 7/10/24 8/13/24
f 9/9/25 10/18/25 8/13/25
f 12/15/26 11/20/26 9/9/26
f 9/9/27 11/20/27 13/17/27
f 12/15/28 15/117/28 14/19/28
f 14/19/29 16/118/29 13/17/29
f 14/21/11 15/119/11 18/22/11
f 19/24/11 16/120/11 14/21/11
f 17/23/12 18/22/12 21/25/12
f 19/24/12 17/23/12 20/26/12
f 20/26/12 21/25/12 24/11/12
f 22/27/12 20/26/12 23/28/12
f 23/28/12 24/11/12 6/12/12
f 25/29/12 23/28/12 26/30/12
f 26/30/12 6/12/12 3/5/12
f 27/31/12 26/30/12 28/32/12
f 29/33/2 28/32/2 2/4/2
f 32/35/2 30/37/2 29/33/2
f 48/36/12 27/31/12 29/33/12
f 8/13/30 34/44/30 32/38/30
f 50/39/2 30/37/2 32/35/2
f 32/38/31 34/44/31 35/41/31
f 36/43/32 37/46/32 35/41/32
f 8/13/33 10/18/33 36/43/33
f 36/43/34 38/48/34 39/45/34
f 13/17/35 38/48/35 36/43/35
f 40/47/36 41/121/36 39/45/36
f 13/17/37 16/118/37 40/47/37
f 43/49/11 41/122/11 40/50/11
f 40/50/11 16/120/11 19/24/11
f 43/49/12 42/51/12 44/52/12
f 42/51/12 19/24/12 22/27/12
f 45/53/12 44/52/12 46/54/12
f 44/52/12 22/27/12 25/29/12
f 47/55/12 46/54/12 48/36/12
f 46/54/12 25/29/12 27/31/12
f 49/56/12 48/36/12 30/37/12
f 35/41/21 49/56/21 50/39/21
f 35/41/21 37/46/21 47/55/21
f 39/45/21 45/53/21 47/55/21
f 39/45/21 41/121/21 43/49/21
f 24/11/3 21/25/3 12/57/3
f 18/22/3 15/123/3 12/57/3
f 76/59/36 54/124/36 62/60/36
f 62/60/21 54/124/21 58/62/21
f 82/64/12 56/67/12 68/65/12
f 56/67/3 52/125/3 61/68/3
f 73/69/2 77/79/2 55/70/2
f 74/72/11 52/126/11 56/67/11
f 55/70/3 70/76/3 59/73/3
f 69/75/3 60/77/3 59/73/3
f 69/75/3 68/65/3 61/68/3
f 85/78/12 70/76/12 55/70/12
f 88/80/12 69/75/12 70/76/12
f 91/66/12 68/65/12 69/75/12
f 64/81/21 67/85/21 57/82/21
f 64/81/21 63/86/21 66/84/21
f 62/60/21 65/63/21 66/84/21
f 71/87/31 94/89/31 64/81/31
f 97/88/32 63/86/32 64/81/32
f 97/88/34 100/61/34 62/60/34
f 61/90/26 98/116/26 95/91/26
f 95/91/27 98/116/27 99/93/27
f 99/93/35 100/61/35 97/88/35
f 59/95/23 60/92/23 95/91/23
f 95/91/25 96/94/25 93/97/25
f 93/97/33 96/94/33 97/88/33
f 59/95/22 92/96/22 73/98/22
f 73/98/24 92/96/24 93/97/24
f 93/97/30 94/89/30 71/87/30
f 65/63/12 89/102/12 86/101/12
f 89/102/12 90/104/12 87/103/12
f 90/104/12 91/66/12 88/80/12
f 66/84/12 86/101/12 83/105/12
f 86/101/12 87/103/12 84/106/12
f 87/103/12 88/80/12 85/78/12
f 67/85/12 83/105/12 79/107/12
f 83/105/12 84/106/12 78/108/12
f 84/106/12 85/78/12 77/79/12
f 58/62/11 54/127/11 76/109/11
f 76/109/11 75/128/11 81/111/11
f 81/111/11 75/128/11 74/72/11
f 57/82/2 79/107/2 71/112/2
f 71/112/2 79/107/2 78/108/2
f 78/108/2 77/79/2 73/69/2
f 58/62/12 80/110/12 89/102/12
f 80/110/12 81/111/12 90/104/12
f 81/111/12 82/64/12 91/66/12
f 61/90/28 52/129/28 74/115/28
f 74/115/29 75/130/29 99/93/29
f 99/93/37 75/130/37 76/59/37
