# Blender 4.4.1
# www.blender.org
mtllib Player2.mtl
o 立方体
v -0.705440 3.419313 -0.418586
v -0.835817 5.663328 -0.085307
v -0.618631 3.419313 0.478403
v -0.830306 5.678796 0.454847
v 0.016938 3.377163 0.476907
v 0.015702 5.846907 0.449644
v -0.024223 3.378839 -0.430987
v -0.025380 5.464231 -0.456523
v -0.126133 5.847335 0.456041
v -0.263417 3.340126 -0.438626
v -0.266521 3.340126 0.510684
v -0.418670 5.499716 -0.438162
v -0.538272 4.168883 0.390103
v -0.571388 4.168883 -0.340340
v -0.021396 4.168883 -0.368647
v 0.011872 4.168883 0.365161
v -0.466195 4.168883 -0.348482
v -0.145261 4.168883 0.372285
v -0.794389 5.503505 0.455261
v -0.773223 5.511845 -0.086601
v -0.025193 5.196908 -0.452380
v 0.015702 5.196908 0.449644
v -0.400668 5.229192 -0.433901
v -0.123123 5.196908 0.507593
v -0.586413 3.749936 0.476942
v -0.627174 3.749936 -0.422135
v -0.024808 3.749936 -0.443888
v 0.015451 3.749936 0.444100
v -0.424648 3.749936 -0.431316
v -0.383887 3.749936 0.467760
v -0.394836 0.560910 0.338140
v -0.707656 0.560910 0.352323
v -0.776366 0.560910 -0.253368
v -0.381215 0.560910 -0.271283
v -0.973356 0.005130 -0.378022
v -0.293737 0.005130 -0.408834
v -1.003926 5.728158 0.040009
v -0.009543 5.846907 -0.107186
v -0.014643 3.268855 -0.219686
v -0.212082 5.846907 -0.055452
v -0.134429 3.246908 -0.219243
v -0.743163 4.168883 -0.149566
v -0.772806 5.363021 0.040431
v -0.814047 3.885151 -0.188431
v -0.267755 0.560910 -0.115960
v -0.283547 0.005130 -0.184065
v -0.814047 3.614853 -0.188431
v -0.875306 0.560910 -0.088416
v -0.963166 0.005130 -0.153253
v -0.793667 3.614853 0.261107
v -0.860786 0.560910 0.231858
v -0.942785 0.005130 0.296285
v -0.992991 5.741606 0.315496
v 0.009738 5.846907 0.318101
v 0.005738 3.268855 0.229853
v -0.209460 5.854572 0.284851
v -0.114048 3.246908 0.230296
v -0.726605 4.168883 0.215655
v -0.760372 5.364752 0.315864
v -0.793667 3.885151 0.261107
v -0.253235 0.560910 0.204314
v -0.263167 0.005130 0.265473
v 0.009738 6.288617 0.318101
v -0.009543 6.288617 -0.107186
v -0.196652 6.288617 0.284906
v -0.212082 6.288617 -0.055452
v -0.647996 2.045470 0.145037
v -0.420446 2.045470 0.134720
v -0.702180 2.045470 -0.388275
v -0.414742 2.045470 -0.401306
v -0.773371 2.045470 -0.251105
v -0.331430 2.045470 -0.271141
v -0.319310 2.045470 -0.003807
v -0.761251 2.045470 0.016229
v -1.252648 5.005372 0.417832
v -1.042319 4.937432 0.419951
v -1.257104 4.992897 0.036235
v -1.046957 4.923728 0.038353
v -1.404009 5.047796 0.130134
v -0.888800 4.893555 0.135283
v -0.887095 4.900195 0.326082
v -1.401719 5.054009 0.320933
v -0.783608 0.012476 0.591103
v -0.395014 0.012476 0.573486
v -0.397870 0.227686 -1.134906
v -0.539655 0.179886 -1.266518
v -0.539655 0.005129 -1.266518
v -0.387024 0.005129 -1.135427
v -0.946199 0.005129 -1.110076
v -0.806057 0.005129 -1.254440
v -0.806057 0.179886 -1.254440
v -0.935351 0.227685 -1.110539
v -0.427979 7.368960 0.599213
v -0.427979 6.368960 0.599213
v -0.469646 7.368960 -0.319843
v -0.427788 6.162340 -0.321741
v -0.242113 6.296028 0.657953
v 0.026124 6.259392 0.679531
v -0.490512 7.165610 0.669215
v -0.521924 6.868960 0.704378
v -0.490512 6.572311 0.669215
v -0.538257 7.165610 -0.383900
v -0.572721 6.868960 -0.416076
v -0.538257 6.572311 -0.383900
v -0.289858 7.441893 -0.395162
v -0.024673 7.478528 -0.440923
v -0.502024 7.441893 0.415296
v -0.547323 7.478528 0.144151
v -0.526745 7.441893 -0.129980
v -0.024673 6.052772 -0.440923
v -0.254426 6.089406 -0.396768
v 0.026124 7.478528 0.679531
v -0.242113 7.441893 0.657953
v -0.526745 6.257744 -0.129980
v -0.547323 6.259392 0.144151
v -0.502024 6.296028 0.415296
v -0.270351 7.597950 0.422757
v 0.014607 7.650789 0.425479
v -0.298793 7.650789 0.132883
v 0.000726 7.708466 0.119304
v -0.296697 7.597950 -0.158375
v -0.013155 7.650789 -0.186871
v -0.313899 6.552804 -0.537792
v -0.329586 6.868960 -0.546318
v -0.313899 7.185117 -0.537792
v -0.036288 6.535820 -0.697104
v -0.032470 6.868960 -0.612906
v -0.031851 7.202101 -0.599240
v 0.014607 6.087131 0.425479
v -0.270351 6.139971 0.422757
v 0.000726 6.029455 0.119304
v -0.298793 6.087131 0.132883
v -0.013155 6.048848 -0.186871
v -0.296697 6.101687 -0.158375
v -0.641519 6.552804 0.439585
v -0.688317 6.868960 0.457347
v -0.641519 7.185117 0.439585
v -0.702198 6.535820 0.151172
v -0.754055 6.868960 0.153523
v -0.702198 7.202101 0.151172
v -0.667865 6.552804 -0.141548
v -0.716079 6.868960 -0.155002
v -0.667865 7.185117 -0.141548
v 0.033302 6.535820 0.837849
v 0.035705 6.868960 0.890858
v 0.033302 7.202100 0.837849
v -0.253149 6.552804 0.802174
v -0.266217 6.868960 0.851428
v -0.253149 7.185117 0.802174
v -1.518677 4.247341 0.468184
v -1.295459 4.207532 0.470349
v -1.678755 4.272534 0.371246
v -1.298330 4.195160 0.088719
v -1.519452 4.234457 0.086590
v -1.138749 4.168860 0.185710
v -1.292468 4.194238 0.092269
v -1.679142 4.266092 0.180449
v -1.142821 4.175689 0.376484
v -1.137159 4.176178 -0.073614
v -1.678119 4.267471 -0.078505
v -1.135739 4.199786 0.625611
v -1.676699 4.291079 0.620719
v -1.302190 3.466596 -0.026721
v -1.629685 3.344976 -0.018076
v -1.300770 3.490204 0.672504
v -1.628265 3.368584 0.681149
v -1.423600 3.844593 0.649500
v -1.768612 3.821120 0.651741
v -1.425020 3.820986 -0.049724
v -1.770032 3.797513 -0.047483
v -1.375032 3.904521 0.645470
v -1.754524 3.876803 -0.052717
v -1.753105 3.900410 0.646507
v -1.376452 3.880913 -0.053755
v -0.979013 3.650568 -0.197056
v -1.177161 3.643233 -0.259467
v -1.187106 3.642994 -0.138540
v -0.990967 3.628531 -0.106190
v -1.094798 4.074601 -0.211522
v -1.473413 4.101373 -0.243208
v -1.249566 3.832175 -0.113620
v -1.485906 3.855426 -0.149700
v -1.407638 4.221825 -0.076060
v -1.406219 4.245432 0.623165
v -1.464517 3.429394 0.676826
v -1.465938 3.405787 -0.022398
v -1.597526 3.809249 -0.048604
v -1.596106 3.832857 0.650621
v -1.564069 3.902466 0.645988
v -1.565489 3.878858 -0.053236
v -1.078087 3.646901 -0.228262
v -1.089036 3.635763 -0.122365
v -1.367736 3.843801 -0.131660
v -1.284105 4.087987 -0.227365
v -1.136618 4.185149 0.192103
v -1.677579 4.276442 0.187211
v -1.301650 3.475567 0.238996
v -1.629145 3.353947 0.247640
v -1.769492 3.806484 0.218233
v -1.424480 3.829957 0.215992
v -1.375913 3.889884 0.211962
v -1.753985 3.885774 0.212999
v -1.465398 3.414757 0.243318
v -1.407099 4.230796 0.189657
v 0.655322 3.419313 -0.480279
v 0.827186 5.676224 -0.164283
v 0.650035 3.419313 0.420886
v 0.841704 5.663889 0.375925
v 0.157540 5.847312 0.443247
v 0.213299 3.340126 -0.460239
v 0.302291 3.340126 0.484896
v 0.372270 5.504216 -0.474888
v 0.562016 4.168883 0.340219
v 0.528900 4.168883 -0.390224
v 0.423402 4.168883 -0.388813
v 0.169005 4.168883 0.358037
v 0.817029 5.500720 0.375515
v 0.755191 5.517165 -0.163035
v 0.352780 5.232675 -0.470874
v 0.159201 5.196908 0.494793
v 0.617818 3.749936 0.422346
v 0.577057 3.749936 -0.476730
v 0.374531 3.749936 -0.467548
v 0.415292 3.749936 0.431528
v 0.414467 0.560910 0.301450
v 0.727287 0.560910 0.287267
v 0.740907 0.560910 -0.322156
v 0.345757 0.560910 -0.304241
v 0.925810 0.005129 -0.464124
v 0.246191 0.005129 -0.433312
v 1.003161 5.730062 -0.035362
v 0.196848 5.846907 -0.073991
v 0.104691 3.246908 -0.230084
v 0.717233 4.168883 -0.215776
v 0.763524 5.365521 -0.035918
v 0.784310 3.885151 -0.260895
v 0.246817 0.560910 -0.139289
v 0.256381 0.005129 -0.208543
v 0.784310 3.614853 -0.260895
v 0.854368 0.560910 -0.166833
v 0.936000 0.005129 -0.239355
v 0.804691 3.614853 0.188643
v 0.868888 0.560910 0.153441
v 0.956381 0.005129 0.210184
v 0.999055 5.726532 0.239954
v 0.225385 5.854353 0.266425
v 0.125072 3.246908 0.219455
v 0.733791 4.168883 0.149445
v 0.773509 5.364869 0.239491
v 0.804691 3.885151 0.188643
v 0.261337 0.560910 0.180985
v 0.276762 0.005129 0.240995
v 0.212278 6.288617 0.266367
v 0.196847 6.288617 -0.073991
v 0.649114 2.045470 0.086230
v 0.421565 2.045470 0.096546
v 0.654818 2.045470 -0.449796
v 0.367380 2.045470 -0.436765
v 0.738130 2.045470 -0.319631
v 0.296189 2.045470 -0.299595
v 0.308309 2.045470 -0.032261
v 0.750250 2.045470 -0.052297
v 1.220615 4.979513 0.243638
v 1.006452 4.917029 0.241405
v 1.216891 4.992097 -0.137956
v 1.003649 4.928501 -0.140188
v 1.368483 5.036719 -0.040973
v 0.846276 4.895551 -0.046391
v 0.847300 4.889511 0.144406
v 1.370363 5.030413 0.149824
v 0.824533 0.012475 0.518196
v 0.435940 0.012476 0.535814
v 0.284196 0.227686 -1.165829
v 0.413490 0.179885 -1.309730
v 0.413490 0.005129 -1.309730
v 0.273348 0.005129 -1.165366
v 0.832523 0.005129 -1.190717
v 0.679892 0.005129 -1.321808
v 0.679892 0.179885 -1.321808
v 0.821678 0.227685 -1.190196
v 0.471098 7.368960 0.558452
v 0.471098 6.368960 0.558452
v 0.429431 7.368960 -0.360605
v 0.387572 6.162340 -0.358707
v 0.291309 6.296028 0.633770
v 0.539708 7.165610 0.622508
v 0.574173 6.868960 0.654685
v 0.539708 6.572311 0.622508
v 0.491964 7.165610 -0.430607
v 0.523375 6.868960 -0.465770
v 0.491964 6.572311 -0.430607
v 0.243564 7.441893 -0.419345
v 0.528197 7.441893 0.368589
v 0.548774 7.478528 0.094457
v 0.503476 7.441893 -0.176687
v 0.208133 6.089406 -0.417739
v 0.291309 7.441893 0.633770
v 0.503476 6.257744 -0.176687
v 0.548774 6.259392 0.094457
v 0.528197 6.296028 0.368589
v 0.298148 7.597950 0.396983
v 0.300245 7.650789 0.105725
v 0.271802 7.597950 -0.184149
v 0.254600 6.552804 -0.563565
v 0.269452 6.868960 -0.573476
v 0.254600 7.185117 -0.563565
v 0.298148 6.139971 0.396983
v 0.300245 6.087131 0.105725
v 0.271802 6.101687 -0.184149
v 0.669317 6.552804 0.380156
v 0.717531 6.868960 0.393611
v 0.669317 7.185117 0.380156
v 0.703650 6.535820 0.087436
v 0.755506 6.868960 0.085085
v 0.703650 7.202101 0.087436
v 0.642970 6.552804 -0.200976
v 0.689769 6.868960 -0.218739
v 0.642970 7.185117 -0.200976
v 0.315350 6.552804 0.776400
v 0.332821 6.868960 0.824270
v 0.315350 7.185117 0.776400
v 1.451532 4.215828 0.193272
v 1.226762 4.180678 0.191013
v 1.612472 4.244130 0.099480
v 1.228809 4.194074 -0.190542
v 1.451427 4.228748 -0.188321
v 1.068030 4.164640 -0.096807
v 1.222915 4.193038 -0.187107
v 1.612419 4.250590 -0.091317
v 1.072588 4.158480 0.094013
v 1.066785 4.189476 -0.354052
v 1.611210 4.269463 -0.348938
v 1.066976 4.165801 0.345169
v 1.611401 4.245787 0.350284
v 1.203043 3.476760 -0.400988
v 1.525480 3.348371 -0.409524
v 1.203233 3.453084 0.298234
v 1.525671 3.324695 0.289697
v 1.340347 3.804764 0.321338
v 1.684265 3.774115 0.319227
v 1.340156 3.828440 -0.377884
v 1.684073 3.797791 -0.379995
v 1.294224 3.865677 0.325359
v 1.671780 3.877370 -0.374755
v 1.671971 3.853695 0.324467
v 1.294034 3.889353 -0.373863
v 0.887296 3.678023 -0.545267
v 1.085006 3.670836 -0.609088
v 1.095049 3.662230 -0.488766
v 0.898438 3.649712 -0.457737
v 1.020198 4.098577 -0.504508
v 1.399708 4.119524 -0.533932
v 1.165171 3.847518 -0.439387
v 1.402319 3.868201 -0.473124
v 1.338997 4.229469 -0.351495
v 1.339188 4.205794 0.347727
v 1.364452 3.388889 0.293966
v 1.364262 3.412565 -0.405256
v 1.512115 3.813115 -0.378939
v 1.512306 3.789440 0.320282
v 1.483098 3.859686 0.324913
v 1.482907 3.883361 -0.374309
v 0.986151 3.674430 -0.577178
v 0.996744 3.655971 -0.473251
v 1.283745 3.857860 -0.456255
v 1.209952 4.109051 -0.519220
v 1.066857 4.180479 -0.088337
v 1.611282 4.260466 -0.083222
v 1.203115 3.467763 -0.135272
v 1.525552 3.339374 -0.143809
v 1.684146 3.788794 -0.114279
v 1.340228 3.819442 -0.112168
v 1.294106 3.880356 -0.108148
v 1.671853 3.868373 -0.109039
v 1.364334 3.403568 -0.139541
v 1.339070 4.220472 -0.085780
vn 0.0449 0.1364 0.9896
vn -0.0417 0.0787 0.9960
vn 0.0341 0.7310 -0.6816
vn -0.0505 -0.0155 -0.9986
vn -0.7039 -0.0580 -0.7079
vn -0.1889 0.7456 -0.6391
vn 0.1582 -0.8729 -0.4615
vn 0.3841 0.0747 0.9203
vn 0.0581 0.1903 0.9800
vn -0.0444 0.1971 -0.9794
vn -0.0309 0.1769 -0.9837
vn -0.6929 0.2260 -0.6848
vn 0.0444 0.1979 0.9792
vn 0.0451 -0.0820 0.9956
vn -0.0769 -0.0753 -0.9942
vn -0.0452 -0.0774 -0.9960
vn -0.7403 0.0877 -0.6666
vn 0.0449 -0.1313 0.9903
vn -0.0724 0.0834 0.9939
vn -0.8172 0.1876 -0.5450
vn 0.0375 -0.0347 -0.9987
vn -0.0453 -0.0000 -0.9990
vn 0.1066 0.0876 0.9904
vn -0.9448 0.3238 0.0494
vn 0.0020 0.0656 0.9978
vn -0.4787 0.2244 0.8488
vn -0.0020 -0.0655 -0.9978
vn 0.4790 -0.2239 -0.8488
vn -0.4668 0.2560 0.8465
vn -0.7431 0.1447 0.6534
vn -0.0451 -0.0882 -0.9951
vn 0.8419 -0.0282 -0.5389
vn -0.0163 0.9329 -0.3597
vn -0.6083 0.1794 0.7732
vn 0.6853 0.0675 0.7251
vn 0.8065 0.0493 -0.5891
vn 0.9806 0.1758 -0.0867
vn -0.4862 0.1154 -0.8662
vn -0.8876 0.0025 -0.4607
vn -0.8416 0.1919 -0.5048
vn -0.9875 0.1509 0.0448
vn -0.9963 0.0734 0.0452
vn -0.9427 0.3336 -0.0094
vn -0.9990 -0.0000 0.0453
vn 0.1802 -0.9836 -0.0082
vn -0.1442 0.9886 -0.0425
vn -0.1498 0.0043 0.9887
vn 0.0308 0.9992 0.0272
vn -0.1036 0.8559 0.5067
vn 0.1674 -0.9057 0.3895
vn -0.6278 0.2265 0.7447
vn -0.6773 -0.0804 0.7313
vn -0.7424 0.0753 0.6657
vn 0.5023 -0.1177 0.8567
vn 0.8020 0.1178 0.5855
vn 0.9987 -0.0228 -0.0453
vn -0.0000 -1.0000 -0.0000
vn 0.9982 0.0381 -0.0453
vn 0.9456 -0.3239 0.0318
vn -0.9985 -0.0320 0.0453
vn -0.9706 0.2365 0.0440
vn -0.0000 1.0000 -0.0000
vn -0.2475 -0.0000 -0.9689
vn -1.0000 -0.0000 0.0077
vn 0.9861 -0.1598 -0.0447
vn 0.8136 -0.2493 0.5253
vn -0.9986 -0.0277 0.0453
vn -0.9065 -0.0066 -0.4221
vn 0.8348 -0.1131 -0.5389
vn -0.0492 -0.0221 -0.9985
vn -0.8185 -0.1050 0.5648
vn -0.1401 -0.2307 0.9629
vn 0.9637 -0.2638 -0.0418
vn 0.8694 -0.2275 0.4386
vn -0.8595 0.5110 0.0092
vn -0.5387 0.1897 -0.8208
vn 0.7220 -0.4481 -0.5273
vn -0.2429 -0.0921 -0.9657
vn -0.5501 0.3022 0.7785
vn -0.1002 -0.0182 0.9948
vn 0.6515 -0.0000 -0.7586
vn -0.7377 0.0346 -0.6743
vn -0.0148 0.9448 -0.3272
vn -0.1771 0.9650 0.1933
vn -0.1938 0.9650 -0.1765
vn -0.4991 0.7177 0.4856
vn -0.1563 0.8143 0.5590
vn -0.2063 0.8143 -0.5426
vn -0.5410 0.7177 -0.4384
vn -0.5678 0.8093 -0.1508
vn -0.5518 0.8093 0.2015
vn -0.4753 0.2207 -0.8517
vn -0.2185 0.0371 -0.9751
vn -0.4847 -0.3110 -0.8175
vn -0.5679 -0.0503 -0.8216
vn -0.4669 0.1488 -0.8717
vn -0.5393 0.4131 -0.7338
vn -0.2137 0.4896 -0.8454
vn -0.2377 -0.4596 -0.8557
vn -0.1808 -0.9650 0.1900
vn -0.1881 -0.9807 -0.0536
vn -0.1562 -0.8142 0.5592
vn -0.4496 -0.7185 0.5307
vn -0.5517 -0.8093 0.2017
vn -0.5646 -0.8241 -0.0452
vn -0.3961 -0.9179 -0.0229
vn -0.1590 -0.9873 -0.0080
vn -0.9654 -0.1518 0.2121
vn -0.9656 0.1547 0.2089
vn -0.9806 -0.1518 -0.1238
vn -0.9806 0.1547 -0.1207
vn -0.7501 -0.4531 0.4817
vn -0.8198 -0.1524 0.5520
vn -0.8197 0.1522 0.5521
vn -0.7457 0.4101 0.5252
vn -0.8512 0.4821 0.2075
vn -0.8665 0.4821 -0.1296
vn -0.7901 0.4101 -0.4556
vn -0.8663 0.1522 -0.4757
vn -0.8664 -0.1524 -0.4756
vn -0.9014 -0.2914 -0.3202
vn -0.8992 -0.4326 -0.0649
vn -0.8512 -0.4822 0.2073
vn -0.1311 -0.1549 0.9792
vn -0.1279 0.1578 0.9792
vn -0.1363 0.4896 0.8612
vn -0.4707 0.4131 0.7796
vn -0.4926 0.1537 0.8566
vn -0.4925 -0.1538 0.8566
vn -0.4261 -0.4569 0.7809
vn -0.1362 -0.4897 0.8612
vn 0.0416 0.3940 0.9182
vn -0.1752 -0.9840 0.0336
vn 0.1666 0.9855 -0.0336
vn 0.0020 0.0655 0.9979
vn 0.3487 -0.9367 0.0309
vn 0.0863 0.0423 -0.9954
vn 0.9450 0.3267 -0.0129
vn -0.9815 0.1917 -0.0045
vn -0.9553 -0.2955 0.0119
vn 0.7774 -0.6287 0.0196
vn -0.0020 -0.0655 -0.9979
vn -0.0550 -0.9924 -0.1101
vn 0.3725 0.1331 0.9184
vn -0.5775 -0.8149 -0.0491
vn -0.1734 -0.1891 0.9665
vn -0.1183 -0.9829 0.1412
vn -0.3442 -0.3183 -0.8833
vn 0.6582 -0.4953 0.5670
vn 0.1396 0.7955 -0.5897
vn 0.1367 0.7774 -0.6140
vn -0.1512 -0.8989 0.4113
vn -0.1732 -0.1846 0.9674
vn -0.0321 -0.9704 -0.2395
vn 0.0896 0.0931 -0.9916
vn 0.1666 0.9854 -0.0336
vn 0.1426 0.0786 0.9867
vn 0.1183 0.6668 -0.7358
vn -0.0450 -0.0115 -0.9989
vn 0.6115 -0.2826 -0.7391
vn 0.1458 0.8263 -0.5441
vn -0.1993 -0.8729 -0.4453
vn 0.0451 -0.0000 0.9990
vn 0.0445 0.1853 0.9817
vn -0.0445 0.1895 -0.9809
vn 0.6548 0.2672 -0.7070
vn 0.5907 0.0367 -0.8061
vn -0.0451 -0.0798 -0.9958
vn 0.6772 0.0837 -0.7311
vn 0.1620 0.0834 0.9833
vn 0.7213 -0.0000 -0.6926
vn -0.0591 0.0055 -0.9982
vn -0.0165 0.0876 0.9960
vn 0.9454 0.3238 -0.0363
vn 0.0088 -0.0657 0.9978
vn 0.5048 0.0961 0.8579
vn -0.0003 0.0657 -0.9978
vn -0.4892 -0.0905 -0.8675
vn 0.4941 0.0343 0.8687
vn 0.7992 0.1447 0.5834
vn -0.8573 -0.0270 -0.5142
vn 0.8766 0.3103 0.3678
vn -0.8696 0.1648 0.4654
vn -0.8565 0.0493 -0.5138
vn -0.9981 0.0486 -0.0370
vn 0.4846 0.2048 -0.8504
vn 0.8423 0.0025 -0.5391
vn 0.9447 0.3252 -0.0428
vn 0.9875 0.1509 -0.0448
vn 0.9963 0.0734 -0.0452
vn 0.9558 0.2937 0.0097
vn 0.9990 -0.0000 -0.0453
vn -0.1802 -0.9836 0.0082
vn 0.1635 0.9864 0.0151
vn 0.2328 0.0072 0.9725
vn -0.0028 1.0000 0.0001
vn 0.2693 0.9526 0.1413
vn -0.1289 -0.9056 0.4041
vn 0.6926 0.2265 0.6849
vn 0.9746 -0.1832 -0.1289
vn 0.7996 0.0753 0.5958
vn -0.4985 -0.2116 0.8407
vn -0.6145 0.1107 0.7811
vn -0.9987 -0.0228 0.0453
vn -0.9982 0.0381 0.0453
vn -0.9566 -0.2911 0.0134
vn 0.9989 -0.0304 -0.0363
vn 0.9706 0.2365 -0.0440
vn 0.1588 -0.0000 -0.9873
vn 0.9965 -0.0000 -0.0835
vn -0.9861 -0.1598 0.0447
vn -0.7627 -0.2493 0.5968
vn 0.9986 -0.0277 -0.0453
vn 0.8422 -0.0123 -0.5390
vn -0.8818 -0.1141 -0.4576
vn -0.0453 -0.0235 -0.9987
vn 0.8663 -0.1050 0.4884
vn 0.2267 -0.2307 0.9463
vn -0.9864 -0.1602 0.0354
vn -0.4473 -0.3356 0.8290
vn 0.8847 0.4661 0.0067
vn 0.5166 0.2629 -0.8149
vn -0.5001 -0.0688 -0.8632
vn 0.0354 -0.0238 -0.9991
vn 0.4881 0.1490 0.8600
vn 0.0390 -0.1688 0.9849
vn -0.7175 -0.0000 -0.6965
vn 0.1972 0.9650 0.1728
vn 0.1771 0.9650 -0.1933
vn 0.4958 0.7185 0.4878
vn 0.2061 0.8142 0.5427
vn 0.1563 0.8143 -0.5590
vn 0.4991 0.7177 -0.4856
vn 0.5518 0.8093 -0.2015
vn 0.5676 0.8093 0.1509
vn 0.1294 -0.0371 -0.9909
vn 0.1294 0.0371 -0.9909
vn 0.4874 -0.2697 -0.8305
vn 0.3861 -0.1488 -0.9104
vn 0.3861 0.1488 -0.9104
vn 0.4707 0.4131 -0.7796
vn 0.1363 0.4896 -0.8612
vn 0.4115 -0.3109 -0.8568
vn 0.1972 -0.9650 0.1728
vn 0.1857 -0.9803 -0.0674
vn 0.2061 -0.8142 0.5427
vn 0.4958 -0.7185 0.4878
vn 0.5676 -0.8093 0.1509
vn 0.5646 -0.8205 -0.0893
vn 0.5551 -0.8279 0.0805
vn 0.1823 -0.9832 0.0020
vn 0.9806 -0.1547 0.1207
vn 0.9806 0.1547 0.1207
vn 0.9654 -0.1518 -0.2121
vn 0.9654 0.1518 -0.2120
vn 0.7901 -0.4101 0.4556
vn 0.8663 -0.1522 0.4757
vn 0.8663 0.1522 0.4757
vn 0.7901 0.4101 0.4556
vn 0.8665 0.4821 0.1296
vn 0.8512 0.4822 -0.2074
vn 0.7501 0.4531 -0.4817
vn 0.8198 0.1524 -0.5520
vn 0.8198 -0.1524 -0.5520
vn 0.7505 -0.3982 -0.5274
vn 0.8512 -0.4822 -0.2075
vn 0.8665 -0.4821 0.1296
vn 0.2192 -0.1549 0.9633
vn 0.2192 0.1549 0.9633
vn 0.2135 0.4897 0.8453
vn 0.4950 0.4569 0.7391
vn 0.5680 0.1538 0.8085
vn 0.5680 -0.1538 0.8085
vn 0.4950 -0.4569 0.7391
vn 0.2135 -0.4897 0.8453
vn 0.1541 -0.9875 -0.0334
vn -0.1456 0.9888 0.0335
vn 0.0003 -0.0657 0.9978
vn -0.3705 -0.9283 -0.0313
vn -0.0857 0.1749 -0.9808
vn -0.9319 0.3625 0.0125
vn 0.9883 0.1524 0.0049
vn 0.9432 -0.3321 -0.0115
vn -0.7977 -0.6027 -0.0202
vn 0.0345 -0.9834 -0.1782
vn -0.3703 0.0270 0.9285
vn 0.4885 -0.2004 -0.8492
vn 0.1604 -0.3104 0.9370
vn -0.0308 -0.9839 0.1761
vn 0.5919 0.1437 -0.7931
vn -0.6602 -0.5347 0.5275
vn -0.1197 0.8478 -0.5166
vn -0.1173 0.8328 -0.5409
vn -0.0287 -0.9325 0.3600
vn 0.1602 -0.3068 0.9382
vn 0.0118 -0.9510 -0.3091
vn -0.0876 0.2240 -0.9706
vn 0.9883 0.1523 0.0049
vn -0.0022 0.0019 1.0000
vn -0.1844 0.6668 -0.7221
vn -0.0483 -0.0189 -0.9987
vn -0.6815 -0.2758 -0.6778
vn -0.2001 0.7770 -0.5969
vn 0.1560 -0.8727 -0.4626
vn -0.0758 0.1862 -0.9796
vn -0.7161 0.2672 -0.6448
vn 0.3820 -0.1287 0.9152
vn -0.6644 0.0411 -0.7462
vn -0.0560 -0.0813 -0.9951
vn -0.9828 -0.1214 -0.1390
vn -0.1090 -0.0693 0.9916
vn 0.0453 -0.0000 0.9990
vn -0.7810 -0.0000 -0.6245
vn -0.0314 0.0055 -0.9995
vn 0.0587 0.1206 0.9910
vn 0.0110 0.0651 0.9978
vn -0.4786 0.2244 0.8489
vn -0.0114 -0.0651 -0.9978
vn 0.4779 -0.2239 -0.8494
vn -0.6128 0.1334 0.7789
vn 0.8072 -0.0270 -0.5897
vn -0.8397 0.3103 0.4456
vn 0.9082 0.1648 0.3848
vn 0.9851 0.1661 -0.0447
vn 0.9907 0.0486 -0.1272
vn -0.5034 0.1173 -0.8561
vn -0.8576 0.0025 -0.5144
vn -0.9447 0.3252 0.0428
vn -0.9433 0.3320 0.0005
vn -0.1508 0.9883 -0.0211
vn -0.1588 -0.0000 0.9873
vn 0.0030 1.0000 -0.0001
vn -0.2303 0.9611 0.1527
vn 0.1649 -0.9056 0.3907
vn -0.6547 0.2680 0.7068
vn -0.9811 -0.1856 -0.0547
vn -0.7213 -0.0000 0.6926
vn 0.4944 -0.1120 0.8620
vn 0.6826 0.1107 0.7223
vn 0.0011 -0.9997 0.0243
vn 0.9430 -0.3326 0.0032
vn -0.9985 0.0295 0.0453
vn 0.7830 -0.2452 0.5717
vn -0.8875 -0.0123 -0.4606
vn 0.8368 -0.1141 -0.5356
vn -0.7433 -0.1427 0.6536
vn 0.0434 -0.2834 0.9580
vn 0.9708 -0.2399 -0.0003
vn 0.4555 -0.2528 0.8536
vn -0.8623 0.5063 -0.0061
vn -0.4844 0.1712 -0.8579
vn 0.4611 -0.2838 -0.8407
vn -0.0406 -0.1535 -0.9873
vn -0.4578 0.2788 0.8442
vn -0.0231 -0.0404 0.9989
vn 0.6736 0.0346 -0.7383
vn -0.1807 0.9650 0.1900
vn -0.1972 0.9650 -0.1728
vn -0.4496 0.7185 0.5307
vn -0.1562 0.8142 0.5592
vn -0.2061 0.8142 -0.5427
vn -0.4958 0.7185 -0.4878
vn -0.5676 0.8093 -0.1509
vn -0.5517 0.8093 0.2017
vn -0.2185 -0.0371 -0.9751
vn -0.2150 0.0404 -0.9758
vn -0.5605 -0.2697 -0.7830
vn -0.4669 -0.1488 -0.8717
vn -0.5679 0.0503 -0.8216
vn -0.4950 0.4569 -0.7391
vn -0.2135 0.4897 -0.8453
vn -0.4873 -0.3109 -0.8160
vn -0.1771 -0.9650 0.1933
vn -0.1910 -0.9803 -0.0504
vn -0.1563 -0.8143 0.5590
vn -0.4991 -0.7177 0.4856
vn -0.5518 -0.8093 0.2015
vn -0.5704 -0.8205 -0.0379
vn -0.5455 -0.8279 0.1304
vn -0.1814 -0.9832 0.0185
vn -0.9656 -0.1547 0.2089
vn -0.9654 0.1518 0.2121
vn -0.9806 -0.1547 -0.1207
vn -0.9806 0.1518 -0.1238
vn -0.7457 -0.4101 0.5252
vn -0.8197 -0.1522 0.5521
vn -0.8198 0.1524 0.5520
vn -0.7501 0.4531 0.4817
vn -0.8512 0.4822 0.2073
vn -0.8665 0.4822 -0.1295
vn -0.7906 0.4531 -0.4118
vn -0.8664 0.1524 -0.4756
vn -0.8663 -0.1522 -0.4757
vn -0.7952 -0.3982 -0.4573
vn -0.8664 -0.4822 -0.1296
vn -0.8512 -0.4821 0.2075
vn -0.1279 -0.1578 0.9792
vn -0.1311 0.1549 0.9792
vn -0.1362 0.4897 0.8612
vn -0.4261 0.4569 0.7809
vn -0.4925 0.1538 0.8566
vn -0.4926 -0.1537 0.8566
vn -0.4707 -0.4131 0.7796
vn -0.1363 -0.4896 0.8612
vn -0.1813 -0.9829 0.0313
vn -0.1846 -0.9823 0.0331
vn -0.1758 -0.9839 0.0332
vn 0.2984 0.0490 -0.9532
vn 0.0367 -0.9993 0.0010
vn 0.5923 0.7617 0.2627
vn -0.4903 -0.2879 -0.8226
vn -0.1659 -0.1824 0.9691
vn 0.0112 -0.9695 0.2448
vn -0.5940 0.0632 -0.8020
vn 0.4485 0.0734 0.8908
vn 0.1053 0.8159 -0.5686
vn 0.1065 0.7863 -0.6086
vn 0.0110 -0.9023 0.4311
vn -0.1656 -0.1786 0.9699
vn 0.0675 -0.9930 -0.0975
vn 0.2928 0.1387 -0.9460
vn 0.0935 -0.0166 0.9955
vn -0.1047 0.7328 -0.6723
vn -0.0474 -0.0155 -0.9988
vn 0.6316 -0.0568 -0.7732
vn 0.1235 0.7804 -0.6130
vn -0.1972 -0.8727 -0.4466
vn -0.2993 0.0746 0.9512
vn 0.0309 0.1903 0.9812
vn -0.0131 0.1862 -0.9824
vn -0.0582 0.1769 -0.9825
vn 0.6281 0.2260 -0.7446
vn -0.2976 -0.1287 0.9460
vn -0.0133 -0.0778 -0.9969
vn -0.0410 -0.0813 -0.9958
vn 0.9685 -0.1264 -0.2143
vn 0.2073 -0.0656 0.9761
vn 0.7645 0.1876 -0.6167
vn -0.1277 -0.0347 -0.9912
vn 0.0312 0.1206 0.9922
vn 0.4887 0.0950 0.8673
vn -0.0091 0.0656 -0.9978
vn -0.4958 -0.0908 -0.8637
vn 0.6807 0.1334 0.7203
vn -0.8872 -0.0282 -0.4605
vn 0.6757 0.1794 0.7150
vn -0.6169 0.0675 0.7842
vn -0.9851 0.1661 0.0447
vn -0.9844 0.1758 0.0023
vn 0.4840 0.2048 -0.8508
vn 0.8075 0.0025 -0.5899
vn 0.7925 0.1919 -0.5789
vn 0.9551 0.2963 0.0004
vn 0.1449 0.9889 -0.0338
vn 0.2475 -0.0000 0.9689
vn -0.0275 0.9992 0.0292
vn 0.1541 0.8175 0.5549
vn -0.1314 -0.9057 0.4030
vn 0.7160 0.2680 0.6447
vn 0.7411 -0.0748 0.6673
vn 0.7810 -0.0000 0.6245
vn -0.4838 -0.2030 0.8513
vn -0.7458 0.1178 0.6557
vn -0.9557 -0.2942 -0.0042
vn 0.9985 -0.0318 -0.0453
vn 0.9985 0.0301 -0.0453
vn -0.7281 -0.2452 0.6402
vn 0.8646 -0.0066 -0.5024
vn -0.8801 -0.1131 -0.4611
vn -0.0413 -0.0221 -0.9989
vn 0.7994 -0.1427 0.5836
vn -0.9849 -0.1734 -0.0002
vn -0.8370 -0.2293 0.4968
vn 0.8832 0.4686 0.0192
vn 0.4674 0.2531 -0.8470
vn -0.8438 -0.3712 -0.3875
vn 0.0187 -0.0278 -0.9994
vn 0.6005 0.1819 0.7787
vn 0.4300 -0.0673 0.9003
vn 0.1938 0.9650 0.1765
vn 0.1807 0.9650 -0.1900
vn 0.5410 0.7177 0.4384
vn 0.2063 0.8143 0.5426
vn 0.1562 0.8142 -0.5592
vn 0.4496 0.7185 -0.5307
vn 0.5517 0.8093 -0.2017
vn 0.5678 0.8093 0.1508
vn 0.3962 0.2207 -0.8912
vn 0.1258 0.0404 -0.9912
vn 0.4087 -0.3110 -0.8581
vn 0.4912 -0.0503 -0.8696
vn 0.4912 0.0503 -0.8696
vn 0.4261 0.4569 -0.7809
vn 0.1362 0.4897 -0.8612
vn 0.1593 -0.4596 -0.8737
vn 0.1938 -0.9650 0.1765
vn 0.1825 -0.9807 -0.0704
vn 0.2063 -0.8143 0.5426
vn 0.5410 -0.7177 0.4384
vn 0.5678 -0.8093 0.1508
vn 0.5582 -0.8241 -0.0962
vn 0.3924 -0.9179 -0.0587
vn 0.1576 -0.9873 -0.0224
vn 0.9806 -0.1518 0.1238
vn 0.9806 0.1518 0.1238
vn 0.9656 -0.1547 -0.2089
vn 0.9656 0.1547 -0.2089
vn 0.7906 -0.4531 0.4118
vn 0.8664 -0.1524 0.4756
vn 0.8664 0.1524 0.4756
vn 0.7906 0.4531 0.4118
vn 0.8665 0.4822 0.1295
vn 0.8512 0.4821 -0.2075
vn 0.7457 0.4101 -0.5252
vn 0.8197 0.1522 -0.5521
vn 0.8197 -0.1522 -0.5521
vn 0.8687 -0.2914 -0.4004
vn 0.8897 -0.4326 -0.1460
vn 0.8665 -0.4822 0.1295
vn 0.2159 -0.1578 0.9636
vn 0.2159 0.1578 0.9636
vn 0.2137 0.4896 0.8454
vn 0.5393 0.4131 0.7338
vn 0.5681 0.1537 0.8085
vn 0.5681 -0.1537 0.8085
vn 0.5393 -0.4131 0.7338
vn 0.2137 -0.4896 0.8454
vn 0.1541 -0.9875 -0.0335
vn 0.1547 -0.9874 -0.0338
vn 0.1633 -0.9860 -0.0339
vn 0.1601 -0.9865 -0.0357
vn -0.2959 0.1843 -0.9373
vn -0.0577 -0.9961 -0.0664
vn -0.5790 0.7513 0.3167
vn 0.5574 -0.8235 -0.1054
vn 0.1675 -0.3167 0.9336
vn 0.0970 -0.9926 0.0732
vn 0.3412 -0.2177 -0.9144
vn -0.4464 -0.0258 0.8944
vn -0.0861 0.8643 -0.4955
vn -0.0879 0.8400 -0.5355
vn 0.1296 -0.9315 0.3399
vn 0.1675 -0.3126 0.9350
vn -0.0891 -0.9822 -0.1654
vn -0.2868 0.2703 -0.9191
vt 0.250000 0.916563
vt 0.291641 0.916563
vt 0.083437 0.958204
vt 0.125078 0.916563
vt 0.125078 0.958204
vt 0.041796 0.791641
vt 0.000155 0.750000
vt 0.041796 0.750000
vt 0.125078 0.708359
vt 0.083437 0.666718
vt 0.125078 0.666718
vt 0.125078 0.750000
vt 0.083437 0.708359
vt 0.083437 0.750000
vt 0.083437 0.791641
vt 0.291641 0.791641
vt 0.333281 0.750000
vt 0.333281 0.791641
vt 0.125078 0.999845
vt 0.208359 0.999844
vt 0.166718 0.958204
vt 0.208359 0.958204
vt 0.166718 0.750000
vt 0.208359 0.708359
vt 0.208359 0.750000
vt 0.166718 0.666718
vt 0.208359 0.666718
vt 0.208359 0.791641
vt 0.166718 0.916563
vt 0.208359 0.916563
vt 0.166718 0.999845
vt 0.166718 0.708359
vt 0.125078 0.791641
vt 0.166718 0.791641
vt 0.250000 0.958204
vt 0.250000 0.791641
vt 0.250000 0.750000
vt 0.250000 0.708359
vt 0.250000 0.666718
vt 0.250000 0.999844
vt 0.083437 0.916563
vt 0.083437 0.874922
vt 0.125078 0.751492
vt 0.250000 0.874922
vt 0.291641 0.750000
vt 0.291641 0.750000
vt 0.291641 0.791641
vt 0.291641 0.874922
vt 0.291641 0.791641
vt 0.208359 0.874922
vt 0.291641 0.874922
vt 0.333281 0.874922
vt 0.041796 0.874922
vt 0.000155 0.874922
vt 0.041796 0.916563
vt 0.333281 0.916563
vt 0.125078 0.874922
vt 0.166718 0.874922
vt 0.000155 0.791641
vt 0.281716 0.750000
vt 0.259925 0.750000
vt 0.397843 0.666718
vt 0.333592 0.690540
vt 0.341546 0.700381
vt 0.365407 0.690540
vt 0.333282 0.063452
vt 0.250000 0.166718
vt 0.250000 0.063452
vt 0.333282 0.250000
vt 0.250000 0.333282
vt 0.250000 0.250000
vt 0.333282 0.436548
vt 0.250000 0.499845
vt 0.250000 0.436548
vt 0.166718 0.000155
vt 0.250000 0.000155
vt 0.166718 0.436548
vt 0.083437 0.499845
vt 0.083437 0.436548
vt 0.499845 0.436548
vt 0.430614 0.499845
vt 0.430614 0.436548
vt 0.416563 0.436548
vt 0.333282 0.499845
vt 0.069386 0.499845
vt 0.069386 0.436548
vt 0.333282 0.583126
vt 0.250000 0.583126
vt 0.333282 0.235949
vt 0.250000 0.235949
vt 0.333282 0.166718
vt 0.000155 0.499845
vt 0.000155 0.436548
vt 0.416563 0.499845
vt 0.333282 0.597177
vt 0.250000 0.597177
vt 0.250000 0.666408
vt 0.250000 0.597177
vt 0.069386 0.499845
vt 0.499845 0.499845
vt 0.250000 0.597177
vt 0.499845 0.499845
vt 0.333282 0.000155
vt 0.166718 0.597177
vt 0.166718 0.597177
vt 0.166718 0.666408
vt 0.166718 0.583126
vt 0.166718 0.235949
vt 0.166718 0.166718
vt 0.166718 0.250000
vt 0.166718 0.499845
vt 0.166718 0.333282
vt 0.166718 0.063452
vt 0.430614 0.333282
vt 0.416563 0.333282
vt 0.069386 0.333282
vt 0.000155 0.333282
vt 0.083437 0.333282
vt 0.333282 0.333282
vt 0.499845 0.333282
vt 0.083437 0.999845
vt 0.000155 0.916563
vt 0.397241 0.676570
vt 0.397532 0.676930
vt 0.397533 0.690540
vt 0.750000 0.166718
vt 0.833282 0.063452
vt 0.750000 0.063452
vt 0.750000 0.333282
vt 0.833282 0.250000
vt 0.750000 0.250000
vt 0.750000 0.499845
vt 0.833282 0.436548
vt 0.750000 0.436548
vt 0.750000 0.000155
vt 0.666718 0.000155
vt 0.583437 0.499845
vt 0.666718 0.436548
vt 0.583437 0.436548
vt 0.930614 0.499845
vt 0.999845 0.436548
vt 0.930614 0.436548
vt 0.833282 0.499845
vt 0.916563 0.436548
vt 0.569386 0.499845
vt 0.569386 0.436548
vt 0.833282 0.583126
vt 0.833282 0.235949
vt 0.750000 0.235949
vt 0.833282 0.166718
vt 0.500155 0.499845
vt 0.500155 0.436548
vt 0.916563 0.499845
vt 0.750000 0.583126
vt 0.833282 0.597177
vt 0.750000 0.666408
vt 0.750000 0.597177
vt 0.569386 0.499845
vt 0.999845 0.499845
vt 0.999845 0.499845
vt 0.750000 0.597177
vt 0.833282 0.000155
vt 0.666718 0.597177
vt 0.666718 0.597177
vt 0.666718 0.666408
vt 0.666718 0.583126
vt 0.666718 0.235949
vt 0.666718 0.166718
vt 0.666718 0.250000
vt 0.666718 0.499845
vt 0.666718 0.333282
vt 0.666718 0.063452
vt 0.930614 0.333282
vt 0.916563 0.333282
vt 0.569386 0.333282
vt 0.500155 0.333282
vt 0.583437 0.333282
vt 0.833282 0.333282
vt 0.999845 0.333282
vt 0.357453 0.700381
vt 0.365407 0.676930
vt 0.365116 0.676570
vt 0.357453 0.666718
vt 0.341546 0.666855
vt 0.333592 0.676696
vt 0.333282 0.666408
vt 0.389579 0.700381
vt 0.373671 0.700381
vt 0.365718 0.690540
vt 0.365718 0.676696
vt 0.373671 0.666855
vt 0.389579 0.666718
vt 0.833282 0.666408
s 0
usemtl Material
f 67/1/1 31/2/1 68/2/1
f 9/3/2 19/4/2 24/5/2
f 40/6/3 8/7/3 12/8/3
f 23/9/4 8/10/4 21/11/4
f 20/12/5 12/13/5 23/9/5
f 40/6/6 2/14/6 37/15/6
f 41/16/7 7/17/7 39/18/7
f 22/19/8 9/3/8 24/5/8
f 28/20/9 18/21/9 30/22/9
f 14/23/10 29/24/10 26/25/10
f 29/24/11 15/26/11 27/27/11
f 44/28/12 14/23/12 26/25/12
f 30/22/13 13/29/13 25/30/13
f 22/19/14 18/21/14 16/31/14
f 14/23/15 23/9/15 17/32/15
f 23/9/16 15/26/16 17/32/16
f 43/33/17 14/23/17 42/34/17
f 24/5/18 13/29/18 18/21/18
f 30/22/19 3/1/19 11/35/19
f 47/36/20 26/25/20 1/37/20
f 10/38/21 27/27/21 7/39/21
f 1/37/22 29/24/22 10/38/22
f 28/20/23 11/35/23 5/40/23
f 92/37/24 35/37/24 33/37/24
f 151/4/25 75/41/25 150/41/25
f 150/41/26 82/42/26 152/42/26
f 77/14/27 153/12/27 154/14/27
f 78/12/28 155/33/28 153/12/28
f 155/33/29 156/43/29 153/12/29
f 51/44/30 67/1/30 74/44/30
f 34/45/31 69/37/31 70/46/31
f 72/47/32 34/45/32 70/46/32
f 85/45/33 33/37/33 34/45/33
f 52/44/34 32/1/34 51/44/34
f 31/2/35 62/48/35 61/48/35
f 46/49/36 34/45/36 45/47/36
f 36/45/37 85/45/37 34/45/37
f 79/15/38 154/14/38 157/15/38
f 33/37/39 71/36/39 69/37/39
f 33/37/40 49/36/40 48/36/40
f 48/36/41 52/44/41 51/44/41
f 48/36/42 74/44/42 71/36/42
f 82/42/43 157/15/43 152/42/43
f 60/50/44 47/36/44 50/44/44
f 57/51/45 39/18/45 55/52/45
f 56/53/46 37/15/46 53/42/46
f 54/54/47 65/53/47 56/53/47
f 9/55/48 54/54/48 56/53/48
f 4/41/49 56/53/49 53/42/49
f 5/56/50 57/51/50 55/52/50
f 13/29/51 60/50/51 25/30/51
f 13/29/52 59/57/52 58/58/52
f 25/30/53 50/44/53 3/1/53
f 81/57/54 151/4/54 158/57/54
f 68/2/55 61/48/55 73/48/55
f 62/48/56 45/47/56 61/48/56
f 52/44/57 49/36/57 46/49/57
f 73/48/58 45/47/58 72/47/58
f 80/33/59 158/57/59 155/33/59
f 58/58/60 43/33/60 42/34/60
f 58/58/61 44/28/61 60/50/61
f 65/53/62 64/59/62 66/6/62
f 40/6/63 64/59/63 38/59/63
f 56/53/64 66/6/64 40/6/64
f 73/48/65 41/16/65 57/51/65
f 68/2/66 57/51/66 11/2/66
f 47/36/67 74/44/67 50/44/67
f 1/37/68 71/36/68 47/36/68
f 41/16/69 70/46/69 10/45/69
f 10/45/70 69/37/70 1/37/70
f 74/44/71 3/1/71 50/44/71
f 67/1/72 11/2/72 3/1/72
f 81/57/73 43/33/73 59/57/73
f 19/4/74 81/57/74 59/57/74
f 37/15/75 82/42/75 53/42/75
f 77/14/76 37/15/76 2/14/76
f 43/33/77 78/12/77 20/12/77
f 78/12/78 2/14/78 20/12/78
f 53/42/79 75/41/79 4/41/79
f 4/41/80 76/4/80 19/4/80
f 86/60/81 88/45/81 87/60/81
f 91/61/82 89/37/82 92/37/82
f 86/60/22 90/61/22 91/61/22
f 85/45/83 91/61/83 92/37/83
f 117/62/84 120/62/84 119/62/84
f 120/62/85 121/62/85 119/62/85
f 93/62/86 117/62/86 107/62/86
f 113/62/87 118/62/87 117/62/87
f 122/62/88 105/62/88 121/62/88
f 121/62/89 95/62/89 109/62/89
f 119/62/90 109/62/90 108/62/90
f 107/62/91 119/62/91 108/62/91
f 123/62/92 127/62/92 126/62/92
f 125/62/93 127/62/93 124/62/93
f 96/62/94 123/62/94 111/62/94
f 104/62/95 124/62/95 123/62/95
f 102/62/96 124/62/96 103/62/96
f 95/62/97 125/62/97 102/62/97
f 105/62/98 128/62/98 125/62/98
f 111/62/99 126/62/99 110/62/99
f 130/62/100 131/62/100 129/62/100
f 131/62/101 134/62/101 133/62/101
f 97/62/102 129/62/102 98/62/102
f 94/62/103 130/62/103 97/62/103
f 116/62/104 132/62/104 130/62/104
f 132/62/105 114/62/105 134/62/105
f 134/62/106 96/62/106 111/62/106
f 133/62/107 111/62/107 110/62/107
f 135/62/108 139/62/108 138/62/108
f 137/62/109 139/62/109 136/62/109
f 139/62/110 141/62/110 138/62/110
f 139/62/111 143/62/111 142/62/111
f 94/62/112 135/62/112 116/62/112
f 101/62/113 136/62/113 135/62/113
f 99/62/114 136/62/114 100/62/114
f 93/62/115 137/62/115 99/62/115
f 107/62/116 140/62/116 137/62/116
f 140/62/117 109/62/117 143/62/117
f 143/62/118 95/62/118 102/62/118
f 142/62/119 102/62/119 103/62/119
f 142/62/120 104/62/120 141/62/120
f 114/62/121 104/62/121 96/62/121
f 115/62/122 141/62/122 114/62/122
f 116/62/123 138/62/123 115/62/123
f 145/62/124 147/62/124 144/62/124
f 145/62/125 149/62/125 148/62/125
f 146/62/126 113/62/126 149/62/126
f 149/62/127 93/62/127 99/62/127
f 148/62/128 99/62/128 100/62/128
f 148/62/129 101/62/129 147/62/129
f 147/62/130 94/62/130 97/62/130
f 144/62/131 97/62/131 98/62/131
f 84/2/132 32/1/132 83/1/132
f 150/63/133 152/64/133 154/65/133
f 255/1/1 225/2/1 226/1/1
f 217/4/157 209/3/157 220/5/157
f 232/6/158 8/7/158 38/59/158
f 219/9/159 8/10/159 212/13/159
f 218/12/160 212/13/160 206/14/160
f 206/14/161 232/6/161 231/15/161
f 7/17/162 233/16/162 39/18/162
f 22/19/163 209/3/163 6/121/163
f 28/20/164 216/21/164 16/31/164
f 223/24/10 214/23/10 222/25/10
f 223/24/165 15/26/165 215/32/165
f 236/28/166 214/23/166 234/34/166
f 224/22/13 213/29/13 216/21/13
f 216/21/14 22/19/14 16/31/14
f 214/23/167 219/9/167 218/12/167
f 15/26/168 219/9/168 215/32/168
f 214/23/169 235/33/169 234/34/169
f 213/29/18 220/5/18 216/21/18
f 207/1/170 224/22/170 211/35/170
f 239/36/171 222/25/171 236/28/171
f 210/38/172 27/27/172 223/24/172
f 205/37/22 223/24/22 222/25/22
f 211/35/173 28/20/173 5/40/173
f 229/37/174 280/37/174 227/37/174
f 323/4/175 263/41/175 264/4/175
f 322/41/176 270/42/176 263/41/176
f 325/12/177 265/14/177 326/14/177
f 327/33/178 266/12/178 325/12/178
f 327/33/179 325/12/179 328/43/179
f 255/1/180 243/44/180 262/44/180
f 257/37/31 228/45/31 258/46/31
f 260/47/181 228/45/181 237/47/181
f 227/37/33 273/45/33 228/45/33
f 244/44/182 226/1/182 271/1/182
f 225/2/183 252/48/183 272/2/183
f 228/45/184 238/49/184 237/47/184
f 230/45/185 273/45/185 276/45/185
f 326/14/186 267/15/186 329/15/186
f 259/36/187 227/37/187 257/37/187
f 227/37/188 241/36/188 229/37/188
f 240/36/189 244/44/189 241/36/189
f 262/44/190 240/36/190 259/36/190
f 329/15/191 270/42/191 324/42/191
f 239/36/192 250/50/192 242/44/192
f 39/18/193 247/51/193 55/52/193
f 231/15/194 246/53/194 245/42/194
f 253/53/195 54/54/195 246/53/195
f 209/55/196 54/54/196 6/122/196
f 208/41/197 246/53/197 209/55/197
f 5/56/198 247/51/198 211/2/198
f 250/50/199 213/29/199 221/30/199
f 213/29/200 249/57/200 217/4/200
f 242/44/201 221/30/201 207/1/201
f 323/4/202 269/57/202 330/57/202
f 256/2/203 251/48/203 225/2/203
f 237/47/204 252/48/204 251/48/204
f 238/49/57 230/45/57 241/36/57
f 261/48/205 237/47/205 251/48/205
f 330/57/206 268/33/206 327/33/206
f 248/58/207 235/33/207 249/57/207
f 236/28/208 248/58/208 250/50/208
f 253/53/62 64/59/62 63/54/62
f 64/59/209 232/6/209 38/59/209
f 254/6/210 246/53/210 232/6/210
f 233/16/211 261/48/211 247/51/211
f 247/51/212 256/2/212 211/2/212
f 239/36/213 262/44/213 259/36/213
f 205/37/214 259/36/214 257/37/214
f 233/16/215 258/46/215 260/47/215
f 210/45/216 257/37/216 258/46/216
f 207/1/217 262/44/217 242/44/217
f 211/2/218 255/1/218 207/1/218
f 235/33/219 269/57/219 249/57/219
f 217/4/220 269/57/220 264/4/220
f 231/15/221 270/42/221 267/15/221
f 231/15/222 265/14/222 206/14/222
f 235/33/223 266/12/223 268/33/223
f 206/14/224 266/12/224 218/12/224
f 245/42/225 263/41/225 270/42/225
f 208/41/226 264/4/226 263/41/226
f 276/45/227 274/60/227 275/60/227
f 279/61/81 277/37/81 278/61/81
f 274/60/22 278/61/22 275/60/22
f 279/61/83 273/45/83 280/37/83
f 301/62/228 120/62/228 118/62/228
f 303/62/229 120/62/229 302/62/229
f 281/62/230 301/62/230 297/62/230
f 297/62/231 118/62/231 112/62/231
f 292/62/232 122/62/232 303/62/232
f 283/62/233 303/62/233 295/62/233
f 295/62/234 302/62/234 294/62/234
f 293/62/235 302/62/235 301/62/235
f 304/62/236 127/62/236 305/62/236
f 127/62/237 306/62/237 305/62/237
f 284/62/238 304/62/238 291/62/238
f 291/62/239 305/62/239 290/62/239
f 305/62/240 289/62/240 290/62/240
f 306/62/241 283/62/241 289/62/241
f 128/62/242 292/62/242 306/62/242
f 296/62/243 126/62/243 304/62/243
f 131/62/244 307/62/244 129/62/244
f 131/62/245 309/62/245 308/62/245
f 129/62/246 285/62/246 98/62/246
f 307/62/247 282/62/247 285/62/247
f 308/62/248 300/62/248 307/62/248
f 308/62/249 298/62/249 299/62/249
f 309/62/250 284/62/250 298/62/250
f 133/62/251 296/62/251 309/62/251
f 310/62/252 314/62/252 311/62/252
f 314/62/253 312/62/253 311/62/253
f 316/62/254 314/62/254 313/62/254
f 314/62/255 318/62/255 315/62/255
f 282/62/256 310/62/256 288/62/256
f 288/62/257 311/62/257 287/62/257
f 311/62/258 286/62/258 287/62/258
f 312/62/259 281/62/259 286/62/259
f 315/62/260 293/62/260 312/62/260
f 315/62/261 295/62/261 294/62/261
f 318/62/262 283/62/262 295/62/262
f 317/62/263 289/62/263 318/62/263
f 291/62/264 317/62/264 316/62/264
f 298/62/265 291/62/265 316/62/265
f 299/62/266 316/62/266 313/62/266
f 300/62/267 313/62/267 310/62/267
f 319/62/268 145/62/268 144/62/268
f 145/62/269 321/62/269 146/62/269
f 146/62/270 297/62/270 112/62/270
f 321/62/271 281/62/271 297/62/271
f 320/62/272 286/62/272 321/62/272
f 288/62/273 320/62/273 319/62/273
f 282/62/274 319/62/274 285/62/274
f 285/62/275 144/62/275 98/62/275
f 226/1/132 272/2/132 271/1/132
f 328/123/276 325/124/276 326/125/276
f 67/1/1 32/1/1 31/2/1
f 9/3/299 4/41/299 19/4/299
f 40/6/300 38/59/300 8/7/300
f 23/9/301 12/13/301 8/10/301
f 20/12/302 2/14/302 12/13/302
f 40/6/303 12/8/303 2/14/303
f 41/16/304 10/45/304 7/17/304
f 22/19/163 6/121/163 9/3/163
f 28/20/164 16/31/164 18/21/164
f 14/23/305 17/32/305 29/24/305
f 29/24/165 17/32/165 15/26/165
f 44/28/306 42/34/306 14/23/306
f 30/22/13 18/21/13 13/29/13
f 22/19/307 24/5/307 18/21/307
f 14/23/308 20/12/308 23/9/308
f 23/9/309 21/11/309 15/26/309
f 43/33/310 20/12/310 14/23/310
f 24/5/311 19/4/311 13/29/311
f 30/22/312 25/30/312 3/1/312
f 47/36/313 44/28/313 26/25/313
f 10/38/314 29/24/314 27/27/314
f 1/37/22 26/25/22 29/24/22
f 28/20/315 30/22/315 11/35/315
f 92/37/185 89/37/185 35/37/185
f 151/4/316 76/4/316 75/41/316
f 150/41/317 75/41/317 82/42/317
f 77/14/318 78/12/318 153/12/318
f 78/12/319 80/33/319 155/33/319
f 51/44/320 32/1/320 67/1/320
f 34/45/31 33/37/31 69/37/31
f 72/47/321 45/47/321 34/45/321
f 85/45/33 92/37/33 33/37/33
f 52/44/322 83/1/322 32/1/322
f 31/2/323 84/2/323 62/48/323
f 46/49/324 36/45/324 34/45/324
f 36/45/325 88/45/325 85/45/325
f 79/15/326 77/14/326 154/14/326
f 33/37/327 48/36/327 71/36/327
f 33/37/328 35/37/328 49/36/328
f 48/36/41 49/36/41 52/44/41
f 48/36/42 51/44/42 74/44/42
f 82/42/329 79/15/329 157/15/329
f 60/50/44 44/28/44 47/36/44
f 57/51/45 41/16/45 39/18/45
f 56/53/330 40/6/330 37/15/330
f 54/54/331 63/54/331 65/53/331
f 9/55/332 6/122/332 54/54/332
f 4/41/333 9/55/333 56/53/333
f 5/56/334 11/2/334 57/51/334
f 13/29/335 58/58/335 60/50/335
f 13/29/336 19/4/336 59/57/336
f 25/30/337 60/50/337 50/44/337
f 81/57/338 76/4/338 151/4/338
f 68/2/339 31/2/339 61/48/339
f 62/48/56 46/49/56 45/47/56
f 87/60/57 88/45/57 89/37/57
f 88/45/57 36/45/57 89/37/57
f 46/49/57 62/48/57 52/44/57
f 62/48/340 84/2/340 83/1/340
f 36/45/57 46/49/57 35/37/57
f 89/37/57 36/45/57 35/37/57
f 89/37/57 90/61/57 87/60/57
f 49/36/57 35/37/57 46/49/57
f 83/1/340 52/44/340 62/48/340
f 73/48/58 61/48/58 45/47/58
f 80/33/341 81/57/341 158/57/341
f 58/58/60 59/57/60 43/33/60
f 58/58/61 42/34/61 44/28/61
f 65/53/62 63/54/62 64/59/62
f 40/6/63 66/6/63 64/59/63
f 56/53/342 65/53/342 66/6/342
f 73/48/65 72/47/65 41/16/65
f 68/2/343 73/48/343 57/51/343
f 47/36/67 71/36/67 74/44/67
f 1/37/344 69/37/344 71/36/344
f 41/16/345 72/47/345 70/46/345
f 10/45/216 70/46/216 69/37/216
f 74/44/346 67/1/346 3/1/346
f 67/1/347 68/2/347 11/2/347
f 81/57/348 80/33/348 43/33/348
f 19/4/349 76/4/349 81/57/349
f 37/15/350 79/15/350 82/42/350
f 77/14/351 79/15/351 37/15/351
f 43/33/352 80/33/352 78/12/352
f 78/12/353 77/14/353 2/14/353
f 53/42/354 82/42/354 75/41/354
f 4/41/355 75/41/355 76/4/355
f 86/60/356 85/45/356 88/45/356
f 91/61/227 90/61/227 89/37/227
f 86/60/22 87/60/22 90/61/22
f 85/45/83 86/60/83 91/61/83
f 117/62/357 118/62/357 120/62/357
f 120/62/358 122/62/358 121/62/358
f 93/62/359 113/62/359 117/62/359
f 113/62/360 112/62/360 118/62/360
f 122/62/361 106/62/361 105/62/361
f 121/62/362 105/62/362 95/62/362
f 119/62/363 121/62/363 109/62/363
f 107/62/364 117/62/364 119/62/364
f 123/62/365 124/62/365 127/62/365
f 125/62/366 128/62/366 127/62/366
f 96/62/367 104/62/367 123/62/367
f 104/62/368 103/62/368 124/62/368
f 102/62/369 125/62/369 124/62/369
f 95/62/370 105/62/370 125/62/370
f 105/62/371 106/62/371 128/62/371
f 111/62/372 123/62/372 126/62/372
f 130/62/373 132/62/373 131/62/373
f 131/62/374 132/62/374 134/62/374
f 97/62/375 130/62/375 129/62/375
f 94/62/376 116/62/376 130/62/376
f 116/62/377 115/62/377 132/62/377
f 132/62/378 115/62/378 114/62/378
f 134/62/379 114/62/379 96/62/379
f 133/62/380 134/62/380 111/62/380
f 135/62/381 136/62/381 139/62/381
f 137/62/382 140/62/382 139/62/382
f 139/62/383 142/62/383 141/62/383
f 139/62/384 140/62/384 143/62/384
f 94/62/385 101/62/385 135/62/385
f 101/62/386 100/62/386 136/62/386
f 99/62/387 137/62/387 136/62/387
f 93/62/388 107/62/388 137/62/388
f 107/62/389 108/62/389 140/62/389
f 140/62/390 108/62/390 109/62/390
f 143/62/391 109/62/391 95/62/391
f 142/62/392 143/62/392 102/62/392
f 142/62/393 103/62/393 104/62/393
f 114/62/394 141/62/394 104/62/394
f 115/62/395 138/62/395 141/62/395
f 116/62/396 135/62/396 138/62/396
f 145/62/397 148/62/397 147/62/397
f 145/62/398 146/62/398 149/62/398
f 146/62/399 112/62/399 113/62/399
f 149/62/400 113/62/400 93/62/400
f 148/62/401 149/62/401 99/62/401
f 148/62/402 100/62/402 101/62/402
f 147/62/403 101/62/403 94/62/403
f 144/62/404 147/62/404 97/62/404
f 84/2/132 31/2/132 32/1/132
f 152/64/133 157/180/133 154/65/133
f 154/65/133 153/181/133 156/182/133
f 156/182/405 155/183/405 158/184/405
f 158/184/406 151/185/406 156/182/406
f 151/185/407 150/63/407 156/182/407
f 156/182/133 150/63/133 154/65/133
f 255/1/1 256/2/1 225/2/1
f 217/4/422 208/41/422 209/3/422
f 232/6/423 212/8/423 8/7/423
f 219/9/424 21/11/424 8/10/424
f 218/12/425 219/9/425 212/13/425
f 206/14/426 212/8/426 232/6/426
f 7/17/427 210/45/427 233/16/427
f 22/19/428 220/5/428 209/3/428
f 28/20/429 224/22/429 216/21/429
f 223/24/430 215/32/430 214/23/430
f 223/24/431 27/27/431 15/26/431
f 236/28/432 222/25/432 214/23/432
f 224/22/13 221/30/13 213/29/13
f 216/21/433 220/5/433 22/19/433
f 214/23/434 215/32/434 219/9/434
f 15/26/435 21/11/435 219/9/435
f 214/23/436 218/12/436 235/33/436
f 213/29/437 217/4/437 220/5/437
f 207/1/312 221/30/312 224/22/312
f 239/36/438 205/37/438 222/25/438
f 210/38/439 7/39/439 27/27/439
f 205/37/22 210/38/22 223/24/22
f 211/35/440 224/22/440 28/20/440
f 229/37/325 277/37/325 280/37/325
f 323/4/278 322/41/278 263/41/278
f 322/41/441 324/42/441 270/42/441
f 325/12/442 266/12/442 265/14/442
f 327/33/443 268/33/443 266/12/443
f 255/1/444 226/1/444 243/44/444
f 257/37/31 227/37/31 228/45/31
f 260/47/445 258/46/445 228/45/445
f 227/37/33 280/37/33 273/45/33
f 244/44/446 243/44/446 226/1/446
f 225/2/447 251/48/447 252/48/447
f 228/45/448 230/45/448 238/49/448
f 230/45/449 228/45/449 273/45/449
f 326/14/450 265/14/450 267/15/450
f 259/36/451 240/36/451 227/37/451
f 227/37/452 240/36/452 241/36/452
f 240/36/189 243/44/189 244/44/189
f 262/44/190 243/44/190 240/36/190
f 329/15/453 267/15/453 270/42/453
f 239/36/192 236/28/192 250/50/192
f 39/18/193 233/16/193 247/51/193
f 231/15/454 232/6/454 246/53/454
f 253/53/455 63/54/455 54/54/455
f 209/55/456 246/53/456 54/54/456
f 208/41/457 245/42/457 246/53/457
f 5/56/458 55/52/458 247/51/458
f 250/50/459 248/58/459 213/29/459
f 213/29/460 248/58/460 249/57/460
f 242/44/461 250/50/461 221/30/461
f 323/4/462 264/4/462 269/57/462
f 256/2/463 261/48/463 251/48/463
f 237/47/204 238/49/204 252/48/204
f 230/45/57 276/45/57 277/37/57
f 276/45/57 275/60/57 277/37/57
f 275/60/57 278/61/57 277/37/57
f 277/37/57 229/37/57 230/45/57
f 229/37/57 241/36/57 230/45/57
f 241/36/57 244/44/57 238/49/57
f 244/44/340 271/1/340 252/48/340
f 238/49/57 244/44/57 252/48/57
f 271/1/340 272/2/340 252/48/340
f 261/48/205 260/47/205 237/47/205
f 330/57/464 269/57/464 268/33/464
f 248/58/465 234/34/465 235/33/465
f 236/28/208 234/34/208 248/58/208
f 253/53/62 254/6/62 64/59/62
f 64/59/209 254/6/209 232/6/209
f 254/6/466 253/53/466 246/53/466
f 233/16/211 260/47/211 261/48/211
f 247/51/467 261/48/467 256/2/467
f 239/36/213 242/44/213 262/44/213
f 205/37/468 239/36/468 259/36/468
f 233/16/469 210/45/469 258/46/469
f 210/45/470 205/37/470 257/37/470
f 207/1/471 255/1/471 262/44/471
f 211/2/347 256/2/347 255/1/347
f 235/33/472 268/33/472 269/57/472
f 217/4/473 249/57/473 269/57/473
f 231/15/474 245/42/474 270/42/474
f 231/15/475 267/15/475 265/14/475
f 235/33/476 218/12/476 266/12/476
f 206/14/477 265/14/477 266/12/477
f 245/42/478 208/41/478 263/41/478
f 208/41/479 217/4/479 264/4/479
f 276/45/82 273/45/82 274/60/82
f 279/61/356 280/37/356 277/37/356
f 274/60/22 279/61/22 278/61/22
f 279/61/83 274/60/83 273/45/83
f 301/62/480 302/62/480 120/62/480
f 303/62/481 122/62/481 120/62/481
f 281/62/482 293/62/482 301/62/482
f 297/62/483 301/62/483 118/62/483
f 292/62/484 106/62/484 122/62/484
f 283/62/485 292/62/485 303/62/485
f 295/62/486 303/62/486 302/62/486
f 293/62/487 294/62/487 302/62/487
f 304/62/488 126/62/488 127/62/488
f 127/62/489 128/62/489 306/62/489
f 284/62/490 296/62/490 304/62/490
f 291/62/491 304/62/491 305/62/491
f 305/62/492 306/62/492 289/62/492
f 306/62/493 292/62/493 283/62/493
f 128/62/494 106/62/494 292/62/494
f 296/62/495 110/62/495 126/62/495
f 131/62/496 308/62/496 307/62/496
f 131/62/497 133/62/497 309/62/497
f 129/62/498 307/62/498 285/62/498
f 307/62/499 300/62/499 282/62/499
f 308/62/500 299/62/500 300/62/500
f 308/62/501 309/62/501 298/62/501
f 309/62/502 296/62/502 284/62/502
f 133/62/503 110/62/503 296/62/503
f 310/62/504 313/62/504 314/62/504
f 314/62/505 315/62/505 312/62/505
f 316/62/506 317/62/506 314/62/506
f 314/62/507 317/62/507 318/62/507
f 282/62/508 300/62/508 310/62/508
f 288/62/509 310/62/509 311/62/509
f 311/62/510 312/62/510 286/62/510
f 312/62/511 293/62/511 281/62/511
f 315/62/512 294/62/512 293/62/512
f 315/62/513 318/62/513 295/62/513
f 318/62/514 289/62/514 283/62/514
f 317/62/515 290/62/515 289/62/515
f 291/62/516 290/62/516 317/62/516
f 298/62/517 284/62/517 291/62/517
f 299/62/518 298/62/518 316/62/518
f 300/62/519 299/62/519 313/62/519
f 319/62/520 320/62/520 145/62/520
f 145/62/521 320/62/521 321/62/521
f 146/62/522 321/62/522 297/62/522
f 321/62/523 286/62/523 281/62/523
f 320/62/524 287/62/524 286/62/524
f 288/62/525 287/62/525 320/62/525
f 282/62/526 288/62/526 319/62/526
f 285/62/527 319/62/527 144/62/527
f 226/1/132 225/2/132 272/2/132
f 326/125/528 329/187/528 324/188/528
f 324/188/528 322/189/528 326/125/528
f 322/189/529 323/190/529 328/123/529
f 326/125/528 322/189/528 328/123/528
f 323/190/530 330/191/530 328/123/530
f 330/191/531 327/192/531 328/123/531
usemtl 
f 196/66/134 184/67/134 204/68/134
f 168/69/135 185/70/135 188/71/135
f 198/72/136 186/73/136 203/74/136
f 179/75/137 191/76/137 194/76/137
f 197/77/138 169/78/138 200/79/138
f 196/80/139 172/81/139 202/82/139
f 199/83/140 164/84/140 198/72/140
f 200/79/141 174/85/141 201/86/141
f 186/73/142 170/87/142 187/88/142
f 173/89/135 188/71/135 189/90/135
f 162/91/135 189/90/135 184/67/135
f 201/86/141 159/92/141 195/93/141
f 202/82/139 170/94/139 199/83/139
f 187/88/142 172/95/142 190/96/142
f 177/95/143 191/97/143 192/98/143
f 181/99/144 175/92/144 179/92/144
f 182/81/145 176/100/145 177/81/145
f 193/101/146 177/95/146 192/98/146
f 190/96/147 182/95/147 193/101/147
f 172/81/148 180/102/148 182/81/148
f 174/85/149 179/92/149 159/92/149
f 159/75/150 194/76/150 183/76/150
f 183/76/151 180/103/151 160/103/151
f 174/104/152 193/101/152 181/105/152
f 181/105/153 192/98/153 178/104/153
f 192/98/154 175/106/154 178/104/154
f 169/107/142 190/96/142 174/104/142
f 184/67/135 171/108/135 161/109/135
f 189/90/135 167/110/135 171/108/135
f 163/111/142 187/88/142 169/107/142
f 194/76/155 176/103/155 180/103/155
f 203/74/136 163/111/136 197/77/136
f 188/71/135 165/112/135 167/110/135
f 204/68/156 161/109/156 195/113/156
f 183/76/134 195/113/134 159/75/134
f 185/70/136 197/77/136 165/112/136
f 173/114/139 199/83/139 168/115/139
f 171/116/141 195/93/141 161/117/141
f 167/118/141 201/86/141 171/116/141
f 168/115/140 198/72/140 166/119/140
f 162/120/139 202/82/139 173/114/139
f 165/112/138 200/79/138 167/118/138
f 166/119/136 203/74/136 185/70/136
f 160/103/134 204/68/134 183/76/134
f 356/126/277 368/127/277 376/128/277
f 357/129/278 340/130/278 360/131/278
f 358/132/279 370/133/279 375/134/279
f 363/135/280 351/136/280 366/135/280
f 341/137/281 369/138/281 372/139/281
f 344/140/282 368/141/282 374/142/282
f 336/143/283 371/144/283 370/133/283
f 346/145/284 372/139/284 373/146/284
f 358/132/177 342/147/177 336/143/177
f 360/131/278 345/148/278 361/149/278
f 361/149/278 334/150/278 356/126/278
f 331/151/284 373/146/284 367/152/284
f 342/153/282 374/142/282 371/144/282
f 359/154/177 344/155/177 342/147/177
f 363/156/285 349/155/285 364/157/285
f 347/151/286 353/158/286 351/151/286
f 354/140/287 348/159/287 352/160/287
f 365/161/288 349/155/288 354/155/288
f 362/161/289 354/155/289 344/155/289
f 344/140/290 352/160/290 332/159/290
f 351/151/291 346/145/291 331/151/291
f 366/135/292 331/136/292 355/135/292
f 352/162/293 355/135/293 332/162/293
f 346/163/294 365/161/294 362/161/294
f 353/164/295 364/157/295 365/161/295
f 347/165/296 364/157/296 350/163/296
f 341/166/177 362/161/177 359/154/177
f 343/167/278 356/126/278 333/168/278
f 339/169/278 361/149/278 343/167/278
f 335/170/177 359/154/177 358/132/177
f 348/162/297 366/135/297 352/162/297
f 335/170/279 375/134/279 369/138/279
f 337/171/278 360/131/278 339/169/278
f 333/168/277 376/128/277 367/172/277
f 367/172/277 355/135/277 331/136/277
f 369/138/279 357/129/279 337/171/279
f 371/144/298 345/173/298 340/174/298
f 367/152/284 343/175/284 333/176/284
f 373/146/284 339/177/284 343/175/284
f 370/133/283 340/174/283 338/178/283
f 374/142/282 334/179/282 345/173/282
f 372/139/281 337/171/281 339/177/281
f 375/134/279 338/178/279 357/129/279
f 376/128/277 332/162/277 355/135/277
f 196/66/156 162/91/156 184/67/156
f 168/69/135 166/119/135 185/70/135
f 198/72/136 164/84/136 186/73/136
f 179/75/408 175/75/408 191/76/408
f 197/77/138 163/111/138 169/78/138
f 196/80/139 160/100/139 172/81/139
f 199/83/140 170/94/140 164/84/140
f 200/79/141 169/78/141 174/85/141
f 186/73/142 164/84/142 170/87/142
f 173/89/135 168/69/135 188/71/135
f 162/91/135 173/89/135 189/90/135
f 201/86/141 174/85/141 159/92/141
f 202/82/139 172/81/139 170/94/139
f 187/88/142 170/87/142 172/95/142
f 177/95/409 176/186/409 191/97/409
f 181/99/410 178/85/410 175/92/410
f 182/81/411 180/102/411 176/100/411
f 193/101/412 182/95/412 177/95/412
f 190/96/413 172/95/413 182/95/413
f 172/81/414 160/100/414 180/102/414
f 174/85/415 181/99/415 179/92/415
f 159/75/416 179/75/416 194/76/416
f 183/76/417 194/76/417 180/103/417
f 174/104/418 190/96/418 193/101/418
f 181/105/419 193/101/419 192/98/419
f 192/98/420 191/97/420 175/106/420
f 169/107/142 187/88/142 190/96/142
f 184/67/135 189/90/135 171/108/135
f 189/90/135 188/71/135 167/110/135
f 163/111/142 186/73/142 187/88/142
f 194/76/421 191/76/421 176/103/421
f 203/74/136 186/73/136 163/111/136
f 188/71/135 185/70/135 165/112/135
f 204/68/134 184/67/134 161/109/134
f 183/76/156 204/68/156 195/113/156
f 185/70/136 203/74/136 197/77/136
f 173/114/139 202/82/139 199/83/139
f 171/116/141 201/86/141 195/93/141
f 167/118/141 200/79/141 201/86/141
f 168/115/140 199/83/140 198/72/140
f 162/120/139 196/80/139 202/82/139
f 165/112/138 197/77/138 200/79/138
f 166/119/136 198/72/136 203/74/136
f 160/103/134 196/66/134 204/68/134
f 356/126/277 334/150/277 368/127/277
f 357/129/278 338/178/278 340/130/278
f 358/132/279 336/143/279 370/133/279
f 363/135/532 347/136/532 351/136/532
f 341/137/281 335/170/281 369/138/281
f 344/140/282 332/159/282 368/141/282
f 336/143/283 342/153/283 371/144/283
f 346/145/284 341/137/284 372/139/284
f 358/132/177 359/154/177 342/147/177
f 360/131/278 340/130/278 345/148/278
f 361/149/278 345/148/278 334/150/278
f 331/151/284 346/145/284 373/146/284
f 342/153/282 344/140/282 374/142/282
f 359/154/177 362/161/177 344/155/177
f 363/156/533 348/193/533 349/155/533
f 347/151/534 350/145/534 353/158/534
f 354/140/535 349/140/535 348/159/535
f 365/161/536 364/157/536 349/155/536
f 362/161/537 365/161/537 354/155/537
f 344/140/538 354/140/538 352/160/538
f 351/151/539 353/158/539 346/145/539
f 366/135/540 351/136/540 331/136/540
f 352/162/541 366/135/541 355/135/541
f 346/163/542 353/164/542 365/161/542
f 353/164/543 350/163/543 364/157/543
f 347/165/544 363/156/544 364/157/544
f 341/166/177 346/163/177 362/161/177
f 343/167/278 361/149/278 356/126/278
f 339/169/278 360/131/278 361/149/278
f 335/170/177 341/166/177 359/154/177
f 348/162/545 363/135/545 366/135/545
f 335/170/279 358/132/279 375/134/279
f 337/171/278 357/129/278 360/131/278
f 333/168/277 356/126/277 376/128/277
f 367/172/277 376/128/277 355/135/277
f 369/138/279 375/134/279 357/129/279
f 371/144/298 374/142/298 345/173/298
f 367/152/284 373/146/284 343/175/284
f 373/146/284 372/139/284 339/177/284
f 370/133/283 371/144/283 340/174/283
f 374/142/282 368/141/282 334/179/282
f 372/139/281 369/138/281 337/171/281
f 375/134/279 370/133/279 338/178/279
f 376/128/277 368/127/277 332/162/277
