# Blender 4.1.1
# www.blender.org
mtllib wall.mtl
o Cube
v 1.000000 2.000000 -0.600000
v 1.000000 0.000000 -0.600000
v 1.000000 2.000000 0.600000
v 1.000000 0.000000 0.600000
v -1.000000 2.000000 -0.600000
v -1.000000 0.000000 -0.600000
v -1.000000 2.000000 0.600000
v -1.000000 0.000000 0.600000
v -0.571578 1.844360 0.609061
v -0.513051 1.838596 0.609061
v -0.456773 1.821524 0.609061
v -0.404907 1.793801 0.609061
v -0.359446 1.756492 0.609061
v -0.322137 1.711031 0.609061
v -0.294414 1.659165 0.609061
v -0.277343 1.602887 0.609061
v -0.271578 1.544360 0.609061
v -0.277343 1.485833 0.609061
v -0.294414 1.429555 0.609061
v -0.322137 1.377689 0.609061
v -0.359446 1.332228 0.609061
v -0.404907 1.294919 0.609061
v -0.456773 1.267196 0.609061
v -0.513051 1.250124 0.609061
v -0.571578 1.244360 0.609061
v -0.630105 1.250124 0.609061
v -0.686383 1.267196 0.609061
v -0.738249 1.294919 0.609061
v -0.783710 1.332228 0.609061
v -0.821019 1.377689 0.609061
v -0.848742 1.429555 0.609061
v -0.865814 1.485833 0.609061
v -0.871578 1.544360 0.609061
v -0.865814 1.602887 0.609061
v -0.848742 1.659165 0.609061
v -0.821019 1.711031 0.609061
v -0.783710 1.756492 0.609061
v -0.738249 1.793801 0.609061
v -0.686383 1.821524 0.609061
v -0.630105 1.838596 0.609061
v -0.571578 1.544360 1.409061
v -0.571578 0.703265 0.609061
v -0.513051 0.697501 0.609061
v -0.456773 0.680429 0.609061
v -0.404907 0.652706 0.609061
v -0.359446 0.615397 0.609061
v -0.322137 0.569936 0.609061
v -0.294414 0.518070 0.609061
v -0.277343 0.461792 0.609061
v -0.271578 0.403265 0.609061
v -0.277343 0.344738 0.609061
v -0.294414 0.288460 0.609061
v -0.322137 0.236594 0.609061
v -0.359446 0.191133 0.609061
v -0.404907 0.153824 0.609061
v -0.456773 0.126101 0.609061
v -0.513051 0.109030 0.609061
v -0.571578 0.103265 0.609061
v -0.630105 0.109030 0.609061
v -0.686383 0.126101 0.609061
v -0.738249 0.153824 0.609061
v -0.783710 0.191133 0.609061
v -0.821019 0.236594 0.609061
v -0.848742 0.288460 0.609061
v -0.865814 0.344738 0.609061
v -0.871578 0.403265 0.609061
v -0.865814 0.461792 0.609061
v -0.848742 0.518070 0.609061
v -0.821019 0.569936 0.609061
v -0.783710 0.615397 0.609061
v -0.738249 0.652706 0.609061
v -0.686383 0.680429 0.609061
v -0.630105 0.697501 0.609061
v -0.571578 0.403265 1.409061
v 0.584814 1.844360 0.609061
v 0.643342 1.838596 0.609061
v 0.699619 1.821524 0.609061
v 0.751486 1.793801 0.609061
v 0.796946 1.756492 0.609061
v 0.834255 1.711031 0.609061
v 0.861978 1.659165 0.609061
v 0.879050 1.602887 0.609061
v 0.884814 1.544360 0.609061
v 0.879050 1.485833 0.609061
v 0.861978 1.429555 0.609061
v 0.834255 1.377689 0.609061
v 0.796946 1.332228 0.609061
v 0.751486 1.294919 0.609061
v 0.699619 1.267196 0.609061
v 0.643342 1.250124 0.609061
v 0.584814 1.244360 0.609061
v 0.526287 1.250124 0.609061
v 0.470009 1.267196 0.609061
v 0.418143 1.294919 0.609061
v 0.372682 1.332228 0.609061
v 0.335374 1.377689 0.609061
v 0.307651 1.429555 0.609061
v 0.290579 1.485833 0.609061
v 0.284814 1.544360 0.609061
v 0.290579 1.602887 0.609061
v 0.307651 1.659165 0.609061
v 0.335374 1.711031 0.609061
v 0.372682 1.756492 0.609061
v 0.418143 1.793801 0.609061
v 0.470009 1.821524 0.609061
v 0.526287 1.838596 0.609061
v 0.584814 1.544360 1.409061
v 0.584814 0.704533 0.609061
v 0.643342 0.698768 0.609061
v 0.699619 0.681697 0.609061
v 0.751486 0.653974 0.609061
v 0.796946 0.616665 0.609061
v 0.834255 0.571204 0.609061
v 0.861978 0.519338 0.609061
v 0.879050 0.463060 0.609061
v 0.884814 0.404533 0.609061
v 0.879050 0.346006 0.609061
v 0.861978 0.289728 0.609061
v 0.834255 0.237862 0.609061
v 0.796946 0.192401 0.609061
v 0.751486 0.155092 0.609061
v 0.699619 0.127369 0.609061
v 0.643342 0.110297 0.609061
v 0.584814 0.104533 0.609061
v 0.526287 0.110297 0.609061
v 0.470009 0.127369 0.609061
v 0.418143 0.155092 0.609061
v 0.372682 0.192401 0.609061
v 0.335374 0.237862 0.609061
v 0.307651 0.289728 0.609061
v 0.290579 0.346006 0.609061
v 0.284814 0.404533 0.609061
v 0.290579 0.463060 0.609061
v 0.307651 0.519338 0.609061
v 0.335374 0.571204 0.609061
v 0.372682 0.616665 0.609061
v 0.418143 0.653974 0.609061
v 0.470009 0.681697 0.609061
v 0.526287 0.698768 0.609061
v 0.584814 0.404533 1.409061
v 0.030126 1.304848 0.609061
v 0.088653 1.299084 0.609061
v 0.144931 1.282012 0.609061
v 0.196797 1.254289 0.609061
v 0.242258 1.216980 0.609061
v 0.279567 1.171519 0.609061
v 0.307290 1.119653 0.609061
v 0.324362 1.063375 0.609061
v 0.330126 1.004848 0.609061
v 0.324362 0.946321 0.609061
v 0.307290 0.890043 0.609061
v 0.279567 0.838177 0.609061
v 0.242258 0.792716 0.609061
v 0.196797 0.755407 0.609061
v 0.144931 0.727684 0.609061
v 0.088653 0.710613 0.609061
v 0.030126 0.704848 0.609061
v -0.028401 0.710613 0.609061
v -0.084679 0.727684 0.609061
v -0.136545 0.755407 0.609061
v -0.182006 0.792716 0.609061
v -0.219315 0.838177 0.609061
v -0.247038 0.890043 0.609061
v -0.264110 0.946321 0.609061
v -0.269874 1.004848 0.609061
v -0.264110 1.063375 0.609061
v -0.247038 1.119653 0.609061
v -0.219315 1.171519 0.609061
v -0.182006 1.216980 0.609061
v -0.136545 1.254289 0.609061
v -0.084679 1.282012 0.609061
v -0.028401 1.299084 0.609061
v 0.030126 1.004848 1.409061
vn -0.0000 1.0000 -0.0000
vn -0.0000 -0.0000 1.0000
vn -1.0000 -0.0000 -0.0000
vn -0.0000 -1.0000 -0.0000
vn 1.0000 -0.0000 -0.0000
vn -0.0000 -0.0000 -1.0000
vn 0.0918 0.9324 0.3496
vn 0.2720 0.8965 0.3496
vn 0.4416 0.8263 0.3496
vn 0.5944 0.7242 0.3496
vn 0.7242 0.5944 0.3496
vn 0.8263 0.4416 0.3496
vn 0.8965 0.2720 0.3496
vn 0.9324 0.0918 0.3496
vn 0.9324 -0.0918 0.3496
vn 0.8965 -0.2720 0.3496
vn 0.8263 -0.4416 0.3496
vn 0.7242 -0.5944 0.3496
vn 0.5944 -0.7242 0.3496
vn 0.4416 -0.8263 0.3496
vn 0.2720 -0.8965 0.3496
vn 0.0918 -0.9324 0.3496
vn -0.0918 -0.9324 0.3496
vn -0.2720 -0.8965 0.3496
vn -0.4416 -0.8263 0.3496
vn -0.5944 -0.7242 0.3496
vn -0.7242 -0.5944 0.3496
vn -0.8263 -0.4416 0.3496
vn -0.8965 -0.2720 0.3496
vn -0.9324 -0.0918 0.3496
vn -0.9324 0.0918 0.3496
vn -0.8965 0.2720 0.3496
vn -0.8263 0.4416 0.3496
vn -0.7242 0.5944 0.3496
vn -0.5944 0.7242 0.3496
vn -0.4416 0.8263 0.3496
vn -0.2720 0.8965 0.3496
vn -0.0918 0.9324 0.3496
vt 0.728148 0.814956
vt 0.758800 0.845608
vt 0.728148 0.845608
vt 0.800792 0.713772
vt 0.831444 0.744424
vt 0.800792 0.744424
vt 0.666844 0.845608
vt 0.697496 0.876260
vt 0.666844 0.876260
vt 0.728148 0.876260
vt 0.758800 0.906912
vt 0.728148 0.906912
vt 0.758800 0.876260
vt 0.697496 0.845608
vt 0.087804 0.314208
vt 0.166667 0.166667
vt 0.118104 0.326758
vt 0.150269 0.333156
vt 0.183065 0.333156
vt 0.215230 0.326758
vt 0.245529 0.314208
vt 0.272798 0.295988
vt 0.295988 0.272798
vt 0.314208 0.245529
vt 0.326758 0.215230
vt 0.333156 0.183064
vt 0.333156 0.150269
vt 0.326758 0.118103
vt 0.314208 0.087804
vt 0.295988 0.060536
vt 0.272798 0.037346
vt 0.245529 0.019126
vt 0.215230 0.006575
vt 0.183064 0.000177
vt 0.150269 0.000177
vt 0.118103 0.006575
vt 0.087804 0.019126
vt 0.060536 0.037346
vt 0.037346 0.060536
vt 0.019126 0.087804
vt 0.006575 0.118103
vt 0.000177 0.150269
vt 0.000177 0.183065
vt 0.006575 0.215230
vt 0.019126 0.245529
vt 0.037346 0.272798
vt 0.750130 0.000087
vt 0.060536 0.295988
vt 0.999823 0.183064
vt 0.833333 0.166667
vt 0.999823 0.150269
vt 0.993425 0.118103
vt 0.980875 0.087804
vt 0.962654 0.060536
vt 0.939464 0.037346
vt 0.912196 0.019126
vt 0.881897 0.006575
vt 0.849731 0.000177
vt 0.816936 0.000177
vt 0.784770 0.006575
vt 0.754471 0.019126
vt 0.727202 0.037346
vt 0.704013 0.060536
vt 0.685792 0.087804
vt 0.673242 0.118103
vt 0.666844 0.150269
vt 0.666844 0.183064
vt 0.673242 0.215230
vt 0.685792 0.245529
vt 0.704013 0.272798
vt 0.727203 0.295988
vt 0.754471 0.314208
vt 0.784770 0.326758
vt 0.816936 0.333156
vt 0.849731 0.333156
vt 0.881897 0.326758
vt 0.912196 0.314208
vt 0.939464 0.295988
vt 0.962654 0.272798
vt 0.980874 0.245529
vt 0.750130 0.000260
vt 0.993425 0.215230
vt 0.339909 0.215230
vt 0.500000 0.166667
vt 0.352459 0.245529
vt 0.370679 0.272798
vt 0.393869 0.295988
vt 0.421138 0.314208
vt 0.451437 0.326758
vt 0.483602 0.333156
vt 0.516398 0.333156
vt 0.548563 0.326758
vt 0.578862 0.314208
vt 0.606131 0.295988
vt 0.629321 0.272798
vt 0.647541 0.245529
vt 0.660092 0.215230
vt 0.666490 0.183065
vt 0.666490 0.150269
vt 0.660092 0.118103
vt 0.647541 0.087804
vt 0.629321 0.060536
vt 0.606131 0.037346
vt 0.578862 0.019126
vt 0.548563 0.006575
vt 0.516398 0.000177
vt 0.483602 0.000177
vt 0.451437 0.006575
vt 0.421138 0.019126
vt 0.393869 0.037346
vt 0.370679 0.060536
vt 0.352459 0.087804
vt 0.339909 0.118103
vt 0.333510 0.150269
vt 0.750130 0.000433
vt 0.333510 0.183064
vt 0.000177 0.483602
vt 0.166667 0.500000
vt 0.000177 0.516398
vt 0.006575 0.548563
vt 0.019126 0.578862
vt 0.037346 0.606131
vt 0.060536 0.629321
vt 0.087804 0.647541
vt 0.118103 0.660091
vt 0.150269 0.666490
vt 0.183064 0.666490
vt 0.215230 0.660092
vt 0.245529 0.647541
vt 0.272798 0.629321
vt 0.295988 0.606131
vt 0.314208 0.578862
vt 0.326758 0.548563
vt 0.333156 0.516398
vt 0.333156 0.483602
vt 0.326758 0.451437
vt 0.314208 0.421138
vt 0.295988 0.393869
vt 0.272798 0.370679
vt 0.245529 0.352459
vt 0.215230 0.339909
vt 0.183065 0.333510
vt 0.150269 0.333510
vt 0.118104 0.339909
vt 0.087804 0.352459
vt 0.060536 0.370679
vt 0.037346 0.393869
vt 0.019126 0.421138
vt 0.750130 0.000606
vt 0.006575 0.451437
vt 0.370679 0.606131
vt 0.500000 0.500000
vt 0.393869 0.629321
vt 0.421138 0.647541
vt 0.451437 0.660092
vt 0.483602 0.666490
vt 0.516398 0.666490
vt 0.548563 0.660092
vt 0.578862 0.647541
vt 0.606131 0.629321
vt 0.629321 0.606131
vt 0.647541 0.578862
vt 0.660091 0.548563
vt 0.666490 0.516398
vt 0.666490 0.483602
vt 0.660091 0.451437
vt 0.647541 0.421138
vt 0.629321 0.393869
vt 0.606131 0.370679
vt 0.578862 0.352459
vt 0.548563 0.339909
vt 0.516398 0.333511
vt 0.483602 0.333511
vt 0.451437 0.339909
vt 0.421138 0.352459
vt 0.393869 0.370679
vt 0.370679 0.393869
vt 0.352459 0.421138
vt 0.339909 0.451437
vt 0.333510 0.483602
vt 0.333510 0.516398
vt 0.339909 0.548563
vt 0.750130 0.000779
vt 0.352459 0.578863
vt 0.758800 0.814956
vt 0.831444 0.713772
s 0
usemtl Material
f 5/1/1 3/2/1 1/3/1
f 3/4/2 8/5/2 4/6/2
f 7/7/3 6/8/3 8/9/3
f 2/10/4 8/11/4 6/12/4
f 1/3/5 4/13/5 2/10/5
f 5/14/6 2/10/6 6/8/6
f 9/15/7 41/16/7 10/17/7
f 10/17/8 41/16/8 11/18/8
f 11/18/9 41/16/9 12/19/9
f 12/19/10 41/16/10 13/20/10
f 13/20/11 41/16/11 14/21/11
f 14/21/12 41/16/12 15/22/12
f 15/22/13 41/16/13 16/23/13
f 16/23/14 41/16/14 17/24/14
f 17/24/15 41/16/15 18/25/15
f 18/25/16 41/16/16 19/26/16
f 19/26/17 41/16/17 20/27/17
f 20/27/18 41/16/18 21/28/18
f 21/28/19 41/16/19 22/29/19
f 22/29/20 41/16/20 23/30/20
f 23/30/21 41/16/21 24/31/21
f 24/31/22 41/16/22 25/32/22
f 25/32/23 41/16/23 26/33/23
f 26/33/24 41/16/24 27/34/24
f 27/34/25 41/16/25 28/35/25
f 28/35/26 41/16/26 29/36/26
f 29/36/27 41/16/27 30/37/27
f 30/37/28 41/16/28 31/38/28
f 31/38/29 41/16/29 32/39/29
f 32/39/30 41/16/30 33/40/30
f 33/40/31 41/16/31 34/41/31
f 34/41/32 41/16/32 35/42/32
f 35/42/33 41/16/33 36/43/33
f 36/43/34 41/16/34 37/44/34
f 37/44/35 41/16/35 38/45/35
f 38/45/36 41/16/36 39/46/36
f 24/47/6 32/47/6 40/47/6
f 39/46/37 41/16/37 40/48/37
f 40/48/38 41/16/38 9/15/38
f 42/49/7 74/50/7 43/51/7
f 43/51/8 74/50/8 44/52/8
f 44/52/9 74/50/9 45/53/9
f 45/53/10 74/50/10 46/54/10
f 46/54/11 74/50/11 47/55/11
f 47/55/12 74/50/12 48/56/12
f 48/56/13 74/50/13 49/57/13
f 49/57/14 74/50/14 50/58/14
f 50/58/15 74/50/15 51/59/15
f 51/59/16 74/50/16 52/60/16
f 52/60/17 74/50/17 53/61/17
f 53/61/18 74/50/18 54/62/18
f 54/62/19 74/50/19 55/63/19
f 55/63/20 74/50/20 56/64/20
f 56/64/21 74/50/21 57/65/21
f 57/65/22 74/50/22 58/66/22
f 58/66/23 74/50/23 59/67/23
f 59/67/24 74/50/24 60/68/24
f 60/68/25 74/50/25 61/69/25
f 61/69/26 74/50/26 62/70/26
f 62/70/27 74/50/27 63/71/27
f 63/71/28 74/50/28 64/72/28
f 64/72/29 74/50/29 65/73/29
f 65/73/30 74/50/30 66/74/30
f 66/74/31 74/50/31 67/75/31
f 67/75/32 74/50/32 68/76/32
f 68/76/33 74/50/33 69/77/33
f 69/77/34 74/50/34 70/78/34
f 70/78/35 74/50/35 71/79/35
f 71/79/36 74/50/36 72/80/36
f 57/81/6 65/81/6 73/81/6
f 72/80/37 74/50/37 73/82/37
f 73/82/38 74/50/38 42/49/38
f 75/83/7 107/84/7 76/85/7
f 76/85/8 107/84/8 77/86/8
f 77/86/9 107/84/9 78/87/9
f 78/87/10 107/84/10 79/88/10
f 79/88/11 107/84/11 80/89/11
f 80/89/12 107/84/12 81/90/12
f 81/90/13 107/84/13 82/91/13
f 82/91/14 107/84/14 83/92/14
f 83/92/15 107/84/15 84/93/15
f 84/93/16 107/84/16 85/94/16
f 85/94/17 107/84/17 86/95/17
f 86/95/18 107/84/18 87/96/18
f 87/96/19 107/84/19 88/97/19
f 88/97/20 107/84/20 89/98/20
f 89/98/21 107/84/21 90/99/21
f 90/99/22 107/84/22 91/100/22
f 91/100/23 107/84/23 92/101/23
f 92/101/24 107/84/24 93/102/24
f 93/102/25 107/84/25 94/103/25
f 94/103/26 107/84/26 95/104/26
f 95/104/27 107/84/27 96/105/27
f 96/105/28 107/84/28 97/106/28
f 97/106/29 107/84/29 98/107/29
f 98/107/30 107/84/30 99/108/30
f 99/108/31 107/84/31 100/109/31
f 100/109/32 107/84/32 101/110/32
f 101/110/33 107/84/33 102/111/33
f 102/111/34 107/84/34 103/112/34
f 103/112/35 107/84/35 104/113/35
f 104/113/36 107/84/36 105/114/36
f 90/115/6 98/115/6 106/115/6
f 105/114/37 107/84/37 106/116/37
f 106/116/38 107/84/38 75/83/38
f 108/117/7 140/118/7 109/119/7
f 109/119/8 140/118/8 110/120/8
f 110/120/9 140/118/9 111/121/9
f 111/121/10 140/118/10 112/122/10
f 112/122/11 140/118/11 113/123/11
f 113/123/12 140/118/12 114/124/12
f 114/124/13 140/118/13 115/125/13
f 115/125/14 140/118/14 116/126/14
f 116/126/15 140/118/15 117/127/15
f 117/127/16 140/118/16 118/128/16
f 118/128/17 140/118/17 119/129/17
f 119/129/18 140/118/18 120/130/18
f 120/130/19 140/118/19 121/131/19
f 121/131/20 140/118/20 122/132/20
f 122/132/21 140/118/21 123/133/21
f 123/133/22 140/118/22 124/134/22
f 124/134/23 140/118/23 125/135/23
f 125/135/24 140/118/24 126/136/24
f 126/136/25 140/118/25 127/137/25
f 127/137/26 140/118/26 128/138/26
f 128/138/27 140/118/27 129/139/27
f 129/139/28 140/118/28 130/140/28
f 130/140/29 140/118/29 131/141/29
f 131/141/30 140/118/30 132/142/30
f 132/142/31 140/118/31 133/143/31
f 133/143/32 140/118/32 134/144/32
f 134/144/33 140/118/33 135/145/33
f 135/145/34 140/118/34 136/146/34
f 136/146/35 140/118/35 137/147/35
f 137/147/36 140/118/36 138/148/36
f 123/149/6 131/149/6 139/149/6
f 138/148/37 140/118/37 139/150/37
f 139/150/38 140/118/38 108/117/38
f 141/151/7 173/152/7 142/153/7
f 142/153/8 173/152/8 143/154/8
f 143/154/9 173/152/9 144/155/9
f 144/155/10 173/152/10 145/156/10
f 145/156/11 173/152/11 146/157/11
f 146/157/12 173/152/12 147/158/12
f 147/158/13 173/152/13 148/159/13
f 148/159/14 173/152/14 149/160/14
f 149/160/15 173/152/15 150/161/15
f 150/161/16 173/152/16 151/162/16
f 151/162/17 173/152/17 152/163/17
f 152/163/18 173/152/18 153/164/18
f 153/164/19 173/152/19 154/165/19
f 154/165/20 173/152/20 155/166/20
f 155/166/21 173/152/21 156/167/21
f 156/167/22 173/152/22 157/168/22
f 157/168/23 173/152/23 158/169/23
f 158/169/24 173/152/24 159/170/24
f 159/170/25 173/152/25 160/171/25
f 160/171/26 173/152/26 161/172/26
f 161/172/27 173/152/27 162/173/27
f 162/173/28 173/152/28 163/174/28
f 163/174/29 173/152/29 164/175/29
f 164/175/30 173/152/30 165/176/30
f 165/176/31 173/152/31 166/177/31
f 166/177/32 173/152/32 167/178/32
f 167/178/33 173/152/33 168/179/33
f 168/179/34 173/152/34 169/180/34
f 169/180/35 173/152/35 170/181/35
f 170/181/36 173/152/36 171/182/36
f 156/183/6 164/183/6 172/183/6
f 171/182/37 173/152/37 172/184/37
f 172/184/38 173/152/38 141/151/38
f 5/1/1 7/185/1 3/2/1
f 3/4/2 7/186/2 8/5/2
f 7/7/3 5/14/3 6/8/3
f 2/10/4 4/13/4 8/11/4
f 1/3/5 3/2/5 4/13/5
f 5/14/6 1/3/6 2/10/6
f 40/47/6 9/47/6 10/47/6
f 10/47/6 11/47/6 12/47/6
f 12/47/6 13/47/6 14/47/6
f 14/47/6 15/47/6 16/47/6
f 16/47/6 17/47/6 18/47/6
f 18/47/6 19/47/6 20/47/6
f 20/47/6 21/47/6 22/47/6
f 22/47/6 23/47/6 24/47/6
f 24/47/6 25/47/6 26/47/6
f 26/47/6 27/47/6 28/47/6
f 28/47/6 29/47/6 30/47/6
f 30/47/6 31/47/6 32/47/6
f 32/47/6 33/47/6 34/47/6
f 34/47/6 35/47/6 36/47/6
f 36/47/6 37/47/6 38/47/6
f 38/47/6 39/47/6 40/47/6
f 40/47/6 10/47/6 12/47/6
f 12/47/6 14/47/6 16/47/6
f 16/47/6 18/47/6 20/47/6
f 20/47/6 22/47/6 24/47/6
f 24/47/6 26/47/6 28/47/6
f 28/47/6 30/47/6 32/47/6
f 32/47/6 34/47/6 36/47/6
f 36/47/6 38/47/6 40/47/6
f 40/47/6 12/47/6 16/47/6
f 16/47/6 20/47/6 24/47/6
f 24/47/6 28/47/6 32/47/6
f 32/47/6 36/47/6 40/47/6
f 40/47/6 16/47/6 24/47/6
f 73/81/6 42/81/6 43/81/6
f 43/81/6 44/81/6 45/81/6
f 45/81/6 46/81/6 47/81/6
f 47/81/6 48/81/6 49/81/6
f 49/81/6 50/81/6 51/81/6
f 51/81/6 52/81/6 53/81/6
f 53/81/6 54/81/6 55/81/6
f 55/81/6 56/81/6 57/81/6
f 57/81/6 58/81/6 59/81/6
f 59/81/6 60/81/6 61/81/6
f 61/81/6 62/81/6 63/81/6
f 63/81/6 64/81/6 65/81/6
f 65/81/6 66/81/6 67/81/6
f 67/81/6 68/81/6 69/81/6
f 69/81/6 70/81/6 71/81/6
f 71/81/6 72/81/6 73/81/6
f 73/81/6 43/81/6 45/81/6
f 45/81/6 47/81/6 49/81/6
f 49/81/6 51/81/6 53/81/6
f 53/81/6 55/81/6 57/81/6
f 57/81/6 59/81/6 61/81/6
f 61/81/6 63/81/6 65/81/6
f 65/81/6 67/81/6 69/81/6
f 69/81/6 71/81/6 73/81/6
f 73/81/6 45/81/6 49/81/6
f 49/81/6 53/81/6 57/81/6
f 57/81/6 61/81/6 65/81/6
f 65/81/6 69/81/6 73/81/6
f 73/81/6 49/81/6 57/81/6
f 106/115/6 75/115/6 76/115/6
f 76/115/6 77/115/6 78/115/6
f 78/115/6 79/115/6 80/115/6
f 80/115/6 81/115/6 82/115/6
f 82/115/6 83/115/6 84/115/6
f 84/115/6 85/115/6 86/115/6
f 86/115/6 87/115/6 88/115/6
f 88/115/6 89/115/6 90/115/6
f 90/115/6 91/115/6 92/115/6
f 92/115/6 93/115/6 94/115/6
f 94/115/6 95/115/6 96/115/6
f 96/115/6 97/115/6 98/115/6
f 98/115/6 99/115/6 100/115/6
f 100/115/6 101/115/6 102/115/6
f 102/115/6 103/115/6 104/115/6
f 104/115/6 105/115/6 106/115/6
f 106/115/6 76/115/6 78/115/6
f 78/115/6 80/115/6 82/115/6
f 82/115/6 84/115/6 86/115/6
f 86/115/6 88/115/6 90/115/6
f 90/115/6 92/115/6 94/115/6
f 94/115/6 96/115/6 98/115/6
f 98/115/6 100/115/6 102/115/6
f 102/115/6 104/115/6 106/115/6
f 106/115/6 78/115/6 82/115/6
f 82/115/6 86/115/6 90/115/6
f 90/115/6 94/115/6 98/115/6
f 98/115/6 102/115/6 106/115/6
f 106/115/6 82/115/6 90/115/6
f 139/149/6 108/149/6 109/149/6
f 109/149/6 110/149/6 111/149/6
f 111/149/6 112/149/6 113/149/6
f 113/149/6 114/149/6 115/149/6
f 115/149/6 116/149/6 117/149/6
f 117/149/6 118/149/6 119/149/6
f 119/149/6 120/149/6 121/149/6
f 121/149/6 122/149/6 123/149/6
f 123/149/6 124/149/6 125/149/6
f 125/149/6 126/149/6 127/149/6
f 127/149/6 128/149/6 129/149/6
f 129/149/6 130/149/6 131/149/6
f 131/149/6 132/149/6 133/149/6
f 133/149/6 134/149/6 135/149/6
f 135/149/6 136/149/6 137/149/6
f 137/149/6 138/149/6 139/149/6
f 139/149/6 109/149/6 111/149/6
f 111/149/6 113/149/6 115/149/6
f 115/149/6 117/149/6 119/149/6
f 119/149/6 121/149/6 123/149/6
f 123/149/6 125/149/6 127/149/6
f 127/149/6 129/149/6 131/149/6
f 131/149/6 133/149/6 135/149/6
f 135/149/6 137/149/6 139/149/6
f 139/149/6 111/149/6 115/149/6
f 115/149/6 119/149/6 123/149/6
f 123/149/6 127/149/6 131/149/6
f 131/149/6 135/149/6 139/149/6
f 139/149/6 115/149/6 123/149/6
f 172/183/6 141/183/6 142/183/6
f 142/183/6 143/183/6 144/183/6
f 144/183/6 145/183/6 146/183/6
f 146/183/6 147/183/6 148/183/6
f 148/183/6 149/183/6 150/183/6
f 150/183/6 151/183/6 152/183/6
f 152/183/6 153/183/6 154/183/6
f 154/183/6 155/183/6 156/183/6
f 156/183/6 157/183/6 158/183/6
f 158/183/6 159/183/6 160/183/6
f 160/183/6 161/183/6 162/183/6
f 162/183/6 163/183/6 164/183/6
f 164/183/6 165/183/6 166/183/6
f 166/183/6 167/183/6 168/183/6
f 168/183/6 169/183/6 170/183/6
f 170/183/6 171/183/6 172/183/6
f 172/183/6 142/183/6 144/183/6
f 144/183/6 146/183/6 148/183/6
f 148/183/6 150/183/6 152/183/6
f 152/183/6 154/183/6 156/183/6
f 156/183/6 158/183/6 160/183/6
f 160/183/6 162/183/6 164/183/6
f 164/183/6 166/183/6 168/183/6
f 168/183/6 170/183/6 172/183/6
f 172/183/6 144/183/6 148/183/6
f 148/183/6 152/183/6 156/183/6
f 156/183/6 160/183/6 164/183/6
f 164/183/6 168/183/6 172/183/6
f 172/183/6 148/183/6 156/183/6
