# Blender 4.1.1
# www.blender.org
mtllib LeftLeg.mtl
o LeftLeg
v 0.094200 -0.079246 -0.051686
v 0.094200 0.091749 -0.051686
v 0.094200 -0.079246 0.108110
v 0.094200 0.091749 0.108110
v -0.106472 -0.079246 -0.051686
v -0.106472 0.091749 -0.051686
v -0.106472 -0.079246 0.108110
v -0.106472 0.091749 0.108110
v 0.174246 -0.330466 0.034549
v 0.174246 0.121952 0.034549
v 0.174246 -0.330466 0.312347
v 0.174246 0.121952 0.312347
v -0.186518 -0.330466 0.034549
v -0.186518 0.121952 0.034549
v -0.186518 -0.330466 0.312347
v -0.186518 0.121952 0.312347
v 0.130828 -0.783051 0.070721
v 0.174246 -0.330633 0.034549
v 0.130828 -0.783051 0.276175
v 0.174246 -0.330633 0.312347
v -0.143100 -0.783051 0.070721
v -0.186518 -0.330633 0.034549
v -0.143100 -0.783051 0.276175
v -0.186518 -0.330633 0.312347
v 0.094200 -0.818365 0.078866
v 0.094200 -0.700678 0.078866
v 0.094200 -0.818365 0.257889
v 0.094200 -0.700678 0.257889
v -0.106472 -0.818365 0.078866
v -0.106472 -0.700678 0.078866
v -0.106472 -0.818365 0.257889
v -0.106472 -0.700678 0.257889
v 0.118864 -1.525472 0.049621
v 0.118864 -0.822555 0.049621
v 0.118864 -1.525472 0.299621
v 0.118864 -0.822555 0.299621
v -0.131136 -1.525472 0.049621
v -0.131136 -0.822555 0.049621
v -0.131136 -1.525472 0.299621
v -0.131136 -0.822555 0.299621
v -0.434326 -1.599204 0.292213
v -0.434326 -1.667498 0.292213
v -0.434326 -1.599204 0.063365
v -0.434326 -1.667498 0.063365
v 0.113928 -1.412969 0.292213
v 0.113928 -1.667498 0.292213
v 0.113928 -1.412969 0.063365
v 0.113928 -1.667498 0.063365
vn 1.0000 -0.0000 -0.0000
vn -0.0000 -0.0000 1.0000
vn -1.0000 -0.0000 -0.0000
vn -0.0000 -0.0000 -1.0000
vn -0.0000 -1.0000 -0.0000
vn -0.0000 1.0000 -0.0000
vn 0.9954 -0.0955 -0.0000
vn -0.0000 -0.0797 0.9968
vn -0.9954 -0.0955 -0.0000
vn -0.0000 -0.0797 -0.9968
vn -0.3216 0.9469 -0.0000
vt 0.187639 0.503325
vt 0.189516 0.558774
vt 0.160853 0.530111
vt 0.127216 0.563748
vt 0.155879 0.592411
vt 0.100430 0.590534
vt 0.129093 0.619197
vt 0.066793 0.624171
vt 0.093578 0.530111
vt 0.066793 0.556896
vt 0.189516 0.626048
vt 0.287386 0.073310
vt 0.316657 0.195711
vt 0.240821 0.119876
vt 0.180348 0.180348
vt 0.256184 0.256184
vt 0.133783 0.226914
vt 0.209619 0.302750
vt 0.073310 0.287387
vt 0.073310 0.166441
vt 0.119875 0.119876
vt 0.270091 0.363223
vt 0.741596 0.532452
vt 0.620773 0.549506
vt 0.637401 0.503728
vt 0.719113 0.594349
vt 0.588327 0.605755
vt 0.634058 0.718882
vt 0.557025 0.643069
vt 0.507276 0.684802
vt 0.507276 0.601335
vt 0.538577 0.564021
vt 0.676381 0.668429
vt 0.699578 0.773845
vt 0.066677 0.913596
vt 0.116413 0.903314
vt 0.086404 0.933323
vt 0.096686 0.883587
vt 0.150050 0.869677
vt 0.160332 0.819941
vt 0.180059 0.839668
vt 0.213696 0.806031
vt 0.213696 0.873306
vt 0.183688 0.903314
vt 0.096686 0.816312
vt 0.130323 0.849950
vt 0.744445 0.298984
vt 0.685181 0.132353
vt 0.744445 0.132353
vt 0.685181 0.298984
vt 0.625917 0.132353
vt 0.625917 0.298984
vt 0.566653 0.132353
vt 0.566653 0.298984
vt 0.507389 0.132353
vt 0.625917 0.073089
vt 0.566653 0.073089
vt 0.625917 0.358248
vt 0.500000 0.500000
vt 0.375000 0.500000
vt 0.250000 0.375000
vt 0.375000 0.375000
vt 0.216302 0.531988
vt 0.095456 0.652834
vt 0.162730 0.652834
vt 0.363222 0.149146
vt 0.149146 0.363223
vt 0.316657 0.316657
vt 0.568538 0.773845
vt 0.741902 0.723393
vt 0.193969 0.786304
vt 0.126694 0.786304
vt 0.507389 0.298984
vt 0.566653 0.358248
s 0
usemtl Material.001
f 1/1/1 4/2/1 3/3/1
f 4/2/2 7/4/2 3/3/2
f 8/5/3 5/6/3 7/4/3
f 6/7/4 1/8/4 5/6/4
f 3/9/5 5/6/5 1/10/5
f 4/11/6 6/7/6 8/5/6
f 9/12/1 12/13/1 11/14/1
f 12/13/2 15/15/2 11/14/2
f 16/16/3 13/17/3 15/15/3
f 14/18/4 9/19/4 13/17/4
f 15/15/5 9/20/5 11/21/5
f 16/16/6 10/22/6 14/18/6
f 18/23/7 19/24/7 17/25/7
f 20/26/8 23/27/8 19/24/8
f 23/27/9 22/28/9 21/29/9
f 22/28/10 17/30/10 21/29/10
f 23/27/5 17/31/5 19/32/5
f 24/33/6 18/34/6 22/28/6
f 26/35/1 27/36/1 25/37/1
f 28/38/2 31/39/2 27/36/2
f 31/39/3 30/40/3 29/41/3
f 30/40/4 25/42/4 29/41/4
f 31/39/5 25/43/5 27/44/5
f 28/45/6 30/40/6 32/46/6
f 34/47/1 35/48/1 33/49/1
f 36/50/2 39/51/2 35/48/2
f 40/52/3 37/53/3 39/51/3
f 38/54/4 33/55/4 37/53/4
f 35/56/5 37/53/5 33/57/5
f 36/58/6 38/54/6 40/52/6
f 45/59/11 43/60/11 41/61/11
f 43/60/4 48/62/4 44/60/4
f 47/62/1 46/62/1 48/62/1
f 46/62/5 44/60/5 48/62/5
f 41/61/3 44/60/3 42/60/3
f 46/62/2 41/61/2 42/60/2
f 1/1/1 2/63/1 4/2/1
f 4/2/2 8/5/2 7/4/2
f 8/5/3 6/7/3 5/6/3
f 6/7/4 2/64/4 1/8/4
f 3/9/5 7/4/5 5/6/5
f 4/11/6 2/65/6 6/7/6
f 9/12/1 10/66/1 12/13/1
f 12/13/2 16/16/2 15/15/2
f 16/16/3 14/18/3 13/17/3
f 14/18/4 10/67/4 9/19/4
f 15/15/5 13/17/5 9/20/5
f 16/16/6 12/68/6 10/22/6
f 18/23/7 20/26/7 19/24/7
f 20/26/8 24/33/8 23/27/8
f 23/27/9 24/33/9 22/28/9
f 22/28/10 18/69/10 17/30/10
f 23/27/5 21/29/5 17/31/5
f 24/33/6 20/70/6 18/34/6
f 26/35/1 28/38/1 27/36/1
f 28/38/2 32/46/2 31/39/2
f 31/39/3 32/46/3 30/40/3
f 30/40/4 26/71/4 25/42/4
f 31/39/5 29/41/5 25/43/5
f 28/45/6 26/72/6 30/40/6
f 34/47/1 36/50/1 35/48/1
f 36/50/2 40/52/2 39/51/2
f 40/52/3 38/54/3 37/53/3
f 38/54/4 34/73/4 33/55/4
f 35/56/5 39/51/5 37/53/5
f 36/58/6 34/74/6 38/54/6
f 45/59/11 47/62/11 43/60/11
f 43/60/4 47/62/4 48/62/4
f 47/62/1 45/59/1 46/62/1
f 46/62/5 42/60/5 44/60/5
f 41/61/3 43/60/3 44/60/3
f 46/62/2 45/59/2 41/61/2
