# Blender 4.1.1
# www.blender.org
mtllib background.mtl
o 球
v 0.000000 83.857834 56.032013
v 0.000000 56.032013 83.857834
v 0.000000 19.675827 98.917053
v 0.000000 0.000000 100.854958
v 0.000000 -19.675827 98.917053
v 0.000000 -56.032013 83.857834
v -3.838563 98.917053 19.297760
v -7.529613 93.177826 37.853920
v -10.931304 83.857834 54.955372
v -13.912910 71.315224 69.944916
v -16.359852 56.032013 82.246521
v -18.178093 38.595524 91.387444
v -19.297760 19.675827 97.016388
v -19.675827 0.000000 98.917053
v -19.297760 -19.675827 97.016388
v -18.178093 -38.595524 91.387444
v -16.359852 -56.032013 82.246521
v -13.912910 -71.315224 69.944916
v -10.931304 -83.857834 54.955372
v -7.529613 -93.177826 37.853920
v -3.838563 -98.917053 19.297760
v -7.529612 98.917053 18.178093
v -14.769867 93.177826 35.657616
v -21.442524 83.857834 51.766823
v -27.291155 71.315224 65.886673
v -32.091000 56.032013 77.474525
v -35.657608 38.595524 86.085091
v -37.853920 19.675827 91.387444
v -38.595520 0.000000 93.177826
v -37.853920 -19.675827 91.387444
v -35.657608 -38.595524 86.085091
v -32.091000 -56.032013 77.474525
v -27.291155 -71.315224 65.886673
v -21.442524 -83.857834 51.766823
v -14.769867 -93.177826 35.657616
v -7.529612 -98.917053 18.178093
v -10.931302 98.917053 16.359850
v -21.442524 93.177826 32.091003
v -31.129717 83.857834 46.588909
v -39.620617 71.315224 59.296440
v -46.588909 56.032013 69.725227
v -51.766823 38.595524 77.474525
v -54.955372 19.675827 82.246521
v -56.032013 0.000000 83.857819
v -54.955372 -19.675827 82.246521
v -51.766823 -38.595524 77.474525
v -46.588909 -56.032013 69.725227
v -39.620617 -71.315224 59.296440
v -31.129717 -83.857834 46.588909
v -21.442524 -93.177826 32.091003
v -10.931302 -98.917053 16.359850
v -13.912909 98.917053 13.912908
v -27.291155 93.177826 27.291153
v -39.620613 83.857834 39.620605
v -50.427479 71.315224 50.427479
v -59.296432 56.032013 59.296429
v -65.886665 38.595524 65.886673
v -69.944916 19.675827 69.944916
v -71.315224 0.000000 71.315208
v -69.944916 -19.675827 69.944916
v -65.886665 -38.595524 65.886673
v -59.296432 -56.032013 59.296429
v -50.427479 -71.315224 50.427479
v -39.620613 -83.857834 39.620605
v -27.291155 -93.177826 27.291153
v -13.912909 -98.917053 13.912908
v -16.359850 98.917053 10.931301
v -32.091003 93.177826 21.442520
v -46.588913 83.857834 31.129711
v -59.296440 71.315224 39.620617
v -69.725235 56.032013 46.588902
v -77.474525 38.595524 51.766830
v -82.246521 19.675827 54.955360
v -83.857826 0.000000 56.031990
v -82.246521 -19.675827 54.955360
v -77.474525 -38.595524 51.766830
v -69.725235 -56.032013 46.588902
v -59.296440 -71.315224 39.620617
v -46.588913 -83.857834 31.129711
v -32.091003 -93.177826 21.442520
v -16.359850 -98.917053 10.931301
v 0.000000 100.854958 0.000000
v -18.178089 98.917053 7.529611
v -35.657608 93.177826 14.769864
v -51.766823 83.857834 21.442516
v -65.886673 71.315224 27.291155
v -77.474525 56.032013 32.090988
v -86.085083 38.595524 35.657616
v -91.387436 19.675827 37.853905
v -93.177818 0.000000 38.595501
v -91.387436 -19.675827 37.853905
v -86.085083 -38.595524 35.657616
v -77.474525 -56.032013 32.090988
v -65.886673 -71.315224 27.291155
v -51.766823 -83.857834 21.442516
v -35.657608 -93.177826 14.769864
v -18.178089 -98.917053 7.529611
v -19.297756 98.917053 3.838561
v -37.853916 93.177826 7.529611
v -54.955368 83.857834 10.931297
v -69.944916 71.315224 13.912911
v -82.246513 56.032013 16.359840
v -91.387436 38.595524 18.178097
v -97.016380 19.675827 19.297750
v -98.917038 0.000000 19.675806
v -97.016380 -19.675827 19.297750
v -91.387436 -38.595524 18.178097
v -82.246513 -56.032013 16.359840
v -69.944916 -71.315224 13.912911
v -54.955368 -83.857834 10.931297
v -37.853916 -93.177826 7.529611
v -19.297756 -98.917053 3.838561
v -19.675819 98.917053 -0.000001
v -38.595516 93.177826 -0.000002
v -56.032001 83.857834 -0.000005
v -71.315216 71.315224 0.000002
v -83.857811 56.032013 -0.000009
v -93.177826 38.595524 0.000005
v -98.917046 19.675827 -0.000009
v -100.854927 0.000000 -0.000017
v -98.917046 -19.675827 -0.000009
v -93.177826 -38.595524 0.000005
v -83.857811 -56.032013 -0.000009
v -71.315216 -71.315224 0.000002
v -56.032001 -83.857834 -0.000005
v -38.595516 -93.177826 -0.000002
v -19.675819 -98.917053 -0.000001
v -19.297754 98.917053 -3.838563
v -37.853916 93.177826 -7.529614
v -54.955360 83.857834 -10.931306
v -69.944916 71.315224 -13.912908
v -82.246506 56.032013 -16.359858
v -91.387436 38.595524 -18.178087
v -97.016373 19.675827 -19.297766
v -98.917015 0.000000 -19.675837
v -97.016373 -19.675827 -19.297766
v -91.387436 -38.595524 -18.178087
v -82.246506 -56.032013 -16.359858
v -69.944916 -71.315224 -13.912908
v -54.955360 -83.857834 -10.931306
v -37.853916 -93.177826 -7.529614
v -19.297754 -98.917053 -3.838563
v -18.178085 98.917053 -7.529611
v -35.657608 93.177826 -14.769867
v -51.766811 83.857834 -21.442524
v -65.886665 71.315224 -27.291149
v -77.474510 56.032013 -32.091003
v -86.085083 38.595524 -35.657604
v -91.387421 19.675827 -37.853920
v -93.177788 0.000000 -38.595524
v -91.387421 -19.675827 -37.853920
v -86.085083 -38.595524 -35.657604
v -77.474510 -56.032013 -32.091003
v -65.886665 -71.315224 -27.291149
v -51.766811 -83.857834 -21.442524
v -35.657608 -93.177826 -14.769867
v -18.178085 -98.917053 -7.529611
v -16.359844 98.917053 -10.931299
v -32.091000 93.177826 -21.442522
v -46.588898 83.857834 -31.129713
v -59.296432 71.315224 -39.620609
v -69.725212 56.032013 -46.588909
v -77.474525 38.595524 -51.766819
v -82.246506 19.675827 -54.955368
v -83.857780 0.000000 -56.032009
v -82.246506 -19.675827 -54.955368
v -77.474525 -38.595524 -51.766819
v -69.725212 -56.032013 -46.588909
v -59.296432 -71.315224 -39.620609
v -46.588898 -83.857834 -31.129713
v -32.091000 -93.177826 -21.442522
v -16.359844 -98.917053 -10.931299
v -13.912903 98.917053 -13.912904
v -27.291145 93.177826 -27.291153
v -39.620594 83.857834 -39.620609
v -50.427471 71.315224 -50.427471
v -59.296413 56.032013 -59.296429
v -65.886665 38.595524 -65.886658
v -69.944901 19.675827 -69.944916
v -71.315170 0.000000 -71.315208
v -69.944901 -19.675827 -69.944916
v -65.886665 -38.595524 -65.886658
v -59.296413 -56.032013 -59.296429
v -50.427471 -71.315224 -50.427471
v -39.620594 -83.857834 -39.620609
v -27.291145 -93.177826 -27.291153
v -13.912903 -98.917053 -13.912904
v -10.931297 98.917053 -16.359844
v -21.442514 93.177826 -32.091000
v -31.129700 83.857834 -46.588905
v -39.620609 71.315224 -59.296432
v -46.588894 56.032013 -69.725220
v -51.766823 38.595524 -77.474518
v -54.955349 19.675827 -82.246513
v -56.031960 0.000000 -83.857803
v -54.955349 -19.675827 -82.246513
v -51.766823 -38.595524 -77.474518
v -46.588894 -56.032013 -69.725220
v -39.620609 -71.315224 -59.296432
v -31.129700 -83.857834 -46.588905
v -21.442514 -93.177826 -32.091000
v -10.931297 -98.917053 -16.359844
v -7.529607 98.917053 -18.178083
v -14.769858 93.177826 -35.657604
v -21.442505 83.857834 -51.766811
v -27.291149 71.315224 -65.886665
v -32.090984 56.032013 -77.474510
v -35.657608 38.595524 -86.085068
v -37.853893 19.675827 -91.387421
v -38.595474 0.000000 -93.177795
v -37.853893 -19.675827 -91.387421
v -35.657608 -38.595524 -86.085068
v -32.090984 -56.032013 -77.474510
v -27.291149 -71.315224 -65.886665
v -21.442505 -83.857834 -51.766811
v -14.769858 -93.177826 -35.657604
v -7.529607 -98.917053 -18.178083
v -3.838560 98.917053 -19.297749
v -7.529605 93.177826 -37.853909
v -10.931289 83.857834 -54.955349
v -13.912908 71.315224 -69.944916
v -16.359837 56.032013 -82.246498
v -18.178093 38.595524 -91.387421
v -19.297741 19.675827 -97.016365
v -19.675785 0.000000 -98.917007
v -19.297741 -19.675827 -97.016365
v -18.178093 -38.595524 -91.387421
v -16.359837 -56.032013 -82.246498
v -13.912908 -71.315224 -69.944916
v -10.931289 -83.857834 -54.955349
v -7.529605 -93.177826 -37.853909
v -3.838560 -98.917053 -19.297749
v 0.000001 98.917053 -19.675814
v 0.000005 93.177826 -38.595512
v 0.000010 83.857834 -56.031982
v 0.000002 71.315224 -71.315208
v 0.000011 56.032013 -83.857803
v -0.000003 38.595524 -93.177803
v 0.000014 19.675827 -98.917023
v 0.000033 0.000000 -100.854889
v 0.000014 -19.675827 -98.917023
v -0.000003 -38.595524 -93.177803
v 0.000011 -56.032013 -83.857803
v 0.000002 -71.315224 -71.315208
v 0.000010 -83.857834 -56.031982
v 0.000005 -93.177826 -38.595512
v 0.000001 -98.917053 -19.675814
v 3.838561 98.917053 -19.297747
v 7.529616 93.177826 -37.853909
v 10.931308 83.857834 -54.955345
v 13.912909 71.315224 -69.944908
v 16.359856 56.032013 -82.246490
v 18.178085 38.595524 -91.387413
v 19.297768 19.675827 -97.016357
v 19.675846 0.000000 -98.916985
v 19.297768 -19.675827 -97.016357
v 18.178085 -38.595524 -91.387413
v 16.359856 -56.032013 -82.246490
v 13.912909 -71.315224 -69.944908
v 10.931308 -83.857834 -54.955345
v 7.529616 -93.177826 -37.853909
v 3.838561 -98.917053 -19.297747
v 7.529607 98.917053 -18.178080
v 14.769867 93.177826 -35.657604
v 21.442520 83.857834 -51.766792
v 27.291149 71.315224 -65.886658
v 32.091000 56.032013 -77.474495
v 35.657597 38.595524 -86.085060
v 37.853920 19.675827 -91.387405
v 38.595528 0.000000 -93.177750
v 37.853920 -19.675827 -91.387405
v 35.657597 -38.595524 -86.085060
v 32.091000 -56.032013 -77.474495
v 27.291149 -71.315224 -65.886658
v 21.442520 -83.857834 -51.766792
v 14.769867 -93.177826 -35.657604
v 7.529607 -98.917053 -18.178080
v 10.931295 98.917053 -16.359838
v 21.442520 93.177826 -32.090992
v 31.129707 83.857834 -46.588879
v 39.620609 71.315224 -59.296429
v 46.588902 56.032013 -69.725204
v 51.766808 38.595524 -77.474510
v 54.955368 19.675827 -82.246483
v 56.032001 0.000000 -83.857750
v 54.955368 -19.675827 -82.246483
v 51.766808 -38.595524 -77.474510
v 46.588902 -56.032013 -69.725204
v 39.620609 -71.315224 -59.296429
v 31.129707 -83.857834 -46.588879
v 21.442520 -93.177826 -32.090992
v 10.931295 -98.917053 -16.359838
v 13.912900 98.917053 -13.912898
v 27.291149 93.177826 -27.291143
v 39.620598 83.857834 -39.620579
v 50.427471 71.315224 -50.427467
v 59.296421 56.032013 -59.296402
v 65.886650 38.595524 -65.886658
v 69.944908 19.675827 -69.944885
v 71.315193 0.000000 -71.315140
v 69.944908 -19.675827 -69.944885
v 65.886650 -38.595524 -65.886658
v 59.296421 -56.032013 -59.296402
v 50.427471 -71.315224 -50.427467
v 39.620598 -83.857834 -39.620579
v 27.291149 -93.177826 -27.291143
v 13.912900 -98.917053 -13.912898
v 0.000000 -100.854958 0.000000
v 16.359838 98.917053 -10.931293
v 32.090996 93.177826 -21.442513
v 46.588890 83.857834 -31.129684
v 59.296429 71.315224 -39.620605
v 69.725212 56.032013 -46.588882
v 77.474503 38.595524 -51.766811
v 82.246506 19.675827 -54.955330
v 83.857780 0.000000 -56.031929
v 82.246506 -19.675827 -54.955330
v 77.474503 -38.595524 -51.766811
v 69.725212 -56.032013 -46.588882
v 59.296429 -71.315224 -39.620605
v 46.588890 -83.857834 -31.129684
v 32.090996 -93.177826 -21.442513
v 16.359838 -98.917053 -10.931293
v 18.178078 98.917053 -7.529604
v 35.657600 93.177826 -14.769856
v 51.766792 83.857834 -21.442493
v 65.886658 71.315224 -27.291145
v 77.474495 56.032013 -32.090969
v 86.085060 38.595524 -35.657600
v 91.387413 19.675827 -37.853878
v 93.177765 0.000000 -38.595444
v 91.387413 -19.675827 -37.853878
v 86.085060 -38.595524 -35.657600
v 77.474495 -56.032013 -32.090969
v 65.886658 -71.315224 -27.291145
v 51.766792 -83.857834 -21.442493
v 35.657600 -93.177826 -14.769856
v 18.178078 -98.917053 -7.529604
v 19.297745 98.917053 -3.838558
v 37.853905 93.177826 -7.529604
v 54.955330 83.857834 -10.931281
v 69.944908 71.315224 -13.912904
v 82.246483 56.032013 -16.359827
v 91.387413 38.595524 -18.178085
v 97.016357 19.675827 -19.297728
v 98.916969 0.000000 -19.675764
v 97.016357 -19.675827 -19.297728
v 91.387413 -38.595524 -18.178085
v 82.246483 -56.032013 -16.359827
v 69.944908 -71.315224 -13.912904
v 54.955330 -83.857834 -10.931281
v 37.853905 -93.177826 -7.529604
v 19.297745 -98.917053 -3.838558
v 19.675808 98.917053 0.000002
v 38.595501 93.177826 0.000005
v 56.031967 83.857834 0.000015
v 71.315208 71.315224 0.000003
v 83.857788 56.032013 0.000017
v 93.177795 38.595524 0.000002
v 98.917015 19.675827 0.000027
v 100.854858 0.000000 0.000045
v 98.917015 -19.675827 0.000027
v 93.177795 -38.595524 0.000002
v 83.857788 -56.032013 0.000017
v 71.315208 -71.315224 0.000003
v 56.031967 -83.857834 0.000015
v 38.595501 -93.177826 0.000005
v 19.675808 -98.917053 0.000002
v 19.297743 98.917053 3.838562
v 37.853901 93.177826 7.529614
v 54.955326 83.857834 10.931310
v 69.944901 71.315224 13.912910
v 82.246475 56.032013 16.359859
v 91.387405 38.595524 18.178087
v 97.016342 19.675827 19.297779
v 98.916954 0.000000 19.675852
v 97.016342 -19.675827 19.297779
v 91.387405 -38.595524 18.178087
v 82.246475 -56.032013 16.359859
v 69.944901 -71.315224 13.912910
v 54.955326 -83.857834 10.931310
v 37.853901 -93.177826 7.529614
v 19.297743 -98.917053 3.838562
v 18.178076 98.917053 7.529607
v 35.657593 93.177826 14.769864
v 51.766777 83.857834 21.442518
v 65.886658 71.315224 27.291149
v 77.474480 56.032013 32.091000
v 86.085052 38.595524 35.657597
v 91.387383 19.675827 37.853924
v 93.177719 0.000000 38.595528
v 91.387383 -19.675827 37.853924
v 86.085052 -38.595524 35.657597
v 77.474480 -56.032013 32.091000
v 65.886658 -71.315224 27.291149
v 51.766777 -83.857834 21.442518
v 35.657593 -93.177826 14.769864
v 18.178076 -98.917053 7.529607
v 16.359835 98.917053 10.931295
v 32.090984 93.177826 21.442516
v 46.588860 83.857834 31.129705
v 59.296421 71.315224 39.620605
v 69.725182 56.032013 46.588902
v 77.474495 38.595524 51.766808
v 82.246468 19.675827 54.955368
v 83.857719 0.000000 56.031994
v 82.246468 -19.675827 54.955368
v 77.474495 -38.595524 51.766808
v 69.725182 -56.032013 46.588902
v 59.296421 -71.315224 39.620605
v 46.588860 -83.857834 31.129705
v 32.090984 -93.177826 21.442516
v 16.359835 -98.917053 10.931295
v 13.912895 98.917053 13.912898
v 27.291138 93.177826 27.291143
v 39.620564 83.857834 39.620590
v 50.427460 71.315224 50.427467
v 59.296387 56.032013 59.296413
v 65.886642 38.595524 65.886642
v 69.944862 19.675827 69.944901
v 71.315117 0.000000 71.315178
v 69.944862 -19.675827 69.944901
v 65.886642 -38.595524 65.886642
v 59.296387 -56.032013 59.296413
v 50.427460 -71.315224 50.427467
v 39.620564 -83.857834 39.620590
v 27.291138 -93.177826 27.291143
v 13.912895 -98.917053 13.912898
v 10.931291 98.917053 16.359837
v 21.442507 93.177826 32.090988
v 31.129669 83.857834 46.588882
v 39.620598 71.315224 59.296429
v 46.588867 56.032013 69.725204
v 51.766800 38.595524 77.474495
v 54.955318 19.675827 82.246490
v 56.031910 0.000000 83.857765
v 54.955318 -19.675827 82.246490
v 51.766800 -38.595524 77.474495
v 46.588867 -56.032013 69.725204
v 39.620598 -71.315224 59.296429
v 31.129669 -83.857834 46.588882
v 21.442507 -93.177826 32.090988
v 10.931291 -98.917053 16.359837
v 7.529603 98.917053 18.178074
v 14.769854 93.177826 35.657597
v 21.442480 83.857834 51.766781
v 27.291140 71.315224 65.886658
v 32.090958 56.032013 77.474487
v 35.657589 38.595524 86.085052
v 37.853870 19.675827 91.387398
v 38.595432 0.000000 93.177734
v 37.853870 -19.675827 91.387398
v 35.657589 -38.595524 86.085052
v 32.090958 -56.032013 77.474487
v 27.291140 -71.315224 65.886658
v 21.442480 -83.857834 51.766781
v 14.769854 -93.177826 35.657597
v 7.529603 -98.917053 18.178074
v 3.838557 98.917053 19.297739
v 7.529602 93.177826 37.853901
v 10.931270 83.857834 54.955315
v 13.912898 71.315224 69.944908
v 16.359818 56.032013 82.246468
v 18.178078 38.595524 91.387398
v 19.297722 19.675827 97.016342
v 19.675756 0.000000 98.916946
v 19.297722 -19.675827 97.016342
v 18.178078 -38.595524 91.387398
v 16.359818 -56.032013 82.246468
v 13.912898 -71.315224 69.944908
v 10.931270 -83.857834 54.955315
v 7.529602 -93.177826 37.853901
v 3.838557 -98.917053 19.297739
v -0.000002 98.917053 19.675804
v -0.000007 93.177826 38.595501
v -0.000009 71.315224 71.315208
v -0.000006 38.595524 93.177780
v -0.000006 -38.595524 93.177780
v -0.000009 -71.315224 71.315208
v -0.000022 -83.857834 56.031940
v -0.000007 -93.177826 38.595501
v -0.000002 -98.917053 19.675804
vn -0.0000 -0.8286 -0.5598
vn -0.0000 -0.5528 -0.8333
vn -0.0000 -0.1939 -0.9810
vn -0.0000 -0.0000 -1.0000
vn -0.0000 0.1939 -0.9810
vn -0.0000 0.5528 -0.8333
vn 0.0392 -0.9796 -0.1971
vn 0.0757 -0.9217 -0.3804
vn 0.1092 -0.8286 -0.5490
vn 0.1385 -0.7041 -0.6965
vn 0.1626 -0.5528 -0.8173
vn 0.1804 -0.3805 -0.9070
vn 0.1914 -0.1939 -0.9622
vn 0.1951 -0.0000 -0.9808
vn 0.1914 0.1939 -0.9622
vn 0.1804 0.3805 -0.9070
vn 0.1626 0.5528 -0.8173
vn 0.1385 0.7041 -0.6965
vn 0.1092 0.8286 -0.5490
vn 0.0757 0.9217 -0.3804
vn 0.0392 0.9796 -0.1971
vn 0.0769 -0.9796 -0.1857
vn 0.1484 -0.9217 -0.3584
vn 0.2142 -0.8286 -0.5172
vn 0.2718 -0.7041 -0.6561
vn 0.3189 -0.5528 -0.7699
vn 0.3539 -0.3805 -0.8544
vn 0.3754 -0.1939 -0.9063
vn 0.3827 -0.0000 -0.9239
vn 0.3754 0.1939 -0.9063
vn 0.3539 0.3805 -0.8544
vn 0.3189 0.5528 -0.7699
vn 0.2718 0.7041 -0.6561
vn 0.2142 0.8286 -0.5172
vn 0.1484 0.9217 -0.3584
vn 0.0769 0.9796 -0.1857
vn 0.1117 -0.9796 -0.1671
vn 0.2155 -0.9217 -0.3225
vn 0.3110 -0.8286 -0.4654
vn 0.3945 -0.7041 -0.5905
vn 0.4630 -0.5528 -0.6929
vn 0.5138 -0.3805 -0.7689
vn 0.5450 -0.1939 -0.8157
vn 0.5556 -0.0000 -0.8315
vn 0.5450 0.1939 -0.8157
vn 0.5138 0.3805 -0.7689
vn 0.4630 0.5528 -0.6929
vn 0.3945 0.7041 -0.5905
vn 0.3110 0.8286 -0.4654
vn 0.2155 0.9217 -0.3225
vn 0.1117 0.9796 -0.1671
vn 0.1421 -0.9796 -0.1421
vn 0.2743 -0.9217 -0.2743
vn 0.3958 -0.8286 -0.3958
vn 0.5021 -0.7041 -0.5021
vn 0.5893 -0.5528 -0.5893
vn 0.6539 -0.3805 -0.6539
vn 0.6937 -0.1939 -0.6937
vn 0.7071 -0.0000 -0.7071
vn 0.6937 0.1939 -0.6937
vn 0.6539 0.3805 -0.6539
vn 0.5893 0.5528 -0.5893
vn 0.5021 0.7041 -0.5021
vn 0.3958 0.8286 -0.3958
vn 0.2743 0.9217 -0.2743
vn 0.1421 0.9796 -0.1421
vn 0.1671 -0.9796 -0.1117
vn 0.3225 -0.9217 -0.2155
vn 0.4654 -0.8286 -0.3110
vn 0.5905 -0.7041 -0.3945
vn 0.6929 -0.5528 -0.4630
vn 0.7689 -0.3805 -0.5138
vn 0.8157 -0.1939 -0.5450
vn 0.8315 -0.0000 -0.5556
vn 0.8157 0.1939 -0.5450
vn 0.7689 0.3805 -0.5138
vn 0.6929 0.5528 -0.4630
vn 0.5905 0.7041 -0.3945
vn 0.4654 0.8286 -0.3110
vn 0.3225 0.9217 -0.2155
vn 0.1671 0.9796 -0.1117
vn -0.0000 -1.0000 -0.0000
vn 0.1857 -0.9796 -0.0769
vn 0.3584 -0.9217 -0.1484
vn 0.5172 -0.8286 -0.2142
vn 0.6561 -0.7041 -0.2718
vn 0.7699 -0.5528 -0.3189
vn 0.8544 -0.3805 -0.3539
vn 0.9063 -0.1939 -0.3754
vn 0.9239 -0.0000 -0.3827
vn 0.9063 0.1939 -0.3754
vn 0.8544 0.3805 -0.3539
vn 0.7699 0.5528 -0.3189
vn 0.6561 0.7041 -0.2718
vn 0.5172 0.8286 -0.2142
vn 0.3584 0.9217 -0.1484
vn 0.1857 0.9796 -0.0769
vn 0.1971 -0.9796 -0.0392
vn 0.3804 -0.9217 -0.0757
vn 0.5490 -0.8286 -0.1092
vn 0.6965 -0.7041 -0.1385
vn 0.8173 -0.5528 -0.1626
vn 0.9070 -0.3805 -0.1804
vn 0.9622 -0.1939 -0.1914
vn 0.9808 -0.0000 -0.1951
vn 0.9622 0.1939 -0.1914
vn 0.9070 0.3805 -0.1804
vn 0.8173 0.5528 -0.1626
vn 0.6965 0.7041 -0.1385
vn 0.5490 0.8286 -0.1092
vn 0.3804 0.9217 -0.0757
vn 0.1971 0.9796 -0.0392
vn 0.2010 -0.9796 -0.0000
vn 0.3879 -0.9217 -0.0000
vn 0.5598 -0.8286 -0.0000
vn 0.7101 -0.7041 -0.0000
vn 0.8333 -0.5528 -0.0000
vn 0.9248 -0.3805 -0.0000
vn 0.9810 -0.1939 -0.0000
vn 1.0000 -0.0000 -0.0000
vn 0.9810 0.1939 -0.0000
vn 0.9248 0.3805 -0.0000
vn 0.8333 0.5528 -0.0000
vn 0.7101 0.7041 -0.0000
vn 0.5598 0.8286 -0.0000
vn 0.3879 0.9217 -0.0000
vn 0.2010 0.9796 -0.0000
vn 0.1971 -0.9796 0.0392
vn 0.3804 -0.9217 0.0757
vn 0.5490 -0.8286 0.1092
vn 0.6965 -0.7041 0.1385
vn 0.8173 -0.5528 0.1626
vn 0.9070 -0.3805 0.1804
vn 0.9622 -0.1939 0.1914
vn 0.9808 -0.0000 0.1951
vn 0.9622 0.1939 0.1914
vn 0.9070 0.3805 0.1804
vn 0.8173 0.5528 0.1626
vn 0.6965 0.7041 0.1385
vn 0.5490 0.8286 0.1092
vn 0.3804 0.9217 0.0757
vn 0.1971 0.9796 0.0392
vn 0.1857 -0.9796 0.0769
vn 0.3584 -0.9217 0.1484
vn 0.5172 -0.8286 0.2142
vn 0.6561 -0.7041 0.2718
vn 0.7699 -0.5528 0.3189
vn 0.8544 -0.3805 0.3539
vn 0.9063 -0.1939 0.3754
vn 0.9239 -0.0000 0.3827
vn 0.9063 0.1939 0.3754
vn 0.8544 0.3805 0.3539
vn 0.7699 0.5528 0.3189
vn 0.6561 0.7041 0.2718
vn 0.5172 0.8286 0.2142
vn 0.3584 0.9217 0.1484
vn 0.1857 0.9796 0.0769
vn 0.1671 -0.9796 0.1117
vn 0.3225 -0.9217 0.2155
vn 0.4654 -0.8286 0.3110
vn 0.5905 -0.7041 0.3945
vn 0.6929 -0.5528 0.4630
vn 0.7689 -0.3805 0.5138
vn 0.8157 -0.1939 0.5450
vn 0.8315 -0.0000 0.5556
vn 0.8157 0.1939 0.5450
vn 0.7689 0.3805 0.5138
vn 0.6929 0.5528 0.4630
vn 0.5905 0.7041 0.3945
vn 0.4654 0.8286 0.3110
vn 0.3225 0.9217 0.2155
vn 0.1671 0.9796 0.1117
vn 0.1421 -0.9796 0.1421
vn 0.2743 -0.9217 0.2743
vn 0.3958 -0.8286 0.3958
vn 0.5021 -0.7041 0.5021
vn 0.5893 -0.5528 0.5893
vn 0.6539 -0.3805 0.6539
vn 0.6937 -0.1939 0.6937
vn 0.7071 -0.0000 0.7071
vn 0.6937 0.1939 0.6937
vn 0.6539 0.3805 0.6539
vn 0.5893 0.5528 0.5893
vn 0.5021 0.7041 0.5021
vn 0.3958 0.8286 0.3958
vn 0.2743 0.9217 0.2743
vn 0.1421 0.9796 0.1421
vn 0.1117 -0.9796 0.1671
vn 0.2155 -0.9217 0.3225
vn 0.3110 -0.8286 0.4654
vn 0.3945 -0.7041 0.5905
vn 0.4630 -0.5528 0.6929
vn 0.5138 -0.3805 0.7689
vn 0.5450 -0.1939 0.8157
vn 0.5556 -0.0000 0.8315
vn 0.5450 0.1939 0.8157
vn 0.5138 0.3805 0.7689
vn 0.4630 0.5528 0.6929
vn 0.3945 0.7041 0.5905
vn 0.3110 0.8286 0.4654
vn 0.2155 0.9217 0.3225
vn 0.1117 0.9796 0.1671
vn 0.0769 -0.9796 0.1857
vn 0.1484 -0.9217 0.3584
vn 0.2142 -0.8286 0.5172
vn 0.2718 -0.7041 0.6561
vn 0.3189 -0.5528 0.7699
vn 0.3539 -0.3805 0.8544
vn 0.3754 -0.1939 0.9063
vn 0.3827 -0.0000 0.9239
vn 0.3754 0.1939 0.9063
vn 0.3539 0.3805 0.8544
vn 0.3189 0.5528 0.7699
vn 0.2718 0.7041 0.6561
vn 0.2142 0.8286 0.5172
vn 0.1484 0.9217 0.3584
vn 0.0769 0.9796 0.1857
vn 0.0392 -0.9796 0.1971
vn 0.0757 -0.9217 0.3804
vn 0.1092 -0.8286 0.5490
vn 0.1385 -0.7041 0.6965
vn 0.1626 -0.5528 0.8173
vn 0.1804 -0.3805 0.9070
vn 0.1914 -0.1939 0.9622
vn 0.1951 -0.0000 0.9808
vn 0.1914 0.1939 0.9622
vn 0.1804 0.3805 0.9070
vn 0.1626 0.5528 0.8173
vn 0.1385 0.7041 0.6965
vn 0.1092 0.8286 0.5490
vn 0.0757 0.9217 0.3804
vn 0.0392 0.9796 0.1971
vn -0.0000 -0.9796 0.2010
vn -0.0000 -0.9217 0.3879
vn -0.0000 -0.8286 0.5598
vn -0.0000 -0.7041 0.7101
vn -0.0000 -0.5528 0.8333
vn -0.0000 -0.3805 0.9248
vn -0.0000 -0.1939 0.9810
vn -0.0000 -0.0000 1.0000
vn -0.0000 0.1939 0.9810
vn -0.0000 0.3805 0.9248
vn -0.0000 0.5528 0.8333
vn -0.0000 0.7041 0.7101
vn -0.0000 0.8286 0.5598
vn -0.0000 0.9217 0.3879
vn -0.0000 0.9796 0.2010
vn -0.0392 -0.9796 0.1971
vn -0.0757 -0.9217 0.3804
vn -0.1092 -0.8286 0.5490
vn -0.1385 -0.7041 0.6965
vn -0.1626 -0.5528 0.8173
vn -0.1804 -0.3805 0.9070
vn -0.1914 -0.1939 0.9622
vn -0.1951 -0.0000 0.9808
vn -0.1914 0.1939 0.9622
vn -0.1804 0.3805 0.9070
vn -0.1626 0.5528 0.8173
vn -0.1385 0.7041 0.6965
vn -0.1092 0.8286 0.5490
vn -0.0757 0.9217 0.3804
vn -0.0392 0.9796 0.1971
vn -0.0769 -0.9796 0.1857
vn -0.1484 -0.9217 0.3584
vn -0.2142 -0.8286 0.5172
vn -0.2718 -0.7041 0.6561
vn -0.3189 -0.5528 0.7699
vn -0.3539 -0.3805 0.8544
vn -0.3754 -0.1939 0.9063
vn -0.3827 -0.0000 0.9239
vn -0.3754 0.1939 0.9063
vn -0.3539 0.3805 0.8544
vn -0.3189 0.5528 0.7699
vn -0.2718 0.7041 0.6561
vn -0.2142 0.8286 0.5172
vn -0.1484 0.9217 0.3584
vn -0.0769 0.9796 0.1857
vn -0.1117 -0.9796 0.1671
vn -0.2155 -0.9217 0.3225
vn -0.3110 -0.8286 0.4654
vn -0.3945 -0.7041 0.5905
vn -0.4630 -0.5528 0.6929
vn -0.5138 -0.3805 0.7689
vn -0.5450 -0.1939 0.8157
vn -0.5556 -0.0000 0.8315
vn -0.5450 0.1939 0.8157
vn -0.5138 0.3805 0.7689
vn -0.4630 0.5528 0.6929
vn -0.3945 0.7041 0.5905
vn -0.3110 0.8286 0.4654
vn -0.2155 0.9217 0.3225
vn -0.1117 0.9796 0.1671
vn -0.1421 -0.9796 0.1421
vn -0.2743 -0.9217 0.2743
vn -0.3958 -0.8286 0.3958
vn -0.5021 -0.7041 0.5021
vn -0.5893 -0.5528 0.5893
vn -0.6539 -0.3805 0.6539
vn -0.6937 -0.1939 0.6937
vn -0.7071 -0.0000 0.7071
vn -0.6937 0.1939 0.6937
vn -0.6539 0.3805 0.6539
vn -0.5893 0.5528 0.5893
vn -0.5021 0.7041 0.5021
vn -0.3958 0.8286 0.3958
vn -0.2743 0.9217 0.2743
vn -0.1421 0.9796 0.1421
vn -0.0000 1.0000 -0.0000
vn -0.1671 -0.9796 0.1117
vn -0.3225 -0.9217 0.2155
vn -0.4654 -0.8286 0.3110
vn -0.5905 -0.7041 0.3945
vn -0.6929 -0.5528 0.4630
vn -0.7689 -0.3805 0.5138
vn -0.8157 -0.1939 0.5450
vn -0.8315 -0.0000 0.5556
vn -0.8157 0.1939 0.5450
vn -0.7689 0.3805 0.5138
vn -0.6929 0.5528 0.4630
vn -0.5905 0.7041 0.3945
vn -0.4654 0.8286 0.3110
vn -0.3225 0.9217 0.2155
vn -0.1671 0.9796 0.1117
vn -0.1857 -0.9796 0.0769
vn -0.3584 -0.9217 0.1484
vn -0.5172 -0.8286 0.2142
vn -0.6561 -0.7041 0.2718
vn -0.7699 -0.5528 0.3189
vn -0.8544 -0.3805 0.3539
vn -0.9063 -0.1939 0.3754
vn -0.9239 -0.0000 0.3827
vn -0.9063 0.1939 0.3754
vn -0.8544 0.3805 0.3539
vn -0.7699 0.5528 0.3189
vn -0.6561 0.7041 0.2718
vn -0.5172 0.8286 0.2142
vn -0.3584 0.9217 0.1484
vn -0.1857 0.9796 0.0769
vn -0.1971 -0.9796 0.0392
vn -0.3804 -0.9217 0.0757
vn -0.5490 -0.8286 0.1092
vn -0.6965 -0.7041 0.1385
vn -0.8173 -0.5528 0.1626
vn -0.9070 -0.3805 0.1804
vn -0.9622 -0.1939 0.1914
vn -0.9808 -0.0000 0.1951
vn -0.9622 0.1939 0.1914
vn -0.9070 0.3805 0.1804
vn -0.8173 0.5528 0.1626
vn -0.6965 0.7041 0.1385
vn -0.5490 0.8286 0.1092
vn -0.3804 0.9217 0.0757
vn -0.1971 0.9796 0.0392
vn -0.2010 -0.9796 -0.0000
vn -0.3879 -0.9217 -0.0000
vn -0.5598 -0.8286 -0.0000
vn -0.7101 -0.7041 -0.0000
vn -0.8333 -0.5528 -0.0000
vn -0.9248 -0.3805 -0.0000
vn -0.9810 -0.1939 -0.0000
vn -1.0000 -0.0000 -0.0000
vn -0.9810 0.1939 -0.0000
vn -0.9248 0.3805 -0.0000
vn -0.8333 0.5528 -0.0000
vn -0.7101 0.7041 -0.0000
vn -0.5598 0.8286 -0.0000
vn -0.3879 0.9217 -0.0000
vn -0.2010 0.9796 -0.0000
vn -0.1971 -0.9796 -0.0392
vn -0.3804 -0.9217 -0.0757
vn -0.5490 -0.8286 -0.1092
vn -0.6965 -0.7041 -0.1385
vn -0.8173 -0.5528 -0.1626
vn -0.9070 -0.3805 -0.1804
vn -0.9622 -0.1939 -0.1914
vn -0.9808 -0.0000 -0.1951
vn -0.9622 0.1939 -0.1914
vn -0.9070 0.3805 -0.1804
vn -0.8173 0.5528 -0.1626
vn -0.6965 0.7041 -0.1385
vn -0.5490 0.8286 -0.1092
vn -0.3804 0.9217 -0.0757
vn -0.1971 0.9796 -0.0392
vn -0.1857 -0.9796 -0.0769
vn -0.3584 -0.9217 -0.1484
vn -0.5172 -0.8286 -0.2142
vn -0.6561 -0.7041 -0.2718
vn -0.7699 -0.5528 -0.3189
vn -0.8544 -0.3805 -0.3539
vn -0.9063 -0.1939 -0.3754
vn -0.9239 -0.0000 -0.3827
vn -0.9063 0.1939 -0.3754
vn -0.8544 0.3805 -0.3539
vn -0.7699 0.5528 -0.3189
vn -0.6561 0.7041 -0.2718
vn -0.5172 0.8286 -0.2142
vn -0.3584 0.9217 -0.1484
vn -0.1857 0.9796 -0.0769
vn -0.1671 -0.9796 -0.1117
vn -0.3225 -0.9217 -0.2155
vn -0.4654 -0.8286 -0.3110
vn -0.5905 -0.7041 -0.3945
vn -0.6929 -0.5528 -0.4630
vn -0.7689 -0.3805 -0.5138
vn -0.8157 -0.1939 -0.5450
vn -0.8315 -0.0000 -0.5556
vn -0.8157 0.1939 -0.5450
vn -0.7689 0.3805 -0.5138
vn -0.6929 0.5528 -0.4630
vn -0.5905 0.7041 -0.3945
vn -0.4654 0.8286 -0.3110
vn -0.3225 0.9217 -0.2155
vn -0.1671 0.9796 -0.1117
vn -0.1421 -0.9796 -0.1421
vn -0.2743 -0.9217 -0.2743
vn -0.3958 -0.8286 -0.3958
vn -0.5021 -0.7041 -0.5021
vn -0.5893 -0.5528 -0.5893
vn -0.6539 -0.3805 -0.6539
vn -0.6937 -0.1939 -0.6937
vn -0.7071 -0.0000 -0.7071
vn -0.6937 0.1939 -0.6937
vn -0.6539 0.3805 -0.6539
vn -0.5893 0.5528 -0.5893
vn -0.5021 0.7041 -0.5021
vn -0.3958 0.8286 -0.3958
vn -0.2743 0.9217 -0.2743
vn -0.1421 0.9796 -0.1421
vn -0.1117 -0.9796 -0.1671
vn -0.2155 -0.9217 -0.3225
vn -0.3110 -0.8286 -0.4654
vn -0.3945 -0.7041 -0.5905
vn -0.4630 -0.5528 -0.6929
vn -0.5138 -0.3805 -0.7689
vn -0.5450 -0.1939 -0.8157
vn -0.5556 -0.0000 -0.8315
vn -0.5450 0.1939 -0.8157
vn -0.5138 0.3805 -0.7689
vn -0.4630 0.5528 -0.6929
vn -0.3945 0.7041 -0.5905
vn -0.3110 0.8286 -0.4654
vn -0.2155 0.9217 -0.3225
vn -0.1117 0.9796 -0.1671
vn -0.0769 -0.9796 -0.1857
vn -0.1484 -0.9217 -0.3584
vn -0.2142 -0.8286 -0.5172
vn -0.2718 -0.7041 -0.6561
vn -0.3189 -0.5528 -0.7699
vn -0.3539 -0.3805 -0.8544
vn -0.3754 -0.1939 -0.9063
vn -0.3827 -0.0000 -0.9239
vn -0.3754 0.1939 -0.9063
vn -0.3539 0.3805 -0.8544
vn -0.3189 0.5528 -0.7699
vn -0.2718 0.7041 -0.6561
vn -0.2142 0.8286 -0.5172
vn -0.1484 0.9217 -0.3584
vn -0.0769 0.9796 -0.1857
vn -0.0392 -0.9796 -0.1971
vn -0.0757 -0.9217 -0.3804
vn -0.1092 -0.8286 -0.5490
vn -0.1385 -0.7041 -0.6965
vn -0.1626 -0.5528 -0.8173
vn -0.1804 -0.3805 -0.9070
vn -0.1914 -0.1939 -0.9622
vn -0.1951 -0.0000 -0.9808
vn -0.1914 0.1939 -0.9622
vn -0.1804 0.3805 -0.9070
vn -0.1626 0.5528 -0.8173
vn -0.1385 0.7041 -0.6965
vn -0.1092 0.8286 -0.5490
vn -0.0757 0.9217 -0.3804
vn -0.0392 0.9796 -0.1971
vn -0.0000 -0.9796 -0.2010
vn -0.0000 -0.9217 -0.3879
vn -0.0000 -0.7041 -0.7101
vn -0.0000 -0.3805 -0.9248
vn -0.0000 0.3805 -0.9248
vn -0.0000 0.7041 -0.7101
vn -0.0000 0.8286 -0.5598
vn -0.0000 0.9217 -0.3879
vn -0.0000 0.9796 -0.2010
vt 0.750000 0.375000
vt 0.718750 0.375000
vt 0.718750 0.437500
vt 0.750000 0.437500
vt 0.750000 0.812500
vt 0.718750 0.812500
vt 0.718750 0.875000
vt 0.750000 0.875000
vt 0.750000 0.312500
vt 0.718750 0.312500
vt 0.750000 0.750000
vt 0.718750 0.750000
vt 0.750000 0.250000
vt 0.718750 0.250000
vt 0.750000 0.687500
vt 0.718750 0.687500
vt 0.750000 0.187500
vt 0.718750 0.187500
vt 0.750000 0.625000
vt 0.718750 0.625000
vt 0.750000 0.125000
vt 0.718750 0.125000
vt 0.750000 0.562500
vt 0.718750 0.562500
vt 0.750000 0.062500
vt 0.718750 0.062500
vt 0.750000 0.500000
vt 0.718750 0.500000
vt 0.750000 0.937500
vt 0.718750 0.937500
vt 0.734375 1.000000
vt 0.734375 0.000000
vt 0.687500 0.937500
vt 0.703125 1.000000
vt 0.703125 0.000000
vt 0.687500 0.062500
vt 0.687500 0.437500
vt 0.687500 0.500000
vt 0.687500 0.875000
vt 0.687500 0.375000
vt 0.687500 0.812500
vt 0.687500 0.312500
vt 0.687500 0.750000
vt 0.687500 0.250000
vt 0.687500 0.687500
vt 0.687500 0.187500
vt 0.687500 0.625000
vt 0.687500 0.125000
vt 0.687500 0.562500
vt 0.656250 0.687500
vt 0.656250 0.750000
vt 0.656250 0.187500
vt 0.656250 0.250000
vt 0.656250 0.625000
vt 0.656250 0.125000
vt 0.656250 0.562500
vt 0.656250 0.062500
vt 0.656250 0.500000
vt 0.656250 0.937500
vt 0.671875 1.000000
vt 0.671875 0.000000
vt 0.656250 0.437500
vt 0.656250 0.875000
vt 0.656250 0.375000
vt 0.656250 0.812500
vt 0.656250 0.312500
vt 0.625000 0.437500
vt 0.625000 0.500000
vt 0.625000 0.875000
vt 0.625000 0.937500
vt 0.625000 0.375000
vt 0.625000 0.812500
vt 0.625000 0.312500
vt 0.625000 0.750000
vt 0.625000 0.250000
vt 0.625000 0.687500
vt 0.625000 0.187500
vt 0.625000 0.625000
vt 0.625000 0.125000
vt 0.625000 0.562500
vt 0.625000 0.062500
vt 0.640625 1.000000
vt 0.640625 0.000000
vt 0.593750 0.187500
vt 0.593750 0.250000
vt 0.593750 0.625000
vt 0.593750 0.687500
vt 0.593750 0.125000
vt 0.593750 0.562500
vt 0.593750 0.062500
vt 0.593750 0.500000
vt 0.593750 0.937500
vt 0.609375 1.000000
vt 0.609375 0.000000
vt 0.593750 0.437500
vt 0.593750 0.875000
vt 0.593750 0.375000
vt 0.593750 0.812500
vt 0.593750 0.312500
vt 0.593750 0.750000
vt 0.562500 0.375000
vt 0.562500 0.437500
vt 0.562500 0.812500
vt 0.562500 0.875000
vt 0.562500 0.312500
vt 0.562500 0.750000
vt 0.562500 0.250000
vt 0.562500 0.687500
vt 0.562500 0.187500
vt 0.562500 0.625000
vt 0.562500 0.125000
vt 0.562500 0.562500
vt 0.562500 0.062500
vt 0.562500 0.500000
vt 0.562500 0.937500
vt 0.578125 1.000000
vt 0.578125 0.000000
vt 0.531250 0.125000
vt 0.531250 0.187500
vt 0.531250 0.562500
vt 0.531250 0.625000
vt 0.531250 0.062500
vt 0.531250 0.500000
vt 0.531250 0.937500
vt 0.546875 1.000000
vt 0.546875 0.000000
vt 0.531250 0.437500
vt 0.531250 0.875000
vt 0.531250 0.375000
vt 0.531250 0.812500
vt 0.531250 0.312500
vt 0.531250 0.750000
vt 0.531250 0.250000
vt 0.531250 0.687500
vt 0.500000 0.812500
vt 0.500000 0.875000
vt 0.500000 0.312500
vt 0.500000 0.375000
vt 0.500000 0.750000
vt 0.500000 0.250000
vt 0.500000 0.687500
vt 0.500000 0.187500
vt 0.500000 0.625000
vt 0.500000 0.125000
vt 0.500000 0.562500
vt 0.500000 0.062500
vt 0.500000 0.500000
vt 0.500000 0.937500
vt 0.515625 1.000000
vt 0.515625 0.000000
vt 0.500000 0.437500
vt 0.468750 0.562500
vt 0.468750 0.625000
vt 0.468750 0.062500
vt 0.468750 0.125000
vt 0.468750 0.500000
vt 0.468750 0.937500
vt 0.484375 1.000000
vt 0.484375 0.000000
vt 0.468750 0.437500
vt 0.468750 0.875000
vt 0.468750 0.375000
vt 0.468750 0.812500
vt 0.468750 0.312500
vt 0.468750 0.750000
vt 0.468750 0.250000
vt 0.468750 0.687500
vt 0.468750 0.187500
vt 0.437500 0.312500
vt 0.437500 0.375000
vt 0.437500 0.750000
vt 0.437500 0.812500
vt 0.437500 0.250000
vt 0.437500 0.687500
vt 0.437500 0.187500
vt 0.437500 0.625000
vt 0.437500 0.125000
vt 0.437500 0.562500
vt 0.437500 0.062500
vt 0.437500 0.500000
vt 0.437500 0.937500
vt 0.453125 1.000000
vt 0.453125 0.000000
vt 0.437500 0.437500
vt 0.437500 0.875000
vt 0.406250 0.062500
vt 0.406250 0.125000
vt 0.406250 0.500000
vt 0.406250 0.562500
vt 0.406250 0.937500
vt 0.421875 1.000000
vt 0.421875 0.000000
vt 0.406250 0.437500
vt 0.406250 0.875000
vt 0.406250 0.375000
vt 0.406250 0.812500
vt 0.406250 0.312500
vt 0.406250 0.750000
vt 0.406250 0.250000
vt 0.406250 0.687500
vt 0.406250 0.187500
vt 0.406250 0.625000
vt 0.375000 0.750000
vt 0.375000 0.812500
vt 0.375000 0.250000
vt 0.375000 0.312500
vt 0.375000 0.687500
vt 0.375000 0.187500
vt 0.375000 0.625000
vt 0.375000 0.125000
vt 0.375000 0.562500
vt 0.375000 0.062500
vt 0.375000 0.500000
vt 0.375000 0.937500
vt 0.390625 1.000000
vt 0.390625 0.000000
vt 0.375000 0.437500
vt 0.375000 0.875000
vt 0.375000 0.375000
vt 0.343750 0.500000
vt 0.343750 0.562500
vt 0.343750 0.937500
vt 0.359375 1.000000
vt 0.359375 0.000000
vt 0.343750 0.062500
vt 0.343750 0.437500
vt 0.343750 0.875000
vt 0.343750 0.375000
vt 0.343750 0.812500
vt 0.343750 0.312500
vt 0.343750 0.750000
vt 0.343750 0.250000
vt 0.343750 0.687500
vt 0.343750 0.187500
vt 0.343750 0.625000
vt 0.343750 0.125000
vt 0.312500 0.250000
vt 0.312500 0.312500
vt 0.312500 0.687500
vt 0.312500 0.750000
vt 0.312500 0.187500
vt 0.312500 0.625000
vt 0.312500 0.125000
vt 0.312500 0.562500
vt 0.312500 0.062500
vt 0.312500 0.500000
vt 0.312500 0.937500
vt 0.328125 1.000000
vt 0.328125 0.000000
vt 0.312500 0.437500
vt 0.312500 0.875000
vt 0.312500 0.375000
vt 0.312500 0.812500
vt 0.296875 0.000000
vt 0.281250 0.062500
vt 0.281250 0.437500
vt 0.281250 0.500000
vt 0.281250 0.875000
vt 0.281250 0.937500
vt 0.281250 0.375000
vt 0.281250 0.812500
vt 0.281250 0.312500
vt 0.281250 0.750000
vt 0.281250 0.250000
vt 0.281250 0.687500
vt 0.281250 0.187500
vt 0.281250 0.625000
vt 0.281250 0.125000
vt 0.281250 0.562500
vt 0.296875 1.000000
vt 0.250000 0.187500
vt 0.250000 0.250000
vt 0.250000 0.625000
vt 0.250000 0.687500
vt 0.250000 0.125000
vt 0.250000 0.562500
vt 0.250000 0.062500
vt 0.250000 0.500000
vt 0.250000 0.937500
vt 0.265625 1.000000
vt 0.265625 0.000000
vt 0.250000 0.437500
vt 0.250000 0.875000
vt 0.250000 0.375000
vt 0.250000 0.812500
vt 0.250000 0.312500
vt 0.250000 0.750000
vt 0.218750 0.875000
vt 0.218750 0.937500
vt 0.218750 0.375000
vt 0.218750 0.437500
vt 0.218750 0.812500
vt 0.218750 0.312500
vt 0.218750 0.750000
vt 0.218750 0.250000
vt 0.218750 0.687500
vt 0.218750 0.187500
vt 0.218750 0.625000
vt 0.218750 0.125000
vt 0.218750 0.562500
vt 0.218750 0.062500
vt 0.218750 0.500000
vt 0.234375 1.000000
vt 0.234375 0.000000
vt 0.187500 0.625000
vt 0.187500 0.687500
vt 0.187500 0.125000
vt 0.187500 0.187500
vt 0.187500 0.562500
vt 0.187500 0.062500
vt 0.187500 0.500000
vt 0.187500 0.937500
vt 0.203125 1.000000
vt 0.203125 0.000000
vt 0.187500 0.437500
vt 0.187500 0.875000
vt 0.187500 0.375000
vt 0.187500 0.812500
vt 0.187500 0.312500
vt 0.187500 0.750000
vt 0.187500 0.250000
vt 0.156250 0.375000
vt 0.156250 0.437500
vt 0.156250 0.812500
vt 0.156250 0.875000
vt 0.156250 0.312500
vt 0.156250 0.750000
vt 0.156250 0.250000
vt 0.156250 0.687500
vt 0.156250 0.187500
vt 0.156250 0.625000
vt 0.156250 0.125000
vt 0.156250 0.562500
vt 0.156250 0.062500
vt 0.156250 0.500000
vt 0.156250 0.937500
vt 0.171875 1.000000
vt 0.171875 0.000000
vt 0.125000 0.125000
vt 0.125000 0.187500
vt 0.125000 0.562500
vt 0.125000 0.625000
vt 0.125000 0.062500
vt 0.125000 0.500000
vt 0.125000 0.937500
vt 0.140625 1.000000
vt 0.140625 0.000000
vt 0.125000 0.437500
vt 0.125000 0.875000
vt 0.125000 0.375000
vt 0.125000 0.812500
vt 0.125000 0.312500
vt 0.125000 0.750000
vt 0.125000 0.250000
vt 0.125000 0.687500
vt 0.093750 0.812500
vt 0.093750 0.875000
vt 0.093750 0.312500
vt 0.093750 0.375000
vt 0.093750 0.750000
vt 0.093750 0.250000
vt 0.093750 0.687500
vt 0.093750 0.187500
vt 0.093750 0.625000
vt 0.093750 0.125000
vt 0.093750 0.562500
vt 0.093750 0.062500
vt 0.093750 0.500000
vt 0.093750 0.937500
vt 0.109375 1.000000
vt 0.109375 0.000000
vt 0.093750 0.437500
vt 0.062500 0.562500
vt 0.062500 0.625000
vt 0.062500 0.062500
vt 0.062500 0.125000
vt 0.062500 0.500000
vt 0.062500 0.937500
vt 0.078125 1.000000
vt 0.078125 0.000000
vt 0.062500 0.437500
vt 0.062500 0.875000
vt 0.062500 0.375000
vt 0.062500 0.812500
vt 0.062500 0.312500
vt 0.062500 0.750000
vt 0.062500 0.250000
vt 0.062500 0.687500
vt 0.062500 0.187500
vt 0.031250 0.312500
vt 0.031250 0.375000
vt 0.031250 0.750000
vt 0.031250 0.812500
vt 0.031250 0.250000
vt 0.031250 0.687500
vt 0.031250 0.187500
vt 0.031250 0.625000
vt 0.031250 0.125000
vt 0.031250 0.562500
vt 0.031250 0.062500
vt 0.031250 0.500000
vt 0.031250 0.937500
vt 0.046875 1.000000
vt 0.046875 0.000000
vt 0.031250 0.437500
vt 0.031250 0.875000
vt 0.000000 0.062500
vt 0.000000 0.125000
vt 0.000000 0.500000
vt 0.000000 0.562500
vt 0.000000 0.937500
vt 0.015625 1.000000
vt 0.015625 0.000000
vt 0.000000 0.437500
vt 0.000000 0.875000
vt 0.000000 0.375000
vt 0.000000 0.812500
vt 0.000000 0.312500
vt 0.000000 0.750000
vt 0.000000 0.250000
vt 0.000000 0.687500
vt 0.000000 0.187500
vt 0.000000 0.625000
vt 1.000000 0.250000
vt 0.968750 0.250000
vt 0.968750 0.312500
vt 1.000000 0.312500
vt 1.000000 0.687500
vt 0.968750 0.687500
vt 0.968750 0.750000
vt 1.000000 0.750000
vt 1.000000 0.187500
vt 0.968750 0.187500
vt 1.000000 0.625000
vt 0.968750 0.625000
vt 1.000000 0.125000
vt 0.968750 0.125000
vt 1.000000 0.562500
vt 0.968750 0.562500
vt 1.000000 0.062500
vt 0.968750 0.062500
vt 1.000000 0.500000
vt 0.968750 0.500000
vt 1.000000 0.937500
vt 0.968750 0.937500
vt 0.984375 1.000000
vt 0.984375 0.000000
vt 1.000000 0.437500
vt 0.968750 0.437500
vt 1.000000 0.875000
vt 0.968750 0.875000
vt 1.000000 0.375000
vt 0.968750 0.375000
vt 1.000000 0.812500
vt 0.968750 0.812500
vt 0.937500 0.937500
vt 0.953125 1.000000
vt 0.953125 0.000000
vt 0.937500 0.062500
vt 0.937500 0.437500
vt 0.937500 0.500000
vt 0.937500 0.875000
vt 0.937500 0.375000
vt 0.937500 0.812500
vt 0.937500 0.312500
vt 0.937500 0.750000
vt 0.937500 0.250000
vt 0.937500 0.687500
vt 0.937500 0.187500
vt 0.937500 0.625000
vt 0.937500 0.125000
vt 0.937500 0.562500
vt 0.906250 0.687500
vt 0.906250 0.750000
vt 0.906250 0.187500
vt 0.906250 0.250000
vt 0.906250 0.625000
vt 0.906250 0.125000
vt 0.906250 0.562500
vt 0.906250 0.062500
vt 0.906250 0.500000
vt 0.906250 0.937500
vt 0.921875 1.000000
vt 0.921875 0.000000
vt 0.906250 0.437500
vt 0.906250 0.875000
vt 0.906250 0.375000
vt 0.906250 0.812500
vt 0.906250 0.312500
vt 0.875000 0.437500
vt 0.875000 0.500000
vt 0.875000 0.875000
vt 0.875000 0.937500
vt 0.875000 0.375000
vt 0.875000 0.812500
vt 0.875000 0.312500
vt 0.875000 0.750000
vt 0.875000 0.250000
vt 0.875000 0.687500
vt 0.875000 0.187500
vt 0.875000 0.625000
vt 0.875000 0.125000
vt 0.875000 0.562500
vt 0.875000 0.062500
vt 0.890625 1.000000
vt 0.890625 0.000000
vt 0.843750 0.187500
vt 0.843750 0.250000
vt 0.843750 0.625000
vt 0.843750 0.687500
vt 0.843750 0.125000
vt 0.843750 0.562500
vt 0.843750 0.062500
vt 0.843750 0.500000
vt 0.843750 0.937500
vt 0.859375 1.000000
vt 0.859375 0.000000
vt 0.843750 0.437500
vt 0.843750 0.875000
vt 0.843750 0.375000
vt 0.843750 0.812500
vt 0.843750 0.312500
vt 0.843750 0.750000
vt 0.812500 0.875000
vt 0.812500 0.937500
vt 0.812500 0.375000
vt 0.812500 0.437500
vt 0.812500 0.812500
vt 0.812500 0.312500
vt 0.812500 0.750000
vt 0.812500 0.250000
vt 0.812500 0.687500
vt 0.812500 0.187500
vt 0.812500 0.625000
vt 0.812500 0.125000
vt 0.812500 0.562500
vt 0.812500 0.062500
vt 0.812500 0.500000
vt 0.828125 1.000000
vt 0.828125 0.000000
vt 0.781250 0.625000
vt 0.781250 0.687500
vt 0.781250 0.125000
vt 0.781250 0.187500
vt 0.781250 0.562500
vt 0.781250 0.062500
vt 0.781250 0.500000
vt 0.781250 0.937500
vt 0.796875 1.000000
vt 0.796875 0.000000
vt 0.781250 0.437500
vt 0.781250 0.875000
vt 0.781250 0.375000
vt 0.781250 0.812500
vt 0.781250 0.312500
vt 0.781250 0.750000
vt 0.781250 0.250000
vt 0.765625 1.000000
vt 0.765625 0.000000
s 1
usemtl マテリアル
f 478/1/478 16/2/16 15/3/15 5/4/5
f 1/5/1 9/6/9 8/7/8 475/8/475
f 6/9/6 17/10/17 16/2/16 478/1/478
f 476/11/476 10/12/10 9/6/9 1/5/1
f 479/13/479 18/14/18 17/10/17 6/9/6
f 2/15/2 11/16/11 10/12/10 476/11/476
f 480/17/480 19/18/19 18/14/18 479/13/479
f 477/19/477 12/20/12 11/16/11 2/15/2
f 481/21/481 20/22/20 19/18/19 480/17/480
f 3/23/3 13/24/13 12/20/12 477/19/477
f 482/25/482 21/26/21 20/22/20 481/21/481
f 4/27/4 14/28/14 13/24/13 3/23/3
f 474/29/474 7/30/7 82/31/82
f 308/32/308 21/26/21 482/25/482
f 5/4/5 15/3/15 14/28/14 4/27/4
f 475/8/475 8/7/8 7/30/7 474/29/474
f 7/30/7 22/33/22 82/34/82
f 308/35/308 36/36/36 21/26/21
f 15/3/15 30/37/30 29/38/29 14/28/14
f 8/7/8 23/39/23 22/33/22 7/30/7
f 16/2/16 31/40/31 30/37/30 15/3/15
f 9/6/9 24/41/24 23/39/23 8/7/8
f 17/10/17 32/42/32 31/40/31 16/2/16
f 10/12/10 25/43/25 24/41/24 9/6/9
f 18/14/18 33/44/33 32/42/32 17/10/17
f 11/16/11 26/45/26 25/43/25 10/12/10
f 19/18/19 34/46/34 33/44/33 18/14/18
f 12/20/12 27/47/27 26/45/26 11/16/11
f 20/22/20 35/48/35 34/46/34 19/18/19
f 13/24/13 28/49/28 27/47/27 12/20/12
f 21/26/21 36/36/36 35/48/35 20/22/20
f 14/28/14 29/38/29 28/49/28 13/24/13
f 26/45/26 41/50/41 40/51/40 25/43/25
f 34/46/34 49/52/49 48/53/48 33/44/33
f 27/47/27 42/54/42 41/50/41 26/45/26
f 35/48/35 50/55/50 49/52/49 34/46/34
f 28/49/28 43/56/43 42/54/42 27/47/27
f 36/36/36 51/57/51 50/55/50 35/48/35
f 29/38/29 44/58/44 43/56/43 28/49/28
f 22/33/22 37/59/37 82/60/82
f 308/61/308 51/57/51 36/36/36
f 30/37/30 45/62/45 44/58/44 29/38/29
f 23/39/23 38/63/38 37/59/37 22/33/22
f 31/40/31 46/64/46 45/62/45 30/37/30
f 24/41/24 39/65/39 38/63/38 23/39/23
f 32/42/32 47/66/47 46/64/46 31/40/31
f 25/43/25 40/51/40 39/65/39 24/41/24
f 33/44/33 48/53/48 47/66/47 32/42/32
f 45/62/45 60/67/60 59/68/59 44/58/44
f 38/63/38 53/69/53 52/70/52 37/59/37
f 46/64/46 61/71/61 60/67/60 45/62/45
f 39/65/39 54/72/54 53/69/53 38/63/38
f 47/66/47 62/73/62 61/71/61 46/64/46
f 40/51/40 55/74/55 54/72/54 39/65/39
f 48/53/48 63/75/63 62/73/62 47/66/47
f 41/50/41 56/76/56 55/74/55 40/51/40
f 49/52/49 64/77/64 63/75/63 48/53/48
f 42/54/42 57/78/57 56/76/56 41/50/41
f 50/55/50 65/79/65 64/77/64 49/52/49
f 43/56/43 58/80/58 57/78/57 42/54/42
f 51/57/51 66/81/66 65/79/65 50/55/50
f 44/58/44 59/68/59 58/80/58 43/56/43
f 37/59/37 52/70/52 82/82/82
f 308/83/308 66/81/66 51/57/51
f 64/77/64 79/84/79 78/85/78 63/75/63
f 57/78/57 72/86/72 71/87/71 56/76/56
f 65/79/65 80/88/80 79/84/79 64/77/64
f 58/80/58 73/89/73 72/86/72 57/78/57
f 66/81/66 81/90/81 80/88/80 65/79/65
f 59/68/59 74/91/74 73/89/73 58/80/58
f 52/70/52 67/92/67 82/93/82
f 308/94/308 81/90/81 66/81/66
f 60/67/60 75/95/75 74/91/74 59/68/59
f 53/69/53 68/96/68 67/92/67 52/70/52
f 61/71/61 76/97/76 75/95/75 60/67/60
f 54/72/54 69/98/69 68/96/68 53/69/53
f 62/73/62 77/99/77 76/97/76 61/71/61
f 55/74/55 70/100/70 69/98/69 54/72/54
f 63/75/63 78/85/78 77/99/77 62/73/62
f 56/76/56 71/87/71 70/100/70 55/74/55
f 76/97/76 92/101/92 91/102/91 75/95/75
f 69/98/69 85/103/85 84/104/84 68/96/68
f 77/99/77 93/105/93 92/101/92 76/97/76
f 70/100/70 86/106/86 85/103/85 69/98/69
f 78/85/78 94/107/94 93/105/93 77/99/77
f 71/87/71 87/108/87 86/106/86 70/100/70
f 79/84/79 95/109/95 94/107/94 78/85/78
f 72/86/72 88/110/88 87/108/87 71/87/71
f 80/88/80 96/111/96 95/109/95 79/84/79
f 73/89/73 89/112/89 88/110/88 72/86/72
f 81/90/81 97/113/97 96/111/96 80/88/80
f 74/91/74 90/114/90 89/112/89 73/89/73
f 67/92/67 83/115/83 82/116/82
f 308/117/308 97/113/97 81/90/81
f 75/95/75 91/102/91 90/114/90 74/91/74
f 68/96/68 84/104/84 83/115/83 67/92/67
f 96/111/96 111/118/111 110/119/110 95/109/95
f 89/112/89 104/120/104 103/121/103 88/110/88
f 97/113/97 112/122/112 111/118/111 96/111/96
f 90/114/90 105/123/105 104/120/104 89/112/89
f 83/115/83 98/124/98 82/125/82
f 308/126/308 112/122/112 97/113/97
f 91/102/91 106/127/106 105/123/105 90/114/90
f 84/104/84 99/128/99 98/124/98 83/115/83
f 92/101/92 107/129/107 106/127/106 91/102/91
f 85/103/85 100/130/100 99/128/99 84/104/84
f 93/105/93 108/131/108 107/129/107 92/101/92
f 86/106/86 101/132/101 100/130/100 85/103/85
f 94/107/94 109/133/109 108/131/108 93/105/93
f 87/108/87 102/134/102 101/132/101 86/106/86
f 95/109/95 110/119/110 109/133/109 94/107/94
f 88/110/88 103/121/103 102/134/102 87/108/87
f 100/130/100 115/135/115 114/136/114 99/128/99
f 108/131/108 123/137/123 122/138/122 107/129/107
f 101/132/101 116/139/116 115/135/115 100/130/100
f 109/133/109 124/140/124 123/137/123 108/131/108
f 102/134/102 117/141/117 116/139/116 101/132/101
f 110/119/110 125/142/125 124/140/124 109/133/109
f 103/121/103 118/143/118 117/141/117 102/134/102
f 111/118/111 126/144/126 125/142/125 110/119/110
f 104/120/104 119/145/119 118/143/118 103/121/103
f 112/122/112 127/146/127 126/144/126 111/118/111
f 105/123/105 120/147/120 119/145/119 104/120/104
f 98/124/98 113/148/113 82/149/82
f 308/150/308 127/146/127 112/122/112
f 106/127/106 121/151/121 120/147/120 105/123/105
f 99/128/99 114/136/114 113/148/113 98/124/98
f 107/129/107 122/138/122 121/151/121 106/127/106
f 119/145/119 134/152/134 133/153/133 118/143/118
f 127/146/127 142/154/142 141/155/141 126/144/126
f 120/147/120 135/156/135 134/152/134 119/145/119
f 113/148/113 128/157/128 82/158/82
f 308/159/308 142/154/142 127/146/127
f 121/151/121 136/160/136 135/156/135 120/147/120
f 114/136/114 129/161/129 128/157/128 113/148/113
f 122/138/122 137/162/137 136/160/136 121/151/121
f 115/135/115 130/163/130 129/161/129 114/136/114
f 123/137/123 138/164/138 137/162/137 122/138/122
f 116/139/116 131/165/131 130/163/130 115/135/115
f 124/140/124 139/166/139 138/164/138 123/137/123
f 117/141/117 132/167/132 131/165/131 116/139/116
f 125/142/125 140/168/140 139/166/139 124/140/124
f 118/143/118 133/153/133 132/167/132 117/141/117
f 126/144/126 141/155/141 140/168/140 125/142/125
f 138/164/138 153/169/153 152/170/152 137/162/137
f 131/165/131 146/171/146 145/172/145 130/163/130
f 139/166/139 154/173/154 153/169/153 138/164/138
f 132/167/132 147/174/147 146/171/146 131/165/131
f 140/168/140 155/175/155 154/173/154 139/166/139
f 133/153/133 148/176/148 147/174/147 132/167/132
f 141/155/141 156/177/156 155/175/155 140/168/140
f 134/152/134 149/178/149 148/176/148 133/153/133
f 142/154/142 157/179/157 156/177/156 141/155/141
f 135/156/135 150/180/150 149/178/149 134/152/134
f 128/157/128 143/181/143 82/182/82
f 308/183/308 157/179/157 142/154/142
f 136/160/136 151/184/151 150/180/150 135/156/135
f 129/161/129 144/185/144 143/181/143 128/157/128
f 137/162/137 152/170/152 151/184/151 136/160/136
f 130/163/130 145/172/145 144/185/144 129/161/129
f 157/179/157 172/186/172 171/187/171 156/177/156
f 150/180/150 165/188/165 164/189/164 149/178/149
f 143/181/143 158/190/158 82/191/82
f 308/192/308 172/186/172 157/179/157
f 151/184/151 166/193/166 165/188/165 150/180/150
f 144/185/144 159/194/159 158/190/158 143/181/143
f 152/170/152 167/195/167 166/193/166 151/184/151
f 145/172/145 160/196/160 159/194/159 144/185/144
f 153/169/153 168/197/168 167/195/167 152/170/152
f 146/171/146 161/198/161 160/196/160 145/172/145
f 154/173/154 169/199/169 168/197/168 153/169/153
f 147/174/147 162/200/162 161/198/161 146/171/146
f 155/175/155 170/201/170 169/199/169 154/173/154
f 148/176/148 163/202/163 162/200/162 147/174/147
f 156/177/156 171/187/171 170/201/170 155/175/155
f 149/178/149 164/189/164 163/202/163 148/176/148
f 161/198/161 176/203/176 175/204/175 160/196/160
f 169/199/169 184/205/184 183/206/183 168/197/168
f 162/200/162 177/207/177 176/203/176 161/198/161
f 170/201/170 185/208/185 184/205/184 169/199/169
f 163/202/163 178/209/178 177/207/177 162/200/162
f 171/187/171 186/210/186 185/208/185 170/201/170
f 164/189/164 179/211/179 178/209/178 163/202/163
f 172/186/172 187/212/187 186/210/186 171/187/171
f 165/188/165 180/213/180 179/211/179 164/189/164
f 158/190/158 173/214/173 82/215/82
f 308/216/308 187/212/187 172/186/172
f 166/193/166 181/217/181 180/213/180 165/188/165
f 159/194/159 174/218/174 173/214/173 158/190/158
f 167/195/167 182/219/182 181/217/181 166/193/166
f 160/196/160 175/204/175 174/218/174 159/194/159
f 168/197/168 183/206/183 182/219/182 167/195/167
f 180/213/180 195/220/195 194/221/194 179/211/179
f 173/214/173 188/222/188 82/223/82
f 308/224/308 202/225/202 187/212/187
f 181/217/181 196/226/196 195/220/195 180/213/180
f 174/218/174 189/227/189 188/222/188 173/214/173
f 182/219/182 197/228/197 196/226/196 181/217/181
f 175/204/175 190/229/190 189/227/189 174/218/174
f 183/206/183 198/230/198 197/228/197 182/219/182
f 176/203/176 191/231/191 190/229/190 175/204/175
f 184/205/184 199/232/199 198/230/198 183/206/183
f 177/207/177 192/233/192 191/231/191 176/203/176
f 185/208/185 200/234/200 199/232/199 184/205/184
f 178/209/178 193/235/193 192/233/192 177/207/177
f 186/210/186 201/236/201 200/234/200 185/208/185
f 179/211/179 194/221/194 193/235/193 178/209/178
f 187/212/187 202/225/202 201/236/201 186/210/186
f 199/232/199 214/237/214 213/238/213 198/230/198
f 192/233/192 207/239/207 206/240/206 191/231/191
f 200/234/200 215/241/215 214/237/214 199/232/199
f 193/235/193 208/242/208 207/239/207 192/233/192
f 201/236/201 216/243/216 215/241/215 200/234/200
f 194/221/194 209/244/209 208/242/208 193/235/193
f 202/225/202 217/245/217 216/243/216 201/236/201
f 195/220/195 210/246/210 209/244/209 194/221/194
f 188/222/188 203/247/203 82/248/82
f 308/249/308 217/245/217 202/225/202
f 196/226/196 211/250/211 210/246/210 195/220/195
f 189/227/189 204/251/204 203/247/203 188/222/188
f 197/228/197 212/252/212 211/250/211 196/226/196
f 190/229/190 205/253/205 204/251/204 189/227/189
f 198/230/198 213/238/213 212/252/212 197/228/197
f 191/231/191 206/240/206 205/253/205 190/229/190
f 308/254/308 232/255/232 217/245/217
f 211/250/211 226/256/226 225/257/225 210/246/210
f 204/251/204 219/258/219 218/259/218 203/247/203
f 212/252/212 227/260/227 226/256/226 211/250/211
f 205/253/205 220/261/220 219/258/219 204/251/204
f 213/238/213 228/262/228 227/260/227 212/252/212
f 206/240/206 221/263/221 220/261/220 205/253/205
f 214/237/214 229/264/229 228/262/228 213/238/213
f 207/239/207 222/265/222 221/263/221 206/240/206
f 215/241/215 230/266/230 229/264/229 214/237/214
f 208/242/208 223/267/223 222/265/222 207/239/207
f 216/243/216 231/268/231 230/266/230 215/241/215
f 209/244/209 224/269/224 223/267/223 208/242/208
f 217/245/217 232/255/232 231/268/231 216/243/216
f 210/246/210 225/257/225 224/269/224 209/244/209
f 203/247/203 218/259/218 82/270/82
f 230/266/230 245/271/245 244/272/244 229/264/229
f 223/267/223 238/273/238 237/274/237 222/265/222
f 231/268/231 246/275/246 245/271/245 230/266/230
f 224/269/224 239/276/239 238/273/238 223/267/223
f 232/255/232 247/277/247 246/275/246 231/268/231
f 225/257/225 240/278/240 239/276/239 224/269/224
f 218/259/218 233/279/233 82/280/82
f 308/281/308 247/277/247 232/255/232
f 226/256/226 241/282/241 240/278/240 225/257/225
f 219/258/219 234/283/234 233/279/233 218/259/218
f 227/260/227 242/284/242 241/282/241 226/256/226
f 220/261/220 235/285/235 234/283/234 219/258/219
f 228/262/228 243/286/243 242/284/242 227/260/227
f 221/263/221 236/287/236 235/285/235 220/261/220
f 229/264/229 244/272/244 243/286/243 228/262/228
f 222/265/222 237/274/237 236/287/236 221/263/221
f 234/283/234 249/288/249 248/289/248 233/279/233
f 242/284/242 257/290/257 256/291/256 241/282/241
f 235/285/235 250/292/250 249/288/249 234/283/234
f 243/286/243 258/293/258 257/290/257 242/284/242
f 236/287/236 251/294/251 250/292/250 235/285/235
f 244/272/244 259/295/259 258/293/258 243/286/243
f 237/274/237 252/296/252 251/294/251 236/287/236
f 245/271/245 260/297/260 259/295/259 244/272/244
f 238/273/238 253/298/253 252/296/252 237/274/237
f 246/275/246 261/299/261 260/297/260 245/271/245
f 239/276/239 254/300/254 253/298/253 238/273/238
f 247/277/247 262/301/262 261/299/261 246/275/246
f 240/278/240 255/302/255 254/300/254 239/276/239
f 233/279/233 248/289/248 82/303/82
f 308/304/308 262/301/262 247/277/247
f 241/282/241 256/291/256 255/302/255 240/278/240
f 253/298/253 268/305/268 267/306/267 252/296/252
f 261/299/261 276/307/276 275/308/275 260/297/260
f 254/300/254 269/309/269 268/305/268 253/298/253
f 262/301/262 277/310/277 276/307/276 261/299/261
f 255/302/255 270/311/270 269/309/269 254/300/254
f 248/289/248 263/312/263 82/313/82
f 308/314/308 277/310/277 262/301/262
f 256/291/256 271/315/271 270/311/270 255/302/255
f 249/288/249 264/316/264 263/312/263 248/289/248
f 257/290/257 272/317/272 271/315/271 256/291/256
f 250/292/250 265/318/265 264/316/264 249/288/249
f 258/293/258 273/319/273 272/317/272 257/290/257
f 251/294/251 266/320/266 265/318/265 250/292/250
f 259/295/259 274/321/274 273/319/273 258/293/258
f 252/296/252 267/306/267 266/320/266 251/294/251
f 260/297/260 275/308/275 274/321/274 259/295/259
f 272/317/272 287/322/287 286/323/286 271/315/271
f 265/318/265 280/324/280 279/325/279 264/316/264
f 273/319/273 288/326/288 287/322/287 272/317/272
f 266/320/266 281/327/281 280/324/280 265/318/265
f 274/321/274 289/328/289 288/326/288 273/319/273
f 267/306/267 282/329/282 281/327/281 266/320/266
f 275/308/275 290/330/290 289/328/289 274/321/274
f 268/305/268 283/331/283 282/329/282 267/306/267
f 276/307/276 291/332/291 290/330/290 275/308/275
f 269/309/269 284/333/284 283/331/283 268/305/268
f 277/310/277 292/334/292 291/332/291 276/307/276
f 270/311/270 285/335/285 284/333/284 269/309/269
f 263/312/263 278/336/278 82/337/82
f 308/338/308 292/334/292 277/310/277
f 271/315/271 286/323/286 285/335/285 270/311/270
f 264/316/264 279/325/279 278/336/278 263/312/263
f 291/332/291 306/339/306 305/340/305 290/330/290
f 284/333/284 299/341/299 298/342/298 283/331/283
f 292/334/292 307/343/307 306/339/306 291/332/291
f 285/335/285 300/344/300 299/341/299 284/333/284
f 278/336/278 293/345/293 82/346/82
f 308/347/308 307/343/307 292/334/292
f 286/323/286 301/348/301 300/344/300 285/335/285
f 279/325/279 294/349/294 293/345/293 278/336/278
f 287/322/287 302/350/302 301/348/301 286/323/286
f 280/324/280 295/351/295 294/349/294 279/325/279
f 288/326/288 303/352/303 302/350/302 287/322/287
f 281/327/281 296/353/296 295/351/295 280/324/280
f 289/328/289 304/354/304 303/352/303 288/326/288
f 282/329/282 297/355/297 296/353/296 281/327/281
f 290/330/290 305/340/305 304/354/304 289/328/289
f 283/331/283 298/342/298 297/355/297 282/329/282
f 295/351/295 311/356/311 310/357/310 294/349/294
f 303/352/303 319/358/319 318/359/318 302/350/302
f 296/353/296 312/360/312 311/356/311 295/351/295
f 304/354/304 320/361/320 319/358/319 303/352/303
f 297/355/297 313/362/313 312/360/312 296/353/296
f 305/340/305 321/363/321 320/361/320 304/354/304
f 298/342/298 314/364/314 313/362/313 297/355/297
f 306/339/306 322/365/322 321/363/321 305/340/305
f 299/341/299 315/366/315 314/364/314 298/342/298
f 307/343/307 323/367/323 322/365/322 306/339/306
f 300/344/300 316/368/316 315/366/315 299/341/299
f 293/345/293 309/369/309 82/370/82
f 308/371/308 323/367/323 307/343/307
f 301/348/301 317/372/317 316/368/316 300/344/300
f 294/349/294 310/357/310 309/369/309 293/345/293
f 302/350/302 318/359/318 317/372/317 301/348/301
f 315/366/315 330/373/330 329/374/329 314/364/314
f 323/367/323 338/375/338 337/376/337 322/365/322
f 316/368/316 331/377/331 330/373/330 315/366/315
f 309/369/309 324/378/324 82/379/82
f 308/380/308 338/375/338 323/367/323
f 317/372/317 332/381/332 331/377/331 316/368/316
f 310/357/310 325/382/325 324/378/324 309/369/309
f 318/359/318 333/383/333 332/381/332 317/372/317
f 311/356/311 326/384/326 325/382/325 310/357/310
f 319/358/319 334/385/334 333/383/333 318/359/318
f 312/360/312 327/386/327 326/384/326 311/356/311
f 320/361/320 335/387/335 334/385/334 319/358/319
f 313/362/313 328/388/328 327/386/327 312/360/312
f 321/363/321 336/389/336 335/387/335 320/361/320
f 314/364/314 329/374/329 328/388/328 313/362/313
f 322/365/322 337/376/337 336/389/336 321/363/321
f 334/385/334 349/390/349 348/391/348 333/383/333
f 327/386/327 342/392/342 341/393/341 326/384/326
f 335/387/335 350/394/350 349/390/349 334/385/334
f 328/388/328 343/395/343 342/392/342 327/386/327
f 336/389/336 351/396/351 350/394/350 335/387/335
f 329/374/329 344/397/344 343/395/343 328/388/328
f 337/376/337 352/398/352 351/396/351 336/389/336
f 330/373/330 345/399/345 344/397/344 329/374/329
f 338/375/338 353/400/353 352/398/352 337/376/337
f 331/377/331 346/401/346 345/399/345 330/373/330
f 324/378/324 339/402/339 82/403/82
f 308/404/308 353/400/353 338/375/338
f 332/381/332 347/405/347 346/401/346 331/377/331
f 325/382/325 340/406/340 339/402/339 324/378/324
f 333/383/333 348/391/348 347/405/347 332/381/332
f 326/384/326 341/393/341 340/406/340 325/382/325
f 353/400/353 368/407/368 367/408/367 352/398/352
f 346/401/346 361/409/361 360/410/360 345/399/345
f 339/402/339 354/411/354 82/412/82
f 308/413/308 368/407/368 353/400/353
f 347/405/347 362/414/362 361/409/361 346/401/346
f 340/406/340 355/415/355 354/411/354 339/402/339
f 348/391/348 363/416/363 362/414/362 347/405/347
f 341/393/341 356/417/356 355/415/355 340/406/340
f 349/390/349 364/418/364 363/416/363 348/391/348
f 342/392/342 357/419/357 356/417/356 341/393/341
f 350/394/350 365/420/365 364/418/364 349/390/349
f 343/395/343 358/421/358 357/419/357 342/392/342
f 351/396/351 366/422/366 365/420/365 350/394/350
f 344/397/344 359/423/359 358/421/358 343/395/343
f 352/398/352 367/408/367 366/422/366 351/396/351
f 345/399/345 360/410/360 359/423/359 344/397/344
f 365/424/365 380/425/380 379/426/379 364/427/364
f 358/428/358 373/429/373 372/430/372 357/431/357
f 366/432/366 381/433/381 380/425/380 365/424/365
f 359/434/359 374/435/374 373/429/373 358/428/358
f 367/436/367 382/437/382 381/433/381 366/432/366
f 360/438/360 375/439/375 374/435/374 359/434/359
f 368/440/368 383/441/383 382/437/382 367/436/367
f 361/442/361 376/443/376 375/439/375 360/438/360
f 354/444/354 369/445/369 82/446/82
f 308/447/308 383/441/383 368/440/368
f 362/448/362 377/449/377 376/443/376 361/442/361
f 355/450/355 370/451/370 369/445/369 354/444/354
f 363/452/363 378/453/378 377/449/377 362/448/362
f 356/454/356 371/455/371 370/451/370 355/450/355
f 364/427/364 379/426/379 378/453/378 363/452/363
f 357/431/357 372/430/372 371/455/371 356/454/356
f 369/445/369 384/456/384 82/457/82
f 308/458/308 398/459/398 383/441/383
f 377/449/377 392/460/392 391/461/391 376/443/376
f 370/451/370 385/462/385 384/456/384 369/445/369
f 378/453/378 393/463/393 392/460/392 377/449/377
f 371/455/371 386/464/386 385/462/385 370/451/370
f 379/426/379 394/465/394 393/463/393 378/453/378
f 372/430/372 387/466/387 386/464/386 371/455/371
f 380/425/380 395/467/395 394/465/394 379/426/379
f 373/429/373 388/468/388 387/466/387 372/430/372
f 381/433/381 396/469/396 395/467/395 380/425/380
f 374/435/374 389/470/389 388/468/388 373/429/373
f 382/437/382 397/471/397 396/469/396 381/433/381
f 375/439/375 390/472/390 389/470/389 374/435/374
f 383/441/383 398/459/398 397/471/397 382/437/382
f 376/443/376 391/461/391 390/472/390 375/439/375
f 388/468/388 403/473/403 402/474/402 387/466/387
f 396/469/396 411/475/411 410/476/410 395/467/395
f 389/470/389 404/477/404 403/473/403 388/468/388
f 397/471/397 412/478/412 411/475/411 396/469/396
f 390/472/390 405/479/405 404/477/404 389/470/389
f 398/459/398 413/480/413 412/478/412 397/471/397
f 391/461/391 406/481/406 405/479/405 390/472/390
f 384/456/384 399/482/399 82/483/82
f 308/484/308 413/480/413 398/459/398
f 392/460/392 407/485/407 406/481/406 391/461/391
f 385/462/385 400/486/400 399/482/399 384/456/384
f 393/463/393 408/487/408 407/485/407 392/460/392
f 386/464/386 401/488/401 400/486/400 385/462/385
f 394/465/394 409/489/409 408/487/408 393/463/393
f 387/466/387 402/474/402 401/488/401 386/464/386
f 395/467/395 410/476/410 409/489/409 394/465/394
f 407/485/407 422/490/422 421/491/421 406/481/406
f 400/486/400 415/492/415 414/493/414 399/482/399
f 408/487/408 423/494/423 422/490/422 407/485/407
f 401/488/401 416/495/416 415/492/415 400/486/400
f 409/489/409 424/496/424 423/494/423 408/487/408
f 402/474/402 417/497/417 416/495/416 401/488/401
f 410/476/410 425/498/425 424/496/424 409/489/409
f 403/473/403 418/499/418 417/497/417 402/474/402
f 411/475/411 426/500/426 425/498/425 410/476/410
f 404/477/404 419/501/419 418/499/418 403/473/403
f 412/478/412 427/502/427 426/500/426 411/475/411
f 405/479/405 420/503/420 419/501/419 404/477/404
f 413/480/413 428/504/428 427/502/427 412/478/412
f 406/481/406 421/491/421 420/503/420 405/479/405
f 399/482/399 414/493/414 82/505/82
f 308/506/308 428/504/428 413/480/413
f 426/500/426 441/507/441 440/508/440 425/498/425
f 419/501/419 434/509/434 433/510/433 418/499/418
f 427/502/427 442/511/442 441/507/441 426/500/426
f 420/503/420 435/512/435 434/509/434 419/501/419
f 428/504/428 443/513/443 442/511/442 427/502/427
f 421/491/421 436/514/436 435/512/435 420/503/420
f 414/493/414 429/515/429 82/516/82
f 308/517/308 443/513/443 428/504/428
f 422/490/422 437/518/437 436/514/436 421/491/421
f 415/492/415 430/519/430 429/515/429 414/493/414
f 423/494/423 438/520/438 437/518/437 422/490/422
f 416/495/416 431/521/431 430/519/430 415/492/415
f 424/496/424 439/522/439 438/520/438 423/494/423
f 417/497/417 432/523/432 431/521/431 416/495/416
f 425/498/425 440/508/440 439/522/439 424/496/424
f 418/499/418 433/510/433 432/523/432 417/497/417
f 430/519/430 445/524/445 444/525/444 429/515/429
f 438/520/438 453/526/453 452/527/452 437/518/437
f 431/521/431 446/528/446 445/524/445 430/519/430
f 439/522/439 454/529/454 453/526/453 438/520/438
f 432/523/432 447/530/447 446/528/446 431/521/431
f 440/508/440 455/531/455 454/529/454 439/522/439
f 433/510/433 448/532/448 447/530/447 432/523/432
f 441/507/441 456/533/456 455/531/455 440/508/440
f 434/509/434 449/534/449 448/532/448 433/510/433
f 442/511/442 457/535/457 456/533/456 441/507/441
f 435/512/435 450/536/450 449/534/449 434/509/434
f 443/513/443 458/537/458 457/535/457 442/511/442
f 436/514/436 451/538/451 450/536/450 435/512/435
f 429/515/429 444/525/444 82/539/82
f 308/540/308 458/537/458 443/513/443
f 437/518/437 452/527/452 451/538/451 436/514/436
f 449/534/449 464/541/464 463/542/463 448/532/448
f 457/535/457 472/543/472 471/544/471 456/533/456
f 450/536/450 465/545/465 464/541/464 449/534/449
f 458/537/458 473/546/473 472/543/472 457/535/457
f 451/538/451 466/547/466 465/545/465 450/536/450
f 444/525/444 459/548/459 82/549/82
f 308/550/308 473/546/473 458/537/458
f 452/527/452 467/551/467 466/547/466 451/538/451
f 445/524/445 460/552/460 459/548/459 444/525/444
f 453/526/453 468/553/468 467/551/467 452/527/452
f 446/528/446 461/554/461 460/552/460 445/524/445
f 454/529/454 469/555/469 468/553/468 453/526/453
f 447/530/447 462/556/462 461/554/461 446/528/446
f 455/531/455 470/557/470 469/555/469 454/529/454
f 448/532/448 463/542/463 462/556/462 447/530/447
f 456/533/456 471/544/471 470/557/470 455/531/455
f 468/553/468 478/1/478 5/4/5 467/551/467
f 461/554/461 1/5/1 475/8/475 460/552/460
f 469/555/469 6/9/6 478/1/478 468/553/468
f 462/556/462 476/11/476 1/5/1 461/554/461
f 470/557/470 479/13/479 6/9/6 469/555/469
f 463/542/463 2/15/2 476/11/476 462/556/462
f 471/544/471 480/17/480 479/13/479 470/557/470
f 464/541/464 477/19/477 2/15/2 463/542/463
f 472/543/472 481/21/481 480/17/480 471/544/471
f 465/545/465 3/23/3 477/19/477 464/541/464
f 473/546/473 482/25/482 481/21/481 472/543/472
f 466/547/466 4/27/4 3/23/3 465/545/465
f 459/548/459 474/29/474 82/558/82
f 308/559/308 482/25/482 473/546/473
f 467/551/467 5/4/5 4/27/4 466/547/466
f 460/552/460 475/8/475 474/29/474 459/548/459
