# Blender 4.1.1
# www.blender.org
mtllib gableRoof.mtl
o 立方体.157
v -1.414214 0.000000 1.000000
v 0.000000 1.414214 1.000000
v -1.414214 0.000000 -1.000000
v 0.000000 1.414214 -1.000000
v 1.414214 0.000000 1.000000
v 1.414214 0.000000 -1.000000
vn -0.7071 0.7071 -0.0000
vn 0.7071 0.7071 -0.0000
vn -0.0000 -0.0000 1.0000
vn -0.0000 -0.0000 -1.0000
vt 0.375000 0.000000
vt 0.625000 0.000000
vt 0.625000 0.250000
vt 0.375000 0.250000
vt 0.625000 0.500000
vt 0.875000 0.500000
vt 0.875000 0.750000
vt 0.625000 0.750000
vt 0.375000 1.000000
vt 0.625000 1.000000
s 0
usemtl マテリアル
f 1/1/1 2/2/1 4/3/1 3/4/1
f 6/5/2 4/6/2 2/7/2 5/8/2
f 1/9/3 5/8/3 2/10/3
f 6/5/4 3/4/4 4/3/4
